<?xml version="1.0" encoding="UTF-8"?>
<svg version="1.1" xmlns="http://www.w3.org/2000/svg" width="309" height="366">
<path d="M0 0 C4.75982924 2.62772498 7.04616381 6.26349144 8.75 11.375 C8.8828125 13.3125 8.8828125 13.3125 8.875 15.375 C8.87757813 16.055625 8.88015625 16.73625 8.8828125 17.4375 C8.75 19.375 8.75 19.375 7.75 22.375 C8.78898438 22.32859375 9.82796875 22.2821875 10.8984375 22.234375 C21.29896692 21.91107482 29.29242858 22.72704409 37.75 29.375 C37.98074219 28.78332031 38.21148437 28.19164063 38.44921875 27.58203125 C41.11218891 21.12985454 43.84878002 16.46956393 50.4375 13.5 C55.27362886 11.88795705 59.82963395 12.23563565 64.75 13.375 C67.875 14.9375 67.875 14.9375 69.75 16.375 C69.54375 15.4675 69.3375 14.56 69.125 13.625 C68.73235168 10.2220479 68.72895493 9.06972676 70.75 6.375 C73.31265486 4.45300886 74.58198949 4.36471364 77.8125 4.5625 C82.24877351 5.78955437 82.24877351 5.78955437 83.75 8.375 C84.28568236 11.93877572 84.46494868 15.1436995 82.625 18.3125 C80.02739548 19.7844759 77.70729878 20.123315 74.75 20.375 C74.09 20.045 73.43 19.715 72.75 19.375 C73.20052734 20.17550781 73.20052734 20.17550781 73.66015625 20.9921875 C76.7480037 27.04227504 77.51995517 31.75739693 75.75 38.375 C73.37688478 42.7939042 70.33294838 47.08352581 65.75 49.375 C66.35585937 49.32859375 66.96171875 49.2821875 67.5859375 49.234375 C76.13458026 48.86612577 83.03077721 51.02109873 89.75 56.375 C90.10191406 55.84390625 90.45382813 55.3128125 90.81640625 54.765625 C94.80508824 49.05858132 98.24565787 45.43657981 105.13671875 43.8125 C112.40828425 42.74347965 117.33578817 44.27991547 123.5 48.0625 C127.41941993 52.09079271 129.53283865 56.92211716 130.75 62.375 C132.4 61.715 134.05 61.055 135.75 60.375 C156.06399698 86.0968187 164.97436353 118.446746 165 150.75 C165.00067474 151.51166473 165.00134949 152.27332947 165.00204468 153.05807495 C164.98602919 164.43011663 164.52284956 175.30596347 161.75 186.375 C161.58371094 187.0565918 161.41742188 187.73818359 161.24609375 188.44042969 C150.82815946 230.2086292 123.75657523 264.44366421 87.125 286.5 C73.89536694 293.83494807 59.51704478 299.15394808 44.75 302.375 C43.49574219 302.67277344 42.24148437 302.97054688 40.94921875 303.27734375 C20.59994194 307.66105834 -3.04351223 307.18902009 -23.25 302.375 C-24.53132813 302.08496094 -25.81265625 301.79492188 -27.1328125 301.49609375 C-36.18242677 299.27550052 -44.75398043 296.15149046 -53.25 292.375 C-54.21075439 291.95009277 -54.21075439 291.95009277 -55.19091797 291.51660156 C-72.00674156 283.93964346 -86.10795293 273.20282091 -99.25 260.375 C-99.94996094 259.74851562 -100.64992187 259.12203125 -101.37109375 258.4765625 C-125.62325219 236.19079529 -139.31470287 201.41865461 -143.25 169.375 C-143.36201868 166.71268945 -143.43691578 164.0762544 -143.453125 161.4140625 C-143.45882507 160.66522797 -143.46452515 159.91639343 -143.47039795 159.14486694 C-143.47979745 157.56322619 -143.4863617 155.98156629 -143.49023438 154.39990234 C-143.4998333 152.04096736 -143.53085914 149.68294597 -143.5625 147.32421875 C-143.6609165 133.32616661 -141.74713982 119.91529134 -137.625 106.5 C-137.37411621 105.68265381 -137.12323242 104.86530762 -136.86474609 104.02319336 C-134.88250993 97.84157509 -132.53587953 91.85758373 -129.875 85.9375 C-129.53645996 85.15068848 -129.19791992 84.36387695 -128.84912109 83.55322266 C-125.63754746 76.77652123 -121.16481792 73.88426533 -114.28125 71.23046875 C-113.4459375 71.01003906 -112.610625 70.78960937 -111.75 70.5625 C-110.8940625 70.32917969 -110.038125 70.09585938 -109.15625 69.85546875 C-108.21265625 69.61763672 -108.21265625 69.61763672 -107.25 69.375 C-107.745 68.1375 -107.745 68.1375 -108.25 66.875 C-110.25479943 59.85820198 -109.73549593 54.76507587 -106.25 48.375 C-102.51384439 43.05180484 -98.7024789 39.17234108 -92.046875 37.98046875 C-88.09836299 37.49017338 -84.22838669 37.34004054 -80.25 37.375 C-80.04246094 36.7459375 -79.83492187 36.116875 -79.62109375 35.46875 C-76.48164442 26.7465979 -72.42786507 20.74954385 -64.0625 16.4375 C-55.98993018 12.68725103 -48.23091884 12.15118529 -39.6875 14.875 C-31.76038109 18.06381271 -25.39504249 23.43161455 -21.95703125 31.34375 C-20.80595266 34.65071612 -19.98377449 37.95071904 -19.25 41.375 C-15.785 36.92 -15.785 36.92 -12.25 32.375 C-13.4875 31.653125 -14.725 30.93125 -16 30.1875 C-20.28133973 27.45956672 -23.54202705 25.26097307 -24.8125 20.08203125 C-25.63820279 14.3967235 -25.33735392 10.39195012 -22.25 5.375 C-15.88793918 -1.25714831 -8.77425039 -3.95251279 0 0 Z M50.75 49.375 C51.08 51.685 51.41 53.995 51.75 56.375 C55.05 54.725 58.35 53.075 61.75 51.375 C61.75 51.045 61.75 50.715 61.75 50.375 C58.12 50.045 54.49 49.715 50.75 49.375 Z M-42.25 94.375 C-42.88164063 94.93832031 -43.51328125 95.50164062 -44.1640625 96.08203125 C-58.23783695 109.31881912 -66.24665617 128.4758593 -67.453125 147.59375 C-67.74430139 167.97609734 -61.75262453 186.95616143 -48.25 202.375 C-47.10917969 203.68210938 -47.10917969 203.68210938 -45.9453125 205.015625 C-31.19518429 220.78133581 -10.95669925 229.0670312 10.5625 229.8125 C32.18638184 229.25052341 51.69591045 220.89417524 66.75 205.375 C67.40742188 204.70339844 68.06484375 204.03179687 68.7421875 203.33984375 C82.64486319 188.36995021 89.43030276 168.96416814 89 148.60546875 C88.14353184 137.53829421 85.72960118 127.33420237 80.75 117.375 C80.25757813 116.39015625 79.76515625 115.4053125 79.2578125 114.390625 C68.92578448 95.30850626 51.43793292 82.49279741 30.875 75.9375 C4.85563508 69.66351952 -22.51919104 76.29453751 -42.25 94.375 Z " fill="#E54F25" transform="translate(143.25,7.625)"/>
<path d="M0 0 C1.0031375 44.27180148 -11.13952785 83.40602947 -42.125 116.05859375 C-63.49284473 138.11783673 -89.87356703 153.42869165 -120 160 C-121.25425781 160.29777344 -122.50851563 160.59554687 -123.80078125 160.90234375 C-144.1707748 165.29052122 -167.76892788 164.76170356 -188 160 C-188.75539063 159.89816406 -189.51078125 159.79632813 -190.2890625 159.69140625 C-192.92204247 158.6273938 -193.44504589 156.89477296 -194.625 154.375 C-195.02976562 153.53710938 -195.43453125 152.69921875 -195.8515625 151.8359375 C-200.02717011 141.52474319 -200.81397186 129.85684248 -197.03125 119.26171875 C-191.30448442 106.70188061 -181.69025144 98.12825229 -169 93 C-163.37377724 90.95679279 -157.92043466 90.75331522 -152 91 C-151.505 89.02 -151.505 89.02 -151 87 C-150.40687012 86.87995605 -149.81374023 86.75991211 -149.20263672 86.63623047 C-132.76288435 83.2541022 -118.67603393 79.55966476 -105.42578125 68.85546875 C-103 67 -103 67 -100 66 C-99.29574492 64.68613281 -98.63320972 63.3495435 -98 62 C-96.97015892 60.80440613 -95.90431205 59.63928214 -94.8125 58.5 C-83.08436866 45.28451729 -78.71871799 29.01961669 -76 12 C-60.84944352 6.4456225 -49.10076645 7.65780272 -34 12 C-33.64808594 11.54109375 -33.29617188 11.0821875 -32.93359375 10.609375 C-29.3638236 6.17279383 -26.25144471 3.29153951 -21 1 C-18.625 1.25 -18.625 1.25 -16 2 C-10.15611919 2.41742006 -5.37510625 0 0 0 Z " fill="#2BAD4A" transform="translate(308,150)"/>
<path d="M0 0 C4.75982924 2.62772498 7.04616381 6.26349144 8.75 11.375 C8.8828125 13.3125 8.8828125 13.3125 8.875 15.375 C8.87886719 16.3959375 8.87886719 16.3959375 8.8828125 17.4375 C8.75 19.375 8.75 19.375 7.75 22.375 C8.78898437 22.32859375 9.82796875 22.2821875 10.8984375 22.234375 C21.29896692 21.91107482 29.29242858 22.72704409 37.75 29.375 C37.98074219 28.78332031 38.21148437 28.19164063 38.44921875 27.58203125 C41.11218891 21.12985454 43.84878002 16.46956393 50.4375 13.5 C55.27362886 11.88795705 59.82963395 12.23563565 64.75 13.375 C67.875 14.9375 67.875 14.9375 69.75 16.375 C69.54375 15.4675 69.3375 14.56 69.125 13.625 C68.73235168 10.2220479 68.72895493 9.06972676 70.75 6.375 C73.31265486 4.45300886 74.58198949 4.36471364 77.8125 4.5625 C82.24877351 5.78955437 82.24877351 5.78955437 83.75 8.375 C84.28568236 11.93877572 84.46494868 15.1436995 82.625 18.3125 C80.02739548 19.7844759 77.70729878 20.123315 74.75 20.375 C74.09 20.045 73.43 19.715 72.75 19.375 C73.20052734 20.17550781 73.20052734 20.17550781 73.66015625 20.9921875 C76.7480037 27.04227504 77.51995517 31.75739693 75.75 38.375 C73.37688478 42.7939042 70.33294838 47.08352581 65.75 49.375 C66.35585937 49.32859375 66.96171875 49.2821875 67.5859375 49.234375 C76.13458026 48.86612577 83.03077721 51.02109873 89.75 56.375 C90.10191406 55.84390625 90.45382813 55.3128125 90.81640625 54.765625 C94.80508824 49.05858132 98.24565787 45.43657981 105.13671875 43.8125 C112.40828425 42.74347965 117.33578817 44.27991547 123.5 48.0625 C127.41941993 52.09079271 129.53283865 56.92211716 130.75 62.375 C132.4 61.715 134.05 61.055 135.75 60.375 C154.118174 83.63299506 163.64527878 113.04274692 164.75 142.375 C157.38466998 145.77989709 157.38466998 145.77989709 153.125 145.625 C152.41085937 145.60953125 151.69671875 145.5940625 150.9609375 145.578125 C148.75 145.375 148.75 145.375 146.26171875 144.6953125 C142.97810133 144.27656191 141.85856754 145.11399405 139.1875 147 C138.44371094 147.50789062 137.69992187 148.01578125 136.93359375 148.5390625 C134.49415486 150.59011129 132.6625007 152.83367255 130.75 155.375 C129.74582031 155.08625 128.74164063 154.7975 127.70703125 154.5 C113.94084368 150.6957172 102.66709016 150.54836965 88.75 154.375 C88.68530518 153.8173999 88.62061035 153.2597998 88.55395508 152.68530273 C85.68159835 128.68324888 79.21093415 108.38593465 60.23046875 92.23046875 C45.96081254 81.30363097 29.72182192 75.1222691 11.75 74.375 C11.440625 72.89 11.440625 72.89 11.125 71.375 C8.74042479 63.29031007 3.41879607 58.52625478 -3.80859375 54.5625 C-12.56470321 50.30352836 -21.63879891 50.18499492 -30.80078125 53.27734375 C-38.9088294 56.9110942 -43.88010581 62.81765357 -48.25 70.375 C-49.1575 70.065625 -50.065 69.75625 -51 69.4375 C-56.29506536 67.89810987 -61.77225363 67.71679698 -67.25 67.375 C-67.19199219 66.4571875 -67.13398437 65.539375 -67.07421875 64.59375 C-66.7882371 56.81504918 -66.80944246 51.24546536 -72.25 45.375 C-74.81018651 43.05864077 -77.37928838 41.28880775 -80.25 39.375 C-78.07685071 30.07239604 -74.72533178 23.58077063 -66.8125 18 C-59.12233769 13.28336711 -51.27192348 12.03301987 -42.48046875 13.9921875 C-34.09205234 16.64363101 -27.0342369 21.49028549 -22.8125 29.375 C-21.12300733 33.26314751 -20.13668664 37.23712901 -19.25 41.375 C-15.785 36.92 -15.785 36.92 -12.25 32.375 C-13.4875 31.653125 -14.725 30.93125 -16 30.1875 C-20.28133973 27.45956672 -23.54202705 25.26097307 -24.8125 20.08203125 C-25.63820279 14.3967235 -25.33735392 10.39195012 -22.25 5.375 C-15.88793918 -1.25714831 -8.77425039 -3.95251279 0 0 Z M50.75 49.375 C51.08 51.685 51.41 53.995 51.75 56.375 C55.05 54.725 58.35 53.075 61.75 51.375 C61.75 51.045 61.75 50.715 61.75 50.375 C58.12 50.045 54.49 49.715 50.75 49.375 Z " fill="#E45125" transform="translate(143.25,7.625)"/>
<path d="M0 0 C2.27868586 1.13934293 4.4543689 2.28127598 6.625 3.625 C14.51332851 6.83876347 21.31395584 4.76684984 29 2 C29.08636719 3.1859375 29.17273438 4.371875 29.26171875 5.59375 C30.92772446 25.73441954 36.2959855 43.59606004 50 59 C50.88945312 60.03060547 50.88945312 60.03060547 51.796875 61.08203125 C66.84320414 77.38222115 88.46996238 83.53089155 110 85 C109.67 86.32 109.34 87.64 109 89 C107.87464844 89.16435547 107.87464844 89.16435547 106.7265625 89.33203125 C91.7908231 91.6457541 79.71271677 95.73667484 70 108 C63.6741438 118.57518134 62.07806582 127.80588389 63 140 C63.97904942 143.86051715 65.3622663 147.37785903 67 151 C67.6722584 152.66441908 68.3405101 154.33048052 69 156 C63.50243266 155.47091996 58.66262562 154.44981551 53.5 152.4375 C52.81494385 152.17356445 52.1298877 151.90962891 51.42407227 151.63769531 C32.54153914 144.18037713 15.99190935 133.65613733 1 120 C0.24855713 119.32445068 0.24855713 119.32445068 -0.51806641 118.63525391 C-17.70966381 102.99788872 -32.12726648 81.28212551 -39 59 C-39 58.34 -39 57.68 -39 57 C-37.96101563 57.04640625 -36.92203125 57.0928125 -35.8515625 57.140625 C-24.48896704 57.50227379 -16.75178909 56.36462674 -7.6875 48.9375 C-0.59945065 42.19493733 2.59576175 33.96251413 3.25 24.3125 C3.16908411 18.20913022 1.43492792 12.27609256 -1.8125 7.125 C-2.4003125 6.073125 -2.4003125 6.073125 -3 5 C-2.28541109 2.85623326 -1.58775583 1.58775583 0 0 Z " fill="#DE4528" transform="translate(47,152)"/>
<path d="M0 0 C4.75982924 2.62772498 7.04616381 6.26349144 8.75 11.375 C8.8828125 13.3125 8.8828125 13.3125 8.875 15.375 C8.87886719 16.3959375 8.87886719 16.3959375 8.8828125 17.4375 C8.75 19.375 8.75 19.375 7.75 22.375 C8.78898437 22.32859375 9.82796875 22.2821875 10.8984375 22.234375 C21.29896692 21.91107482 29.29242858 22.72704409 37.75 29.375 C37.98074219 28.78332031 38.21148437 28.19164063 38.44921875 27.58203125 C41.11218891 21.12985454 43.84878002 16.46956393 50.4375 13.5 C55.27362886 11.88795705 59.82963395 12.23563565 64.75 13.375 C67.875 14.9375 67.875 14.9375 69.75 16.375 C69.54375 15.4675 69.3375 14.56 69.125 13.625 C68.73235168 10.2220479 68.72895493 9.06972676 70.75 6.375 C73.31265486 4.45300886 74.58198949 4.36471364 77.8125 4.5625 C82.24877351 5.78955437 82.24877351 5.78955437 83.75 8.375 C84.28568236 11.93877572 84.46494868 15.1436995 82.625 18.3125 C80.02739548 19.7844759 77.70729878 20.123315 74.75 20.375 C74.09 20.045 73.43 19.715 72.75 19.375 C73.20052734 20.17550781 73.20052734 20.17550781 73.66015625 20.9921875 C76.7480037 27.04227504 77.51995517 31.75739693 75.75 38.375 C73.14041667 43.23422414 70.127659 47.2691121 65.0625 49.625 C60.51106871 50.65551274 55.05502441 51.52751221 50.75 49.375 C50.88019531 49.931875 51.01039063 50.48875 51.14453125 51.0625 C51.99020529 55.74136943 52.08787199 58.56419613 49.4375 62.625 C48.54899928 63.88022262 47.65403327 65.13091752 46.75 66.375 C44.26539627 71.09574708 44.13657968 76.13582799 43.75 81.375 C42.780625 81.03726563 41.81125 80.69953125 40.8125 80.3515625 C31.15417463 77.10013682 21.89206944 75.27861523 11.75 74.375 C11.4715625 73.30378906 11.193125 72.23257813 10.90625 71.12890625 C8.41434189 63.0386235 3.50658204 58.57439969 -3.80859375 54.5625 C-12.56470321 50.30352836 -21.63879891 50.18499492 -30.80078125 53.27734375 C-38.9088294 56.9110942 -43.88010581 62.81765357 -48.25 70.375 C-49.1575 70.065625 -50.065 69.75625 -51 69.4375 C-56.29506536 67.89810987 -61.77225363 67.71679698 -67.25 67.375 C-67.19199219 66.4571875 -67.13398437 65.539375 -67.07421875 64.59375 C-66.7882371 56.81504918 -66.80944246 51.24546536 -72.25 45.375 C-74.81018651 43.05864077 -77.37928838 41.28880775 -80.25 39.375 C-78.07685071 30.07239604 -74.72533178 23.58077063 -66.8125 18 C-59.12233769 13.28336711 -51.27192348 12.03301987 -42.48046875 13.9921875 C-34.09205234 16.64363101 -27.0342369 21.49028549 -22.8125 29.375 C-21.12300733 33.26314751 -20.13668664 37.23712901 -19.25 41.375 C-15.785 36.92 -15.785 36.92 -12.25 32.375 C-13.4875 31.653125 -14.725 30.93125 -16 30.1875 C-20.28133973 27.45956672 -23.54202705 25.26097307 -24.8125 20.08203125 C-25.63820279 14.3967235 -25.33735392 10.39195012 -22.25 5.375 C-15.88793918 -1.25714831 -8.77425039 -3.95251279 0 0 Z " fill="#FACC0F" transform="translate(143.25,7.625)"/>
<path d="M0 0 C-0.33 1.98 -0.66 3.96 -1 6 C-0.33355469 6.13535156 0.33289063 6.27070313 1.01953125 6.41015625 C12.06931846 8.99101564 21.56663234 14.47027335 28 24 C34.40292993 35.41202477 37.26197075 46.38102537 34.2109375 59.35546875 C33.26260275 61.97967751 32.17408188 64.47086873 31 67 C30.5359375 68.7325 30.5359375 68.7325 30.0625 70.5 C26.38222958 74.96093384 20.50203887 75.15118379 15 76 C13.85660156 76.18433594 12.71320313 76.36867188 11.53515625 76.55859375 C4.93486565 77.34556669 -1.73683318 77.24092311 -8.375 77.25 C-9.08499146 77.25200409 -9.79498291 77.25400818 -10.52648926 77.256073 C-21.59194286 77.26372654 -32.20259899 76.54133951 -43 74 C-43.75539063 73.89816406 -44.51078125 73.79632813 -45.2890625 73.69140625 C-47.92204247 72.6273938 -48.44504589 70.89477296 -49.625 68.375 C-50.02976562 67.53710938 -50.43453125 66.69921875 -50.8515625 65.8359375 C-55.02717011 55.52474319 -55.81397186 43.85684248 -52.03125 33.26171875 C-46.30448442 20.70188061 -36.69025144 12.12825229 -24 7 C-18.37377724 4.95679279 -12.92043466 4.75331522 -7 5 C-6.67 3.68 -6.34 2.36 -6 1 C-3.92446352 0.4465236 -2.15634036 0 0 0 Z " fill="#794596" transform="translate(163,236)"/>
<path d="M0 0 C5.61778449 4.55651925 10.28602696 11.16498752 11.6875 18.3125 C12.54816649 29.20384328 10.99561234 37.11911046 3.9921875 45.5859375 C2.483809 47.39082211 2.483809 47.39082211 1.6875 50.3125 C2.63599748 52.70383938 2.63599748 52.70383938 4.0625 55.1875 C8.18065263 62.71060564 8.74027396 70.07284832 6.5 78.3125 C3.23655188 88.14796114 -2.69883464 95.3353634 -11.625 100.703125 C-18.39196694 103.86401087 -25.9655414 104.57092112 -33.3125 103.3125 C-36.99470885 101.09036701 -37.73326749 98.33509644 -38.76171875 94.35546875 C-39.18958239 92.40690092 -39.6018594 90.45485752 -40 88.5 C-40.31807617 87.04110352 -40.31807617 87.04110352 -40.64257812 85.55273438 C-42.30452853 77.80919889 -43.4672918 70.28977509 -43.515625 62.3515625 C-43.52132507 61.60272797 -43.52702515 60.85389343 -43.53289795 60.08236694 C-43.54229745 58.50072619 -43.5488617 56.91906629 -43.55273438 55.33740234 C-43.5623333 52.97846736 -43.59335914 50.62044597 -43.625 48.26171875 C-43.72759956 33.77820662 -41.60812957 20.20335128 -37.1875 6.375 C-36.79111328 5.08432617 -36.79111328 5.08432617 -36.38671875 3.76757812 C-34.50511128 -2.30227743 -34.50511128 -2.30227743 -33.3125 -4.6875 C-21.85925558 -9.16920434 -10.0100919 -6.83198288 0 0 Z " fill="#3FA647" transform="translate(43.3125,106.6875)"/>
<path d="M0 0 C2.27868586 1.13934293 4.4543689 2.28127598 6.625 3.625 C14.51332851 6.83876347 21.31395584 4.76684984 29 2 C29.09796875 3.19753906 29.1959375 4.39507812 29.296875 5.62890625 C29.4448603 7.27371535 29.59614284 8.91822977 29.75 10.5625 C29.82927734 11.42133789 29.90855469 12.28017578 29.99023438 13.16503906 C30.57965089 18.80629859 31.74525938 23.87201304 33.5 29.25 C35.25745634 35.38476396 35.25745634 35.38476396 34.16796875 37.98828125 C32.6875 39.5625 32.6875 39.5625 30.9375 41.0546875 C28.28388996 43.71899758 26.80607047 46.84165865 25.1875 50.1875 C24.88610107 50.794729 24.58470215 51.40195801 24.27416992 52.02758789 C19.5069201 61.85706706 18.93791087 75.52252394 21.9765625 86.02734375 C23.15973825 89.13771681 24.4513995 92.05634296 26 95 C26.40347656 95.77214844 26.80695313 96.54429687 27.22265625 97.33984375 C28.09713344 98.92267881 29.03838482 100.46853879 30 102 C29.41992188 102.44988281 28.83984375 102.89976562 28.2421875 103.36328125 C19.81206246 110.30491887 15.02551014 118.26479627 13 129 C9.09924626 127.38397345 6.28383731 124.72695142 3.25 121.875 C2.71560303 121.37492432 2.18120605 120.87484863 1.63061523 120.35961914 C0.56333976 119.35769034 -0.50189805 118.35358591 -1.56494141 117.34716797 C-2.72773146 116.25559337 -3.91332474 115.18834406 -5.10546875 114.12890625 C-20.31967724 100.08252613 -32.91072359 78.74207509 -39 59 C-39 58.34 -39 57.68 -39 57 C-37.96101563 57.04640625 -36.92203125 57.0928125 -35.8515625 57.140625 C-24.48896704 57.50227379 -16.75178909 56.36462674 -7.6875 48.9375 C-0.59945065 42.19493733 2.59576175 33.96251413 3.25 24.3125 C3.16908411 18.20913022 1.43492792 12.27609256 -1.8125 7.125 C-2.4003125 6.073125 -2.4003125 6.073125 -3 5 C-2.28541109 2.85623326 -1.58775583 1.58775583 0 0 Z " fill="#F8DB07" transform="translate(47,152)"/>
<path d="M0 0 C0.40089844 0.90621094 0.80179688 1.81242188 1.21484375 2.74609375 C7.58809292 16.6327868 15.79065844 24.13635612 30 30 C32.6961962 30.88167584 35.20414296 31.49674573 38 32 C37.07917776 36.78827565 34.60415977 40.83815428 32.375 45.125 C30.41862605 49.21560007 29.87477855 52.46368247 29.90234375 56.984375 C29.90556641 57.91894531 29.90878906 58.85351562 29.91210938 59.81640625 C29.92048828 60.78449219 29.92886719 61.75257813 29.9375 62.75 C29.94201172 63.73355469 29.94652344 64.71710938 29.95117188 65.73046875 C29.96293517 68.15370791 29.97937316 70.57682273 30 73 C15.85936147 81.8027816 0.42127506 88.79584877 -16 92 C-14.1883537 86.41409058 -14.1883537 86.41409058 -12.9765625 83.75 C-8.59172434 73.54980909 -8.04224707 61.92337102 -12.0625 51.5 C-18.75229397 37.84011343 -28.36805335 30.92556052 -42.5078125 25.84765625 C-43.33023438 25.56792969 -44.15265625 25.28820312 -45 25 C-44.67 23.02 -44.34 21.04 -44 19 C-42.79085937 18.72027344 -41.58171875 18.44054687 -40.3359375 18.15234375 C-26.61886675 14.8475338 -14.59109559 10.62396334 -3.671875 1.28515625 C-2 0 -2 0 0 0 Z " fill="#2FB9DC" transform="translate(207,217)"/>
<path d="M0 0 C5.62657426 -0.20630772 10.36864344 0.30744849 15.75 2.0625 C16.44174316 2.28583008 17.13348633 2.50916016 17.84619141 2.73925781 C30.76518257 7.12413821 41.85883544 14.8351355 49.625 26.125 C51.20375762 28.3672986 51.20375762 28.3672986 53 30 C56.4345973 30.22535018 56.4345973 30.22535018 58.66796875 29.5390625 C61.65508084 28.84857428 64.43844842 28.90152407 67.5 28.9375 C68.5415625 28.94652344 69.583125 28.95554688 70.65625 28.96484375 C71.81640625 28.98224609 71.81640625 28.98224609 73 29 C61.27080852 52.36302368 42.4437924 73.43322997 20 87 C19.34 87 18.68 87 18 87 C17.22939975 65.14492061 17.22939975 65.14492061 22 56 C22.45503906 55.1234375 22.91007812 54.246875 23.37890625 53.34375 C24.54120599 51.19796586 25.74085507 49.08997417 27 47 C26.34515625 46.93683594 25.6903125 46.87367188 25.015625 46.80859375 C13.82535548 45.30707453 4.78970324 39.8259472 -2.953125 31.6875 C-6.83320022 26.59305009 -9.41931347 20.83351328 -12 15 C-11.34 14.67 -10.68 14.34 -10 14 C-9.70222656 13.40445313 -9.40445313 12.80890625 -9.09765625 12.1953125 C-7.84732925 9.6946585 -6.31695884 7.93887338 -4.4375 5.875 C-1.92320784 3.13961955 -1.92320784 3.13961955 0 0 Z " fill="#009F4D" transform="translate(218,202)"/>
<path d="M0 0 C9.21580465 -0.47893158 17.73478161 2.67214894 24.875 8.47265625 C28.67508298 12.23134399 32.51541496 16.53445016 32.82421875 22.0234375 C32.746875 23.12365234 32.746875 23.12365234 32.66796875 24.24609375 C31.90355469 24.271875 31.13914062 24.29765625 30.3515625 24.32421875 C7.82254631 25.51709085 -11.1138767 34.30379718 -26.58203125 50.62109375 C-31.89945037 56.63245279 -35.8029208 63.07350352 -39.33203125 70.24609375 C-40.01265625 69.52421875 -40.69328125 68.80234375 -41.39453125 68.05859375 C-47.9187252 61.6616125 -53.15703221 59.35771208 -62.33203125 58.24609375 C-62.17347656 57.55128906 -62.01492187 56.85648438 -61.8515625 56.140625 C-60.25496858 47.24531599 -60.65365134 39.99466047 -65.33203125 32.24609375 C-65.33203125 31.58609375 -65.33203125 30.92609375 -65.33203125 30.24609375 C-64.13578125 29.99859375 -62.93953125 29.75109375 -61.70703125 29.49609375 C-54.68363891 27.70922361 -51.12264972 24.33815914 -47.33203125 18.24609375 C-42.46356285 15.81185955 -35.25640603 16.76909714 -30.14453125 18.24609375 C-29.21640625 18.57609375 -28.28828125 18.90609375 -27.33203125 19.24609375 C-26.94273438 18.60542969 -26.5534375 17.96476562 -26.15234375 17.3046875 C-21.22332371 9.68401366 -15.28996764 3.43263572 -6.33203125 0.80859375 C-4.22505041 0.43279957 -2.12834599 0.22459933 0 0 Z " fill="#97A53B" transform="translate(122.33203125,57.75390625)"/>
<path d="M0 0 C-0.33 1.98 -0.66 3.96 -1 6 C-0.33355469 6.13535156 0.33289063 6.27070313 1.01953125 6.41015625 C12.06931846 8.99101564 21.56663234 14.47027335 28 24 C34.40292993 35.41202477 37.26197075 46.38102537 34.2109375 59.35546875 C33.26260275 61.97967751 32.17408188 64.47086873 31 67 C30.690625 68.155 30.38125 69.31 30.0625 70.5 C26.32940714 75.02496105 20.55659549 75.09775325 15 76 C14.00355469 76.25910156 13.00710937 76.51820313 11.98046875 76.78515625 C8.99042511 77.41662001 6.98556844 77.68467794 4 77 C0.45655729 73.83210165 -1.72299546 70.1390652 -4 66 C-4.49371094 65.11570312 -4.98742187 64.23140625 -5.49609375 63.3203125 C-13.87513004 47.35787541 -15.67579152 29.24393081 -10.91796875 11.75390625 C-9.60519159 7.81557478 -8.23226766 4.51751268 -6 1 C-3.88370574 0.25744061 -2.2389147 0 0 0 Z " fill="#46458E" transform="translate(163,236)"/>
<path d="M0 0 C0.46204895 20.39176053 -0.83950521 38.54909768 -7 58 C-7.33 58 -7.66 58 -8 58 C-8.09796875 57.03320312 -8.1959375 56.06640625 -8.296875 55.0703125 C-9.88991742 41.19985693 -13.5525727 29.20847129 -24.63671875 19.75 C-29.36198523 16.09735502 -29.36198523 16.09735502 -35 15 C-37.43975561 20.30381654 -38.11352791 24.32521218 -38.1875 30.1875 C-38.52631564 36.40576358 -38.52631564 36.40576358 -40.51953125 38.90625 C-42.63366438 40.27397321 -44.62971158 41.15606426 -47 42 C-47.68449219 42.30035156 -48.36898437 42.60070312 -49.07421875 42.91015625 C-60.40888862 47.41469234 -71.49411161 46.05328673 -83 43 C-82.35880193 38.63059875 -81.3392174 34.53771193 -80.0625 30.3125 C-78.29120224 24.25144111 -76.96734303 18.23681693 -76 12 C-60.84944352 6.4456225 -49.10076645 7.65780272 -34 12 C-33.47212891 11.31164062 -33.47212891 11.31164062 -32.93359375 10.609375 C-29.3638236 6.17279383 -26.25144471 3.29153951 -21 1 C-18.625 1.25 -18.625 1.25 -16 2 C-10.15611919 2.41742006 -5.37510625 0 0 0 Z " fill="#34A148" transform="translate(308,150)"/>
<path d="M0 0 C5.98249684 4.98214491 8.98510542 9.85375375 11.4453125 17.234375 C11.53908939 19.06578241 11.57524207 20.90057487 11.5703125 22.734375 C11.57417969 24.17296875 11.57417969 24.17296875 11.578125 25.640625 C11.4453125 28.234375 11.4453125 28.234375 10.4453125 31.234375 C8.0390625 32.15625 8.0390625 32.15625 4.9453125 32.984375 C-5.34599161 36.22332463 -11.21978713 42.00813554 -16.5546875 51.234375 C-17.4621875 50.925 -18.3696875 50.615625 -19.3046875 50.296875 C-24.59975286 48.75748487 -30.07694113 48.57617198 -35.5546875 48.234375 C-35.49667969 47.3165625 -35.43867187 46.39875 -35.37890625 45.453125 C-35.0929246 37.67442418 -35.11412996 32.10484036 -40.5546875 26.234375 C-43.11487401 23.91801577 -45.68397588 22.14818275 -48.5546875 20.234375 C-46.38153821 10.93177104 -43.03001928 4.44014563 -35.1171875 -1.140625 C-23.8313198 -8.06262386 -10.8999635 -7.53330811 0 0 Z " fill="#F5921D" transform="translate(111.5546875,26.765625)"/>
<path d="M0 0 C5.88252979 4.24138923 9.82187391 9.94502465 11.84375 16.9296875 C12.95981741 26.30465371 11.19295251 32.95625228 5.96875 40.8671875 C-1.29467012 47.80778895 -8.8191834 50.00267055 -18.671875 49.89453125 C-25.29663209 49.18473585 -30.69684279 46.15443298 -35.21875 41.3046875 C-39.64285237 35.49805314 -42.69261083 29.15889535 -42.37109375 21.73828125 C-41.55248609 18.34863916 -39.58922091 16.20328014 -37.34765625 13.59765625 C-35.69274021 11.34954953 -35.14062255 9.55912719 -34.46875 6.8671875 C-33.15065419 2.29726249 -30.95391694 0.69096511 -26.87890625 -1.5703125 C-18.20566756 -5.29930572 -8.1180624 -4.66525015 0 0 Z " fill="#58A846" transform="translate(273.84375,84.4453125)"/>
<path d="M0 0 C1.07121094 0.61359375 2.14242188 1.2271875 3.24609375 1.859375 C4.20878174 2.40754883 4.20878174 2.40754883 5.19091797 2.96679688 C6.51860323 3.72506463 7.84094631 4.49270633 9.16015625 5.265625 C15.86612421 8.7356536 22.58880598 8.97685673 30 8 C33.34196936 6.90989938 36.41613596 5.63219358 39.57421875 4.09375 C42 3 42 3 45 3 C45.82011312 4.55851755 46.63076213 6.12201716 47.4375 7.6875 C47.88996094 8.55761719 48.34242187 9.42773438 48.80859375 10.32421875 C52.23706621 18.02423068 51.55672588 25.74320864 48.96484375 33.5546875 C45.28229224 42.88779374 38.45528857 50.22935534 29.3125 54.5 C23.16498267 56.66176434 16.41083371 57.09807731 10 56 C6.31779115 53.77786701 5.57923251 51.02259644 4.55078125 47.04296875 C4.12291761 45.09440092 3.7106406 43.14235752 3.3125 41.1875 C3.10044922 40.21490234 2.88839844 39.24230469 2.66992188 38.24023438 C0.6991152 29.05764303 -0.13824471 20.44901763 -0.0625 11.0625 C-0.05798828 9.99708984 -0.05347656 8.93167969 -0.04882812 7.83398438 C-0.03711787 5.22259709 -0.02071724 2.61132876 0 0 Z " fill="#93B33C" transform="translate(0,154)"/>
<path d="M0 0 C5.63303573 4.63160716 11.4691125 11.71008522 12.21875 19.1796875 C12.54471143 27.89915565 10.96761394 35.08664122 5.3125 41.875 C1.59351014 45.73021659 -1.95755921 48.22391762 -7 50 C-8.134375 50.45375 -9.26875 50.9075 -10.4375 51.375 C-15.685741 50.82255358 -17.29517896 47.72390072 -20.54296875 43.7734375 C-24.95768613 38.7902112 -30.53506725 34.75432715 -36.4765625 31.74609375 C-41.622484 29.13676607 -41.622484 29.13676607 -42.69921875 25.89453125 C-43.31418371 17.29868776 -38.83385125 9.48781692 -33.5625 3 C-23.02937189 -5.22097803 -11.89479935 -6.49965822 0 0 Z " fill="#E10B7A" transform="translate(229,61)"/>
<path d="M0 0 C2.27868586 1.13934293 4.4543689 2.28127598 6.625 3.625 C14.51332851 6.83876347 21.31395584 4.76684984 29 2 C29.09796875 3.19753906 29.1959375 4.39507812 29.296875 5.62890625 C29.4448603 7.27371535 29.59614284 8.91822977 29.75 10.5625 C29.82927734 11.42133789 29.90855469 12.28017578 29.99023438 13.16503906 C30.57965089 18.80629859 31.74525938 23.87201304 33.5 29.25 C35.25745634 35.38476396 35.25745634 35.38476396 34.16796875 37.98828125 C32.6875 39.5625 32.6875 39.5625 30.9375 41.0546875 C28.28388996 43.71899758 26.80607047 46.84165865 25.1875 50.1875 C24.88610107 50.794729 24.58470215 51.40195801 24.27416992 52.02758789 C21.51340887 57.71993554 20.79918932 62.47676565 20.4375 68.75 C20.39431641 69.44738281 20.35113281 70.14476562 20.30664062 70.86328125 C20.20110404 72.57531922 20.1001009 74.28763561 20 76 C19.67 76 19.34 76 19 76 C19 72.37 19 68.74 19 65 C17.39125 64.9175 15.7825 64.835 14.125 64.75 C5.15705412 63.90853464 -2.95199724 60.93578298 -9 54 C-9.495 52.515 -9.495 52.515 -10 51 C-9.55269531 50.62230469 -9.10539062 50.24460938 -8.64453125 49.85546875 C-1.11876413 43.00365092 2.56558522 34.40761801 3.25 24.3125 C3.16908411 18.20913022 1.43492792 12.27609256 -1.8125 7.125 C-2.4003125 6.073125 -2.4003125 6.073125 -3 5 C-2.28541109 2.85623326 -1.58775583 1.58775583 0 0 Z " fill="#F3B218" transform="translate(47,152)"/>
<path d="M0 0 C0.07476562 0.67804688 0.14953125 1.35609375 0.2265625 2.0546875 C1.39002682 10.29018981 3.74388675 17.42660799 10.2890625 22.921875 C18.0229754 28.21217373 25.29975117 29.1727985 34.56640625 27.55078125 C36.3927251 27.09011764 38.19977013 26.55391688 40 26 C40.24234375 26.66386719 40.4846875 27.32773438 40.734375 28.01171875 C43.93780641 36.45152843 46.96347872 40.82719087 55 45 C55 45.66 55 46.32 55 47 C52.86124707 48.55836485 50.61847045 49.89266425 48.359375 51.26953125 C45.70752995 53.21451032 43.94937214 55.3665592 42 58 C40.49373047 57.566875 40.49373047 57.566875 38.95703125 57.125 C25.19084368 53.3207172 13.91709016 53.17336965 0 57 C-0.09704224 56.16359985 -0.09704224 56.16359985 -0.19604492 55.31030273 C-2.17391495 38.78277937 -5.08063956 24.55534203 -14.42578125 10.51171875 C-16 8 -16 8 -16 6 C-14.824375 5.7525 -13.64875 5.505 -12.4375 5.25 C-8.66024346 4.32248861 -3.4226583 0 0 0 Z " fill="#F7DB07" transform="translate(232,105)"/>
<path d="M0 0 C0.639375 0.845625 1.27875 1.69125 1.9375 2.5625 C9.5335121 11.87090789 20.88920169 14.97485165 32 18 C31.95359375 19.31613281 31.9071875 20.63226563 31.859375 21.98828125 C31.6188031 31.78925507 31.60981518 40.01133691 36 49 C36.67630551 50.66277872 37.3455497 52.32849857 38 54 C32.50243266 53.47091996 27.66262562 52.44981551 22.5 50.4375 C21.81494385 50.17356445 21.1298877 49.90962891 20.42407227 49.63769531 C7.48163586 44.52631191 -8.01920751 37.98079249 -18 28 C-17.85682433 19.12310823 -14.77946957 12.02044246 -8.671875 5.5234375 C-2.62146643 0 -2.62146643 0 0 0 Z " fill="#F27A20" transform="translate(78,254)"/>
<path d="M0 0 C5.24951188 4.36241743 9.36186876 8.82708558 10.0234375 15.78125 C10.03632812 17.0909375 10.04921875 18.400625 10.0625 19.75 C10.09085938 21.0596875 10.11921875 22.369375 10.1484375 23.71875 C9.61820341 27.78088236 8.82488085 28.75736531 5.6875 31.25 C4.4809375 32.5184375 4.4809375 32.5184375 3.25 33.8125 C-2.50204522 39.28395765 -6.98351684 39.88970473 -14.77734375 39.7421875 C-19.93197079 39.02452672 -23.67530203 36.95940042 -27.3125 33.25 C-27.8075 31.765 -27.8075 31.765 -28.3125 30.25 C-28.9725 30.25 -29.6325 30.25 -30.3125 30.25 C-33.31345747 23.24776589 -34.55932044 18.19826472 -32.1875 10.6875 C-28.22892273 3.43010834 -24.00343423 -0.9042916 -16 -3.5 C-9.87604016 -4.06967068 -5.08770833 -3.69238534 0 0 Z " fill="#E33390" transform="translate(67.3125,48.75)"/>
<path d="M0 0 C1.875 1.0625 1.875 1.0625 3 3 C3.53568236 6.56377572 3.71494868 9.7686995 1.875 12.9375 C-0.72260452 14.4094759 -3.04270122 14.748315 -6 15 C-6.66 14.67 -7.32 14.34 -8 14 C-7.69964844 14.53367187 -7.39929688 15.06734375 -7.08984375 15.6171875 C-4.0019963 21.66727504 -3.23004483 26.38239693 -5 33 C-7.60958333 37.85922414 -10.622341 41.8941121 -15.6875 44.25 C-21.80177779 45.63436478 -26.76036999 46.10035352 -32.3125 42.8125 C-36.75898587 39.68316402 -39.84950213 36.00264123 -42 31 C-42.99061631 24.22694893 -41.96652291 18.59979705 -38 13 C-34.40743353 9.31033714 -31.04982372 7.91062395 -26 7 C-20.33961826 7 -15.61827289 7.45932412 -11 11 C-11.20625 10.0925 -11.4125 9.185 -11.625 8.25 C-12.01764832 4.8470479 -12.02104507 3.69472676 -10 1 C-6.61147003 -1.54139747 -3.96754849 -1.09740703 0 0 Z " fill="#F1941E" transform="translate(224,13)"/>
<path d="M0 0 C2.16188401 0.48041867 4.09413969 1.04153221 6.125 1.9375 C10.30847632 3.48356734 14.62106258 4.20073764 19 5 C18.96519531 5.95519531 18.93039063 6.91039063 18.89453125 7.89453125 C18.696844 17.0465372 18.696844 17.0465372 20.9375 25.875 C21.96765044 29.10919323 22.33838756 30.31540735 20.81640625 33.39453125 C18.98077539 35.71176849 17.0150431 37.83848029 15 40 C14.02325737 41.41112945 13.08197069 42.84783803 12.1875 44.3125 C11.80980469 44.92738281 11.43210937 45.54226562 11.04296875 46.17578125 C9.95208278 48.08381028 8.96352648 50.0249887 8 52 C7.319375 51.278125 6.63875 50.55625 5.9375 49.8125 C-0.58669395 43.41551875 -5.82500096 41.11161833 -15 40 C-14.84144531 39.30519531 -14.68289062 38.61039063 -14.51953125 37.89453125 C-12.92293733 28.99922224 -13.32162009 21.74856672 -18 14 C-18 13.34 -18 12.68 -18 12 C-16.80375 11.7525 -15.6075 11.505 -14.375 11.25 C-8.86985309 9.84939725 -4.83534708 7.50939566 -1.625 2.75 C-1.08875 1.8425 -0.5525 0.935 0 0 Z " fill="#33A7DA" transform="translate(75,76)"/>
<path d="M0 0 C1.35439668 2.70879335 1.06501451 5.00933268 1 8 C-1.95664519 9.4783226 -4.74229737 9.06032783 -8 9 C-8.33 8.01 -8.66 7.02 -9 6 C-9.54527344 6.13277344 -10.09054688 6.26554687 -10.65234375 6.40234375 C-15.48379018 7.53381069 -20.20775595 8.32659619 -25.15234375 8.75390625 C-27.09155094 8.910271 -27.09155094 8.910271 -29 10 C-29 11.32 -29 12.64 -29 14 C-28.27409668 13.88817383 -27.54819336 13.77634766 -26.80029297 13.66113281 C-23.49501411 13.16610622 -20.18563476 12.70777582 -16.875 12.25 C-15.73289063 12.07339844 -14.59078125 11.89679688 -13.4140625 11.71484375 C-3.90770856 10.44364526 -3.90770856 10.44364526 -0.2578125 12.734375 C3.32167857 16.32625185 3.20719159 19.55451513 3.3125 24.4375 C3.36857422 26.13712891 3.36857422 26.13712891 3.42578125 27.87109375 C3 31 3 31 1.65234375 33.30078125 C-2.51881166 35.97302367 -6.8923843 36.20671403 -11.75 36.75 C-12.71421875 36.87503906 -13.6784375 37.00007813 -14.671875 37.12890625 C-29.24921658 38.93126778 -29.24921658 38.93126778 -33.9375 36.4375 C-36.56356875 33.33396421 -36.76928323 30.9990906 -37 27 C-33.78548731 25.39274365 -30.56387464 25.94251815 -27 26 C-27 26.99 -27 27.98 -27 29 C-26.34 28.67 -25.68 28.34 -25 28 C-23.55487563 27.78217533 -22.10263322 27.61026332 -20.6484375 27.46484375 C-19.79765625 27.37783203 -18.946875 27.29082031 -18.0703125 27.20117188 C-17.18085938 27.11416016 -16.29140625 27.02714844 -15.375 26.9375 C-14.4778125 26.84662109 -13.580625 26.75574219 -12.65625 26.66210938 C-10.43782728 26.43790708 -8.2191024 26.21735434 -6 26 C-6.33 24.35 -6.66 22.7 -7 21 C-8.04341553 21.15988403 -8.04341553 21.15988403 -9.10791016 21.32299805 C-12.27769486 21.79743609 -15.45092781 22.24269057 -18.625 22.6875 C-19.71941406 22.85572266 -20.81382812 23.02394531 -21.94140625 23.19726562 C-32.2134489 24.59799871 -32.2134489 24.59799871 -37 21 C-39.65489637 16.17291568 -40.16058008 9.37275532 -39 4 C-34.85593574 -0.99390408 -29.18911833 -1.06908843 -23.125 -1.75 C-21.67287109 -1.93755859 -21.67287109 -1.93755859 -20.19140625 -2.12890625 C-5.20958287 -3.98379867 -5.20958287 -3.98379867 0 0 Z " fill="#040607" transform="translate(195,325)"/>
<path d="M0 0 C3.22486831 1.38508444 4.99382399 2.90592505 7.1875 5.625 C23.46825429 24.69969729 44.02546494 30.21838583 68 33 C67.67 34.32 67.34 35.64 67 37 C66.24976563 37.10957031 65.49953125 37.21914062 64.7265625 37.33203125 C49.69368475 39.66080198 39.44741405 43.64557573 29 55 C28.40574219 54.60167969 27.81148437 54.20335937 27.19921875 53.79296875 C20.99117439 49.82484086 15.19001595 47.55829243 8 46 C8.03480469 44.79085937 8.06960937 43.58171875 8.10546875 42.3359375 C8.3759894 28.9431054 7.79291191 16.93151206 0.98828125 4.98828125 C0 3 0 3 0 0 Z " fill="#E24697" transform="translate(89,204)"/>
<path d="M0 0 C8.01180374 2.54658277 8.01180374 2.54658277 10.21142578 5.78173828 C11.00211459 7.86268516 11.56831943 9.89240272 12.0625 12.0625 C12.26037109 12.78244141 12.45824219 13.50238281 12.66210938 14.24414062 C13.45701001 17.22709526 14 19.9047605 14 23 C15.61068359 22.22462891 15.61068359 22.22462891 17.25390625 21.43359375 C18.68968202 20.76731872 20.12590404 20.10200474 21.5625 19.4375 C22.26697266 19.09525391 22.97144531 18.75300781 23.69726562 18.40039062 C28.53919733 16.19139874 31.66543206 15.66635802 37 17 C39.4375 18.0625 39.4375 18.0625 41 19 C39.59727316 23.52123544 37.8130426 27.67502157 35.7421875 31.9296875 C35.43427277 32.56488312 35.12635803 33.20007874 34.80911255 33.85452271 C33.83450633 35.86303749 32.85484669 37.86903741 31.875 39.875 C31.20929859 41.24462801 30.54393067 42.61441815 29.87890625 43.984375 C28.25645542 47.32479994 26.62946613 50.66299047 25 54 C22.03 53.01 19.06 52.02 16 51 C16.61628915 46.04033966 18.79981411 42.0616096 21.0625 37.6875 C22.361875 35.150625 23.66125 32.61375 25 30 C19.39 31.98 13.78 33.96 8 36 C5.525 28.08 5.525 28.08 3 20 C0.28032229 23.62623694 -1.71967437 27.20753565 -3.6875 31.25 C-4.16799805 32.22453125 -4.16799805 32.22453125 -4.65820312 33.21875 C-5.44247141 34.81069757 -6.22174255 36.40510529 -7 38 C-10.36327963 37.43945339 -12.99112219 36.58158962 -16 35 C-13.63330158 27.01132484 -10.09608365 19.84479757 -6.3125 12.4375 C-5.69930687 11.22619626 -5.08667247 10.01460951 -4.47460938 8.80273438 C-2.98852447 5.86566893 -1.49688463 2.93157184 0 0 Z " fill="#040607" transform="translate(61,298)"/>
<path d="M0 0 C4.40597072 0.43177584 8.77053955 0.99481112 13.14453125 1.67578125 C13.91361816 1.79308594 14.68270508 1.91039062 15.47509766 2.03125 C19.78987325 2.77260088 23.12638576 3.67952191 26.70703125 6.36328125 C29.61981035 12.18883946 27.44540684 20.90446846 26.51953125 27.11328125 C26.41833984 27.93699219 26.31714844 28.76070313 26.21289062 29.609375 C25.59001532 33.7910568 24.9931232 35.99321206 22.3515625 39.41015625 C16.0900694 44.03459724 7.16405427 41.11198514 -0.10546875 40.05078125 C-0.92998535 39.93347656 -1.75450195 39.81617188 -2.60400391 39.6953125 C-7.08835026 38.97884061 -10.59648249 38.18829727 -14.29296875 35.36328125 C-17.3560544 29.23710995 -15.03910134 20.56375367 -14.04296875 14.05078125 C-13.9337207 13.27412109 -13.82447266 12.49746094 -13.71191406 11.69726562 C-12.22967078 2.69487465 -9.1452024 -0.39467581 0 0 Z M-2.29296875 9.36328125 C-4.57881773 15.91604832 -4.89891243 22.46729564 -5.29296875 29.36328125 C-2.54459026 29.89435439 0.205155 30.41344006 2.95703125 30.92578125 C3.73433594 31.07724609 4.51164062 31.22871094 5.3125 31.38476562 C6.06660156 31.52333984 6.82070312 31.66191406 7.59765625 31.8046875 C8.28891602 31.93560791 8.98017578 32.06652832 9.69238281 32.20141602 C11.91991067 32.38038487 13.58210087 32.01534322 15.70703125 31.36328125 C16.04777945 29.51046291 16.37924908 27.6559373 16.70703125 25.80078125 C16.89265625 24.76824219 17.07828125 23.73570312 17.26953125 22.671875 C17.72881055 19.19857528 17.77763754 15.86270541 17.70703125 12.36328125 C14.93673539 11.86013562 12.16586605 11.36064287 9.39453125 10.86328125 C8.60884766 10.72019531 7.82316406 10.57710938 7.01367188 10.4296875 C6.25634766 10.29433594 5.49902344 10.15898437 4.71875 10.01953125 C3.67400513 9.83100586 3.67400513 9.83100586 2.6081543 9.63867188 C0.53235692 9.29160099 0.53235692 9.29160099 -2.29296875 9.36328125 Z " fill="#040607" transform="translate(119.29296875,320.63671875)"/>
<path d="M0 0 C0.66 0.33 1.32 0.66 2 1 C-11.46064859 21.99747737 -27.48287551 43.92444474 -50 56 C-50.66 56 -51.32 56 -52 56 C-52.77060025 34.14492061 -52.77060025 34.14492061 -48 25 C-47.54496094 24.1234375 -47.08992187 23.246875 -46.62109375 22.34375 C-45.45879401 20.19796586 -44.25914493 18.08997417 -43 16 C-42.16339844 16.05800781 -41.32679688 16.11601562 -40.46484375 16.17578125 C-26.52751074 16.71598796 -13.8898885 13.02822082 -3.34765625 3.5078125 C-2.19363254 2.37616599 -1.08898187 1.19436721 0 0 Z " fill="#007FAC" transform="translate(288,233)"/>
<path d="M0 0 C5.55408589 4.13327322 8.5340634 9.94552674 9.5625 16.6875 C8.86479547 20.79620445 7.18363419 22.53341306 4 25 C0.98066086 26.78953733 -2.14285268 28.30898142 -5.3125 29.8125 C-6.56643555 30.42254883 -6.56643555 30.42254883 -7.84570312 31.04492188 C-9.89286304 32.03925669 -11.94409904 33.02390175 -14 34 C-13.69320312 34.92039062 -13.38640625 35.84078125 -13.0703125 36.7890625 C-11.53515625 41.39453125 -11.53515625 41.39453125 -10 46 C-15.2538937 48.98516687 -15.2538937 48.98516687 -17.96484375 49.0390625 C-21.29810526 47.33724376 -22.31851992 44.0763297 -23.8125 40.8125 C-24.50450242 39.35513335 -25.19722559 37.89810875 -25.890625 36.44140625 C-26.23802734 35.70164551 -26.58542969 34.96188477 -26.94335938 34.19970703 C-27.95445076 32.09482408 -29.01619803 30.02808757 -30.109375 27.96484375 C-30.43832764 27.33795654 -30.76728027 26.71106934 -31.10620117 26.06518555 C-32.01602262 24.33822041 -32.93168432 22.61433584 -33.84765625 20.890625 C-35 18 -35 18 -34.93188477 16.03515625 C-33.49711286 12.9017377 -31.25696555 12.12366996 -28.2421875 10.546875 C-27.66091095 10.24179016 -27.0796344 9.93670532 -26.48074341 9.62237549 C-25.24848074 8.98040755 -24.01258666 8.34536943 -22.7734375 7.71679688 C-20.892186 6.75875213 -19.02822727 5.77205012 -17.1640625 4.78125 C-15.9618663 4.15965867 -14.75876698 3.53981035 -13.5546875 2.921875 C-12.46655762 2.36081055 -11.37842773 1.79974609 -10.25732422 1.22167969 C-6.57484511 -0.15945698 -3.90287772 -0.3684719 0 0 Z M-7.90112305 10.71264648 C-8.59761963 11.09493408 -9.29411621 11.47722168 -10.01171875 11.87109375 C-10.76904297 12.28037109 -11.52636719 12.68964844 -12.30664062 13.11132812 C-13.48516602 13.7677832 -13.48516602 13.7677832 -14.6875 14.4375 C-15.48478516 14.87126953 -16.28207031 15.30503906 -17.10351562 15.75195312 C-19.07410554 16.82574763 -21.03909927 17.90864182 -23 19 C-22.01 21.31 -21.02 23.62 -20 26 C-13.73 23.03 -7.46 20.06 -1 17 C-1.66 15.02 -2.32 13.04 -3 11 C-5.82750699 9.7079978 -5.82750699 9.7079978 -7.90112305 10.71264648 Z " fill="#040607" transform="translate(252,299)"/>
<path d="M0 0 C6.79310802 0.61863681 11.36306305 5.36954827 16 10 C23.80011041 20.13631369 28.45915766 32.05612704 28 45 C27.34 45.99 26.68 46.98 26 48 C16.14028823 47.54353186 9.5850908 44.51471317 2.83203125 37.2421875 C-4.31437102 28.49584443 -5.0827963 19.90774803 -4 9 C-3.23673055 5.75953268 -2.42894346 2.42894346 0 0 Z " fill="#02A04B" transform="translate(273,164)"/>
<path d="M0 0 C4.23120313 3.13034143 6.64259586 6.38161834 8.125 11.4375 C8.9225595 17.21980634 7.56907732 19.8453969 4.125 24.4375 C3.63 25.9225 3.63 25.9225 3.125 27.4375 C1.64 27.38529297 1.64 27.38529297 0.125 27.33203125 C-9.15841541 27.10402991 -15.51983023 28.25081362 -23.875 32.4375 C-23.936875 31.15875 -23.99875 29.88 -24.0625 28.5625 C-24.79905409 21.71687963 -28.10844604 16.08733094 -31.875 10.4375 C-28.32530289 3.6010463 -24.56339717 -0.55608742 -17.109375 -3.078125 C-10.83881129 -4.43747797 -5.45554206 -3.27870015 0 0 Z " fill="#DDDB1B" transform="translate(264.875,54.5625)"/>
<path d="M0 0 C0.46204895 20.39176053 -0.83950521 38.54909768 -7 58 C-7.33 58 -7.66 58 -8 58 C-8.09796875 57.03320312 -8.1959375 56.06640625 -8.296875 55.0703125 C-9.90895726 41.034079 -13.69499639 28.61170908 -25.1875 19.3046875 C-28.05443475 17.10003494 -31.00222812 15.02349602 -34 13 C-32.07893295 9.48103606 -30.3028067 7.11337149 -27.0625 4.75 C-26.39347656 4.24984375 -25.72445313 3.7496875 -25.03515625 3.234375 C-22.95305388 1.97152596 -21.40646726 1.3305854 -19 1 C-18.01 1.33 -17.02 1.66 -16 2 C-10.14258155 2.47166478 -5.38676984 0 0 0 Z " fill="#95BD3D" transform="translate(308,150)"/>
<path d="M0 0 C6.98365512 3.42294477 11.40943521 7.75424446 15.57421875 14.26171875 C14.22551125 17.21975356 12.67853326 19.46968242 10.51171875 21.88671875 C8.91043392 23.67984455 7.65093717 25.10828191 6.57421875 27.26171875 C-4.53864817 27.71291786 -11.35295781 26.69588922 -19.6953125 19.03125 C-24.18003951 14.44528762 -25.46640251 10.23622116 -25.48828125 4.01171875 C-25.45734375 2.15546875 -25.45734375 2.15546875 -25.42578125 0.26171875 C-17.36371822 -4.96772754 -8.48583532 -3.45001864 0 0 Z " fill="#2FA047" transform="translate(36.42578125,102.73828125)"/>
<path d="M0 0 C2.5625 2.375 2.5625 2.375 5 5 C8.89452051 7.86964669 12.21072769 8.5304635 17 9 C16.67644531 10.0003125 16.35289063 11.000625 16.01953125 12.03125 C13.97072067 19.23378833 13.49186491 28.46604 16.5 35.4375 C16.995 36.283125 17.49 37.12875 18 38 C16.35 38.66 14.7 39.32 13 40 C12.61070313 39.34773438 12.22140625 38.69546875 11.8203125 38.0234375 C6.71680891 30.05068305 1.27997537 26.11199015 -7.4375 22.625 C-14.27586773 21.42528636 -21.20359115 21.53050619 -28 23 C-26.91865502 16.23848653 -24.12181976 8.94487451 -19.0703125 4.1796875 C-13.29691057 0.42809947 -6.79851775 -2.21690796 0 0 Z " fill="#DBDA1B" transform="translate(39,79)"/>
<path d="M0 0 C3.652579 2.64832224 5.36785711 6.09575883 6.76171875 10.27734375 C7.1717509 18.88801899 7.1717509 18.88801899 4.76171875 22.27734375 C2.08203125 23.65625 2.08203125 23.65625 -1.11328125 24.83984375 C-5.49057695 26.4653795 -5.49057695 26.4653795 -9.4140625 28.92578125 C-11.23828125 30.27734375 -11.23828125 30.27734375 -14.55078125 30.33984375 C-19.24640381 28.98686776 -22.04387396 26.9367052 -25.23828125 23.27734375 C-27.98483482 18.24199554 -27.81615468 12.70389257 -26.23828125 7.27734375 C-23.75249043 3.26542398 -20.81740918 0.24911478 -16.80078125 -2.22265625 C-10.36726786 -3.47797594 -5.72508254 -3.16060549 0 0 Z " fill="#F8EC12" transform="translate(145.23828125,8.72265625)"/>
<path d="M0 0 C2.27868586 1.13934293 4.4543689 2.28127598 6.625 3.625 C14.51332851 6.83876347 21.31395584 4.76684984 29 2 C29.09796875 3.19753906 29.1959375 4.39507812 29.296875 5.62890625 C30.23608534 16.1478451 31.88875009 25.89598938 35 36 C33.68 36.99 32.36 37.98 31 39 C30.3915625 38.443125 29.783125 37.88625 29.15625 37.3125 C23.47259113 32.36437346 18.4278484 29.15953601 11.5625 26.1875 C7.35307888 24.30409552 4.62613452 23.03813646 2.1953125 19.0078125 C1.1875 15.8125 1.1875 15.8125 0.60546875 12.83203125 C-0.05930427 9.72260904 -1.36719433 7.69667339 -3 5 C-2.28541109 2.85623326 -1.58775583 1.58775583 0 0 Z " fill="#FBC10F" transform="translate(47,152)"/>
<path d="M0 0 C4.87122223 4.19932951 7.22733619 9.66415674 8 16 C8.65981936 25.73233549 5.90821015 34.23147878 0 42 C-1.59546013 43.78674145 -3.22871971 45.38054374 -5 47 C-7.80025297 45.97683065 -8.87630726 45.19693187 -10.484375 42.63671875 C-14.66367425 32.89791958 -15.67728967 24.23960975 -12.3125 14.0625 C-9.64078538 7.5995847 -6.35660463 3.26911095 0 0 Z " fill="#95923B" transform="translate(43,156)"/>
<path d="M0 0 C7.0531538 6.46539098 10.96716854 13.87621434 11.4375 23.5625 C11.24439136 33.91312313 7.26102293 42.73897707 0 50 C-2.33994754 47.11852174 -3.79903432 44.39858364 -5.125 40.9375 C-5.45757812 40.08027344 -5.79015625 39.22304688 -6.1328125 38.33984375 C-9.65446477 28.83772795 -9.16001447 17.27878227 -5 8 C-3.47373679 5.22456304 -1.82764128 2.58614853 0 0 Z " fill="#803937" transform="translate(117,259)"/>
<path d="M0 0 C-2.90656643 16.99958919 -2.90656643 16.99958919 -7.625 21.25 C-9.7265625 22.7109375 -9.7265625 22.7109375 -12 24 C-12.81210938 24.48726563 -13.62421875 24.97453125 -14.4609375 25.4765625 C-19.66018358 28.34014727 -24.08597656 29.67144314 -30 30 C-30.79275148 28.5839401 -31.58415312 27.16712447 -32.375 25.75 C-33.03628906 24.56664062 -33.03628906 24.56664062 -33.7109375 23.359375 C-34.85747823 21.26085803 -35.94649552 19.1463923 -37 17 C-26.84188883 5.45669186 -15.3062835 -0.15877887 0 0 Z " fill="#7A2F8B" transform="translate(155,241)"/>
<path d="M0 0 C0.66 0 1.32 0 2 0 C2.14695312 0.87011719 2.14695312 0.87011719 2.296875 1.7578125 C3.29576772 6.97616583 4.33857005 10.97242705 8 15 C11.23063219 16.92009272 14.55114441 18.51251648 18 20 C17.08552154 21.08518111 16.16829593 22.16804738 15.25 23.25 C14.73953125 23.85328125 14.2290625 24.4565625 13.703125 25.078125 C11.87871375 27.1368643 9.96169678 29.07241968 8 31 C7.50113281 30.55269531 7.00226563 30.10539062 6.48828125 29.64453125 C-3.21848074 21.47133309 -14.25300718 17.80870415 -26.875 17.9375 C-28.02742187 17.94652344 -29.17984375 17.95554687 -30.3671875 17.96484375 C-31.23601562 17.97644531 -32.10484375 17.98804687 -33 18 C-32.49339844 17.27296875 -32.49339844 17.27296875 -31.9765625 16.53125 C-28.78058336 11.72804436 -27.11178592 7.66000106 -26 2 C-25.236875 2.309375 -24.47375 2.61875 -23.6875 2.9375 C-17.9908145 5.18967799 -12.58632694 6.32159452 -6.66796875 4.140625 C-3.0921408 2.42475388 -3.0921408 2.42475388 0 0 Z " fill="#1FB9D9" transform="translate(266,86)"/>
<path d="M0 0 C3.55367371 2.08374504 5.94017479 4.36083377 8.578125 7.51171875 C7.69064121 10.35827581 7.14626814 12.10204529 4.6875 13.875 C-3.92882567 17.34150188 -13.59520521 18.48841943 -22.359375 14.82421875 C-23.73296342 14.08855154 -25.08853754 13.31804536 -26.421875 12.51171875 C-27.11539062 12.13789063 -27.80890625 11.7640625 -28.5234375 11.37890625 C-30.484375 10.19921875 -30.484375 10.19921875 -33.421875 7.51171875 C-33.859375 3.69921875 -33.859375 3.69921875 -33.421875 0.51171875 C-22.32388666 -5.21627523 -11.31185776 -5.27785877 0 0 Z " fill="#089949" transform="translate(33.421875,146.48828125)"/>
<path d="M0 0 C5.88252979 4.24138923 9.82187391 9.94502465 11.84375 16.9296875 C12.93014472 26.05540312 11.44550958 33.62439817 5.71875 41.0546875 C3.21528217 43.49709514 1.48764272 44.60286101 -1.84375 45.5546875 C-2.40606857 37.68222746 -0.33164785 33.02266632 4.21875 26.6796875 C6.15625 24.5546875 6.15625 24.5546875 9.15625 22.5546875 C8.49238281 22.214375 7.82851563 21.8740625 7.14453125 21.5234375 C1.12958618 18.22180342 -3.37257156 15.15716938 -5.84375 8.5546875 C-6.19835875 6.05351375 -6.10815039 4.09293121 -5.84375 1.5546875 C-6.38644531 1.90402344 -6.92914063 2.25335938 -7.48828125 2.61328125 C-8.20371094 3.06832031 -8.91914063 3.52335937 -9.65625 3.9921875 C-10.71779297 4.67087891 -10.71779297 4.67087891 -11.80078125 5.36328125 C-16.31630638 7.99661808 -20.75596846 8.07384888 -25.84375 7.5546875 C-29.40625 6.0546875 -29.40625 6.0546875 -31.84375 4.5546875 C-31.84375 3.5646875 -31.84375 2.5746875 -31.84375 1.5546875 C-21.70544617 -4.48930132 -10.72958094 -6.16602541 0 0 Z " fill="#6B4D8E" transform="translate(273.84375,84.4453125)"/>
<path d="M0 0 C-1.93837326 7.49844393 -4.62902133 13.09372317 -11.21484375 17.47265625 C-15.01012832 19.63868388 -18.87558354 21.53649738 -23 23 C-22.59007813 23.53109375 -22.18015625 24.0621875 -21.7578125 24.609375 C-21.21898438 25.31578125 -20.68015625 26.0221875 -20.125 26.75 C-19.59132813 27.44609375 -19.05765625 28.1421875 -18.5078125 28.859375 C-15.89320839 32.57130001 -14.2504639 35.35143475 -15 40 C-16.96875 42.23828125 -16.96875 42.23828125 -19.5 44.3125 C-20.3353125 45.00988281 -21.170625 45.70726562 -22.03125 46.42578125 C-22.6809375 46.94527344 -23.330625 47.46476562 -24 48 C-28.06421348 44.2475618 -28.87802241 40.35721698 -29.15625 34.98046875 C-29.23626616 26.70879847 -29.23626616 26.70879847 -28 23 C-28.89203125 22.90203125 -29.7840625 22.8040625 -30.703125 22.703125 C-31.87359375 22.55359375 -33.0440625 22.4040625 -34.25 22.25 C-35.41015625 22.11078125 -36.5703125 21.9715625 -37.765625 21.828125 C-41.34645095 20.91129517 -42.68714518 19.81664498 -45 17 C-38.59370576 16.79147686 -33.07027358 16.8416805 -27 19 C-26.61070313 18.35933594 -26.22140625 17.71867187 -25.8203125 17.05859375 C-20.76241791 9.23866916 -14.76018823 2.99939164 -5.5 0.5625 C-2 0 -2 0 0 0 Z " fill="#9B7C38" transform="translate(122,58)"/>
<path d="M0 0 C1.40145357 0.90834954 2.76835345 1.86974735 4.125 2.84375 C2.63329734 7.8160922 0.52042583 12.26220739 -1.875 16.84375 C-15.25635806 16.1746821 -25.51384723 10.20490277 -34.875 0.84375 C-34.875 -0.14625 -34.875 -1.13625 -34.875 -2.15625 C-22.88718672 -7.20375033 -11.03671462 -6.80597402 0 0 Z " fill="#E23127" transform="translate(112.875,255.15625)"/>
<path d="M0 0 C4.20393378 1.40131126 5.47882258 4.38325896 7.6875 8 C8.12304199 8.70463379 8.55858398 9.40926758 9.00732422 10.13525391 C21 29.96576588 21 29.96576588 21 36 C20.38511719 36.06058594 19.77023437 36.12117188 19.13671875 36.18359375 C18.32847656 36.26738281 17.52023437 36.35117188 16.6875 36.4375 C15.88699219 36.51871094 15.08648437 36.59992188 14.26171875 36.68359375 C11.83912821 36.95265693 11.83912821 36.95265693 9 38 C8.78085937 37.29875 8.56171875 36.5975 8.3359375 35.875 C5.58693893 27.65035387 2.66535132 20.57699793 -5.375 16.5 C-6.57125 16.005 -7.7675 15.51 -9 15 C-8.599842 9.53117394 -6.57688682 6.01107539 -3 2 C-2.01 1.34 -1.02 0.68 0 0 Z " fill="#E45296" transform="translate(277,68)"/>
<path d="M0 0 C2.97880495 1.81318562 4.56503397 3.28823741 6.375 6.25 C7.238018 10.04727922 7.18915237 13.27449099 6 17 C3.4056446 20.12653087 1.21048756 22.73032052 -2.953125 23.23828125 C-6.98167883 23.36845561 -9.66656666 23.13943576 -13.4375 21.5625 C-16.93973367 18.06026633 -17.8921504 14.91960083 -18 10 C-17.24694932 6.33327657 -15.75814856 3.71076428 -13 1.125 C-8.60446581 -1.34748798 -4.77956506 -1.20422635 0 0 Z " fill="#0971B4" transform="translate(243,29)"/>
<path d="M0 0 C0.33 0 0.66 0 1 0 C1.10957031 0.97839844 1.21914062 1.95679687 1.33203125 2.96484375 C2.20032126 10.28368824 3.33071563 17.08412686 6 24 C3.58367661 25.29231226 1.16695604 26.58387191 -1.25 27.875 C-1.93191406 28.23980469 -2.61382812 28.60460937 -3.31640625 28.98046875 C-6.5252626 30.69393573 -9.73250878 32.39993987 -13 34 C-13.23074219 33.35933594 -13.46148437 32.71867187 -13.69921875 32.05859375 C-15.84885685 26.35737966 -18.24480588 21.7983036 -22 17 C-21.3709375 16.78085938 -20.741875 16.56171875 -20.09375 16.3359375 C-10.84459501 12.90929273 -4.34427755 9.05057823 0 0 Z " fill="#95BC3C" transform="translate(120,63)"/>
<path d="M0 0 C2.60152857 2.17802392 3.50583262 3.18102501 4.6875 6.25 C4.92046765 10.66085424 4.47692474 14.23138743 1.75 17.75 C-2.42153033 20.78384024 -6.2614102 21.02969842 -11.3125 20.25 C-14.38719523 18.54748281 -16.71863254 16.43773492 -18.3125 13.25 C-18.71960593 9.01609838 -18.56825965 6.73411648 -16.5625 2.9375 C-11.92623943 -2.60025568 -6.52345032 -3.44635111 0 0 Z " fill="#E65224" transform="translate(185.3125,5.75)"/>
<path d="M0 0 C-1.64359432 1.69495665 -3.31030607 3.35161888 -5 5 C-5.55816406 5.56589844 -6.11632812 6.13179687 -6.69140625 6.71484375 C-12.14273235 11.91579579 -17.95392725 14.48775122 -25 17 C-26.134375 17.433125 -27.26875 17.86625 -28.4375 18.3125 C-33.93867905 19.37413104 -39.41585085 19.1511499 -45 19 C-37.07196893 8.77701257 -27.50132783 3.42587094 -15.0625 0.25 C-10.04620554 -0.15949342 -5.02957627 -0.07324626 0 0 Z " fill="#097949" transform="translate(291,231)"/>
<path d="M0 0 C4.62794711 5.39927162 6.28334285 9.36462947 6.25 16.5 C6.25515625 17.6034375 6.2603125 18.706875 6.265625 19.84375 C6.00303615 22.96392334 5.32438782 25.18304814 4 28 C5.155 27.9175 6.31 27.835 7.5 27.75 C13.48699785 27.79223632 17.82304147 29.83543403 22.05859375 34.046875 C23.76984876 35.98882233 25.41254198 37.9561478 27 40 C26.67 40.66 26.34 41.32 26 42 C16.61592171 41.81024842 11.41552226 39.69671631 4.3125 33.75 C-2.05752165 26.17483912 -3.69747597 20.51526844 -3.375 10.48828125 C-2.93010448 6.34982608 -2.08864036 3.56809395 0 0 Z " fill="#734B3B" transform="translate(56,88)"/>
<path d="M0 0 C0.90044264 2.38849274 1.68477806 4.73544802 2.41796875 7.17578125 C2.63947098 7.89734909 2.86097321 8.61891693 3.08918762 9.36235046 C3.55613107 10.89198852 4.01904835 12.42286046 4.47827148 13.95483398 C5.18265497 16.29639381 5.90585595 18.63155123 6.63085938 20.96679688 C7.08188616 22.45277432 7.53179288 23.93909228 7.98046875 25.42578125 C8.3069062 26.47286003 8.3069062 26.47286003 8.63993835 27.54109192 C9.76379806 31.35143558 9.99296849 33.02812603 9 37 C6.36 37.66 3.72 38.32 1 39 C-0.25051185 35.17890616 -1.49537758 31.35602098 -2.73535156 27.53149414 C-3.15670744 26.23445782 -3.57952311 24.93789468 -4.00390625 23.6418457 C-6.34954424 16.47492585 -8.53429028 9.40102875 -10 2 C-2.25 -1.125 -2.25 -1.125 0 0 Z " fill="#040607" transform="translate(212,316)"/>
<path d="M0 0 C3.50734139 7.89151813 2.96185339 17.06491622 -0.06640625 25.01953125 C-1.43799903 27.92914439 -3.08132548 30.41971358 -5 33 C-10.0885767 27.06332718 -11.47221004 22.44661798 -11.31640625 14.71875 C-10.68451792 9.28919098 -6.12719878 0 0 0 Z " fill="#644939" transform="translate(53,119)"/>
<path d="M0 0 C2.30078125 -0.234375 2.30078125 -0.234375 5 0 C6.73046875 1.609375 6.73046875 1.609375 8.1875 3.75 C8.67605469 4.44609375 9.16460937 5.1421875 9.66796875 5.859375 C13.74093386 12.4047852 13.74093386 12.4047852 13 17 C11.03125 19.23828125 11.03125 19.23828125 8.5 21.3125 C7.6646875 22.00988281 6.829375 22.70726563 5.96875 23.42578125 C4.99421875 24.20501953 4.99421875 24.20501953 4 25 C-0.06421348 21.2475618 -0.87802241 17.35721698 -1.15625 11.98046875 C-1.23626616 3.70879847 -1.23626616 3.70879847 0 0 Z " fill="#26944A" transform="translate(94,81)"/>
<path d="M0 0 C1.72089844 -0.00386719 1.72089844 -0.00386719 3.4765625 -0.0078125 C6.375 0.125 6.375 0.125 8.375 1.125 C8.375 2.445 8.375 3.765 8.375 5.125 C6.73046875 6.57421875 6.73046875 6.57421875 4.5625 7.8125 C3.85480469 8.22886719 3.14710938 8.64523438 2.41796875 9.07421875 C-2.21295957 11.45609201 -6.52243672 11.64566972 -11.625 11.125 C-15.1875 9.625 -15.1875 9.625 -17.625 8.125 C-17.625 7.135 -17.625 6.145 -17.625 5.125 C-11.34033297 1.37837158 -7.43039442 -0.0167729 0 0 Z " fill="#45AC4A" transform="translate(259.625,80.875)"/>
<path d="M0 0 C5.83308406 1.54405166 9.10205714 5.92622722 12.16015625 10.87890625 C13.21403273 13.54055707 13.26554814 15.70553014 13.25 18.5625 C13.25515625 19.51253906 13.2603125 20.46257812 13.265625 21.44140625 C13 24 13 24 11 27 C4.07078717 19.88973885 -0.11640153 14.61020214 -0.1875 4.5 C-0.14004281 2.99944875 -0.08293697 1.49900891 0 0 Z " fill="#E42D26" transform="translate(64,48)"/>
<path d="M0 0 C4.87122223 4.19932951 7.22733619 9.66415674 8 16 C8.07007623 18.67290747 8.04533819 21.32504701 8 24 C7.67 24 7.34 24 7 24 C7 21.69 7 19.38 7 17 C0.73 16.34 -5.54 15.68 -12 15 C-9.60094438 7.80283314 -6.80353103 3.49895882 0 0 Z " fill="#9A9D3A" transform="translate(43,156)"/>
<path d="M0 0 C4.62794711 5.39927162 6.28334285 9.36462947 6.25 16.5 C6.25515625 17.6034375 6.2603125 18.706875 6.265625 19.84375 C6.00303615 22.96392334 5.32438782 25.18304814 4 28 C2.68 28 1.36 28 0 28 C-3.98098572 21.16492134 -3.65432182 14.71764199 -3 7 C-2.27067583 4.2838962 -1.42684519 2.4375272 0 0 Z " fill="#539C48" transform="translate(56,88)"/>
<path d="M0 0 C4.40021656 0.36668471 6.744666 2.11670417 10 5 C8.70527216 9.77999522 6.91402585 12.68580782 3.5625 16.3125 C2.78003906 17.17488281 1.99757813 18.03726563 1.19140625 18.92578125 C-1 21 -1 21 -4 22 C-4.31734272 14.28974732 -4.37788558 8.02600201 -1 1 C-0.67 0.67 -0.34 0.34 0 0 Z " fill="#079549" transform="translate(273,164)"/>
<path d="M0 0 C1.875 1.0625 1.875 1.0625 3 3 C3.53568236 6.56377572 3.71494868 9.7686995 1.875 12.9375 C-0.77737753 14.44051393 -2.96463635 14.81416141 -6 15 C-8.63550724 14.19470612 -9.66507222 13.44657038 -11.3125 11.25 C-12.25878885 8.15305467 -11.85736616 6.09970844 -11 3 C-7.66921266 -1.19968838 -5.08741239 -1.24589691 0 0 Z " fill="#E5332E" transform="translate(224,13)"/>
<path d="M0 0 C-0.03417354 8.03078163 -2.14437134 13.60364302 -7 20 C-11.19047619 24 -11.19047619 24 -14 24 C-14.56032879 16.1553969 -12.46435442 11.57728867 -8.0625 5.1875 C-3.17142857 0 -3.17142857 0 0 0 Z " fill="#734E3B" transform="translate(286,106)"/>
<path d="M0 0 C2.54685809 0.0785782 3.81954973 0.17584047 6.0625 1.4375 C7.54799091 4.22279546 7.44300713 6.20502511 7.0625 9.3125 C6.0625 11.6875 6.0625 11.6875 4.0625 13.3125 C1.28686297 13.87919256 -1.16120769 13.872376 -3.9375 13.3125 C-6 11.75 -6 11.75 -6.9375 9.3125 C-6.62815348 3.33180065 -6.4509419 0.51197952 0 0 Z " fill="#F7CC13" transform="translate(105.9375,8.6875)"/>
<path d="M0 0 C1.9375 1.0625 1.9375 1.0625 3 3 C3.36528977 6.4093712 3.6140629 8.88023824 1.9375 11.9375 C-1.11976176 13.6140629 -3.5906288 13.36528977 -7 13 C-8.9375 11.9375 -8.9375 11.9375 -10 10 C-10.36528977 6.5906288 -10.6140629 4.11976176 -8.9375 1.0625 C-5.88023824 -0.6140629 -3.4093712 -0.36528977 0 0 Z " fill="#35A962" transform="translate(158,0)"/>
<path d="M0 0 C0.66 0.33 1.32 0.66 2 1 C1.38188918 3.43943734 0.75584739 5.87635529 0.125 8.3125 C-0.04902344 9.00279297 -0.22304688 9.69308594 -0.40234375 10.40429688 C-1.26698516 13.71875562 -2.08185702 16.12278553 -4 19 C-6.97 16.69 -9.94 14.38 -13 12 C-10.36667211 6.40417824 -5.45642695 2.72821348 0 0 Z " fill="#92B03C" transform="translate(287,151)"/>
<path d="M0 0 C-1.33333333 1.33333333 -2.66666667 2.66666667 -4 4 C-5.2065625 5.2684375 -5.2065625 5.2684375 -6.4375 6.5625 C-9.98723632 9.93907845 -12.33494249 11.90575146 -17.3125 12.1875 C-18.6428125 12.0946875 -18.6428125 12.0946875 -20 12 C-17.49503271 6.34243974 -12.86013897 2.66893383 -7.3125 0.0625 C-4.1862645 -0.94025478 -2.94711009 -1.29672844 0 0 Z " fill="#6F3D92" transform="translate(77,76)"/>
<path d="M0 0 C4.47261238 4.265895 7.67427284 8.4271802 8.25 14.7421875 C8.25 17.17505957 8.17895216 19.57420405 8 22 C3.88056801 19.10526401 1.62872045 16.80043921 0 12 C-0.23610158 7.9862732 -0.17542254 4.01522711 0 0 Z " fill="#C82E2E" transform="translate(233,66)"/>
<path d="M0 0 C0.33 0 0.66 0 1 0 C1.83917921 7.21694122 -0.90894128 13.55666634 -4 20 C-5.66796875 21.890625 -5.66796875 21.890625 -7 23 C-8.0352431 14.3346318 -5.39552723 8.39081726 -1 1 C-0.67 0.67 -0.34 0.34 0 0 Z " fill="#E0282D" transform="translate(194,66)"/>
<path d="M0 0 C1.65 0 3.3 0 5 0 C6 3 6 3 4.92578125 5.375 C4.39339844 6.24125 3.86101562 7.1075 3.3125 8 C2.79300781 8.86625 2.27351562 9.7325 1.73828125 10.625 C0.02125482 12.9709597 -1.59055078 14.40419921 -4 16 C-3.6083965 10.04492601 -2.62875405 5.37180176 0 0 Z " fill="#4E3485" transform="translate(155,241)"/>
<path d="M0 0 C8.34642647 -0.71404789 13.84639381 0.6550765 21 5 C21 5.33 21 5.66 21 6 C18.79095369 5.91224337 16.58271407 5.80405633 14.375 5.6875 C13.14523438 5.62949219 11.91546875 5.57148437 10.6484375 5.51171875 C6.8250211 4.97545799 4.28523313 3.9977769 1 2 C0.67 1.34 0.34 0.68 0 0 Z " fill="#6D7043" transform="translate(77,75)"/>
<path d="M0 0 C6.11900325 0.61190033 11.85666377 2.58874674 16 7.25 C16.33 7.8275 16.66 8.405 17 9 C10.90790093 9.77771477 7.82106639 8.03818964 2.8203125 4.60546875 C1 3 1 3 0 0 Z " fill="#CB4131" transform="translate(39,79)"/>
<path d="M0 0 C0.66 0.33 1.32 0.66 2 1 C0.3832351 3.5056873 -1.24275978 6.00442611 -2.875 8.5 C-3.33519531 9.21542969 -3.79539062 9.93085938 -4.26953125 10.66796875 C-4.71425781 11.34472656 -5.15898437 12.02148438 -5.6171875 12.71875 C-6.02565918 13.34716797 -6.43413086 13.97558594 -6.85498047 14.62304688 C-7.23283691 15.07744141 -7.61069336 15.53183594 -8 16 C-8.66 16 -9.32 16 -10 16 C-10.83984375 13.3359375 -10.83984375 13.3359375 -11 10 C-9.20283439 7.84096855 -7.71087268 6.34473726 -5.5625 4.625 C-5.03333984 4.17511719 -4.50417969 3.72523438 -3.95898438 3.26171875 C-2.65415226 2.15672579 -1.32892473 1.07589746 0 0 Z " fill="#2688B3" transform="translate(288,233)"/>
<path d="M0 0 C0.80179687 0.00451172 1.60359375 0.00902344 2.4296875 0.01367188 C4.41149006 0.02546832 6.39325433 0.04340395 8.375 0.0625 C4.55634833 3.09108581 1.74629274 4.20373764 -3.125 4.1875 C-3.8984375 4.19007813 -4.671875 4.19265625 -5.46875 4.1953125 C-7.625 4.0625 -7.625 4.0625 -10.625 3.0625 C-10.625 2.4025 -10.625 1.7425 -10.625 1.0625 C-7.31505287 -0.59247356 -3.63377 -0.03834335 0 0 Z " fill="#975635" transform="translate(299.625,148.9375)"/>
<path d="M0 0 C4.93912821 4.23353847 7.32134512 9.12975632 10 15 C5.36902821 14.20019464 3.78591202 11.68945106 1 8 C-0.35439668 5.29120665 -0.06501451 2.99066732 0 0 Z " fill="#ED8621" transform="translate(183,40)"/>
<path d="M0 0 C0.83414558 2.38480081 1.11903995 3.63319086 0.328125 6.0703125 C-0.02765625 6.74835938 -0.3834375 7.42640625 -0.75 8.125 C-1.09546875 8.80820313 -1.4409375 9.49140625 -1.796875 10.1953125 C-3 12 -3 12 -6 14 C-5.62257767 7.83543524 -3.84129692 4.82624485 0 0 Z " fill="#70337D" transform="translate(239,89)"/>
<path d="M0 0 C-1.38782485 0.8466034 -2.78569397 1.67675339 -4.1875 2.5 C-4.96480469 2.9640625 -5.74210938 3.428125 -6.54296875 3.90625 C-9.24103386 5.10729647 -11.0806982 5.20741043 -14 5 C-10.47470999 0.64522999 -5.39743041 -1.75564769 0 0 Z " fill="#DF2C2B" transform="translate(231,106)"/>
<path d="M0 0 C-0.375 2.4375 -0.375 2.4375 -1 5 C-3.49092811 6.24546405 -4.41080733 5.7767578 -7 5 C-6.67 3.68 -6.34 2.36 -6 1 C-3.92446352 0.4465236 -2.15634036 0 0 0 Z " fill="#724992" transform="translate(163,236)"/>
<path d="M0 0 C0.6875 1.625 0.6875 1.625 1 4 C-0.4375 7.25 -0.4375 7.25 -2 10 C-2.66 10 -3.32 10 -4 10 C-3.5205537 5.78087253 -2.83374881 3.20336822 0 0 Z " fill="#CB5F34" transform="translate(272,73)"/>
<path d="M0 0 C0.99 0.33 1.98 0.66 3 1 C1.625 3.5 1.625 3.5 0 6 C-0.66 6 -1.32 6 -2 6 C-2 4.35 -2 2.7 -2 1 C-1.34 0.67 -0.68 0.34 0 0 Z " fill="#C5512C" transform="translate(55,117)"/>
</svg>
