<?xml version="1.0" encoding="UTF-8"?>
<svg version="1.1" xmlns="http://www.w3.org/2000/svg" width="269" height="543">
<path d="M0 0 C88.77 0 177.54 0 269 0 C269 179.19 269 358.38 269 543 C180.23 543 91.46 543 0 543 C0 363.81 0 184.62 0 0 Z " fill="#FDFDFD" transform="translate(0,0)"/>
<path d="M0 0 C88.77 0 177.54 0 269 0 C269 179.19 269 358.38 269 543 C180.23 543 91.46 543 0 543 C0 363.81 0 184.62 0 0 Z M17.0390625 15.75390625 C16.33910156 16.64916016 16.33910156 16.64916016 15.625 17.5625 C15.14289062 18.16191406 14.66078125 18.76132812 14.1640625 19.37890625 C11.79318798 22.68062748 11.8755804 24.95754203 11.87695217 28.99328804 C11.87496112 30.27915971 11.87297007 31.56503138 11.87091869 32.88986886 C11.87377211 34.3303168 11.87671772 35.77076457 11.87974548 37.21121216 C11.87930979 38.73086499 11.87843492 40.25051774 11.87715632 41.77017009 C11.87491094 45.96144008 11.87893323 50.15268471 11.88393438 54.34395146 C11.88823808 58.85793258 11.88679251 63.37191218 11.8860321 67.88589478 C11.88550682 75.71178656 11.88865411 83.53767003 11.89426994 91.36355972 C11.90238431 102.67859328 11.9050001 113.99362279 11.90625793 125.30865894 C11.90844855 143.66492204 11.91510891 162.02118071 11.92456055 180.37744141 C11.93373441 198.21272764 11.94080391 216.04801267 11.94506836 233.88330078 C11.94533636 234.9932059 11.94560435 236.10311102 11.94588047 237.24664962 C11.9479598 245.92636202 11.94991676 254.60607444 11.95183504 263.28578687 C11.96127499 305.85719531 11.98139181 348.42859267 12 391 C93.18 391 174.36 391 258 391 C258.08738617 326.29785741 258.08738617 326.29785741 258.14648438 261.59570312 C258.15235812 252.87703433 258.15841961 244.1583657 258.16479492 235.43969727 C258.16558617 234.34693224 258.16637741 233.25416721 258.16719264 232.12828809 C258.18024573 214.47920839 258.20390004 196.83015798 258.23145839 179.18109565 C258.25949858 161.07261496 258.27617333 142.96414961 258.28226548 124.8556481 C258.2863848 113.67892246 258.29940217 102.50227954 258.3237494 91.32557935 C258.33958947 83.66455563 258.34440428 76.00357476 258.34050413 68.34253585 C258.3385799 63.92045502 258.34155983 59.49851889 258.35761642 55.0764637 C258.37220961 51.0279119 258.37295618 46.97960219 258.36269668 42.93103928 C258.36142858 41.46658577 258.36523912 40.00211719 258.37464955 38.53769337 C258.62761303 26.97816829 258.62761303 26.97816829 253.3515625 17.07421875 C252.78179687 16.61660156 252.21203125 16.15898437 251.625 15.6875 C251.06039062 15.21699219 250.49578125 14.74648437 249.9140625 14.26171875 C245.82559029 11.56666462 242.24457432 10.75059966 237.38354492 10.77294922 C236.28278122 10.77310028 235.18201752 10.77325134 234.04789734 10.77340698 C232.8706459 10.78372955 231.69339447 10.79405212 230.48046875 10.8046875 C228.65990715 10.80893234 228.65990715 10.80893234 226.80256653 10.81326294 C222.93077689 10.82444692 219.05921959 10.8495487 215.1875 10.875 C212.56055022 10.88503208 209.93359681 10.89415754 207.30664062 10.90234375 C200.87101464 10.92438046 194.43552392 10.95784059 188 11 C187.81824219 11.62648438 187.63648438 12.25296875 187.44921875 12.8984375 C187.19785156 13.71570313 186.94648438 14.53296875 186.6875 15.375 C186.44386719 16.18710937 186.20023438 16.99921875 185.94921875 17.8359375 C185 20 185 20 182 22 C179.00653263 22.21066009 176.10482716 22.30408263 173.10986328 22.30639648 C171.74599991 22.31888176 171.74599991 22.31888176 170.35458374 22.33161926 C167.34311668 22.35575235 164.33186606 22.36449534 161.3203125 22.37109375 C159.22907444 22.38005741 157.13783705 22.3891792 155.04660034 22.39845276 C150.66012004 22.41495421 146.27371616 22.42264501 141.88720703 22.42553711 C136.26564931 22.43092272 130.64480956 22.46860555 125.02345467 22.51428127 C120.7031695 22.54401931 116.38305792 22.55125996 112.06267929 22.55226326 C109.99020982 22.55647186 107.91774012 22.56893167 105.84537125 22.58978081 C102.9460186 22.61662792 100.04833912 22.61188959 97.14892578 22.59936523 C96.29264587 22.61419952 95.43636597 22.62903381 94.55413818 22.64431763 C90.2310401 22.59112183 88.51165588 22.3946929 84.97897339 19.66957092 C82.76752362 16.6863969 82.2560835 14.67053018 82 11 C74.15297684 10.92379965 66.30604948 10.87133671 58.45874023 10.83520508 C55.79026928 10.82183639 53.12228282 10.79968395 50.45385742 10.77368164 C46.61370748 10.73720415 42.77388562 10.72025141 38.93359375 10.70703125 C37.74479111 10.69154739 36.55598846 10.67606354 35.3311615 10.66011047 C28.2382666 10.65867628 22.5500013 10.82479964 17.0390625 15.75390625 Z " fill="#FEFDFD" transform="translate(0,0)"/>
<path d="M0 0 C88.77 0 177.54 0 269 0 C269 179.19 269 358.38 269 543 C180.23 543 91.46 543 0 543 C0 363.81 0 184.62 0 0 Z M17.0390625 15.75390625 C16.33910156 16.64916016 16.33910156 16.64916016 15.625 17.5625 C15.14289062 18.16191406 14.66078125 18.76132812 14.1640625 19.37890625 C11.79318798 22.68062748 11.8755804 24.95754203 11.87695217 28.99328804 C11.87496112 30.27915971 11.87297007 31.56503138 11.87091869 32.88986886 C11.87377211 34.3303168 11.87671772 35.77076457 11.87974548 37.21121216 C11.87930979 38.73086499 11.87843492 40.25051774 11.87715632 41.77017009 C11.87491094 45.96144008 11.87893323 50.15268471 11.88393438 54.34395146 C11.88823808 58.85793258 11.88679251 63.37191218 11.8860321 67.88589478 C11.88550682 75.71178656 11.88865411 83.53767003 11.89426994 91.36355972 C11.90238431 102.67859328 11.9050001 113.99362279 11.90625793 125.30865894 C11.90844855 143.66492204 11.91510891 162.02118071 11.92456055 180.37744141 C11.93373441 198.21272764 11.94080391 216.04801267 11.94506836 233.88330078 C11.94533636 234.9932059 11.94560435 236.10311102 11.94588047 237.24664962 C11.9479598 245.92636202 11.94991676 254.60607444 11.95183504 263.28578687 C11.96127499 305.85719531 11.98139181 348.42859267 12 391 C93.18 391 174.36 391 258 391 C258.08738617 326.29785741 258.08738617 326.29785741 258.14648438 261.59570312 C258.15235812 252.87703433 258.15841961 244.1583657 258.16479492 235.43969727 C258.16558617 234.34693224 258.16637741 233.25416721 258.16719264 232.12828809 C258.18024573 214.47920839 258.20390004 196.83015798 258.23145839 179.18109565 C258.25949858 161.07261496 258.27617333 142.96414961 258.28226548 124.8556481 C258.2863848 113.67892246 258.29940217 102.50227954 258.3237494 91.32557935 C258.33958947 83.66455563 258.34440428 76.00357476 258.34050413 68.34253585 C258.3385799 63.92045502 258.34155983 59.49851889 258.35761642 55.0764637 C258.37220961 51.0279119 258.37295618 46.97960219 258.36269668 42.93103928 C258.36142858 41.46658577 258.36523912 40.00211719 258.37464955 38.53769337 C258.62761303 26.97816829 258.62761303 26.97816829 253.3515625 17.07421875 C252.78179687 16.61660156 252.21203125 16.15898437 251.625 15.6875 C251.06039062 15.21699219 250.49578125 14.74648437 249.9140625 14.26171875 C245.82559029 11.56666462 242.24457432 10.75059966 237.38354492 10.77294922 C236.28278122 10.77310028 235.18201752 10.77325134 234.04789734 10.77340698 C232.8706459 10.78372955 231.69339447 10.79405212 230.48046875 10.8046875 C228.65990715 10.80893234 228.65990715 10.80893234 226.80256653 10.81326294 C222.93077689 10.82444692 219.05921959 10.8495487 215.1875 10.875 C212.56055022 10.88503208 209.93359681 10.89415754 207.30664062 10.90234375 C200.87101464 10.92438046 194.43552392 10.95784059 188 11 C187.81824219 11.62648438 187.63648438 12.25296875 187.44921875 12.8984375 C187.19785156 13.71570313 186.94648438 14.53296875 186.6875 15.375 C186.44386719 16.18710937 186.20023438 16.99921875 185.94921875 17.8359375 C185 20 185 20 182 22 C179.00653263 22.21066009 176.10482716 22.30408263 173.10986328 22.30639648 C171.74599991 22.31888176 171.74599991 22.31888176 170.35458374 22.33161926 C167.34311668 22.35575235 164.33186606 22.36449534 161.3203125 22.37109375 C159.22907444 22.38005741 157.13783705 22.3891792 155.04660034 22.39845276 C150.66012004 22.41495421 146.27371616 22.42264501 141.88720703 22.42553711 C136.26564931 22.43092272 130.64480956 22.46860555 125.02345467 22.51428127 C120.7031695 22.54401931 116.38305792 22.55125996 112.06267929 22.55226326 C109.99020982 22.55647186 107.91774012 22.56893167 105.84537125 22.58978081 C102.9460186 22.61662792 100.04833912 22.61188959 97.14892578 22.59936523 C96.29264587 22.61419952 95.43636597 22.62903381 94.55413818 22.64431763 C90.2310401 22.59112183 88.51165588 22.3946929 84.97897339 19.66957092 C82.76752362 16.6863969 82.2560835 14.67053018 82 11 C74.15297684 10.92379965 66.30604948 10.87133671 58.45874023 10.83520508 C55.79026928 10.82183639 53.12228282 10.79968395 50.45385742 10.77368164 C46.61370748 10.73720415 42.77388562 10.72025141 38.93359375 10.70703125 C37.74479111 10.69154739 36.55598846 10.67606354 35.3311615 10.66011047 C28.2382666 10.65867628 22.5500013 10.82479964 17.0390625 15.75390625 Z M12 402 C12 448.2 12 494.4 12 542 C93.18 542 174.36 542 258 542 C258 495.8 258 449.6 258 402 C176.82 402 95.64 402 12 402 Z " fill="#040404" transform="translate(0,0)"/>
<path d="M0 0 C1.34211682 -0.00701996 1.34211682 -0.00701996 2.7113471 -0.01418173 C5.72165414 -0.02618652 8.73151054 -0.0166531 11.74182129 -0.00723267 C13.89500699 -0.01129593 16.0481906 -0.01663642 18.20137024 -0.02316284 C24.05869697 -0.03687139 29.91586567 -0.03152317 35.77319527 -0.02202559 C41.89372316 -0.0144473 48.01423722 -0.02146949 54.13476562 -0.02618408 C64.41445351 -0.03164698 74.6940768 -0.02443599 84.97375488 -0.01016235 C96.87021419 0.00616514 108.76651927 0.00087701 120.66297483 -0.01564157 C130.8642851 -0.02924121 141.06554885 -0.03118355 151.26686525 -0.02332556 C157.36524771 -0.01864067 163.46355759 -0.01804658 169.56193542 -0.02793503 C175.29435661 -0.03658026 181.02657833 -0.03062751 186.75897789 -0.01325226 C188.86694189 -0.00927433 190.97492259 -0.01044364 193.08288002 -0.01704025 C195.95237379 -0.02519431 198.82122162 -0.0150087 201.69067383 0 C202.53200662 -0.00669217 203.37333941 -0.01338433 204.24016714 -0.02027929 C209.90644335 0.03751657 209.90644335 0.03751657 212.0563941 1.71985376 C214.93759707 5.43294176 213.82014854 11.32872172 213.79138184 15.83261108 C213.78286388 17.87448664 213.81164526 19.91357008 213.84338379 21.95516968 C213.84241699 23.88296265 213.84241699 23.88296265 213.84143066 25.84970093 C213.84328369 27.02983765 213.84513672 28.20997437 213.8470459 29.4258728 C213.34533691 32.38095093 213.34533691 32.38095093 211.86283302 34.04183388 C208.18740997 35.99688026 204.62620205 35.79430197 200.56369019 35.76190186 C199.66738565 35.76658183 198.77108112 35.7712618 197.84761584 35.77608359 C194.8380803 35.78806936 191.8289971 35.77856237 188.81945801 35.76913452 C186.66450229 35.77319857 184.50954867 35.77853951 182.354599 35.7850647 C176.49739856 35.79876226 170.64035632 35.79342996 164.78315306 35.78392744 C158.66216313 35.77634546 152.54118698 35.7833722 146.42019653 35.78808594 C136.14228883 35.79354692 125.86444575 35.78634199 115.58654785 35.77206421 C103.68947978 35.7557284 91.79256585 35.76103164 79.89550149 35.77754343 C69.69333745 35.79113816 59.49121992 35.79308808 49.28904974 35.78522742 C43.19015513 35.78054093 37.09133309 35.77995295 30.99244308 35.78983688 C25.26165323 35.79847532 19.53106306 35.79254199 13.80029488 35.77515411 C11.69190999 35.77117289 9.58350842 35.77235105 7.47513008 35.77894211 C4.60752863 35.78708307 1.74057594 35.77692686 -1.12698364 35.76190186 C-1.97054716 35.76859402 -2.81411067 35.77528619 -3.68323672 35.78218114 C-5.99953651 35.75847435 -5.99953651 35.75847435 -9.65466309 35.38095093 C-12.82071794 30.63186864 -11.98851524 25.51609496 -11.97033691 19.92929077 C-11.96717385 17.88789639 -11.99065436 15.84794774 -12.01599121 13.80673218 C-12.01663574 12.52153687 -12.01728027 11.23634155 -12.01794434 9.91220093 C-12.02092529 8.73206421 -12.02390625 7.55192749 -12.02697754 6.33602905 C-11.14356889 -0.67562882 -5.92599188 -0.04713678 0 0 Z " fill="#C83A3A" transform="translate(34.6546630859375,452.6190490722656)"/>
<path d="M0 0 C0.33 0 0.66 0 1 0 C1.02505615 0.83772949 1.0501123 1.67545898 1.07592773 2.53857422 C1.17100357 5.64352256 1.27024025 8.74830181 1.37231445 11.85302734 C1.43698251 13.85894807 1.49683106 15.86502228 1.55664062 17.87109375 C1.59853516 19.12792969 1.64042969 20.38476562 1.68359375 21.6796875 C1.73858032 23.42354736 1.73858032 23.42354736 1.79467773 25.20263672 C1.81821659 27.9535501 1.81821659 27.9535501 3 30 C31.50224002 30.02333521 60.00447862 30.04098225 88.50672626 30.05181217 C101.74008312 30.0569738 114.97343405 30.06401398 128.20678711 30.07543945 C139.73769722 30.08539034 151.26860305 30.0918544 162.79951733 30.09408849 C168.90798453 30.09539491 175.01643945 30.09847643 181.12490273 30.10573006 C186.86952669 30.11249663 192.61413326 30.11461565 198.35876083 30.11310768 C200.4715643 30.11338372 202.58436832 30.11538507 204.69716835 30.11920547 C207.57318373 30.12415263 210.44913275 30.12299445 213.32514954 30.12025452 C214.16852869 30.12316736 215.01190784 30.1260802 215.88084394 30.12908131 C219.17880088 30.12054062 221.84879046 30.05040318 225 29 C224.34 30.32 223.68 31.64 223 33 C194.5150369 33.04668036 166.03007952 33.08196938 137.54508591 33.10362434 C124.31959506 33.11394549 111.09412795 33.12802183 97.86865234 33.15087891 C86.34395846 33.17078713 74.81928176 33.18371033 63.29457116 33.18817699 C57.18996825 33.19078872 51.08541451 33.19694483 44.98082733 33.21146011 C39.23864879 33.22500346 33.49653984 33.22922922 27.75434685 33.22621536 C25.6435731 33.22676698 23.53279709 33.23076369 21.42203712 33.23841095 C18.54630674 33.24832133 15.67084115 33.24598315 12.79510498 33.24050903 C11.53440551 33.24924756 11.53440551 33.24924756 10.24823737 33.25816262 C6.03596639 33.23640202 3.85906586 32.92953293 0 31 C0 20.77 0 10.54 0 0 Z " fill="#C6ACAC" transform="translate(22,457)"/>
<path d="M0 0 C4.87949547 2.75042722 7.39681332 5.97393949 9.5234375 11.11328125 C10.07238774 15.16178926 10.17697707 17.13297189 7.8984375 20.55078125 C4.80658519 22.58489461 3.15976325 22.71933554 -0.4765625 22.11328125 C-3.31148189 20.04455629 -4.30126238 18.75604835 -5.2265625 15.36328125 C-5.3503125 14.24953125 -5.3503125 14.24953125 -5.4765625 13.11328125 C-7.4565625 13.11328125 -9.4365625 13.11328125 -11.4765625 13.11328125 C-10.1565625 13.44328125 -8.8365625 13.77328125 -7.4765625 14.11328125 C-7.13625 15.75296875 -7.13625 15.75296875 -6.7890625 17.42578125 C-5.81402825 21.15553368 -5.81402825 21.15553368 -3.2265625 22.98828125 C-0.29378564 24.1880536 2.38219415 24.7480204 5.5234375 25.11328125 C5.5234375 25.77328125 5.5234375 26.43328125 5.5234375 27.11328125 C2.8834375 27.11328125 0.2434375 27.11328125 -2.4765625 27.11328125 C-2.1465625 28.43328125 -1.8165625 29.75328125 -1.4765625 31.11328125 C-6.35429855 30.65953836 -8.99834138 29.59150237 -12.4765625 26.11328125 C-15.3066495 21.72176695 -16.15102745 18.31629657 -15.4765625 13.11328125 C-13.9140625 10.61328125 -13.9140625 10.61328125 -11.4765625 9.11328125 C-7.63987309 9.11328125 -5.41147134 9.20953604 -2.6015625 11.92578125 C-1.53006412 14.00925033 -0.88733928 15.81293127 -0.4765625 18.11328125 C1.5034375 18.11328125 3.4834375 18.11328125 5.5234375 18.11328125 C5.96373485 12.45044162 5.96373485 12.45044162 3.9609375 7.30078125 C0.0363236 3.77869185 -3.70688768 2.33851259 -8.9140625 1.67578125 C-14.39644174 2.34905589 -18.66516018 4.18866628 -22.4765625 8.23828125 C-24.37685825 13.70163152 -24.05999132 19.58404998 -22.4765625 25.11328125 C-23.4665625 25.11328125 -24.4565625 25.11328125 -25.4765625 25.11328125 C-27.23835028 19.01147967 -27.60192273 12.54405935 -24.9140625 6.73828125 C-17.862525 -0.85568221 -10.43181422 -3.7350502 0 0 Z " fill="#D65449" transform="translate(143.4765625,85.88671875)"/>
<path d="M0 0 C3.96071241 2.20039578 5.97700966 4.02368218 8.375 7.875 C8.83080417 10.73556409 8.67276382 12.94698909 8.375 15.875 C7.375 16.875 7.375 16.875 4.3125 16.9375 C3.343125 16.916875 2.37375 16.89625 1.375 16.875 C1.16746094 16.30910156 0.95992187 15.74320313 0.74609375 15.16015625 C-0.21752948 12.86600722 -1.16574021 10.89420832 -2.625 8.875 C-6.10688593 7.47197098 -6.10688593 7.47197098 -9.625 7.875 C-12.28198817 9.61578535 -13.34320382 12.01560852 -14.625 14.875 C-14.955 14.215 -15.285 13.555 -15.625 12.875 C-16.29178746 18.20929967 -14.66213263 20.92177656 -11.71875 25.140625 C-10.625 26.875 -10.625 26.875 -10.625 28.875 C-14.84641034 27.36735345 -16.42849864 24.66207131 -18.625 20.875 C-19.57907696 17.90268331 -19.7332576 15.23651653 -19.6875 12.125 C-19.67847656 11.32578125 -19.66945313 10.5265625 -19.66015625 9.703125 C-19.64855469 9.09984375 -19.63695313 8.4965625 -19.625 7.875 C-20.285 7.545 -20.945 7.215 -21.625 6.875 C-15.15612119 -0.16466223 -9.41800979 -2.92283062 0 0 Z " fill="#FAEFEF" transform="translate(141.625,88.125)"/>
<path d="M0 0 C3.12578143 1.6720747 5.39281175 3.7856235 7 7 C7.039992 8.99960012 7.04346799 11.00047242 7 13 C6.34 13 5.68 13 5 13 C4.5875 11.906875 4.175 10.81375 3.75 9.6875 C2.34361942 6.47105553 1.28446667 4.55099815 -2 3 C-6.32043918 2.37157248 -8.2676953 2.51699052 -11.9375 4.9375 C-14.32700379 8.48555108 -14.71820398 10.45463396 -14.5078125 14.6484375 C-13.76734726 18.07736114 -12.13888903 20.55902759 -10.09375 23.37109375 C-9 25 -9 25 -9 27 C-13.22141034 25.49235345 -14.80349864 22.78707131 -17 19 C-17.75 17.0625 -17.75 17.0625 -18 15 C-18.144375 13.906875 -18.28875 12.81375 -18.4375 11.6875 C-17.85164824 6.74960656 -15.59533365 4.2972749 -12 1 C-8.27533151 -0.86233425 -4.05504687 -0.57130829 0 0 Z " fill="#F76A2F" transform="translate(140,90)"/>
<path d="M0 0 C0.66 0 1.32 0 2 0 C2.33 0.99 2.66 1.98 3 3 C3.66 2.835 4.32 2.67 5 2.5 C8.73934485 1.87677586 12.2068487 1.93882014 16 2 C16.99 2 17.98 2 19 2 C21.33333333 2 23.66666667 2 26 2 C26 3.98 26 5.96 26 8 C25.34 8 24.68 8 24 8 C24 7.34 24 6.68 24 6 C23.34 6 22.68 6 22 6 C22 6.66 22 7.32 22 8 C18.7 8 15.4 8 12 8 C12 6.68 12 5.36 12 4 C11.34 4 10.68 4 10 4 C10 5.32 10 6.64 10 8 C6.7 8 3.4 8 0 8 C0 5.36 0 2.72 0 0 Z " fill="#F0C2BE" transform="translate(127,466)"/>
<path d="M0 0 C1.79244141 0.01740234 1.79244141 0.01740234 3.62109375 0.03515625 C5.41740234 0.04869141 5.41740234 0.04869141 7.25 0.0625 C8.17683594 0.07410156 9.10367188 0.08570312 10.05859375 0.09765625 C11.18359375 2.41015625 11.18359375 2.41015625 12.05859375 5.09765625 C11.06859375 6.58265625 11.06859375 6.58265625 10.05859375 8.09765625 C7.0546875 8.42578125 7.0546875 8.42578125 3.49609375 8.34765625 C2.31917969 8.3321875 1.14226562 8.31671875 -0.0703125 8.30078125 C-2.94140625 8.09765625 -2.94140625 8.09765625 -3.94140625 7.09765625 C-4.06640625 4.09765625 -4.06640625 4.09765625 -3.94140625 1.09765625 C-2.94140625 0.09765625 -2.94140625 0.09765625 0 0 Z " fill="#B5B5B5" transform="translate(236.94140625,19.90234375)"/>
<path d="M0 0 C3.02249487 1.98244413 5.49361371 4.16158246 8.04296875 6.7109375 C8.04296875 7.7009375 8.04296875 8.6909375 8.04296875 9.7109375 C7.38296875 9.7109375 6.72296875 9.7109375 6.04296875 9.7109375 C5.34171875 8.9478125 4.64046875 8.1846875 3.91796875 7.3984375 C-0.62185601 3.15468826 -5.26887964 1.58132972 -11.45703125 1.3359375 C-17.64518286 1.58132972 -22.29220649 3.15468826 -26.83203125 7.3984375 C-27.53328125 8.1615625 -28.23453125 8.9246875 -28.95703125 9.7109375 C-29.61703125 9.7109375 -30.27703125 9.7109375 -30.95703125 9.7109375 C-29.24947609 4.43549078 -26.88958861 2.54816113 -22.140625 -0.10546875 C-15.20078231 -2.6855575 -6.85029034 -2.98625603 0 0 Z " fill="#E7552C" transform="translate(145.95703125,81.2890625)"/>
<path d="M0 0 C1.98 0 3.96 0 6 0 C6.226875 1.093125 6.45375 2.18625 6.6875 3.3125 C7.66253425 7.04225243 7.66253425 7.04225243 10.25 8.875 C13.18277686 10.07477235 15.85875665 10.63473915 19 11 C19 11.66 19 12.32 19 13 C16.36 13 13.72 13 11 13 C11 13.66 11 14.32 11 15 C6.35251543 13.67214726 3.40549846 11.14644287 1 7 C0.1875 3.125 0.1875 3.125 0 0 Z " fill="#FAE8E5" transform="translate(130,100)"/>
<path d="M0 0 C0 0.66 0 1.32 0 2 C-0.97839844 2.14695312 -0.97839844 2.14695312 -1.9765625 2.296875 C-7.49970467 3.24183738 -11.61811638 4.27539893 -16 8 C-17.92899236 11.06795372 -18.24777589 13.4053653 -18.1875 17 C-18.18105469 17.845625 -18.17460938 18.69125 -18.16796875 19.5625 C-18.01154076 21.83252477 -17.63089814 23.81961604 -17 26 C-17.99 26 -18.98 26 -20 26 C-21.76178778 19.89819842 -22.12536023 13.4307781 -19.4375 7.625 C-13.28839825 1.00289043 -9.15026499 -0.82849482 0 0 Z " fill="#FC641D" transform="translate(138,85)"/>
<path d="M0 0 C5.06536352 0.59592512 9.02085349 2.54585833 12.26953125 6.57421875 C14.8917739 10.69753317 15.74674515 14.0528134 15 19 C13.3125 21.5 13.3125 21.5 11 23 C8.25 22.75 8.25 22.75 6 22 C6.9590625 21.5359375 6.9590625 21.5359375 7.9375 21.0625 C9.93610821 20.1654837 9.93610821 20.1654837 11 19 C11.48527013 13.33256681 11.48527013 13.33256681 9.4375 8.1875 C6.42089413 5.4802896 3.79460995 4.3864921 0 3 C0 2.01 0 1.02 0 0 Z " fill="#8E2F92" transform="translate(138,85)"/>
<path d="M0 0 C0.99 0 1.98 0 3 0 C3.33 0.66 3.66 1.32 4 2 C4.66 2 5.32 2 6 2 C6 4.31 6 6.62 6 9 C5.01 8.67 4.02 8.34 3 8 C2.195625 8.165 1.39125 8.33 0.5625 8.5 C-2.06834251 9.01333512 -3.49324027 8.83558658 -6 8 C-6 6.35 -6 4.7 -6 3 C-2.25 1.875 -2.25 1.875 0 3 C0 2.01 0 1.02 0 0 Z " fill="#A5A4A4" transform="translate(157,143)"/>
<path d="M0 0 C0 0.99 0 1.98 0 3 C-0.86625 2.67 -1.7325 2.34 -2.625 2 C-10.35562703 -0.22907651 -19.19107725 0.5142841 -27 2 C-21.21716957 -6.67424565 -8.16012884 -3.31135663 0 0 Z " fill="#E86440" transform="translate(148,77)"/>
<path d="M0 0 C0.928125 0.33 1.85625 0.66 2.8125 1 C5.92029291 2.14967004 5.92029291 2.14967004 9 2 C9.99 2.33 10.98 2.66 12 3 C11.01 3.33 10.02 3.66 9 4 C9 4.99 9 5.98 9 7 C9.99 6.67 10.98 6.34 12 6 C12 6.66 12 7.32 12 8 C7.71 8 3.42 8 -1 8 C-1.04241723 5.66705225 -1.04092937 3.33297433 -1 1 C-0.67 0.67 -0.34 0.34 0 0 Z " fill="#B4B4B4" transform="translate(94,186)"/>
<path d="M0 0 C5.97873264 0.11935764 5.97873264 0.11935764 7.08984375 1.23046875 C7.13048207 2.8966399 7.13256475 4.5643497 7.08984375 6.23046875 C5.43984375 6.23046875 3.78984375 6.23046875 2.08984375 6.23046875 C1.75984375 6.89046875 1.42984375 7.55046875 1.08984375 8.23046875 C-0.23015625 8.23046875 -1.55015625 8.23046875 -2.91015625 8.23046875 C-3.53515625 5.35546875 -3.53515625 5.35546875 -3.91015625 2.23046875 C-1.91015625 0.23046875 -1.91015625 0.23046875 0 0 Z " fill="#C7C7C7" transform="translate(43.91015625,187.76953125)"/>
<path d="M0 0 C-0.99 0.99 -1.98 1.98 -3 3 C-3.66 2.67 -4.32 2.34 -5 2 C-7.10148182 1.87672071 -9.20743907 1.82441994 -11.3125 1.8125 C-12.44300781 1.79832031 -13.57351562 1.78414063 -14.73828125 1.76953125 C-17.93204843 1.99519863 -20.1276429 2.63657346 -23 4 C-22.875 2.125 -22.875 2.125 -22 0 C-14.9199438 -3.5400281 -7.22156151 -2.45840392 0 0 Z " fill="#FEF5F3" transform="translate(146,84)"/>
<path d="M0 0 C0.66 0.66 1.32 1.32 2 2 C2.99 1.34 3.98 0.68 5 0 C6.67422986 0.29299023 8.34178227 0.62690101 10 1 C10.99 0.67 11.98 0.34 13 0 C13.33 1.98 13.66 3.96 14 6 C13.4225 5.814375 12.845 5.62875 12.25 5.4375 C7.95766277 4.60287887 4.05042001 6.619175 0 8 C0 5.36 0 2.72 0 0 Z " fill="#C1C1C1" transform="translate(166,163)"/>
<path d="M0 0 C1.23556641 0.01740234 1.23556641 0.01740234 2.49609375 0.03515625 C3.32238281 0.04417969 4.14867188 0.05320313 5 0.0625 C5.63808594 0.07410156 6.27617188 0.08570313 6.93359375 0.09765625 C7.26359375 1.74765625 7.59359375 3.39765625 7.93359375 5.09765625 C6.61359375 5.42765625 5.29359375 5.75765625 3.93359375 6.09765625 C3.93359375 6.75765625 3.93359375 7.41765625 3.93359375 8.09765625 C3.27359375 8.09765625 2.61359375 8.09765625 1.93359375 8.09765625 C1.93359375 7.43765625 1.93359375 6.77765625 1.93359375 6.09765625 C0.28359375 6.09765625 -1.36640625 6.09765625 -3.06640625 6.09765625 C-3.06640625 5.10765625 -3.06640625 4.11765625 -3.06640625 3.09765625 C-2.07640625 3.59265625 -2.07640625 3.59265625 -1.06640625 4.09765625 C-1.06640625 3.43765625 -1.06640625 2.77765625 -1.06640625 2.09765625 C-1.72640625 1.76765625 -2.38640625 1.43765625 -3.06640625 1.09765625 C-2.06640625 0.09765625 -2.06640625 0.09765625 0 0 Z " fill="#C1C1C1" transform="translate(104.06640625,162.90234375)"/>
<path d="M0 0 C0.99 0 1.98 0 3 0 C3.33 0.66 3.66 1.32 4 2 C4.5775 1.67 5.155 1.34 5.75 1 C9.1391755 -0.50630022 11.54532069 -0.15155977 15 1 C14.01 1.33 13.02 1.66 12 2 C12 2.99 12 3.98 12 5 C12.99 4.67 13.98 4.34 15 4 C15 4.66 15 5.32 15 6 C13.35 5.67 11.7 5.34 10 5 C10 4.34 10 3.68 10 3 C8.68 2.67 7.36 2.34 6 2 C6 2.99 6 3.98 6 5 C6.99 4.67 7.98 4.34 9 4 C9 4.66 9 5.32 9 6 C8.278125 5.814375 7.55625 5.62875 6.8125 5.4375 C3.87173027 4.98004693 1.85896942 5.26483643 -1 6 C-0.67 4.02 -0.34 2.04 0 0 Z " fill="#B2B2B2" transform="translate(122,163)"/>
<path d="M0 0 C0.66 0 1.32 0 2 0 C2.226875 1.19625 2.45375 2.3925 2.6875 3.625 C3.84887662 8.23779166 5.59862509 10.67772683 9 14 C11.6514482 15.39819512 11.6514482 15.39819512 14 16 C14 16.66 14 17.32 14 18 C9.12226395 17.54625711 6.47822112 16.47822112 3 13 C0.1310292 8.54814877 -0.315109 5.2518167 0 0 Z " fill="#DF5338" transform="translate(128,99)"/>
<path d="M0 0 C0.721875 0.00257813 1.44375 0.00515625 2.1875 0.0078125 C2.909375 0.00523437 3.63125 0.00265625 4.375 0 C6.1875 0.1328125 6.1875 0.1328125 7.1875 1.1328125 C7.22813832 2.79898365 7.230221 4.46669345 7.1875 6.1328125 C4.2175 6.1328125 1.2475 6.1328125 -1.8125 6.1328125 C-2.19468767 4.47666593 -2.52645102 2.80824226 -2.8125 1.1328125 C-1.8125 0.1328125 -1.8125 0.1328125 0 0 Z " fill="#C7C7C7" transform="translate(188.8125,162.8671875)"/>
<path d="M0 0 C0.66 0 1.32 0 2 0 C2.33 0.99 2.66 1.98 3 3 C3.763125 2.814375 4.52625 2.62875 5.3125 2.4375 C8 2 8 2 11 3 C10.34 3 9.68 3 9 3 C9 4.65 9 6.3 9 8 C6.03 8 3.06 8 0 8 C0 5.36 0 2.72 0 0 Z " fill="#F1B4A8" transform="translate(127,466)"/>
<path d="M0 0 C1.2065625 0.2475 1.2065625 0.2475 2.4375 0.5 C4.97658116 1.26597109 4.97658116 1.26597109 7 0 C7 0.66 7 1.32 7 2 C7.99 2.33 8.98 2.66 10 3 C9.01 3 8.02 3 7 3 C6.67 4.32 6.34 5.64 6 7 C4.00045254 7.04254356 1.99958364 7.04080783 0 7 C-1 6 -1 6 -1.125 3.5 C-1 1 -1 1 0 0 Z " fill="#C9C9C9" transform="translate(32,224)"/>
<path d="M0 0 C1.24523437 0.01804687 2.49046875 0.03609375 3.7734375 0.0546875 C5.18496094 0.08949219 5.18496094 0.08949219 6.625 0.125 C5.635 0.62 5.635 0.62 4.625 1.125 C4.625 1.785 4.625 2.445 4.625 3.125 C3.39523438 3.21587891 3.39523438 3.21587891 2.140625 3.30859375 C0.52414063 3.43427734 0.52414063 3.43427734 -1.125 3.5625 C-2.72601563 3.68431641 -2.72601563 3.68431641 -4.359375 3.80859375 C-6.81179962 4.06590773 -9.01421291 4.44312218 -11.375 5.125 C-11.375 4.465 -11.375 3.805 -11.375 3.125 C-12.035 2.795 -12.695 2.465 -13.375 2.125 C-8.75130977 0.31820413 -4.94971347 -0.09339082 0 0 Z " fill="#FBE6E0" transform="translate(134.375,76.875)"/>
<path d="M0 0 C0.33 0.66 0.66 1.32 1 2 C1.66 1.67 2.32 1.34 3 1 C3 2.98 3 4.96 3 7 C0 7 -3 7 -6 7 C-6.33 5.35 -6.66 3.7 -7 2 C-2.25 0 -2.25 0 0 0 Z " fill="#C7C7C7" transform="translate(76,162)"/>
<path d="M0 0 C2.05078125 0.03255208 4.1015625 0.06510417 6.15234375 0.09765625 C7.15234375 3.09765625 7.15234375 3.09765625 7.15234375 6.09765625 C4.18234375 6.09765625 1.21234375 6.09765625 -1.84765625 6.09765625 C-2.22984392 4.44150968 -2.56160727 2.77308601 -2.84765625 1.09765625 C-1.84765625 0.09765625 -1.84765625 0.09765625 0 0 Z " fill="#E7B5BC" transform="translate(163.84765625,467.90234375)"/>
<path d="M0 0 C0.598125 0.185625 1.19625 0.37125 1.8125 0.5625 C4.16408762 1.22093687 4.16408762 1.22093687 7 0 C7 2.64 7 5.28 7 8 C4.69 8 2.38 8 0 8 C0 5.36 0 2.72 0 0 Z " fill="#C0C0C0" transform="translate(153,186)"/>
<path d="M0 0 C0.33 1.32 0.66 2.64 1 4 C1.99 3.34 2.98 2.68 4 2 C6.1875 2.375 6.1875 2.375 8 3 C8 4.65 8 6.3 8 8 C5.10765685 8.82638376 3.11257569 9 0 9 C0 6.03 0 3.06 0 0 Z " fill="#7F7E7E" transform="translate(141,143)"/>
<path d="M0 0 C0.66 0 1.32 0 2 0 C2.66 1.65 3.32 3.3 4 5 C4.45375 4.175 4.9075 3.35 5.375 2.5 C5.91125 1.675 6.4475 0.85 7 0 C7.66 0 8.32 0 9 0 C9 2.97 9 5.94 9 9 C8.34 9 7.68 9 7 9 C6.67 8.34 6.34 7.68 6 7 C5.67 7.66 5.34 8.32 5 9 C4.34 9 3.68 9 3 9 C2.67 8.01 2.34 7.02 2 6 C1.34 6.99 0.68 7.98 0 9 C0 6.03 0 3.06 0 0 Z " fill="#484646" transform="translate(168,143)"/>
<path d="M0 0 C0.66 0 1.32 0 2 0 C2 2.97 2 5.94 2 9 C1.34 9 0.68 9 0 9 C0 8.01 0 7.02 0 6 C-0.99 6.33 -1.98 6.66 -3 7 C-2.34 7.33 -1.68 7.66 -1 8 C-2.875 8.625 -2.875 8.625 -5 9 C-5.66 8.34 -6.32 7.68 -7 7 C-6.625 4.875 -6.625 4.875 -6 3 C-4.0625 2.4375 -4.0625 2.4375 -2 2 C-1.67 2.33 -1.34 2.66 -1 3 C-0.67 2.01 -0.34 1.02 0 0 Z " fill="#646363" transform="translate(73,143)"/>
<path d="M0 0 C0.66 0 1.32 0 2 0 C2.226875 1.093125 2.45375 2.18625 2.6875 3.3125 C3.66253425 7.04225243 3.66253425 7.04225243 6.25 8.875 C9.18277686 10.07477235 11.85875665 10.63473915 15 11 C15 11.66 15 12.32 15 13 C7.23214286 13.66964286 7.23214286 13.66964286 3.5625 10.625 C0.01992032 6.99601594 0.01992032 6.99601594 -0.0625 2.875 C-0.041875 1.92625 -0.02125 0.9775 0 0 Z " fill="#B5426A" transform="translate(134,100)"/>
<path d="M0 0 C2.64 0 5.28 0 8 0 C8.33 0.99 8.66 1.98 9 3 C9.66 3.66 10.32 4.32 11 5 C9.56359829 5.19573608 8.12580496 5.38127816 6.6875 5.5625 C5.88699219 5.66691406 5.08648437 5.77132812 4.26171875 5.87890625 C2 6 2 6 -1 5 C-1 2 -1 2 0 0 Z " fill="#C1C1C1" transform="translate(198,201)"/>
<path d="M0 0 C2.97 0 5.94 0 9 0 C9 1.65 9 3.3 9 5 C8.67 4.34 8.34 3.68 8 3 C7.34 3 6.68 3 6 3 C6 3.66 6 4.32 6 5 C1.25 6.125 1.25 6.125 -1 5 C-0.67 3.35 -0.34 1.7 0 0 Z " fill="#C5C5C5" transform="translate(159,176)"/>
<path d="M0 0 C0.66 0 1.32 0 2 0 C2 2.97 2 5.94 2 9 C0.02 9 -1.96 9 -4 9 C-4.33 7.35 -4.66 5.7 -5 4 C-4.360625 3.71125 -3.72125 3.4225 -3.0625 3.125 C-0.84793921 2.17176549 -0.84793921 2.17176549 0 0 Z " fill="#838282" transform="translate(209,143)"/>
<path d="M0 0 C0.66 0 1.32 0 2 0 C2.33 0.66 2.66 1.32 3 2 C3.66 2.33 4.32 2.66 5 3 C3.34655494 5.69772615 2.50773114 6.83901208 -0.5625 7.8125 C-3 8 -3 8 -5 7 C-4.67 5.35 -4.34 3.7 -4 2 C-2.68 2 -1.36 2 0 2 C0 1.34 0 0.68 0 0 Z " fill="#C6C6C6" transform="translate(166,199)"/>
<path d="M0 0 C1.32 0.33 2.64 0.66 4 1 C4 2.98 4 4.96 4 7 C1.69 7 -0.62 7 -3 7 C-3.33 5.68 -3.66 4.36 -4 3 C-2.68 2.67 -1.36 2.34 0 2 C0 1.34 0 0.68 0 0 Z " fill="#BBBBBB" transform="translate(63,199)"/>
<path d="M0 0 C0.33 0.66 0.66 1.32 1 2 C3.02463255 2.65213292 3.02463255 2.65213292 5 3 C5 4.32 5 5.64 5 7 C4.34 7 3.68 7 3 7 C3 5.68 3 4.36 3 3 C2.34 3 1.68 3 1 3 C0.67 4.32 0.34 5.64 0 7 C-1.875 7.625 -1.875 7.625 -4 8 C-4.66 7.34 -5.32 6.68 -6 6 C-5.625 3.875 -5.625 3.875 -5 2 C-3.68 2 -2.36 2 -1 2 C-0.67 1.34 -0.34 0.68 0 0 Z " fill="#BFBFBF" transform="translate(209,174)"/>
<path d="M0 0 C1.66611905 -0.042721 3.33382885 -0.04063832 5 0 C6 1 6 1 6.0625 3.5625 C6.041875 4.366875 6.02125 5.17125 6 6 C4.68 6.33 3.36 6.66 2 7 C2 7.66 2 8.32 2 9 C1.34 9 0.68 9 0 9 C0 6.03 0 3.06 0 0 Z " fill="#7C7B7B" transform="translate(107,145)"/>
<path d="M0 0 C1.66611905 -0.042721 3.33382885 -0.04063832 5 0 C6 1 6 1 6.0625 3.5625 C6.041875 4.366875 6.02125 5.17125 6 6 C4.68 6.33 3.36 6.66 2 7 C2 7.66 2 8.32 2 9 C1.34 9 0.68 9 0 9 C0 6.03 0 3.06 0 0 Z " fill="#757474" transform="translate(114,145)"/>
<path d="M0 0 C3.63 0 7.26 0 11 0 C11 1.32 11 2.64 11 4 C7.37 4 3.74 4 0 4 C0 2.68 0 1.36 0 0 Z " fill="#000000" transform="translate(235,22)"/>
<path d="M0 0 C5.24048417 0.32753026 9.37294164 3.38141608 13 7 C13.734375 9.19921875 13.734375 9.19921875 14 11 C13.34 11 12.68 11 12 11 C10.948125 9.8553125 10.948125 9.8553125 9.875 8.6875 C6.34895891 5.39141811 3.55602238 4.46719365 -1 3 C-0.67 2.01 -0.34 1.02 0 0 Z " fill="#9F3B86" transform="translate(140,80)"/>
<path d="M0 0 C2.475 0.495 2.475 0.495 5 1 C5.625 3.375 5.625 3.375 6 6 C5.34 6.66 4.68 7.32 4 8 C2.68 8 1.36 8 0 8 C0 5.36 0 2.72 0 0 Z " fill="#D1D1D1" transform="translate(122,505)"/>
<path d="M0 0 C0.99 0 1.98 0 3 0 C3 0.66 3 1.32 3 2 C4.65 1.34 6.3 0.68 8 0 C8.33 0.66 8.66 1.32 9 2 C8.01 2 7.02 2 6 2 C6 2.99 6 3.98 6 5 C6.99 4.67 7.98 4.34 9 4 C9 4.66 9 5.32 9 6 C6.03 6 3.06 6 0 6 C-0.38218767 4.34385343 -0.71395102 2.67542976 -1 1 C-0.67 0.67 -0.34 0.34 0 0 Z " fill="#BABABA" transform="translate(125,188)"/>
<path d="M0 0 C0.25 3.3125 0.25 3.3125 0 7 C-1.8125 9 -1.8125 9 -4 10 C-4.99 9.67 -5.98 9.34 -7 9 C-6.67 7.68 -6.34 6.36 -6 5 C-5.34 5.33 -4.68 5.66 -4 6 C-4 5.01 -4 4.02 -4 3 C-4.99 3.33 -5.98 3.66 -7 4 C-7 3.34 -7 2.68 -7 2 C-2.25 0 -2.25 0 0 0 Z " fill="#BABABA" transform="translate(115,249)"/>
<path d="M0 0 C2.475 0.495 2.475 0.495 5 1 C5.625 3.375 5.625 3.375 6 6 C5.34 6.66 4.68 7.32 4 8 C2.68 8 1.36 8 0 8 C0 5.36 0 2.72 0 0 Z " fill="#C6C6C6" transform="translate(129,236)"/>
<path d="M0 0 C0.7425 0.185625 1.485 0.37125 2.25 0.5625 C4.94990963 0.99203108 6.44631077 0.85122974 9 0 C9.33 1.65 9.66 3.3 10 5 C6.25 6.125 6.25 6.125 4 5 C2.67139075 4.64830932 1.33841672 4.31229724 0 4 C0 2.68 0 1.36 0 0 Z " fill="#B3B3B3" transform="translate(79,226)"/>
<path d="M0 0 C0 1.98 0 3.96 0 6 C-0.33 4.68 -0.66 3.36 -1 2 C-1.66 2 -2.32 2 -3 2 C-3 3.32 -3 4.64 -3 6 C-4.65 5.67 -6.3 5.34 -8 5 C-8 3.35 -8 1.7 -8 0 C-4.71023192 -1.09658936 -3.28696233 -0.79953138 0 0 Z " fill="#C0C0C0" transform="translate(91,163)"/>
<path d="M0 0 C0 1.98 0 3.96 0 6 C-2.875 6.625 -2.875 6.625 -6 7 C-6.66 6.34 -7.32 5.68 -8 5 C-7.625 2.875 -7.625 2.875 -7 1 C-2.25 0 -2.25 0 0 0 Z " fill="#BFBFBF" transform="translate(224,225)"/>
<path d="M0 0 C2.31 0.33 4.62 0.66 7 1 C7.33 2.65 7.66 4.3 8 6 C5.6739143 6.38063221 3.33944736 6.71269945 1 7 C0 6 0 6 -0.0625 2.9375 C-0.041875 1.968125 -0.02125 0.99875 0 0 Z " fill="#C0C0C0" transform="translate(147,225)"/>
<path d="M0 0 C0.66 0 1.32 0 2 0 C2 1.65 2 3.3 2 5 C2.33 4.01 2.66 3.02 3 2 C4.32 2.33 5.64 2.66 7 3 C7 4.65 7 6.3 7 8 C4.69 8 2.38 8 0 8 C0 5.36 0 2.72 0 0 Z " fill="#B4B4B4" transform="translate(107,186)"/>
<path d="M0 0 C0 0.66 0 1.32 0 2 C0.99 2 1.98 2 3 2 C3 3.65 3 5.3 3 7 C2.67 5.68 2.34 4.36 2 3 C1.34 3 0.68 3 0 3 C0 4.32 0 5.64 0 7 C-1.9375 7.5625 -1.9375 7.5625 -4 8 C-5 7 -5 7 -5.0625 3.9375 C-5.041875 2.968125 -5.02125 1.99875 -5 1 C-2 0 -2 0 0 0 Z " fill="#BEBEBE" transform="translate(136,174)"/>
<path d="M0 0 C0 0.66 0 1.32 0 2 C0.99 2 1.98 2 3 2 C3 3.65 3 5.3 3 7 C2.67 5.68 2.34 4.36 2 3 C1.34 3 0.68 3 0 3 C0 4.32 0 5.64 0 7 C-1.9375 7.5625 -1.9375 7.5625 -4 8 C-5 7 -5 7 -5.0625 3.9375 C-5.041875 2.968125 -5.02125 1.99875 -5 1 C-2 0 -2 0 0 0 Z " fill="#BEBEBE" transform="translate(56,174)"/>
<path d="M0 0 C0.7425 0.350625 1.485 0.70125 2.25 1.0625 C5.1322726 2.04509293 6.21176345 2.0326802 9 1 C9.33 1.66 9.66 2.32 10 3 C9.01 3 8.02 3 7 3 C7 3.99 7 4.98 7 6 C7.99 5.67 8.98 5.34 10 5 C10 5.66 10 6.32 10 7 C8.52093108 7.02689216 7.04172517 7.04634621 5.5625 7.0625 C4.32693359 7.07990234 4.32693359 7.07990234 3.06640625 7.09765625 C1 7 1 7 0 6 C-0.04080783 4.00041636 -0.04254356 1.99954746 0 0 Z " fill="#B8B8B8" transform="translate(65,237)"/>
<path d="M0 0 C2.05078125 0.03255208 4.1015625 0.06510417 6.15234375 0.09765625 C5.49234375 2.07765625 4.83234375 4.05765625 4.15234375 6.09765625 C2.17234375 6.09765625 0.19234375 6.09765625 -1.84765625 6.09765625 C-2.22984392 4.44150968 -2.56160727 2.77308601 -2.84765625 1.09765625 C-1.84765625 0.09765625 -1.84765625 0.09765625 0 0 Z " fill="#C5C5C5" transform="translate(178.84765625,187.90234375)"/>
<path d="M0 0 C0.804375 0.185625 1.60875 0.37125 2.4375 0.5625 C3.283125 0.706875 4.12875 0.85125 5 1 C5.33 0.67 5.66 0.34 6 0 C7.32 0 8.64 0 10 0 C10 1.65 10 3.3 10 5 C9.67 4.34 9.34 3.68 9 3 C8.34 3 7.68 3 7 3 C7 3.66 7 4.32 7 5 C4.69 5 2.38 5 0 5 C0 3.35 0 1.7 0 0 Z " fill="#B3B3B3" transform="translate(123,251)"/>
<path d="M0 0 C0.66 0 1.32 0 2 0 C2.33 0.66 2.66 1.32 3 2 C5.52733235 2.65555119 5.52733235 2.65555119 8 3 C7.34 4.65 6.68 6.3 6 8 C3.03 7.505 3.03 7.505 0 7 C0 4.69 0 2.38 0 0 Z " fill="#BDBDBD" transform="translate(182,224)"/>
<path d="M0 0 C2.31 0 4.62 0 7 0 C7.33 1.32 7.66 2.64 8 4 C5.64561267 5.42944945 4.51967567 6.08661261 1.75 5.625 C1.1725 5.41875 0.595 5.2125 0 5 C0 3.35 0 1.7 0 0 Z " fill="#C5C5C5" transform="translate(199,226)"/>
<path d="M0 0 C2.64 0 5.28 0 8 0 C7.67 1.65 7.34 3.3 7 5 C4.125 5.625 4.125 5.625 1 6 C0.34 5.34 -0.32 4.68 -1 4 C-0.625 1.875 -0.625 1.875 0 0 Z " fill="#B4B4B4" transform="translate(135,201)"/>
<path d="M0 0 C0.33 0 0.66 0 1 0 C1 2.31 1 4.62 1 7 C-0.9914056 7.38133299 -2.99279077 7.71325582 -5 8 C-6 7 -6 7 -6.0625 4.4375 C-6.041875 3.633125 -6.02125 2.82875 -6 2 C-4.35 2 -2.7 2 -1 2 C-0.67 1.34 -0.34 0.68 0 0 Z " fill="#C0C0C0" transform="translate(49,174)"/>
<path d="M0 0 C4.40595131 1.3462629 6.58291088 3.06103995 9 7 C9.25 10.3125 9.25 10.3125 9 13 C8.34 13 7.68 13 7 13 C6.38125 11.39125 6.38125 11.39125 5.75 9.75 C4.3587365 6.45490223 2.62958728 4.44823644 0 2 C0 1.34 0 0.68 0 0 Z " fill="#B74B73" transform="translate(138,90)"/>
<path d="M0 0 C0 0.66 0 1.32 0 2 C-1.01320312 2.18175781 -1.01320312 2.18175781 -2.046875 2.3671875 C-3.38492188 2.61855469 -3.38492188 2.61855469 -4.75 2.875 C-6.07257813 3.11863281 -6.07257813 3.11863281 -7.421875 3.3671875 C-9.86947744 3.96796264 -11.80599857 4.77997117 -14 6 C-14.66 5.34 -15.32 4.68 -16 4 C-10.77531236 -0.39973696 -6.69286912 -0.47617251 0 0 Z " fill="#E85B32" transform="translate(138,85)"/>
<path d="M0 0 C1.98 0 3.96 0 6 0 C6 2.64 6 5.28 6 8 C4.68 8 3.36 8 2 8 C1.855625 7.236875 1.71125 6.47375 1.5625 5.6875 C1.0367406 2.91827092 1.0367406 2.91827092 0 0 Z " fill="#D2D2D2" transform="translate(112,505)"/>
<path d="M0 0 C1.98 0 3.96 0 6 0 C6 2.64 6 5.28 6 8 C4.68 8 3.36 8 2 8 C1.855625 7.236875 1.71125 6.47375 1.5625 5.6875 C1.0367406 2.91827092 1.0367406 2.91827092 0 0 Z " fill="#CBCBCB" transform="translate(119,236)"/>
<path d="M0 0 C1.32 0 2.64 0 4 0 C4 2.31 4 4.62 4 7 C2.35 7.33 0.7 7.66 -1 8 C-1.04241723 5.66705225 -1.04092937 3.33297433 -1 1 C-0.67 0.67 -0.34 0.34 0 0 Z " fill="#BFBFBF" transform="translate(142,188)"/>
<path d="M0 0 C0.66 0 1.32 0 2 0 C4.09230769 4.43076923 4.09230769 4.43076923 3.625 7.3125 C3.41875 7.869375 3.2125 8.42625 3 9 C3 8.34 3 7.68 3 7 C1.02 7.66 -0.96 8.32 -3 9 C-2.5020163 5.26512223 -2.12508244 3.18762365 0 0 Z " fill="#4B4949" transform="translate(101,143)"/>
<path d="M0 0 C0.33 0.66 0.66 1.32 1 2 C0.32453125 2.09796875 -0.3509375 2.1959375 -1.046875 2.296875 C-7.91119147 3.43008699 -7.91119147 3.43008699 -13 8 C-13.66 8 -14.32 8 -15 8 C-12.07344732 0.55059317 -7.28471916 -0.49387927 0 0 Z " fill="#E6552C" transform="translate(138,90)"/>
<path d="M0 0 C1.98 0 3.96 0 6 0 C6.33 1.65 6.66 3.3 7 5 C3.86650268 6.04449911 3.01031744 5.93423645 0 5 C0 3.35 0 1.7 0 0 Z " fill="#C4C4C4" transform="translate(79,176)"/>
<path d="M0 0 C2 2 2 2 2 6 C-3.75 7.125 -3.75 7.125 -6 6 C-6 4.35 -6 2.7 -6 1 C-4.7934375 1.0309375 -4.7934375 1.0309375 -3.5625 1.0625 C-1.06645115 1.29633621 -1.06645115 1.29633621 0 0 Z " fill="#B9B9B9" transform="translate(102,175)"/>
<path d="M0 0 C2.97 0 5.94 0 9 0 C9.33 1.65 9.66 3.3 10 5 C6.30581799 6.231394 3.7943739 5.64432764 0 5 C0 3.35 0 1.7 0 0 Z " fill="#B1B1B1" transform="translate(56,226)"/>
<path d="M0 0 C2.31 0 4.62 0 7 0 C7 1.65 7 3.3 7 5 C4.69 5 2.38 5 0 5 C0 3.35 0 1.7 0 0 Z " fill="#C4C4C4" transform="translate(99,226)"/>
<path d="M0 0 C0.33 0 0.66 0 1 0 C1 2.64 1 5.28 1 8 C-0.99954746 8.04254356 -3.00041636 8.04080783 -5 8 C-6 7 -6 7 -6.0625 4.4375 C-6.041875 3.633125 -6.02125 2.82875 -6 2 C-5.67 3.32 -5.34 4.64 -5 6 C-4.34 6 -3.68 6 -3 6 C-3 4.68 -3 3.36 -3 2 C-2.01 2 -1.02 2 0 2 C0 1.34 0 0.68 0 0 Z " fill="#BFBFBF" transform="translate(159,199)"/>
<path d="M0 0 C0.66 0 1.32 0 2 0 C2 0.66 2 1.32 2 2 C3.32 2.33 4.64 2.66 6 3 C6 4.98 6 6.96 6 9 C5.34 9 4.68 9 4 9 C4 7.35 4 5.7 4 4 C3.34 4 2.68 4 2 4 C2 5.65 2 7.3 2 9 C1.34 9 0.68 9 0 9 C0 6.03 0 3.06 0 0 Z " fill="#696868" transform="translate(190,143)"/>
<path d="M0 0 C3.10551666 0 4.35261084 0.5393715 7 2 C6.34 2 5.68 2 5 2 C5 3.65 5 5.3 5 7 C3.35 7 1.7 7 0 7 C0 4.69 0 2.38 0 0 Z " fill="#C4C4C4" transform="translate(44,237)"/>
<path d="M0 0 C0.99 0.33 1.98 0.66 3 1 C3 2.98 3 4.96 3 7 C1.0625 7.5625 1.0625 7.5625 -1 8 C-2 7 -2 7 -2.1875 4.5625 C-2 2 -2 2 0 0 Z " fill="#BFBFBF" transform="translate(228,236)"/>
<path d="M0 0 C3.3 0 6.6 0 10 0 C9.01 0.33 8.02 0.66 7 1 C7 1.99 7 2.98 7 4 C7.99 4.33 8.98 4.66 10 5 C7.66666667 5 5.33333333 5 3 5 C3 3.68 3 2.36 3 1 C2.34 1 1.68 1 1 1 C0.67 2.32 0.34 3.64 0 5 C0 3.35 0 1.7 0 0 Z " fill="#B6B6B6" transform="translate(226,226)"/>
<path d="M0 0 C1.65 0 3.3 0 5 0 C5 2.31 5 4.62 5 7 C3.68 7.33 2.36 7.66 1 8 C0.02391783 5.07175348 -0.08226668 3.04386724 0 0 Z " fill="#BDBDBD" transform="translate(68,201)"/>
<path d="M0 0 C1.65 0.33 3.3 0.66 5 1 C5 2.65 5 4.3 5 6 C3.35 6.33 1.7 6.66 0 7 C-1.125 2.25 -1.125 2.25 0 0 Z " fill="#6C6B6B" transform="translate(179,145)"/>
<path d="M0 0 C1.65 0.33 3.3 0.66 5 1 C4.67 1.66 4.34 2.32 4 3 C3.01 2.67 2.02 2.34 1 2 C1 2.66 1 3.32 1 4 C2.32 4.33 3.64 4.66 5 5 C4.67 6.32 4.34 7.64 4 9 C2.35 8.67 0.7 8.34 -1 8 C-0.67 7.34 -0.34 6.68 0 6 C0.99 6 1.98 6 3 6 C1.68 5.34 0.36 4.68 -1 4 C-0.67 2.68 -0.34 1.36 0 0 Z " fill="#595757" transform="translate(60,143)"/>
<path d="M0 0 C2.475 0.495 2.475 0.495 5 1 C5 2.65 5 4.3 5 6 C3.35 6.33 1.7 6.66 0 7 C0 4.69 0 2.38 0 0 Z " fill="#F4C0B4" transform="translate(121,467)"/>
<path d="M0 0 C0.66 0 1.32 0 2 0 C2 2.64 2 5.28 2 8 C1.34 8 0.68 8 0 8 C0 6.68 0 5.36 0 4 C-0.66 4 -1.32 4 -2 4 C-2 5.32 -2 6.64 -2 8 C-2.66 8 -3.32 8 -4 8 C-4 6.02 -4 4.04 -4 2 C-2.68 2 -1.36 2 0 2 C0 1.34 0 0.68 0 0 Z " fill="#E5A4A6" transform="translate(158,466)"/>
<path d="M0 0 C2.97 0 5.94 0 9 0 C8.67 0.99 8.34 1.98 8 3 C7.01 3 6.02 3 5 3 C4.67 3.66 4.34 4.32 4 5 C2.35 4.67 0.7 4.34 -1 4 C-0.67 2.68 -0.34 1.36 0 0 Z " fill="#C3C3C3" transform="translate(132,226)"/>
<path d="M0 0 C0.66 0.33 1.32 0.66 2 1 C2 2.98 2 4.96 2 7 C1.34 7 0.68 7 0 7 C0 6.34 0 5.68 0 5 C-0.66 5 -1.32 5 -2 5 C-2.33 5.66 -2.66 6.32 -3 7 C-3.66 6.67 -4.32 6.34 -5 6 C-5 4.35 -5 2.7 -5 1 C-3.68 1 -2.36 1 -1 1 C-0.67 0.67 -0.34 0.34 0 0 Z " fill="#E9ABA8" transform="translate(151,467)"/>
<path d="M0 0 C0.66 0 1.32 0 2 0 C2 0.66 2 1.32 2 2 C2.99 2 3.98 2 5 2 C5 3.65 5 5.3 5 7 C4.01 7.33 3.02 7.66 2 8 C1.34 7.67 0.68 7.34 0 7 C0 4.69 0 2.38 0 0 Z " fill="#C0C0C0" transform="translate(193,224)"/>
<path d="M0 0 C2.97 0 5.94 0 9 0 C8.01 0.33 7.02 0.66 6 1 C6 1.99 6 2.98 6 4 C6.99 4.33 7.98 4.66 9 5 C5.93109813 6.53445094 3.29905734 5.54984289 0 5 C0 3.35 0 1.7 0 0 Z " fill="#B3B3B3" transform="translate(100,201)"/>
<path d="M0 0 C1.65 0 3.3 0 5 0 C5 2.31 5 4.62 5 7 C2.525 6.01 2.525 6.01 0 5 C0 3.35 0 1.7 0 0 Z " fill="#C1C1C1" transform="translate(147,201)"/>
<path d="M0 0 C0.33 0 0.66 0 1 0 C1 2.31 1 4.62 1 7 C-0.9375 7.5625 -0.9375 7.5625 -3 8 C-4 7 -4 7 -4.0625 3.9375 C-4.041875 2.968125 -4.02125 1.99875 -4 1 C-2.68 1.33 -1.36 1.66 0 2 C0 1.34 0 0.68 0 0 Z " fill="#C6C6C6" transform="translate(156,174)"/>
<path d="M0 0 C1.66611905 -0.042721 3.33382885 -0.04063832 5 0 C6 1 6 1 6.0625 4.0625 C6.041875 5.031875 6.02125 6.00125 6 7 C5.34 7 4.68 7 4 7 C4 5.35 4 3.7 4 2 C3.34 2 2.68 2 2 2 C2 3.65 2 5.3 2 7 C1.34 7 0.68 7 0 7 C0 4.69 0 2.38 0 0 Z " fill="#686767" transform="translate(133,145)"/>
<path d="M0 0 C0.66 0 1.32 0 2 0 C2.33 0.66 2.66 1.32 3 2 C3.66 2 4.32 2 5 2 C5 4.31 5 6.62 5 9 C4.01 8.67 3.02 8.34 2 8 C1.01 8.495 1.01 8.495 0 9 C0 6.03 0 3.06 0 0 Z " fill="#646262" transform="translate(158,143)"/>
<path d="M0 0 C0.66 0.66 1.32 1.32 2 2 C0.125 5.875 0.125 5.875 -1 7 C-2.66617115 7.04063832 -4.33388095 7.042721 -6 7 C-6 6.01 -6 5.02 -6 4 C-5.01 4.495 -5.01 4.495 -4 5 C-4 4.34 -4 3.68 -4 3 C-4.66 2.67 -5.32 2.34 -6 2 C-4.02 1.34 -2.04 0.68 0 0 Z " fill="#C1C1C1" transform="translate(149,506)"/>
<path d="M0 0 C0.66 0.66 1.32 1.32 2 2 C0.125 5.875 0.125 5.875 -1 7 C-2.66617115 7.04063832 -4.33388095 7.042721 -6 7 C-6 6.01 -6 5.02 -6 4 C-5.01 4.495 -5.01 4.495 -4 5 C-4 4.34 -4 3.68 -4 3 C-4.66 2.67 -5.32 2.34 -6 2 C-4.02 1.34 -2.04 0.68 0 0 Z " fill="#B0B0B0" transform="translate(156,237)"/>
<path d="M0 0 C2.475 0.495 2.475 0.495 5 1 C4.67 2.65 4.34 4.3 4 6 C3.01 6 2.02 6 1 6 C0.67 6.66 0.34 7.32 0 8 C0 5.36 0 2.72 0 0 Z " fill="#BDBDBD" transform="translate(209,238)"/>
<path d="M0 0 C2.475 0.495 2.475 0.495 5 1 C4.67 2.65 4.34 4.3 4 6 C3.01 6 2.02 6 1 6 C0.67 6.66 0.34 7.32 0 8 C0 5.36 0 2.72 0 0 Z " fill="#BEBEBE" transform="translate(194,188)"/>
<path d="M0 0 C0.99 0 1.98 0 3 0 C3.33 2.31 3.66 4.62 4 7 C2.0625 7.5625 2.0625 7.5625 0 8 C-1 7 -1 7 -1.125 4 C-1 1 -1 1 0 0 Z " fill="#BCBCBC" transform="translate(232,186)"/>
<path d="M0 0 C2.475 0.495 2.475 0.495 5 1 C4.67 2.65 4.34 4.3 4 6 C3.01 6 2.02 6 1 6 C0.67 6.66 0.34 7.32 0 8 C0 5.36 0 2.72 0 0 Z " fill="#BABABA" transform="translate(56,188)"/>
<path d="M0 0 C2.475 0.495 2.475 0.495 5 1 C4.67 2.65 4.34 4.3 4 6 C3.01 6 2.02 6 1 6 C0.67 6.66 0.34 7.32 0 8 C0 5.36 0 2.72 0 0 Z " fill="#BDBDBD" transform="translate(229,163)"/>
<path d="M0 0 C2.475 0.495 2.475 0.495 5 1 C4.67 2.65 4.34 4.3 4 6 C3.01 6 2.02 6 1 6 C0.67 6.66 0.34 7.32 0 8 C0 5.36 0 2.72 0 0 Z " fill="#BFBFBF" transform="translate(113,163)"/>
<path d="M0 0 C0 2.31 0 4.62 0 7 C-1.65 7 -3.3 7 -5 7 C-5 5.02 -5 3.04 -5 1 C-2 0 -2 0 0 0 Z " fill="#555555" transform="translate(216,21)"/>
<path d="M0 0 C2.97 0.495 2.97 0.495 6 1 C5.34 2.98 4.68 4.96 4 7 C2.68 6.67 1.36 6.34 0 6 C0 4.02 0 2.04 0 0 Z " fill="#C2C2C2" transform="translate(122,225)"/>
<path d="M0 0 C4.51478398 0.53115106 7.34666857 2.36620292 11 5 C10.01 5.66 9.02 6.32 8 7 C7.4225 6.525625 6.845 6.05125 6.25 5.5625 C4.07417916 4.0515133 2.57397552 3.45963849 0 3 C0 2.01 0 1.02 0 0 Z " fill="#B7466C" transform="translate(138,85)"/>
<path d="M0 0 C0.33 0 0.66 0 1 0 C1 2.31 1 4.62 1 7 C-0.32 7.33 -1.64 7.66 -3 8 C-3.33 6.35 -3.66 4.7 -4 3 C-2.68 2.67 -1.36 2.34 0 2 C0 1.34 0 0.68 0 0 Z " fill="#BCBCBC" transform="translate(160,249)"/>
<path d="M0 0 C1.65 0 3.3 0 5 0 C5 1.98 5 3.96 5 6 C3.35 5.67 1.7 5.34 0 5 C0 3.35 0 1.7 0 0 Z " fill="#C9C9C9" transform="translate(223,163)"/>
<path d="M0 0 C1.98 0.495 1.98 0.495 4 1 C4 2.65 4 4.3 4 6 C2.35 5.67 0.7 5.34 -1 5 C-0.67 3.35 -0.34 1.7 0 0 Z " fill="#BEBEBE" transform="translate(160,238)"/>
<path d="M0 0 C2 1 2 1 4 3 C4.625 5.125 4.625 5.125 5 7 C3.68 6.34 2.36 5.68 1 5 C1 5.99 1 6.98 1 8 C0.34 8 -0.32 8 -1 8 C-1.04241723 5.66705225 -1.04092937 3.33297433 -1 1 C-0.67 0.67 -0.34 0.34 0 0 Z " fill="#CECECE" transform="translate(94,186)"/>
<path d="M0 0 C0.33 0.66 0.66 1.32 1 2 C3.02463255 2.65213292 3.02463255 2.65213292 5 3 C5 4.32 5 5.64 5 7 C4.01 7.33 3.02 7.66 2 8 C1.34 7.67 0.68 7.34 0 7 C0 4.69 0 2.38 0 0 Z " fill="#B8B8B8" transform="translate(73,174)"/>
<path d="M0 0 C1.98 0.495 1.98 0.495 4 1 C4 2.65 4 4.3 4 6 C2.35 5.67 0.7 5.34 -1 5 C-0.67 3.35 -0.34 1.7 0 0 Z " fill="#BFBFBF" transform="translate(148,163)"/>
<path d="M0 0 C2.0625 0.4375 2.0625 0.4375 4 1 C4 2.65 4 4.3 4 6 C2.0625 6.5625 2.0625 6.5625 0 7 C-1 6 -1 6 -1.125 3.5 C-1 1 -1 1 0 0 Z " fill="#646363" transform="translate(78,145)"/>
<path d="M0 0 C1.98 0.495 1.98 0.495 4 1 C4 2.65 4 4.3 4 6 C2.35 5.67 0.7 5.34 -1 5 C-0.67 3.35 -0.34 1.7 0 0 Z " fill="#CACACA" transform="translate(153,507)"/>
<path d="M0 0 C1.98 0.495 1.98 0.495 4 1 C3.67 2.65 3.34 4.3 3 6 C1.68 5.67 0.36 5.34 -1 5 C-0.67 3.35 -0.34 1.7 0 0 Z " fill="#CECECE" transform="translate(130,507)"/>
<path d="M0 0 C1.98 0.495 1.98 0.495 4 1 C4 2.65 4 4.3 4 6 C2.35 5.67 0.7 5.34 -1 5 C-0.67 3.35 -0.34 1.7 0 0 Z " fill="#F4B6A5" transform="translate(113,468)"/>
<path d="M0 0 C0.33 0 0.66 0 1 0 C1 2.31 1 4.62 1 7 C0.01 7.33 -0.98 7.66 -2 8 C-2.66 7.34 -3.32 6.68 -4 6 C-3.625 3.875 -3.625 3.875 -3 2 C-2.01 2 -1.02 2 0 2 C0 1.34 0 0.68 0 0 Z " fill="#B9B9B9" transform="translate(103,249)"/>
<path d="M0 0 C1.98 0.495 1.98 0.495 4 1 C3.67 2.65 3.34 4.3 3 6 C1.68 5.67 0.36 5.34 -1 5 C-0.67 3.35 -0.34 1.7 0 0 Z " fill="#C2C2C2" transform="translate(178,238)"/>
<path d="M0 0 C0.66 0 1.32 0 2 0 C2 2.64 2 5.28 2 8 C1.34 8 0.68 8 0 8 C0 6.68 0 5.36 0 4 C-0.66 4 -1.32 4 -2 4 C-2.33 5.32 -2.66 6.64 -3 8 C-3 6.02 -3 4.04 -3 2 C-2.01 2 -1.02 2 0 2 C0 1.34 0 0.68 0 0 Z " fill="#C3C3C3" transform="translate(65,186)"/>
<path d="M0 0 C1.98 0.495 1.98 0.495 4 1 C3.67 2.65 3.34 4.3 3 6 C1.68 5.67 0.36 5.34 -1 5 C-0.67 3.35 -0.34 1.7 0 0 Z " fill="#C4C4C4" transform="translate(189,188)"/>
<path d="M0 0 C1.98 0.495 1.98 0.495 4 1 C3.67 2.65 3.34 4.3 3 6 C1.68 5.67 0.36 5.34 -1 5 C-0.67 3.35 -0.34 1.7 0 0 Z " fill="#C3C3C3" transform="translate(211,188)"/>
<path d="M0 0 C1.98 0.495 1.98 0.495 4 1 C3.67 2.65 3.34 4.3 3 6 C1.68 5.67 0.36 5.34 -1 5 C-0.67 3.35 -0.34 1.7 0 0 Z " fill="#C3C3C3" transform="translate(162,188)"/>
<path d="M0 0 C1.98 0.495 1.98 0.495 4 1 C3.67 2.65 3.34 4.3 3 6 C1.68 5.67 0.36 5.34 -1 5 C-0.67 3.35 -0.34 1.7 0 0 Z " fill="#C1C1C1" transform="translate(136,188)"/>
<path d="M0 0 C1.32 0.66 2.64 1.32 4 2 C3.67 3.32 3.34 4.64 3 6 C1.68 6 0.36 6 -1 6 C-1.625 4.125 -1.625 4.125 -2 2 C-1.34 1.34 -0.68 0.68 0 0 Z " fill="#C6C6C6" transform="translate(42,163)"/>
<path d="M0 0 C1.98 0.495 1.98 0.495 4 1 C3.67 2.65 3.34 4.3 3 6 C1.68 5.67 0.36 5.34 -1 5 C-0.67 3.35 -0.34 1.7 0 0 Z " fill="#C4C4C4" transform="translate(64,163)"/>
<path d="M0 0 C7.50769231 0.61538462 7.50769231 0.61538462 10 2.5625 C10.33 3.036875 10.66 3.51125 11 4 C8 5 8 5 5.95703125 4.22265625 C5.24933594 3.83980469 4.54164063 3.45695312 3.8125 3.0625 C3.09707031 2.68222656 2.38164062 2.30195312 1.64453125 1.91015625 C1.10183594 1.60980469 0.55914062 1.30945313 0 1 C0 0.67 0 0.34 0 0 Z " fill="#B54670" transform="translate(138,75)"/>
<path d="M0 0 C2.31 0 4.62 0 7 0 C6.01 0.495 6.01 0.495 5 1 C5 2.65 5 4.3 5 6 C3.35 5.67 1.7 5.34 0 5 C0 3.35 0 1.7 0 0 Z " fill="#E58070" transform="translate(131,468)"/>
<path d="M0 0 C0.99 0 1.98 0 3 0 C3.33 1.65 3.66 3.3 4 5 C2.68 5.33 1.36 5.66 0 6 C-0.38218767 4.34385343 -0.71395102 2.67542976 -1 1 C-0.67 0.67 -0.34 0.34 0 0 Z " fill="#BDBDBD" transform="translate(192,238)"/>
<path d="M0 0 C1.32 0 2.64 0 4 0 C4 1.65 4 3.3 4 5 C2.68 5 1.36 5 0 5 C-0.5625 3.0625 -0.5625 3.0625 -1 1 C-0.67 0.67 -0.34 0.34 0 0 Z " fill="#C3C3C3" transform="translate(111,201)"/>
<path d="M0 0 C0.33 0 0.66 0 1 0 C1 2.31 1 4.62 1 7 C-0.65 6.67 -2.3 6.34 -4 6 C-3.67 4.68 -3.34 3.36 -3 2 C-2.01 2 -1.02 2 0 2 C0 1.34 0 0.68 0 0 Z " fill="#BABABA" transform="translate(120,199)"/>
<path d="M0 0 C2.475 0.495 2.475 0.495 5 1 C4.67 2.32 4.34 3.64 4 5 C3.01 5 2.02 5 1 5 C0.67 5.66 0.34 6.32 0 7 C0 4.69 0 2.38 0 0 Z " fill="#B4B4B4" transform="translate(83,199)"/>
<path d="M0 0 C1.98 0.495 1.98 0.495 4 1 C3.67 2.65 3.34 4.3 3 6 C1.68 5.67 0.36 5.34 -1 5 C-0.67 3.35 -0.34 1.7 0 0 Z " fill="#C3C3C3" transform="translate(81,188)"/>
<path d="M0 0 C0.99 0 1.98 0 3 0 C3.33 1.65 3.66 3.3 4 5 C2.68 5.33 1.36 5.66 0 6 C-0.38218767 4.34385343 -0.71395102 2.67542976 -1 1 C-0.67 0.67 -0.34 0.34 0 0 Z " fill="#BDBDBD" transform="translate(212,163)"/>
<path d="M0 0 C0.66 0.33 1.32 0.66 2 1 C0.8125 3.4375 0.8125 3.4375 -1 6 C-3.6875 6.8125 -3.6875 6.8125 -6 7 C-4.19587357 3.73539027 -3.16605307 2.11070205 0 0 Z " fill="#FEE8E0" transform="translate(126,89)"/>
<path d="M0 0 C0.99 0.33 1.98 0.66 3 1 C2.67 2.65 2.34 4.3 2 6 C0.68 5.67 -0.64 5.34 -2 5 C-1.125 1.125 -1.125 1.125 0 0 Z " fill="#C4C4C4" transform="translate(104,238)"/>
<path d="M0 0 C1.32 0.66 2.64 1.32 4 2 C3.67 3.32 3.34 4.64 3 6 C1.68 5.67 0.36 5.34 -1 5 C-0.67 3.35 -0.34 1.7 0 0 Z " fill="#C4C4C4" transform="translate(137,238)"/>
<path d="M0 0 C1.32 0.66 2.64 1.32 4 2 C3.67 3.32 3.34 4.64 3 6 C1.68 5.67 0.36 5.34 -1 5 C-0.67 3.35 -0.34 1.7 0 0 Z " fill="#C3C3C3" transform="translate(89,238)"/>
<path d="M0 0 C2.475 0.495 2.475 0.495 5 1 C4.625 2.9375 4.625 2.9375 4 5 C3.01 5.495 3.01 5.495 2 6 C1.34 5.67 0.68 5.34 0 5 C0 3.35 0 1.7 0 0 Z " fill="#C3C3C3" transform="translate(50,226)"/>
<path d="M0 0 C0.99 0.33 1.98 0.66 3 1 C3 2.65 3 4.3 3 6 C1.68 6 0.36 6 -1 6 C-1.625 4.125 -1.625 4.125 -2 2 C-1.34 1.34 -0.68 0.68 0 0 Z " fill="#BBBBBB" transform="translate(48,188)"/>
<path d="M0 0 C0.33 0 0.66 0 1 0 C1 2.31 1 4.62 1 7 C-0.32 7.33 -1.64 7.66 -3 8 C-3.33 6.02 -3.66 4.04 -4 2 C-3.01 2 -2.02 2 -1 2 C-0.67 1.34 -0.34 0.68 0 0 Z " fill="#BABABA" transform="translate(173,174)"/>
<path d="M0 0 C-1.485 1.485 -1.485 1.485 -3 3 C-3.66 2.67 -4.32 2.34 -5 2 C-6.70363822 1.77377919 -8.41328701 1.59111527 -10.125 1.4375 C-11.03507813 1.35371094 -11.94515625 1.26992187 -12.8828125 1.18359375 C-13.58148438 1.12300781 -14.28015625 1.06242187 -15 1 C-15 0.67 -15 0.34 -15 0 C-9.62374766 -0.84888195 -5.34629602 -1.0024305 0 0 Z " fill="#F5DADA" transform="translate(146,84)"/>
<path d="M0 0 C1.65 0.33 3.3 0.66 5 1 C5 1.99 5 2.98 5 4 C3.02 4.33 1.04 4.66 -1 5 C-0.67 3.35 -0.34 1.7 0 0 Z " fill="#D8828A" transform="translate(162,468)"/>
<path d="M0 0 C0.66 0 1.32 0 2 0 C2 1.32 2 2.64 2 4 C3.32 3.67 4.64 3.34 6 3 C6 3.99 6 4.98 6 6 C4.68 5.67 3.36 5.34 2 5 C2 5.66 2 6.32 2 7 C1.34 7 0.68 7 0 7 C-0.38133299 5.0085944 -0.71325582 3.00720923 -1 1 C-0.67 0.67 -0.34 0.34 0 0 Z " fill="#DBDBDB" transform="translate(105,249)"/>
<path d="M0 0 C2.0625 0.4375 2.0625 0.4375 4 1 C4 2.65 4 4.3 4 6 C2.35 5.67 0.7 5.34 -1 5 C-1 4.34 -1 3.68 -1 3 C-0.01 3 0.98 3 2 3 C1.01 2.34 0.02 1.68 -1 1 C-0.67 0.67 -0.34 0.34 0 0 Z " fill="#B6B6B6" transform="translate(77,238)"/>
<path d="M0 0 C2.0625 0.4375 2.0625 0.4375 4 1 C4 2.65 4 4.3 4 6 C2.35 5.67 0.7 5.34 -1 5 C-1 4.34 -1 3.68 -1 3 C-0.01 3 0.98 3 2 3 C1.01 2.34 0.02 1.68 -1 1 C-0.67 0.67 -0.34 0.34 0 0 Z " fill="#B6B6B6" transform="translate(33,238)"/>
<path d="M0 0 C1.98 0.495 1.98 0.495 4 1 C3.625 2.9375 3.625 2.9375 3 5 C2.01 5.495 2.01 5.495 1 6 C0.34 5.67 -0.32 5.34 -1 5 C-0.67 3.35 -0.34 1.7 0 0 Z " fill="#C2C2C2" transform="translate(45,226)"/>
<path d="M0 0 C2.0625 0.4375 2.0625 0.4375 4 1 C4 2.65 4 4.3 4 6 C2.35 5.67 0.7 5.34 -1 5 C-1 4.34 -1 3.68 -1 3 C-0.01 3 0.98 3 2 3 C1.01 2.34 0.02 1.68 -1 1 C-0.67 0.67 -0.34 0.34 0 0 Z " fill="#B6B6B6" transform="translate(223,188)"/>
<path d="M0 0 C0.99 0 1.98 0 3 0 C4 2 4 2 4 5 C2.35 5.33 0.7 5.66 -1 6 C-0.67 4.02 -0.34 2.04 0 0 Z " fill="#C1C1C1" transform="translate(122,163)"/>
<path d="M0 0 C0.99 0 1.98 0 3 0 C3.33 1.65 3.66 3.3 4 5 C1 6 1 6 -2 5 C-1.34 3.35 -0.68 1.7 0 0 Z " fill="#4D4D4D" transform="translate(45,24)"/>
<path d="M0 0 C1.32 0 2.64 0 4 0 C4 1.65 4 3.3 4 5 C2.68 5 1.36 5 0 5 C-0.5625 3.0625 -0.5625 3.0625 -1 1 C-0.67 0.67 -0.34 0.34 0 0 Z " fill="#B3B3B3" transform="translate(123,201)"/>
<path d="M0 0 C1.32 0 2.64 0 4 0 C4 1.65 4 3.3 4 5 C2.68 5 1.36 5 0 5 C-0.5625 3.0625 -0.5625 3.0625 -1 1 C-0.67 0.67 -0.34 0.34 0 0 Z " fill="#B2B2B2" transform="translate(192,201)"/>
<path d="M0 0 C0.66 0 1.32 0 2 0 C2 2.97 2 5.94 2 9 C1.34 9 0.68 9 0 9 C0 7.35 0 5.7 0 4 C-0.66 3.67 -1.32 3.34 -2 3 C-1.34 2.01 -0.68 1.02 0 0 Z " fill="#616060" transform="translate(175,143)"/>
<path d="M0 0 C0.66 0 1.32 0 2 0 C4 6.625 4 6.625 4 10 C2 8.375 2 8.375 0 6 C-0.25 2.75 -0.25 2.75 0 0 Z " fill="#D75042" transform="translate(134,100)"/>
<path d="M0 0 C2.0625 0.4375 2.0625 0.4375 4 1 C4 2.32 4 3.64 4 5 C2.68 5.33 1.36 5.66 0 6 C-0.38218767 4.34385343 -0.71395102 2.67542976 -1 1 C-0.67 0.67 -0.34 0.34 0 0 Z " fill="#B2B2B2" transform="translate(160,226)"/>
<path d="M0 0 C0.99 0.33 1.98 0.66 3 1 C3 3.31 3 5.62 3 8 C2.01 8 1.02 8 0 8 C-0.38063221 5.6739143 -0.71269945 3.33944736 -1 1 C-0.67 0.67 -0.34 0.34 0 0 Z " fill="#6A6969" transform="translate(186,144)"/>
<path d="M0 0 C1.98 0.495 1.98 0.495 4 1 C4 2.32 4 3.64 4 5 C3.01 5.33 2.02 5.66 1 6 C0.34 5.67 -0.32 5.34 -1 5 C-0.67 3.35 -0.34 1.7 0 0 Z " fill="#AFAFAF" transform="translate(117,226)"/>
<path d="M0 0 C0.66 0 1.32 0 2 0 C2 2.97 2 5.94 2 9 C1.34 9 0.68 9 0 9 C-0.84454356 5.62182575 -1.10844919 3.32534757 0 0 Z " fill="#807E7E" transform="translate(73,143)"/>
<path d="M0 0 C0.66 0 1.32 0 2 0 C6 5.41176471 6 5.41176471 6 8 C2.83884224 6.63016497 2.0072908 6.0109362 0 3 C0 2.01 0 1.02 0 0 Z " fill="#EF5C27" transform="translate(125,109)"/>
<path d="M0 0 C0.99 0.495 0.99 0.495 2 1 C2.99 0.67 3.98 0.34 5 0 C5 1.65 5 3.3 5 5 C3.68 5.33 2.36 5.66 1 6 C0.67 4.02 0.34 2.04 0 0 Z " fill="#3A3A3A" transform="translate(34,24)"/>
<path d="M0 0 C0.99 0.33 1.98 0.66 3 1 C2.67 2.65 2.34 4.3 2 6 C1.01 6 0.02 6 -1 6 C-1.042721 4.33388095 -1.04063832 2.66617115 -1 1 C-0.67 0.67 -0.34 0.34 0 0 Z " fill="#BABABA" transform="translate(187,238)"/>
<path d="M0 0 C1.32 0 2.64 0 4 0 C4.33 1.32 4.66 2.64 5 4 C3.35 4.33 1.7 4.66 0 5 C0 3.35 0 1.7 0 0 Z " fill="#BCBCBC" transform="translate(79,226)"/>
<path d="M0 0 C0.99 0.33 1.98 0.66 3 1 C3 2.98 3 4.96 3 7 C2.01 7 1.02 7 0 7 C0 4.69 0 2.38 0 0 Z " fill="#D1D1D1" transform="translate(64,199)"/>
<path d="M0 0 C1.32 0 2.64 0 4 0 C5 3 5 3 4.0625 5.1875 C3.5365625 6.0846875 3.5365625 6.0846875 3 7 C2.67 5.68 2.34 4.36 2 3 C1.34 4.32 0.68 5.64 0 7 C0 4.69 0 2.38 0 0 Z " fill="#ABABAB" transform="translate(74,199)"/>
<path d="M0 0 C0.66 0 1.32 0 2 0 C2 2.64 2 5.28 2 8 C1.01 7.67 0.02 7.34 -1 7 C-0.67 4.69 -0.34 2.38 0 0 Z " fill="#D6D6D6" transform="translate(158,186)"/>
<path d="M0 0 C0.99 0.33 1.98 0.66 3 1 C2.67 2.98 2.34 4.96 2 7 C1.67 5.68 1.34 4.36 1 3 C0.01 3 -0.98 3 -2 3 C-2.33 4.32 -2.66 5.64 -3 7 C-3.1875 4.625 -3.1875 4.625 -3 2 C-2.01 1.34 -1.02 0.68 0 0 Z " fill="#B8B8B8" transform="translate(108,174)"/>
<path d="M0 0 C0.99 0.33 1.98 0.66 3 1 C3 1.66 3 2.32 3 3 C2.01 3 1.02 3 0 3 C0 3.66 0 4.32 0 5 C0.99 4.67 1.98 4.34 3 4 C3 4.66 3 5.32 3 6 C1.68 6 0.36 6 -1 6 C-1.625 4.125 -1.625 4.125 -2 2 C-1.34 1.34 -0.68 0.68 0 0 Z " fill="#B1B1B1" transform="translate(94,163)"/>
<path d="M0 0 C1.32 0.33 2.64 0.66 4 1 C3.67 2.65 3.34 4.3 3 6 C2.01 6 1.02 6 0 6 C0 4.02 0 2.04 0 0 Z " fill="#BABABA" transform="translate(206,163)"/>
<path d="M0 0 C1.98 0.99 1.98 0.99 4 2 C3 5 3 5 0 7 C0 4.69 0 2.38 0 0 Z " fill="#BEBEBE" transform="translate(153,162)"/>
<path d="M0 0 C0.99 0.33 1.98 0.66 3 1 C3 3.31 3 5.62 3 8 C2.01 7.67 1.02 7.34 0 7 C0 4.69 0 2.38 0 0 Z " fill="#5D5C5C" transform="translate(91,144)"/>
<path d="M0 0 C3 2 3 2 3.6875 4.125 C3.8421875 5.053125 3.8421875 5.053125 4 6 C2.68 6 1.36 6 0 6 C0 4.02 0 2.04 0 0 Z " fill="#CBCBCB" transform="translate(147,225)"/>
<path d="M0 0 C0.66 0 1.32 0 2 0 C2.33 2.31 2.66 4.62 3 7 C2.01 7.33 1.02 7.66 0 8 C0 5.36 0 2.72 0 0 Z " fill="#CBCBCB" transform="translate(107,186)"/>
<path d="M0 0 C0.99 0.33 1.98 0.66 3 1 C3.6875 3.0625 3.6875 3.0625 4 5 C2.68 5.33 1.36 5.66 0 6 C-0.38218767 4.34385343 -0.71395102 2.67542976 -1 1 C-0.67 0.67 -0.34 0.34 0 0 Z " fill="#B3B3B3" transform="translate(193,176)"/>
<path d="M0 0 C1.98 0.495 1.98 0.495 4 1 C4 1.99 4 2.98 4 4 C2.35 4.66 0.7 5.32 -1 6 C-0.67 4.02 -0.34 2.04 0 0 Z " fill="#747373" transform="translate(99,146)"/>
<path d="M0 0 C1.32 0 2.64 0 4 0 C4 1.65 4 3.3 4 5 C2.68 4.34 1.36 3.68 0 3 C0 2.01 0 1.02 0 0 Z " fill="#D4D4D4" transform="translate(134,202)"/>
<path d="M0 0 C1.32 0 2.64 0 4 0 C4 1.65 4 3.3 4 5 C3.01 5.33 2.02 5.66 1 6 C0 1.125 0 1.125 0 0 Z " fill="#ABABAB" transform="translate(89,201)"/>
<path d="M0 0 C2.475 0.495 2.475 0.495 5 1 C4.67 2.32 4.34 3.64 4 5 C3.01 5 2.02 5 1 5 C0.67 3.35 0.34 1.7 0 0 Z " fill="#AFAEAE" transform="translate(198,145)"/>
<path d="M0 0 C0.226875 0.639375 0.45375 1.27875 0.6875 1.9375 C1.85250896 4.27193661 1.85250896 4.27193661 4.625 4.75 C5.40875 4.8325 6.1925 4.915 7 5 C6.01 5.99 5.02 6.98 4 8 C2.68 7.34 1.36 6.68 0 6 C0 4.02 0 2.04 0 0 Z " fill="#C05D7D" transform="translate(141,100)"/>
<path d="M0 0 C0.66 0.66 1.32 1.32 2 2 C0.71034824 3.37562854 -0.62689293 4.70766393 -2 6 C-2.66 6 -3.32 6 -4 6 C-2.25 1.125 -2.25 1.125 0 0 Z " fill="#FD6923" transform="translate(119,85)"/>
</svg>
