<?xml version="1.0" encoding="UTF-8"?>
<svg version="1.1" xmlns="http://www.w3.org/2000/svg" width="269" height="551">
<path d="M0 0 C88.77 0 177.54 0 269 0 C269 181.83 269 363.66 269 551 C180.23 551 91.46 551 0 551 C0 369.17 0 187.34 0 0 Z " fill="#FCFBFA" transform="translate(0,0)"/>
<path d="M0 0 C88.77 0 177.54 0 269 0 C269 181.83 269 363.66 269 551 C180.23 551 91.46 551 0 551 C0 369.17 0 187.34 0 0 Z M14.625 18.5625 C14.14289062 19.14128906 13.66078125 19.72007813 13.1640625 20.31640625 C10.75564987 23.79971445 10.87555196 26.98948669 10.87695217 31.08510113 C10.87496112 32.36599705 10.87297007 33.64689298 10.87091869 34.96660393 C10.87377193 36.39624912 10.87671754 37.82589412 10.87974548 39.25553894 C10.87930967 40.76780522 10.87843457 42.28007143 10.87715632 43.79233724 C10.87491339 47.9585448 10.8789299 52.1247268 10.88393438 56.29093111 C10.88824157 60.77967287 10.88679226 65.26841312 10.8860321 69.75715637 C10.88550704 77.53774038 10.88865201 85.31831603 10.89426994 93.09889793 C10.90238731 104.34839731 10.90500041 115.59789263 10.90625793 126.84739462 C10.90844808 145.09772827 10.91510715 163.34805745 10.92456055 181.59838867 C10.93373563 199.32983376 10.94081599 217.06127763 10.94506836 234.79272461 C10.94533108 235.88517682 10.94559381 236.97762903 10.94586449 238.10318585 C10.9471695 243.58354402 10.94843322 249.0639022 10.94967639 254.54426038 C10.96004784 300.02951017 10.97793982 345.51475451 11 391 C21.89 391 32.78 391 44 391 C44 390.34 44 389.68 44 389 C43.01 389 42.02 389 41 389 C41.03830208 374.1196432 41.03830208 374.1196432 44.9375 369.8125 C45.46214844 369.34457031 45.98679688 368.87664062 46.52734375 368.39453125 C48.24556557 366.76746178 48.98587889 365.1196437 50 363 C52.86693223 360.79466752 56.05839097 360.46878264 59.6328125 360.54296875 C64.52726897 361.48793807 68.98859158 364.10248003 73 367 C74 370 74 370 74 373 C74.66 373 75.32 373 76 373 C76.2165625 374.175625 76.2165625 374.175625 76.4375 375.375 C76.87798925 377.96421018 76.87798925 377.96421018 78 380 C78.495 385.445 78.495 385.445 79 391 C138.07 391 197.14 391 258 391 C258.11651479 326.12012756 258.11651479 326.12012756 258.1953125 261.24023438 C258.20314416 252.49763967 258.21122614 243.75504525 258.21972656 235.01245117 C258.22130906 233.36880523 258.22130906 233.36880523 258.22292352 231.69195431 C258.24032771 213.99437206 258.27186681 196.29684171 258.30861118 178.59929024 C258.34599796 160.44109042 258.36823106 142.28291779 258.37635398 124.12468106 C258.38184644 112.91721808 258.39920307 101.70990175 258.43166587 90.50248391 C258.4527858 82.82042828 258.45920576 75.13844862 258.45400551 67.45636605 C258.45143981 63.02208975 258.45541331 58.58806998 258.4768219 54.15383911 C258.49627936 50.09412528 258.49727539 46.03484062 258.48359558 41.97510708 C258.48190472 40.50661215 258.48698596 39.0380905 258.49953273 37.5696482 C258.57002351 28.81011887 258.46150669 22.98638983 252.47265625 16.29296875 C247.5221796 12.41212418 243.67285568 10.74403285 237.38354492 10.77294922 C236.28278122 10.77310028 235.18201752 10.77325134 234.04789734 10.77340698 C232.8706459 10.78372955 231.69339447 10.79405212 230.48046875 10.8046875 C228.65990715 10.80893234 228.65990715 10.80893234 226.80256653 10.81326294 C222.93077689 10.82444692 219.05921959 10.8495487 215.1875 10.875 C212.56055022 10.88503208 209.93359681 10.89415754 207.30664062 10.90234375 C200.87101464 10.92438046 194.43552392 10.95784059 188 11 C187.62875 12.60875 187.62875 12.60875 187.25 14.25 C185.92272758 18.23181725 185.34721594 19.57646444 182 22 C179.00125442 22.59697014 176.04588798 22.5566762 172.99633789 22.53344727 C172.08694962 22.54206284 171.17756134 22.55067841 170.24061584 22.55955505 C167.23433982 22.58225887 164.22899268 22.57546774 161.22265625 22.56640625 C159.13284528 22.5716401 157.04303668 22.5779157 154.95323181 22.58518982 C150.57263069 22.59560237 146.19235423 22.59102051 141.81176758 22.57641602 C136.19801316 22.5592324 130.58528263 22.58271423 124.97164249 22.61790562 C120.65560625 22.63986721 116.33981542 22.638441 112.02374077 22.6301403 C109.95408442 22.62932001 107.8844102 22.63619836 105.81480598 22.65091133 C102.92024975 22.66833283 100.02753865 22.65383425 97.13305664 22.63110352 C96.27834778 22.64279572 95.42363892 22.65448792 94.54302979 22.66653442 C90.34566925 22.59947422 88.48990562 22.35248067 84.99168396 19.83555603 C82.83275982 16.76190053 82.25913118 14.71421363 82 11 C74.68913259 10.90703912 67.37839405 10.83610376 60.06705379 10.79275131 C56.67152362 10.77193689 53.27639985 10.74373412 49.88110352 10.69824219 C45.97156757 10.64619211 42.06219227 10.62700382 38.15234375 10.609375 C36.94166733 10.58872986 35.73099091 10.56808472 34.48362732 10.54681396 C25.98769634 10.54456366 20.2176024 11.65671747 14.625 18.5625 Z " fill="#FBF9F8" transform="translate(0,0)"/>
<path d="M0 0 C0.90291165 -0.00467997 1.8058233 -0.00935994 2.73609591 -0.01418173 C5.77404065 -0.02618702 8.81153889 -0.01665289 11.8494873 -0.00723267 C14.02237716 -0.01129591 16.19526495 -0.01663639 18.3681488 -0.02316284 C24.27919236 -0.03687166 30.19007932 -0.03152306 36.10112572 -0.02202559 C42.277708 -0.01444744 48.45427658 -0.02146945 54.63085938 -0.02618408 C65.00470393 -0.03164702 75.37848449 -0.02443589 85.75231934 -0.01016235 C97.75784885 0.00616516 109.76320021 0.00087704 121.76872873 -0.01564157 C132.06345636 -0.02924109 142.3581379 -0.03118361 152.65287161 -0.02332556 C158.80714518 -0.01864061 164.96134685 -0.01804676 171.11561584 -0.02793503 C176.90056602 -0.03658009 182.68531853 -0.03062782 188.47024727 -0.01325226 C190.59756199 -0.00927424 192.72489325 -0.01044379 194.85220146 -0.01704025 C197.74796754 -0.02519394 200.64309347 -0.01500912 203.53881836 0 C204.38793305 -0.00669217 205.23704774 -0.01338433 206.11189318 -0.02027929 C211.8383251 0.03760438 211.8383251 0.03760438 213.98390204 1.74649709 C215.86625855 4.13981309 215.64987908 5.97384514 215.65708923 8.99177551 C215.66699387 10.15968628 215.6768985 11.32759705 215.68710327 12.53089905 C215.68260162 13.8135817 215.67809998 15.09626434 215.67346191 16.41781616 C215.67916366 17.78121501 215.68612716 19.14460909 215.69425964 20.50799561 C215.71222857 24.21258246 215.71101569 27.91693294 215.70531726 31.62155032 C215.70223061 34.71308958 215.70831204 37.80458308 215.71435601 40.89611584 C215.72841203 48.18903239 215.72683119 55.48183182 215.7154541 62.77474976 C215.70397284 70.30079248 215.71804599 77.82647887 215.74485058 85.35247463 C215.76699628 91.81201771 215.7736475 98.27144884 215.76777416 104.73102719 C215.7644005 108.58993596 215.76684643 112.44861632 215.78402519 116.30749321 C215.7994744 119.93637852 215.79556203 123.56473543 215.77672005 127.1935997 C215.77126726 129.16089951 215.78556383 131.12822293 215.80041504 133.09547424 C215.78566383 134.85157013 215.78566383 134.85157013 215.77061462 136.6431427 C215.77040534 137.66059287 215.77019606 138.67804304 215.76998043 139.72632504 C215.26940918 142.38095093 215.26940918 142.38095093 213.78609562 144.70781803 C210.15282171 147.12327591 206.71856094 146.9338051 202.5012207 146.8888855 C201.6063273 146.89512546 200.7114339 146.90136542 199.78942251 146.90779448 C196.78443819 146.92377625 193.7802592 146.91109988 190.77526855 146.89852905 C188.62355576 146.90394786 186.47184668 146.91106915 184.32014465 146.91976929 C178.47103373 146.93803416 172.62220442 146.93092194 166.77308846 146.91825294 C160.65836948 146.90814172 154.54367498 146.9175134 148.42895508 146.92379761 C138.15942038 146.93107948 127.89000065 146.9214721 117.6204834 146.9024353 C105.73931905 146.88066562 93.85842925 146.8877166 81.97727156 146.90974092 C71.78525676 146.92787949 61.59332472 146.93046078 51.401299 146.91998625 C45.31014536 146.91374285 39.21912086 146.91293898 33.12797546 146.9261322 C27.40204676 146.93766756 21.67647279 146.92970709 15.9505825 146.90655518 C13.84626543 146.90125573 11.74191863 146.90280286 9.6376133 146.91160583 C6.77053524 146.92249599 3.90460224 146.90887671 1.03759766 146.8888855 C0.19985982 146.89780838 -0.63787801 146.90673127 -1.50100183 146.91592455 C-5.00762734 146.86831988 -7.29309502 146.67180505 -10.24727726 144.70781803 C-12.09655973 141.8068572 -12.23109033 140.07508636 -12.23179626 136.6431427 C-12.2416304 135.47241211 -12.25146454 134.30168152 -12.26159668 133.09547424 C-12.25192871 131.81481583 -12.24226074 130.53415741 -12.2322998 129.21469116 C-12.23608366 127.84952233 -12.24158425 126.48435733 -12.24867249 125.11920166 C-12.26263474 121.41464652 -12.25145292 117.7105554 -12.23496127 114.00602603 C-12.22111363 110.1303513 -12.22757041 106.25470359 -12.23109436 102.37901306 C-12.2337964 95.87152626 -12.22032046 89.36422392 -12.19714355 82.85678101 C-12.17052258 75.3301715 -12.16879022 67.80387019 -12.18053192 60.27722973 C-12.19130498 53.03915549 -12.1851271 45.80119289 -12.17097664 38.56312752 C-12.16521383 35.48142932 -12.16530178 32.39981274 -12.17004204 29.31811333 C-12.17480884 25.69090839 -12.16472296 22.06404167 -12.14308739 18.43690109 C-12.13485447 16.4682502 -12.1413758 14.49955503 -12.14828491 12.53089905 C-12.13342796 10.7790329 -12.13342796 10.7790329 -12.11827087 8.99177551 C-12.11584098 7.97470237 -12.11341108 6.95762922 -12.11090755 5.90973568 C-11.10591072 -0.7726436 -5.56883629 -0.04388992 0 0 Z " fill="#F7F1ED" transform="translate(32.7305908203125,191.61904907226563)"/>
<path d="M0 0 C88.77 0 177.54 0 269 0 C269 181.83 269 363.66 269 551 C264.05 551 259.1 551 254 551 C254.81139938 550.29479218 255.62279877 549.58958435 256.45878601 548.86300659 C260.62366112 543.80656943 259.70023219 537.41599101 259.65942383 531.19189453 C259.66788255 529.78214604 259.67852919 528.37240925 259.69119263 526.96269226 C259.71929615 523.14688999 259.71687518 519.33165067 259.70889878 515.51577616 C259.7057703 511.52385096 259.73081801 507.532104 259.75285339 503.54025269 C259.79028343 495.98619453 259.80244076 488.4323164 259.8054778 480.87817466 C259.81104749 470.66672306 259.85573913 460.45544713 259.89821911 450.24409485 C259.96408928 434.16268618 259.97775983 418.08166524 260 402 C194.165 402.495 194.165 402.495 127 403 C127 404.65 127 406.3 127 408 C126.34 407.67 125.68 407.34 125 407 C125 405.35 125 403.7 125 402 C86.72 402 48.44 402 9 402 C9.03227201 427.26965647 9.03227201 427.26965647 9.11132812 452.5390625 C9.15395947 462.84312155 9.19141399 473.14701586 9.19555664 483.45117188 C9.19859725 490.95549844 9.2191006 498.45953997 9.26052457 505.96375644 C9.28184772 509.93682101 9.29445889 513.90948041 9.28615379 517.88260269 C9.27860902 521.62404128 9.29445231 525.36465925 9.32806015 529.10594749 C9.34020542 531.13010451 9.32770923 533.15436263 9.31443787 535.17851257 C9.24219299 542.54544292 9.24219299 542.54544292 12.54121399 548.86300659 C13.35261337 549.56821442 14.16401276 550.27342224 15 551 C10.05 551 5.1 551 0 551 C0 369.17 0 187.34 0 0 Z M14.625 18.5625 C14.14289062 19.14128906 13.66078125 19.72007813 13.1640625 20.31640625 C10.75564987 23.79971445 10.87555196 26.98948669 10.87695217 31.08510113 C10.87496112 32.36599705 10.87297007 33.64689298 10.87091869 34.96660393 C10.87377193 36.39624912 10.87671754 37.82589412 10.87974548 39.25553894 C10.87930967 40.76780522 10.87843457 42.28007143 10.87715632 43.79233724 C10.87491339 47.9585448 10.8789299 52.1247268 10.88393438 56.29093111 C10.88824157 60.77967287 10.88679226 65.26841312 10.8860321 69.75715637 C10.88550704 77.53774038 10.88865201 85.31831603 10.89426994 93.09889793 C10.90238731 104.34839731 10.90500041 115.59789263 10.90625793 126.84739462 C10.90844808 145.09772827 10.91510715 163.34805745 10.92456055 181.59838867 C10.93373563 199.32983376 10.94081599 217.06127763 10.94506836 234.79272461 C10.94533108 235.88517682 10.94559381 236.97762903 10.94586449 238.10318585 C10.9471695 243.58354402 10.94843322 249.0639022 10.94967639 254.54426038 C10.96004784 300.02951017 10.97793982 345.51475451 11 391 C21.89 391 32.78 391 44 391 C44 390.34 44 389.68 44 389 C43.01 389 42.02 389 41 389 C41.03830208 374.1196432 41.03830208 374.1196432 44.9375 369.8125 C45.46214844 369.34457031 45.98679688 368.87664062 46.52734375 368.39453125 C48.24556557 366.76746178 48.98587889 365.1196437 50 363 C52.86693223 360.79466752 56.05839097 360.46878264 59.6328125 360.54296875 C64.52726897 361.48793807 68.98859158 364.10248003 73 367 C74 370 74 370 74 373 C74.66 373 75.32 373 76 373 C76.2165625 374.175625 76.2165625 374.175625 76.4375 375.375 C76.87798925 377.96421018 76.87798925 377.96421018 78 380 C78.495 385.445 78.495 385.445 79 391 C138.07 391 197.14 391 258 391 C258.11651479 326.12012756 258.11651479 326.12012756 258.1953125 261.24023438 C258.20314416 252.49763967 258.21122614 243.75504525 258.21972656 235.01245117 C258.22130906 233.36880523 258.22130906 233.36880523 258.22292352 231.69195431 C258.24032771 213.99437206 258.27186681 196.29684171 258.30861118 178.59929024 C258.34599796 160.44109042 258.36823106 142.28291779 258.37635398 124.12468106 C258.38184644 112.91721808 258.39920307 101.70990175 258.43166587 90.50248391 C258.4527858 82.82042828 258.45920576 75.13844862 258.45400551 67.45636605 C258.45143981 63.02208975 258.45541331 58.58806998 258.4768219 54.15383911 C258.49627936 50.09412528 258.49727539 46.03484062 258.48359558 41.97510708 C258.48190472 40.50661215 258.48698596 39.0380905 258.49953273 37.5696482 C258.57002351 28.81011887 258.46150669 22.98638983 252.47265625 16.29296875 C247.5221796 12.41212418 243.67285568 10.74403285 237.38354492 10.77294922 C236.28278122 10.77310028 235.18201752 10.77325134 234.04789734 10.77340698 C232.8706459 10.78372955 231.69339447 10.79405212 230.48046875 10.8046875 C228.65990715 10.80893234 228.65990715 10.80893234 226.80256653 10.81326294 C222.93077689 10.82444692 219.05921959 10.8495487 215.1875 10.875 C212.56055022 10.88503208 209.93359681 10.89415754 207.30664062 10.90234375 C200.87101464 10.92438046 194.43552392 10.95784059 188 11 C187.62875 12.60875 187.62875 12.60875 187.25 14.25 C185.92272758 18.23181725 185.34721594 19.57646444 182 22 C179.00125442 22.59697014 176.04588798 22.5566762 172.99633789 22.53344727 C172.08694962 22.54206284 171.17756134 22.55067841 170.24061584 22.55955505 C167.23433982 22.58225887 164.22899268 22.57546774 161.22265625 22.56640625 C159.13284528 22.5716401 157.04303668 22.5779157 154.95323181 22.58518982 C150.57263069 22.59560237 146.19235423 22.59102051 141.81176758 22.57641602 C136.19801316 22.5592324 130.58528263 22.58271423 124.97164249 22.61790562 C120.65560625 22.63986721 116.33981542 22.638441 112.02374077 22.6301403 C109.95408442 22.62932001 107.8844102 22.63619836 105.81480598 22.65091133 C102.92024975 22.66833283 100.02753865 22.65383425 97.13305664 22.63110352 C96.27834778 22.64279572 95.42363892 22.65448792 94.54302979 22.66653442 C90.34566925 22.59947422 88.48990562 22.35248067 84.99168396 19.83555603 C82.83275982 16.76190053 82.25913118 14.71421363 82 11 C74.68913259 10.90703912 67.37839405 10.83610376 60.06705379 10.79275131 C56.67152362 10.77193689 53.27639985 10.74373412 49.88110352 10.69824219 C45.97156757 10.64619211 42.06219227 10.62700382 38.15234375 10.609375 C36.94166733 10.58872986 35.73099091 10.56808472 34.48362732 10.54681396 C25.98769634 10.54456366 20.2176024 11.65671747 14.625 18.5625 Z " fill="#000000" transform="translate(0,0)"/>
<path d="M0 0 C0.8948934 -0.00623996 1.78978681 -0.01247993 2.71179819 -0.01890898 C5.71678251 -0.03489075 8.7209615 -0.02221438 11.72595215 -0.00964355 C13.87766494 -0.01506236 16.02937402 -0.02218366 18.18107605 -0.03088379 C24.03018697 -0.04914867 29.87901628 -0.04203644 35.72813225 -0.02936745 C41.84285122 -0.01925622 47.95754573 -0.0286279 54.07226562 -0.03491211 C64.34180033 -0.04219398 74.61122005 -0.0325866 84.8807373 -0.0135498 C96.76190165 0.00821988 108.64279146 0.00116889 120.52394915 -0.02085543 C130.71596394 -0.038994 140.90789598 -0.04157528 151.0999217 -0.03110075 C157.19107534 -0.02485736 163.28209984 -0.02405348 169.37324524 -0.0372467 C175.09917394 -0.04878206 180.82474791 -0.04082159 186.5506382 -0.01766968 C188.65495527 -0.01237023 190.75930208 -0.01391736 192.86360741 -0.02272034 C195.73068546 -0.03361049 198.59661846 -0.01999121 201.46362305 0 C202.30136088 -0.00892289 203.13909871 -0.01784577 204.00222254 -0.02703905 C207.61136259 0.02195732 209.78803331 0.18533122 212.74846649 2.33740997 C214.8727528 5.44580052 214.73343874 7.79952276 214.72790527 11.53918457 C214.7293605 12.21211548 214.73081573 12.88504639 214.73231506 13.57836914 C214.73065953 14.99715517 214.71913655 16.4159598 214.69836426 17.83459473 C214.66940119 20.00122674 214.67776101 22.16541081 214.6907959 24.33215332 C214.68455794 25.71367558 214.67616654 27.09519014 214.66540527 28.47668457 C214.65565674 29.72900879 214.6459082 30.98133301 214.63586426 32.27160645 C214.18161102 35.91002388 213.93096068 37.06386117 211.23181152 39.50793457 C208.20237379 39.9079426 205.53359967 40.04773477 202.5012207 40.01586914 C201.59830905 40.0221091 200.69539741 40.02834907 199.7651248 40.03477812 C196.72706527 40.05078577 193.68979946 40.03807348 190.6517334 40.0255127 C188.47884145 40.03093035 186.30595318 40.038051 184.1330719 40.04675293 C178.22198848 40.06503147 172.31118345 40.05789998 166.40009499 40.04523659 C160.22350928 40.03513239 154.04694793 40.04449507 147.87036133 40.05078125 C137.49649766 40.05806518 127.12274777 40.04845034 116.74890137 40.02941895 C104.74332541 40.00764884 92.73806616 40.01469967 80.73249197 40.03672457 C70.43775396 40.05485728 60.1430979 40.0574473 49.84834909 40.04696989 C43.69405569 40.04072326 37.53989012 40.03993145 31.38560486 40.05311584 C25.60059789 40.06464271 19.81594231 40.0567064 14.03097343 40.03353882 C11.90366132 40.0282348 9.77631979 40.02979422 7.64901924 40.03858948 C4.75307656 40.04946172 1.85827179 40.0358823 -1.03759766 40.01586914 C-1.88671235 40.02479203 -2.73582704 40.03371491 -3.61067247 40.04290819 C-9.26148979 39.96674907 -9.26148979 39.96674907 -11.78859711 37.67845917 C-13.19724414 34.55725666 -13.17518741 31.89312918 -13.20178223 28.47668457 C-13.20702408 27.80375366 -13.21226593 27.13082275 -13.21766663 26.4375 C-13.22407258 25.01877214 -13.22276824 23.59999107 -13.2142334 22.18127441 C-13.20571413 20.0144581 -13.23451165 17.85027244 -13.26623535 15.68371582 C-13.26784739 14.30220619 -13.26726977 12.92069191 -13.26428223 11.53918457 C-13.26613525 10.28686035 -13.26798828 9.03453613 -13.26989746 7.7442627 C-12.76818848 4.50793457 -12.76818848 4.50793457 -11.28484344 2.33740997 C-7.6803251 -0.28288472 -4.28922588 -0.04568527 0 0 Z " fill="#FBF2DD" transform="translate(33.7681884765625,100.4920654296875)"/>
<path d="M0 0 C1.3471838 -0.00935994 1.3471838 -0.00935994 2.72158343 -0.01890898 C5.74349085 -0.03491638 8.76460029 -0.0222044 11.78651428 -0.00964355 C13.94793165 -0.01506126 16.10934532 -0.02218194 18.27075195 -0.03088379 C24.15091224 -0.04916283 30.03079269 -0.04203035 35.91095805 -0.02936745 C42.05637938 -0.01926221 48.20177625 -0.02862634 54.34719849 -0.03491211 C64.66978775 -0.04219629 74.99226268 -0.03258114 85.31483459 -0.0135498 C97.25789367 0.00821456 109.20067957 0.00117368 121.14373201 -0.02085543 C131.38668152 -0.03899431 141.62954868 -0.04157495 151.87250906 -0.03110075 C157.9949765 -0.02485679 164.11731546 -0.02405492 170.2397747 -0.0372467 C175.99605817 -0.04878232 181.75198877 -0.0408211 187.50823402 -0.01766968 C189.62383818 -0.01237012 191.73947191 -0.01391754 193.85506439 -0.02272034 C196.73752053 -0.0336102 199.61883765 -0.01999145 202.5012207 0 C203.3435316 -0.00892289 204.1858425 -0.01784577 205.05367798 -0.02703905 C208.6835619 0.02197737 210.86290587 0.17708967 213.83255863 2.35462189 C215.85175872 5.28937813 215.83115657 7.33809062 215.84535217 10.88293457 C215.85308655 12.7314502 215.85308655 12.7314502 215.86097717 14.61730957 C215.84550842 15.90121582 215.83003967 17.18512207 215.81410217 18.50793457 C215.8373053 20.43379395 215.8373053 20.43379395 215.86097717 22.39855957 C215.85582092 23.63090332 215.85066467 24.86324707 215.84535217 26.13293457 C215.84084045 27.2595752 215.83632874 28.38621582 215.8316803 29.54699707 C215.17277707 33.31642082 214.39273935 34.24798167 211.31410217 36.50793457 C208.27044878 36.90064926 205.58931564 37.04828493 202.5459137 37.01586914 C201.20357359 37.02522908 201.20357359 37.02522908 199.83411551 37.03477812 C196.82913118 37.05075989 193.82495219 37.03808352 190.81996155 37.0255127 C188.66824876 37.0309315 186.51653967 37.0380528 184.36483765 37.04675293 C178.51572672 37.06501781 172.66689742 37.05790558 166.81778145 37.04523659 C160.70306247 37.03512536 154.58836797 37.04449704 148.47364807 37.05078125 C138.20411337 37.05806312 127.93469365 37.04845574 117.66517639 37.02941895 C105.78401205 37.00764926 93.90312224 37.01470025 82.02196455 37.03672457 C71.82994975 37.05486314 61.63801771 37.05744442 51.44599199 37.04696989 C45.35483835 37.0407265 39.26381385 37.03992262 33.17266846 37.05311584 C27.44673975 37.0646512 21.72116579 37.05669073 15.9952755 37.03353882 C13.89095843 37.02823937 11.78661162 37.0297865 9.68230629 37.03858948 C6.81522824 37.04947963 3.94929524 37.03586035 1.08229065 37.01586914 C0.24455282 37.02479203 -0.59318501 37.03371491 -1.45630884 37.04290819 C-5.07702527 36.99375467 -7.2414773 36.83404433 -10.2025528 34.66124725 C-12.22723663 31.72209467 -12.18783162 29.68367834 -12.18199158 26.13293457 C-12.18263611 24.90059082 -12.18328064 23.66824707 -12.1839447 22.39855957 C-12.16396423 21.11465332 -12.14398376 19.83074707 -12.12339783 18.50793457 C-12.13048767 17.22402832 -12.13757751 15.94012207 -12.1448822 14.61730957 C-12.08205088 5.376272 -12.08205088 5.376272 -10.70351315 2.35462189 C-7.54846327 -0.53313899 -4.06268045 -0.04292368 0 0 Z " fill="#EE8529" transform="translate(32.68589782714844,461.4920654296875)"/>
<path d="M0 0 C5.21440513 -0.07412765 10.42850393 -0.12859104 15.64331055 -0.16479492 C17.41745343 -0.17988641 19.19155898 -0.20036191 20.96557617 -0.22631836 C23.51490487 -0.26268641 26.06374059 -0.27972238 28.61328125 -0.29296875 C29.40712723 -0.30845261 30.20097321 -0.32393646 31.01887512 -0.33988953 C36.52752834 -0.34157508 36.52752834 -0.34157508 38.70732117 1.23431396 C40.35821014 3.48928367 40.39123694 4.81060692 40.41992188 7.59155273 C40.43583374 8.51939072 40.45174561 9.4472287 40.46813965 10.40318298 C40.46834106 11.40321854 40.46854248 12.40325409 40.46875 13.43359375 C40.48017029 14.97781761 40.48017029 14.97781761 40.49182129 16.55323792 C40.50263022 18.73118666 40.50547219 20.90918728 40.50097656 23.0871582 C40.50000463 26.4216143 40.54161058 29.75376718 40.5859375 33.08789062 C40.59114464 35.20312019 40.59383269 37.31835777 40.59375 39.43359375 C40.6183429 40.93061073 40.6183429 40.93061073 40.64343262 42.45787048 C40.57458651 49.34579663 40.57458651 49.34579663 37.68481445 52.63598633 C32.4293811 55.30599689 26.7606326 54.21535075 21 54 C21 48.72 21 43.44 21 38 C18.36 38.66 15.72 39.32 13 40 C12.34 39.01 11.68 38.02 11 37 C8.94074861 36.27617533 8.94074861 36.27617533 7 36 C7.33 34.02 7.66 32.04 8 30 C7.34 30 6.68 30 6 30 C5.67 37.59 5.34 45.18 5 53 C1.3803125 53.0928125 1.3803125 53.0928125 -2.3125 53.1875 C-3.44619019 53.22846802 -3.44619019 53.22846802 -4.6027832 53.27026367 C-9.43327635 53.3304265 -9.43327635 53.3304265 -11.70507812 52.00585938 C-13.7871094 48.7807521 -13.36537158 45.32532131 -13.29296875 41.61328125 C-13.28872391 40.79627243 -13.28447906 39.97926361 -13.28010559 39.13749695 C-13.26331691 36.52882893 -13.22566519 33.92093438 -13.1875 31.3125 C-13.17245337 29.54363095 -13.15876492 27.77474979 -13.14648438 26.00585938 C-13.11341286 21.67027504 -13.0616299 17.33526864 -13 13 C-11.95199219 12.92652344 -11.95199219 12.92652344 -10.8828125 12.8515625 C-9.97273438 12.77679688 -9.06265625 12.70203125 -8.125 12.625 C-7.22007813 12.55539063 -6.31515625 12.48578125 -5.3828125 12.4140625 C-2.82058097 12.20431868 -2.82058097 12.20431868 -1 10 C-0.53837573 7.56747339 -0.53837573 7.56747339 -0.375 4.875 C-0.30023438 3.96492187 -0.22546875 3.05484375 -0.1484375 2.1171875 C-0.09945312 1.41851562 -0.05046875 0.71984375 0 0 Z " fill="#194457" transform="translate(44,202)"/>
<path d="M0 0 C4.62 0 9.24 0 14 0 C13.67 1.32 13.34 2.64 13 4 C9.9375 5.25 9.9375 5.25 7 6 C7 6.99 7 7.98 7 9 C10.3 9 13.6 9 17 9 C17.33 10.65 17.66 12.3 18 14 C16.35 14 14.7 14 13 14 C13 15.32 13 16.64 13 18 C14.65 18 16.3 18 18 18 C18 18.66 18 19.32 18 20 C17.04287109 20.07347656 17.04287109 20.07347656 16.06640625 20.1484375 C15.24011719 20.22320312 14.41382812 20.29796875 13.5625 20.375 C12.73878906 20.44460937 11.91507813 20.51421875 11.06640625 20.5859375 C10.38449219 20.72257812 9.70257813 20.85921875 9 21 C8.67 21.66 8.34 22.32 8 23 C9.32 22.67 10.64 22.34 12 22 C12 23.32 12 24.64 12 26 C12.66 26.33 13.32 26.66 14 27 C12.35 27 10.7 27 9 27 C12.3340947 29.19097652 15.04179141 30.43454163 19 31 C19.495 29.515 19.495 29.515 20 28 C20.495 32.95 20.495 32.95 21 38 C18.36 38.66 15.72 39.32 13 40 C12.34 39.01 11.68 38.02 11 37 C8.94074861 36.27617533 8.94074861 36.27617533 7 36 C7.33 34.02 7.66 32.04 8 30 C7.34 30 6.68 30 6 30 C5.67 37.59 5.34 45.18 5 53 C1.3803125 53.0928125 1.3803125 53.0928125 -2.3125 53.1875 C-3.44619019 53.22846802 -3.44619019 53.22846802 -4.6027832 53.27026367 C-9.43327635 53.3304265 -9.43327635 53.3304265 -11.70507812 52.00585938 C-13.7871094 48.7807521 -13.36537158 45.32532131 -13.29296875 41.61328125 C-13.28872391 40.79627243 -13.28447906 39.97926361 -13.28010559 39.13749695 C-13.26331691 36.52882893 -13.22566519 33.92093438 -13.1875 31.3125 C-13.17245337 29.54363095 -13.15876492 27.77474979 -13.14648438 26.00585938 C-13.11341286 21.67027504 -13.0616299 17.33526864 -13 13 C-11.95199219 12.92652344 -11.95199219 12.92652344 -10.8828125 12.8515625 C-9.97273438 12.77679688 -9.06265625 12.70203125 -8.125 12.625 C-7.22007813 12.55539063 -6.31515625 12.48578125 -5.3828125 12.4140625 C-2.82058097 12.20431868 -2.82058097 12.20431868 -1 10 C-0.53837573 7.56747339 -0.53837573 7.56747339 -0.375 4.875 C-0.25125 3.26625 -0.1275 1.6575 0 0 Z " fill="#78ABBE" transform="translate(44,202)"/>
<path d="M0 0 C0.91096939 -0.00945648 1.82193878 -0.01891296 2.76051331 -0.02865601 C3.73665085 -0.02258331 4.71278839 -0.01651062 5.71850586 -0.01025391 C6.72674911 -0.01312408 7.73499237 -0.01599426 8.77378845 -0.01895142 C10.90290896 -0.02099111 13.03204825 -0.0154679 15.16113281 -0.00292969 C18.4248223 0.0131416 21.68727649 -0.00279062 24.95092773 -0.02197266 C27.01928985 -0.01999054 29.08765119 -0.01614751 31.15600586 -0.01025391 C32.13416763 -0.0163266 33.11232941 -0.02239929 34.12013245 -0.02865601 C35.02794968 -0.01919952 35.93576691 -0.00974304 36.87109375 0 C38.06878136 0.00358017 38.06878136 0.00358017 39.29066467 0.00723267 C41.91069188 0.48704664 42.79848592 1.2644633 44.37084961 3.38818359 C44.71142578 6.57446289 44.71142578 6.57446289 44.66381836 10.46240234 C44.65957352 11.14623489 44.65532867 11.83006744 44.6509552 12.53462219 C44.63418314 14.71537921 44.59653617 16.89520668 44.55834961 19.07568359 C44.54330075 20.55548794 44.52961269 22.03530679 44.51733398 23.51513672 C44.4842853 27.13978696 44.43251407 30.76389453 44.37084961 34.38818359 C42.72084961 34.38818359 41.07084961 34.38818359 39.37084961 34.38818359 C39.32186523 33.64052734 39.27288086 32.89287109 39.22241211 32.12255859 C39.14764648 31.13771484 39.07288086 30.15287109 38.99584961 29.13818359 C38.89143555 27.67638672 38.89143555 27.67638672 38.78491211 26.18505859 C38.38201635 23.46361179 37.63324623 21.78981619 36.37084961 19.38818359 C36.37084961 18.39818359 36.37084961 17.40818359 36.37084961 16.38818359 C35.71084961 16.38818359 35.05084961 16.38818359 34.37084961 16.38818359 C34.47397461 15.62505859 34.57709961 14.86193359 34.68334961 14.07568359 C34.52866211 12.74537109 34.52866211 12.74537109 34.37084961 11.38818359 C32.26124587 9.68610341 32.26124587 9.68610341 29.37084961 8.38818359 C28.27772461 7.66630859 27.18459961 6.94443359 26.05834961 6.20068359 C21.97635438 3.88844229 19.01887036 3.86340706 14.37084961 4.38818359 C10.08238774 6.19886749 8.56436171 8.38263976 6.37084961 12.38818359 C5.69666992 13.10619141 5.02249023 13.82419922 4.32788086 14.56396484 C1.89017638 18.08184975 1.70805123 21.0586064 1.62084961 25.20068359 C1.59120117 25.89355469 1.56155273 26.58642578 1.53100586 27.30029297 C1.46085333 28.99564572 1.41352299 30.69191672 1.37084961 32.38818359 C2.36084961 32.38818359 3.35084961 32.38818359 4.37084961 32.38818359 C4.37084961 33.04818359 4.37084961 33.70818359 4.37084961 34.38818359 C0.08084961 34.38818359 -4.20915039 34.38818359 -8.62915039 34.38818359 C-8.72805703 30.02830287 -8.80063415 25.66901686 -8.84887695 21.30834961 C-8.86898799 19.82516098 -8.89628113 18.3420516 -8.9309082 16.85913086 C-8.97945391 14.72668924 -9.00212234 12.59529582 -9.01977539 10.46240234 C-9.04072266 9.17938232 -9.06166992 7.8963623 -9.08325195 6.57446289 C-8.62915039 3.38818359 -8.62915039 3.38818359 -6.89009094 1.71330261 C-4.3369202 0.21690983 -2.93489217 0.00876435 0 0 Z " fill="#DEDEE0" transform="translate(39.629150390625,356.61181640625)"/>
<path d="M0 0 C0.99 0.33 1.98 0.66 3 1 C3 14.53 3 28.06 3 42 C-8.55 42 -20.1 42 -32 42 C-30.02 39.69 -28.04 37.38 -26 35 C-24.55162046 33.25899369 -23.11268962 31.51004 -21.6875 29.75 C-21.01074219 28.91984375 -20.33398438 28.0896875 -19.63671875 27.234375 C-17.83452601 25.0127511 -17.83452601 25.0127511 -17 22 C-15.865625 21.731875 -14.73125 21.46375 -13.5625 21.1875 C-9.81334452 20.37047503 -9.81334452 20.37047503 -8.375 17.25 C-7.91172909 13.23498547 -8.90368678 11.38635212 -11 8 C-9.35 8.66 -7.7 9.32 -6 10 C-5.7525 9.278125 -5.505 8.55625 -5.25 7.8125 C-3.89016326 4.75286734 -2.17082246 2.5326262 0 0 Z " fill="#F5EBE5" transform="translate(245,349)"/>
<path d="M0 0 C3.61358548 1.99300815 5.6442278 3.33531487 7.125 7.25 C6.135 7.25 5.145 7.25 4.125 7.25 C3.795 5.93 3.465 4.61 3.125 3.25 C1.145 3.58 -0.835 3.91 -2.875 4.25 C-2.524375 4.848125 -2.17375 5.44625 -1.8125 6.0625 C-0.875 8.25 -0.875 8.25 -1.875 11.25 C-2.205 11.25 -2.535 11.25 -2.875 11.25 C-2.99617188 12.22582031 -3.11734375 13.20164062 -3.2421875 14.20703125 C-3.40976563 15.47933594 -3.57734375 16.75164062 -3.75 18.0625 C-3.99363281 19.95935547 -3.99363281 19.95935547 -4.2421875 21.89453125 C-4.875 25.25 -4.875 25.25 -6.875 28.25 C-9.0390625 28.54296875 -9.0390625 28.54296875 -11.5 28.4375 C-12.72589844 28.39689453 -12.72589844 28.39689453 -13.9765625 28.35546875 C-14.60304688 28.32066406 -15.22953125 28.28585937 -15.875 28.25 C-17.3356285 25.60261084 -17.875 24.35551666 -17.875 21.25 C-18.535 21.25 -19.195 21.25 -19.875 21.25 C-20.21679688 18.22265625 -20.21679688 18.22265625 -20.55859375 15.1953125 C-20.78792961 13.17595684 -20.78792961 13.17595684 -21.875 11.25 C-22.535 11.25 -23.195 11.25 -23.875 11.25 C-23.875 12.57 -23.875 13.89 -23.875 15.25 C-23.215 15.25 -22.555 15.25 -21.875 15.25 C-21.82100264 16.70792884 -21.78220823 18.16642712 -21.75 19.625 C-21.72679687 20.43710937 -21.70359375 21.24921875 -21.6796875 22.0859375 C-21.875 24.25 -21.875 24.25 -23.875 26.25 C-24.865 26.25 -25.855 26.25 -26.875 26.25 C-27.79399251 13.02671886 -27.79399251 13.02671886 -25.64453125 8.87109375 C-24.13704278 7.20727314 -22.54872672 5.74301586 -20.875 4.25 C-20.33875 3.321875 -19.8025 2.39375 -19.25 1.4375 C-14.72355261 -5.7636663 -6.29894666 -3.26917808 0 0 Z " fill="#40383A" transform="translate(67.875,362.75)"/>
<path d="M0 0 C17.82 0 35.64 0 54 0 C52.79396669 6.03016654 52.79396669 6.03016654 50 8 C47.91981506 8.38095093 47.91981506 8.38095093 45.50024414 8.38818359 C44.1385183 8.40236832 44.1385183 8.40236832 42.74928284 8.4168396 C41.77112106 8.41076691 40.79295929 8.40469421 39.78515625 8.3984375 C38.77786972 8.40130768 37.77058319 8.40417786 36.73277283 8.40713501 C34.60187213 8.40917706 32.47095276 8.40363739 30.34008789 8.39111328 C27.07851169 8.37507872 23.81817789 8.39094901 20.55664062 8.41015625 C18.48697643 8.40817352 16.41731301 8.40432922 14.34765625 8.3984375 C12.88344994 8.40754654 12.88344994 8.40754654 11.3896637 8.4168396 C10.02320961 8.40265488 10.02320961 8.40265488 8.62915039 8.38818359 C7.82989639 8.38579681 7.0306424 8.38341003 6.20716858 8.38095093 C3.35442691 7.88857595 2.0007196 7.09143022 0 5 C0 3.35 0 1.7 0 0 Z " fill="#E3E1E0" transform="translate(31,402)"/>
<path d="M0 0 C1.32 0.33 2.64 0.66 4 1 C4.33 1.66 4.66 2.32 5 3 C5.66 2.67 6.32 2.34 7 2 C7.99 3.32 8.98 4.64 10 6 C11.32 5.34 12.64 4.68 14 4 C13.01 3.67 12.02 3.34 11 3 C11 2.34 11 1.68 11 1 C13.64 1 16.28 1 19 1 C19.14554346 4.08283443 19.23413821 7.16478439 19.3125 10.25 C19.35439453 11.12269531 19.39628906 11.99539062 19.43945312 12.89453125 C19.56157611 19.2937755 19.56157611 19.2937755 16.9375 22.59375 C11.46664097 25.21277826 5.96428633 24.22296398 0 24 C0 16.08 0 8.16 0 0 Z " fill="#112544" transform="translate(65,232)"/>
<path d="M0 0 C3.63715985 3.04333783 4.82298645 4.87891416 5.5625 9.5625 C4.91377853 13.52690898 3.58295873 15.01345397 1 18 C1 19.32 1 20.64 1 22 C-2.12706959 23.5635348 -5.57982443 23.39958487 -9 23 C-12.36235385 20.75843077 -12.23460906 20.60827159 -13 17 C-13.66 16.01 -14.32 15.02 -15 14 C-15.1953125 11.73828125 -15.1953125 11.73828125 -15.125 9.3125 C-15.10695312 8.50425781 -15.08890625 7.69601562 -15.0703125 6.86328125 C-15.04710937 6.24839844 -15.02390625 5.63351562 -15 5 C-14.34 5 -13.68 5 -13 5 C-13 4.01 -13 3.02 -13 2 C-8.70389091 -0.41595251 -4.84637076 -0.97444821 0 0 Z " fill="#82A055" transform="translate(235,301)"/>
<path d="M0 0 C2.93804996 -0.08086376 5.87388075 -0.1404283 8.8125 -0.1875 C9.64587891 -0.21263672 10.47925781 -0.23777344 11.33789062 -0.26367188 C12.54155273 -0.27817383 12.54155273 -0.27817383 13.76953125 -0.29296875 C14.87711792 -0.31653442 14.87711792 -0.31653442 16.00708008 -0.34057617 C18 0 18 0 19.74609375 1.07617188 C21.67372834 4.03367977 21.33576123 6.5794998 21.29296875 10.07421875 C21.28872391 10.7580513 21.28447906 11.44188385 21.28010559 12.1464386 C21.26333353 14.32719561 21.22568657 16.50702309 21.1875 18.6875 C21.17245114 20.16730435 21.15876308 21.6471232 21.14648438 23.12695312 C21.11343569 26.75160336 21.06166446 30.37571094 21 34 C19.35 34 17.7 34 16 34 C15.95101562 33.25234375 15.90203125 32.5046875 15.8515625 31.734375 C15.77679688 30.74953125 15.70203125 29.7646875 15.625 28.75 C15.55539063 27.77546875 15.48578125 26.8009375 15.4140625 25.796875 C15.01116674 23.07542819 14.26239662 21.4016326 13 19 C13 18.01 13 17.02 13 16 C12.34 16 11.68 16 11 16 C11.103125 15.236875 11.20625 14.47375 11.3125 13.6875 C11.209375 12.800625 11.10625 11.91375 11 11 C8.89039626 9.29791982 8.89039626 9.29791982 6 8 C4.88625 7.29875 3.7725 6.5975 2.625 5.875 C-0.91576843 3.83613994 -3.94995831 3.33061565 -8 3 C-8 2.67 -8 2.34 -8 2 C-5.36 2 -2.72 2 0 2 C0 1.34 0 0.68 0 0 Z " fill="#DDDCDE" transform="translate(63,357)"/>
<path d="M0 0 C-0.33 7.92 -0.66 15.84 -1 24 C-3.43375 24.04125 -5.8675 24.0825 -8.375 24.125 C-9.13989746 24.14320801 -9.90479492 24.16141602 -10.69287109 24.18017578 C-12.46287275 24.1948117 -14.23272455 24.09928514 -16 24 C-16.66 23.34 -17.32 22.68 -18 22 C-17.79296875 19.86328125 -17.79296875 19.86328125 -17.1875 17.3125 C-16.26436825 13.20903046 -15.5438113 9.16921997 -15 5 C-14.15695313 4.72285156 -13.31390625 4.44570312 -12.4453125 4.16015625 C-11.34960938 3.79792969 -10.25390625 3.43570313 -9.125 3.0625 C-8.03445312 2.70285156 -6.94390625 2.34320313 -5.8203125 1.97265625 C-0.10040161 0 -0.10040161 0 0 0 Z " fill="#28395A" transform="translate(50,231)"/>
<path d="M0 0 C2.64 0 5.28 0 8 0 C8 5.94 8 11.88 8 18 C8.99 18.33 9.98 18.66 11 19 C10.67 21.31 10.34 23.62 10 26 C9.34 26 8.68 26 8 26 C8 26.66 8 27.32 8 28 C7.01 28 6.02 28 5 28 C5 28.99 5 29.98 5 31 C-2.50769231 30.50769231 -2.50769231 30.50769231 -5 27.9375 C-5.33 27.298125 -5.66 26.65875 -6 26 C-4.68 26 -3.36 26 -2 26 C-2 24.68 -2 23.36 -2 22 C-3.32 22.33 -4.64 22.66 -6 23 C-5.67 22.01 -5.34 21.02 -5 20 C1.75 18.875 1.75 18.875 4 20 C4 19.34 4 18.68 4 18 C2.35 18 0.7 18 -1 18 C-1 16.68 -1 15.36 -1 14 C0.65 14 2.3 14 4 14 C3.67 12.68 3.34 11.36 3 10 C-0.63 10 -4.26 10 -8 10 C-7.67 8.35 -7.34 6.7 -7 5 C-5.02 4.67 -3.04 4.34 -1 4 C-0.67 2.68 -0.34 1.36 0 0 Z " fill="#427685" transform="translate(58,202)"/>
<path d="M0 0 C3 4.07142857 3 4.07142857 3 7 C3.66 7 4.32 7 5 7 C8.29768187 13.1831535 8.2586761 18.01574534 8 25 C2.06 25 -3.88 25 -10 25 C-9.34 22.36 -8.68 19.72 -8 17 C-7.69489881 14.59039403 -7.50991944 12.20707587 -7.34375 9.78515625 C-7.2303125 9.19605469 -7.116875 8.60695313 -7 8 C-6.34 7.67 -5.68 7.34 -5 7 C-5.33 5.02 -5.66 3.04 -6 1 C-4 0 -4 0 0 0 Z " fill="#342928" transform="translate(71,366)"/>
<path d="M0 0 C0.66 0 1.32 0 2 0 C3.125 3.75 3.125 3.75 2 6 C3.2065625 6.185625 3.2065625 6.185625 4.4375 6.375 C5.283125 6.58125 6.12875 6.7875 7 7 C7.33 7.66 7.66 8.32 8 9 C11.465 8.505 11.465 8.505 15 8 C15 13.28 15 18.56 15 24 C5.43 24 -4.14 24 -14 24 C-14 23.67 -14 23.34 -14 23 C-9.71 23 -5.42 23 -1 23 C-1.01740234 21.26363281 -1.01740234 21.26363281 -1.03515625 19.4921875 C-1.04454077 17.95312662 -1.05364026 16.41406399 -1.0625 14.875 C-1.07506836 13.73417969 -1.07506836 13.73417969 -1.08789062 12.5703125 C-1.10646509 8.2610356 -0.86117265 4.24483526 0 0 Z " fill="#C0CEE6" transform="translate(50,232)"/>
<path d="M0 0 C3.5625 0.1875 3.5625 0.1875 5.5625 2.1875 C5.6875 4.8125 5.6875 4.8125 5.5625 7.1875 C4.2425 7.1875 2.9225 7.1875 1.5625 7.1875 C1.5625 8.1775 1.5625 9.1675 1.5625 10.1875 C4.5325 10.6825 4.5325 10.6825 7.5625 11.1875 C7.44791307 12.62586751 7.32040884 14.06320966 7.1875 15.5 C7.11789063 16.30050781 7.04828125 17.10101563 6.9765625 17.92578125 C6.5625 20.1875 6.5625 20.1875 4.5625 23.1875 C2.3984375 23.48046875 2.3984375 23.48046875 -0.0625 23.375 C-1.28839844 23.33439453 -1.28839844 23.33439453 -2.5390625 23.29296875 C-3.16554688 23.25816406 -3.79203125 23.22335937 -4.4375 23.1875 C-7.4068615 17.4962238 -8.27260587 12.5972087 -7.4375 6.1875 C-4.65227532 0.25376047 -4.65227532 0.25376047 0 0 Z " fill="#AE8575" transform="translate(56.4375,367.8125)"/>
<path d="M0 0 C0.91007812 0.00902344 1.82015625 0.01804688 2.7578125 0.02734375 C3.45648438 0.03894531 4.15515625 0.05054688 4.875 0.0625 C5.205 1.7125 5.535 3.3625 5.875 5.0625 C4.225 5.0625 2.575 5.0625 0.875 5.0625 C0.875 6.3825 0.875 7.7025 0.875 9.0625 C2.525 9.0625 4.175 9.0625 5.875 9.0625 C5.875 9.7225 5.875 10.3825 5.875 11.0625 C4.91787109 11.13597656 4.91787109 11.13597656 3.94140625 11.2109375 C3.11511719 11.28570312 2.28882813 11.36046875 1.4375 11.4375 C0.61378906 11.50710937 -0.20992187 11.57671875 -1.05859375 11.6484375 C-1.74050781 11.78507813 -2.42242187 11.92171875 -3.125 12.0625 C-3.455 12.7225 -3.785 13.3825 -4.125 14.0625 C-2.805 13.7325 -1.485 13.4025 -0.125 13.0625 C-0.125 14.3825 -0.125 15.7025 -0.125 17.0625 C0.535 17.3925 1.195 17.7225 1.875 18.0625 C0.225 18.0625 -1.425 18.0625 -3.125 18.0625 C0.2090947 20.25347652 2.91679141 21.49704163 6.875 22.0625 C7.205 21.0725 7.535 20.0825 7.875 19.0625 C8.205 22.3625 8.535 25.6625 8.875 29.0625 C6.235 29.7225 3.595 30.3825 0.875 31.0625 C0.215 30.0725 -0.445 29.0825 -1.125 28.0625 C-3.18425139 27.33867533 -3.18425139 27.33867533 -5.125 27.0625 C-4.795 26.0725 -4.465 25.0825 -4.125 24.0625 C-4.62784399 21.23781897 -4.62784399 21.23781897 -5.5 18.1875 C-8.55668077 6.7892231 -8.55668077 6.7892231 -7.125 1.0625 C-4.60024538 -0.19987731 -2.81299534 -0.03606404 0 0 Z " fill="#D9AA96" transform="translate(56.125,210.9375)"/>
<path d="M0 0 C3.31469389 1.22499557 4.84046741 2.16720362 6.875 5.0625 C7.51156938 8.80234509 7.13084708 10.57212644 5.375 13.9375 C2.34584317 16.51228331 0.66849229 16.80795844 -3.21875 16.546875 C-5.125 16.0625 -5.125 16.0625 -7.625 13.9375 C-9.41452585 10.50757546 -9.91735586 8.86580813 -9.125 5.0625 C-6.16174116 1.74647225 -4.52716343 0.09054327 0 0 Z " fill="#F28527" transform="translate(231.125,200.9375)"/>
<path d="M0 0 C11.25 0 11.25 0 15.625 1 C16.88183594 1.2784375 16.88183594 1.2784375 18.1640625 1.5625 C18.76992188 1.706875 19.37578125 1.85125 20 2 C19.67 2.99 19.34 3.98 19 5 C16.3828125 6.16796875 16.3828125 6.16796875 13.125 7.1875 C12.05507813 7.53167969 10.98515625 7.87585938 9.8828125 8.23046875 C7 9 7 9 4 9 C4.061875 9.969375 4.12375 10.93875 4.1875 11.9375 C4.21625881 16.61559946 2.64771207 20.67475582 1 25 C0.67 25 0.34 25 0 25 C0 16.75 0 8.5 0 0 Z " fill="#48889A" transform="translate(31,227)"/>
<path d="M0 0 C1.32 0.33 2.64 0.66 4 1 C4 6.28 4 11.56 4 17 C-1.86928404 17.18059336 -6.44542412 16.89091945 -12 15 C-11.67 14.01 -11.34 13.02 -11 12 C-10.01 11.67 -9.02 11.34 -8 11 C-7.525625 9.865625 -7.05125 8.73125 -6.5625 7.5625 C-5 4 -5 4 -2.875 2.6875 C-2.25625 2.460625 -1.6375 2.23375 -1 2 C-0.67 1.34 -0.34 0.68 0 0 Z " fill="#09242A" transform="translate(80,204)"/>
<path d="M0 0 C4.95 0 9.9 0 15 0 C15.33 0.66 15.66 1.32 16 2 C15.34 2 14.68 2 14 2 C13.731875 2.639375 13.46375 3.27875 13.1875 3.9375 C12 6 12 6 9 7 C8.505 8.155 8.01 9.31 7.5 10.5 C7.005 11.655 6.51 12.81 6 14 C5.01 14.33 4.02 14.66 3 15 C2.67 15.66 2.34 16.32 2 17 C4.31 17.33 6.62 17.66 9 18 C9 18.33 9 18.66 9 19 C2.25 19.125 2.25 19.125 0 18 C0 12.06 0 6.12 0 0 Z " fill="#20373B" transform="translate(66,202)"/>
<path d="M0 0 C2.36002096 1.54622063 2.90125807 2.7319862 3.875 5.375 C4.03673305 8.77139406 2.96039694 10.28560423 1 13 C0 14 0 14 -3.375 14.3125 C-7 14 -7 14 -8.9375 12.375 C-10.31565201 9.29442492 -10.48746608 7.34262452 -10 4 C-7.21052575 -0.0769239 -4.82207542 -0.71818145 0 0 Z " fill="#FEFEFE" transform="translate(234,357)"/>
<path d="M0 0 C4.26273122 6.39409682 4.18334339 10.29957771 4 18 C0.04 18 -3.92 18 -8 18 C-8 16.35 -8 14.7 -8 13 C-7.34 13 -6.68 13 -6 13 C-6 12.01 -6 11.02 -6 10 C-5.34 10 -4.68 10 -4 10 C-4 8.35 -4 6.7 -4 5 C-2.68 4.67 -1.36 4.34 0 4 C0 2.68 0 1.36 0 0 Z " fill="#372D2C" transform="translate(75,373)"/>
<path d="M0 0 C3.5 0.25 3.5 0.25 5.5 2.25 C5.625 4.875 5.625 4.875 5.5 7.25 C4.18 7.25 2.86 7.25 1.5 7.25 C1.5 8.24 1.5 9.23 1.5 10.25 C4.47 10.745 4.47 10.745 7.5 11.25 C7.5 12.57 7.5 13.89 7.5 15.25 C6.18 15.58 4.86 15.91 3.5 16.25 C3.5 15.59 3.5 14.93 3.5 14.25 C0.2 14.25 -3.1 14.25 -6.5 14.25 C-6.5 13.59 -6.5 12.93 -6.5 12.25 C-5.18 11.92 -3.86 11.59 -2.5 11.25 C-2.5 10.26 -2.5 9.27 -2.5 8.25 C-3.82 7.92 -5.14 7.59 -6.5 7.25 C-5.72878803 2.3656575 -5.37087392 0.38363385 0 0 Z " fill="#C99D8A" transform="translate(56.5,367.75)"/>
<path d="M0 0 C7.59 0 15.18 0 23 0 C23 1.65 23 3.3 23 5 C18.82600298 7.28896611 15.7153707 6.96450932 11.18359375 6.2890625 C8.70620635 5.91251043 8.70620635 5.91251043 5 6 C5 5.34 5 4.68 5 4 C3.68 4 2.36 4 1 4 C0.67 4.66 0.34 5.32 0 6 C0 4.02 0 2.04 0 0 Z " fill="#AEADAC" transform="translate(93,402)"/>
<path d="M0 0 C0.33 1.32 0.66 2.64 1 4 C1.66 4 2.32 4 3 4 C3.33 3.34 3.66 2.68 4 2 C5.32 2 6.64 2 8 2 C8.9765625 8.0546875 8.9765625 8.0546875 9 10 C7 12 7 12 3.9609375 12.1953125 C2.77757813 12.17210937 1.59421875 12.14890625 0.375 12.125 C-0.81351562 12.10695312 -2.00203125 12.08890625 -3.2265625 12.0703125 C-4.14179687 12.04710937 -5.05703125 12.02390625 -6 12 C-5.67 9.69 -5.34 7.38 -5 5 C-3.02 5.495 -3.02 5.495 -1 6 C-1.020625 5.195625 -1.04125 4.39125 -1.0625 3.5625 C-1 1 -1 1 0 0 Z " fill="#071731" transform="translate(74,243)"/>
<path d="M0 0 C0.33 0 0.66 0 1 0 C1 1.65 1 3.3 1 5 C1.99 5.33 2.98 5.66 4 6 C3.68289062 6.55171875 3.36578125 7.1034375 3.0390625 7.671875 C1.87290025 10.28477989 1.59954289 12.40579002 1.375 15.25 C1.30023438 16.14203125 1.22546875 17.0340625 1.1484375 17.953125 C1.09945312 18.62859375 1.05046875 19.3040625 1 20 C0.67 20 0.34 20 0 20 C-0.34179688 16.97265625 -0.34179688 16.97265625 -0.68359375 13.9453125 C-0.91292961 11.92595684 -0.91292961 11.92595684 -2 10 C-2.66 10 -3.32 10 -4 10 C-4 11.32 -4 12.64 -4 14 C-3.34 14 -2.68 14 -2 14 C-1.94600264 15.45792884 -1.90720823 16.91642712 -1.875 18.375 C-1.85179687 19.18710937 -1.82859375 19.99921875 -1.8046875 20.8359375 C-2 23 -2 23 -4 25 C-4.99 25 -5.98 25 -7 25 C-7.92184184 11.73572022 -7.92184184 11.73572022 -5.69921875 7.55078125 C-4.0625 5.75 -4.0625 5.75 -2.41015625 4.296875 C-0.71303945 2.9461499 -0.71303945 2.9461499 0 0 Z " fill="#595150" transform="translate(48,364)"/>
<path d="M0 0 C5.28 0 10.56 0 16 0 C15 5 15 5 13.82421875 6.80078125 C11.14117632 8.56458002 8.98302406 8.28977497 5.8125 8.1875 C4.72582031 8.16042969 3.63914062 8.13335937 2.51953125 8.10546875 C1.27236328 8.05326172 1.27236328 8.05326172 0 8 C0 5.36 0 2.72 0 0 Z " fill="#DBD5D3" transform="translate(69,402)"/>
<path d="M0 0 C1.32 0 2.64 0 4 0 C4.1875 2.3125 4.1875 2.3125 4 5 C3.0206121 6.02019573 2.02104551 7.02149805 1 8 C1 9.32 1 10.64 1 12 C-2.12706959 13.5635348 -5.57982443 13.39958487 -9 13 C-9.99 12.34 -10.98 11.68 -12 11 C-12 10.34 -12 9.68 -12 9 C-10.68 9 -9.36 9 -8 9 C-8.33 7.35 -8.66 5.7 -9 4 C-8.071875 4.0825 -7.14375 4.165 -6.1875 4.25 C-5.135625 4.1675 -4.08375 4.085 -3 4 C-1.36323743 2.0399719 -1.36323743 2.0399719 0 0 Z " fill="#958E8C" transform="translate(235,311)"/>
<path d="M0 0 C0.33 0 0.66 0 1 0 C1.33 3.3 1.66 6.6 2 10 C-0.64 10.66 -3.28 11.32 -6 12 C-6.66 11.01 -7.32 10.02 -8 9 C-10.05925139 8.27617533 -10.05925139 8.27617533 -12 8 C-11.67 6.35 -11.34 4.7 -11 3 C-9.02 3.495 -9.02 3.495 -7 4 C-7 3.34 -7 2.68 -7 2 C-4.69 2.33 -2.38 2.66 0 3 C0 2.01 0 1.02 0 0 Z " fill="#AC928C" transform="translate(63,230)"/>
<path d="M0 0 C1.60822 0.09081024 3.21292761 0.24779961 4.8125 0.4375 C7.93966427 0.80241282 10.83624149 1 14 1 C14.99 1.33 15.98 1.66 17 2 C17 2.99 17 3.98 17 5 C17.33 4.01 17.66 3.02 18 2 C19.32 2 20.64 2 22 2 C22 3.32 22 4.64 22 6 C19.02942405 6.06908316 16.34790099 6.07636851 13.4375 5.4375 C10.63106204 4.93378037 8.7697767 5.39200024 6 6 C4.0003559 6.03772913 1.99945939 6.04649906 0 6 C-0.38218767 4.34385343 -0.71395102 2.67542976 -1 1 C-0.67 0.67 -0.34 0.34 0 0 Z " fill="#F1BF92" transform="translate(71,69)"/>
<path d="M0 0 C2.140625 0.73046875 2.140625 0.73046875 4 2 C4.6796875 4.09375 4.6796875 4.09375 4.875 6.5 C4.95492187 7.2940625 5.03484375 8.088125 5.1171875 8.90625 C5 11 5 11 3 13 C0.375 13.125 0.375 13.125 -2 13 C-2 12.01 -2 11.02 -2 10 C-0.35 10 1.3 10 3 10 C2.67 8.68 2.34 7.36 2 6 C-1.63 6 -5.26 6 -9 6 C-8.67 4.35 -8.34 2.7 -8 1 C-5.2201184 -0.3899408 -3.0813674 -0.18488204 0 0 Z " fill="#15161B" transform="translate(59,206)"/>
<path d="M0 0 C2.5625 0.3125 2.5625 0.3125 4.4375 1.5 C5.5625 3.3125 5.5625 3.3125 5.375 5.875 C4.5625 8.3125 4.5625 8.3125 2.5625 10.3125 C0.0625 10.5625 0.0625 10.5625 -2.4375 10.3125 C-4.4375 8.3125 -4.4375 8.3125 -4.6875 5.3125 C-4.37675292 1.58353509 -3.7821044 0.48488518 0 0 Z " fill="#F1E7DF" transform="translate(229.4375,305.6875)"/>
<path d="M0 0 C0.66 0 1.32 0 2 0 C2.33 0.99 2.66 1.98 3 3 C4.65 3.33 6.3 3.66 8 4 C7.67 5.65 7.34 7.3 7 9 C6.443125 8.814375 5.88625 8.62875 5.3125 8.4375 C2.96712418 7.84408398 2.96712418 7.84408398 0.5 8.5 C-2.09822907 9.01964581 -3.5200301 8.82665663 -6 8 C-6 6.35 -6 4.7 -6 3 C-4.35 3 -2.7 3 -1 3 C-0.67 2.01 -0.34 1.02 0 0 Z " fill="#767676" transform="translate(71,166)"/>
<path d="M0 0 C2.64 0 5.28 0 8 0 C8 5.94 8 11.88 8 18 C5.97649676 14.96474514 5.67875982 13.80573798 5.375 10.3125 C5.30023438 9.50425781 5.22546875 8.69601563 5.1484375 7.86328125 C5.09945312 7.24839844 5.05046875 6.63351563 5 6 C3.02 5.34 1.04 4.68 -1 4 C-0.67 2.68 -0.34 1.36 0 0 Z " fill="#456A73" transform="translate(58,202)"/>
<path d="M0 0 C0 0.66 0 1.32 0 2 C-0.66 2 -1.32 2 -2 2 C-2 2.66 -2 3.32 -2 4 C-1.34 4 -0.68 4 0 4 C-0.33 4.66 -0.66 5.32 -1 6 C-5.29 6 -9.58 6 -14 6 C-14 4.35 -14 2.7 -14 1 C-9.35846395 -0.76820421 -4.68450286 -2.34225143 0 0 Z " fill="#302929" transform="translate(63,363)"/>
<path d="M0 0 C5.61 0 11.22 0 17 0 C17 1.65 17 3.3 17 5 C15.73542969 4.98259766 15.73542969 4.98259766 14.4453125 4.96484375 C13.34960938 4.95582031 12.25390625 4.94679687 11.125 4.9375 C10.03445312 4.92589844 8.94390625 4.91429687 7.8203125 4.90234375 C5.04822454 4.80255697 5.04822454 4.80255697 3 6 C3 4.35 3 2.7 3 1 C2.34 1 1.68 1 1 1 C0.67 2.32 0.34 3.64 0 5 C0 3.35 0 1.7 0 0 Z " fill="#C3AA72" transform="translate(55,125)"/>
<path d="M0 0 C1.32 0.33 2.64 0.66 4 1 C4 3.97 4 6.94 4 10 C4.66 10 5.32 10 6 10 C7.4606285 12.64738916 8 13.89448334 8 17 C5.36 17 2.72 17 0 17 C0.66 12.71 1.32 8.42 2 4 C1.34 4 0.68 4 0 4 C0 2.68 0 1.36 0 0 Z " fill="#261F1E" transform="translate(44,374)"/>
<path d="M0 0 C4.95 0.99 4.95 0.99 10 2 C10 1.34 10 0.68 10 0 C11.32 0 12.64 0 14 0 C14 2.31 14 4.62 14 7 C12.35 7 10.7 7 9 7 C8.67 6.01 8.34 5.02 8 4 C7.67 4.99 7.34 5.98 7 7 C6.34 7 5.68 7 5 7 C4.67 6.34 4.34 5.68 4 5 C3.01 5 2.02 5 1 5 C0.67 5.66 0.34 6.32 0 7 C0 4.69 0 2.38 0 0 Z " fill="#BCA064" transform="translate(34,112)"/>
<path d="M0 0 C0.99 -0.33 1.98 -0.66 3 -1 C5.00875442 -0.72428861 7.01178687 -0.39764263 9 0 C9 1.32 9 2.64 9 4 C4.27070027 4.7214186 0.68000466 5.17000116 -4 4 C-5.32 4 -6.64 4 -8 4 C-8 2.68 -8 1.36 -8 0 C-4.87844121 -1.00335818 -3.12599828 -0.80670923 0 0 Z " fill="#EFB481" transform="translate(58,71)"/>
<path d="M0 0 C1.33333333 0.33333333 2.66666667 0.66666667 4 1 C4.33 0.67 4.66 0.34 5 0 C6.66617115 -0.04063832 8.33388095 -0.042721 10 0 C10 2.64 10 5.28 10 8 C9.34 8 8.68 8 8 8 C8 7.34 8 6.68 8 6 C4.67465243 4.89155081 2.37817425 5.15545644 -1 6 C-1.042721 4.33388095 -1.04063832 2.66617115 -1 1 C-0.67 0.67 -0.34 0.34 0 0 Z " fill="#F7C599" transform="translate(145,478)"/>
<path d="M0 0 C-0.40208382 5.62917348 -2.28930302 8.00386479 -6 12 C-6.99 11.67 -7.98 11.34 -9 11 C-9 9.68 -9 8.36 -9 7 C-10.32 7.33 -11.64 7.66 -13 8 C-12.67 7.01 -12.34 6.02 -12 5 C-5.25 3.875 -5.25 3.875 -3 5 C-3 4.34 -3 3.68 -3 3 C-4.65 3 -6.3 3 -8 3 C-8 2.67 -8 2.34 -8 2 C-2.25 0 -2.25 0 0 0 Z " fill="#956A5B" transform="translate(65,217)"/>
<path d="M0 0 C3.96 0 7.92 0 12 0 C12 1.65 12 3.3 12 5 C8.37 5 4.74 5 1 5 C0.67 3.35 0.34 1.7 0 0 Z " fill="#111111" transform="translate(235,20)"/>
<path d="M0 0 C0.66 0 1.32 0 2 0 C2 0.66 2 1.32 2 2 C6.29 2 10.58 2 15 2 C14.67 3.32 14.34 4.64 14 6 C9.38 6 4.76 6 0 6 C0 4.02 0 2.04 0 0 Z " fill="#6D6C6B" transform="translate(136,370)"/>
<path d="M0 0 C3.66666667 0 7.33333333 0 11 0 C11.33 1.32 11.66 2.64 12 4 C7.31506124 6.48887372 4.0555786 5.85687773 -1 5 C-0.67 3.35 -0.34 1.7 0 0 Z " fill="#807F7E" transform="translate(104,248)"/>
<path d="M0 0 C1.65 0 3.3 0 5 0 C5.9765625 6.0546875 5.9765625 6.0546875 6 8 C5.34 8.66 4.68 9.32 4 10 C2.35 10 0.7 10 -1 10 C-0.67 6.7 -0.34 3.4 0 0 Z " fill="#030E21" transform="translate(77,245)"/>
<path d="M0 0 C5.875 0.875 5.875 0.875 7 2 C7.1875 4.4375 7.1875 4.4375 7 7 C5 9 5 9 2.375 9.125 C1.59125 9.08375 0.8075 9.0425 0 9 C0 6.03 0 3.06 0 0 Z " fill="#7D7D7D" transform="translate(111,166)"/>
<path d="M0 0 C0.66 0 1.32 0 2 0 C2 0.66 2 1.32 2 2 C4.97 2 7.94 2 11 2 C10.01 2.495 10.01 2.495 9 3 C9 3.99 9 4.98 9 6 C9.66 6.33 10.32 6.66 11 7 C10.34 7 9.68 7 9 7 C9 7.66 9 8.32 9 9 C8.34 9 7.68 9 7 9 C6.67 8.34 6.34 7.68 6 7 C5.38125 7.185625 4.7625 7.37125 4.125 7.5625 C2 8 2 8 0 7 C0 4.69 0 2.38 0 0 Z " fill="#BFA56B" transform="translate(49,112)"/>
<path d="M0 0 C0.86625 0.5259375 0.86625 0.5259375 1.75 1.0625 C4.35801776 2.14917407 5.39417629 1.93065133 8 1 C8.66 2.32 9.32 3.64 10 5 C9.01 6.485 9.01 6.485 8 8 C6.0546875 8.29296875 6.0546875 8.29296875 3.875 8.1875 C1.956875 8.0946875 1.956875 8.0946875 0 8 C-0.38063221 5.6739143 -0.71269945 3.33944736 -1 1 C-0.67 0.67 -0.34 0.34 0 0 Z " fill="#6A6969" transform="translate(66,55)"/>
<path d="M0 0 C0.99 0 1.98 0 3 0 C3 0.66 3 1.32 3 2 C5.97 2.495 5.97 2.495 9 3 C9 4.32 9 5.64 9 7 C7.68 7.33 6.36 7.66 5 8 C5 7.34 5 6.68 5 6 C1.7 6 -1.6 6 -5 6 C-5 5.34 -5 4.68 -5 4 C-4.0409375 3.8453125 -4.0409375 3.8453125 -3.0625 3.6875 C-2.381875 3.460625 -1.70125 3.23375 -1 3 C-0.67 2.01 -0.34 1.02 0 0 Z " fill="#C49582" transform="translate(55,376)"/>
<path d="M0 0 C4.62 0 9.24 0 14 0 C14 1.65 14 3.3 14 5 C10.37 5 6.74 5 3 5 C2.67 4.01 2.34 3.02 2 2 C1.01 3.485 1.01 3.485 0 5 C0 3.35 0 1.7 0 0 Z " fill="#B49755" transform="translate(64,114)"/>
<path d="M0 0 C2.64 0 5.28 0 8 0 C8 6.27 8 12.54 8 19 C7.67 19 7.34 19 7 19 C6.896875 17.845 6.79375 16.69 6.6875 15.5 C6.11164006 10.94989544 4.90568371 7.17784507 3 3 C2.01 2.67 1.02 2.34 0 2 C0 1.34 0 0.68 0 0 Z " fill="#133541" transform="translate(76,233)"/>
<path d="M0 0 C1.0625 1.8125 1.0625 1.8125 2 4 C1.67 4.99 1.34 5.98 1 7 C0.67 7 0.34 7 0 7 C-0.33 8.65 -0.66 10.3 -1 12 C-3.97 11.505 -3.97 11.505 -7 11 C-7 10.01 -7 9.02 -7 8 C-5.68 8 -4.36 8 -3 8 C-3.66 5.69 -4.32 3.38 -5 1 C-2 0 -2 0 0 0 Z " fill="#372C2B" transform="translate(65,367)"/>
<path d="M0 0 C0.66 0 1.32 0 2 0 C2.33 2.97 2.66 5.94 3 9 C2.34 9 1.68 9 1 9 C1 9.99 1 10.98 1 12 C0.34 12 -0.32 12 -1 12 C-1 13.65 -1 15.3 -1 17 C-2.32 17 -3.64 17 -5 17 C-4.34 14.03 -3.68 11.06 -3 8 C-1.68 8 -0.36 8 1 8 C0.67 5.36 0.34 2.72 0 0 Z " fill="#271F1E" transform="translate(68,374)"/>
<path d="M0 0 C2.97 1.98 2.97 1.98 6 4 C7.65 2.68 9.3 1.36 11 0 C10.67 0.5775 10.34 1.155 10 1.75 C8.72924102 4.19883862 8.72924102 4.19883862 9 8 C9.93283296 10.20067421 9.93283296 10.20067421 11 12 C9.68 11.34 8.36 10.68 7 10 C7 9.34 7 8.68 7 8 C6.236875 8.495 5.47375 8.99 4.6875 9.5 C2 11 2 11 -1 11 C0.32 9.35 1.64 7.7 3 6 C1.68 4.35 0.36 2.7 -1 1 C-0.67 0.67 -0.34 0.34 0 0 Z " fill="#4C4C4C" transform="translate(230,59)"/>
<path d="M0 0 C4.62 0 9.24 0 14 0 C14 1.32 14 2.64 14 4 C12.9275 3.979375 11.855 3.95875 10.75 3.9375 C7.21313759 3.8391851 7.21313759 3.8391851 4.75 4.625 C4.1725 4.74875 3.595 4.8725 3 5 C2.01 4.34 1.02 3.68 0 3 C0 2.01 0 1.02 0 0 Z " fill="#C2BFBF" transform="translate(164,434)"/>
<path d="M0 0 C0 1.65 0 3.3 0 5 C-0.556875 4.814375 -1.11375 4.62875 -1.6875 4.4375 C-4.02322803 3.84408801 -4.02322803 3.84408801 -6.4375 4.5 C-9.2832481 5.05526792 -11.21591523 4.71590751 -14 4 C-14 2.68 -14 1.36 -14 0 C-13.01 0.33 -12.02 0.66 -11 1 C-11.66 1 -12.32 1 -13 1 C-13 1.66 -13 2.32 -13 3 C-11.68 2.34 -10.36 1.68 -9 1 C-9 0.67 -9 0.34 -9 0 C-5.62182575 -0.84454356 -3.32534757 -1.10844919 0 0 Z " fill="#BFA56A" transform="translate(167,125)"/>
<path d="M0 0 C2.97249386 0.31848149 4.03839103 1.03625819 6.25 3.125 C8.39717586 6.6525032 8.3183515 8.9410184 8 13 C7.67 12.01 7.34 11.02 7 10 C5.68 10 4.36 10 3 10 C1.125 8.3125 1.125 8.3125 0 6 C0.8125 3.25 0.8125 3.25 2 1 C1.34 0.67 0.68 0.34 0 0 Z " fill="#B38888" transform="translate(232,301)"/>
<path d="M0 0 C1.0209375 0.2165625 1.0209375 0.2165625 2.0625 0.4375 C5.36273082 1.06945909 8.67144426 1.54313941 12 2 C12 3.32 12 4.64 12 6 C4.57142857 6.28571429 4.57142857 6.28571429 1 4 C0.67 4.66 0.34 5.32 0 6 C0 4.02 0 2.04 0 0 Z " fill="#C9C7C6" transform="translate(151,432)"/>
<path d="M0 0 C0.66 0 1.32 0 2 0 C2 0.66 2 1.32 2 2 C3.65 2 5.3 2 7 2 C7 3.98 7 5.96 7 8 C5.35 8.33 3.7 8.66 2 9 C2 8.34 2 7.68 2 7 C1.34 7 0.68 7 0 7 C0 4.69 0 2.38 0 0 Z " fill="#C3AA72" transform="translate(194,112)"/>
<path d="M0 0 C2.97 0 5.94 0 9 0 C9 1.98 9 3.96 9 6 C8.2575 5.835 7.515 5.67 6.75 5.5 C3.80993422 4.88074304 3.80993422 4.88074304 0 5 C0 3.35 0 1.7 0 0 Z " fill="#8F8C8B" transform="translate(62,317)"/>
<path d="M0 0 C1.17433594 -0.02578125 2.34867188 -0.0515625 3.55859375 -0.078125 C4.54988281 0.03015625 5.54117188 0.1384375 6.5625 0.25 C8.5625 3.25 8.5625 3.25 8.3125 5.375 C7.5625 7.25 7.5625 7.25 5.5625 8.25 C5.5625 6.27 5.5625 4.29 5.5625 2.25 C1.6025 2.25 -2.3575 2.25 -6.4375 2.25 C-6.1075 3.9 -5.7775 5.55 -5.4375 7.25 C-6.0975 7.25 -6.7575 7.25 -7.4375 7.25 C-7.48004356 5.25045254 -7.47830783 3.24958364 -7.4375 1.25 C-5.56024106 -0.62725894 -2.50899693 0.03297696 0 0 Z " fill="#C7C7C7" transform="translate(241.4375,17.75)"/>
<path d="M0 0 C2.31 0.33 4.62 0.66 7 1 C7.042721 2.66611905 7.04063832 4.33382885 7 6 C6 7 6 7 2.9375 7.0625 C1.4834375 7.0315625 1.4834375 7.0315625 0 7 C0 4.69 0 2.38 0 0 Z " fill="#C9B27E" transform="translate(217,112)"/>
<path d="M0 0 C1.2065625 0.0309375 1.2065625 0.0309375 2.4375 0.0625 C2.4375 3.0325 2.4375 6.0025 2.4375 9.0625 C1.7775 9.0625 1.1175 9.0625 0.4375 9.0625 C0.1075 8.4025 -0.2225 7.7425 -0.5625 7.0625 C-2.57919827 5.92899466 -2.57919827 5.92899466 -4.5625 5.0625 C-3.43829114 0.08386076 -3.43829114 0.08386076 0 0 Z " fill="#7C7B7B" transform="translate(40.5625,55.9375)"/>
<path d="M0 0 C0.37254569 3.35291118 0.31050198 4.6038423 -1.8125 7.3125 C-4 9 -4 9 -7 9 C-7.75 7.3125 -7.75 7.3125 -8 5 C-4.93181818 0 -4.93181818 0 0 0 Z " fill="#22A351" transform="translate(239,311)"/>
<path d="M0 0 C2.64 0 5.28 0 8 0 C8 2.64 8 5.28 8 8 C7.34 8 6.68 8 6 8 C5.67 6.68 5.34 5.36 5 4 C3.02463255 4.34786708 3.02463255 4.34786708 1 5 C0.67 5.66 0.34 6.32 0 7 C0 4.69 0 2.38 0 0 Z " fill="#4A4A4A" transform="translate(22,167)"/>
<path d="M0 0 C0.5775 0.165 1.155 0.33 1.75 0.5 C4.45033485 1.10007441 6.34161797 0.66459551 9 0 C9 1.98 9 3.96 9 6 C6.03 5.67 3.06 5.34 0 5 C-0.33 3.68 -0.66 2.36 -1 1 C-0.67 0.67 -0.34 0.34 0 0 Z " fill="#BFA46A" transform="translate(125,114)"/>
<path d="M0 0 C0.99 0.495 0.99 0.495 2 1 C2.33 0.67 2.66 0.34 3 0 C5.33297433 -0.04092937 7.66705225 -0.04241723 10 0 C10 1.65 10 3.3 10 5 C7.03 5 4.06 5 1 5 C0.67 3.35 0.34 1.7 0 0 Z " fill="#F7C89E" transform="translate(162,479)"/>
<path d="M0 0 C0.53625 0.226875 1.0725 0.45375 1.625 0.6875 C1.625 3.6875 1.625 3.6875 0.625 6.6875 C-4.91346154 6.07211538 -4.91346154 6.07211538 -7.25 4.125 C-7.62125 3.650625 -7.9925 3.17625 -8.375 2.6875 C-2.95961538 -0.38942308 -2.95961538 -0.38942308 0 0 Z " fill="#CEB786" transform="translate(100.375,123.3125)"/>
<path d="M0 0 C0.66 0 1.32 0 2 0 C2 2.97 2 5.94 2 9 C1.01 9.495 1.01 9.495 0 10 C-0.33 9.34 -0.66 8.68 -1 8 C-3.02463255 7.34786708 -3.02463255 7.34786708 -5 7 C-4.67 5.35 -4.34 3.7 -4 2 C-2.02 2.495 -2.02 2.495 0 3 C0 2.01 0 1.02 0 0 Z " fill="#EDA96E" transform="translate(132,519)"/>
<path d="M0 0 C1.37478516 0.01740234 1.37478516 0.01740234 2.77734375 0.03515625 C3.69644531 0.04417969 4.61554688 0.05320313 5.5625 0.0625 C6.27277344 0.07410156 6.98304687 0.08570313 7.71484375 0.09765625 C7.71484375 1.41765625 7.71484375 2.73765625 7.71484375 4.09765625 C1.77484375 4.59265625 1.77484375 4.59265625 -4.28515625 5.09765625 C-3.0432556 0.13005366 -3.0432556 0.13005366 0 0 Z " fill="#BCBABA" transform="translate(111.28515625,236.90234375)"/>
<path d="M0 0 C2.97 0 5.94 0 9 0 C8.67 1.65 8.34 3.3 8 5 C2.25 5.125 2.25 5.125 0 4 C0 2.68 0 1.36 0 0 Z " fill="#3E8596" transform="translate(31,228)"/>
<path d="M0 0 C1.32 0 2.64 0 4 0 C4.33 0.66 4.66 1.32 5 2 C5.66 2 6.32 2 7 2 C7 1.34 7 0.68 7 0 C8.32 0 9.64 0 11 0 C11 1.32 11 2.64 11 4 C11.99 4.33 12.98 4.66 14 5 C9.125 4.125 9.125 4.125 8 3 C7.67 3.66 7.34 4.32 7 5 C6.34 5 5.68 5 5 5 C5 4.34 5 3.68 5 3 C3.35 3.66 1.7 4.32 0 5 C-0.5625 3.0625 -0.5625 3.0625 -1 1 C-0.67 0.67 -0.34 0.34 0 0 Z " fill="#B99C5E" transform="translate(89,114)"/>
<path d="M0 0 C1.32 0.33 2.64 0.66 4 1 C4 2.98 4 4.96 4 7 C2.02 7 0.04 7 -2 7 C-2 6.01 -2 5.02 -2 4 C-2.66 4 -3.32 4 -4 4 C-4.33 4.99 -4.66 5.98 -5 7 C-5 5.02 -5 3.04 -5 1 C-4.67 1.66 -4.34 2.32 -4 3 C-2.68 3 -1.36 3 0 3 C0 2.01 0 1.02 0 0 Z " fill="#ECA76A" transform="translate(32,68)"/>
<path d="M0 0 C2.31 0 4.62 0 7 0 C7.33 0.99 7.66 1.98 8 3 C6.68 4.32 5.36 5.64 4 7 C2.35 5.68 0.7 4.36 -1 3 C-0.67 2.01 -0.34 1.02 0 0 Z " fill="#616161" transform="translate(222,19)"/>
<path d="M0 0 C2.33944736 0.28730055 4.6739143 0.61936779 7 1 C7 2.65 7 4.3 7 6 C4.36 6.33 1.72 6.66 -1 7 C-1.04254356 5.00045254 -1.04080783 2.99958364 -1 1 C-0.67 0.67 -0.34 0.34 0 0 Z " fill="#717171" transform="translate(33,22)"/>
<path d="M0 0 C2.05078125 0.03255208 4.1015625 0.06510417 6.15234375 0.09765625 C6.48234375 1.74765625 6.81234375 3.39765625 7.15234375 5.09765625 C4.18234375 5.09765625 1.21234375 5.09765625 -1.84765625 5.09765625 C-2.17765625 3.77765625 -2.50765625 2.45765625 -2.84765625 1.09765625 C-1.84765625 0.09765625 -1.84765625 0.09765625 0 0 Z " fill="#C9B17D" transform="translate(170.84765625,124.90234375)"/>
<path d="M0 0 C1.134375 0.020625 2.26875 0.04125 3.4375 0.0625 C3.7675 1.3825 4.0975 2.7025 4.4375 4.0625 C2.125 5.1875 2.125 5.1875 -0.5625 6.0625 C-3.5625 4.0625 -3.5625 4.0625 -4.5625 1.0625 C-3.5625 0.0625 -3.5625 0.0625 0 0 Z " fill="#8C8A89" transform="translate(111.5625,402.9375)"/>
<path d="M0 0 C0.99 0 1.98 0 3 0 C3 0.66 3 1.32 3 2 C3.99 1.67 4.98 1.34 6 1 C5.67 3.31 5.34 5.62 5 8 C4.01 8.33 3.02 8.66 2 9 C2 8.34 2 7.68 2 7 C0.68 6.67 -0.64 6.34 -2 6 C-1.01 5.67 -0.02 5.34 1 5 C0.67 3.35 0.34 1.7 0 0 Z " fill="#8B6557" transform="translate(57,382)"/>
<path d="M0 0 C2.97 0.33 5.94 0.66 9 1 C8.67 2.65 8.34 4.3 8 6 C6.68 5.67 5.36 5.34 4 5 C4 4.01 4 3.02 4 2 C3.34 2 2.68 2 2 2 C2 3.32 2 4.64 2 6 C1.34 6 0.68 6 0 6 C0 4.02 0 2.04 0 0 Z " fill="#F7CAA2" transform="translate(113,478)"/>
<path d="M0 0 C0.886875 0.185625 1.77375 0.37125 2.6875 0.5625 C5.85178811 0.98042484 7.94839642 0.80777742 11 0 C11 1.65 11 3.3 11 5 C8.69 5 6.38 5 4 5 C4 4.34 4 3.68 4 3 C3.01 3 2.02 3 1 3 C0.67 3.66 0.34 4.32 0 5 C0 3.35 0 1.7 0 0 Z " fill="#B7B6B6" transform="translate(93,359)"/>
<path d="M0 0 C0.66 0.33 1.32 0.66 2 1 C1.34 2.32 0.68 3.64 0 5 C-0.721875 4.814375 -1.44375 4.62875 -2.1875 4.4375 C-5.12826973 3.98004693 -7.14103058 4.26483643 -10 5 C-10 4.01 -10 3.02 -10 2 C-6.59659693 -0.09440189 -3.95562822 -0.25797575 0 0 Z " fill="#F1A440" transform="translate(232,301)"/>
<path d="M0 0 C1.65 0 3.3 0 5 0 C5.91058531 3.07322544 6.08886184 5.80097361 6 9 C4.68 8.01 3.36 7.02 2 6 C1.34 6.99 0.68 7.98 0 9 C0 6.03 0 3.06 0 0 Z " fill="#656363" transform="translate(22,54)"/>
<path d="M0 0 C2.97 0.495 2.97 0.495 6 1 C5.814375 1.61875 5.62875 2.2375 5.4375 2.875 C4.76313824 5.04160178 4.76313824 5.04160178 6 7 C3.69 7 1.38 7 -1 7 C-0.67 4.69 -0.34 2.38 0 0 Z " fill="#908D8C" transform="translate(55,316)"/>
<path d="M0 0 C0.33 0 0.66 0 1 0 C1.06058594 0.89203125 1.12117188 1.7840625 1.18359375 2.703125 C1.26738281 3.87359375 1.35117188 5.0440625 1.4375 6.25 C1.51871094 7.41015625 1.59992188 8.5703125 1.68359375 9.765625 C1.9355392 13.15845566 1.9355392 13.15845566 3 17 C6.63 17 10.26 17 14 17 C14 17.33 14 17.66 14 18 C9.38 18 4.76 18 0 18 C0 12.06 0 6.12 0 0 Z " fill="#424E69" transform="translate(65,238)"/>
<path d="M0 0 C2.64 0.33 5.28 0.66 8 1 C8.33 2.65 8.66 4.3 9 6 C7.68 6 6.36 6 5 6 C4.67 5.34 4.34 4.68 4 4 C3.01 4 2.02 4 1 4 C0.67 4.66 0.34 5.32 0 6 C0 4.02 0 2.04 0 0 Z " fill="#6D6C6C" transform="translate(93,247)"/>
<path d="M0 0 C1.32 0 2.64 0 4 0 C4 0.66 4 1.32 4 2 C4.66 2.33 5.32 2.66 6 3 C6 4.32 6 5.64 6 7 C3.69 7 1.38 7 -1 7 C-1.125 2.25 -1.125 2.25 0 0 Z " fill="#C79D8F" transform="translate(53,384)"/>
<path d="M0 0 C0.66 0 1.32 0 2 0 C2 1.32 2 2.64 2 4 C3.32 4 4.64 4 6 4 C6 5.32 6 6.64 6 8 C3.69 8.66 1.38 9.32 -1 10 C-0.67 6.7 -0.34 3.4 0 0 Z " fill="#AC8371" transform="translate(49,212)"/>
<path d="M0 0 C1.65 0 3.3 0 5 0 C4.67 1.32 4.34 2.64 4 4 C4.66 3.34 5.32 2.68 6 2 C6.99 2 7.98 2 9 2 C9 3.32 9 4.64 9 6 C6.03 6 3.06 6 0 6 C0 4.02 0 2.04 0 0 Z " fill="#5B5B5B" transform="translate(93,370)"/>
<path d="M0 0 C1.88391785 3.26545761 2.49287967 6.28111761 3 10 C1.1875 9.8125 1.1875 9.8125 -1 9 C-2.75 6.4375 -2.75 6.4375 -4 4 C-2.68 2.68 -1.36 1.36 0 0 Z " fill="#ED9C2A" transform="translate(224,310)"/>
<path d="M0 0 C1.98 0 3.96 0 6 0 C6 2.31 6 4.62 6 7 C3.69 6.01 1.38 5.02 -1 4 C-0.67 2.68 -0.34 1.36 0 0 Z " fill="#488697" transform="translate(58,202)"/>
<path d="M0 0 C2.475 0.495 2.475 0.495 5 1 C5.33 3.31 5.66 5.62 6 8 C5.34 8 4.68 8 4 8 C3.67 7.34 3.34 6.68 3 6 C2.67 6.66 2.34 7.32 2 8 C1.34 8 0.68 8 0 8 C0 5.36 0 2.72 0 0 Z " fill="#ECA86C" transform="translate(120,519)"/>
<path d="M0 0 C1.98 0.66 3.96 1.32 6 2 C5.67 3.65 5.34 5.3 5 7 C4.01 7 3.02 7 2 7 C1.67 6.34 1.34 5.68 1 5 C0.01 5.66 -0.98 6.32 -2 7 C-1.34 4.69 -0.68 2.38 0 0 Z " fill="#7A7776" transform="translate(42,316)"/>
<path d="M0 0 C0 1.98 0 3.96 0 6 C-2.31 6 -4.62 6 -7 6 C-7.33 4.68 -7.66 3.36 -8 2 C-6.824375 1.7834375 -6.824375 1.7834375 -5.625 1.5625 C-3.76394715 1.16370296 -1.83313854 0 0 0 Z " fill="#C5C2C1" transform="translate(67,305)"/>
<path d="M0 0 C0.66 0 1.32 0 2 0 C3.125 3.75 3.125 3.75 2 6 C3.2065625 6.185625 3.2065625 6.185625 4.4375 6.375 C5.7059375 6.684375 5.7059375 6.684375 7 7 C7.33 7.66 7.66 8.32 8 9 C8.66 9 9.32 9 10 9 C10 9.66 10 10.32 10 11 C8.68 11 7.36 11 6 11 C5.67 10.34 5.34 9.68 5 9 C2.47266765 8.34444881 2.47266765 8.34444881 0 8 C-0.33 8.66 -0.66 9.32 -1 10 C-0.67 6.7 -0.34 3.4 0 0 Z " fill="#B0BFDC" transform="translate(50,232)"/>
<path d="M0 0 C1.98 0.99 1.98 0.99 4 2 C4.33 1.34 4.66 0.68 5 0 C5.66 0 6.32 0 7 0 C7 1.98 7 3.96 7 6 C4.69 6 2.38 6 0 6 C0 4.02 0 2.04 0 0 Z " fill="#676767" transform="translate(117,370)"/>
<path d="M0 0 C1.2065625 0.0309375 1.2065625 0.0309375 2.4375 0.0625 C3.0625 1.9375 3.0625 1.9375 3.4375 4.0625 C2.7775 4.7225 2.1175 5.3825 1.4375 6.0625 C-0.6875 5.6875 -0.6875 5.6875 -2.5625 5.0625 C-3.125 3.125 -3.125 3.125 -3.5625 1.0625 C-2.5625 0.0625 -2.5625 0.0625 0 0 Z " fill="#67AC43" transform="translate(155.5625,316.9375)"/>
<path d="M0 0 C0.33 0 0.66 0 1 0 C1.33 3.3 1.66 6.6 2 10 C-0.64 10.66 -3.28 11.32 -6 12 C-6 11.34 -6 10.68 -6 10 C-5.34 10 -4.68 10 -4 10 C-2.26337666 6.77484237 -1.1094072 3.48670834 0 0 Z " fill="#7F95BD" transform="translate(63,230)"/>
<path d="M0 0 C2.31 0.33 4.62 0.66 7 1 C7 2.65 7 4.3 7 6 C5.00045254 6.04254356 2.99958364 6.04080783 1 6 C0 5 0 5 -0.0625 2.4375 C-0.041875 1.633125 -0.02125 0.82875 0 0 Z " fill="#7D7C7C" transform="translate(105,216)"/>
<path d="M0 0 C0 0.66 0 1.32 0 2 C0.99 2.33 1.98 2.66 3 3 C3 4.32 3 5.64 3 7 C2.236875 6.835 1.47375 6.67 0.6875 6.5 C-2.03596236 5.90854604 -2.03596236 5.90854604 -5 6 C-5 4.35 -5 2.7 -5 1 C-2 0 -2 0 0 0 Z " fill="#C5AC75" transform="translate(33,123)"/>
<path d="M0 0 C9.02144367 -0.63062519 9.02144367 -0.63062519 12.8125 1.8125 C13.534375 2.534375 14.25625 3.25625 15 4 C16.6502694 5.0268343 18.31243867 6.03567924 20 7 C19.67 7.66 19.34 8.32 19 9 C18.319375 8.5875 17.63875 8.175 16.9375 7.75 C15.968125 7.1725 14.99875 6.595 14 6 C12.88625 5.29875 11.7725 4.5975 10.625 3.875 C7.08423157 1.83613994 4.05004169 1.33061565 0 1 C0 0.67 0 0.34 0 0 Z " fill="#969193" transform="translate(55,359)"/>
<path d="M0 0 C2.64 0 5.28 0 8 0 C7.67 1.65 7.34 3.3 7 5 C4.69 4.67 2.38 4.34 0 4 C0 2.68 0 1.36 0 0 Z " fill="#7A7979" transform="translate(154,217)"/>
<path d="M0 0 C0.66 0 1.32 0 2 0 C2 0.66 2 1.32 2 2 C3.32 2 4.64 2 6 2 C6 3.65 6 5.3 6 7 C3.03 6.505 3.03 6.505 0 6 C-1.125 2.25 -1.125 2.25 0 0 Z " fill="#7E7D7D" transform="translate(98,215)"/>
<path d="M0 0 C2.0625 0.4375 2.0625 0.4375 4 1 C4 2.65 4 4.3 4 6 C2.125 6.625 2.125 6.625 0 7 C-0.66 6.34 -1.32 5.68 -2 5 C-1.46428571 1.46428571 -1.46428571 1.46428571 0 0 Z " fill="#CCB684" transform="translate(83,112)"/>
<path d="M0 0 C0.99 0.33 1.98 0.66 3 1 C3 1.99 3 2.98 3 4 C3.33 3.01 3.66 2.02 4 1 C5.32 1 6.64 1 8 1 C8 2.32 8 3.64 8 5 C4.16774573 5.08912219 0.73437848 4.87867729 -3 4 C-2.67 3.01 -2.34 2.02 -2 1 C-1.34 0.67 -0.68 0.34 0 0 Z " fill="#EDAA6F" transform="translate(85,70)"/>
<path d="M0 0 C1.65 0 3.3 0 5 0 C5.33 2.31 5.66 4.62 6 7 C4 7 2 7 0 7 C0 4.69 0 2.38 0 0 Z " fill="#F9D3B1" transform="translate(137,477)"/>
<path d="M0 0 C3 3.625 3 3.625 3 7 C0.36 7 -2.28 7 -5 7 C-5 6.01 -5 5.02 -5 4 C-4.360625 3.71125 -3.72125 3.4225 -3.0625 3.125 C-0.84793921 2.17176549 -0.84793921 2.17176549 0 0 Z " fill="#342926" transform="translate(49,384)"/>
<path d="M0 0 C1.32 0 2.64 0 4 0 C4.042721 1.66611905 4.04063832 3.33382885 4 5 C3 6 3 6 0.4375 6.0625 C-0.7690625 6.0315625 -0.7690625 6.0315625 -2 6 C-1.125 1.125 -1.125 1.125 0 0 Z " fill="#E9C9BC" transform="translate(54,369)"/>
<path d="M0 0 C0 1.65 0 3.3 0 5 C-1.98 5.33 -3.96 5.66 -6 6 C-6.33 4.35 -6.66 2.7 -7 1 C-4.50935112 0.31292445 -2.62113708 0 0 0 Z " fill="#BFBEBE" transform="translate(104,204)"/>
<path d="M0 0 C1.98 0 3.96 0 6 0 C6.33 1.65 6.66 3.3 7 5 C4.69 5 2.38 5 0 5 C0 3.35 0 1.7 0 0 Z " fill="#777776" transform="translate(103,371)"/>
<path d="M0 0 C3.63 0 7.26 0 11 0 C10.67 1.32 10.34 2.64 10 4 C9.67 3.34 9.34 2.68 9 2 C8.34 2.66 7.68 3.32 7 4 C4.375 4.125 4.375 4.125 2 4 C2.33 3.01 2.66 2.02 3 1 C2.34 1 1.68 1 1 1 C0.67 1.99 0.34 2.98 0 4 C0 2.68 0 1.36 0 0 Z " fill="#565554" transform="translate(137,217)"/>
<path d="M0 0 C4.62 0 9.24 0 14 0 C13.67 1.32 13.34 2.64 13 4 C11.35 4 9.7 4 8 4 C8 3.34 8 2.68 8 2 C5.36 1.67 2.72 1.34 0 1 C0 0.67 0 0.34 0 0 Z " fill="#88B6C8" transform="translate(44,202)"/>
<path d="M0 0 C-0.66 1.98 -1.32 3.96 -2 6 C-5 6 -5 6 -8 5 C-8 3.68 -8 2.36 -8 1 C-2.25 -1.125 -2.25 -1.125 0 0 Z " fill="#C7AF7A" transform="translate(89,124)"/>
<path d="M0 0 C0.66 0 1.32 0 2 0 C2 1.65 2 3.3 2 5 C2.66 5 3.32 5 4 5 C4 3.35 4 1.7 4 0 C4.66 0 5.32 0 6 0 C6 2.31 6 4.62 6 7 C4.33388095 7.042721 2.66617115 7.04063832 1 7 C0 6 0 6 -0.0625 2.9375 C-0.041875 1.968125 -0.02125 0.99875 0 0 Z " fill="#5E5D5D" transform="translate(44,56)"/>
<path d="M0 0 C1.65 0.33 3.3 0.66 5 1 C5 2.65 5 4.3 5 6 C3.125 6.625 3.125 6.625 1 7 C0.34 6.34 -0.32 5.68 -1 5 C-0.625 2.375 -0.625 2.375 0 0 Z " fill="#6B6A6A" transform="translate(30,56)"/>
<path d="M0 0 C2.475 0.495 2.475 0.495 5 1 C4.67 2.65 4.34 4.3 4 6 C3.01 6 2.02 6 1 6 C0.67 6.66 0.34 7.32 0 8 C0 5.36 0 2.72 0 0 Z " fill="#F8CDA7" transform="translate(101,478)"/>
<path d="M0 0 C1.65 0 3.3 0 5 0 C4.67 2.31 4.34 4.62 4 7 C2.68 7 1.36 7 0 7 C0 4.69 0 2.38 0 0 Z " fill="#CBB482" transform="translate(108,123)"/>
<path d="M0 0 C2.97 0.495 2.97 0.495 6 1 C6 2.98 6 4.96 6 7 C5.34 6.34 4.68 5.68 4 5 C3.01 5 2.02 5 1 5 C0.67 5.66 0.34 6.32 0 7 C0 4.69 0 2.38 0 0 Z " fill="#C9B17D" transform="translate(34,112)"/>
<path d="M0 0 C2.0625 0.4375 2.0625 0.4375 4 1 C4 2.65 4 4.3 4 6 C2.125 6.625 2.125 6.625 0 7 C-0.66 6.34 -1.32 5.68 -2 5 C-1.46428571 1.46428571 -1.46428571 1.46428571 0 0 Z " fill="#6B6969" transform="translate(53,56)"/>
<path d="M0 0 C1.65 0 3.3 0 5 0 C5 1.65 5 3.3 5 5 C4.01 5 3.02 5 2 5 C2 5.66 2 6.32 2 7 C1.34 7 0.68 7 0 7 C0 4.69 0 2.38 0 0 Z " fill="#F8CFAA" transform="translate(107,479)"/>
<path d="M0 0 C2.31 0 4.62 0 7 0 C6.67 1.65 6.34 3.3 6 5 C4.02 5 2.04 5 0 5 C0 3.35 0 1.7 0 0 Z " fill="#777675" transform="translate(117,403)"/>
<path d="M0 0 C0.33 0.66 0.66 1.32 1 2 C1.66 2 2.32 2 3 2 C3 2.99 3 3.98 3 5 C3.66 5 4.32 5 5 5 C5 5.66 5 6.32 5 7 C4.34 7 3.68 7 3 7 C3.33 8.65 3.66 10.3 4 12 C1 8.375 1 8.375 1 5 C0.34 5 -0.32 5 -1 5 C-0.67 3.35 -0.34 1.7 0 0 Z " fill="#A8A4A5" transform="translate(75,368)"/>
<path d="M0 0 C2.64 0 5.28 0 8 0 C7.67 1.32 7.34 2.64 7 4 C3.98968256 4.93423645 3.13349732 5.04449911 0 4 C0 2.68 0 1.36 0 0 Z " fill="#B7B4B4" transform="translate(50,306)"/>
<path d="M0 0 C2.64 0 5.28 0 8 0 C8 1.32 8 2.64 8 4 C5.36 4.33 2.72 4.66 0 5 C0 3.35 0 1.7 0 0 Z " fill="#BAB8B7" transform="translate(168,279)"/>
<path d="M0 0 C2.64 0.33 5.28 0.66 8 1 C8 2.32 8 3.64 8 5 C5.36 4.67 2.72 4.34 0 4 C0 2.68 0 1.36 0 0 Z " fill="#F2C094" transform="translate(59,70)"/>
<path d="M0 0 C2 0 4 0 6 0 C6.33 1.32 6.66 2.64 7 4 C3.71303767 4.79953138 2.28976808 5.09658936 -1 4 C-0.67 2.68 -0.34 1.36 0 0 Z " fill="#61605F" transform="translate(104,248)"/>
<path d="M0 0 C1.98 0.495 1.98 0.495 4 1 C4 2.65 4 4.3 4 6 C2.35 5.67 0.7 5.34 -1 5 C-0.67 3.35 -0.34 1.7 0 0 Z " fill="#EEB079" transform="translate(136,521)"/>
<path d="M0 0 C0.33 0.66 0.66 1.32 1 2 C0.34 2 -0.32 2 -1 2 C-1 2.66 -1 3.32 -1 4 C-0.34 4 0.32 4 1 4 C0.67 4.66 0.34 5.32 0 6 C-2.64 5.34 -5.28 4.68 -8 4 C-7.67 3.01 -7.34 2.02 -7 1 C-3.535 0.505 -3.535 0.505 0 0 Z " fill="#201C1D" transform="translate(62,363)"/>
<path d="M0 0 C0.66 0 1.32 0 2 0 C2 2.31 2 4.62 2 7 C0.35 6.67 -1.3 6.34 -3 6 C-2.67 4.68 -2.34 3.36 -2 2 C-1.34 2 -0.68 2 0 2 C0 1.34 0 0.68 0 0 Z " fill="#838080" transform="translate(179,316)"/>
<path d="M0 0 C0.66 0 1.32 0 2 0 C2.625 2.875 2.625 2.875 3 6 C1 8 1 8 -1.625 8.125 C-2.40875 8.08375 -3.1925 8.0425 -4 8 C-4 7.01 -4 6.02 -4 5 C-2.35 5 -0.7 5 1 5 C0.67 3.35 0.34 1.7 0 0 Z " fill="#533E37" transform="translate(61,211)"/>
<path d="M0 0 C-1.485 1.485 -1.485 1.485 -3 3 C-1.02 3 0.96 3 3 3 C3 3.33 3 3.66 3 4 C-0.3 4.33 -3.6 4.66 -7 5 C-6.625 2.5625 -6.625 2.5625 -6 0 C-3.50907189 -1.24546405 -2.58919267 -0.7767578 0 0 Z " fill="#3B383B" transform="translate(57,207)"/>
<path d="M0 0 C2 2 2 2 2 6 C-0.31 6 -2.62 6 -5 6 C-5.33 4.35 -5.66 2.7 -6 1 C-5.67 1.99 -5.34 2.98 -5 4 C-4.34 4 -3.68 4 -3 4 C-3 3.01 -3 2.02 -3 1 C-2.01 0.67 -1.02 0.34 0 0 Z " fill="#BDA266" transform="translate(129,124)"/>
<path d="M0 0 C0 2.31 0 4.62 0 7 C-1.32 7 -2.64 7 -4 7 C-4.33 5.35 -4.66 3.7 -5 2 C-2 0 -2 0 0 0 Z " fill="#C8B07B" transform="translate(154,112)"/>
<path d="M0 0 C0.99 0.33 1.98 0.66 3 1 C3.33 2.98 3.66 4.96 4 7 C2.68 7.33 1.36 7.66 0 8 C-0.38063221 5.6739143 -0.71269945 3.33944736 -1 1 C-0.67 0.67 -0.34 0.34 0 0 Z " fill="#929191" transform="translate(66,55)"/>
<path d="M0 0 C0.99 0 1.98 0 3 0 C3.66 2.31 4.32 4.62 5 7 C4.34 7 3.68 7 3 7 C3 6.34 3 5.68 3 5 C2.01 5 1.02 5 0 5 C0 5.66 0 6.32 0 7 C-0.66 6.67 -1.32 6.34 -2 6 C-1.34 4.02 -0.68 2.04 0 0 Z " fill="#FADFC8" transform="translate(95,477)"/>
<path d="M0 0 C1.98 0.495 1.98 0.495 4 1 C3.67 2.65 3.34 4.3 3 6 C1.68 5.67 0.36 5.34 -1 5 C-0.67 3.35 -0.34 1.7 0 0 Z " fill="#7C7878" transform="translate(91,444)"/>
<path d="M0 0 C2.31 0 4.62 0 7 0 C6.67 1.98 6.34 3.96 6 6 C5.34 6 4.68 6 4 6 C4.33 4.68 4.66 3.36 5 2 C3.02 2.33 1.04 2.66 -1 3 C-0.67 2.01 -0.34 1.02 0 0 Z " fill="#7D7B7A" transform="translate(72,289)"/>
<path d="M0 0 C1.32 0.33 2.64 0.66 4 1 C4.33 2.32 4.66 3.64 5 5 C3.35 5.33 1.7 5.66 0 6 C0 4.02 0 2.04 0 0 Z " fill="#C5C4C3" transform="translate(95,235)"/>
<path d="M0 0 C1 3 1 3 -0.0625 5.1875 C-2 7 -2 7 -5.0625 7.4375 C-6.031875 7.293125 -7.00125 7.14875 -8 7 C-8.66 6.01 -9.32 5.02 -10 4 C-8.906875 4.0825 -7.81375 4.165 -6.6875 4.25 C-2.96557142 4.41103961 -2.96557142 4.41103961 -1.0625 2 C-0.711875 1.34 -0.36125 0.68 0 0 Z " fill="#473730" transform="translate(62,224)"/>
<path d="M0 0 C2.97 0.99 5.94 1.98 9 3 C8.34 4.32 7.68 5.64 7 7 C6.01 6.67 5.02 6.34 4 6 C4 4.68 4 3.36 4 2 C2.68 2.33 1.36 2.66 0 3 C0 2.01 0 1.02 0 0 Z " fill="#B08072" transform="translate(52,222)"/>
<path d="M0 0 C2.475 0.495 2.475 0.495 5 1 C5 2.65 5 4.3 5 6 C3.35 6 1.7 6 0 6 C0 4.02 0 2.04 0 0 Z " fill="#585858" transform="translate(38,169)"/>
<path d="M0 0 C1.32 0 2.64 0 4 0 C4 1.65 4 3.3 4 5 C2.68 5.33 1.36 5.66 0 6 C-0.38218767 4.34385343 -0.71395102 2.67542976 -1 1 C-0.67 0.67 -0.34 0.34 0 0 Z " fill="#787878" transform="translate(81,169)"/>
<path d="M0 0 C1.65 0 3.3 0 5 0 C5 1.98 5 3.96 5 6 C3.35 6 1.7 6 0 6 C0.185625 5.38125 0.37125 4.7625 0.5625 4.125 C1.23686176 1.95839822 1.23686176 1.95839822 0 0 Z " fill="#545454" transform="translate(93,169)"/>
<path d="M0 0 C0.99 0 1.98 0 3 0 C3 2.31 3 4.62 3 7 C1.35 6.67 -0.3 6.34 -2 6 C-1.34 4.02 -0.68 2.04 0 0 Z " fill="#4B4B4B" transform="translate(43,22)"/>
<path d="M0 0 C2 2 2 2 2.1953125 4.6015625 C2.17210938 5.59929687 2.14890625 6.59703125 2.125 7.625 C2.10695313 8.62789063 2.08890625 9.63078125 2.0703125 10.6640625 C2.03550781 11.82035156 2.03550781 11.82035156 2 13 C-0.47532211 10.52467789 -0.38704795 9.36068317 -0.6875 5.9375 C-0.77386719 5.03902344 -0.86023438 4.14054687 -0.94921875 3.21484375 C-0.96597656 2.48394531 -0.98273438 1.75304687 -1 1 C-0.67 0.67 -0.34 0.34 0 0 Z " fill="#6B6363" transform="translate(77,378)"/>
<path d="M0 0 C2.31 0 4.62 0 7 0 C6.67 1.32 6.34 2.64 6 4 C4.02 4 2.04 4 0 4 C0 2.68 0 1.36 0 0 Z " fill="#6B6A6A" transform="translate(125,372)"/>
<path d="M0 0 C1.98 0.66 3.96 1.32 6 2 C6 3.32 6 4.64 6 6 C4.35 5.67 2.7 5.34 1 5 C0.67 3.35 0.34 1.7 0 0 Z " fill="#794A8D" transform="translate(226,315)"/>
<path d="M0 0 C1.65 0 3.3 0 5 0 C5.33 1.65 5.66 3.3 6 5 C4.35 5 2.7 5 1 5 C0.67 3.35 0.34 1.7 0 0 Z " fill="#C1BFBF" transform="translate(156,306)"/>
<path d="M0 0 C0.99 0 1.98 0 3 0 C3.33 1.65 3.66 3.3 4 5 C2.68 5.33 1.36 5.66 0 6 C-0.38218767 4.34385343 -0.71395102 2.67542976 -1 1 C-0.67 0.67 -0.34 0.34 0 0 Z " fill="#7E7B7A" transform="translate(91,289)"/>
<path d="M0 0 C-0.33 1.65 -0.66 3.3 -1 5 C-2.98 5 -4.96 5 -7 5 C-6.6875 3.0625 -6.6875 3.0625 -6 1 C-3 0 -3 0 0 0 Z " fill="#656362" transform="translate(124,248)"/>
<path d="M0 0 C0.66 0 1.32 0 2 0 C2 0.99 2 1.98 2 3 C2.66 3 3.32 3 4 3 C4 6.96 4 10.92 4 15 C3.67 15 3.34 15 3 15 C2.87625 13.824375 2.7525 12.64875 2.625 11.4375 C2.13564065 7.45879574 1.1944795 3.82233441 0 0 Z " fill="#283C46" transform="translate(80,237)"/>
<path d="M0 0 C3.3 0 6.6 0 10 0 C10.33 1.65 10.66 3.3 11 5 C10.01 5 9.02 5 8 5 C7.67 3.68 7.34 2.36 7 1 C4.69 1 2.38 1 0 1 C0 0.67 0 0.34 0 0 Z " fill="#BF957F" transform="translate(51,211)"/>
<path d="M0 0 C2.46800047 1.15173355 4.04783565 2.04783565 6 4 C5.625 6.125 5.625 6.125 5 8 C2.5 5.6875 2.5 5.6875 0 3 C0 2.01 0 1.02 0 0 Z " fill="#F1994C" transform="translate(32,202)"/>
<path d="M0 0 C2.475 0.495 2.475 0.495 5 1 C4.67 2.32 4.34 3.64 4 5 C2.68 5.33 1.36 5.66 0 6 C0 4.02 0 2.04 0 0 Z " fill="#C4AB73" transform="translate(44,125)"/>
<path d="M0 0 C0.66 0.33 1.32 0.66 2 1 C2 2.98 2 4.96 2 7 C0.68 7 -0.64 7 -2 7 C-2 5.02 -2 3.04 -2 1 C-1.34 0.67 -0.68 0.34 0 0 Z " fill="#CAB380" transform="translate(150,123)"/>
<path d="M0 0 C1.65 0 3.3 0 5 0 C5 1.32 5 2.64 5 4 C4.01 4 3.02 4 2 4 C2 4.66 2 5.32 2 6 C1.34 6 0.68 6 0 6 C0 4.02 0 2.04 0 0 Z " fill="#EFB37E" transform="translate(21,69)"/>
<path d="M0 0 C2.64 0 5.28 0 8 0 C8 0.99 8 1.98 8 3 C5.36 3 2.72 3 0 3 C0 2.01 0 1.02 0 0 Z " fill="#929090" transform="translate(151,444)"/>
<path d="M0 0 C2.64 0 5.28 0 8 0 C8 0.99 8 1.98 8 3 C5.36 3 2.72 3 0 3 C0 2.01 0 1.02 0 0 Z " fill="#939291" transform="translate(62,444)"/>
<path d="M0 0 C0.66 0.33 1.32 0.66 2 1 C2 3.31 2 5.62 2 8 C1.67 7.01 1.34 6.02 1 5 C-0.32 5 -1.64 5 -3 5 C-3.33 3.68 -3.66 2.36 -4 1 C-2.68 1.33 -1.36 1.66 0 2 C0 1.34 0 0.68 0 0 Z " fill="#C8A74B" transform="translate(238,306)"/>
<path d="M0 0 C2.31 0 4.62 0 7 0 C6.67 1.32 6.34 2.64 6 4 C4.68 4 3.36 4 2 4 C2 3.34 2 2.68 2 2 C1.34 2 0.68 2 0 2 C-0.33 2.66 -0.66 3.32 -1 4 C-0.67 2.68 -0.34 1.36 0 0 Z " fill="#B8B5B4" transform="translate(71,306)"/>
<path d="M0 0 C2.31 0 4.62 0 7 0 C7 0.99 7 1.98 7 3 C4.36 3 1.72 3 -1 3 C-0.67 2.01 -0.34 1.02 0 0 Z " fill="#918F8E" transform="translate(41,289)"/>
<path d="M0 0 C2.31 0 4.62 0 7 0 C7 1.32 7 2.64 7 4 C4.69 4 2.38 4 0 4 C0.33 3.34 0.66 2.68 1 2 C0.67 1.67 0.34 1.34 0 1 C0 0.67 0 0.34 0 0 Z " fill="#AEADAC" transform="translate(156,279)"/>
<path d="M0 0 C0.33 0 0.66 0 1 0 C1.33 4.29 1.66 8.58 2 13 C0.68 12.67 -0.64 12.34 -2 12 C-1.855625 11.319375 -1.71125 10.63875 -1.5625 9.9375 C-0.93054091 6.63726918 -0.45686059 3.32855574 0 0 Z " fill="#18253E" transform="translate(36,241)"/>
<path d="M0 0 C2.475 0.495 2.475 0.495 5 1 C4.67 2.65 4.34 4.3 4 6 C2.68 5.67 1.36 5.34 0 5 C0 3.35 0 1.7 0 0 Z " fill="#464646" transform="translate(74,169)"/>
<path d="M0 0 C0.99 0.33 1.98 0.66 3 1 C3 2.98 3 4.96 3 7 C1.68 6.67 0.36 6.34 -1 6 C-1.042721 4.33388095 -1.04063832 2.66617115 -1 1 C-0.67 0.67 -0.34 0.34 0 0 Z " fill="#595959" transform="translate(60,168)"/>
<path d="M0 0 C0.33 0.66 0.66 1.32 1 2 C1.66 2.144375 2.32 2.28875 3 2.4375 C3.66 2.623125 4.32 2.80875 5 3 C5.33 3.99 5.66 4.98 6 6 C1.125 7 1.125 7 0 7 C0 4.69 0 2.38 0 0 Z " fill="#B59756" transform="translate(112,112)"/>
<path d="M0 0 C2.475 0.495 2.475 0.495 5 1 C4.01 1.33 3.02 1.66 2 2 C2.99 2.66 3.98 3.32 5 4 C4.67 4.99 4.34 5.98 4 7 C2.68 7 1.36 7 0 7 C0 4.66666667 0 2.33333333 0 0 Z " fill="#5F5D5D" transform="translate(59,56)"/>
<path d="M0 0 C1.32 0 2.64 0 4 0 C4 1.65 4 3.3 4 5 C2.68 5.33 1.36 5.66 0 6 C0 4.02 0 2.04 0 0 Z " fill="#656261" transform="translate(85,444)"/>
<path d="M0 0 C0.66 0 1.32 0 2 0 C2.33 0.66 2.66 1.32 3 2 C3.66 1.34 4.32 0.68 5 0 C5 1.98 5 3.96 5 6 C3.33333333 6 1.66666667 6 0 6 C0 4.02 0 2.04 0 0 Z " fill="#B7B5B4" transform="translate(184,432)"/>
<path d="M0 0 C1.65 0 3.3 0 5 0 C5 0.99 5 1.98 5 3 C5.66 3.33 6.32 3.66 7 4 C5.1875 4.625 5.1875 4.625 3 5 C2.01 4.34 1.02 3.68 0 3 C0 2.01 0 1.02 0 0 Z " fill="#B7B5B5" transform="translate(164,434)"/>
<path d="M0 0 C0.99 0 1.98 0 3 0 C3 1.98 3 3.96 3 6 C1.35 5.67 -0.3 5.34 -2 5 C-1.34 3.35 -0.68 1.7 0 0 Z " fill="#C1BDBC" transform="translate(78,402)"/>
<path d="M0 0 C2.475 0.99 2.475 0.99 5 2 C5 2.99 5 3.98 5 5 C3.02 5 1.04 5 -1 5 C-1 2 -1 2 0 0 Z " fill="#B9B8B8" transform="translate(111,359)"/>
<path d="M0 0 C0 0.33 0 0.66 0 1 C-1.7015625 1.4640625 -1.7015625 1.4640625 -3.4375 1.9375 C-6.78775099 2.62924531 -6.78775099 2.62924531 -8 4 C-9.66617115 4.04063832 -11.33388095 4.042721 -13 4 C-8.74504132 -0.44836589 -5.9812469 -0.09647172 0 0 Z " fill="#5A5356" transform="translate(62,360)"/>
<path d="M0 0 C1.32 0 2.64 0 4 0 C4 1.65 4 3.3 4 5 C2.68 5 1.36 5 0 5 C0 3.35 0 1.7 0 0 Z " fill="#737170" transform="translate(62,317)"/>
<path d="M0 0 C1.4540625 0.0309375 1.4540625 0.0309375 2.9375 0.0625 C1.9475 0.5575 1.9475 0.5575 0.9375 1.0625 C0.9375 2.0525 0.9375 3.0425 0.9375 4.0625 C-0.3825 4.3925 -1.7025 4.7225 -3.0625 5.0625 C-3.625 3.125 -3.625 3.125 -4.0625 1.0625 C-3.0625 0.0625 -3.0625 0.0625 0 0 Z " fill="#BEBCBB" transform="translate(41.0625,305.9375)"/>
<path d="M0 0 C0.928125 0.2784375 0.928125 0.2784375 1.875 0.5625 C4.04160178 1.23686176 4.04160178 1.23686176 6 0 C6 1.65 6 3.3 6 5 C4.35 5 2.7 5 1 5 C0.67 3.35 0.34 1.7 0 0 Z " fill="#C3C1C1" transform="translate(163,306)"/>
<path d="M0 0 C0.99 0.33 1.98 0.66 3 1 C3 2.65 3 4.3 3 6 C1.68 6 0.36 6 -1 6 C-1.042721 4.33388095 -1.04063832 2.66617115 -1 1 C-0.67 0.67 -0.34 0.34 0 0 Z " fill="#6C6A69" transform="translate(81,289)"/>
<path d="M0 0 C1.98 0 3.96 0 6 0 C6.33 0.99 6.66 1.98 7 3 C4.36 3 1.72 3 -1 3 C-0.67 2.01 -0.34 1.02 0 0 Z " fill="#8E8C8C" transform="translate(161,289)"/>
<path d="M0 0 C2.475 0.99 2.475 0.99 5 2 C5 2.99 5 3.98 5 5 C3.02 5 1.04 5 -1 5 C-1 2 -1 2 0 0 Z " fill="#BEBDBD" transform="translate(111,204)"/>
<path d="M0 0 C0.99 0.33 1.98 0.66 3 1 C3 2.32 3 3.64 3 5 C0.69 4.67 -1.62 4.34 -4 4 C-3.34 3.67 -2.68 3.34 -2 3 C-2 2.34 -2 1.68 -2 1 C-1.34 0.67 -0.68 0.34 0 0 Z " fill="#C6AD77" transform="translate(75,114)"/>
<path d="M0 0 C0.99 0 1.98 0 3 0 C3 2.31 3 4.62 3 7 C2.01 6.67 1.02 6.34 0 6 C-0.38218767 4.34385343 -0.71395102 2.67542976 -1 1 C-0.67 0.67 -0.34 0.34 0 0 Z " fill="#BEA368" transform="translate(161,114)"/>
<path d="M0 0 C0.66 0 1.32 0 2 0 C2 2.97 2 5.94 2 9 C1.01 9.495 1.01 9.495 0 10 C-1.125 3.375 -1.125 3.375 0 0 Z " fill="#F1BD90" transform="translate(132,519)"/>
<path d="M0 0 C2.475 0.495 2.475 0.495 5 1 C4.67 2.32 4.34 3.64 4 5 C2.68 4.67 1.36 4.34 0 4 C0 2.68 0 1.36 0 0 Z " fill="#F8CDA8" transform="translate(129,479)"/>
<path d="M0 0 C0.99 0 1.98 0 3 0 C3 1.65 3 3.3 3 5 C1.68 5 0.36 5 -1 5 C-0.67 3.35 -0.34 1.7 0 0 Z " fill="#6E6D6C" transform="translate(184,444)"/>
<path d="M0 0 C1.65 0 3.3 0 5 0 C5 1.32 5 2.64 5 4 C2.69 4 0.38 4 -2 4 C-1.34 2.68 -0.68 1.36 0 0 Z " fill="#B0AEAE" transform="translate(158,434)"/>
<path d="M0 0 C0.33 0 0.66 0 1 0 C0.979375 0.94875 0.95875 1.8975 0.9375 2.875 C0.77448174 5.90666283 0.77448174 5.90666283 2 8 C-0.97 7.505 -0.97 7.505 -4 7 C-4 6.01 -4 5.02 -4 4 C-2.68 4 -1.36 4 0 4 C0 2.68 0 1.36 0 0 Z " fill="#71554C" transform="translate(62,371)"/>
<path d="M0 0 C0.99 0 1.98 0 3 0 C3 2.31 3 4.62 3 7 C2.01 7 1.02 7 0 7 C0 4.69 0 2.38 0 0 Z " fill="#7E7C7C" transform="translate(172,316)"/>
<path d="M0 0 C1.32 0.33 2.64 0.66 4 1 C4 2.66666667 4 4.33333333 4 6 C2.68 6 1.36 6 0 6 C0 4.02 0 2.04 0 0 Z " fill="#747372" transform="translate(174,289)"/>
<path d="M0 0 C0.99 0.33 1.98 0.66 3 1 C3 2.65 3 4.3 3 6 C1.68 5.67 0.36 5.34 -1 5 C-0.67 3.35 -0.34 1.7 0 0 Z " fill="#727171" transform="translate(184,289)"/>
<path d="M0 0 C0.99 0.33 1.98 0.66 3 1 C2.67 2.65 2.34 4.3 2 6 C1.01 6 0.02 6 -1 6 C-1.042721 4.33388095 -1.04063832 2.66617115 -1 1 C-0.67 0.67 -0.34 0.34 0 0 Z " fill="#6C6968" transform="translate(86,289)"/>
<path d="M0 0 C1.32 0.33 2.64 0.66 4 1 C3.67 2.65 3.34 4.3 3 6 C2.01 6 1.02 6 0 6 C0 4.02 0 2.04 0 0 Z " fill="#B5B4B3" transform="translate(37,432)"/>
<path d="M0 0 C1.5625 1.75 1.5625 1.75 3 4 C2.6875 6.25 2.6875 6.25 2 8 C1.01 8 0.02 8 -1 8 C-1.125 2.25 -1.125 2.25 0 0 Z " fill="#5D5757" transform="translate(42,381)"/>
<path d="M0 0 C0.33 0.66 0.66 1.32 1 2 C0.67 2.99 0.34 3.98 0 5 C0.66 5 1.32 5 2 5 C2 5.99 2 6.98 2 8 C-0.31 8 -2.62 8 -5 8 C-4.01 7.34 -3.02 6.68 -2 6 C-0.78715124 2.94570927 -0.78715124 2.94570927 0 0 Z " fill="#23304C" transform="translate(39,247)"/>
<path d="M0 0 C0.33 0 0.66 0 1 0 C1 1.98 1 3.96 1 6 C-1.64 5.67 -4.28 5.34 -7 5 C-7 4.67 -7 4.34 -7 4 C-6.030625 3.71125 -5.06125 3.4225 -4.0625 3.125 C-0.89335797 2.35785318 -0.89335797 2.35785318 0 0 Z " fill="#866654" transform="translate(62,227)"/>
<path d="M0 0 C1.32 0 2.64 0 4 0 C4 1.65 4 3.3 4 5 C2.35 4.67 0.7 4.34 -1 4 C-0.67 2.68 -0.34 1.36 0 0 Z " fill="#3C3C3C" transform="translate(32,169)"/>
<path d="M0 0 C0.66 0 1.32 0 2 0 C3.125 6.75 3.125 6.75 2 9 C1.34 9 0.68 9 0 9 C0 6.03 0 3.06 0 0 Z " fill="#656565" transform="translate(71,166)"/>
<path d="M0 0 C1.32 0 2.64 0 4 0 C4.33 0.99 4.66 1.98 5 3 C3.35 3.66 1.7 4.32 0 5 C-0.5625 3.0625 -0.5625 3.0625 -1 1 C-0.67 0.67 -0.34 0.34 0 0 Z " fill="#BEA368" transform="translate(89,114)"/>
<path d="M0 0 C0 1.98 0 3.96 0 6 C-1.32 6 -2.64 6 -4 6 C-3.625 3.5625 -3.625 3.5625 -3 1 C-1 0 -1 0 0 0 Z " fill="#BA9F61" transform="translate(193,113)"/>
<path d="M0 0 C0.66 0 1.32 0 2 0 C2.12375 0.94875 2.2475 1.8975 2.375 2.875 C2.71687177 6.08667191 2.71687177 6.08667191 5 8 C4.01 8.33 3.02 8.66 2 9 C2 8.34 2 7.68 2 7 C1.34 7 0.68 7 0 7 C0 4.69 0 2.38 0 0 Z " fill="#DECCA5" transform="translate(194,112)"/>
<path d="M0 0 C1.32 0.33 2.64 0.66 4 1 C3.6875 2.9375 3.6875 2.9375 3 5 C2.01 5.33 1.02 5.66 0 6 C0 4.02 0 2.04 0 0 Z " fill="#686766" transform="translate(112,403)"/>
<path d="M0 0 C1.32 1.32 2.64 2.64 4 4 C3.34 4.66 2.68 5.32 2 6 C1.01 6 0.02 6 -1 6 C-1.625 4.125 -1.625 4.125 -2 2 C-1.34 1.34 -0.68 0.68 0 0 Z " fill="#31A9C4" transform="translate(233,314)"/>
<path d="M0 0 C1.32 0.33 2.64 0.66 4 1 C3.67 2.65 3.34 4.3 3 6 C2.01 6 1.02 6 0 6 C0 4.02 0 2.04 0 0 Z " fill="#71706F" transform="translate(169,289)"/>
<path d="M0 0 C1.66666667 0 3.33333333 0 5 0 C5 1.65 5 3.3 5 5 C3.33333333 5 1.66666667 5 0 5 C0 3.35 0 1.7 0 0 Z " fill="#B2B0AF" transform="translate(184,278)"/>
<path d="M0 0 C2.3431213 0.25561323 4.67843403 0.59270772 7 1 C7.33 1.66 7.66 2.32 8 3 C6.02 3.66 4.04 4.32 2 5 C1.34 3.35 0.68 1.7 0 0 Z " fill="#1B3355" transform="translate(72,234)"/>
<path d="M0 0 C0.66 0 1.32 0 2 0 C0.95125002 2.62187494 0.35068687 3.79371361 -2.125 5.25 C-2.74375 5.4975 -3.3625 5.745 -4 6 C-4.66 5.01 -5.32 4.02 -6 3 C-4.35 3 -2.7 3 -1 3 C-0.67 2.01 -0.34 1.02 0 0 Z " fill="#FBDEC5" transform="translate(232,206)"/>
<path d="M0 0 C1.32 0 2.64 0 4 0 C4 1.65 4 3.3 4 5 C2.68 4.67 1.36 4.34 0 4 C0 2.68 0 1.36 0 0 Z " fill="#C0A56B" transform="translate(137,125)"/>
<path d="M0 0 C0.66 0 1.32 0 2 0 C2.33 1.98 2.66 3.96 3 6 C1.35 6.33 -0.3 6.66 -2 7 C-1.34 4.69 -0.68 2.38 0 0 Z " fill="#B79A5B" transform="translate(119,123)"/>
<path d="M0 0 C0.99 0.33 1.98 0.66 3 1 C3.6875 3.0625 3.6875 3.0625 4 5 C2.68 5.33 1.36 5.66 0 6 C0 4.02 0 2.04 0 0 Z " fill="#595756" transform="translate(80,444)"/>
<path d="M0 0 C0.33 1.32 0.66 2.64 1 4 C-1.31 4 -3.62 4 -6 4 C-6 3.34 -6 2.68 -6 2 C-4.02 1.34 -2.04 0.68 0 0 Z " fill="#E9C5B8" transform="translate(56,378)"/>
<path d="M0 0 C0.33 0 0.66 0 1 0 C1 1.65 1 3.3 1 5 C1.99 5.33 2.98 5.66 4 6 C3.01 7.32 2.02 8.64 1 10 C1 8.68 1 7.36 1 6 C0.01 5.67 -0.98 5.34 -2 5 C-1.34 3.35 -0.68 1.7 0 0 Z " fill="#5A4D4A" transform="translate(48,364)"/>
<path d="M0 0 C1.32 0 2.64 0 4 0 C4 1.32 4 2.64 4 4 C3.01 4 2.02 4 1 4 C0.67 4.66 0.34 5.32 0 6 C0 4.02 0 2.04 0 0 Z " fill="#575656" transform="translate(93,247)"/>
<path d="M0 0 C0.66 0 1.32 0 2 0 C2 2.64 2 5.28 2 8 C1.34 8 0.68 8 0 8 C-0.38063221 5.6739143 -0.71269945 3.33944736 -1 1 C-0.67 0.67 -0.34 0.34 0 0 Z " fill="#656565" transform="translate(28,167)"/>
<path d="M0 0 C1.32 0 2.64 0 4 0 C3.67 1.65 3.34 3.3 3 5 C2.01 4.67 1.02 4.34 0 4 C0 2.68 0 1.36 0 0 Z " fill="#BFA469" transform="translate(103,125)"/>
<path d="M0 0 C1.32 0 2.64 0 4 0 C4 1.32 4 2.64 4 4 C3.01 4 2.02 4 1 4 C0.67 4.66 0.34 5.32 0 6 C0 4.02 0 2.04 0 0 Z " fill="#EDA86C" transform="translate(45,71)"/>
<path d="M0 0 C1.32 0.33 2.64 0.66 4 1 C4 2.98 4 4.96 4 7 C3.34 7 2.68 7 2 7 C2 5.68 2 4.36 2 3 C1.34 3 0.68 3 0 3 C0 2.01 0 1.02 0 0 Z " fill="#F2C095" transform="translate(32,68)"/>
<path d="M0 0 C1.32 0.33 2.64 0.66 4 1 C3.67 2.65 3.34 4.3 3 6 C2.01 6 1.02 6 0 6 C0 4.02 0 2.04 0 0 Z " fill="#615F5F" transform="translate(169,444)"/>
<path d="M0 0 C1.32 0 2.64 0 4 0 C3.67 1.32 3.34 2.64 3 4 C2.34 4 1.68 4 1 4 C0.67 4.66 0.34 5.32 0 6 C0 4.02 0 2.04 0 0 Z " fill="#585857" transform="translate(93,402)"/>
<path d="M0 0 C1.32 0 2.64 0 4 0 C3.625 2.4375 3.625 2.4375 3 5 C2.01 5.495 2.01 5.495 1 6 C0.67 4.02 0.34 2.04 0 0 Z " fill="#E5E4E6" transform="translate(81,402)"/>
<path d="M0 0 C1.98 0 3.96 0 6 0 C6 1.65 6 3.3 6 5 C5.67 3.68 5.34 2.36 5 1 C4.01 1 3.02 1 2 1 C1.67 1.99 1.34 2.98 1 4 C0.34 3.67 -0.32 3.34 -1 3 C-0.67 2.01 -0.34 1.02 0 0 Z " fill="#E0DFDE" transform="translate(97,371)"/>
<path d="M0 0 C0.99 0.33 1.98 0.66 3 1 C2.67 2.32 2.34 3.64 2 5 C0.68 4.67 -0.64 4.34 -2 4 C-2 3.01 -2 2.02 -2 1 C-1.34 0.67 -0.68 0.34 0 0 Z " fill="#C4C1C0" transform="translate(46,306)"/>
<path d="M0 0 C0 0.99 0 1.98 0 3 C-2.31 3 -4.62 3 -7 3 C-7 2.34 -7 1.68 -7 1 C-4 0 -4 0 0 0 Z " fill="#848382" transform="translate(70,289)"/>
<path d="M0 0 C1.7074998 1.28062485 3.37373596 2.61767557 5 4 C5 4.66 5 5.32 5 6 C3.68 5.67 2.36 5.34 1 5 C0.67 3.35 0.34 1.7 0 0 Z " fill="#DCAC8D" transform="translate(51,228)"/>
<path d="M0 0 C1.98 0 3.96 0 6 0 C5.67 1.32 5.34 2.64 5 4 C3.35 3.67 1.7 3.34 0 3 C0 2.01 0 1.02 0 0 Z " fill="#4D4D4D" transform="translate(118,217)"/>
<path d="M0 0 C1.32 0.33 2.64 0.66 4 1 C3.67 2.32 3.34 3.64 3 5 C2.01 4.67 1.02 4.34 0 4 C0 2.68 0 1.36 0 0 Z " fill="#757574" transform="translate(113,217)"/>
<path d="M0 0 C1.98 0 3.96 0 6 0 C4.71034824 1.37562854 3.37310707 2.70766393 2 4 C1.34 4 0.68 4 0 4 C0 2.68 0 1.36 0 0 Z " fill="#EAC0AA" transform="translate(51,212)"/>
<path d="M0 0 C1.65 0 3.3 0 5 0 C4.01 0.495 4.01 0.495 3 1 C1.86649466 3.01669827 1.86649466 3.01669827 1 5 C0.34 5 -0.32 5 -1 5 C-0.67 3.35 -0.34 1.7 0 0 Z " fill="#374B50" transform="translate(76,202)"/>
<path d="M0 0 C1.32 0.33 2.64 0.66 4 1 C3.67 2.32 3.34 3.64 3 5 C2.01 4.67 1.02 4.34 0 4 C0 2.68 0 1.36 0 0 Z " fill="#BFA46A" transform="translate(37,125)"/>
<path d="M0 0 C0.99 0.33 1.98 0.66 3 1 C2.67 2.32 2.34 3.64 2 5 C1.01 5 0.02 5 -1 5 C-0.67 3.35 -0.34 1.7 0 0 Z " fill="#C0A66D" transform="translate(174,114)"/>
<path d="M0 0 C0.99 0.33 1.98 0.66 3 1 C3 2.32 3 3.64 3 5 C1.68 4.67 0.36 4.34 -1 4 C-0.67 2.68 -0.34 1.36 0 0 Z " fill="#B49654" transform="translate(141,114)"/>
</svg>
