<?xml version="1.0" encoding="UTF-8"?>
<svg version="1.1" xmlns="http://www.w3.org/2000/svg" width="368" height="397">
<path d="M0 0 C1.22872833 -0.01283524 2.45745667 -0.02567047 3.72341919 -0.03889465 C5.06284173 -0.04706565 6.40226887 -0.05450869 7.74169922 -0.0612793 C8.42060085 -0.06535482 9.09950249 -0.06943035 9.7989769 -0.07362938 C13.39609213 -0.09446032 16.99316961 -0.10877193 20.59033203 -0.11816406 C24.28208956 -0.12919148 27.97323821 -0.16355635 31.66478157 -0.20333576 C34.52349872 -0.22965025 37.38207438 -0.23786915 40.24090195 -0.24144554 C42.25591413 -0.24860767 44.27082901 -0.27498545 46.28567505 -0.30183411 C55.29315199 -0.28071266 62.06950403 1.15805272 69.73388672 5.92700195 C77.74485467 14.1668547 79.05072046 23.0778156 78.92138672 34.17700195 C78.13489746 34.19158447 77.3484082 34.20616699 76.53808594 34.22119141 C72.95703714 34.29589558 69.37689761 34.39248402 65.79638672 34.48950195 C63.94013672 34.52333984 63.94013672 34.52333984 62.04638672 34.55786133 C60.84755859 34.59331055 59.64873047 34.62875977 58.41357422 34.6652832 C56.76397705 34.70455933 56.76397705 34.70455933 55.08105469 34.74462891 C50.74711101 35.33769136 47.36974284 36.87847577 44.10888672 39.80200195 C42.26787218 43.48403103 41.80036716 47.07657467 41.92138672 51.17700195 C43.40188794 55.38474227 45.03628124 57.94012304 48.92138672 60.17700195 C52.27392173 61.23976117 55.49642728 61.37320433 58.99951172 61.4934082 C60.15966797 61.53530273 61.31982422 61.57719727 62.51513672 61.62036133 C64.32498047 61.67933594 64.32498047 61.67933594 66.17138672 61.73950195 C67.39341797 61.78268555 68.61544922 61.82586914 69.87451172 61.87036133 C72.89002592 61.9763755 75.9056212 62.07844131 78.92138672 62.17700195 C79.04130389 73.13210156 78.92368895 81.9268408 70.92138672 90.17700195 C62.14776913 98.33429103 53.1060603 98.48640463 41.58544922 98.4777832 C40.31091888 98.48206833 39.03638855 98.48635345 37.72323608 98.49076843 C35.03523848 98.4964951 32.34762696 98.49796724 29.65966797 98.49267578 C26.2416135 98.48688884 22.82410228 98.50381112 19.40613747 98.52702045 C16.11174636 98.54543042 12.81738239 98.54156982 9.52294922 98.5402832 C7.70218369 98.55409782 7.70218369 98.55409782 5.84463501 98.56819153 C-4.44568905 98.51267998 -12.81538443 97.29811766 -20.39111328 89.99731445 C-27.09727418 82.76335385 -28.4195457 75.7231097 -28.07861328 66.17700195 C-23.45861328 66.17700195 -18.83861328 66.17700195 -14.07861328 66.17700195 C-9.07861328 77.92700195 -9.07861328 77.92700195 -9.07861328 80.17700195 C-8.18029785 80.16652832 -7.28198242 80.15605469 -6.35644531 80.14526367 C-3.02796881 80.11120725 0.30032294 80.08611577 3.62890625 80.06713867 C5.07034219 80.05707232 6.51175767 80.04341815 7.953125 80.02612305 C10.02332605 80.00190184 12.09325748 79.99052554 14.16357422 79.98168945 C16.03311768 79.965979 16.03311768 79.965979 17.94042969 79.94995117 C20.92138672 80.17700195 20.92138672 80.17700195 22.92138672 82.17700195 C25.5241924 81.85658798 25.5241924 81.85658798 27.92138672 81.17700195 C28.69094808 78.83166245 28.69094808 78.83166245 28.92138672 76.17700195 C27.92138672 74.17700195 27.92138672 74.17700195 25.92138672 73.17700195 C22.60319686 73.41905544 22.60319686 73.41905544 19.92138672 75.17700195 C17.99471164 75.26448403 16.06486811 75.28397529 14.13623047 75.2746582 C12.38149414 75.26982422 12.38149414 75.26982422 10.59130859 75.26489258 C9.35960937 75.25651367 8.12791016 75.24813477 6.85888672 75.23950195 C5.00553711 75.23273438 5.00553711 75.23273438 3.11474609 75.22583008 C0.05024555 75.21399803 -3.0141605 75.19751369 -6.07861328 75.17700195 C-6.91887724 73.40944669 -7.7506005 71.63782933 -8.57861328 69.86450195 C-9.04267578 68.87836914 -9.50673828 67.89223633 -9.98486328 66.8762207 C-11.07861328 64.17700195 -11.07861328 64.17700195 -11.07861328 61.17700195 C-16.68861328 61.17700195 -22.29861328 61.17700195 -28.07861328 61.17700195 C-28.07861328 58.20700195 -28.07861328 55.23700195 -28.07861328 52.17700195 C-23.80783672 52.11905383 -19.53716092 52.08342322 -15.26611328 52.05200195 C-14.05117188 52.03524414 -12.83623047 52.01848633 -11.58447266 52.0012207 C-10.42109375 51.99477539 -9.25771484 51.98833008 -8.05908203 51.98168945 C-6.44876099 51.965979 -6.44876099 51.965979 -4.8059082 51.94995117 C-2.07861328 52.17700195 -2.07861328 52.17700195 0.92138672 54.17700195 C3.70993794 53.78128439 3.70993794 53.78128439 5.92138672 52.17700195 C5.96202504 50.5108308 5.96410772 48.843121 5.92138672 47.17700195 C3.59284208 45.97861987 3.59284208 45.97861987 0.92138672 45.17700195 C-0.06861328 45.83700195 -1.05861328 46.49700195 -2.07861328 47.17700195 C-4.8059082 47.40405273 -4.8059082 47.40405273 -8.05908203 47.37231445 C-9.80415039 47.36264648 -9.80415039 47.36264648 -11.58447266 47.3527832 C-12.79941406 47.33602539 -14.01435547 47.31926758 -15.26611328 47.30200195 C-16.49265625 47.29297852 -17.71919922 47.28395508 -18.98291016 47.2746582 C-22.01500623 47.25106212 -25.04671266 47.21814036 -28.07861328 47.17700195 C-28.07861328 44.20700195 -28.07861328 41.23700195 -28.07861328 38.17700195 C-22.46861328 38.17700195 -16.85861328 38.17700195 -11.07861328 38.17700195 C-10.74861328 36.52700195 -10.41861328 34.87700195 -10.07861328 33.17700195 C-9.43621872 31.55424622 -8.74898656 29.94845388 -8.01611328 28.36450195 C-7.65388672 27.57430664 -7.29166016 26.78411133 -6.91845703 25.9699707 C-6.64130859 25.37829102 -6.36416016 24.78661133 -6.07861328 24.17700195 C-3.4741698 24.12305491 -0.87084331 24.08335726 1.73388672 24.05200195 C2.471875 24.03524414 3.20986328 24.01848633 3.97021484 24.0012207 C7.83385098 23.96625567 9.6304234 23.98302641 12.92138672 26.17700195 C15.56770959 25.86482556 15.56770959 25.86482556 17.92138672 25.17700195 C18.7042132 23.38500724 18.7042132 23.38500724 18.92138672 21.17700195 C17.56975002 18.92944443 17.56975002 18.92944443 15.92138672 17.17700195 C12.63062675 17.55604403 12.63062675 17.55604403 9.92138672 19.17700195 C8.50568549 19.26351806 7.08579171 19.28405099 5.66748047 19.2746582 C4.81347656 19.27143555 3.95947266 19.26821289 3.07958984 19.26489258 C1.7328418 19.25232422 1.7328418 19.25232422 0.35888672 19.23950195 C-0.5428125 19.23499023 -1.44451172 19.23047852 -2.37353516 19.22583008 C-4.60862642 19.2140042 -6.84358765 19.19752415 -9.07861328 19.17700195 C-9.27197266 19.8524707 -9.46533203 20.52793945 -9.66455078 21.22387695 C-10.05513672 22.56192383 -10.05513672 22.56192383 -10.45361328 23.92700195 C-10.83646484 25.24958008 -10.83646484 25.24958008 -11.22705078 26.59887695 C-12.07861328 29.17700195 -12.07861328 29.17700195 -14.07861328 33.17700195 C-18.69861328 33.17700195 -23.31861328 33.17700195 -28.07861328 33.17700195 C-28.59366361 24.29238379 -27.3124054 16.14333503 -21.89111328 8.80200195 C-15.38857958 2.7329705 -8.80730681 0.08026798 0 0 Z " fill="#ED8F2A" transform="translate(37.07861328125,153.822998046875)"/>
<path d="M0 0 C34.475 0 34.475 0 44.6875 9.5 C50.81039804 17.36216313 50.40488414 28.80772489 50.1875 38.25 C50.16719727 39.95736328 50.16719727 39.95736328 50.14648438 41.69921875 C50.11160448 44.46635681 50.05781916 47.2332462 50 50 C45.71 50 41.42 50 37 50 C36.94392578 47.28910156 36.94392578 47.28910156 36.88671875 44.5234375 C36.82105013 42.14060456 36.7546031 39.75779298 36.6875 37.375 C36.65366211 35.59029297 36.65366211 35.59029297 36.61914062 33.76953125 C36.39223784 24.10586746 36.39223784 24.10586746 31.1875 16.25 C25.14052881 12.79458789 20.20267836 12.72026784 13 12 C13 24.54 13 37.08 13 50 C8.71 50 4.42 50 0 50 C0 33.5 0 17 0 0 Z " fill="#000000" transform="translate(157,160)"/>
<path d="M0 0 C12.21 0 24.42 0 37 0 C37.061875 5.094375 37.12375 10.18875 37.1875 15.4375 C37.22846802 17.82053345 37.22846802 17.82053345 37.27026367 20.25170898 C37.36678022 36.69999712 37.36678022 36.69999712 32.16796875 43.33984375 C31.51441406 43.86707031 30.86085937 44.39429688 30.1875 44.9375 C29.54167969 45.48277344 28.89585937 46.02804688 28.23046875 46.58984375 C22.23638656 50.37944738 16.47911278 50.25210908 9.625 50.125 C8.23474609 50.11146484 8.23474609 50.11146484 6.81640625 50.09765625 C4.54415841 50.07423101 2.2720447 50.03836473 0 50 C0 46.04 0 42.08 0 38 C1.09699219 37.96261719 2.19398438 37.92523438 3.32421875 37.88671875 C4.77867857 37.82103347 6.23310416 37.75458701 7.6875 37.6875 C8.40873047 37.66494141 9.12996094 37.64238281 9.87304688 37.61914062 C14.32341045 37.39560638 17.41817163 36.90400556 21 34 C22.70181571 31.17391124 23.27358124 28.94977115 23.4140625 25.671875 C23.46747803 24.5905127 23.46747803 24.5905127 23.52197266 23.48730469 C23.55597168 22.58399414 23.5899707 21.68068359 23.625 20.75 C23.810625 16.41875 23.810625 16.41875 24 12 C16.08 12 8.16 12 0 12 C0 8.04 0 4.08 0 0 Z " fill="#000000" transform="translate(210,160)"/>
<path d="M0 0 C1.64988318 -0.01654913 3.29969496 -0.04382591 4.94921875 -0.08203125 C7.3318386 -0.13691383 9.71277973 -0.15868945 12.09594727 -0.17333984 C12.82944901 -0.19600922 13.56295074 -0.21867859 14.31867981 -0.24203491 C18.31289571 -0.22562942 19.97994287 0.19442753 23.11230469 2.7578125 C25.94267993 6.3232324 26.29878771 7.98011992 26.33129883 12.45483398 C26.34090637 13.51966507 26.35051392 14.58449615 26.3604126 15.68159485 C26.36466248 16.83677109 26.36891235 17.99194733 26.37329102 19.18212891 C26.37899109 20.36602707 26.38469116 21.54992523 26.39056396 22.7696991 C26.40002423 25.27899275 26.406552 27.78829889 26.41040039 30.29760742 C26.42009954 34.13628858 26.45111152 37.97443303 26.48266602 41.81298828 C26.48919651 44.24853197 26.4944468 46.6840795 26.49829102 49.11962891 C26.51063782 50.26873245 26.52298462 51.417836 26.53570557 52.60176086 C26.53270447 53.67604843 26.52970337 54.750336 26.52661133 55.85717773 C26.53207977 57.27043083 26.53207977 57.27043083 26.53765869 58.7122345 C25.95477774 62.89615515 24.19760173 65.53248171 20.92382812 68.13769531 C17.49007052 69.64953504 14.86017601 69.73825898 11.11157227 69.74853516 C10.11141335 69.75284042 10.11141335 69.75284042 9.09104919 69.75723267 C7.68666734 69.75926581 6.28225669 69.75378844 4.87792969 69.74121094 C2.74226716 69.72516977 0.60850396 69.74106963 -1.52709961 69.76025391 C-2.89754645 69.75827084 -4.26799212 69.75442586 -5.63842773 69.74853516 C-6.87391357 69.74515137 -8.10939941 69.74176758 -9.38232422 69.73828125 C-13.16384306 69.31248882 -15.59100614 68.31576834 -18.82983398 66.35009766 C-20.63918821 63.71830969 -20.82983398 62.58892106 -20.82983398 59.35009766 C-17.45483398 59.22509766 -17.45483398 59.22509766 -13.82983398 59.35009766 C-13.16983398 60.01009766 -12.50983398 60.67009766 -11.82983398 61.35009766 C-8.94841264 61.64548433 -8.94841264 61.64548433 -5.57983398 61.58056641 C-3.70811523 61.57766602 -3.70811523 61.57766602 -1.79858398 61.57470703 C-0.48889648 61.56246094 0.82079102 61.55021484 2.17016602 61.53759766 C4.13469727 61.53663086 4.13469727 61.53663086 6.13891602 61.53564453 C12.33817089 61.84983736 12.33817089 61.84983736 18.17016602 60.35009766 C18.17016602 43.19009766 18.17016602 26.03009766 18.17016602 8.35009766 C7.94016602 8.35009766 -2.28983398 8.35009766 -12.82983398 8.35009766 C-13.15983398 13.63009766 -13.48983398 18.91009766 -13.82983398 24.35009766 C-16.13983398 24.35009766 -18.44983398 24.35009766 -20.82983398 24.35009766 C-20.93812713 21.45325607 -21.01727353 18.56048747 -21.07983398 15.66259766 C-21.11334961 14.84597656 -21.14686523 14.02935547 -21.18139648 13.18798828 C-21.24845415 9.04717759 -21.18830173 6.92260916 -18.93920898 3.33056641 C-13.9636945 -1.34088886 -6.47666439 0.04762726 0 0 Z " fill="#EC8A25" transform="translate(331.829833984375,196.64990234375)"/>
<path d="M0 0 C2.26761922 -0.01724333 4.53379135 -0.06113608 6.80102539 -0.10522461 C8.24046779 -0.11534919 9.67992258 -0.12386603 11.11938477 -0.13061523 C12.43156982 -0.14519775 13.74375488 -0.15978027 15.09570312 -0.17480469 C18.34204102 0.29516602 18.34204102 0.29516602 20.26855469 2.11474609 C21.80313024 5.23171091 21.739011 7.83855509 21.71704102 11.29516602 C21.72864258 13.12047852 21.72864258 13.12047852 21.74047852 14.98266602 C21.30317559 18.61828252 20.95496628 19.79501685 18.34204102 22.29516602 C15.23510742 22.796875 15.23510742 22.796875 11.44360352 22.79125977 C10.77162933 22.792715 10.09965515 22.79417023 9.40731812 22.79566956 C7.98675195 22.79401115 6.56616772 22.78245592 5.14575195 22.76171875 C2.98122951 22.73285522 0.81917165 22.74108966 -1.34545898 22.75415039 C-2.7282833 22.74790954 -4.11109992 22.73951588 -5.49389648 22.72875977 C-6.74734863 22.71901123 -8.00080078 22.7092627 -9.29223633 22.69921875 C-12.88318512 22.26812777 -14.77398516 21.42796066 -17.65795898 19.29516602 C-19.98562377 16.30245414 -20.0698156 13.06335698 -19.98608398 9.33032227 C-19.44969046 6.00340527 -17.76947841 3.84141003 -15.65795898 1.29516602 C-11.15166711 -0.95797992 -5.01251504 0.02660744 0 0 Z M-12.40795898 6.42016602 C-14.25039025 9.18381291 -14.13081371 11.05273364 -13.65795898 14.29516602 C-12.08100266 16.37372682 -12.08100266 16.37372682 -9.65795898 17.29516602 C-7.0225839 17.30151848 -7.0225839 17.30151848 -4.65795898 16.29516602 C-2.51033715 13.07373326 -2.09689099 12.03561932 -2.65795898 8.29516602 C-4.3311221 6.37361909 -4.3311221 6.37361909 -6.65795898 5.29516602 C-10.4439091 4.93466095 -10.4439091 4.93466095 -12.40795898 6.42016602 Z " fill="#ED8C27" transform="translate(100.657958984375,190.704833984375)"/>
<path d="M0 0 C4.29 0 8.58 0 13 0 C13 16.5 13 33 13 50 C8.71 50 4.42 50 0 50 C0 33.5 0 17 0 0 Z " fill="#000000" transform="translate(250,160)"/>
<path d="M0 0 C4.29 0 8.58 0 13 0 C13 16.5 13 33 13 50 C8.71 50 4.42 50 0 50 C0 33.5 0 17 0 0 Z " fill="#000000" transform="translate(140,160)"/>
<path d="M0 0 C6.31125 -0.061875 6.31125 -0.061875 12.75 -0.125 C14.0709668 -0.14320801 15.39193359 -0.16141602 16.75292969 -0.18017578 C17.79868164 -0.1851709 18.84443359 -0.19016602 19.921875 -0.1953125 C20.99018555 -0.20578613 22.05849609 -0.21625977 23.15917969 -0.22705078 C26.00975926 0.00078 27.63077675 0.43312252 30 2 C31.55546612 5.11093224 31.01719109 8.26078292 30.9375 11.6875 C30.83764219 14.02768893 30.83764219 14.02768893 32 16 C32.49332532 19.69993991 32.32169331 21.48074916 30.33984375 24.6796875 C26.67789164 28.1366796 22.0763213 27.50522782 17.32104492 27.45043945 C15.9569751 27.40491943 14.59290527 27.35939941 13.1875 27.3125 C8.835625 27.209375 4.48375 27.10625 0 27 C0 18.09 0 9.18 0 0 Z M6 6 C6 7.65 6 9.3 6 11 C8.62506802 11.02690844 11.24986173 11.04679404 13.875 11.0625 C14.62136719 11.07087891 15.36773437 11.07925781 16.13671875 11.08789062 C20.19845578 11.20688084 20.19845578 11.20688084 24 10 C24 8.68 24 7.36 24 6 C18.06 6 12.12 6 6 6 Z M6 16 C6 17.98 6 19.96 6 22 C8.79192205 22.05380578 11.5828141 22.09357669 14.375 22.125 C15.1690625 22.14175781 15.963125 22.15851563 16.78125 22.17578125 C18.85492015 22.19335473 20.92883241 22.10335168 23 22 C23.66 21.34 24.32 20.68 25 20 C24.67 18.68 24.34 17.36 24 16 C18.06 16 12.12 16 6 16 Z " fill="#000000" transform="translate(217,225)"/>
<path d="M0 0 C6.14077994 0 6.74160487 0.05166158 11.125 3.5625 C14.21470247 6.261598 14.21470247 6.261598 18.03125 6.90625 C21.19095478 5.45178272 23.81465248 3.35825564 26.5859375 1.27734375 C29 0 29 0 35 0 C35 8.91 35 17.82 35 27 C33.02 27 31.04 27 29 27 C29 21.06 29 15.12 29 9 C27.02 10.32 25.04 11.64 23 13 C22.34 13 21.68 13 21 13 C21 17.62 21 22.24 21 27 C18.69 27 16.38 27 14 27 C13.98582031 26.02417969 13.97164062 25.04835937 13.95703125 24.04296875 C13.90933594 22.77066406 13.86164063 21.49835938 13.8125 20.1875 C13.77769531 18.92292969 13.74289063 17.65835938 13.70703125 16.35546875 C13.35705078 14.69451172 13.35705078 14.69451172 13 13 C11.35 12.01 9.7 11.02 8 10 C7.67 15.61 7.34 21.22 7 27 C4.69 27 2.38 27 0 27 C0 18.09 0 9.18 0 0 Z " fill="#000000" transform="translate(138,225)"/>
<path d="M0 0 C9.9 0 19.8 0 30 0 C30 1.98 30 3.96 30 6 C22.41 6 14.82 6 7 6 C7 7.65 7 9.3 7 11 C13.6 11 20.2 11 27 11 C27 12.65 27 14.3 27 16 C20.4 16 13.8 16 7 16 C7 17.98 7 19.96 7 22 C14.59 22 22.18 22 30 22 C30 23.65 30 25.3 30 27 C20.1 27 10.2 27 0 27 C0 18.09 0 9.18 0 0 Z " fill="#000000" transform="translate(292,225)"/>
<path d="M0 0 C0.79470703 -0.020625 1.58941406 -0.04125 2.40820312 -0.0625 C8.24463413 -0.10111989 12.50672686 0.84654822 17 4.875 C19.5286776 9.9323552 19.62679456 14.67370777 18.125 20.0625 C15.80019211 23.88718395 14.1590551 25.18019177 10.1875 27.25 C6.81660332 27.79059849 3.53171712 27.76475547 0.125 27.6875 C-0.75994141 27.69458984 -1.64488281 27.70167969 -2.55664062 27.70898438 C-7.44607278 27.66130049 -10.85606617 27.42913839 -14.8125 24.25 C-17.70332033 20.94620533 -18.72879043 18.35915182 -19.0625 13.9375 C-18.73013399 9.03510134 -17.48598168 5.76659278 -13.8125 2.4375 C-9.31877713 -0.23064795 -5.05465389 0.03232393 0 0 Z M-10.8125 8.25 C-12.34096661 11.30693322 -12.04492445 13.87984547 -11.8125 17.25 C-10.05234869 20.4350357 -9.31359084 21.08296972 -5.8125 22.25 C3.27403317 23.01543718 3.27403317 23.01543718 11.1875 19.25 C12.43736931 15.70368406 12.48665872 12.51311459 11.625 8.875 C8.57997318 5.43279577 4.62751471 5.2849218 0.25 4.9375 C-4.01608253 5.04415206 -7.0564508 6.2569943 -10.8125 8.25 Z " fill="#000000" transform="translate(194.8125,224.75)"/>
<path d="M0 0 C1.4375 2.4375 1.4375 2.4375 3.4375 9.4375 C-12.0725 9.4375 -27.5825 9.4375 -43.5625 9.4375 C-41.19036683 7.06536683 -39.43433967 6.57026039 -36.2578125 5.52734375 C-35.19949219 5.17736328 -34.14117187 4.82738281 -33.05078125 4.46679688 C-31.94089844 4.10650391 -30.83101562 3.74621094 -29.6875 3.375 C-28.58535156 3.01083984 -27.48320313 2.64667969 -26.34765625 2.27148438 C-6.80747136 -4.15089717 -6.80747136 -4.15089717 0 0 Z " fill="#ED8A25" transform="translate(96.5625,140.5625)"/>
<path d="M0 0 C2.31 0 4.62 0 7 0 C7 7.26 7 14.52 7 22 C13.27 22 19.54 22 26 22 C26 23.65 26 25.3 26 27 C17.42 27 8.84 27 0 27 C0 18.09 0 9.18 0 0 Z " fill="#000000" transform="translate(263,225)"/>
<path d="M0 0 C3.20324907 1.70839951 4.77713961 3.5252425 6.8125 6.5 C0.28884477 9.03133448 -6.3138098 11.18944931 -13 13.25 C-14.03576172 13.57871094 -15.07152344 13.90742188 -16.13867188 14.24609375 C-17.13060547 14.55160156 -18.12253906 14.85710937 -19.14453125 15.171875 C-20.04147705 15.4512793 -20.93842285 15.73068359 -21.86254883 16.01855469 C-24.1875 16.5 -24.1875 16.5 -27.1875 15.5 C-24.50968374 13.38327577 -21.81863986 11.28403855 -19.125 9.1875 C-18.37283203 8.59259766 -17.62066406 7.99769531 -16.84570312 7.38476562 C-6.08403936 -0.95435911 -6.08403936 -0.95435911 0 0 Z " fill="#ED8C27" transform="translate(66.1875,131.5)"/>
<path d="M0 0 C2.31 0 4.62 0 7 0 C7 8.91 7 17.82 7 27 C4.69 27 2.38 27 0 27 C0 18.09 0 9.18 0 0 Z " fill="#000000" transform="translate(252,225)"/>
<path d="M0 0 C1.98 0.66 3.96 1.32 6 2 C6.125 4.875 6.125 4.875 6 8 C4 10 4 10 0.875 10.125 C-0.07375 10.08375 -1.0225 10.0425 -2 10 C-2.66 8.02 -3.32 6.04 -4 4 C-2.68 2.68 -1.36 1.36 0 0 Z " fill="#000000" transform="translate(333,243)"/>
</svg>
