<?xml version="1.0" encoding="UTF-8"?>
<svg version="1.1" xmlns="http://www.w3.org/2000/svg" width="269" height="562">
<path d="M0 0 C88.77 0 177.54 0 269 0 C269 185.46 269 370.92 269 562 C180.23 562 91.46 562 0 562 C0 376.54 0 191.08 0 0 Z " fill="#FBFBFB" transform="translate(0,0)"/>
<path d="M0 0 C84.48 0 168.96 0 256 0 C256.103125 25.28625 256.20625 50.5725 256.3125 76.625 C256.38078003 88.60288818 256.38078003 88.60288818 256.45043945 100.82275391 C256.47302246 110.57104492 256.47302246 110.57104492 256.47721863 115.13412476 C256.48187852 118.32237125 256.50062112 121.51020181 256.52787781 124.69833374 C256.56219557 128.76631941 256.57245219 132.83370104 256.56536138 136.90181804 C256.56684388 138.39396252 256.57674703 139.88612829 256.59607565 141.37814832 C256.62099931 143.39595815 256.6119528 145.41410186 256.60127258 147.43203735 C256.60588155 148.56215555 256.61049051 149.69227375 256.61523914 150.85663795 C255.82066071 154.91627514 254.41645239 157.67284697 251 160 C247.70872885 160.86186428 244.52510845 160.80615062 241.13795471 160.75517273 C240.13744565 160.76382711 239.1369366 160.77248149 238.10610908 160.78139812 C234.7493005 160.80301093 231.39414483 160.78168102 228.03735352 160.76049805 C225.63258064 160.76699021 223.22781351 160.77605048 220.82305908 160.78749084 C214.96679772 160.80820147 209.1109723 160.80083981 203.25474853 160.77998998 C198.49468157 160.76370398 193.73474485 160.75950687 188.97465324 160.76395607 C188.29709953 160.76458675 187.61954581 160.76521742 186.92146016 160.76586721 C185.54499719 160.76721327 184.16853424 160.76859284 182.79207134 160.77000556 C169.88465125 160.78194271 156.97749272 160.75787632 144.07013219 160.72098748 C132.99775259 160.69010137 121.92567423 160.68771989 110.85327148 160.70678711 C97.99354529 160.72890671 85.13398795 160.73503608 72.27425331 160.71446449 C70.9025564 160.71230157 69.53085947 160.71015247 68.15916252 160.70801735 C67.14683082 160.7064178 67.14683082 160.7064178 66.11404796 160.70478594 C61.36085249 160.69831972 56.60774398 160.70307879 51.85455513 160.71204185 C45.4547235 160.72368705 39.05529143 160.70848846 32.65553284 160.67529869 C30.30534204 160.66708313 27.95510392 160.66738517 25.60491753 160.67677689 C22.39904019 160.68818187 19.19477744 160.66885759 15.98902893 160.64164734 C15.05663425 160.65211883 14.12423956 160.66259032 13.16359049 160.67337912 C8.97891802 160.60710999 5.8682239 160.37711791 2.42078114 157.86525154 C-0.47559628 154.4370813 -0.7430873 152.95213543 -0.7215271 148.514328 C-0.72979208 147.20597835 -0.73805706 145.89762869 -0.74657249 144.54963207 C-0.72529385 143.10103267 -0.70346649 141.65244124 -0.68115234 140.20385742 C-0.67931369 138.65134172 -0.6801164 137.098821 -0.68334389 135.54630756 C-0.68469738 131.39207959 -0.64994871 127.23889053 -0.60768127 123.08490753 C-0.57348649 119.18568176 -0.57190138 115.28670743 -0.56762695 111.3873291 C-0.53615499 99.98724869 -0.45238779 88.58736119 -0.375 77.1875 C-0.25125 51.715625 -0.1275 26.24375 0 0 Z " fill="#FAFAFA" transform="translate(7,402)"/>
<path d="M0 0 C88.77 0 177.54 0 269 0 C269 185.46 269 370.92 269 562 C265.37 562 261.74 562 258 562 C258.649296 561.14546423 259.298592 560.29092846 259.96756363 559.41049767 C262.20845421 555.65020671 262.504885 553.75274888 262.51898193 549.43203735 C262.53288845 548.13070673 262.54679497 546.82937611 262.56112289 545.48861122 C262.55639765 544.05311592 262.55130921 542.61762178 262.54589844 541.18212891 C262.55470137 539.63949223 262.56524932 538.09686469 262.57739639 536.55425072 C262.60505989 532.43151401 262.60890954 528.30908012 262.60775757 524.18626404 C262.61030359 520.31442054 262.63441746 516.44282708 262.65673828 512.57104492 C262.70944784 501.25577668 262.72762362 489.94036889 262.75 478.625 C262.8325 453.33875 262.915 428.0525 263 402 C178.52 402 94.04 402 7 402 C7.061875 427.471875 7.12375 452.94375 7.1875 479.1875 C7.19418701 487.23406982 7.20087402 495.28063965 7.20776367 503.57104492 C7.23763421 510.77599416 7.23763421 510.77599416 7.27412415 517.98091125 C7.29021577 521.1932861 7.29230298 524.40534459 7.28596497 527.61775208 C7.27833829 531.71488503 7.2945328 535.81127241 7.32801688 539.90826857 C7.33624482 541.41217265 7.33608706 542.9161514 7.32660902 544.42004812 C7.31500888 546.45147353 7.33703387 548.48300807 7.36076355 550.514328 C7.36352893 551.65274234 7.36629431 552.79115667 7.36914349 553.96406841 C8.18800516 557.90475533 9.98794116 559.43533613 13 562 C8.71 562 4.42 562 0 562 C0 376.54 0 191.08 0 0 Z M17.07421875 15.68359375 C16.61660156 16.26238281 16.15898437 16.84117188 15.6875 17.4375 C14.98173828 18.30181641 14.98173828 18.30181641 14.26171875 19.18359375 C11.40727345 23.29293451 10.75045275 26.16192147 10.75390434 31.20814896 C10.74992225 32.49103593 10.74594015 33.77392291 10.74183738 35.09568524 C10.74754352 36.52238871 10.75343471 37.94909144 10.75949097 39.37579346 C10.75861909 40.88892335 10.75686844 42.40205294 10.75431263 43.91518092 C10.7498316 48.07915804 10.75785316 52.24303267 10.76786876 56.40699673 C10.77649008 60.89503925 10.77358403 65.3830758 10.77206421 69.87112427 C10.77101452 77.64897282 10.77729987 85.42678787 10.78853989 93.20462799 C10.80478058 104.45013282 10.81000143 115.69562141 10.81251587 126.94113669 C10.81689522 145.18537636 10.83021083 163.42959816 10.84912109 181.67382812 C10.86747368 199.3984366 10.8816103 217.12304021 10.89013672 234.84765625 C10.89067271 235.95099037 10.89120871 237.05432448 10.89176095 238.19109297 C10.89591969 246.81964166 10.89983357 255.44819047 10.90367007 264.07673931 C10.92254405 306.38450927 10.96277909 348.69223452 11 391 C92.51 391 174.02 391 258 391 C258.08738617 326.29785741 258.08738617 326.29785741 258.14648438 261.59570312 C258.15235812 252.87703433 258.15841961 244.1583657 258.16479492 235.43969727 C258.16558617 234.34693224 258.16637741 233.25416721 258.16719264 232.12828809 C258.18024573 214.47920839 258.20390004 196.83015798 258.23145839 179.18109565 C258.25949858 161.07261496 258.27617333 142.96414961 258.28226548 124.8556481 C258.2863848 113.67892246 258.29940217 102.50227954 258.3237494 91.32557935 C258.33958947 83.66455563 258.34440428 76.00357476 258.34050413 68.34253585 C258.3385799 63.92045502 258.34155983 59.49851889 258.35761642 55.0764637 C258.37220961 51.0279119 258.37295618 46.97960219 258.36269668 42.93103928 C258.36142858 41.46658577 258.36523912 40.00211719 258.37464955 38.53769337 C258.62761303 26.97816829 258.62761303 26.97816829 253.3515625 17.07421875 C252.78179687 16.61660156 252.21203125 16.15898437 251.625 15.6875 C251.06039062 15.21699219 250.49578125 14.74648437 249.9140625 14.26171875 C245.82559029 11.56666462 242.24457432 10.75059966 237.38354492 10.77294922 C236.28278122 10.77310028 235.18201752 10.77325134 234.04789734 10.77340698 C232.8706459 10.78372955 231.69339447 10.79405212 230.48046875 10.8046875 C228.65990715 10.80893234 228.65990715 10.80893234 226.80256653 10.81326294 C222.93077689 10.82444692 219.05921959 10.8495487 215.1875 10.875 C212.56055022 10.88503208 209.93359681 10.89415754 207.30664062 10.90234375 C200.87101464 10.92438046 194.43552392 10.95784059 188 11 C187.690625 12.093125 187.38125 13.18625 187.0625 14.3125 C186.41662103 16.55407994 185.7376883 18.7869351 185 21 C181.03165636 22.32278121 177.2312625 22.14743904 173.09399414 22.14526367 C172.1831456 22.14862228 171.27229706 22.1519809 170.33384705 22.15544128 C167.31760298 22.16495395 164.30141439 22.1668945 161.28515625 22.16796875 C159.191523 22.1711809 157.09788998 22.17454494 155.0042572 22.17805481 C150.6135913 22.18404672 146.22294509 22.18589462 141.83227539 22.18530273 C136.20190608 22.18520106 130.57166272 22.19885839 124.94132328 22.21607494 C120.61681028 22.22718428 116.29232785 22.22922228 111.96780205 22.22869301 C109.89174401 22.22987454 107.81568521 22.23430596 105.73964119 22.24202538 C102.83813736 22.25180451 99.93690849 22.24895549 97.03540039 22.24291992 C96.17552521 22.24853943 95.31565002 22.25415894 94.42971802 22.25994873 C93.63762436 22.25575424 92.8455307 22.25155975 92.0294342 22.24723816 C91.00102716 22.24805531 91.00102716 22.24805531 89.95184422 22.24888897 C87.59876025 21.948836 86.00936292 21.25010552 84 20 C83.171875 17.8359375 83.171875 17.8359375 82.75 15.375 C82.60046875 14.55773437 82.4509375 13.74046875 82.296875 12.8984375 C82.19890625 12.27195312 82.1009375 11.64546875 82 11 C74.15297684 10.92379965 66.30604948 10.87133671 58.45874023 10.83520508 C55.79026928 10.82183639 53.12228282 10.79968395 50.45385742 10.77368164 C46.61370748 10.73720415 42.77388562 10.72025141 38.93359375 10.70703125 C37.74479111 10.69154739 36.55598846 10.67606354 35.3311615 10.66011047 C28.26066069 10.65868081 22.61384285 10.84063637 17.07421875 15.68359375 Z " fill="#000000" transform="translate(0,0)"/>
<path d="M0 0 C0.83349126 -0.00538554 1.66698252 -0.01077108 2.52573109 -0.01631981 C5.32874473 -0.03066882 8.13129073 -0.02347868 10.93432617 -0.01637268 C12.93973167 -0.02207258 14.94513391 -0.02903536 16.95053101 -0.03717041 C22.40497283 -0.05515788 27.85925428 -0.05392307 33.31371689 -0.04822803 C37.86174721 -0.04514456 42.40974636 -0.05121914 46.95777225 -0.05726677 C57.68338156 -0.07132844 68.40891123 -0.06973676 79.13452148 -0.05836487 C90.21304579 -0.04687863 101.29132817 -0.06096417 112.36982059 -0.08776134 C121.87050366 -0.10988469 131.37111059 -0.11656343 140.87181759 -0.11068493 C146.55104806 -0.10730649 152.23012337 -0.10978924 157.90933228 -0.12693596 C163.24783213 -0.14234972 168.5859722 -0.13851167 173.92445755 -0.11963081 C175.88729405 -0.1159296 177.85015687 -0.11909766 179.81296921 -0.1295166 C182.48559693 -0.14262373 185.15701534 -0.13127133 187.82958984 -0.11352539 C189.0040427 -0.1279329 189.0040427 -0.1279329 190.20222187 -0.14263147 C195.42703196 -0.07088775 195.42703196 -0.07088775 197.89585876 2.25016689 C199.20831458 5.00342239 199.30299468 7.09390798 199.31323242 10.1415863 C199.31709961 11.24309021 199.3209668 12.34459412 199.32495117 13.47947693 C199.30754883 15.19747498 199.30754883 15.19747498 199.28979492 16.95018005 C199.30139648 18.09937927 199.31299805 19.24857849 199.32495117 20.43260193 C199.32108398 21.53281677 199.3172168 22.63303162 199.31323242 23.7665863 C199.30984863 24.77278015 199.30646484 25.778974 199.30297852 26.81565857 C198.91479492 29.38768005 198.91479492 29.38768005 197.89585876 31.02462196 C194.78049093 33.16813053 191.48014987 32.79983294 187.82958984 32.76863098 C186.57935296 32.77565094 186.57935296 32.77565094 185.30385876 32.78281271 C182.5008336 32.79481342 179.69829277 32.78528576 176.89526367 32.77586365 C174.88985915 32.7799271 172.88445686 32.78526769 170.87905884 32.79179382 C165.42460798 32.80550019 159.97032687 32.80015507 154.51587296 32.79065657 C148.81575299 32.78307715 143.11564786 32.79010079 137.41552734 32.79481506 C127.84201439 32.80027763 118.26857079 32.79306785 108.69506836 32.77879333 C97.61657878 32.76246589 86.53825481 32.76775404 75.45976925 32.78427255 C65.95908913 32.79787313 56.45845896 32.79981407 46.95777225 32.79195654 C41.27857307 32.78727217 35.5994518 32.78667614 29.92025757 32.79656601 C24.58180336 32.80521263 19.2435633 32.79925599 13.90513229 32.78188324 C11.9422987 32.77790605 9.97944717 32.77907338 8.01662064 32.78567123 C5.3441679 32.79382826 2.67240817 32.78363629 0 32.76863098 C-1.17445285 32.77866923 -1.17445285 32.77866923 -2.37263203 32.78891027 C-7.58245628 32.7318854 -7.58245628 32.7318854 -10.06626892 31.03135109 C-11.61422257 28.53430889 -11.47428887 26.42747353 -11.48364258 23.51268005 C-11.48750977 22.3628363 -11.49137695 21.21299255 -11.49536133 20.02830505 C-11.48375977 18.8268988 -11.4721582 17.62549255 -11.46020508 16.38768005 C-11.47180664 15.1862738 -11.4834082 13.98486755 -11.49536133 12.74705505 C-11.49149414 11.5972113 -11.48762695 10.44736755 -11.48364258 9.26268005 C-11.48025879 8.20822693 -11.476875 7.1537738 -11.47338867 6.06736755 C-11.08520508 3.38768005 -11.08520508 3.38768005 -10.06626892 1.74442959 C-6.9494331 -0.39016369 -3.6480097 -0.02800202 0 0 Z " fill="#C93B3B" transform="translate(41.085205078125,193.61231994628906)"/>
<path d="M0 0 C4.40830916 2.16407904 7.12843553 4.42506462 9 9 C9.53218983 14.58799317 9.25015553 18.23310522 6 23 C2.43861109 26.30079948 -0.31718366 27.2750859 -5.0625 27.4375 C-9.16639045 27.2406117 -11.873619 26.85052386 -15 24 C-18.40324775 19.21705721 -19.85743959 16.00207711 -19 10 C-17.61770638 6.42229886 -15.72892367 3.66460687 -12.875 1.0625 C-8.54729994 -0.53686742 -4.55432641 -0.656874 0 0 Z " fill="#E9F6E0" transform="translate(49,149)"/>
<path d="M0 0 C4.28712087 2.26965223 7.52115655 4.80503416 10 9 C10.62409585 14.61686269 10.18169427 18.1726018 7 23 C3.52635053 26.78014795 0.26666292 27.82857761 -4.72265625 28.15234375 C-8.58286134 27.89411391 -11.20313013 26.65920011 -14 24 C-16.52493188 20.48152983 -17.8174713 17.14080435 -18.5 12.875 C-17.69864068 8.26718391 -15.41168221 5.24056922 -11.9375 2.1875 C-7.97750777 -0.23959201 -4.55426632 -0.38595477 0 0 Z " fill="#FAEEEE" transform="translate(48,326)"/>
<path d="M0 0 C1.13888672 -0.02320313 1.13888672 -0.02320313 2.30078125 -0.046875 C5.83235725 -0.02213541 7.95335954 0.16622576 11.0078125 2.03125 C13.08926018 5.47490165 13.00916268 8.60222099 12.875 12.5 C12.87371094 13.2115625 12.87242188 13.923125 12.87109375 14.65625 C12.80870256 18.37199201 12.67895919 21.40927775 10.5 24.5 C7.37150741 26.06424629 4.05569916 25.68446398 0.625 25.6875 C-0.09558594 25.69974609 -0.81617188 25.71199219 -1.55859375 25.72460938 C-8.36708732 25.74341737 -8.36708732 25.74341737 -11.5 23.5 C-13.12841701 20.24316597 -12.76795577 16.70041665 -12.8125 13.125 C-12.84150391 12.35671875 -12.87050781 11.5884375 -12.90039062 10.796875 C-12.94034196 7.24427942 -12.85064439 5.09084959 -11.01171875 1.9921875 C-7.34965578 -0.18340823 -4.18507018 -0.08526459 0 0 Z " fill="#FAEFEE" transform="translate(31.5,55.5)"/>
<path d="M0 0 C1.15145508 0.00193359 1.15145508 0.00193359 2.32617188 0.00390625 C6.18523854 0.06446702 8.16454896 0.19303264 11.4375 2.375 C11.82568359 4.49804688 11.82568359 4.49804688 11.8359375 7.09375 C11.84173828 8.49173828 11.84173828 8.49173828 11.84765625 9.91796875 C11.83605469 10.89378906 11.82445312 11.86960937 11.8125 12.875 C11.82410156 13.85082031 11.83570313 14.82664062 11.84765625 15.83203125 C11.84378906 16.76402344 11.83992188 17.69601563 11.8359375 18.65625 C11.83086182 19.94112305 11.83086182 19.94112305 11.82568359 21.25195312 C11.63353271 22.30286133 11.63353271 22.30286133 11.4375 23.375 C7.37195018 26.08536655 4.21042457 25.7424954 -0.5625 25.75 C-1.38234375 25.77449219 -2.2021875 25.79898438 -3.046875 25.82421875 C-8.91061908 25.85296259 -8.91061908 25.85296259 -11.59765625 23.8828125 C-13.00119552 20.23474687 -13.03596399 16.72641619 -13 12.875 C-13.01998047 12.11574219 -13.03996094 11.35648438 -13.06054688 10.57421875 C-13.0575836 7.19015737 -12.81369796 4.7971704 -11.0703125 1.8671875 C-7.39282341 -0.32097579 -4.19823371 -0.1346269 0 0 Z " fill="#FAEDEC" transform="translate(238.5625,55.625)"/>
<path d="M0 0 C3 0.875 3 0.875 4.875 2.75 C6 4.875 6 4.875 6 7.875 C7.32 8.535 8.64 9.195 10 9.875 C10.125 12.25 10.125 12.25 10 14.875 C6.85733774 18.01766226 3.33862641 17.24334455 -0.9375 17.25 C-1.76185547 17.27449219 -2.58621094 17.29898438 -3.43554688 17.32421875 C-9.46708612 17.35361699 -9.46708612 17.35361699 -12.0703125 15.015625 C-13 12.875 -13 12.875 -12.9375 10.25 C-11.7683954 7.28826835 -10.80946872 7.15203124 -8 5.875 C-7.30062468 4.55852881 -6.63270867 3.22477849 -6 1.875 C-3 -0.125 -3 -0.125 0 0 Z " fill="#FCF4F4" transform="translate(43,112.125)"/>
<path d="M0 0 C0.66 0 1.32 0 2 0 C2.33 1.65 2.66 3.3 3 5 C3.33 4.01 3.66 3.02 4 2 C4.99 2.33 5.98 2.66 7 3 C7.33 2.67 7.66 2.34 8 2 C10.18639453 1.92741054 12.37500389 1.91626217 14.5625 1.9375 C16.35880859 1.95103516 16.35880859 1.95103516 18.19140625 1.96484375 C19.11824219 1.97644531 20.04507813 1.98804688 21 2 C21 1.34 21 0.68 21 0 C21.66 0 22.32 0 23 0 C23 0.66 23 1.32 23 2 C24.299375 1.7215625 24.299375 1.7215625 25.625 1.4375 C29.07151503 0.99072953 31.60523268 1.40960568 35 2 C37.27650745 1.6422386 37.27650745 1.6422386 39 1 C39 2.65 39 4.3 39 6 C36 6 33 6 30 6 C27.47487291 6.26303407 24.9571232 6.56779424 22.4375 6.87890625 C20 7 20 7 18.01953125 6.49609375 C15.42522721 5.85880823 13.33222298 6.17081242 10.6875 6.5 C6.18444946 6.9768646 2.42807222 6.88561444 -2 6 C-1.34 4.02 -0.68 2.04 0 0 Z " fill="#C0C0C0" transform="translate(66,330)"/>
<path d="M0 0 C-1.98 3.96 -3.96 7.92 -6 12 C-3.69 12 -1.38 12 1 12 C1.66 13.65 2.32 15.3 3 17 C0.89695523 17.1080023 -1.20766909 17.18558987 -3.3125 17.25 C-5.07013672 17.31960938 -5.07013672 17.31960938 -6.86328125 17.390625 C-10 17 -10 17 -11.94921875 15.16015625 C-13 13 -13 13 -12.5 10.1875 C-7.70588235 0 -7.70588235 0 0 0 Z " fill="#0CAE51" transform="translate(43,256)"/>
<path d="M0 0 C2.10353495 -0.0810206 4.20795952 -0.13919907 6.3125 -0.1875 C7.48425781 -0.22230469 8.65601563 -0.25710937 9.86328125 -0.29296875 C13 0 13 0 14.9296875 1.3828125 C16 3 16 3 15.8125 5.0625 C15 7 15 7 13 9 C9.99609375 9.23046875 9.99609375 9.23046875 6.4375 9.1875 C4.67212891 9.17783203 4.67212891 9.17783203 2.87109375 9.16796875 C0 9 0 9 -1 8 C-1.23529412 2.47058824 -1.23529412 2.47058824 0 0 Z " fill="#D5D5D5" transform="translate(237,19)"/>
<path d="M0 0 C3 0.875 3 0.875 4.875 2.75 C6 4.875 6 4.875 6 7.875 C7.32 8.535 8.64 9.195 10 9.875 C10.125 12.25 10.125 12.25 10 14.875 C8 16.875 8 16.875 5.8359375 17.0703125 C5.02382813 17.04710937 4.21171875 17.02390625 3.375 17 C2.55773438 16.98195312 1.74046875 16.96390625 0.8984375 16.9453125 C0.27195312 16.92210937 -0.35453125 16.89890625 -1 16.875 C-1.28875 15.740625 -1.5775 14.60625 -1.875 13.4375 C-2.24625 12.261875 -2.6175 11.08625 -3 9.875 C-3.66 9.545 -4.32 9.215 -5 8.875 C-4.01 7.885 -3.02 6.895 -2 5.875 C1.875 7.625 1.875 7.625 3 9.875 C2.01 9.875 1.02 9.875 0 9.875 C0 11.525 0 13.175 0 14.875 C2.64 14.545 5.28 14.215 8 13.875 C8 12.885 8 11.895 8 10.875 C6.68 10.545 5.36 10.215 4 9.875 C3.67 7.565 3.34 5.255 3 2.875 C-0.37400578 2.45774322 -0.37400578 2.45774322 -4 2.875 C-5.80787306 5.24902417 -5.80787306 5.24902417 -7 7.875 C-7.99 8.205 -8.98 8.535 -10 8.875 C-9.67 10.525 -9.34 12.175 -9 13.875 C-7.35 14.205 -5.7 14.535 -4 14.875 C-4 15.535 -4 16.195 -4 16.875 C-6.8125 17.125 -6.8125 17.125 -10 16.875 C-11.9375 15.1875 -11.9375 15.1875 -13 12.875 C-12.9375 10.25 -12.9375 10.25 -12 7.875 C-10.0625 6.8125 -10.0625 6.8125 -8 5.875 C-7.30062468 4.55852881 -6.63270867 3.22477849 -6 1.875 C-3 -0.125 -3 -0.125 0 0 Z " fill="#AF4E86" transform="translate(43,112.125)"/>
<path d="M0 0 C3.46827222 0.28902269 4.80653554 0.81671788 7.375 3.25 C9 6 9 6 8.6015625 8.671875 C8.40304688 9.44015625 8.20453125 10.2084375 8 11 C6.20866022 11.05391993 4.41686101 11.09275571 2.625 11.125 C1.62726562 11.14820313 0.62953125 11.17140625 -0.3984375 11.1953125 C-3 11 -3 11 -5 9 C-4.625 6.375 -4.625 6.375 -4 4 C-3.34 4 -2.68 4 -2 4 C-1.34 2.68 -0.68 1.36 0 0 Z " fill="#7FCA80" transform="translate(42,157)"/>
<path d="M0 0 C0.66 0 1.32 0 2 0 C7.05908096 7.87746171 7.05908096 7.87746171 6.8125 12.5625 C6.544375 13.366875 6.27625 14.17125 6 15 C5.01 15 4.02 15 3 15 C2.67 13.68 2.34 12.36 2 11 C-0.31 11 -2.62 11 -5 11 C-3.78065514 6.96678237 -2.44045073 3.45730521 0 0 Z " fill="#FCBC10" transform="translate(42,257)"/>
<path d="M0 0 C0.66 0 1.32 0 2 0 C2.33 0.66 2.66 1.32 3 2 C3.66 2.33 4.32 2.66 5 3 C5 4.32 5 5.64 5 7 C-1.6 7 -8.2 7 -15 7 C-15 5.02 -15 3.04 -15 1 C-14.67 1.66 -14.34 2.32 -14 3 C-13.34 3 -12.68 3 -12 3 C-11.67 2.34 -11.34 1.68 -11 1 C-10.67 1.99 -10.34 2.98 -10 4 C-9.67 3.34 -9.34 2.68 -9 2 C-6.03 2 -3.06 2 0 2 C0 1.34 0 0.68 0 0 Z " fill="#F3BDB2" transform="translate(133,207)"/>
<path d="M0 0 C2.1875 1.6875 2.1875 1.6875 3.1875 4.6875 C-2.4225 4.6875 -8.0325 4.6875 -13.8125 4.6875 C-13.8125 3.0375 -13.8125 1.3875 -13.8125 -0.3125 C-8.87939796 -1.47322989 -4.704167 -2.19527793 0 0 Z " fill="#F68051" transform="translate(48.8125,386.3125)"/>
<path d="M0 0 C3.04311974 0.49347888 6.01697727 1.22662374 9 2 C9 1.34 9 0.68 9 0 C9.66 0 10.32 0 11 0 C11.33 0.66 11.66 1.32 12 2 C13.32 2 14.64 2 16 2 C15.67 3.32 15.34 4.64 15 6 C15 5.01 15 4.02 15 3 C14.34 3 13.68 3 13 3 C12.67 3.99 12.34 4.98 12 6 C7.64654271 6.94128806 4.31337592 7.1898968 0 6 C-0.38218767 4.34385343 -0.71395102 2.67542976 -1 1 C-0.67 0.67 -0.34 0.34 0 0 Z " fill="#9A9A9A" transform="translate(108,342)"/>
<path d="M0 0 C0.66 0 1.32 0 2 0 C2.66 0.99 3.32 1.98 4 3 C3 6 3 6 2 8 C1.34 8 0.68 8 0 8 C-0.33 6.68 -0.66 5.36 -1 4 C-1.33 5.32 -1.66 6.64 -2 8 C-4.66666667 8 -7.33333333 8 -10 8 C-10 5.69 -10 3.38 -10 1 C-8.35 1 -6.7 1 -5 1 C-5 1.66 -5 2.32 -5 3 C-3.35 2.67 -1.7 2.34 0 2 C0 1.34 0 0.68 0 0 Z " fill="#C8C8C8" transform="translate(223,295)"/>
<path d="M0 0 C0.66 0 1.32 0 2 0 C2.33 0.99 2.66 1.98 3 3 C4.32 2.67 5.64 2.34 7 2 C6.01 2.495 6.01 2.495 5 3 C5 3.66 5 4.32 5 5 C5.99 5 6.98 5 8 5 C8.33 4.01 8.66 3.02 9 2 C12.96 2 16.92 2 21 2 C21 3.32 21 4.64 21 6 C19.02 6 17.04 6 15 6 C15.33 5.01 15.66 4.02 16 3 C15.34 3 14.68 3 14 3 C13.67 3.99 13.34 4.98 13 6 C9.79921698 7.06692767 8.22689725 6.92631363 4.9375 6.5 C1.33685205 5.91537987 1.33685205 5.91537987 -2 7 C-1.34 4.69 -0.68 2.38 0 0 Z " fill="#C1C1C1" transform="translate(109,330)"/>
<path d="M0 0 C0.33 0.99 0.66 1.98 1 3 C1.66 2.01 2.32 1.02 3 0 C3 1.65 3 3.3 3 5 C-1.62 5 -6.24 5 -11 5 C-11.33 3.35 -11.66 1.7 -12 0 C-7.47712313 -2.46702375 -4.70575781 -1.90040219 0 0 Z " fill="#C5C5C5" transform="translate(74,298)"/>
<path d="M0 0 C2.4164124 0.48328248 4.65832183 1.21944061 7 2 C7 2.66 7 3.32 7 4 C7.66 4.33 8.32 4.66 9 5 C9 4.34 9 3.68 9 3 C9.66 3 10.32 3 11 3 C11.33 2.34 11.66 1.68 12 1 C12.33 2.65 12.66 4.3 13 6 C9.57173359 8.15853811 7.85937816 7.86836009 4 7 C2.65835921 7.2981424 1.32148827 7.62243192 0 8 C-1 7 -1 7 -1.125 4 C-1 1 -1 1 0 0 Z " fill="#A6A6A6" transform="translate(155,152)"/>
<path d="M0 0 C1.67004829 0.31595508 3.33637583 0.65179959 5 1 C8.50935186 1 11.56484998 0.62457273 15 0 C15 2.31 15 4.62 15 7 C14.67 7 14.34 7 14 7 C14 5.35 14 3.7 14 2 C13.34 2.66 12.68 3.32 12 4 C9 6 9 6 6.5625 5.5625 C5.716875 5.376875 4.87125 5.19125 4 5 C1.76832815 5.36856864 1.76832815 5.36856864 0 6 C-0.38218767 4.34385343 -0.71395102 2.67542976 -1 1 C-0.67 0.67 -0.34 0.34 0 0 Z " fill="#BABABA" transform="translate(186,297)"/>
<path d="M0 0 C6.93 0.495 6.93 0.495 14 1 C14.66 2.65 15.32 4.3 16 6 C13.89695523 6.1080023 11.79233091 6.18558987 9.6875 6.25 C7.92986328 6.31960938 7.92986328 6.31960938 6.13671875 6.390625 C3 6 3 6 1.08203125 4.109375 C0 2 0 2 0 0 Z " fill="#2982F8" transform="translate(30,267)"/>
<path d="M0 0 C0.66 0 1.32 0 2 0 C2 2.64 2 5.28 2 8 C-1.3 8 -4.6 8 -8 8 C-8 5.69 -8 3.38 -8 1 C-5.69 1.33 -3.38 1.66 -1 2 C-0.67 1.34 -0.34 0.68 0 0 Z " fill="#878787" transform="translate(141,117)"/>
<path d="M0 0 C2.32158065 -0.34659295 2.32158065 -0.34659295 4 -1 C4 0.65 4 2.3 4 4 C1 4 -2 4 -5 4 C-7.00401011 4.30830925 -9.00511766 4.63729412 -11 5 C-11.33 3.35 -11.66 1.7 -12 0 C-7.7157464 -1.1684328 -4.35203283 -0.63302296 0 0 Z " fill="#B8B8B8" transform="translate(101,332)"/>
<path d="M0 0 C2.64 0 5.28 0 8 0 C8.33 0.66 8.66 1.32 9 2 C9.33 1.34 9.66 0.68 10 0 C11.32 0.33 12.64 0.66 14 1 C13.67 2.65 13.34 4.3 13 6 C12.4225 5.814375 11.845 5.62875 11.25 5.4375 C8.79307475 4.95976454 7.35602466 5.24270636 5 6 C5 5.01 5 4.02 5 3 C4.01 3.99 3.02 4.98 2 6 C1.01 5.67 0.02 5.34 -1 5 C-0.67 3.35 -0.34 1.7 0 0 Z " fill="#C0C0C0" transform="translate(129,309)"/>
<path d="M0 0 C0.66 0.66 1.32 1.32 2 2 C1.67 3.32 1.34 4.64 1 6 C-2.3 6.33 -5.6 6.66 -9 7 C-9 5.35 -9 3.7 -9 2 C-9.66 2 -10.32 2 -11 2 C-11.33 3.32 -11.66 4.64 -12 6 C-12 4.35 -12 2.7 -12 1 C-10.04310341 0.77857745 -8.08438048 0.5732432 -6.125 0.375 C-4.48917969 0.20097656 -4.48917969 0.20097656 -2.8203125 0.0234375 C-1.88960937 0.01570313 -0.95890625 0.00796875 0 0 Z " fill="#BFBFBF" transform="translate(208,424)"/>
<path d="M0 0 C3.96 0 7.92 0 12 0 C12 1.65 12 3.3 12 5 C8.04 5 4.08 5 0 5 C0 3.35 0 1.7 0 0 Z " fill="#090909" transform="translate(238,21)"/>
<path d="M0 0 C1.258125 -0.020625 2.51625 -0.04125 3.8125 -0.0625 C4.52019531 -0.07410156 5.22789062 -0.08570313 5.95703125 -0.09765625 C8 0 8 0 11 1 C11 1.99 11 2.98 11 4 C11.99 4.33 12.98 4.66 14 5 C12.68 5 11.36 5 10 5 C8.66216607 5.31478446 7.32796291 5.64587656 6 6 C3.57202689 6 1.37092995 5.49914315 -1 5 C-0.67 3.35 -0.34 1.7 0 0 Z " fill="#BBBBBB" transform="translate(180,309)"/>
<path d="M0 0 C0.8971875 0.5259375 0.8971875 0.5259375 1.8125 1.0625 C1.4825 2.7125 1.1525 4.3625 0.8125 6.0625 C-2.59312852 6.84092938 -5.69515756 7.16228121 -9.1875 7.0625 C-7.98368552 4.56888429 -6.73321278 2.38106917 -5.1875 0.0625 C-2.1875 -0.9375 -2.1875 -0.9375 0 0 Z " fill="#8A8A8A" transform="translate(128.1875,152.9375)"/>
<path d="M0 0 C0.33 1.32 0.66 2.64 1 4 C1.66 4 2.32 4 3 4 C3 2.68 3 1.36 3 0 C5.31 0 7.62 0 10 0 C11.125 3.75 11.125 3.75 10 6 C9.01 6 8.02 6 7 6 C6.67 6.66 6.34 7.32 6 8 C4.02 7.01 2.04 6.02 0 5 C0 3.35 0 1.7 0 0 Z " fill="#808080" transform="translate(106,119)"/>
<path d="M0 0 C0.66 0 1.32 0 2 0 C2.33 0.66 2.66 1.32 3 2 C5.02463255 2.65213292 5.02463255 2.65213292 7 3 C7 4.65 7 6.3 7 8 C4.03 8 1.06 8 -2 8 C-2.33 6.35 -2.66 4.7 -3 3 C-2.01 2.67 -1.02 2.34 0 2 C0 1.34 0 0.68 0 0 Z " fill="#C9C9C9" transform="translate(127,423)"/>
<path d="M0 0 C1.91015625 0.1328125 1.91015625 0.1328125 3.91015625 1.1328125 C3.91015625 2.4528125 3.91015625 3.7728125 3.91015625 5.1328125 C-0.04984375 5.1328125 -4.00984375 5.1328125 -8.08984375 5.1328125 C-6.60990988 -0.78692299 -5.85393303 0.0212484 0 0 Z " fill="#D66A69" transform="translate(46.08984375,340.8671875)"/>
<path d="M0 0 C1.65 0 3.3 0 5 0 C6.25664978 2.90600261 7 4.79604584 7 8 C4.69 8.33 2.38 8.66 0 9 C0 6.03 0 3.06 0 0 Z " fill="#808080" transform="translate(87,64)"/>
<path d="M0 0 C2.4375 0.1875 2.4375 0.1875 3.4375 1.1875 C3.625 3.625 3.625 3.625 3.4375 6.1875 C2.7775 6.8475 2.1175 7.5075 1.4375 8.1875 C-1.1875 7.8125 -1.1875 7.8125 -3.5625 7.1875 C-4.1875 4.8125 -4.1875 4.8125 -4.5625 2.1875 C-2.5625 0.1875 -2.5625 0.1875 0 0 Z " fill="#F95C16" transform="translate(127.5625,485.8125)"/>
<path d="M0 0 C3.3 0 6.6 0 10 0 C10 1.65 10 3.3 10 5 C9.01 5 8.02 5 7 5 C7 5.66 7 6.32 7 7 C6.34 7 5.68 7 5 7 C4.67 6.34 4.34 5.68 4 5 C3.01 5 2.02 5 1 5 C0.67 5.66 0.34 6.32 0 7 C0 4.69 0 2.38 0 0 Z " fill="#C2C2C2" transform="translate(54,437)"/>
<path d="M0 0 C1.32 0.33 2.64 0.66 4 1 C4 3.31 4 5.62 4 8 C3.21625 7.814375 2.4325 7.62875 1.625 7.4375 C-0.97089775 6.74037734 -0.97089775 6.74037734 -3 8 C-3 7.34 -3 6.68 -3 6 C-3.66 6 -4.32 6 -5 6 C-5.33 6.66 -5.66 7.32 -6 8 C-6.33 6.35 -6.66 4.7 -7 3 C-3.535 2.505 -3.535 2.505 0 2 C0 1.34 0 0.68 0 0 Z " fill="#C1C1C1" transform="translate(94,295)"/>
<path d="M0 0 C1.98 0.495 1.98 0.495 4 1 C4 1.66 4 2.32 4 3 C5.65 2.34 7.3 1.68 9 1 C9.33 2.65 9.66 4.3 10 6 C7.50907189 7.24546405 6.58919267 6.7767578 4 6 C4 6.66 4 7.32 4 8 C2.35 8 0.7 8 -1 8 C0 6 1 4 2 2 C1.01 2.33 0.02 2.66 -1 3 C-0.67 2.01 -0.34 1.02 0 0 Z " fill="#7D7D7D" transform="translate(132,152)"/>
<path d="M0 0 C1.2065625 0.0309375 1.2065625 0.0309375 2.4375 0.0625 C2.1075 0.7225 1.7775 1.3825 1.4375 2.0625 C0.4475 1.7325 -0.5425 1.4025 -1.5625 1.0625 C-1.5625 2.3825 -1.5625 3.7025 -1.5625 5.0625 C-0.9025 4.4025 -0.2425 3.7425 0.4375 3.0625 C2.75515729 2.34322705 5.08845874 1.6715107 7.4375 1.0625 C7.7675 2.7125 8.0975 4.3625 8.4375 6.0625 C4.44830675 7.1629671 1.42669325 7.1629671 -2.5625 6.0625 C-2.94468767 4.40635343 -3.27645102 2.73792976 -3.5625 1.0625 C-2.5625 0.0625 -2.5625 0.0625 0 0 Z " fill="#757575" transform="translate(60.5625,261.9375)"/>
<path d="M0 0 C0.33 0.66 0.66 1.32 1 2 C1.66 1.67 2.32 1.34 3 1 C3 2.98 3 4.96 3 7 C0 7 -3 7 -6 7 C-6.33 5.35 -6.66 3.7 -7 2 C-2.25 0 -2.25 0 0 0 Z " fill="#888888" transform="translate(102,118)"/>
<path d="M0 0 C1.2065625 0.0309375 1.2065625 0.0309375 2.4375 0.0625 C1.839375 0.289375 1.24125 0.51625 0.625 0.75 C-2.12335774 2.39901464 -2.95461876 4.33609268 -4.5625 7.0625 C-5.5525 7.3925 -6.5425 7.7225 -7.5625 8.0625 C-7.2325 9.7125 -6.9025 11.3625 -6.5625 13.0625 C-4.9125 13.3925 -3.2625 13.7225 -1.5625 14.0625 C-1.5625 14.7225 -1.5625 15.3825 -1.5625 16.0625 C-4.375 16.3125 -4.375 16.3125 -7.5625 16.0625 C-9.5 14.375 -9.5 14.375 -10.5625 12.0625 C-10.5 9.4375 -10.5 9.4375 -9.5625 7.0625 C-7.625 6 -7.625 6 -5.5625 5.0625 C-4.35367904 3.06233534 -4.35367904 3.06233534 -3.5625 1.0625 C-2.5625 0.0625 -2.5625 0.0625 0 0 Z " fill="#F6733D" transform="translate(40.5625,112.9375)"/>
<path d="M0 0 C2.05078125 0.03255208 4.1015625 0.06510417 6.15234375 0.09765625 C6.15234375 2.07765625 6.15234375 4.05765625 6.15234375 6.09765625 C3.18234375 6.09765625 0.21234375 6.09765625 -2.84765625 6.09765625 C-2.89037725 4.4315372 -2.88829457 2.7638274 -2.84765625 1.09765625 C-1.84765625 0.09765625 -1.84765625 0.09765625 0 0 Z " fill="#838383" transform="translate(69.84765625,118.90234375)"/>
<path d="M0 0 C1.134375 0.020625 2.26875 0.04125 3.4375 0.0625 C3.4375 2.3725 3.4375 4.6825 3.4375 7.0625 C2.7775 7.0625 2.1175 7.0625 1.4375 7.0625 C1.4375 5.7425 1.4375 4.4225 1.4375 3.0625 C0.7775 3.0625 0.1175 3.0625 -0.5625 3.0625 C-0.8925 4.3825 -1.2225 5.7025 -1.5625 7.0625 C-3.2125 6.7325 -4.8625 6.4025 -6.5625 6.0625 C-4.25951087 0.07472826 -4.25951087 0.07472826 0 0 Z " fill="#535353" transform="translate(46.5625,22.9375)"/>
<path d="M0 0 C2.31 0.33 4.62 0.66 7 1 C7 1.99 7 2.98 7 4 C7.66 4 8.32 4 9 4 C9 3.01 9 2.02 9 1 C9.66 1 10.32 1 11 1 C10.67 3.31 10.34 5.62 10 8 C6.125 7.125 6.125 7.125 5 6 C4.34 6 3.68 6 3 6 C2.67 4.68 2.34 3.36 2 2 C1.34 3.32 0.68 4.64 0 6 C0 4.02 0 2.04 0 0 Z " fill="#6A6A6A" transform="translate(140,263)"/>
<path d="M0 0 C1.32 0.33 2.64 0.66 4 1 C4 1.66 4 2.32 4 3 C5.65 2.34 7.3 1.68 9 1 C10 2 10 2 10.0625 4.5625 C10.041875 5.366875 10.02125 6.17125 10 7 C7.69 7 5.38 7 3 7 C3 5.68 3 4.36 3 3 C2.34 3 1.68 3 1 3 C0.67 4.32 0.34 5.64 0 7 C0 4.69 0 2.38 0 0 Z " fill="#BABABA" transform="translate(37,296)"/>
<path d="M0 0 C0.9075 0.33 1.815 0.66 2.75 1 C6.07045807 2.19605723 6.07045807 2.19605723 10 2 C10 3.65 10 5.3 10 7 C7.69 7 5.38 7 3 7 C3 5.68 3 4.36 3 3 C2.34 3 1.68 3 1 3 C0.67 4.32 0.34 5.64 0 7 C0 4.69 0 2.38 0 0 Z " fill="#B9B9B9" transform="translate(164,296)"/>
<path d="M0 0 C0.66 0.66 1.32 1.32 2 2 C2.33 1.34 2.66 0.68 3 0 C4.98 0 6.96 0 9 0 C9.33 1.65 9.66 3.3 10 5 C7.50935112 5.68707555 5.62113708 6 3 6 C2.01 5.34 1.02 4.68 0 4 C0 2.68 0 1.36 0 0 Z " fill="#C7C7C7" transform="translate(101,425)"/>
<path d="M0 0 C2.64 0 5.28 0 8 0 C9.0625 1.8125 9.0625 1.8125 10 4 C9.67 4.99 9.34 5.98 9 7 C7.35 6.67 5.7 6.34 4 6 C4 4.68 4 3.36 4 2 C3.01 2 2.02 2 1 2 C1 3.65 1 5.3 1 7 C0.67 7 0.34 7 0 7 C0 4.69 0 2.38 0 0 Z " fill="#4A4A4A" transform="translate(175,66)"/>
<path d="M0 0 C2 0 4 0 6 0 C6.33 1.32 6.66 2.64 7 4 C7.66 2.68 8.32 1.36 9 0 C9 1.98 9 3.96 9 6 C8.2575 5.814375 7.515 5.62875 6.75 5.4375 C4.05009037 5.00796892 2.55368923 5.14877026 0 6 C-0.38218767 4.34385343 -0.71395102 2.67542976 -1 1 C-0.67 0.67 -0.34 0.34 0 0 Z " fill="#C0C0C0" transform="translate(120,448)"/>
<path d="M0 0 C0.66 0 1.32 0 2 0 C2 0.66 2 1.32 2 2 C2.66 2 3.32 2 4 2 C4 1.34 4 0.68 4 0 C6.9375 0.8125 6.9375 0.8125 10 2 C10.33 2.99 10.66 3.98 11 5 C8.69 5.66 6.38 6.32 4 7 C4 6.34 4 5.68 4 5 C3.34 5 2.68 5 2 5 C1.34 3.35 0.68 1.7 0 0 Z " fill="#C7C7C7" transform="translate(204,435)"/>
<path d="M0 0 C1.65 0 3.3 0 5 0 C5.91058531 3.07322544 6.08886184 5.80097361 6 9 C4 9 4 9 2.375 7.5 C1.92125 7.005 1.4675 6.51 1 6 C0.67 6.99 0.34 7.98 0 9 C0 6.03 0 3.06 0 0 Z " fill="#4F4F4F" transform="translate(143,64)"/>
<path d="M0 0 C0.86625 0.2784375 0.86625 0.2784375 1.75 0.5625 C4.20692525 1.04023546 5.64397534 0.75729364 8 0 C8 1.98 8 3.96 8 6 C6.0625 5.625 6.0625 5.625 4 5 C3.67 4.34 3.34 3.68 3 3 C3 3.99 3 4.98 3 6 C1.68 5.67 0.36 5.34 -1 5 C-0.67 3.35 -0.34 1.7 0 0 Z " fill="#BCBCBC" transform="translate(57,448)"/>
<path d="M0 0 C3.96 0 7.92 0 12 0 C12 1.65 12 3.3 12 5 C10.02 5 8.04 5 6 5 C6 3.68 6 2.36 6 1 C5.34 1 4.68 1 4 1 C3.67 1.99 3.34 2.98 3 4 C3 3.01 3 2.02 3 1 C2.34 1 1.68 1 1 1 C0.67 1.99 0.34 2.98 0 4 C0 2.68 0 1.36 0 0 Z " fill="#7B7B7B" transform="translate(125,344)"/>
<path d="M0 0 C3 0 6 0 9 0 C9.33 1.65 9.66 3.3 10 5 C6 5 6 5 4 4 C3.67 4.99 3.34 5.98 3 7 C2.34 6.67 1.68 6.34 1 6 C0.375 2.9375 0.375 2.9375 0 0 Z " fill="#BDBDBD" transform="translate(94,309)"/>
<path d="M0 0 C0.33 0.66 0.66 1.32 1 2 C3.02463255 2.65213292 3.02463255 2.65213292 5 3 C4.67 4.32 4.34 5.64 4 7 C3.34 6.01 2.68 5.02 2 4 C1.67 4.99 1.34 5.98 1 7 C-0.65 7.33 -2.3 7.66 -4 8 C-4.33 6.35 -4.66 4.7 -5 3 C-4.360625 2.87625 -3.72125 2.7525 -3.0625 2.625 C-2.0415625 2.315625 -2.0415625 2.315625 -1 2 C-0.67 1.34 -0.34 0.68 0 0 Z " fill="#C4C4C4" transform="translate(122,307)"/>
<path d="M0 0 C0.66 0 1.32 0 2 0 C2.33 0.66 2.66 1.32 3 2 C5.02463255 2.65213292 5.02463255 2.65213292 7 3 C6.67 4.65 6.34 6.3 6 8 C4.02 8 2.04 8 0 8 C0 5.36 0 2.72 0 0 Z " fill="#777777" transform="translate(82,261)"/>
<path d="M0 0 C0.66 0 1.32 0 2 0 C2.33 0.66 2.66 1.32 3 2 C3.99 2 4.98 2 6 2 C6.38218767 3.65614657 6.71395102 5.32457024 7 7 C6 8 6 8 2.9375 8.0625 C1.968125 8.041875 0.99875 8.02125 0 8 C0 5.36 0 2.72 0 0 Z " fill="#8F8F8F" transform="translate(144,117)"/>
<path d="M0 0 C0.66 0 1.32 0 2 0 C2 0.66 2 1.32 2 2 C2.639375 1.814375 3.27875 1.62875 3.9375 1.4375 C4.9584375 1.2209375 4.9584375 1.2209375 6 1 C7 2 7 2 7.0625 4.5625 C7.041875 5.366875 7.02125 6.17125 7 7 C4.69 7 2.38 7 0 7 C0 4.69 0 2.38 0 0 Z " fill="#C4C4C4" transform="translate(202,296)"/>
<path d="M0 0 C1.66611905 -0.042721 3.33382885 -0.04063832 5 0 C6 1 6 1 6.125 3.5 C6 6 6 6 5 7 C3.33382885 7.04063832 1.66611905 7.042721 0 7 C0 4.69 0 2.38 0 0 Z " fill="#909090" transform="translate(92,262)"/>
<path d="M0 0 C0 2.31 0 4.62 0 7 C-1.98 7.33 -3.96 7.66 -6 8 C-6.33 6.35 -6.66 4.7 -7 3 C-1.125 0 -1.125 0 0 0 Z " fill="#CDCDCD" transform="translate(220,423)"/>
<path d="M0 0 C0.66 0 1.32 0 2 0 C2 0.66 2 1.32 2 2 C3.65 2 5.3 2 7 2 C7 2.99 7 3.98 7 5 C7.66 5 8.32 5 9 5 C9 5.66 9 6.32 9 7 C6.03 7 3.06 7 0 7 C0 4.69 0 2.38 0 0 Z " fill="#9C9C9C" transform="translate(138,342)"/>
<path d="M0 0 C2.31 0.33 4.62 0.66 7 1 C7.33 2.65 7.66 4.3 8 6 C5.36 6 2.72 6 0 6 C0 4.02 0 2.04 0 0 Z " fill="#B5B5B5" transform="translate(153,436)"/>
<path d="M0 0 C2.31 0.33 4.62 0.66 7 1 C7.33 2.65 7.66 4.3 8 6 C4.71303767 6.79953138 3.28976808 7.09658936 0 6 C0 4.02 0 2.04 0 0 Z " fill="#BEBEBE" transform="translate(65,308)"/>
<path d="M0 0 C0.66 0 1.32 0 2 0 C2.66 0.99 3.32 1.98 4 3 C3 6 3 6 2 8 C1.34 8 0.68 8 0 8 C0 6.68 0 5.36 0 4 C-0.66 4 -1.32 4 -2 4 C-2 5.32 -2 6.64 -2 8 C-2.66 8 -3.32 8 -4 8 C-4 6.02 -4 4.04 -4 2 C-2.68 2 -1.36 2 0 2 C0 1.34 0 0.68 0 0 Z " fill="#909090" transform="translate(103,261)"/>
<path d="M0 0 C0.33 1.32 0.66 2.64 1 4 C1.66 4 2.32 4 3 4 C3.33 2.68 3.66 1.36 4 0 C4.33 0.66 4.66 1.32 5 2 C5.33 1.34 5.66 0.68 6 0 C7.32 0.33 8.64 0.66 10 1 C10 2.32 10 3.64 10 5 C6.42355152 6.2380014 3.66305234 5.74926071 0 5 C0 3.35 0 1.7 0 0 Z " fill="#6B6B6B" transform="translate(96,154)"/>
<path d="M0 0 C1.65 0 3.3 0 5 0 C5.625 2.375 5.625 2.375 6 5 C5.34 5.66 4.68 6.32 4 7 C2.68 7 1.36 7 0 7 C0 4.69 0 2.38 0 0 Z " fill="#8C8C8C" transform="translate(120,118)"/>
<path d="M0 0 C0.86625 0.2784375 0.86625 0.2784375 1.75 0.5625 C4.20692525 1.04023546 5.64397534 0.75729364 8 0 C8.33 0.99 8.66 1.98 9 3 C8.01 3.495 8.01 3.495 7 4 C7.66 4.33 8.32 4.66 9 5 C5.92677456 5.91058531 3.19902639 6.08886184 0 6 C-0.33 5.34 -0.66 4.68 -1 4 C-0.67 3.67 -0.34 3.34 0 3 C0 2.01 0 1.02 0 0 Z " fill="#B7B7B7" transform="translate(169,425)"/>
<path d="M0 0 C0.66 0 1.32 0 2 0 C2.33 0.66 2.66 1.32 3 2 C5.02463255 2.65213292 5.02463255 2.65213292 7 3 C6.67 4.65 6.34 6.3 6 8 C4.02 8 2.04 8 0 8 C0 5.36 0 2.72 0 0 Z " fill="#BFBFBF" transform="translate(155,423)"/>
<path d="M0 0 C0.66 0 1.32 0 2 0 C2 0.66 2 1.32 2 2 C3.65 2.33 5.3 2.66 7 3 C7 4.32 7 5.64 7 7 C6.34 6.67 5.68 6.34 5 6 C4.67 6.33 4.34 6.66 4 7 C2.67405895 7.36162029 1.34061543 7.69728039 0 8 C0 5.36 0 2.72 0 0 Z " fill="#C4C4C4" transform="translate(57,307)"/>
<path d="M0 0 C1.67542976 0.28604898 3.34385343 0.61781233 5 1 C5 2.65 5 4.3 5 6 C3.34385343 6.38218767 1.67542976 6.71395102 0 7 C-1 6 -1 6 -1.125 3.5 C-1 1 -1 1 0 0 Z " fill="#C8C8C8" transform="translate(179,296)"/>
<path d="M0 0 C0.66 0 1.32 0 2 0 C2.33 0.66 2.66 1.32 3 2 C5.02463255 2.65213292 5.02463255 2.65213292 7 3 C7 4.32 7 5.64 7 7 C6.34 6.67 5.68 6.34 5 6 C4.67 6.33 4.34 6.66 4 7 C2.00577205 7.36628677 0.00546689 7.70131344 -2 8 C-2.33 7.34 -2.66 6.68 -3 6 C-2.01 6 -1.02 6 0 6 C0 4.02 0 2.04 0 0 Z " fill="#717171" transform="translate(82,152)"/>
<path d="M0 0 C1.98 0.495 1.98 0.495 4 1 C4.33 3.31 4.66 5.62 5 8 C3.35 8.33 1.7 8.66 0 9 C-1.10844919 5.67465243 -0.84454356 3.37817425 0 0 Z " fill="#424242" transform="translate(133,64)"/>
<path d="M0 0 C1.48206495 0.254496 2.96068615 0.52911762 4.4375 0.8125 C5.67306641 1.03873047 5.67306641 1.03873047 6.93359375 1.26953125 C7.95646484 1.63111328 7.95646484 1.63111328 9 2 C9.33 2.99 9.66 3.98 10 5 C7.36 5.66 4.72 6.32 2 7 C0.5393715 4.35261084 0 3.10551666 0 0 Z " fill="#B6B6B6" transform="translate(34,423)"/>
<path d="M0 0 C0.33 0 0.66 0 1 0 C1 1.98 1 3.96 1 6 C3.60195202 4.12061627 3.60195202 4.12061627 6 2 C7.32 2 8.64 2 10 2 C10 3.65 10 5.3 10 7 C6.7 7 3.4 7 0 7 C0 4.69 0 2.38 0 0 Z " fill="#ACACAC" transform="translate(51,296)"/>
<path d="M0 0 C2.31 0 4.62 0 7 0 C7.33 0.66 7.66 1.32 8 2 C7.01 2 6.02 2 5 2 C5.66 2.33 6.32 2.66 7 3 C7 3.66 7 4.32 7 5 C5.02 5.99 5.02 5.99 3 7 C1.68 5.68 0.36 4.36 -1 3 C-0.67 2.01 -0.34 1.02 0 0 Z " fill="#4E4E4E" transform="translate(224,20)"/>
<path d="M0 0 C3 1 3 1 4 2 C4.33 1.34 4.66 0.68 5 0 C6.32 0.33 7.64 0.66 9 1 C8.67 2.65 8.34 4.3 8 6 C7.4225 5.814375 6.845 5.62875 6.25 5.4375 C3.79307475 4.95976454 2.35602466 5.24270636 0 6 C0.33 5.34 0.66 4.68 1 4 C0.67 3.67 0.34 3.34 0 3 C0 2.01 0 1.02 0 0 Z " fill="#B2B2B2" transform="translate(227,425)"/>
<path d="M0 0 C3 0 3 0 6 1 C6 2.65 6 4.3 6 6 C5.236875 5.814375 4.47375 5.62875 3.6875 5.4375 C0.91032625 4.77180827 0.91032625 4.77180827 -2 6 C-1.34 4.02 -0.68 2.04 0 0 Z " fill="#BDBDBD" transform="translate(229,297)"/>
<path d="M0 0 C0.66 0.66 1.32 1.32 2 2 C1.3125 3.9375 1.3125 3.9375 0 6 C-2.625 6.75 -2.625 6.75 -5 7 C-5.33 5.35 -5.66 3.7 -6 2 C-4.02 1.34 -2.04 0.68 0 0 Z " fill="#727272" transform="translate(131,262)"/>
<path d="M0 0 C2.31 0.33 4.62 0.66 7 1 C7 2.65 7 4.3 7 6 C6.34 6 5.68 6 5 6 C5 5.01 5 4.02 5 3 C4.34 3.66 3.68 4.32 3 5 C3 5.66 3 6.32 3 7 C1.68 6.67 0.36 6.34 -1 6 C-1 3 -1 3 0 0 Z " fill="#C9C9C9" transform="translate(92,164)"/>
<path d="M0 0 C3.875 1.75 3.875 1.75 5 4 C4.01 4 3.02 4 2 4 C2 5.98 2 7.96 2 10 C2.99 10.33 3.98 10.66 5 11 C3.35 10.67 1.7 10.34 0 10 C-0.12375 9.030625 -0.2475 8.06125 -0.375 7.0625 C-0.58125 6.051875 -0.7875 5.04125 -1 4 C-1.66 3.67 -2.32 3.34 -3 3 C-2.01 2.01 -1.02 1.02 0 0 Z " fill="#DB6052" transform="translate(41,118)"/>
<path d="M0 0 C0.66 0.66 1.32 1.32 2 2 C4.05396726 1.59070014 4.05396726 1.59070014 6 1 C7 2 7 2 7.0625 4.5625 C7.041875 5.366875 7.02125 6.17125 7 7 C5.00045254 7.04254356 2.99958364 7.04080783 1 7 C0 6 0 6 -0.0625 2.9375 C-0.041875 1.968125 -0.02125 0.99875 0 0 Z " fill="#B8B8B8" transform="translate(148,447)"/>
<path d="M0 0 C0.33 1.32 0.66 2.64 1 4 C1.66 4 2.32 4 3 4 C3 2.68 3 1.36 3 0 C4.65 0 6.3 0 8 0 C7.67 1.98 7.34 3.96 7 6 C5.00045254 6.04254356 2.99958364 6.04080783 1 6 C0 5 0 5 -0.0625 2.4375 C-0.041875 1.633125 -0.02125 0.82875 0 0 Z " fill="#BEBEBE" transform="translate(112,425)"/>
<path d="M0 0 C2.0625 0.4375 2.0625 0.4375 4 1 C4 2.65 4 4.3 4 6 C2.02 6.99 2.02 6.99 0 8 C-1 7 -1 7 -1.125 4 C-1 1 -1 1 0 0 Z " fill="#8A8A8A" transform="translate(72,152)"/>
<path d="M0 0 C2.0625 0.4375 2.0625 0.4375 4 1 C4 2.65 4 4.3 4 6 C2.02 6.99 2.02 6.99 0 8 C-1 7 -1 7 -1.125 4 C-1 1 -1 1 0 0 Z " fill="#8A8A8A" transform="translate(170,152)"/>
<path d="M0 0 C1.32 0 2.64 0 4 0 C4 1.98 4 3.96 4 6 C2.35 6.33 0.7 6.66 -1 7 C-1.04254356 5.00045254 -1.04080783 2.99958364 -1 1 C-0.67 0.67 -0.34 0.34 0 0 Z " fill="#C2C2C2" transform="translate(136,437)"/>
<path d="M0 0 C0.66 0 1.32 0 2 0 C2.33 0.99 2.66 1.98 3 3 C4.32 2.67 5.64 2.34 7 2 C6.01 2.495 6.01 2.495 5 3 C5 3.66 5 4.32 5 5 C5.99 5 6.98 5 8 5 C8.33 4.34 8.66 3.68 9 3 C9.33 3.99 9.66 4.98 10 6 C9.30132812 5.98839844 8.60265625 5.97679687 7.8828125 5.96484375 C6.97273438 5.95582031 6.06265625 5.94679688 5.125 5.9375 C4.22007813 5.92589844 3.31515625 5.91429687 2.3828125 5.90234375 C-0.0168585 5.83750743 -0.0168585 5.83750743 -2 7 C-1.34 4.69 -0.68 2.38 0 0 Z " fill="#B5B5B5" transform="translate(109,330)"/>
<path d="M0 0 C0.66 0 1.32 0 2 0 C2 2.31 2 4.62 2 7 C1.360625 6.814375 0.72125 6.62875 0.0625 6.4375 C-0.9584375 6.2209375 -0.9584375 6.2209375 -2 6 C-2.33 6.33 -2.66 6.66 -3 7 C-3.66 7 -4.32 7 -5 7 C-4.67 5.35 -4.34 3.7 -4 2 C-2.68 2 -1.36 2 0 2 C0 1.34 0 0.68 0 0 Z " fill="#C1C1C1" transform="translate(171,307)"/>
<path d="M0 0 C0.33 0.66 0.66 1.32 1 2 C4.02934491 2.65772428 4.02934491 2.65772428 7 3 C7 3.66 7 4.32 7 5 C4.69 5.33 2.38 5.66 0 6 C0 6.99 0 7.98 0 9 C-1.32 7.35 -2.64 5.7 -4 4 C-2.68 2.68 -1.36 1.36 0 0 Z " fill="#E6806E" transform="translate(30,64)"/>
<path d="M0 0 C1.32 0 2.64 0 4 0 C4 2.31 4 4.62 4 7 C2.68 7 1.36 7 0 7 C-0.38133299 5.0085944 -0.71325582 3.00720923 -1 1 C-0.67 0.67 -0.34 0.34 0 0 Z " fill="#BFBFBF" transform="translate(153,309)"/>
<path d="M0 0 C3 0 3 0 6 1 C6 2.65 6 4.3 6 6 C5.38125 5.835 4.7625 5.67 4.125 5.5 C1.48243927 4.87822101 0.4501347 4.77493265 -2 6 C-1.34 4.02 -0.68 2.04 0 0 Z " fill="#707070" transform="translate(109,263)"/>
<path d="M0 0 C0.33 0.66 0.66 1.32 1 2 C1.66 2.33 2.32 2.66 3 3 C3 4.32 3 5.64 3 7 C-0.04386724 7.08226668 -2.07175348 6.97608217 -5 6 C-5 3 -5 3 -3.625 1.3125 C-2 0 -2 0 0 0 Z " fill="#EA9A8D" transform="translate(135,207)"/>
<path d="M0 0 C1.32 0.66 2.64 1.32 4 2 C3.67 3.65 3.34 5.3 3 7 C1.68 7 0.36 7 -1 7 C-1.04254356 5.00045254 -1.04080783 2.99958364 -1 1 C-0.67 0.67 -0.34 0.34 0 0 Z " fill="#8B8B8B" transform="translate(149,152)"/>
<path d="M0 0 C0.66 0 1.32 0 2 0 C2 0.99 2 1.98 2 3 C2.66 3 3.32 3 4 3 C4.33 2.01 4.66 1.02 5 0 C5.93423645 3.01031744 6.04449911 3.86650268 5 7 C3.35 7 1.7 7 0 7 C0 4.69 0 2.38 0 0 Z " fill="#777777" transform="translate(83,118)"/>
<path d="M0 0 C0.66 0 1.32 0 2 0 C2.33 0.99 2.66 1.98 3 3 C3.99 3 4.98 3 6 3 C5.67 3.99 5.34 4.98 5 6 C5.33 6.99 5.66 7.98 6 9 C4 9 2 9 0 9 C0 6.03 0 3.06 0 0 Z " fill="#454545" transform="translate(108,64)"/>
<path d="M0 0 C1.32 0 2.64 0 4 0 C4 2.31 4 4.62 4 7 C2.68 7 1.36 7 0 7 C-1.125 2.25 -1.125 2.25 0 0 Z " fill="#BDBDBD" transform="translate(93,425)"/>
<path d="M0 0 C3.625 0.3125 3.625 0.3125 5.5625 2.3125 C5.913125 2.9725 6.26375 3.6325 6.625 4.3125 C3.655 4.3125 0.685 4.3125 -2.375 4.3125 C-2.375 3.6525 -2.375 2.9925 -2.375 2.3125 C-3.035 1.9825 -3.695 1.6525 -4.375 1.3125 C-3.375 0.3125 -3.375 0.3125 0 0 Z " fill="#FCF5F4" transform="translate(43.375,386.6875)"/>
<path d="M0 0 C1.65 0 3.3 0 5 0 C5 0.66 5 1.32 5 2 C4.34 2 3.68 2 3 2 C3 2.66 3 3.32 3 4 C2.01 4.33 1.02 4.66 0 5 C0 5.66 0 6.32 0 7 C-1.32 6.67 -2.64 6.34 -4 6 C-3.67 5.01 -3.34 4.02 -3 3 C-2.34 3 -1.68 3 -1 3 C-0.67 2.01 -0.34 1.02 0 0 Z " fill="#E0F2D8" transform="translate(42,159)"/>
<path d="M0 0 C2.0625 0.4375 2.0625 0.4375 4 1 C4 2.65 4 4.3 4 6 C2.0625 6.5625 2.0625 6.5625 0 7 C-1 6 -1 6 -1.125 3.5 C-1 1 -1 1 0 0 Z " fill="#696969" transform="translate(169,66)"/>
<path d="M0 0 C2.0625 0.4375 2.0625 0.4375 4 1 C4.33 2.65 4.66 4.3 5 6 C3.34385343 6.38218767 1.67542976 6.71395102 0 7 C-1 6 -1 6 -1.125 3.5 C-1 1 -1 1 0 0 Z " fill="#4C4C4C" transform="translate(151,66)"/>
<path d="M0 0 C0 2.31 0 4.62 0 7 C-1.65 6.67 -3.3 6.34 -5 6 C-4.625 3.5625 -4.625 3.5625 -4 1 C-2 0 -2 0 0 0 Z " fill="#C2C2C2" transform="translate(96,447)"/>
<path d="M0 0 C2.475 0.495 2.475 0.495 5 1 C4.67 2.65 4.34 4.3 4 6 C2.68 6.33 1.36 6.66 0 7 C0 4.69 0 2.38 0 0 Z " fill="#C2C2C2" transform="translate(149,425)"/>
<path d="M0 0 C2.31 0 4.62 0 7 0 C7.33 1.65 7.66 3.3 8 5 C6.35 5 4.7 5 3 5 C3 4.01 3 3.02 3 2 C2.34 2 1.68 2 1 2 C0.67 2.99 0.34 3.98 0 5 C0 3.35 0 1.7 0 0 Z " fill="#8D8D8D" transform="translate(80,343)"/>
<path d="M0 0 C0.33 1.32 0.66 2.64 1 4 C1.66 4 2.32 4 3 4 C3 2.68 3 1.36 3 0 C4.65 0 6.3 0 8 0 C7.67 1.65 7.34 3.3 7 5 C5.0085944 5.38133299 3.00720923 5.71325582 1 6 C0 5 0 5 -0.0625 2.4375 C-0.041875 1.633125 -0.02125 0.82875 0 0 Z " fill="#BABABA" transform="translate(105,309)"/>
<path d="M0 0 C0.66 0 1.32 0 2 0 C2 2.31 2 4.62 2 7 C0.68 7.33 -0.64 7.66 -2 8 C-2.33 6.35 -2.66 4.7 -3 3 C-2.01 2.67 -1.02 2.34 0 2 C0 1.34 0 0.68 0 0 Z " fill="#C5C5C5" transform="translate(77,307)"/>
<path d="M0 0 C2.0625 0.4375 2.0625 0.4375 4 1 C4 3 4 5 4 7 C2.0625 7.5625 2.0625 7.5625 0 8 C-1 7 -1 7 -1.125 4 C-1 1 -1 1 0 0 Z " fill="#787878" transform="translate(155,152)"/>
<path d="M0 0 C0.66 0 1.32 0 2 0 C2 1.65 2 3.3 2 5 C2.66 5 3.32 5 4 5 C4 3.35 4 1.7 4 0 C4.66 0 5.32 0 6 0 C6 2.31 6 4.62 6 7 C4.33388095 7.042721 2.66617115 7.04063832 1 7 C0 6 0 6 -0.0625 2.9375 C-0.041875 1.968125 -0.02125 0.99875 0 0 Z " fill="#515151" transform="translate(115,66)"/>
<path d="M0 0 C0 2.31 0 4.62 0 7 C-1.65 6.67 -3.3 6.34 -5 6 C-4.67 4.35 -4.34 2.7 -4 1 C-1 0 -1 0 0 0 Z " fill="#C1C1C1" transform="translate(141,447)"/>
<path d="M0 0 C1.65 0 3.3 0 5 0 C5 1.65 5 3.3 5 5 C4.01 5 3.02 5 2 5 C2 5.66 2 6.32 2 7 C1.34 7 0.68 7 0 7 C0 4.69 0 2.38 0 0 Z " fill="#C4C4C4" transform="translate(180,437)"/>
<path d="M0 0 C0 2.31 0 4.62 0 7 C-1.65 6.67 -3.3 6.34 -5 6 C-4.67 4.35 -4.34 2.7 -4 1 C-1 0 -1 0 0 0 Z " fill="#C1C1C1" transform="translate(146,296)"/>
<path d="M0 0 C1.98 0.495 1.98 0.495 4 1 C4 2.98 4 4.96 4 7 C2.35 7 0.7 7 -1 7 C-0.7525 6.1028125 -0.7525 6.1028125 -0.5 5.1875 C0.1114124 2.88655664 0.1114124 2.88655664 0 0 Z " fill="#4D4D4D" transform="translate(96,66)"/>
<path d="M0 0 C2.0625 0.4375 2.0625 0.4375 4 1 C3.67 2.65 3.34 4.3 3 6 C1.68 5.67 0.36 5.34 -1 5 C-1 1 -1 1 0 0 Z " fill="#E69188" transform="translate(43,334)"/>
<path d="M0 0 C2.475 0.99 2.475 0.99 5 2 C4.67 3.65 4.34 5.3 4 7 C2.68 7 1.36 7 0 7 C0 4.69 0 2.38 0 0 Z " fill="#BEBEBE" transform="translate(104,296)"/>
<path d="M0 0 C0.99 0.33 1.98 0.66 3 1 C2.67 2.65 2.34 4.3 2 6 C1.01 6 0.02 6 -1 6 C-1.33 6.66 -1.66 7.32 -2 8 C-2 5.69 -2 3.38 -2 1 C-1.34 0.67 -0.68 0.34 0 0 Z " fill="#C2C2C2" transform="translate(80,297)"/>
<path d="M0 0 C2.475 0.495 2.475 0.495 5 1 C5 2.65 5 4.3 5 6 C3.68 6.33 2.36 6.66 1 7 C0.67 6.34 0.34 5.68 0 5 C0.99 4.67 1.98 4.34 3 4 C2.01 4 1.02 4 0 4 C0 2.68 0 1.36 0 0 Z " fill="#515151" transform="translate(31,23)"/>
<path d="M0 0 C0 2.31 0 4.62 0 7 C-1.32 6.67 -2.64 6.34 -4 6 C-4.33 4.68 -4.66 3.36 -5 2 C-1.125 0 -1.125 0 0 0 Z " fill="#C0C0C0" transform="translate(186,424)"/>
<path d="M0 0 C2.475 0.495 2.475 0.495 5 1 C4.67 2.32 4.34 3.64 4 5 C3.34 5 2.68 5 2 5 C2 5.66 2 6.32 2 7 C1.34 7 0.68 7 0 7 C0 4.69 0 2.38 0 0 Z " fill="#EAACA9" transform="translate(144,209)"/>
<path d="M0 0 C0.33 0.66 0.66 1.32 1 2 C2.65 2 4.3 2 6 2 C5.01 2.495 5.01 2.495 4 3 C4 3.99 4 4.98 4 6 C4.66 6.33 5.32 6.66 6 7 C4.02 7 2.04 7 0 7 C0 4.69 0 2.38 0 0 Z " fill="#BEBEBE" transform="translate(84,435)"/>
<path d="M0 0 C1.32 0.33 2.64 0.66 4 1 C4 2.98 4 4.96 4 7 C2.68 7 1.36 7 0 7 C0 4.69 0 2.38 0 0 Z " fill="#C5C5C5" transform="translate(65,435)"/>
<path d="M0 0 C0.66 0 1.32 0 2 0 C2.33 0.66 2.66 1.32 3 2 C4.32 2 5.64 2 7 2 C6.67 3.32 6.34 4.64 6 6 C6 5.01 6 4.02 6 3 C5.34 3 4.68 3 4 3 C3.67 3.99 3.34 4.98 3 6 C2.01 6 1.02 6 0 6 C0 5.01 0 4.02 0 3 C-0.66 2.67 -1.32 2.34 -2 2 C-1.34 2 -0.68 2 0 2 C0 1.34 0 0.68 0 0 Z " fill="#747474" transform="translate(117,342)"/>
<path d="M0 0 C1.98 0.495 1.98 0.495 4 1 C3.67 2.65 3.34 4.3 3 6 C1.68 5.67 0.36 5.34 -1 5 C-0.67 3.35 -0.34 1.7 0 0 Z " fill="#C5C5C5" transform="translate(196,309)"/>
<path d="M0 0 C1.98 0.495 1.98 0.495 4 1 C3.67 2.65 3.34 4.3 3 6 C1.68 5.67 0.36 5.34 -1 5 C-0.67 3.35 -0.34 1.7 0 0 Z " fill="#858585" transform="translate(71,263)"/>
<path d="M0 0 C0.33 1.32 0.66 2.64 1 4 C1.99 4 2.98 4 4 4 C4.33 2.68 4.66 1.36 5 0 C5.33 1.65 5.66 3.3 6 5 C4.68 5.33 3.36 5.66 2 6 C2 6.66 2 7.32 2 8 C1.34 8 0.68 8 0 8 C0 5.36 0 2.72 0 0 Z " fill="#353535" transform="translate(122,67)"/>
<path d="M0 0 C0.99 0.495 0.99 0.495 2 1 C2 1.99 2 2.98 2 4 C2.99 4.33 3.98 4.66 5 5 C4.01 5 3.02 5 2 5 C2 5.66 2 6.32 2 7 C2.99 7 3.98 7 5 7 C5 7.66 5 8.32 5 9 C3.35 9 1.7 9 0 9 C0 6.03 0 3.06 0 0 Z " fill="#424242" transform="translate(87,64)"/>
<path d="M0 0 C2.0625 0.4375 2.0625 0.4375 4 1 C4 2.32 4 3.64 4 5 C2.68 5.33 1.36 5.66 0 6 C-0.38218767 4.34385343 -0.71395102 2.67542976 -1 1 C-0.67 0.67 -0.34 0.34 0 0 Z " fill="#C6C6C6" transform="translate(47,309)"/>
<path d="M0 0 C2.475 0.495 2.475 0.495 5 1 C4.67 2.32 4.34 3.64 4 5 C3.01 5 2.02 5 1 5 C0.67 5.66 0.34 6.32 0 7 C0 4.69 0 2.38 0 0 Z " fill="#6F6F6F" transform="translate(175,152)"/>
<path d="M0 0 C1.98 0.495 1.98 0.495 4 1 C3.67 2.32 3.34 3.64 3 5 C1.68 5 0.36 5 -1 5 C-0.67 3.35 -0.34 1.7 0 0 Z " fill="#C2C2C2" transform="translate(222,425)"/>
<path d="M0 0 C0 1.98 0 3.96 0 6 C-1.65 6.33 -3.3 6.66 -5 7 C-5 3 -5 3 -3.625 1.25 C-2 0 -2 0 0 0 Z " fill="#D9D9D9" transform="translate(89,330)"/>
<path d="M0 0 C0.99 0.33 1.98 0.66 3 1 C3 2.65 3 4.3 3 6 C1.68 6 0.36 6 -1 6 C-1.625 4.125 -1.625 4.125 -2 2 C-1.34 1.34 -0.68 0.68 0 0 Z " fill="#BCBCBC" transform="translate(137,297)"/>
<path d="M0 0 C0.99 0.33 1.98 0.66 3 1 C2.67 2.65 2.34 4.3 2 6 C0.68 5.67 -0.64 5.34 -2 5 C-1.125 1.125 -1.125 1.125 0 0 Z " fill="#C7C7C7" transform="translate(128,297)"/>
<path d="M0 0 C2.475 0.495 2.475 0.495 5 1 C5 2.65 5 4.3 5 6 C3.68 5.34 2.36 4.68 1 4 C0.67 4.66 0.34 5.32 0 6 C0 4.02 0 2.04 0 0 Z " fill="#B5B5B5" transform="translate(108,164)"/>
<path d="M0 0 C0.99 0 1.98 0 3 0 C2.979375 0.763125 2.95875 1.52625 2.9375 2.3125 C2.87057159 5.10185786 2.87057159 5.10185786 4 8 C2.35 8 0.7 8 -1 8 C0 6 1 4 2 2 C1.01 2.33 0.02 2.66 -1 3 C-0.67 2.01 -0.34 1.02 0 0 Z " fill="#7A7A7A" transform="translate(66,152)"/>
<path d="M0 0 C1.98 0.495 1.98 0.495 4 1 C4 2.32 4 3.64 4 5 C2.35 5 0.7 5 -1 5 C-0.67 3.35 -0.34 1.7 0 0 Z " fill="#CB484A" transform="translate(136,487)"/>
<path d="M0 0 C0.99 0.33 1.98 0.66 3 1 C2.67 2.65 2.34 4.3 2 6 C1.01 6 0.02 6 -1 6 C-1.625 4.125 -1.625 4.125 -2 2 C-1.34 1.34 -0.68 0.68 0 0 Z " fill="#BABABA" transform="translate(87,448)"/>
<path d="M0 0 C2.475 0.495 2.475 0.495 5 1 C5 2.32 5 3.64 5 5 C3.35 4.67 1.7 4.34 0 4 C0 2.68 0 1.36 0 0 Z " fill="#BFBFBF" transform="translate(40,437)"/>
<path d="M0 0 C1.98 0.495 1.98 0.495 4 1 C3.67 2.65 3.34 4.3 3 6 C1.68 5.34 0.36 4.68 -1 4 C-0.67 2.68 -0.34 1.36 0 0 Z " fill="#C5C5C5" transform="translate(188,425)"/>
<path d="M0 0 C1.32 0 2.64 0 4 0 C4 1.98 4 3.96 4 6 C2.68 5.67 1.36 5.34 0 5 C0 3.35 0 1.7 0 0 Z " fill="#BBBBBB" transform="translate(163,425)"/>
<path d="M0 0 C1.98 0.495 1.98 0.495 4 1 C4 2.32 4 3.64 4 5 C2.68 5.33 1.36 5.66 0 6 C-1 3 -1 3 0 0 Z " fill="#BDBDBD" transform="translate(139,425)"/>
<path d="M0 0 C1.98 0.495 1.98 0.495 4 1 C3.67 2.65 3.34 4.3 3 6 C1.68 5.34 0.36 4.68 -1 4 C-0.67 2.68 -0.34 1.36 0 0 Z " fill="#C4C4C4" transform="translate(76,425)"/>
<path d="M0 0 C1.32 0.33 2.64 0.66 4 1 C4 2.65 4 4.3 4 6 C2.68 6 1.36 6 0 6 C0 4.02 0 2.04 0 0 Z " fill="#BDBDBD" transform="translate(130,425)"/>
<path d="M0 0 C0.99 0 1.98 0 3 0 C3.33 1.32 3.66 2.64 4 4 C2.02 4.99 2.02 4.99 0 6 C-0.38218767 4.34385343 -0.71395102 2.67542976 -1 1 C-0.67 0.67 -0.34 0.34 0 0 Z " fill="#C6C6C6" transform="translate(87,309)"/>
<path d="M0 0 C1.32 0.66 2.64 1.32 4 2 C3.67 3.32 3.34 4.64 3 6 C1.68 5.67 0.36 5.34 -1 5 C-0.67 3.35 -0.34 1.7 0 0 Z " fill="#BDBDBD" transform="translate(111,297)"/>
<path d="M0 0 C1.98 0.495 1.98 0.495 4 1 C4 4 4 4 3 7 C1.68 6.67 0.36 6.34 -1 6 C-0.01 5.34 0.98 4.68 2 4 C1.01 4 0.02 4 -1 4 C-0.67 2.68 -0.34 1.36 0 0 Z " fill="#3D3D3D" transform="translate(158,66)"/>
<path d="M0 0 C0.99 0 1.98 0 3 0 C3.33 1.98 3.66 3.96 4 6 C2.35 5.67 0.7 5.34 -1 5 C-0.67 3.35 -0.34 1.7 0 0 Z " fill="#BBBBBB" transform="translate(143,448)"/>
<path d="M0 0 C2.475 0.495 2.475 0.495 5 1 C4.67 2.32 4.34 3.64 4 5 C2.68 5 1.36 5 0 5 C0 3.35 0 1.7 0 0 Z " fill="#C5C5C5" transform="translate(190,437)"/>
<path d="M0 0 C2.64 0 5.28 0 8 0 C8.33 1.32 8.66 2.64 9 4 C7.35 4 5.7 4 4 4 C4 3.34 4 2.68 4 2 C2.68 1.34 1.36 0.68 0 0 Z " fill="#838383" transform="translate(149,344)"/>
<path d="M0 0 C0 0.66 0 1.32 0 2 C-2.97 2 -5.94 2 -9 2 C-9 1.34 -9 0.68 -9 0 C-5.93109813 -1.53445094 -3.29905734 -0.54984289 0 0 Z " fill="#F3D1CF" transform="translate(49,343)"/>
<path d="M0 0 C2.475 0.495 2.475 0.495 5 1 C5.33 1.99 5.66 2.98 6 4 C5.67 4.66 5.34 5.32 5 6 C4.34 6 3.68 6 3 6 C2.67 4.68 2.34 3.36 2 2 C1.34 3.32 0.68 4.64 0 6 C0 4.02 0 2.04 0 0 Z " fill="#787878" transform="translate(140,263)"/>
<path d="M0 0 C1.98 0.99 1.98 0.99 4 2 C4 3.65 4 5.3 4 7 C2.68 7 1.36 7 0 7 C0 4.69 0 2.38 0 0 Z " fill="#9B9B9B" transform="translate(133,118)"/>
<path d="M0 0 C1.65 0 3.3 0 5 0 C5 2.31 5 4.62 5 7 C4.34 7 3.68 7 3 7 C3 5.68 3 4.36 3 3 C2.01 3.33 1.02 3.66 0 4 C0 2.68 0 1.36 0 0 Z " fill="#797979" transform="translate(45,23)"/>
<path d="M0 0 C0.66 0 1.32 0 2 0 C2 0.66 2 1.32 2 2 C2.99 2 3.98 2 5 2 C5 3.65 5 5.3 5 7 C4.67 5.68 4.34 4.36 4 3 C3.34 3 2.68 3 2 3 C2 4.32 2 5.64 2 7 C1.34 7 0.68 7 0 7 C0 4.69 0 2.38 0 0 Z " fill="#B3B3B3" transform="translate(34,435)"/>
<path d="M0 0 C0.66 0 1.32 0 2 0 C2.12375 0.804375 2.2475 1.60875 2.375 2.4375 C2.684375 3.7059375 2.684375 3.7059375 3 5 C3.66 5.33 4.32 5.66 5 6 C2.69 6 0.38 6 -2 6 C-1.34 4.02 -0.68 2.04 0 0 Z " fill="#B6B6B6" transform="translate(66,330)"/>
<path d="M0 0 C2.2477975 2.05233685 3.0022242 3.00667261 4 6 C2.02 6 0.04 6 -2 6 C-1.34 4.02 -0.68 2.04 0 0 Z " fill="#EFF6F3" transform="translate(39,262)"/>
<path d="M0 0 C0.33 0.66 0.66 1.32 1 2 C2.32 2 3.64 2 5 2 C4.1875 3.9375 4.1875 3.9375 3 6 C2.01 6.33 1.02 6.66 0 7 C0 4.69 0 2.38 0 0 Z " fill="#C9C9C9" transform="translate(70,164)"/>
<path d="M0 0 C0.99 0.33 1.98 0.66 3 1 C3 2.65 3 4.3 3 6 C1.68 6 0.36 6 -1 6 C-1.042721 4.33388095 -1.04063832 2.66617115 -1 1 C-0.67 0.67 -0.34 0.34 0 0 Z " fill="#6A6A6A" transform="translate(91,119)"/>
<path d="M0 0 C0.99 0.33 1.98 0.66 3 1 C3 2.65 3 4.3 3 6 C1.68 5.67 0.36 5.34 -1 5 C-0.67 3.35 -0.34 1.7 0 0 Z " fill="#B6B6B6" transform="translate(76,448)"/>
<path d="M0 0 C1.32 0 2.64 0 4 0 C4 1.65 4 3.3 4 5 C2.35 4.67 0.7 4.34 -1 4 C-0.67 2.68 -0.34 1.36 0 0 Z " fill="#B6B6B6" transform="translate(167,437)"/>
<path d="M0 0 C1.98 0.495 1.98 0.495 4 1 C3.67 2.65 3.34 4.3 3 6 C1.68 5.34 0.36 4.68 -1 4 C-0.67 2.68 -0.34 1.36 0 0 Z " fill="#B3B3B3" transform="translate(62,425)"/>
<path d="M0 0 C1.98 0.495 1.98 0.495 4 1 C3.67 2.65 3.34 4.3 3 6 C1.68 5.34 0.36 4.68 -1 4 C-0.67 2.68 -0.34 1.36 0 0 Z " fill="#B2B2B2" transform="translate(139,309)"/>
<path d="M0 0 C1.65 0 3.3 0 5 0 C5 0.99 5 1.98 5 3 C5.99 3.33 6.98 3.66 8 4 C4.88742431 4 2.89234315 3.82638376 0 3 C0 2.01 0 1.02 0 0 Z " fill="#D2D2D2" transform="translate(186,310)"/>
<path d="M0 0 C1.32 0.33 2.64 0.66 4 1 C3.67 2.65 3.34 4.3 3 6 C2.01 6 1.02 6 0 6 C0 4.02 0 2.04 0 0 Z " fill="#777777" transform="translate(152,263)"/>
<path d="M0 0 C1.98 0 3.96 0 6 0 C5.34 1.65 4.68 3.3 4 5 C3.01 4.67 2.02 4.34 1 4 C0.3125 1.9375 0.3125 1.9375 0 0 Z " fill="#2B9645" transform="translate(37,256)"/>
<path d="M0 0 C1.98 0.66 3.96 1.32 6 2 C4.71034824 3.37562854 3.37310707 4.70766393 2 6 C1.34 6 0.68 6 0 6 C0 4.02 0 2.04 0 0 Z " fill="#CCCCCC" transform="translate(153,436)"/>
<path d="M0 0 C0.99 0 1.98 0 3 0 C3.33 0.99 3.66 1.98 4 3 C3.01 4.485 3.01 4.485 2 6 C1.01 5.67 0.02 5.34 -1 5 C-0.67 3.35 -0.34 1.7 0 0 Z " fill="#B0B0B0" transform="translate(51,425)"/>
<path d="M0 0 C1.32 0 2.64 0 4 0 C4 0.99 4 1.98 4 3 C4.66 3 5.32 3 6 3 C6 3.66 6 4.32 6 5 C3.03 4.505 3.03 4.505 0 4 C0 2.68 0 1.36 0 0 Z " fill="#8B8B8B" transform="translate(141,344)"/>
<path d="M0 0 C1.32 0.33 2.64 0.66 4 1 C4 1.66 4 2.32 4 3 C4.66 3.33 5.32 3.66 6 4 C4.35 4.33 2.7 4.66 1 5 C0.67 3.35 0.34 1.7 0 0 Z " fill="#C2C2C2" transform="translate(76,166)"/>
<path d="M0 0 C0.66 0.99 1.32 1.98 2 3 C1.67 3.66 1.34 4.32 1 5 C-0.65 5 -2.3 5 -4 5 C-2.25 1.125 -2.25 1.125 0 0 Z " fill="#A2A2A2" transform="translate(123,155)"/>
<path d="M0 0 C0.99 0 1.98 0 3 0 C3.33 0.99 3.66 1.98 4 3 C3.67 3.33 3.34 3.66 3 4 C3 4.66 3 5.32 3 6 C1.68 5.67 0.36 5.34 -1 5 C-0.67 3.35 -0.34 1.7 0 0 Z " fill="#686868" transform="translate(128,119)"/>
<path d="M0 0 C0.66 0.66 1.32 1.32 2 2 C2.33 1.34 2.66 0.68 3 0 C3.66 0 4.32 0 5 0 C4.67 1.65 4.34 3.3 4 5 C3.01 5 2.02 5 1 5 C0.67 3.35 0.34 1.7 0 0 Z " fill="#C0C0C0" transform="translate(101,425)"/>
<path d="M0 0 C0.99 0 1.98 0 3 0 C3 1.65 3 3.3 3 5 C1.68 5 0.36 5 -1 5 C-0.67 3.35 -0.34 1.7 0 0 Z " fill="#B8B8B8" transform="translate(68,425)"/>
<path d="M0 0 C1.32 0 2.64 0 4 0 C3.67 1.65 3.34 3.3 3 5 C2.01 4.67 1.02 4.34 0 4 C0 2.68 0 1.36 0 0 Z " fill="#7F7F7F" transform="translate(102,344)"/>
<path d="M0 0 C1.32 0 2.64 0 4 0 C3.67 1.65 3.34 3.3 3 5 C2.01 4.67 1.02 4.34 0 4 C0 2.68 0 1.36 0 0 Z " fill="#7F7F7F" transform="translate(75,344)"/>
<path d="M0 0 C0.99 0 1.98 0 3 0 C3 1.65 3 3.3 3 5 C1.68 5 0.36 5 -1 5 C-0.67 3.35 -0.34 1.7 0 0 Z " fill="#BBBBBB" transform="translate(42,309)"/>
<path d="M0 0 C0.99 0 1.98 0 3 0 C3 1.65 3 3.3 3 5 C1.68 5 0.36 5 -1 5 C-0.67 3.35 -0.34 1.7 0 0 Z " fill="#BABABA" transform="translate(37,309)"/>
<path d="M0 0 C0.66 0 1.32 0 2 0 C2 1.65 2 3.3 2 5 C2.99 5 3.98 5 5 5 C4.67 5.66 4.34 6.32 4 7 C2.68 6.67 1.36 6.34 0 6 C0 4.02 0 2.04 0 0 Z " fill="#C4C4C4" transform="translate(212,308)"/>
<path d="M0 0 C0.99 0.33 1.98 0.66 3 1 C3 2.65 3 4.3 3 6 C1.68 6 0.36 6 -1 6 C-1 3 -1 3 0 0 Z " fill="#B8B8B8" transform="translate(66,164)"/>
<path d="M0 0 C0 1.32 0 2.64 0 4 C-1.65 4 -3.3 4 -5 4 C-5 3.01 -5 2.02 -5 1 C-3 0 -3 0 0 0 Z " fill="#5A5A5A" transform="translate(213,23)"/>
<path d="M0 0 C0.99 0 1.98 0 3 0 C3 1.98 3 3.96 3 6 C1.68 5.67 0.36 5.34 -1 5 C-0.67 3.35 -0.34 1.7 0 0 Z " fill="#BDBDBD" transform="translate(81,448)"/>
<path d="M0 0 C0.66 0.66 1.32 1.32 2 2 C1.625 4.125 1.625 4.125 1 6 C0.01 5.67 -0.98 5.34 -2 5 C-2.6875 2.9375 -2.6875 2.9375 -3 1 C-2.01 0.67 -1.02 0.34 0 0 Z " fill="#CACACA" transform="translate(208,424)"/>
<path d="M0 0 C2.9375 1.3125 2.9375 1.3125 6 3 C6.33 3.99 6.66 4.98 7 6 C6.46375 5.71125 5.9275 5.4225 5.375 5.125 C2.64719516 3.83288192 -0.12612718 2.91441408 -3 2 C-2.01 1.34 -1.02 0.68 0 0 Z " fill="#BC6693" transform="translate(45,385)"/>
<path d="M0 0 C0 1.65 0 3.3 0 5 C-1.32 5 -2.64 5 -4 5 C-4 3.68 -4 2.36 -4 1 C-1 0 -1 0 0 0 Z " fill="#C5C5C5" transform="translate(105,331)"/>
<path d="M0 0 C1.98 0.99 1.98 0.99 4 2 C3.34 3.32 2.68 4.64 2 6 C1.34 5.67 0.68 5.34 0 5 C0 3.35 0 1.7 0 0 Z " fill="#D4D4D4" transform="translate(192,297)"/>
<path d="M0 0 C1.65 0 3.3 0 5 0 C4.34 1.65 3.68 3.3 3 5 C1.5 3.625 1.5 3.625 0 2 C0 1.34 0 0.68 0 0 Z " fill="#E25049" transform="translate(44,268)"/>
<path d="M0 0 C2.97 0.495 2.97 0.495 6 1 C5.34 2.65 4.68 4.3 4 6 C2.62437146 4.71034824 1.29233607 3.37310707 0 2 C0 1.34 0 0.68 0 0 Z " fill="#0D70D8" transform="translate(30,267)"/>
<path d="M0 0 C0.66 0 1.32 0 2 0 C2.33 2.31 2.66 4.62 3 7 C2.01 7.33 1.02 7.66 0 8 C0 5.36 0 2.72 0 0 Z " fill="#8B8B8B" transform="translate(82,261)"/>
<path d="M0 0 C2.475 0.495 2.475 0.495 5 1 C3.84826645 3.46800047 2.95216435 5.04783565 1 7 C-0.231394 4.53721199 -0.07159196 2.7204945 0 0 Z " fill="#EFEFEF" transform="translate(129,153)"/>
<path d="M0 0 C1.32 0 2.64 0 4 0 C4.1875 2.375 4.1875 2.375 4 5 C3.01 5.66 2.02 6.32 1 7 C1.33 5.35 1.66 3.7 2 2 C1.01 1.67 0.02 1.34 -1 1 C-0.67 0.67 -0.34 0.34 0 0 Z " fill="#CD606C" transform="translate(237,64)"/>
<path d="M0 0 C1.65 0 3.3 0 5 0 C4.67 1.65 4.34 3.3 4 5 C3.01 5 2.02 5 1 5 C0.67 3.35 0.34 1.7 0 0 Z " fill="#9E9E9E" transform="translate(122,66)"/>
</svg>
