<?xml version="1.0" encoding="UTF-8"?>
<svg version="1.1" xmlns="http://www.w3.org/2000/svg" width="64" height="55">
<path d="M0 0 C5.28 0 10.56 0 16 0 C14.46461538 6.14153846 14.46461538 6.14153846 13 8 C10.46645911 8.27883941 8.21487739 8.37755166 5.6875 8.3125 C1.72102336 8.09248528 1.72102336 8.09248528 -2 9 C-3.05918194 10.6066355 -3.05918194 10.6066355 -3.9296875 12.515625 C-5.10375977 14.43481445 -5.10375977 14.43481445 -7 16 C-12.61172566 16.92812795 -18.14662762 16.65717172 -23.8125 16.4375 C-25.3794882 16.40236864 -26.94655152 16.37043278 -28.51367188 16.34179688 C-32.34430607 16.26484327 -36.17133034 16.14417319 -40 16 C-39.47620091 12.22864652 -38.88575536 9.59056671 -36 7 C-33.35294872 6.64330107 -31.12764324 6.53223203 -28.48828125 6.609375 C-27.76005661 6.61503479 -27.03183197 6.62069458 -26.28153992 6.62652588 C-23.95785502 6.64889971 -21.63571793 6.69909331 -19.3125 6.75 C-17.73635041 6.77006391 -16.16017663 6.78831488 -14.58398438 6.8046875 C-10.72206076 6.84876717 -6.8612927 6.91779775 -3 7 C-2.690625 6.21625 -2.38125 5.4325 -2.0625 4.625 C-1 2 -1 2 0 0 Z " fill="#FFFFFF" transform="translate(47,16)"/>
<path d="M0 0 C1.30517578 0.12181641 1.30517578 0.12181641 2.63671875 0.24609375 C3.96123047 0.34083984 3.96123047 0.34083984 5.3125 0.4375 C5.97636719 0.51871094 6.64023437 0.59992187 7.32421875 0.68359375 C6.79381569 4.50249575 6.00414489 6.87322872 3.32421875 9.68359375 C0.76394571 10.11956679 -1.61005429 10.05864242 -4.203125 10.01953125 C-5.01910156 10.23867188 -5.83507813 10.4578125 -6.67578125 10.68359375 C-7.20727783 11.67520508 -7.73877441 12.66681641 -8.28637695 13.68847656 C-10.67578125 16.68359375 -10.67578125 16.68359375 -12.49876404 17.21731567 C-14.81307206 17.37830435 -17.06059411 17.3581033 -19.37890625 17.26953125 C-20.21669617 17.26104156 -21.05448608 17.25255188 -21.91766357 17.24380493 C-24.58835556 17.21026948 -27.25600536 17.13499662 -29.92578125 17.05859375 C-31.73823758 17.02849403 -33.55074133 17.00111823 -35.36328125 16.9765625 C-39.80194985 16.91047849 -44.2383502 16.80696117 -48.67578125 16.68359375 C-48.12854442 13.3089666 -47.62088125 11.60124375 -45.67578125 8.68359375 C-42.82948476 8.43208457 -40.18763619 8.36297869 -37.34375 8.41796875 C-35.64127382 8.41519658 -33.93879921 8.41125335 -32.23632812 8.40625 C-29.5498845 8.41459528 -26.86462633 8.43357345 -24.1784668 8.47412109 C-21.58678107 8.5070329 -18.9980316 8.49660098 -16.40625 8.48046875 C-15.20756538 8.51596832 -15.20756538 8.51596832 -13.98466492 8.55218506 C-9.58970929 8.53072168 -9.58970929 8.53072168 -6.11766052 6.09593201 C-4.77860744 4.21313443 -4.77860744 4.21313443 -3.72390747 2.25358582 C-2.67578125 0.68359375 -2.67578125 0.68359375 0 0 Z " fill="#FFFFFF" transform="translate(49.67578125,26.31640625)"/>
<path d="M0 0 C9.9 0 19.8 0 30 0 C27.43766186 6.40584536 27.43766186 6.40584536 24 9 C21.06738281 9.45410156 21.06738281 9.45410156 17.703125 9.390625 C16.49785156 9.37773437 15.29257812 9.36484375 14.05078125 9.3515625 C12.79652344 9.31804688 11.54226562 9.28453125 10.25 9.25 C8.98027344 9.23195313 7.71054687 9.21390625 6.40234375 9.1953125 C3.26746923 9.14817153 0.1341144 9.08237664 -3 9 C-2.41321669 5.47930015 -1.64350079 3.28700157 0 0 Z " fill="#FFFFFF" transform="translate(16,12)"/>
</svg>
