<?xml version="1.0" encoding="UTF-8"?>
<svg version="1.1" xmlns="http://www.w3.org/2000/svg" width="368" height="397">
<path d="M0 0 C1.40190379 -0.00457038 2.80380536 -0.00987848 4.20570374 -0.0158844 C7.13324122 -0.02478061 10.0605054 -0.02243263 12.98803711 -0.01245117 C16.71797523 -0.00096568 20.44696596 -0.02118306 24.17677975 -0.05036831 C27.06895319 -0.06881758 29.96090321 -0.06842067 32.8531208 -0.06273079 C34.22728364 -0.06257864 35.60146267 -0.06853419 36.97556877 -0.08102226 C47.77403493 -0.16535411 55.90125338 1.30555123 64.03125 8.71875 C68.96797304 14.34789653 70.67026221 20.78789147 70.59765625 28.12109375 C70.58863281 29.30058594 70.57960938 30.48007813 70.5703125 31.6953125 C70.55871094 32.59894531 70.54710938 33.50257813 70.53515625 34.43359375 C69.75390381 34.44293945 68.97265137 34.45228516 68.16772461 34.46191406 C64.60207861 34.51584687 61.0377121 34.59945185 57.47265625 34.68359375 C56.24353516 34.69777344 55.01441406 34.71195313 53.74804688 34.7265625 C46.91148529 34.9108364 41.97144581 35.0845621 36.53515625 39.43359375 C33.55855883 43.53981402 33.79235006 48.57855122 34.53515625 53.43359375 C36.25831015 57.0573938 38.58713497 59.05104725 42.33642578 60.56396484 C45.53162293 61.43263316 48.28711084 61.74550987 51.58984375 61.84765625 C52.6984375 61.88632813 53.80703125 61.925 54.94921875 61.96484375 C56.66238281 62.01125 56.66238281 62.01125 58.41015625 62.05859375 C59.57546875 62.09726563 60.74078125 62.1359375 61.94140625 62.17578125 C64.80583489 62.26969694 67.67026317 62.35537358 70.53515625 62.43359375 C71.04965392 73.28091959 70.41253955 80.50347811 64.41015625 89.68359375 C57.68559041 96.11578716 49.84542815 98.53285416 40.69433594 98.59472656 C39.54253845 98.60433411 38.39074097 98.61394165 37.20404053 98.62384033 C35.34927094 98.63021515 35.34927094 98.63021515 33.45703125 98.63671875 C31.53531097 98.64526886 31.53531097 98.64526886 29.57476807 98.6539917 C26.86478278 98.66447264 24.15482689 98.67033394 21.44482422 98.67382812 C17.9941131 98.67929981 14.54379913 98.70331122 11.09321213 98.73180008 C7.7769938 98.75505265 4.46082676 98.75688442 1.14453125 98.76171875 C-0.08388489 98.77406555 -1.31230103 98.78641235 -2.57794189 98.7991333 C-13.1471917 98.7718925 -21.71477999 96.98104146 -29.46484375 89.43359375 C-35.3812184 81.81424277 -35.57757125 75.9027035 -35.46484375 66.43359375 C-30.84484375 66.43359375 -26.22484375 66.43359375 -21.46484375 66.43359375 C-19.81484375 70.72359375 -18.16484375 75.01359375 -16.46484375 79.43359375 C-14.42941406 79.48257813 -12.39398438 79.5315625 -10.296875 79.58203125 C-8.31435296 79.63768099 -6.33183218 79.69339747 -4.34936523 79.75097656 C-2.97705794 79.78913663 -1.60465504 79.82401171 -0.23217773 79.85546875 C1.74647915 79.90140057 3.72482067 79.96033012 5.703125 80.01953125 C7.48626099 80.0666626 7.48626099 80.0666626 9.30541992 80.11474609 C12.53515625 80.43359375 12.53515625 80.43359375 15.2746582 81.58447266 C16.02062256 81.86468262 16.76658691 82.14489258 17.53515625 82.43359375 C18.52515625 81.77359375 19.51515625 81.11359375 20.53515625 80.43359375 C20.95182292 77.93359375 20.95182292 77.93359375 20.53515625 75.43359375 C19.54515625 74.44359375 19.54515625 74.44359375 18.53515625 73.43359375 C15.22832159 73.72342644 15.22832159 73.72342644 12.53515625 75.43359375 C10.53550643 75.52117378 8.53279515 75.54055951 6.53125 75.53125 C4.70883789 75.52641602 4.70883789 75.52641602 2.84960938 75.52148438 C1.57021484 75.51310547 0.29082031 75.50472656 -1.02734375 75.49609375 C-2.31060547 75.49158203 -3.59386719 75.48707031 -4.91601562 75.48242188 C-8.09897795 75.4705893 -11.28191649 75.45265319 -14.46484375 75.43359375 C-16.11484375 71.14359375 -17.76484375 66.85359375 -19.46484375 62.43359375 C-24.74484375 62.10359375 -30.02484375 61.77359375 -35.46484375 61.43359375 C-35.46484375 58.46359375 -35.46484375 55.49359375 -35.46484375 52.43359375 C-26.88484375 52.43359375 -18.30484375 52.43359375 -9.46484375 52.43359375 C-9.46484375 53.09359375 -9.46484375 53.75359375 -9.46484375 54.43359375 C-5.99984375 53.93859375 -5.99984375 53.93859375 -2.46484375 53.43359375 C-1.69528239 51.08825424 -1.69528239 51.08825424 -1.46484375 48.43359375 C-2.52829427 46.45329693 -2.52829427 46.45329693 -4.46484375 45.43359375 C-6.60230297 45.68505954 -7.92410154 45.89285154 -9.46484375 47.43359375 C-11.39151882 47.52107582 -13.32136236 47.54056709 -15.25 47.53125 C-17.00473633 47.52641602 -17.00473633 47.52641602 -18.79492188 47.52148438 C-20.6424707 47.50891602 -20.6424707 47.50891602 -22.52734375 47.49609375 C-24.38069336 47.48932617 -24.38069336 47.48932617 -26.27148438 47.48242188 C-29.33598492 47.47058983 -32.40039096 47.45410548 -35.46484375 47.43359375 C-35.46484375 44.46359375 -35.46484375 41.49359375 -35.46484375 38.43359375 C-27.54484375 37.93859375 -27.54484375 37.93859375 -19.46484375 37.43359375 C-17.81484375 33.14359375 -16.16484375 28.85359375 -14.46484375 24.43359375 C-11.6729217 24.37978797 -8.88202965 24.34001706 -6.08984375 24.30859375 C-5.29578125 24.29183594 -4.50171875 24.27507812 -3.68359375 24.2578125 C-1.6099236 24.24023902 0.46398866 24.33024207 2.53515625 24.43359375 C3.19515625 25.09359375 3.85515625 25.75359375 4.53515625 26.43359375 C7.84199091 26.14376106 7.84199091 26.14376106 10.53515625 24.43359375 C10.57579457 22.7674226 10.57787725 21.0997128 10.53515625 19.43359375 C8.20661162 18.23521166 8.20661162 18.23521166 5.53515625 17.43359375 C4.54515625 18.09359375 3.55515625 18.75359375 2.53515625 19.43359375 C0.45043945 19.75244141 0.45043945 19.75244141 -1.9140625 19.84765625 C-3.18540039 19.90566406 -3.18540039 19.90566406 -4.48242188 19.96484375 C-5.8040332 20.01125 -5.8040332 20.01125 -7.15234375 20.05859375 C-8.04501953 20.09726563 -8.93769531 20.1359375 -9.85742188 20.17578125 C-12.05955753 20.26999026 -14.26217222 20.35287869 -16.46484375 20.43359375 C-18.11484375 24.72359375 -19.76484375 29.01359375 -21.46484375 33.43359375 C-26.08484375 33.43359375 -30.70484375 33.43359375 -35.46484375 33.43359375 C-36.00408849 23.29579258 -35.53617114 16.15370503 -28.6328125 8.3671875 C-20.06427972 0.27186758 -11.29998844 -0.03242108 0 0 Z " fill="#763E95" transform="translate(45.46484375,153.56640625)"/>
<path d="M0 0 C34.58560606 0 34.58560606 0 42.53515625 6.4140625 C48.54210932 12.91759036 50.13703327 19.98971456 50.09765625 28.61328125 C50.09443359 29.86044922 50.09121094 31.10761719 50.08789062 32.39257812 C50.07532227 34.33293945 50.07532227 34.33293945 50.0625 36.3125 C50.05798828 37.62541016 50.05347656 38.93832031 50.04882812 40.29101562 C50.03705959 43.52736328 50.01912463 46.76368745 50 50 C45.71 50 41.42 50 37 50 C36.96261719 48.03675781 36.92523438 46.07351562 36.88671875 44.05078125 C36.82106012 41.47133503 36.75461275 38.8919088 36.6875 36.3125 C36.65366211 34.37213867 36.65366211 34.37213867 36.61914062 32.39257812 C36.58369141 31.14541016 36.54824219 29.89824219 36.51171875 28.61328125 C36.48553467 27.46641846 36.45935059 26.31955566 36.43237305 25.13793945 C35.95800204 21.6952006 35.05112309 19.7795564 33 17 C30.89418877 15.59045158 30.89418877 15.59045158 28.4375 14.75 C27.65246094 14.43546875 26.86742187 14.1209375 26.05859375 13.796875 C21.80665381 12.68908988 17.37207398 12.4372074 13 12 C13 24.54 13 37.08 13 50 C8.71 50 4.42 50 0 50 C0 33.5 0 17 0 0 Z " fill="#000000" transform="translate(157,160)"/>
<path d="M0 0 C11.88 0 23.76 0 36 0 C36.0825 5.61 36.165 11.22 36.25 17 C36.28641602 18.75441406 36.32283203 20.50882813 36.36035156 22.31640625 C36.3720513 23.73175845 36.38224007 25.14712428 36.390625 26.5625 C36.41108887 27.27728516 36.43155273 27.99207031 36.45263672 28.72851562 C36.45712143 35.31206678 34.36246207 40.57191398 29.75 45.3125 C22.63857269 49.67633039 16.66406107 50.41889417 8.5 50.1875 C7.5821875 50.17396484 6.664375 50.16042969 5.71875 50.14648438 C3.47890785 50.11148684 1.23937248 50.05769376 -1 50 C-1 46.04 -1 42.08 -1 38 C0.18078125 37.95101562 1.3615625 37.90203125 2.578125 37.8515625 C4.13543937 37.77651121 5.69272991 37.70096439 7.25 37.625 C8.02730469 37.5940625 8.80460938 37.563125 9.60546875 37.53125 C15.11459995 37.33282016 15.11459995 37.33282016 20 35 C22.08745045 31.86882433 22.27653996 30.93053776 22.4140625 27.33203125 C22.44967285 26.52741455 22.4852832 25.72279785 22.52197266 24.89379883 C22.55597168 23.87697021 22.5899707 22.8601416 22.625 21.8125 C22.810625 16.9553125 22.810625 16.9553125 23 12 C15.41 12 7.82 12 0 12 C0 8.04 0 4.08 0 0 Z " fill="#000000" transform="translate(211,160)"/>
<path d="M0 0 C0.76217331 -0.00807175 1.52434662 -0.01614349 2.30961609 -0.02445984 C3.92440518 -0.0382985 5.53922349 -0.04902164 7.15405273 -0.05688477 C9.61694208 -0.07408067 12.07848281 -0.11796382 14.54101562 -0.16210938 C16.11066722 -0.1722381 17.68033022 -0.18075364 19.25 -0.1875 C19.98350174 -0.20500809 20.71700348 -0.22251617 21.47273254 -0.24055481 C25.14357626 -0.22507793 27.1533127 0.12781845 30.26635742 2.13989258 C33.42199212 5.35767408 33.46005599 7.21427372 33.51708984 11.6184082 C33.53315277 12.74330154 33.5492157 13.86819489 33.56576538 15.0271759 C33.61013351 20.17394216 33.65171977 25.32061926 33.67431641 30.4675293 C33.68765086 33.18466904 33.71549257 35.90105685 33.75634766 38.61791992 C33.81516043 42.52911355 33.83297838 46.43994177 33.84765625 50.3515625 C33.87032562 51.56628738 33.892995 52.78101227 33.91635132 54.032547 C33.89278132 63.41369683 33.89278132 63.41369683 30.97900391 66.48120117 C25.20743872 70.30113446 18.79034254 69.46041944 12.12792969 69.47851562 C9.9638009 69.48821589 7.80062456 69.51924892 5.63671875 69.55078125 C4.25391187 69.55731252 2.87109822 69.56256251 1.48828125 69.56640625 C-0.39189697 69.5804248 -0.39189697 69.5804248 -2.31005859 69.59472656 C-5.94686252 69.20957251 -7.78259121 68.42888602 -10.67578125 66.23828125 C-13.67578125 61.99690194 -13.67578125 61.99690194 -13.67578125 59.23828125 C-11.03578125 59.23828125 -8.39578125 59.23828125 -5.67578125 59.23828125 C-5.34578125 59.89828125 -5.01578125 60.55828125 -4.67578125 61.23828125 C5.55421875 61.23828125 15.78421875 61.23828125 26.32421875 61.23828125 C25.99421875 43.74828125 25.66421875 26.25828125 25.32421875 8.23828125 C15.09421875 7.90828125 4.86421875 7.57828125 -5.67578125 7.23828125 C-6.00578125 12.84828125 -6.33578125 18.45828125 -6.67578125 24.23828125 C-8.98578125 24.23828125 -11.29578125 24.23828125 -13.67578125 24.23828125 C-13.78439958 21.52885732 -13.86336702 18.82384225 -13.92578125 16.11328125 C-13.95929688 15.35273438 -13.9928125 14.5921875 -14.02734375 13.80859375 C-14.11955149 8.46054499 -13.24105186 5.47699186 -9.67578125 1.23828125 C-6.60534699 -0.29693588 -3.37149521 0.03367478 0 0 Z " fill="#763E96" transform="translate(324.67578125,196.76171875)"/>
<path d="M0 0 C2.27818415 -0.00218869 4.5558858 -0.0203553 6.83398438 -0.03930664 C8.27669105 -0.04224019 9.71940003 -0.04422524 11.16210938 -0.04516602 C13.13824219 -0.05132935 13.13824219 -0.05132935 15.15429688 -0.05761719 C18.28710938 0.18530273 18.28710938 0.18530273 20.28710938 2.18530273 C20.51263279 5.04095632 20.61139701 7.76783784 20.59960938 10.62280273 C20.61572266 11.39946289 20.63183594 12.17612305 20.6484375 12.97631836 C20.6532887 18.60855597 20.6532887 18.60855597 19.19555664 20.90454102 C16.30440604 22.84479636 13.84051095 22.59200192 10.38867188 22.61889648 C9.71669769 22.62413834 9.04472351 22.62938019 8.35238647 22.63478088 C6.93187845 22.64119794 5.51131727 22.63986807 4.09082031 22.63134766 C1.92610986 22.62285764 -0.23594231 22.65156297 -2.40039062 22.68334961 C-3.78320234 22.6849624 -5.1660187 22.6843826 -6.54882812 22.68139648 C-7.80228027 22.68324951 -9.05573242 22.68510254 -10.34716797 22.68701172 C-14.27948687 22.10084348 -15.91670419 20.95405026 -18.71289062 18.18530273 C-20.6767286 14.25762679 -20.18799399 9.46756775 -19.71289062 5.18530273 C-14.87046771 -1.59408935 -7.51501728 -0.00081191 0 0 Z M-13.02539062 6.87280273 C-14.96464304 9.05317251 -14.96464304 9.05317251 -14.71289062 11.74780273 C-13.49633247 14.71316323 -12.61712874 15.81385696 -9.71289062 17.18530273 C-7.0045401 16.8355245 -7.0045401 16.8355245 -4.71289062 15.18530273 C-3.35211027 12.66157372 -3.35211027 12.66157372 -2.71289062 10.18530273 C-4.44411527 7.60411203 -4.44411527 7.60411203 -6.71289062 5.18530273 C-10.6514876 4.79232335 -10.6514876 4.79232335 -13.02539062 6.87280273 Z " fill="#753D95" transform="translate(101.712890625,190.814697265625)"/>
<path d="M0 0 C4.29 0 8.58 0 13 0 C13 16.5 13 33 13 50 C8.71 50 4.42 50 0 50 C0 33.5 0 17 0 0 Z " fill="#000000" transform="translate(250,160)"/>
<path d="M0 0 C6.55875 -0.0928125 6.55875 -0.0928125 13.25 -0.1875 C15.30976074 -0.22846802 15.30976074 -0.22846802 17.41113281 -0.27026367 C18.49749023 -0.27775635 19.58384766 -0.28524902 20.703125 -0.29296875 C22.36843262 -0.31653442 22.36843262 -0.31653442 24.06738281 -0.34057617 C27.33615602 0.0390391 28.67266613 0.71620936 31 3 C32.37089813 6.90178699 31.72696536 10.0016905 31 14 C31.33 14.33 31.66 14.66 32 15 C32.59253899 22.22897572 32.59253899 22.22897572 30.38061523 25.10717773 C27.24988888 27.5964118 25.4492369 27.4627134 21.484375 27.390625 C20.23398438 27.37773437 18.98359375 27.36484375 17.6953125 27.3515625 C15.74238281 27.30128906 15.74238281 27.30128906 13.75 27.25 C12.43257812 27.23195312 11.11515625 27.21390625 9.7578125 27.1953125 C6.50489844 27.14816882 3.25235783 27.07642616 0 27 C0 18.09 0 9.18 0 0 Z M7 5 C7 6.98 7 8.96 7 11 C9.4377963 11.05397335 11.87439685 11.09365616 14.3125 11.125 C15.34793945 11.15013672 15.34793945 11.15013672 16.40429688 11.17578125 C20.17135396 11.21217794 21.78431704 11.14378864 25 9 C24.67 8.01 24.34 7.02 24 6 C20.93466836 4.46733418 17.73245728 4.89723529 14.375 4.9375 C13.31539062 4.94426758 13.31539062 4.94426758 12.234375 4.95117188 C10.48954725 4.96296125 8.744763 4.98089676 7 5 Z M7 16 C7 17.98 7 19.96 7 22 C9.62506802 22.02690844 12.24986173 22.04679404 14.875 22.0625 C15.62136719 22.07087891 16.36773437 22.07925781 17.13671875 22.08789062 C21.19845578 22.20688084 21.19845578 22.20688084 25 21 C24.67 19.35 24.34 17.7 24 16 C18.39 16 12.78 16 7 16 Z " fill="#000000" transform="translate(217,225)"/>
<path d="M0 0 C7.03597677 0 8.41242039 1.4396263 13.53515625 5.6640625 C15.93719019 7.32149358 15.93719019 7.32149358 18.59765625 6.375 C21.31490658 4.81976079 23.585646 3.0477007 25.9609375 1.0234375 C28 0 28 0 35 0 C35 8.91 35 17.82 35 27 C32.69 27 30.38 27 28 27 C27.67 21.39 27.34 15.78 27 10 C25.35 10.99 23.7 11.98 22 13 C21.17695987 16.40934596 21.17695987 16.40934596 21.1875 20.1875 C21.13980469 21.45980469 21.09210938 22.73210937 21.04296875 24.04296875 C21.02169922 25.50669922 21.02169922 25.50669922 21 27 C18.69 27 16.38 27 14 27 C14 22.38 14 17.76 14 13 C11.525 12.01 11.525 12.01 9 11 C8.01 10.34 7.02 9.68 6 9 C6 14.94 6 20.88 6 27 C4.02 27 2.04 27 0 27 C0 18.09 0 9.18 0 0 Z " fill="#000000" transform="translate(139,225)"/>
<path d="M0 0 C3.96 0 7.92 0 12 0 C12 16.5 12 33 12 50 C8.04 50 4.08 50 0 50 C0 33.5 0 17 0 0 Z " fill="#000000" transform="translate(141,160)"/>
<path d="M0 0 C9.9 0 19.8 0 30 0 C30 1.98 30 3.96 30 6 C22.41 6 14.82 6 7 6 C7 7.65 7 9.3 7 11 C13.93 11 20.86 11 28 11 C28 12.65 28 14.3 28 16 C21.07 16 14.14 16 7 16 C7 17.98 7 19.96 7 22 C14.59 22 22.18 22 30 22 C30 23.65 30 25.3 30 27 C20.1 27 10.2 27 0 27 C0 18.09 0 9.18 0 0 Z " fill="#000000" transform="translate(292,225)"/>
<path d="M0 0 C0.83724609 -0.01160156 1.67449219 -0.02320313 2.53710938 -0.03515625 C8.36458564 -0.00747228 11.69482736 1.02413774 16.1875 4.875 C18.94828115 8.18793738 18.71490173 12.00229332 18.6484375 16.08984375 C18.33592208 19.47542746 17.40861504 21.61543894 15.4375 24.375 C10.29593323 27.71781431 5.86235841 27.83292959 -0.0625 27.75 C-1.30580078 27.76740234 -1.30580078 27.76740234 -2.57421875 27.78515625 C-7.64823186 27.76095587 -11.16540193 27.16572788 -15.5625 24.375 C-19.23718231 20.45533887 -19.00871966 16.08280943 -18.84375 10.96875 C-18.48421053 7.65299713 -17.85660204 5.82204217 -15.5625 3.375 C-10.35457719 0.06453744 -5.97100162 -0.08312299 0 0 Z M-11.4375 9.0625 C-13.09833755 12.47644385 -12.48202707 14.76257223 -11.5625 18.375 C-9.66716125 20.95955285 -8.67423483 21.33775506 -5.5625 22.375 C2.99780921 23.10082687 2.99780921 23.10082687 10.4375 19.375 C12.01672406 17.79577594 11.645159 16.18056126 11.6875 14 C11.71328125 13.20851562 11.7390625 12.41703125 11.765625 11.6015625 C11.60724408 9.32454752 11.60724408 9.32454752 10.171875 7.6484375 C4.21200489 3.27249683 -6.12533611 4.2815525 -11.4375 9.0625 Z " fill="#000000" transform="translate(195.5625,224.625)"/>
<path d="M0 0 C4.21850058 3.41497666 4.07011189 5.42067133 5 11 C-10.18 11 -25.36 11 -41 11 C-40 9 -40 9 -37.6550293 8.05444336 C-36.63836182 7.73612549 -35.62169434 7.41780762 -34.57421875 7.08984375 C-33.46755859 6.73986328 -32.36089844 6.38988281 -31.22070312 6.02929688 C-30.05474609 5.66900391 -28.88878906 5.30871094 -27.6875 4.9375 C-26.53314453 4.57333984 -25.37878906 4.20917969 -24.18945312 3.83398438 C-8.40066569 -1.12349328 -8.40066569 -1.12349328 0 0 Z " fill="#723B91" transform="translate(95,139)"/>
<path d="M0 0 C2.31 0 4.62 0 7 0 C7 7.26 7 14.52 7 22 C13.6 22 20.2 22 27 22 C27 23.65 27 25.3 27 27 C18.09 27 9.18 27 0 27 C0 18.09 0 9.18 0 0 Z " fill="#000000" transform="translate(263,225)"/>
<path d="M0 0 C2.55663274 1.33157955 4.2525436 2.30108583 6 4.5625 C5.67 5.5525 5.34 6.5425 5 7.5625 C2.27197266 8.74511719 2.27197266 8.74511719 -1.3359375 9.859375 C-1.97109283 10.05726624 -2.60624817 10.25515747 -3.26065063 10.45904541 C-4.60554639 10.87493214 -5.95233124 11.2847509 -7.30078125 11.68896484 C-9.36460559 12.30937531 -11.42054982 12.95188897 -13.4765625 13.59765625 C-23.58643727 16.70035424 -23.58643727 16.70035424 -27 15.5625 C-7.33850169 -1.80000985 -7.33850169 -1.80000985 0 0 Z " fill="#773F97" transform="translate(67,131.4375)"/>
<path d="M0 0 C2.31 0 4.62 0 7 0 C7 8.91 7 17.82 7 27 C4.69 27 2.38 27 0 27 C0 18.09 0 9.18 0 0 Z " fill="#000000" transform="translate(252,225)"/>
<path d="M0 0 C2.375 1.375 2.375 1.375 3.3125 3.8125 C3.375 6.375 3.375 6.375 1.375 9.375 C-1.625 9.6875 -1.625 9.6875 -4.625 9.375 C-5.285 8.715 -5.945 8.055 -6.625 7.375 C-6.25 3.75 -6.25 3.75 -5.625 0.375 C-2.625 -0.625 -2.625 -0.625 0 0 Z " fill="#000000" transform="translate(336.625,243.625)"/>
</svg>
