<?xml version="1.0" encoding="UTF-8"?>
<svg version="1.1" xmlns="http://www.w3.org/2000/svg" width="269" height="554">
<path d="M0 0 C88.77 0 177.54 0 269 0 C269 182.82 269 365.64 269 554 C180.23 554 91.46 554 0 554 C0 371.18 0 188.36 0 0 Z " fill="#FBF7F7" transform="translate(0,0)"/>
<path d="M0 0 C88.77 0 177.54 0 269 0 C269 182.82 269 365.64 269 554 C180.23 554 91.46 554 0 554 C0 371.18 0 188.36 0 0 Z M17.07421875 15.68359375 C16.61660156 16.26238281 16.15898437 16.84117188 15.6875 17.4375 C14.98173828 18.30181641 14.98173828 18.30181641 14.26171875 19.18359375 C11.40727345 23.29293451 10.75045275 26.16192147 10.75390434 31.20814896 C10.74992225 32.49103593 10.74594015 33.77392291 10.74183738 35.09568524 C10.74754352 36.52238871 10.75343471 37.94909144 10.75949097 39.37579346 C10.75861909 40.88892335 10.75686844 42.40205294 10.75431263 43.91518092 C10.7498316 48.07915804 10.75785316 52.24303267 10.76786876 56.40699673 C10.77649008 60.89503925 10.77358403 65.3830758 10.77206421 69.87112427 C10.77101452 77.64897282 10.77729987 85.42678787 10.78853989 93.20462799 C10.80478058 104.45013282 10.81000143 115.69562141 10.81251587 126.94113669 C10.81689522 145.18537636 10.83021083 163.42959816 10.84912109 181.67382812 C10.86747368 199.3984366 10.8816103 217.12304021 10.89013672 234.84765625 C10.89067271 235.95099037 10.89120871 237.05432448 10.89176095 238.19109297 C10.89591969 246.81964166 10.89983357 255.44819047 10.90367007 264.07673931 C10.92254405 306.38450927 10.96277909 348.69223452 11 391 C92.51 391 174.02 391 258 391 C258.08738617 326.29785741 258.08738617 326.29785741 258.14648438 261.59570312 C258.15235812 252.87703433 258.15841961 244.1583657 258.16479492 235.43969727 C258.16558617 234.34693224 258.16637741 233.25416721 258.16719264 232.12828809 C258.18024573 214.47920839 258.20390004 196.83015798 258.23145839 179.18109565 C258.25949858 161.07261496 258.27617333 142.96414961 258.28226548 124.8556481 C258.2863848 113.67892246 258.29940217 102.50227954 258.3237494 91.32557935 C258.33958947 83.66455563 258.34440428 76.00357476 258.34050413 68.34253585 C258.3385799 63.92045502 258.34155983 59.49851889 258.35761642 55.0764637 C258.37220961 51.0279119 258.37295618 46.97960219 258.36269668 42.93103928 C258.36142858 41.46658577 258.36523912 40.00211719 258.37464955 38.53769337 C258.62761303 26.97816829 258.62761303 26.97816829 253.3515625 17.07421875 C252.78179687 16.61660156 252.21203125 16.15898437 251.625 15.6875 C251.06039062 15.21699219 250.49578125 14.74648437 249.9140625 14.26171875 C245.82559029 11.56666462 242.24457432 10.75059966 237.38354492 10.77294922 C236.28278122 10.77310028 235.18201752 10.77325134 234.04789734 10.77340698 C232.8706459 10.78372955 231.69339447 10.79405212 230.48046875 10.8046875 C228.65990715 10.80893234 228.65990715 10.80893234 226.80256653 10.81326294 C222.93077689 10.82444692 219.05921959 10.8495487 215.1875 10.875 C212.56055022 10.88503208 209.93359681 10.89415754 207.30664062 10.90234375 C200.87101464 10.92438046 194.43552392 10.95784059 188 11 C187.81824219 11.62648438 187.63648438 12.25296875 187.44921875 12.8984375 C187.19785156 13.71570313 186.94648438 14.53296875 186.6875 15.375 C186.44386719 16.18710937 186.20023438 16.99921875 185.94921875 17.8359375 C185 20 185 20 182 22 C179.00653263 22.21066009 176.10482716 22.30408263 173.10986328 22.30639648 C171.74599991 22.31888176 171.74599991 22.31888176 170.35458374 22.33161926 C167.34311668 22.35575235 164.33186606 22.36449534 161.3203125 22.37109375 C159.22907444 22.38005741 157.13783705 22.3891792 155.04660034 22.39845276 C150.66012004 22.41495421 146.27371616 22.42264501 141.88720703 22.42553711 C136.26564931 22.43092272 130.64480956 22.46860555 125.02345467 22.51428127 C120.7031695 22.54401931 116.38305792 22.55125996 112.06267929 22.55226326 C109.99020982 22.55647186 107.91774012 22.56893167 105.84537125 22.58978081 C102.9460186 22.61662792 100.04833912 22.61188959 97.14892578 22.59936523 C96.29264587 22.61419952 95.43636597 22.62903381 94.55413818 22.64431763 C90.2310401 22.59112183 88.51165588 22.3946929 84.97897339 19.66957092 C82.76752362 16.6863969 82.2560835 14.67053018 82 11 C74.15297684 10.92379965 66.30604948 10.87133671 58.45874023 10.83520508 C55.79026928 10.82183639 53.12228282 10.79968395 50.45385742 10.77368164 C46.61370748 10.73720415 42.77388562 10.72025141 38.93359375 10.70703125 C37.74479111 10.69154739 36.55598846 10.67606354 35.3311615 10.66011047 C28.26066069 10.65868081 22.61384285 10.84063637 17.07421875 15.68359375 Z " fill="#FCFBFC" transform="translate(0,0)"/>
<path d="M0 0 C1.12085999 0.00007553 2.24171997 0.00015106 3.39654541 0.00022888 C4.60083191 0.00539017 5.80511841 0.01055145 7.04589844 0.01586914 C8.28321716 0.01728409 9.52053589 0.01869904 10.79534912 0.02015686 C14.07672285 0.0248043 17.35804717 0.03378192 20.6394043 0.04486084 C23.99104355 0.05511019 27.34268492 0.0595768 30.69433594 0.06469727 C37.26466775 0.07572514 43.83496655 0.09246243 50.40527344 0.11352539 C50.65277344 1.18602539 50.90027344 2.25852539 51.15527344 3.36352539 C52.48262412 7.34557744 53.05659368 8.69123367 56.40527344 11.11352539 C59.40996737 11.70613223 62.37034221 11.65991819 65.42480469 11.63110352 C66.79129654 11.64161743 66.79129654 11.64161743 68.18539429 11.65234375 C71.19649747 11.66994791 74.20666071 11.65829228 77.21777344 11.64477539 C79.30997905 11.6474696 81.40218344 11.65135143 83.49438477 11.65637207 C87.87919028 11.66227041 92.26366986 11.65369318 96.6484375 11.63500977 C102.27114302 11.61222024 107.89308484 11.62534149 113.51576233 11.64929962 C117.83603681 11.6637484 122.15613 11.65915579 126.47640991 11.64878845 C128.54967336 11.64611863 130.62295323 11.64939987 132.69619751 11.65870667 C135.5931564 11.66885693 138.48887571 11.65339228 141.38574219 11.63110352 C142.24404633 11.63920044 143.10235046 11.64729736 143.98666382 11.65563965 C148.76732689 11.58978742 148.76732689 11.58978742 152.89086914 9.31555176 C154.88987308 6.4088911 155.61726822 3.52821465 156.40527344 0.11352539 C164.09151871 0.01182009 171.77758939 -0.05806864 179.46435547 -0.10620117 C182.07737717 -0.12627394 184.69035419 -0.15353819 187.30322266 -0.18823242 C191.06651866 -0.23693896 194.82921893 -0.25948772 198.59277344 -0.27709961 C199.75454102 -0.29774475 200.91630859 -0.31838989 202.11328125 -0.33966064 C209.93993498 -0.34180925 215.37462153 0.62590249 221.46386719 5.89477539 C221.91890625 6.46196289 222.37394531 7.02915039 222.84277344 7.61352539 C223.31585938 8.18071289 223.78894531 8.74790039 224.27636719 9.33227539 C237.09056079 29.55121062 226.40527344 57.1759211 226.40527344 81.11352539 C144.89527344 81.11352539 63.38527344 81.11352539 -20.59472656 81.11352539 C-20.59472656 14.11352539 -20.59472656 14.11352539 -15.59472656 6.11352539 C-10.3252982 1.05917574 -7.11477142 -0.01602426 0 0 Z " fill="#FCFCFC" transform="translate(31.5947265625,10.886474609375)"/>
<path d="M0 0 C88.77 0 177.54 0 269 0 C269 182.82 269 365.64 269 554 C266.03 554 263.06 554 260 554 C260 503.84 260 453.68 260 402 C177.17 402 94.34 402 9 402 C9 452.16 9 502.32 9 554 C6.03 554 3.06 554 0 554 C0 371.18 0 188.36 0 0 Z M17.07421875 15.68359375 C16.61660156 16.26238281 16.15898437 16.84117188 15.6875 17.4375 C14.98173828 18.30181641 14.98173828 18.30181641 14.26171875 19.18359375 C11.40727345 23.29293451 10.75045275 26.16192147 10.75390434 31.20814896 C10.74992225 32.49103593 10.74594015 33.77392291 10.74183738 35.09568524 C10.74754352 36.52238871 10.75343471 37.94909144 10.75949097 39.37579346 C10.75861909 40.88892335 10.75686844 42.40205294 10.75431263 43.91518092 C10.7498316 48.07915804 10.75785316 52.24303267 10.76786876 56.40699673 C10.77649008 60.89503925 10.77358403 65.3830758 10.77206421 69.87112427 C10.77101452 77.64897282 10.77729987 85.42678787 10.78853989 93.20462799 C10.80478058 104.45013282 10.81000143 115.69562141 10.81251587 126.94113669 C10.81689522 145.18537636 10.83021083 163.42959816 10.84912109 181.67382812 C10.86747368 199.3984366 10.8816103 217.12304021 10.89013672 234.84765625 C10.89067271 235.95099037 10.89120871 237.05432448 10.89176095 238.19109297 C10.89591969 246.81964166 10.89983357 255.44819047 10.90367007 264.07673931 C10.92254405 306.38450927 10.96277909 348.69223452 11 391 C92.51 391 174.02 391 258 391 C258.08738617 326.29785741 258.08738617 326.29785741 258.14648438 261.59570312 C258.15235812 252.87703433 258.15841961 244.1583657 258.16479492 235.43969727 C258.16558617 234.34693224 258.16637741 233.25416721 258.16719264 232.12828809 C258.18024573 214.47920839 258.20390004 196.83015798 258.23145839 179.18109565 C258.25949858 161.07261496 258.27617333 142.96414961 258.28226548 124.8556481 C258.2863848 113.67892246 258.29940217 102.50227954 258.3237494 91.32557935 C258.33958947 83.66455563 258.34440428 76.00357476 258.34050413 68.34253585 C258.3385799 63.92045502 258.34155983 59.49851889 258.35761642 55.0764637 C258.37220961 51.0279119 258.37295618 46.97960219 258.36269668 42.93103928 C258.36142858 41.46658577 258.36523912 40.00211719 258.37464955 38.53769337 C258.62761303 26.97816829 258.62761303 26.97816829 253.3515625 17.07421875 C252.78179687 16.61660156 252.21203125 16.15898437 251.625 15.6875 C251.06039062 15.21699219 250.49578125 14.74648437 249.9140625 14.26171875 C245.82559029 11.56666462 242.24457432 10.75059966 237.38354492 10.77294922 C236.28278122 10.77310028 235.18201752 10.77325134 234.04789734 10.77340698 C232.8706459 10.78372955 231.69339447 10.79405212 230.48046875 10.8046875 C228.65990715 10.80893234 228.65990715 10.80893234 226.80256653 10.81326294 C222.93077689 10.82444692 219.05921959 10.8495487 215.1875 10.875 C212.56055022 10.88503208 209.93359681 10.89415754 207.30664062 10.90234375 C200.87101464 10.92438046 194.43552392 10.95784059 188 11 C187.81824219 11.62648438 187.63648438 12.25296875 187.44921875 12.8984375 C187.19785156 13.71570313 186.94648438 14.53296875 186.6875 15.375 C186.44386719 16.18710937 186.20023438 16.99921875 185.94921875 17.8359375 C185 20 185 20 182 22 C179.00653263 22.21066009 176.10482716 22.30408263 173.10986328 22.30639648 C171.74599991 22.31888176 171.74599991 22.31888176 170.35458374 22.33161926 C167.34311668 22.35575235 164.33186606 22.36449534 161.3203125 22.37109375 C159.22907444 22.38005741 157.13783705 22.3891792 155.04660034 22.39845276 C150.66012004 22.41495421 146.27371616 22.42264501 141.88720703 22.42553711 C136.26564931 22.43092272 130.64480956 22.46860555 125.02345467 22.51428127 C120.7031695 22.54401931 116.38305792 22.55125996 112.06267929 22.55226326 C109.99020982 22.55647186 107.91774012 22.56893167 105.84537125 22.58978081 C102.9460186 22.61662792 100.04833912 22.61188959 97.14892578 22.59936523 C96.29264587 22.61419952 95.43636597 22.62903381 94.55413818 22.64431763 C90.2310401 22.59112183 88.51165588 22.3946929 84.97897339 19.66957092 C82.76752362 16.6863969 82.2560835 14.67053018 82 11 C74.15297684 10.92379965 66.30604948 10.87133671 58.45874023 10.83520508 C55.79026928 10.82183639 53.12228282 10.79968395 50.45385742 10.77368164 C46.61370748 10.73720415 42.77388562 10.72025141 38.93359375 10.70703125 C37.74479111 10.69154739 36.55598846 10.67606354 35.3311615 10.66011047 C28.26066069 10.65868081 22.61384285 10.84063637 17.07421875 15.68359375 Z " fill="#000000" transform="translate(0,0)"/>
<path d="M0 0 C81.51 0 163.02 0 247 0 C247 19.8 247 39.6 247 60 C165.49 60 83.98 60 0 60 C0 40.2 0 20.4 0 0 Z " fill="#F8EDED" transform="translate(11,331)"/>
<path d="M0 0 C0.89812253 -0.00538554 1.79624506 -0.01077108 2.72158343 -0.01631981 C5.74336478 -0.03067408 8.76471266 -0.02347728 11.78651428 -0.01637268 C13.94793044 -0.02207234 16.10934359 -0.02903503 18.27075195 -0.03717041 C24.1508638 -0.05516158 30.03082691 -0.05392224 35.91095805 -0.04822803 C40.8142952 -0.04514476 45.71760341 -0.051219 50.62093645 -0.05726677 C62.18559349 -0.07132998 73.75017668 -0.06973579 85.31483459 -0.05836487 C97.2578851 -0.04688161 109.2007111 -0.06095886 121.14373201 -0.08776134 C131.38667383 -0.1098905 141.62954503 -0.11656201 151.87250906 -0.11068493 C157.9949856 -0.10730752 164.1173182 -0.10978241 170.2397747 -0.12693596 C175.99604346 -0.14235862 181.75197867 -0.13850152 187.50823402 -0.11963081 C189.62384348 -0.11593195 191.73947739 -0.11909092 193.85506439 -0.1295166 C196.73750563 -0.14263947 199.61882845 -0.13125643 202.5012207 -0.11352539 C203.76468705 -0.1279329 203.76468705 -0.1279329 205.05367798 -0.14263147 C208.67281891 -0.09664948 210.86317474 0.0603183 213.83355045 2.21673489 C215.95385141 5.32574962 215.81572707 7.68083778 215.81019592 11.41893005 C215.81165115 12.09186096 215.81310638 12.76479187 215.81460571 13.45811462 C215.81295017 14.87690066 215.8014272 16.29570528 215.78065491 17.71434021 C215.75169184 19.88097223 215.76005166 22.04515629 215.77308655 24.2118988 C215.76684859 25.59342106 215.75845719 26.97493562 215.74769592 28.35643005 C215.73794739 29.60875427 215.72819885 30.86107849 215.71815491 32.15135193 C215.26391778 35.78964039 215.01347152 36.94396918 212.31410217 39.38768005 C209.28436895 39.78550713 206.61585462 39.92318673 203.58351135 39.8888855 C202.6805997 39.89441989 201.77768806 39.89995429 200.84741545 39.9056564 C197.8093418 39.91931476 194.77208231 39.90426554 191.73402405 39.88938904 C189.56113332 39.89317033 187.38824499 39.89866879 185.21536255 39.90576172 C179.30426835 39.91975836 173.39346384 39.90851695 167.48238564 39.8920505 C161.30580525 39.87823208 155.12924223 39.88465641 148.95265198 39.88818359 C138.57878432 39.89088826 128.20503219 39.87738805 117.83119202 39.85423279 C105.82565396 39.82762149 93.82034378 39.82587502 81.81478262 39.83762115 C70.28121046 39.84838826 58.74770843 39.84222024 47.21414185 39.82806587 C42.29870961 39.82229681 37.38332852 39.82239597 32.46789551 39.82713127 C26.68293407 39.83189224 20.89818508 39.82183585 15.11326408 39.80017662 C12.98595331 39.79459657 10.85862217 39.79415455 8.73130989 39.79912949 C5.83553257 39.80505387 2.94041108 39.79263201 0.04469299 39.77536011 C-1.22897904 39.78437518 -1.22897904 39.78437518 -2.52838182 39.79357237 C-8.23839331 39.73130485 -8.23839331 39.73130485 -10.39989901 38.07155186 C-12.48499675 35.34134928 -12.11306641 32.27878627 -12.08433533 28.98143005 C-12.08720551 28.26032043 -12.09007568 27.53921082 -12.09303284 26.79624939 C-12.09507234 25.2731701 -12.0895503 23.75006456 -12.07701111 22.22703552 C-12.06095426 19.89587328 -12.07686192 17.56644464 -12.09605408 15.2353363 C-12.09407162 13.75486373 -12.0902279 12.27439223 -12.08433533 10.79393005 C-12.09040802 10.09699036 -12.09648071 9.40005066 -12.10273743 8.68199158 C-12.03239203 3.84096992 -12.03239203 3.84096992 -10.39874834 1.70380825 C-7.39442684 -0.60466655 -3.64073982 -0.02590874 0 0 Z " fill="#FBF2DD" transform="translate(32.68589782714844,103.61231994628906)"/>
<path d="M0 0 C1.36155115 -0.00467997 1.36155115 -0.00467997 2.75060838 -0.00945449 C5.80462429 -0.01745792 8.8584428 -0.01110172 11.91246033 -0.00482178 C14.09682329 -0.00753058 16.28118534 -0.01109088 18.46554565 -0.01544189 C24.40748423 -0.02458081 30.34935356 -0.02101559 36.29129338 -0.01468372 C42.49903762 -0.00963215 48.7067758 -0.01431276 54.91452026 -0.01745605 C66.00800492 -0.02133138 77.10146226 -0.01510352 88.19494151 -0.00493738 C98.25997646 0.00400057 108.32496528 0.00244454 118.38999939 -0.0067749 C130.07108518 -0.01746958 141.75214404 -0.02146659 153.43323416 -0.01555037 C159.6193197 -0.01242576 165.80537345 -0.01203484 171.99145699 -0.01862335 C177.80509049 -0.02438237 183.61863651 -0.0204265 189.43226051 -0.00883484 C191.57128504 -0.00618062 193.71031687 -0.00696624 195.84933853 -0.01136017 C198.75846523 -0.01678703 201.66730767 -0.01001651 204.57641602 0 C205.4323345 -0.00446144 206.28825297 -0.00892289 207.17010838 -0.01351953 C212.99641596 0.02566706 212.99641596 0.02566706 215.22471619 2.25396729 C215.48350525 5.38677979 215.48350525 5.38677979 215.49034119 9.37896729 C215.49225464 10.08166748 215.49416809 10.78436768 215.49613953 11.50836182 C215.49750094 12.99453082 215.49380751 14.48071173 215.48545837 15.96685791 C215.47475772 18.24512374 215.48535458 20.52260105 215.49815369 22.80084229 C215.49683208 24.24355236 215.49426967 25.68626195 215.49034119 27.12896729 C215.48808533 28.44638916 215.48582947 29.76381104 215.48350525 31.12115479 C215.22471619 34.25396729 215.22471619 34.25396729 213.22471619 36.25396729 C210.29598737 36.45194552 207.46169174 36.52312576 204.53172302 36.50793457 C203.62079313 36.51105455 202.70986323 36.51417453 201.7713294 36.51738906 C198.70038847 36.52540508 195.62964317 36.51903143 192.55870056 36.51275635 C190.36463301 36.51546461 188.17056637 36.51902461 185.97650146 36.52337646 C180.00351307 36.53252233 174.03059349 36.52894717 168.05760384 36.52261829 C161.81915724 36.51756964 155.58071671 36.52224657 149.3422699 36.52539062 C138.19213883 36.52926722 127.04203311 36.52303538 115.89190811 36.51287195 C105.77512674 36.50393603 95.65839126 36.50548794 85.54161072 36.51470947 C73.8030352 36.52540422 62.06448204 36.52940095 50.32590151 36.52348495 C44.10850198 36.52036006 37.89113409 36.51997007 31.67373657 36.52655792 C25.82974779 36.53231711 19.98584603 36.52836075 14.14186668 36.51676941 C11.9915551 36.51411516 9.84123624 36.51490086 7.69092751 36.51929474 C4.76642112 36.52472155 1.84219749 36.51795109 -1.08229065 36.50793457 C-1.9427822 36.51239601 -2.80327374 36.51685746 -3.68984079 36.5214541 C-9.54698379 36.48226731 -9.54698379 36.48226731 -11.77528381 34.25396729 C-12.17515503 29.69294731 -12.10430773 25.1176849 -12.09095764 20.54107666 C-12.08779579 18.26259638 -12.11125898 15.98541207 -12.13661194 13.70709229 C-12.13888469 12.2643856 -12.13958854 10.8216754 -12.13856506 9.37896729 C-12.14154602 8.06154541 -12.14452698 6.74412354 -12.14759827 5.38677979 C-12.0247345 4.35295166 -11.90187073 3.31912354 -11.77528381 2.25396729 C-7.85549115 -0.35922783 -4.54728671 -0.0237645 0 0 Z " fill="#C93A3A" transform="translate(32.77528381347656,464.74603271484375)"/>
<path d="M0 0 C1.29073732 0.00669217 1.29073732 0.00669217 2.60755014 0.01351953 C3.51848004 0.01039954 4.42940993 0.00727956 5.36794376 0.00406504 C8.43888469 -0.00395098 11.50962999 0.00242267 14.58057261 0.00869775 C16.77464016 0.00598949 18.9687068 0.00242949 21.1627717 -0.00192237 C27.13576009 -0.01106824 33.10867968 -0.00749308 39.08166933 -0.0011642 C45.32011592 0.00388445 51.55855646 -0.00079248 57.79700327 -0.00393653 C68.94713434 -0.00781312 80.09724006 -0.00158129 91.24736506 0.00858214 C101.36414643 0.01751807 111.48088191 0.01596615 121.59766245 0.00674462 C133.33623797 -0.00395012 145.07479112 -0.00794686 156.81337166 -0.00203085 C163.03077119 0.00109404 169.24813907 0.00148402 175.46553659 -0.00510383 C181.30952538 -0.01086301 187.15342714 -0.00690665 192.99740648 0.00468469 C195.14771807 0.00733894 197.29803693 0.00655324 199.44834566 0.00215936 C202.37285205 -0.00326746 205.29707568 0.003503 208.22156382 0.01351953 C209.08205536 0.00905808 209.94254691 0.00459664 210.82911396 0 C216.68625695 0.03918678 216.68625695 0.03918678 218.91455698 2.26748681 C219.3144282 6.82850679 219.2435809 11.4037692 219.23023081 15.98037744 C219.22706895 18.25885771 219.25053215 20.53604202 219.27588511 22.81436181 C219.27815786 24.2570685 219.27886171 25.69977869 219.27783823 27.14248681 C219.28081919 28.45990869 219.28380014 29.77733056 219.28687143 31.13467431 C219.16400766 32.16850244 219.04114389 33.20233056 218.91455698 34.26748681 C215.00547951 36.87353846 211.71870944 36.54836691 207.18396616 36.52818322 C205.82959869 36.53392154 205.82959869 36.53392154 204.44787025 36.53977579 C201.41001459 36.55012827 198.37234715 36.54610939 195.33447886 36.54214501 C193.1615899 36.54649021 190.98870248 36.55167271 188.81581736 36.55763268 C182.90480787 36.57105371 176.9938622 36.57159797 171.08284044 36.56906939 C166.15456149 36.56800191 161.22629558 36.57287722 156.29801941 36.57767481 C144.67588536 36.58878044 133.05378362 36.58920127 121.43164682 36.58316064 C109.42612614 36.5771169 97.42073999 36.58943964 85.41523743 36.61073071 C75.12051551 36.62831914 64.82583095 36.63435249 54.53109455 36.63109297 C48.37681411 36.62927577 42.22261721 36.6319597 36.06835032 36.6458075 C30.28341111 36.65833665 24.49865512 36.6564885 18.71371889 36.64339662 C16.58640021 36.64102064 14.45906883 36.64380176 12.3317647 36.65201974 C9.43600984 36.66240271 6.54087946 36.65445495 3.6451478 36.64170861 C2.79603311 36.6490829 1.94691842 36.65645718 1.07207298 36.66405493 C-4.64143322 36.61085454 -4.64143322 36.61085454 -6.80043602 34.94122499 C-8.88355105 32.22794081 -8.45659962 29.61954558 -8.44872427 26.26358056 C-8.44922277 25.58449136 -8.44972128 24.90540215 -8.45023489 24.20573449 C-8.44789755 22.77259411 -8.43818888 21.33944938 -8.42162466 19.90640283 C-8.3979898 17.70933512 -8.40107069 15.51347781 -8.40770864 13.31631494 C-8.35461702 0.05589595 -8.35461702 0.05589595 0 0 Z " fill="#C93939" transform="translate(29.085443019866943,420.7325131893158)"/>
<path d="M0 0 C81.51 0 163.02 0 247 0 C247 1.32 247 2.64 247 4 C165.49 4 83.98 4 0 4 C0 2.68 0 1.36 0 0 Z " fill="#FEFEFE" transform="translate(11,387)"/>
<path d="M0 0 C1.61358398 -0.0309375 1.61358398 -0.0309375 3.25976562 -0.0625 C4.28650391 -0.06765625 5.31324219 -0.0728125 6.37109375 -0.078125 C7.79119751 -0.09214355 7.79119751 -0.09214355 9.23999023 -0.10644531 C10.38963257 0.06999512 10.38963257 0.06999512 11.5625 0.25 C13.96500139 3.85375208 13.80787331 5.5004277 13.79296875 9.78125 C13.79103516 11.06644531 13.78910156 12.35164063 13.78710938 13.67578125 C13.77780396 14.67859131 13.77780396 14.67859131 13.76831055 15.70166016 C13.75006579 17.74264017 13.74780091 19.78316572 13.74804688 21.82421875 C13.70289066 31.82882801 13.70289066 31.82882801 12.5625 35.25 C8.58334841 35.27886984 4.60422347 35.29675406 0.625 35.3125 C-1.07946289 35.32506836 -1.07946289 35.32506836 -2.81835938 35.33789062 C-3.89794922 35.34111328 -4.97753906 35.34433594 -6.08984375 35.34765625 C-7.59019165 35.35551147 -7.59019165 35.35551147 -9.12084961 35.36352539 C-11.4375 35.25 -11.4375 35.25 -12.4375 34.25 C-12.53832764 31.81339554 -12.57722603 29.40575299 -12.5703125 26.96875 C-12.57126923 26.24006714 -12.57222595 25.51138428 -12.57321167 24.76062012 C-12.57389335 23.2172029 -12.57203988 21.67378283 -12.56787109 20.13037109 C-12.56252262 17.760026 -12.56781642 15.38987041 -12.57421875 13.01953125 C-12.57355797 11.52343708 -12.5722768 10.02734303 -12.5703125 8.53125 C-12.57233673 7.81771362 -12.57436096 7.10417725 -12.57644653 6.36901855 C-12.53526969 -2.21839286 -7.35576538 0.03513201 0 0 Z " fill="#FCFCFC" transform="translate(51.4375,284.75)"/>
<path d="M0 0 C0.33 0 0.66 0 1 0 C1.33 3.96 1.66 7.92 2 12 C1.01 12 0.02 12 -1 12 C-1 12.66 -1 13.32 -1 14 C-1.99 14 -2.98 14 -4 14 C-4.4640625 12.576875 -4.4640625 12.576875 -4.9375 11.125 C-5.87394742 8.13919592 -5.87394742 8.13919592 -7 6 C-9.12576782 5.53348793 -9.12576782 5.53348793 -11.5625 5.375 C-12.38878906 5.30023438 -13.21507812 5.22546875 -14.06640625 5.1484375 C-14.70449219 5.09945313 -15.34257813 5.05046875 -16 5 C-16 6.32 -16 7.64 -16 9 C-13.69 9 -11.38 9 -9 9 C-9 9.66 -9 10.32 -9 11 C-9.99 11.495 -9.99 11.495 -11 12 C-11.33 12.99 -11.66 13.98 -12 15 C-10.35 15.33 -8.7 15.66 -7 16 C-7 17.65 -7 19.3 -7 21 C-6.34 21 -5.68 21 -5 21 C-5 21.99 -5 22.98 -5 24 C-4.34 24 -3.68 24 -3 24 C-2.67 23.34 -2.34 22.68 -2 22 C-1.67 23.65 -1.34 25.3 -1 27 C-0.67 27 -0.34 27 0 27 C0 29.31 0 31.62 0 34 C-3.97915159 34.02886984 -7.95827653 34.04675406 -11.9375 34.0625 C-13.64196289 34.07506836 -13.64196289 34.07506836 -15.38085938 34.08789062 C-16.46044922 34.09111328 -17.54003906 34.09433594 -18.65234375 34.09765625 C-20.15269165 34.10551147 -20.15269165 34.10551147 -21.68334961 34.11352539 C-24 34 -24 34 -25 33 C-25.08790975 30.70848583 -25.10694038 28.41427476 -25.09765625 26.12109375 C-25.0962413 25.4344313 -25.09482635 24.74776886 -25.09336853 24.04029846 C-25.08775479 21.83932199 -25.07520007 19.63844591 -25.0625 17.4375 C-25.05748676 15.94856917 -25.05292355 14.45963676 -25.04882812 12.97070312 C-25.03778093 9.31376925 -25.02050713 5.65689442 -25 2 C-22.39619004 1.80523861 -19.79224467 1.61891386 -17.1875 1.4375 C-16.44951172 1.38142578 -15.71152344 1.32535156 -14.95117188 1.26757812 C-11.63211484 1.04230276 -9.18767436 0.93744188 -6 2 C-6 2.99 -6 3.98 -6 5 C-4.02 5 -2.04 5 0 5 C0 3.35 0 1.7 0 0 Z " fill="#8CA5B9" transform="translate(64,343)"/>
<path d="M0 0 C9.57 0 19.14 0 29 0 C29 7.26 29 14.52 29 22 C19.43 22 9.86 22 0 22 C0 14.74 0 7.48 0 0 Z " fill="#FDFDFD" transform="translate(198,292)"/>
<path d="M0 0 C9.57 0 19.14 0 29 0 C29.020625 3.444375 29.04125 6.88875 29.0625 10.4375 C29.071604 11.52474365 29.08070801 12.6119873 29.09008789 13.73217773 C29.09258545 14.58239502 29.09508301 15.4326123 29.09765625 16.30859375 C29.10551147 17.62041626 29.10551147 17.62041626 29.11352539 18.95874023 C29 21 29 21 28 22 C25.92737924 22.08767112 23.85179706 22.10695873 21.77734375 22.09765625 C20.51728516 22.09443359 19.25722656 22.09121094 17.95898438 22.08789062 C16.61848891 22.07953403 15.27799412 22.07106907 13.9375 22.0625 C12.59310058 22.0574866 11.2486994 22.05292342 9.90429688 22.04882812 C6.60284567 22.03699497 3.3014174 22.01905886 0 22 C0 14.74 0 7.48 0 0 Z " fill="#FDFDFD" transform="translate(198,349)"/>
<path d="M0 0 C72.93 0 145.86 0 221 0 C217.63464245 3.36535755 216.52519841 3.35415033 211.96868747 3.40123022 C211.13834541 3.39453805 210.30800334 3.38784589 209.45249939 3.38095093 C208.12770021 3.38797089 208.12770021 3.38797089 206.77613741 3.39513266 C203.80495301 3.40713661 200.83422526 3.3976044 197.86303711 3.38818359 C195.73778513 3.39224687 193.61253527 3.39758736 191.48728943 3.40411377 C185.70647299 3.41782139 179.92581669 3.4124747 174.14499736 3.40297651 C168.10541387 3.39539874 162.06584439 3.40242018 156.02626038 3.40713501 C145.88361134 3.41259764 135.74102777 3.40538719 125.59838867 3.39111328 C113.85755099 3.37478144 102.11686954 3.38007717 90.37603563 3.3965925 C80.30977154 3.41018766 70.2435546 3.41213681 60.1772843 3.40427649 C54.15885802 3.39958969 48.14050528 3.39900278 42.12208366 3.40888596 C36.46599669 3.41752487 30.81011203 3.41159016 25.15404701 3.39420319 C23.07307649 3.39022204 20.99208907 3.39139999 18.91112518 3.39799118 C16.08068924 3.40613257 13.2509105 3.39597539 10.42051697 3.38095093 C9.17165778 3.39098918 9.17165778 3.39098918 7.89756912 3.40123022 C5.61106777 3.37752342 5.61106777 3.37752342 2 3 C1.34 2.01 0.68 1.02 0 0 Z " fill="#F2E6F1" transform="translate(24,501)"/>
<path d="M0 0 C8.81415929 -0.29380531 8.81415929 -0.29380531 12 2 C14.48513317 6.97026634 14.62105329 14.2954131 13.39453125 19.63671875 C12.5625 21.8125 12.5625 21.8125 11 25 C13.31 25.33 15.62 25.66 18 26 C18.125 28.375 18.125 28.375 18 31 C15.43011319 33.56988681 14.41089947 33.25706775 10.84375 33.265625 C9.31041016 33.26949219 9.31041016 33.26949219 7.74609375 33.2734375 C6.67488281 33.26570313 5.60367188 33.25796875 4.5 33.25 C2.89318359 33.26160156 2.89318359 33.26160156 1.25390625 33.2734375 C0.23167969 33.27085937 -0.79054688 33.26828125 -1.84375 33.265625 C-2.78412109 33.26336914 -3.72449219 33.26111328 -4.69335938 33.25878906 C-7 33 -7 33 -9 31 C-9.125 27.875 -9.125 27.875 -9 25 C-6.03 24.67 -3.06 24.34 0 24 C-0.33 20.04 -0.66 16.08 -1 12 C0.32 12 1.64 12 3 12 C2.34 9.69 1.68 7.38 1 5 C0.34 5 -0.32 5 -1 5 C-2.63676257 6.9600281 -2.63676257 6.9600281 -4 9 C-4 7.35 -4 5.7 -4 4 C-3.34 4 -2.68 4 -2 4 C-1.34 2.68 -0.68 1.36 0 0 Z " fill="#BC8C81" transform="translate(48,231)"/>
<path d="M0 0 C2.77141717 -0.08089542 5.54047819 -0.14044062 8.3125 -0.1875 C9.09818359 -0.21263672 9.88386719 -0.23777344 10.69335938 -0.26367188 C11.45068359 -0.27333984 12.20800781 -0.28300781 12.98828125 -0.29296875 C14.03302612 -0.31653442 14.03302612 -0.31653442 15.09887695 -0.34057617 C17.5902826 0.10574602 18.46244319 1.02875816 20 3 C20.328125 5.33984375 20.328125 5.33984375 20.25 7.9375 C20.22679687 9.21947266 20.22679687 9.21947266 20.203125 10.52734375 C20.01658587 12.79809898 19.62855941 14.81524914 19 17 C17.68 16.67 16.36 16.34 15 16 C14.93941406 15.37351563 14.87882812 14.74703125 14.81640625 14.1015625 C14.73261719 13.28429687 14.64882813 12.46703125 14.5625 11.625 C14.48128906 10.81289062 14.40007813 10.00078125 14.31640625 9.1640625 C14.10909886 6.95727195 14.10909886 6.95727195 13 5 C9.04340734 3.68113578 6.17660573 3.73481868 2 4 C1.01 5.485 1.01 5.485 0 7 C-0.66 7 -1.32 7 -2 7 C-1.67 7.99 -1.34 8.98 -1 10 C-0.34 9.01 0.32 8.02 1 7 C2.32 7.66 3.64 8.32 5 9 C5 10.98 5 12.96 5 15 C3.68 15 2.36 15 1 15 C1.33 15.99 1.66 16.98 2 18 C2.06740865 19.56118428 2.08514456 21.1250252 2.0625 22.6875 C2.05347656 23.49574219 2.04445313 24.30398437 2.03515625 25.13671875 C2.02355469 25.75160156 2.01195312 26.36648437 2 27 C0 28 0 28 -7 28 C-7 20.41 -7 12.82 -7 5 C-5.02 5 -3.04 5 -1 5 C-0.67 3.35 -0.34 1.7 0 0 Z " fill="#E5DBD8" transform="translate(46,228)"/>
<path d="M0 0 C0.33 0 0.66 0 1 0 C1.33 3.96 1.66 7.92 2 12 C1.01 12 0.02 12 -1 12 C-1 12.66 -1 13.32 -1 14 C-1.99 14 -2.98 14 -4 14 C-4.4640625 12.576875 -4.4640625 12.576875 -4.9375 11.125 C-5.87394742 8.13919592 -5.87394742 8.13919592 -7 6 C-9.12576782 5.53348793 -9.12576782 5.53348793 -11.5625 5.375 C-13.026875 5.25125 -14.49125 5.1275 -16 5 C-16.33 8.3 -16.66 11.6 -17 15 C-15.68 14.67 -14.36 14.34 -13 14 C-13 14.66 -13 15.32 -13 16 C-13.66 16 -14.32 16 -15 16 C-14.67 17.32 -14.34 18.64 -14 20 C-13.01 20 -12.02 20 -11 20 C-11.33 22.31 -11.66 24.62 -12 27 C-14.4375 26.1875 -14.4375 26.1875 -17 25 C-17.33 24.01 -17.66 23.02 -18 22 C-17.67 21.34 -17.34 20.68 -17 20 C-17.66 20 -18.32 20 -19 20 C-19 15.38 -19 10.76 -19 6 C-20.98 6.99 -20.98 6.99 -23 8 C-23 10.97 -23 13.94 -23 17 C-22.34 17 -21.68 17 -21 17 C-21.33 17.99 -21.66 18.98 -22 20 C-21.34 20.66 -20.68 21.32 -20 22 C-21.65 22.99 -23.3 23.98 -25 25 C-25 17.41 -25 9.82 -25 2 C-22.421875 1.814375 -19.84375 1.62875 -17.1875 1.4375 C-15.97549927 1.34553345 -15.97549927 1.34553345 -14.73901367 1.25170898 C-11.48602054 1.0333736 -9.12135522 0.95954826 -6 2 C-6 2.99 -6 3.98 -6 5 C-4.02 5 -2.04 5 0 5 C0 3.35 0 1.7 0 0 Z " fill="#665A54" transform="translate(64,343)"/>
<path d="M0 0 C0.99 0 1.98 0 3 0 C3.89214652 2.67643957 4.13540211 4.25384378 4.125 7 C4.12757812 7.680625 4.13015625 8.36125 4.1328125 9.0625 C4 11 4 11 3 14 C3.66 14 4.32 14 5 14 C5 15.65 5 17.3 5 19 C7.475 19.99 7.475 19.99 10 21 C9.67 23.31 9.34 25.62 9 28 C7.18757948 28.02687279 5.37504767 28.04633715 3.5625 28.0625 C2.55316406 28.07410156 1.54382812 28.08570313 0.50390625 28.09765625 C-2 28 -2 28 -3 27 C-3.47880299 19.57855362 -3.47880299 19.57855362 -1.5 17.1875 C-1.005 16.795625 -0.51 16.40375 0 16 C0 15.01 0 14.02 0 13 C0.33 12.34 0.66 11.68 1 11 C0.01 11.33 -0.98 11.66 -2 12 C-2.05395478 10.37536158 -2.09277195 8.75021459 -2.125 7.125 C-2.14820313 6.22007812 -2.17140625 5.31515625 -2.1953125 4.3828125 C-2 2 -2 2 0 0 Z " fill="#959D9D" transform="translate(42,349)"/>
<path d="M0 0 C8.23992322 -0.621881 8.23992322 -0.621881 11.0625 1.6875 C12.12196863 4.30085596 12.23290982 6.20508215 12 9 C12.99 9 13.98 9 15 9 C15 8.34 15 7.68 15 7 C15.99 7 16.98 7 18 7 C18 13.6 18 20.2 18 27 C17.34 27.33 16.68 27.66 16 28 C15.87625 27.2575 15.7525 26.515 15.625 25.75 C15.04513299 23.19858515 14.26291261 21.2732427 13 19 C12.34 19 11.68 19 11 19 C10.67 18.34 10.34 17.68 10 17 C9.01 17 8.02 17 7 17 C7.33 16.01 7.66 15.02 8 14 C8 13.01 8 12.02 8 11 C6.68 10.67 5.36 10.34 4 10 C4.33 8.68 4.66 7.36 5 6 C5.66 6 6.32 6 7 6 C7 5.34 7 4.68 7 4 C6.1028125 4.2784375 6.1028125 4.2784375 5.1875 4.5625 C3 5 3 5 0 4 C0 2.68 0 1.36 0 0 Z " fill="#BAC7D1" transform="translate(48,348)"/>
<path d="M0 0 C0.66 0 1.32 0 2 0 C2 1.32 2 2.64 2 4 C2.66 4 3.32 4 4 4 C4.33 3.01 4.66 2.02 5 1 C5 1.99 5 2.98 5 4 C5.99 4 6.98 4 8 4 C8.33 3.01 8.66 2.02 9 1 C13.3164922 0.23826608 16.74433453 -0.16063604 21 1 C20.979375 1.763125 20.95875 2.52625 20.9375 3.3125 C20.87057159 6.10185786 20.87057159 6.10185786 22 9 C14.41 9 6.82 9 -1 9 C-0.67 6.03 -0.34 3.06 0 0 Z " fill="#E0E0E0" transform="translate(202,242)"/>
<path d="M0 0 C8.81415929 -0.29380531 8.81415929 -0.29380531 12 2 C13.26237731 4.52475462 13.09856404 6.31200466 13.0625 9.125 C13.05347656 10.03507813 13.04445313 10.94515625 13.03515625 11.8828125 C13.02355469 12.58148438 13.01195313 13.28015625 13 14 C12.67 14 12.34 14 12 14 C11.67 11.36 11.34 8.72 11 6 C10.01 6.495 10.01 6.495 9 7 C8.34444881 9.52733235 8.34444881 9.52733235 8 12 C8.99 12 9.98 12 11 12 C10.34 13.32 9.68 14.64 9 16 C8.01 16 7.02 16 6 16 C6 15.34 6 14.68 6 14 C5.01 14 4.02 14 3 14 C3 14.66 3 15.32 3 16 C1.68 15.67 0.36 15.34 -1 15 C-1 14.01 -1 13.02 -1 12 C0.32 12 1.64 12 3 12 C2.34 9.69 1.68 7.38 1 5 C0.34 5 -0.32 5 -1 5 C-2.63676257 6.9600281 -2.63676257 6.9600281 -4 9 C-4 7.35 -4 5.7 -4 4 C-3.34 4 -2.68 4 -2 4 C-1.34 2.68 -0.68 1.36 0 0 Z " fill="#AE7B6F" transform="translate(48,231)"/>
<path d="M0 0 C0.66 0 1.32 0 2 0 C2.33 0.66 2.66 1.32 3 2 C3.66 1.34 4.32 0.68 5 0 C6.671549 0.30791692 8.33805547 0.64386903 10 1 C12.23167185 0.63143136 12.23167185 0.63143136 14 0 C12.515 1.98 12.515 1.98 11 4 C12.36125 2.9790625 12.36125 2.9790625 13.75 1.9375 C17 0 17 0 19.375 0.25 C19.91125 0.4975 20.4475 0.745 21 1 C21 2.32 21 3.64 21 5 C18.50935112 5.68707555 16.62113708 6 14 6 C16.64 6.33 19.28 6.66 22 7 C22 7.66 22 8.32 22 9 C18.0465749 10.3006046 14.04899752 10.14720431 9.9375 10.125 C9.21755859 10.12886719 8.49761719 10.13273437 7.75585938 10.13671875 C4.57291361 10.13080799 2.04052138 10.01350713 -1 9 C-0.67 6.03 -0.34 3.06 0 0 Z " fill="#E1E1E1" transform="translate(202,355)"/>
<path d="M0 0 C0.66 0 1.32 0 2 0 C2.33 0.66 2.66 1.32 3 2 C3.66 1.34 4.32 0.68 5 0 C6.671549 0.30791692 8.33805547 0.64386903 10 1 C12.23167185 0.63143136 12.23167185 0.63143136 14 0 C12.515 1.98 12.515 1.98 11 4 C14.12197478 2.6910428 14.12197478 2.6910428 16 0 C18.475 0.495 18.475 0.495 21 1 C20.67 1.99 20.34 2.98 20 4 C19.01 3.01 18.02 2.02 17 1 C16.67 2.32 16.34 3.64 16 5 C13.69 5.33 11.38 5.66 9 6 C12.96 6.33 16.92 6.66 21 7 C20.67 7.99 20.34 8.98 20 10 C16.87501937 10.02895976 13.7500731 10.04678483 10.625 10.0625 C9.73554688 10.07087891 8.84609375 10.07925781 7.9296875 10.08789062 C6.65351563 10.09272461 6.65351563 10.09272461 5.3515625 10.09765625 C4.17327881 10.10551147 4.17327881 10.10551147 2.97119141 10.11352539 C1 10 1 10 -1 9 C-0.67 6.03 -0.34 3.06 0 0 Z " fill="#E1E1E1" transform="translate(202,298)"/>
<path d="M0 0 C0.9075 0.00257813 1.815 0.00515625 2.75 0.0078125 C4.11125 0.00394531 4.11125 0.00394531 5.5 0 C7.75 0.1328125 7.75 0.1328125 8.75 1.1328125 C8.84823937 2.79710301 8.87973631 4.46563181 8.875 6.1328125 C8.87757812 7.0403125 8.88015625 7.9478125 8.8828125 8.8828125 C8.75 11.1328125 8.75 11.1328125 7.75 12.1328125 C6.08570949 12.23105187 4.41718069 12.26254881 2.75 12.2578125 C1.38875 12.26167969 1.38875 12.26167969 0 12.265625 C-2.25 12.1328125 -2.25 12.1328125 -3.25 11.1328125 C-3.34823937 9.46852199 -3.37973631 7.79999319 -3.375 6.1328125 C-3.37757812 5.2253125 -3.38015625 4.3178125 -3.3828125 3.3828125 C-3.20347538 0.34463064 -3.03818186 0.17933712 0 0 Z " fill="#F7530C" transform="translate(21.25,296.8671875)"/>
<path d="M0 0 C0.66 0 1.32 0 2 0 C2.25098039 5.52156863 2.25098039 5.52156863 1 7.90625 C-0.17640102 10.36933963 -0.20474158 12.03878637 -0.125 14.75 C-0.09792969 15.94882812 -0.09792969 15.94882812 -0.0703125 17.171875 C-0.04710937 17.77515625 -0.02390625 18.3784375 0 19 C-1.62463842 19.05395478 -3.24978541 19.09277195 -4.875 19.125 C-5.77992187 19.14820313 -6.68484375 19.17140625 -7.6171875 19.1953125 C-10 19 -10 19 -12 17 C-12.125 13.875 -12.125 13.875 -12 11 C-7.545 10.505 -7.545 10.505 -3 10 C-3 7.36 -3 4.72 -3 2 C-2.01 2 -1.02 2 0 2 C0 1.34 0 0.68 0 0 Z " fill="#D1B5AE" transform="translate(51,245)"/>
<path d="M0 0 C1.59134766 -0.02513672 1.59134766 -0.02513672 3.21484375 -0.05078125 C6.0625 0.3125 6.0625 0.3125 7.95703125 1.69921875 C9.0625 3.3125 9.0625 3.3125 8.8125 5.4375 C8.0625 7.3125 8.0625 7.3125 7.0625 8.3125 C4.73089945 8.41159302 2.39620058 8.44220504 0.0625 8.4375 C-1.21625 8.44007812 -2.495 8.44265625 -3.8125 8.4453125 C-6.9375 8.3125 -6.9375 8.3125 -7.9375 7.3125 C-8.125 4.875 -8.125 4.875 -7.9375 2.3125 C-5.24648766 -0.37851234 -3.74674054 0.01362451 0 0 Z " fill="#D4D4D4" transform="translate(240.9375,20.6875)"/>
<path d="M0 0 C0.66 0.33 1.32 0.66 2 1 C2.48337596 7.28388747 2.48337596 7.28388747 0.3125 10.5 C-2 12 -2 12 -4.625 12 C-7 11 -7 11 -8.3125 9.3125 C-9.15900919 6.46515091 -9.13428922 3.95436294 -9 1 C-5.64406166 -1.11299821 -3.77811119 -1.09366377 0 0 Z " fill="#5BA534" transform="translate(246,297)"/>
<path d="M0 0 C0.9075 0.00257813 1.815 0.00515625 2.75 0.0078125 C4.11125 0.00394531 4.11125 0.00394531 5.5 0 C7.75 0.1328125 7.75 0.1328125 8.75 1.1328125 C8.82205511 2.81890216 8.83386068 4.50781909 8.8125 6.1953125 C8.80347656 7.11441406 8.79445313 8.03351563 8.78515625 8.98046875 C8.77355469 9.69074219 8.76195312 10.40101563 8.75 11.1328125 C7.1 11.4628125 5.45 11.7928125 3.75 12.1328125 C3.75 10.1528125 3.75 8.1728125 3.75 6.1328125 C3.42 6.1328125 3.09 6.1328125 2.75 6.1328125 C1.76 5.8028125 0.77 5.4728125 -0.25 5.1328125 C0.74 6.6178125 0.74 6.6178125 1.75 8.1328125 C1.75 9.1228125 1.75 10.1128125 1.75 11.1328125 C0.1 11.1328125 -1.55 11.1328125 -3.25 11.1328125 C-3.27688151 9.48706684 -3.29634123 7.84119837 -3.3125 6.1953125 C-3.32410156 5.27878906 -3.33570312 4.36226563 -3.34765625 3.41796875 C-3.21658612 0.35092764 -3.0604863 0.18065371 0 0 Z " fill="#F8530B" transform="translate(21.25,353.8671875)"/>
<path d="M0 0 C0.66 0.33 1.32 0.66 2 1 C2.32485323 8.14677104 2.32485323 8.14677104 0 11 C-3.125 11.75 -3.125 11.75 -6 12 C-8.70582788 8.16674383 -9.32613618 5.67461851 -9 1 C-5.64406166 -1.11299821 -3.77811119 -1.09366377 0 0 Z " fill="#59A432" transform="translate(246,354)"/>
<path d="M0 0 C3.375 0.6875 3.375 0.6875 4.375 1.6875 C4.82426708 5.64105026 4.68371428 7.24372323 2.375 10.5625 C1.715 11.26375 1.055 11.965 0.375 12.6875 C-2.24934747 12.32552104 -3.44513689 11.86093943 -5.375 10 C-6.99194375 7.00865406 -7.06216184 5.03907411 -6.625 1.6875 C-3.625 -0.3125 -3.625 -0.3125 0 0 Z " fill="#58A430" transform="translate(243.625,240.3125)"/>
<path d="M0 0 C0.721875 0.00257813 1.44375 0.00515625 2.1875 0.0078125 C2.909375 0.00523437 3.63125 0.00265625 4.375 0 C6.1875 0.1328125 6.1875 0.1328125 7.1875 1.1328125 C7.2854057 2.63019374 7.31724864 4.13224142 7.3125 5.6328125 C7.31507812 6.4475 7.31765625 7.2621875 7.3203125 8.1015625 C7.1875 10.1328125 7.1875 10.1328125 6.1875 11.1328125 C4.375 11.265625 4.375 11.265625 2.1875 11.2578125 C1.465625 11.26039063 0.74375 11.26296875 0 11.265625 C-1.8125 11.1328125 -1.8125 11.1328125 -2.8125 10.1328125 C-2.9104057 8.63543126 -2.94224864 7.13338358 -2.9375 5.6328125 C-2.94007812 4.818125 -2.94265625 4.0034375 -2.9453125 3.1640625 C-2.77508045 0.56051352 -2.60782823 0.19109086 0 0 Z " fill="#FEFEFE" transform="translate(21.8125,240.8671875)"/>
<path d="M0 0 C2.12472576 -0.05386629 4.24983652 -0.09273071 6.375 -0.125 C7.55835938 -0.14820313 8.74171875 -0.17140625 9.9609375 -0.1953125 C13 0 13 0 15 2 C15.23046875 4.2421875 15.23046875 4.2421875 15.1875 6.875 C15.18105469 7.73867187 15.17460938 8.60234375 15.16796875 9.4921875 C15.01393667 11.79192226 14.64161776 13.79283489 14 16 C12.68 15.67 11.36 15.34 10 15 C9.93941406 14.37351563 9.87882812 13.74703125 9.81640625 13.1015625 C9.69072266 11.87566406 9.69072266 11.87566406 9.5625 10.625 C9.48128906 9.81289062 9.40007813 9.00078125 9.31640625 8.1640625 C9.10909886 5.95727195 9.10909886 5.95727195 8 4 C5.88153715 3.31270746 5.88153715 3.31270746 3.4375 2.875 C2.61121094 2.70742187 1.78492188 2.53984375 0.93359375 2.3671875 C0.29550781 2.24601563 -0.34257813 2.12484375 -1 2 C-0.67 1.34 -0.34 0.68 0 0 Z " fill="#D7D2CF" transform="translate(51,229)"/>
<path d="M0 0 C0.66 0 1.32 0 2 0 C2 0.66 2 1.32 2 2 C4.31 2.66 6.62 3.32 9 4 C9 6.31 9 8.62 9 11 C7.35425434 11.02688151 5.70838587 11.04634123 4.0625 11.0625 C3.14597656 11.07410156 2.22945312 11.08570313 1.28515625 11.09765625 C-1 11 -1 11 -2 10 C-2.27314815 4.26388889 -2.27314815 4.26388889 -2 2 C-1.34 1.34 -0.68 0.68 0 0 Z " fill="#9BADB9" transform="translate(41,366)"/>
<path d="M0 0 C8.23992322 -0.621881 8.23992322 -0.621881 11.0625 1.6875 C12.12196863 4.30085596 12.23290982 6.20508215 12 9 C12.99 9 13.98 9 15 9 C15 8.34 15 7.68 15 7 C15.66 7 16.32 7 17 7 C16.67 7.99 16.34 8.98 16 10 C14.02 10 12.04 10 10 10 C9.67 10.99 9.34 11.98 9 13 C8.67 12.34 8.34 11.68 8 11 C5.97536745 10.34786708 5.97536745 10.34786708 4 10 C4.33 8.68 4.66 7.36 5 6 C5.66 6 6.32 6 7 6 C7 5.34 7 4.68 7 4 C6.1028125 4.2784375 6.1028125 4.2784375 5.1875 4.5625 C3 5 3 5 0 4 C0 2.68 0 1.36 0 0 Z " fill="#BFB7AE" transform="translate(48,348)"/>
<path d="M0 0 C0.33 0.66 0.66 1.32 1 2 C1.99 2.33 2.98 2.66 4 3 C3.34 3 2.68 3 2 3 C2.33 3.66 2.66 4.32 3 5 C3.99 4.34 4.98 3.68 6 3 C7.32796291 2.64587656 8.66216607 2.31478446 10 2 C11.6744239 1.3530635 13.34302621 0.69040574 15 0 C15 2.31 15 4.62 15 7 C11.85418577 7.02888514 8.70840531 7.04675923 5.5625 7.0625 C4.21575195 7.07506836 4.21575195 7.07506836 2.84179688 7.08789062 C1.56079102 7.09272461 1.56079102 7.09272461 0.25390625 7.09765625 C-0.53685303 7.10289307 -1.3276123 7.10812988 -2.14233398 7.11352539 C-4 7 -4 7 -5 6 C-5.04063832 4.33382885 -5.042721 2.66611905 -5 1 C-2 0 -2 0 0 0 Z " fill="#BEA368" transform="translate(166,126)"/>
<path d="M0 0 C2.0836309 0.14151828 4.16689938 0.28837936 6.25 0.4375 C7.99023438 0.55931641 7.99023438 0.55931641 9.765625 0.68359375 C12.30977376 0.93247787 14.55953248 1.28114942 17 2 C16.67 3.65 16.34 5.3 16 7 C10.72 7 5.44 7 0 7 C0 4.69 0 2.38 0 0 Z " fill="#F1A28C" transform="translate(50,72)"/>
<path d="M0 0 C3.3 0 6.6 0 10 0 C9.01 2.31 8.02 4.62 7 7 C6.67 6.01 6.34 5.02 6 4 C4.02 4.99 4.02 4.99 2 6 C2 8.97 2 11.94 2 15 C2.66 15 3.32 15 4 15 C3.67 15.99 3.34 16.98 3 18 C3.66 18.66 4.32 19.32 5 20 C3.35 20.99 1.7 21.98 0 23 C0 15.41 0 7.82 0 0 Z " fill="#979489" transform="translate(39,345)"/>
<path d="M0 0 C0.33 0 0.66 0 1 0 C1.33 3.96 1.66 7.92 2 12 C1.01 12 0.02 12 -1 12 C-1 12.66 -1 13.32 -1 14 C-1.99 14 -2.98 14 -4 14 C-4.309375 13.05125 -4.61875 12.1025 -4.9375 11.125 C-5.87394742 8.13919592 -5.87394742 8.13919592 -7 6 C-10.02934491 5.34227572 -10.02934491 5.34227572 -13 5 C-12.01 4.67 -11.02 4.34 -10 4 C-10 3.34 -10 2.68 -10 2 C-10.99 1.67 -11.98 1.34 -13 1 C-10.69 1.33 -8.38 1.66 -6 2 C-6 2.99 -6 3.98 -6 5 C-4.02 5 -2.04 5 0 5 C0 3.35 0 1.7 0 0 Z " fill="#8E8980" transform="translate(64,343)"/>
<path d="M0 0 C1.98 0 3.96 0 6 0 C5.67 2.64 5.34 5.28 5 8 C1.7 8 -1.6 8 -5 8 C-5.33 6.35 -5.66 4.7 -6 3 C-5.195625 2.87625 -4.39125 2.7525 -3.5625 2.625 C-2.716875 2.41875 -1.87125 2.2125 -1 2 C-0.67 1.34 -0.34 0.68 0 0 Z " fill="#DF979D" transform="translate(162,479)"/>
<path d="M0 0 C-0.99 0.66 -1.98 1.32 -3 2 C-0.36 1.67 2.28 1.34 5 1 C5 0.34 5 -0.32 5 -1 C5.66 -1 6.32 -1 7 -1 C7 1.31 7 3.62 7 6 C-1.25 6 -1.25 6 -5 5 C-4.01 4.34 -3.02 3.68 -2 3 C-3.32 2.67 -4.64 2.34 -6 2 C-6 2.99 -6 3.98 -6 5 C-7.32 4.67 -8.64 4.34 -10 4 C-9.25 2.0625 -9.25 2.0625 -8 0 C-5.05360248 -1.27677226 -3.00864103 -0.96706319 0 0 Z " fill="#C3A971" transform="translate(116,127)"/>
<path d="M0 0 C0.99 0 1.98 0 3 0 C3 0.66 3 1.32 3 2 C3.66 2 4.32 2 5 2 C5 3.65 5 5.3 5 7 C0.63714001 8.28319411 -1.77777428 7.43735344 -6 6 C-8.2875976 6.27640014 -8.2875976 6.27640014 -10 7 C-9.67 5.35 -9.34 3.7 -9 2 C-6.03 2 -3.06 2 0 2 C0 1.34 0 0.68 0 0 Z " fill="#C59BCE" transform="translate(242,201)"/>
<path d="M0 0 C2.375 -0.125 2.375 -0.125 5 0 C5.66 0.66 6.32 1.32 7 2 C8.32 2 9.64 2 11 2 C11.33 1.34 11.66 0.68 12 0 C12.66 0 13.32 0 14 0 C14 2.97 14 5.94 14 9 C13.34 9 12.68 9 12 9 C12 7.68 12 6.36 12 5 C11.34 5 10.68 5 10 5 C10 4.34 10 3.68 10 3 C9.34 3 8.68 3 8 3 C8 3.99 8 4.98 8 6 C8.99 6.33 9.98 6.66 11 7 C10.2575 6.814375 9.515 6.62875 8.75 6.4375 C6.01444245 6.00229766 4.59300379 6.19527469 2 7 C1.34 7 0.68 7 0 7 C0 4.69 0 2.38 0 0 Z " fill="#B86A9F" transform="translate(120,522)"/>
<path d="M0 0 C0.33 0.66 0.66 1.32 1 2 C3.31 2 5.62 2 8 2 C8 2.66 8 3.32 8 4 C7.01 4.495 7.01 4.495 6 5 C5.67 5.99 5.34 6.98 5 8 C6.65 8.33 8.3 8.66 10 9 C9.6875 10.9375 9.6875 10.9375 9 13 C6 14 6 14 3 13 C2.25 11 2.25 11 2 9 C2.33 8.67 2.66 8.34 3 8 C2.01 8 1.02 8 0 8 C0 5.36 0 2.72 0 0 Z " fill="#AE8873" transform="translate(47,350)"/>
<path d="M0 0 C0.66 0 1.32 0 2 0 C2 0.66 2 1.32 2 2 C3.65 2 5.3 2 7 2 C7 1.34 7 0.68 7 0 C9.475 0.99 9.475 0.99 12 2 C12 3.65 12 5.3 12 7 C8.66666667 7.66666667 5.33333333 8.33333333 2 9 C2 8.34 2 7.68 2 7 C1.34 7 0.68 7 0 7 C0 4.69 0 2.38 0 0 Z " fill="#C0A66C" transform="translate(194,115)"/>
<path d="M0 0 C8.81415929 -0.29380531 8.81415929 -0.29380531 12 2 C13.26237731 4.52475462 13.09856404 6.31200466 13.0625 9.125 C13.05347656 10.03507813 13.04445313 10.94515625 13.03515625 11.8828125 C13.02355469 12.58148438 13.01195312 13.28015625 13 14 C12.67 14 12.34 14 12 14 C11.67 11.36 11.34 8.72 11 6 C8.69 6 6.38 6 4 6 C3.67 5.34 3.34 4.68 3 4 C2.01 3.67 1.02 3.34 0 3 C0 2.01 0 1.02 0 0 Z " fill="#30242F" transform="translate(48,231)"/>
<path d="M0 0 C0.33 0 0.66 0 1 0 C1 5.28 1 10.56 1 16 C-1.31 15.67 -3.62 15.34 -6 15 C-5.44894091 11.0507432 -4.61064629 7.65079826 -3 4 C-2.01 4 -1.02 4 0 4 C0 2.68 0 1.36 0 0 Z " fill="#E9E5E4" transform="translate(65,241)"/>
<path d="M0 0 C0.33 0.99 0.66 1.98 1 3 C1.66 3 2.32 3 3 3 C3.33 2.34 3.66 1.68 4 1 C4.33 2.65 4.66 4.3 5 6 C5.33 6 5.66 6 6 6 C6 8.31 6 10.62 6 13 C3.6875 12.9375 3.6875 12.9375 1 12 C-0.70004794 8.72133612 -1.8348895 5.49533149 -3 2 C-2.01 1.34 -1.02 0.68 0 0 Z " fill="#A9BDCE" transform="translate(58,364)"/>
<path d="M0 0 C0.33 0 0.66 0 1 0 C1 2.31 1 4.62 1 7 C-0.65 7 -2.3 7 -4 7 C-4 7.66 -4 8.32 -4 9 C-4.66 9 -5.32 9 -6 9 C-6.33 8.34 -6.66 7.68 -7 7 C-7.99 7 -8.98 7 -10 7 C-10.33 7.66 -10.66 8.32 -11 9 C-11 6.69 -11 4.38 -11 2 C-9.54176788 1.9729957 -8.08339325 1.95360213 -6.625 1.9375 C-5.81289063 1.92589844 -5.00078125 1.91429688 -4.1640625 1.90234375 C-2 2 -2 2 0 3 C0 2.01 0 1.02 0 0 Z " fill="#C2A870" transform="translate(62,115)"/>
<path d="M0 0 C1.98 0 3.96 0 6 0 C6 2.31 6 4.62 6 7 C2.37 7 -1.26 7 -5 7 C-5 5.02 -5 3.04 -5 1 C-3.68 1.33 -2.36 1.66 -1 2 C-0.67 1.34 -0.34 0.68 0 0 Z " fill="#CCB684" transform="translate(44,115)"/>
<path d="M0 0 C1.3303125 0.5259375 1.3303125 0.5259375 2.6875 1.0625 C6.06203126 2.01755602 7.69686152 1.97151132 11 1 C11.33 2.65 11.66 4.3 12 6 C11.34 5.67 10.68 5.34 10 5 C10.33 4.34 10.66 3.68 11 3 C10.34 3 9.68 3 9 3 C9 4.65 9 6.3 9 8 C8.34 8 7.68 8 7 8 C6.67 7.34 6.34 6.68 6 6 C5.38125 6.350625 4.7625 6.70125 4.125 7.0625 C3.42375 7.371875 2.7225 7.68125 2 8 C1.34 7.67 0.68 7.34 0 7 C0 4.69 0 2.38 0 0 Z " fill="#FBA680" transform="translate(37,72)"/>
<path d="M0 0 C1.32 0 2.64 0 4 0 C4.33 0.66 4.66 1.32 5 2 C6.32 1.34 7.64 0.68 9 0 C9 1.98 9 3.96 9 6 C4.71 6 0.42 6 -4 6 C-3.67 5.34 -3.34 4.68 -3 4 C-3.33 3.67 -3.66 3.34 -4 3 C-2.68 2.67 -1.36 2.34 0 2 C0 1.34 0 0.68 0 0 Z " fill="#756F6D" transform="translate(95,306)"/>
<path d="M0 0 C1.32 0.66 2.64 1.32 4 2 C4 3.98 4 5.96 4 8 C2.68 8 1.36 8 0 8 C0.33 9.32 0.66 10.64 1 12 C0.34 12 -0.32 12 -1 12 C-1 11.34 -1 10.68 -1 10 C-1.99 10 -2.98 10 -4 10 C-4 7.69 -4 5.38 -4 3 C-3.34 3 -2.68 3 -2 3 C-1.34 2.01 -0.68 1.02 0 0 Z " fill="#D2BCB6" transform="translate(47,235)"/>
<path d="M0 0 C1.37478516 0.01740234 1.37478516 0.01740234 2.77734375 0.03515625 C3.69644531 0.04417969 4.61554687 0.05320313 5.5625 0.0625 C6.27277344 0.07410156 6.98304687 0.08570313 7.71484375 0.09765625 C7.71484375 2.07765625 7.71484375 4.05765625 7.71484375 6.09765625 C4.41484375 6.09765625 1.11484375 6.09765625 -2.28515625 6.09765625 C-2.66734392 4.44150968 -2.99910727 2.77308601 -3.28515625 1.09765625 C-2.28515625 0.09765625 -2.28515625 0.09765625 0 0 Z " fill="#7B7B7B" transform="translate(34.28515625,170.90234375)"/>
<path d="M0 0 C3.96 0 7.92 0 12 0 C12 1.65 12 3.3 12 5 C8.04 5 4.08 5 0 5 C0 3.35 0 1.7 0 0 Z " fill="#101010" transform="translate(235,23)"/>
<path d="M0 0 C2.97 0.495 2.97 0.495 6 1 C7 6.75 7 6.75 7 9 C5 9 3 9 1 9 C1 8.34 1 7.68 1 7 C0.34 7 -0.32 7 -1 7 C-1 7.66 -1 8.32 -1 9 C-1.66 9 -2.32 9 -3 9 C-2.5020163 5.26512223 -2.12508244 3.18762365 0 0 Z " fill="#F1BFB7" transform="translate(132,478)"/>
<path d="M0 0 C0 0.66 0 1.32 0 2 C0.66 2 1.32 2 2 2 C2 2.99 2 3.98 2 5 C2.66 5 3.32 5 4 5 C3.67 4.01 3.34 3.02 3 2 C3.66 1.34 4.32 0.68 5 0 C5 1.98 5 3.96 5 6 C0.71 6 -3.58 6 -8 6 C-7.67 4.35 -7.34 2.7 -7 1 C-4 0 -4 0 0 0 Z " fill="#737373" transform="translate(99,250)"/>
<path d="M0 0 C3 1 3 1 4.1875 2.6875 C5.19313465 5.54969093 5.13689641 7.98827908 5 11 C3.02 11 1.04 11 -1 11 C-1.02688151 9.35425434 -1.04634123 7.70838587 -1.0625 6.0625 C-1.07410156 5.14597656 -1.08570313 4.22945312 -1.09765625 3.28515625 C-1 1 -1 1 0 0 Z " fill="#ECE9E9" transform="translate(40,245)"/>
<path d="M0 0 C0 0.66 0 1.32 0 2 C2.64 2 5.28 2 8 2 C7.67 3.65 7.34 5.3 7 7 C3.70331445 7 1.17976546 6.65225958 -2 6 C-2.99 6 -3.98 6 -5 6 C-5 4.35 -5 2.7 -5 1 C-2 0 -2 0 0 0 Z " fill="#C3AA72" transform="translate(147,126)"/>
<path d="M0 0 C1.33599921 0.32248257 2.66893378 0.65772583 4 1 C6.68149993 0.61432869 6.68149993 0.61432869 9 0 C8.67 2.31 8.34 4.62 8 7 C7.01 7 6.02 7 5 7 C5 6.01 5 5.02 5 4 C4.01 5.485 4.01 5.485 3 7 C1.68 6.67 0.36 6.34 -1 6 C-1.625 4.125 -1.625 4.125 -2 2 C-1.34 1.34 -0.68 0.68 0 0 Z " fill="#656464" transform="translate(71,59)"/>
<path d="M0 0 C2.29013653 3.4352048 2.17842973 4.985331 2 9 C1.443125 8.814375 0.88625 8.62875 0.3125 8.4375 C-2.399133 7.92448835 -4.34371039 8.3359276 -7 9 C-7.33 7.02 -7.66 5.04 -8 3 C-7.236875 2.87625 -6.47375 2.7525 -5.6875 2.625 C-2.79732864 2.11897208 -2.79732864 2.11897208 0 0 Z " fill="#818080" transform="translate(66,57)"/>
<path d="M0 0 C4 0 8 0 12 0 C12 1.98 12 3.96 12 6 C11.38511719 5.9278125 10.77023438 5.855625 10.13671875 5.78125 C9.32847656 5.6884375 8.52023438 5.595625 7.6875 5.5 C6.48673828 5.36078125 6.48673828 5.36078125 5.26171875 5.21875 C2.88103445 4.95186537 2.88103445 4.95186537 0 5 C0 3.35 0 1.7 0 0 Z " fill="#BFA56B" transform="translate(121,117)"/>
<path d="M0 0 C1.32 0 2.64 0 4 0 C6 2 6 2 6 5 C6.66 5 7.32 5 8 5 C7.67 4.01 7.34 3.02 7 2 C7.66 1.67 8.32 1.34 9 1 C9 2.65 9 4.3 9 6 C4.71 6 0.42 6 -4 6 C-3.67 5.34 -3.34 4.68 -3 4 C-3.33 3.67 -3.66 3.34 -4 3 C-2.68 2.67 -1.36 2.34 0 2 C0 1.34 0 0.68 0 0 Z " fill="#6A6563" transform="translate(95,363)"/>
<path d="M0 0 C3.96 0 7.92 0 12 0 C12.33 1.65 12.66 3.3 13 5 C11.35 5 9.7 5 8 5 C8 3.68 8 2.36 8 1 C7.34 1 6.68 1 6 1 C6 2.32 6 3.64 6 5 C4.02 5 2.04 5 0 5 C0 3.35 0 1.7 0 0 Z " fill="#5C5755" transform="translate(94,352)"/>
<path d="M0 0 C1.98 0.495 1.98 0.495 4 1 C4 4.3 4 7.6 4 11 C2.35 11.33 0.7 11.66 -1 12 C-1.07427838 8.65747276 -1.06546953 6.1964086 0 3 C0 2.01 0 1.02 0 0 Z " fill="#95277B" transform="translate(26,354)"/>
<path d="M0 0 C1.98 0 3.96 0 6 0 C6.125 2.375 6.125 2.375 6 5 C4 7 4 7 0.875 7.125 C-0.548125 7.063125 -0.548125 7.063125 -2 7 C-2.33 5.68 -2.66 4.36 -3 3 C-2.01 3 -1.02 3 0 3 C0 2.01 0 1.02 0 0 Z " fill="#947A75" transform="translate(60,257)"/>
<path d="M0 0 C0.66 0 1.32 0 2 0 C2.67258667 2.33163378 3.33847444 4.6652039 4 7 C4.268125 7.680625 4.53625 8.36125 4.8125 9.0625 C5.12048637 12.24502577 3.5992956 14.33450733 2 17 C1.34 17.33 0.68 17.66 0 18 C0.55312735 13.97007218 1.1558062 9.97977076 2 6 C1.01 6 0.02 6 -1 6 C-1.042721 4.33388095 -1.04063832 2.66617115 -1 1 C-0.67 0.67 -0.34 0.34 0 0 Z " fill="#C6A399" transform="translate(57,237)"/>
<path d="M0 0 C2.375 -0.125 2.375 -0.125 5 0 C5.66 0.66 6.32 1.32 7 2 C6.44444444 6.55555556 6.44444444 6.55555556 5 8 C3.33382885 8.04063832 1.66611905 8.042721 0 8 C0 5.36 0 2.72 0 0 Z " fill="#727272" transform="translate(111,169)"/>
<path d="M0 0 C1.23556641 0.01740234 1.23556641 0.01740234 2.49609375 0.03515625 C3.32238281 0.04417969 4.14867187 0.05320313 5 0.0625 C5.63808594 0.07410156 6.27617187 0.08570313 6.93359375 0.09765625 C7.26359375 1.41765625 7.59359375 2.73765625 7.93359375 4.09765625 C4.52796523 4.87608563 1.42593619 5.19743746 -2.06640625 5.09765625 C-2.62890625 3.16015625 -2.62890625 3.16015625 -3.06640625 1.09765625 C-2.06640625 0.09765625 -2.06640625 0.09765625 0 0 Z " fill="#D5D5D5" transform="translate(215.06640625,241.90234375)"/>
<path d="M0 0 C0.66 0 1.32 0 2 0 C2 2.64 2 5.28 2 8 C-0.31 8 -2.62 8 -5 8 C-5.33 6.35 -5.66 4.7 -6 3 C-5.195625 2.87625 -4.39125 2.7525 -3.5625 2.625 C-2.716875 2.41875 -1.87125 2.2125 -1 2 C-0.67 1.34 -0.34 0.68 0 0 Z " fill="#686868" transform="translate(70,169)"/>
<path d="M0 0 C3.3 0 6.6 0 10 0 C10.33 1.32 10.66 2.64 11 4 C7.04 4 3.08 4 -1 4 C-0.67 2.68 -0.34 1.36 0 0 Z " fill="#AAAAAA" transform="translate(47,304)"/>
<path d="M0 0 C1.98 0.495 1.98 0.495 4 1 C4 4.3 4 7.6 4 11 C2.35 11.33 0.7 11.66 -1 12 C-1.07427838 8.65747276 -1.06546953 6.1964086 0 3 C0 2.01 0 1.02 0 0 Z " fill="#912680" transform="translate(26,297)"/>
<path d="M0 0 C0.33 0.66 0.66 1.32 1 2 C2.98 2 4.96 2 7 2 C7 3.98 7 5.96 7 8 C5.35 8.33 3.7 8.66 2 9 C2 8.34 2 7.68 2 7 C1.34 7 0.68 7 0 7 C0 4.69 0 2.38 0 0 Z " fill="#6F6F6F" transform="translate(89,237)"/>
<path d="M0 0 C0.99 0 1.98 0 3 0 C4.1577506 3.47325181 4.06866652 6.36067448 4 10 C3.01 10 2.02 10 1 10 C1 9.34 1 8.68 1 8 C0.34 8 -0.32 8 -1 8 C-1.625 5.125 -1.625 5.125 -2 2 C-1.34 1.34 -0.68 0.68 0 0 Z " fill="#B5B2A7" transform="translate(42,349)"/>
<path d="M0 0 C2 2 2 2 2 6 C1.34 6 0.68 6 0 6 C-0.33 5.01 -0.66 4.02 -1 3 C-1.33 3.99 -1.66 4.98 -2 6 C-4.64 6 -7.28 6 -10 6 C-10 4.35 -10 2.7 -10 1 C-7.33333333 1 -4.66666667 1 -2 1 C-1.34 0.67 -0.68 0.34 0 0 Z " fill="#CEB887" transform="translate(98,116)"/>
<path d="M0 0 C0.99 0.33 1.98 0.66 3 1 C2.01 1.99 1.02 2.98 0 4 C0.9075 3.319375 1.815 2.63875 2.75 1.9375 C6 0 6 0 8.375 0.25 C8.91125 0.4975 9.4475 0.745 10 1 C10 2.32 10 3.64 10 5 C6.01080675 6.1004671 2.98919325 6.1004671 -1 5 C-0.67 3.35 -0.34 1.7 0 0 Z " fill="#C9C9C9" transform="translate(213,355)"/>
<path d="M0 0 C2.97 0 5.94 0 9 0 C9.33 1.65 9.66 3.3 10 5 C3.375 5.125 3.375 5.125 0 4 C0 2.68 0 1.36 0 0 Z " fill="#D9BAA9" transform="translate(48,348)"/>
<path d="M0 0 C0 1.98 0 3.96 0 6 C-0.94875 5.79375 -1.8975 5.5875 -2.875 5.375 C-4.421875 5.189375 -4.421875 5.189375 -6 5 C-6.66 5.66 -7.32 6.32 -8 7 C-8.66 6.67 -9.32 6.34 -10 6 C-9.67 4.35 -9.34 2.7 -9 1 C-1.125 0 -1.125 0 0 0 Z " fill="#696969" transform="translate(94,202)"/>
<path d="M0 0 C2.64 0 5.28 0 8 0 C9.125 4.75 9.125 4.75 8 7 C6.68 6.67 5.36 6.34 4 6 C3.67 4.68 3.34 3.36 3 2 C2.34 2 1.68 2 1 2 C0.67 3.32 0.34 4.64 0 6 C0 4.02 0 2.04 0 0 Z " fill="#EDB6B2" transform="translate(140,436)"/>
<path d="M0 0 C1.98 0 3.96 0 6 0 C6.66 2.31 7.32 4.62 8 7 C5.125 7.125 5.125 7.125 2 7 C0 5 0 5 -0.125 2.375 C-0.08375 1.59125 -0.0425 0.8075 0 0 Z " fill="#414562" transform="translate(39,257)"/>
<path d="M0 0 C2.64 0.66 5.28 1.32 8 2 C7.67 3.65 7.34 5.3 7 7 C4.69 7 2.38 7 0 7 C0 4.69 0 2.38 0 0 Z " fill="#F7AF95" transform="translate(50,72)"/>
<path d="M0 0 C0 1.98 0 3.96 0 6 C-2.64 6 -5.28 6 -8 6 C-8 4.35 -8 2.7 -8 1 C-1.125 0 -1.125 0 0 0 Z " fill="#818181" transform="translate(48,202)"/>
<path d="M0 0 C1.65 0 3.3 0 5 0 C5.91058531 3.07322544 6.08886184 5.80097361 6 9 C5.34 9 4.68 9 4 9 C3.67 7.68 3.34 6.36 3 5 C2.34 5 1.68 5 1 5 C0.67 5.99 0.34 6.98 0 8 C0 5.36 0 2.72 0 0 Z " fill="#686767" transform="translate(22,57)"/>
<path d="M0 0 C1.67542976 0.28604898 3.34385343 0.61781233 5 1 C5 2.65 5 4.3 5 6 C3.34385343 6.38218767 1.67542976 6.71395102 0 7 C-1 6 -1 6 -1.125 3.5 C-1 1 -1 1 0 0 Z " fill="#6FAE4A" transform="translate(77,363)"/>
<path d="M0 0 C6.27 0 12.54 0 19 0 C19 0.66 19 1.32 19 2 C15.65613885 3.06467277 12.97071868 2.94866513 9.5 2.5625 C6.27572026 2.2126125 3.25457752 2 0 2 C0 1.34 0 0.68 0 0 Z " fill="#D8D8D8" transform="translate(205,362)"/>
<path d="M0 0 C2.05078125 0.03255208 4.1015625 0.06510417 6.15234375 0.09765625 C6.15234375 1.74765625 6.15234375 3.39765625 6.15234375 5.09765625 C3.51234375 5.09765625 0.87234375 5.09765625 -1.84765625 5.09765625 C-2.41015625 3.16015625 -2.41015625 3.16015625 -2.84765625 1.09765625 C-1.84765625 0.09765625 -1.84765625 0.09765625 0 0 Z " fill="#C5AD76" transform="translate(79.84765625,127.90234375)"/>
<path d="M0 0 C2.97 0 5.94 0 9 0 C9 1.32 9 2.64 9 4 C5.67465243 5.10844919 3.37817425 4.84454356 0 4 C0 2.68 0 1.36 0 0 Z " fill="#C3A971" transform="translate(134,117)"/>
<path d="M0 0 C1.67542976 0.28604898 3.34385343 0.61781233 5 1 C5 2.65 5 4.3 5 6 C3.34385343 6.38218767 1.67542976 6.71395102 0 7 C-1 6 -1 6 -1.125 3.5 C-1 1 -1 1 0 0 Z " fill="#74B251" transform="translate(77,306)"/>
<path d="M0 0 C0.66 0 1.32 0 2 0 C2 2.31 2 4.62 2 7 C0.02 7 -1.96 7 -4 7 C-4.33 5.68 -4.66 4.36 -5 3 C-3.35 2.67 -1.7 2.34 0 2 C0 1.34 0 0.68 0 0 Z " fill="#807977" transform="translate(102,293)"/>
<path d="M0 0 C0.66 0 1.32 0 2 0 C2 1.98 2 3.96 2 6 C-0.97 6 -3.94 6 -7 6 C-7 5.01 -7 4.02 -7 3 C-5.5459375 2.5359375 -5.5459375 2.5359375 -4.0625 2.0625 C-1.15934208 1.30476658 -1.15934208 1.30476658 0 0 Z " fill="#626262" transform="translate(212,23)"/>
<path d="M0 0 C0.66 0 1.32 0 2 0 C2 2.31 2 4.62 2 7 C-0.31 7 -2.62 7 -5 7 C-5 5.35 -5 3.7 -5 2 C-3.35 2 -1.7 2 0 2 C0 1.34 0 0.68 0 0 Z " fill="#838383" transform="translate(102,237)"/>
<path d="M0 0 C3 0 6 0 9 0 C9.33 1.32 9.66 2.64 10 4 C6.25 5.125 6.25 5.125 4 4 C3.67 4.99 3.34 5.98 3 7 C2.34 6.67 1.68 6.34 1 6 C0.375 2.9375 0.375 2.9375 0 0 Z " fill="#C2A870" transform="translate(167,117)"/>
<path d="M0 0 C1.65 0 3.3 0 5 0 C5.33 1.32 5.66 2.64 6 4 C4.68 4.33 3.36 4.66 2 5 C2 5.99 2 6.98 2 8 C1.34 8 0.68 8 0 8 C0 5.36 0 2.72 0 0 Z " fill="#5B5B5B" transform="translate(21,169)"/>
<path d="M0 0 C3.11257569 0 5.10765685 0.17361624 8 1 C7.67 2.32 7.34 3.64 7 5 C4.33333333 5 1.66666667 5 -1 5 C-0.67 3.35 -0.34 1.7 0 0 Z " fill="#DF8B8D" transform="translate(77,73)"/>
<path d="M0 0 C1.67542976 0.28604898 3.34385343 0.61781233 5 1 C5 2.65 5 4.3 5 6 C3.34385343 6.38218767 1.67542976 6.71395102 0 7 C-1 6 -1 6 -1.125 3.5 C-1 1 -1 1 0 0 Z " fill="#6E6C6C" transform="translate(30,59)"/>
<path d="M0 0 C0.99 0.33 1.98 0.66 3 1 C2.34 1.66 1.68 2.32 1 3 C-0.06004614 8.57978794 -0.06004614 8.57978794 1 14 C-0.32 14 -1.64 14 -3 14 C-2.88617347 12.04098546 -2.75858875 10.0827662 -2.625 8.125 C-2.55539063 7.03445313 -2.48578125 5.94390625 -2.4140625 4.8203125 C-2 2 -2 2 0 0 Z " fill="#ADB6BF" transform="translate(54,363)"/>
<path d="M0 0 C0.66 0 1.32 0 2 0 C2 1.98 2 3.96 2 6 C2.66 6 3.32 6 4 6 C3.67 6.99 3.34 7.98 3 9 C3.66 9.66 4.32 10.32 5 11 C2.525 12.485 2.525 12.485 0 14 C0 9.38 0 4.76 0 0 Z " fill="#4D5E62" transform="translate(39,354)"/>
<path d="M0 0 C5.61 0 11.22 0 17 0 C17 0.33 17 0.66 17 1 C15.77023438 1.05607422 15.77023438 1.05607422 14.515625 1.11328125 C13.43796875 1.17902344 12.3603125 1.24476563 11.25 1.3125 C10.18265625 1.37050781 9.1153125 1.42851562 8.015625 1.48828125 C4.78425805 2.03660906 3.46253031 2.93125269 1 5 C0.34 5 -0.32 5 -1 5 C-0.67 3.35 -0.34 1.7 0 0 Z " fill="#E4E4E6" transform="translate(46,228)"/>
<path d="M0 0 C2.64 0 5.28 0 8 0 C8.33 0.66 8.66 1.32 9 2 C8.34 2 7.68 2 7 2 C6.67 2.66 6.34 3.32 6 4 C6.99 4.33 7.98 4.66 9 5 C8.0925 4.814375 7.185 4.62875 6.25 4.4375 C3.31685676 4.04265379 1.7355343 4.05308428 -1 5 C-0.67 3.35 -0.34 1.7 0 0 Z " fill="#C46B8B" transform="translate(233,203)"/>
<path d="M0 0 C0.66 0 1.32 0 2 0 C2 2.31 2 4.62 2 7 C1.34 7 0.68 7 0 7 C-0.33 6.67 -0.66 6.34 -1 6 C-1.66 6.66 -2.32 7.32 -3 8 C-3.66 7.67 -4.32 7.34 -5 7 C-4.67 5.35 -4.34 3.7 -4 2 C-3.01 2 -2.02 2 -1 2 C-0.67 1.34 -0.34 0.68 0 0 Z " fill="#6F6F6F" transform="translate(67,201)"/>
<path d="M0 0 C1.32 0.33 2.64 0.66 4 1 C4 1.66 4 2.32 4 3 C2.68 2.67 1.36 2.34 0 2 C0 2.66 0 3.32 0 4 C1.32 4.33 2.64 4.66 4 5 C4 5.99 4 6.98 4 8 C2.35 8.33 0.7 8.66 -1 9 C-1.33 8.01 -1.66 7.02 -2 6 C-0.68 6.33 0.64 6.66 2 7 C2 6.34 2 5.68 2 5 C0.68 4.67 -0.64 4.34 -2 4 C-1.34 2.68 -0.68 1.36 0 0 Z " fill="#F4C3B8" transform="translate(122,434)"/>
<path d="M0 0 C1.65 0.33 3.3 0.66 5 1 C4.67 2.65 4.34 4.3 4 6 C2.35 5.67 0.7 5.34 -1 5 C-0.67 3.35 -0.34 1.7 0 0 Z " fill="#62A93C" transform="translate(77,250)"/>
<path d="M0 0 C2 2 2 2 2 6 C-0.31 6 -2.62 6 -5 6 C-5.33 4.68 -5.66 3.36 -6 2 C-4.02 1.34 -2.04 0.68 0 0 Z " fill="#7B7B7B" transform="translate(81,202)"/>
<path d="M0 0 C7.75 -0.125 7.75 -0.125 10 1 C10 1.66 10 2.32 10 3 C7.35261084 4.4606285 6.10551666 5 3 5 C3 3.68 3 2.36 3 1 C2.34 1 1.68 1 1 1 C0.67 1.99 0.34 2.98 0 4 C0 2.68 0 1.36 0 0 Z " fill="#C8B07C" transform="translate(187,128)"/>
<path d="M0 0 C1.65 0.33 3.3 0.66 5 1 C5 2.65 5 4.3 5 6 C3.125 6.625 3.125 6.625 1 7 C0.34 6.34 -0.32 5.68 -1 5 C-0.625 2.375 -0.625 2.375 0 0 Z " fill="#6B6969" transform="translate(52,59)"/>
<path d="M0 0 C2.475 0.495 2.475 0.495 5 1 C5 2.65 5 4.3 5 6 C3.0625 6.5625 3.0625 6.5625 1 7 C0 6 0 6 -0.0625 2.9375 C-0.041875 1.968125 -0.02125 0.99875 0 0 Z " fill="#626262" transform="translate(32,25)"/>
<path d="M0 0 C1.67542976 0.28604898 3.34385343 0.61781233 5 1 C5 2.32 5 3.64 5 5 C3.35 5.33 1.7 5.66 0 6 C-0.38218767 4.34385343 -0.71395102 2.67542976 -1 1 C-0.67 0.67 -0.34 0.34 0 0 Z " fill="#F2B1A0" transform="translate(116,481)"/>
<path d="M0 0 C0.99 0.33 1.98 0.66 3 1 C2.01 1.99 1.02 2.98 0 4 C3.12197478 2.6910428 3.12197478 2.6910428 5 0 C6.65 0.33 8.3 0.66 10 1 C9.67 1.99 9.34 2.98 9 4 C8.01 3.01 7.02 2.02 6 1 C5.67 2.32 5.34 3.64 5 5 C3.35 5.33 1.7 5.66 0 6 C-0.38218767 4.34385343 -0.71395102 2.67542976 -1 1 C-0.67 0.67 -0.34 0.34 0 0 Z " fill="#C8C8C8" transform="translate(213,298)"/>
<path d="M0 0 C1.32 0.33 2.64 0.66 4 1 C4.33 2.65 4.66 4.3 5 6 C3.35 6.33 1.7 6.66 0 7 C0 4.69 0 2.38 0 0 Z " fill="#C8B07C" transform="translate(219,115)"/>
<path d="M0 0 C0 1.65 0 3.3 0 5 C-0.99 5 -1.98 5 -3 5 C-3.33 4.01 -3.66 3.02 -4 2 C-4.66 2 -5.32 2 -6 2 C-6.33 2.66 -6.66 3.32 -7 4 C-6.34 4.33 -5.68 4.66 -5 5 C-6.32 4.67 -7.64 4.34 -9 4 C-8.67 2.68 -8.34 1.36 -8 0 C-4.71303767 -0.79953138 -3.28976808 -1.09658936 0 0 Z " fill="#B86A9F" transform="translate(150,524)"/>
<path d="M0 0 C1.65 0.33 3.3 0.66 5 1 C4.01 1.495 4.01 1.495 3 2 C2.34 1.67 1.68 1.34 1 1 C1 1.66 1 2.32 1 3 C2.32 3.33 3.64 3.66 5 4 C4.67 5.32 4.34 6.64 4 8 C2.35 7.67 0.7 7.34 -1 7 C-1 6.34 -1 5.68 -1 5 C-0.01 5 0.98 5 2 5 C1.01 4.34 0.02 3.68 -1 3 C-0.67 2.01 -0.34 1.02 0 0 Z " fill="#F1C9C8" transform="translate(150,479)"/>
<path d="M0 0 C0.99 0.33 1.98 0.66 3 1 C3 1.66 3 2.32 3 3 C2.34 3 1.68 3 1 3 C1 3.99 1 4.98 1 6 C2.32 5.34 3.64 4.68 5 4 C4.25 5.9375 4.25 5.9375 3 8 C0.875 8.75 0.875 8.75 -1 9 C-1.09765625 2.84765625 -1.09765625 2.84765625 -1 1 C-0.67 0.67 -0.34 0.34 0 0 Z " fill="#95605C" transform="translate(53,252)"/>
<path d="M0 0 C2.31 0 4.62 0 7 0 C7.33 1.65 7.66 3.3 8 5 C7.67 4.01 7.34 3.02 7 2 C6.34 2 5.68 2 5 2 C5 2.99 5 3.98 5 5 C3.35 5 1.7 5 0 5 C0 3.35 0 1.7 0 0 Z " fill="#CD86A4" transform="translate(91,73)"/>
<path d="M0 0 C0.66 0 1.32 0 2 0 C2 1.65 2 3.3 2 5 C2.66 5 3.32 5 4 5 C4 3.35 4 1.7 4 0 C4.66 0 5.32 0 6 0 C6 2.31 6 4.62 6 7 C4.33388095 7.042721 2.66617115 7.04063832 1 7 C0 6 0 6 -0.0625 2.9375 C-0.041875 1.968125 -0.02125 0.99875 0 0 Z " fill="#605F5F" transform="translate(44,59)"/>
<path d="M0 0 C2.475 0.495 2.475 0.495 5 1 C5 2.65 5 4.3 5 6 C3.35 6 1.7 6 0 6 C0 4.02 0 2.04 0 0 Z " fill="#F6B9A7" transform="translate(105,481)"/>
<path d="M0 0 C0.66 0 1.32 0 2 0 C2 0.66 2 1.32 2 2 C3.32 2.33 4.64 2.66 6 3 C6 4.65 6 6.3 6 8 C5.34 8 4.68 8 4 8 C4 6.35 4 4.7 4 3 C3.34 3 2.68 3 2 3 C2 4.65 2 6.3 2 8 C1.34 8 0.68 8 0 8 C0 5.36 0 2.72 0 0 Z " fill="#F8C7B6" transform="translate(98,479)"/>
<path d="M0 0 C1.65 0.33 3.3 0.66 5 1 C4.01 1.495 4.01 1.495 3 2 C2.34 1.67 1.68 1.34 1 1 C1 1.66 1 2.32 1 3 C2.32 3.33 3.64 3.66 5 4 C4.67 5.32 4.34 6.64 4 8 C2.35 7.67 0.7 7.34 -1 7 C-1 6.34 -1 5.68 -1 5 C0.32 5 1.64 5 3 5 C1.68 4.34 0.36 3.68 -1 3 C-0.67 2.01 -0.34 1.02 0 0 Z " fill="#FACFC0" transform="translate(92,479)"/>
<path d="M0 0 C2.64 0 5.28 0 8 0 C8 0.66 8 1.32 8 2 C8.99 2.33 9.98 2.66 11 3 C7.04 3 3.08 3 -1 3 C-0.67 2.01 -0.34 1.02 0 0 Z " fill="#E7E6E2" transform="translate(40,342)"/>
<path d="M0 0 C0.33 0.99 0.66 1.98 1 3 C1.66 3 2.32 3 3 3 C3 2.01 3 1.02 3 0 C4.65 0 6.3 0 8 0 C7.67 1.65 7.34 3.3 7 5 C5.02 5 3.04 5 1 5 C0.67 3.35 0.34 1.7 0 0 Z " fill="#C6AD77" transform="translate(63,128)"/>
<path d="M0 0 C2 0 2 0 3.625 1.1875 C5.42149467 3.55560662 5.23521845 5.09897251 5 8 C4.01 8.33 3.02 8.66 2 9 C2 8.34 2 7.68 2 7 C1.34 7 0.68 7 0 7 C0 4.69 0 2.38 0 0 Z " fill="#D8C59B" transform="translate(194,115)"/>
<path d="M0 0 C0.99 0 1.98 0 3 0 C3.33 0.99 3.66 1.98 4 3 C3.01 3 2.02 3 1 3 C1 4.32 1 5.64 1 7 C0.34 7 -0.32 7 -1 7 C-1 7.66 -1 8.32 -1 9 C-1.66 9 -2.32 9 -3 9 C-2.5020163 5.26512223 -2.12508244 3.18762365 0 0 Z " fill="#E88E7F" transform="translate(132,478)"/>
<path d="M0 0 C1.32 0.66 2.64 1.32 4 2 C4 3.65 4 5.3 4 7 C2.35 7 0.7 7 -1 7 C-1.04254356 5.00045254 -1.04080783 2.99958364 -1 1 C-0.67 0.67 -0.34 0.34 0 0 Z " fill="#EFB4AD" transform="translate(135,436)"/>
<path d="M0 0 C0 0.99 0 1.98 0 3 C0.020625 3.86625 0.04125 4.7325 0.0625 5.625 C0 8 0 8 -1 9 C-2.99958364 9.04080783 -5.00045254 9.04254356 -7 9 C-7 8.67 -7 8.34 -7 8 C-5.35 8 -3.7 8 -2 8 C-2.7425 7.071875 -2.7425 7.071875 -3.5 6.125 C-5 4 -5 4 -5 2 C-4.360625 1.855625 -3.72125 1.71125 -3.0625 1.5625 C-1.02454854 1.18992819 -1.02454854 1.18992819 0 0 Z " fill="#E9968A" transform="translate(26,300)"/>
<path d="M0 0 C2.5 1.8125 2.5 1.8125 5 4 C5 4.99 5 5.98 5 7 C3.35 6.67 1.7 6.34 0 6 C-0.38218767 4.34385343 -0.71395102 2.67542976 -1 1 C-0.67 0.67 -0.34 0.34 0 0 Z " fill="#DDC6BE" transform="translate(46,257)"/>
<path d="M0 0 C0.33 0.66 0.66 1.32 1 2 C1.99 2 2.98 2 4 2 C4 3.65 4 5.3 4 7 C3.67 5.68 3.34 4.36 3 3 C2.34 3 1.68 3 1 3 C1 4.32 1 5.64 1 7 C-0.32 6.67 -1.64 6.34 -3 6 C-3 4.35 -3 2.7 -3 1 C-2.01 1.495 -2.01 1.495 -1 2 C-0.67 1.34 -0.34 0.68 0 0 Z " fill="#C0A56B" transform="translate(45,126)"/>
<path d="M0 0 C2.0625 0.4375 2.0625 0.4375 4 1 C4 2.65 4 4.3 4 6 C2.0625 6.5625 2.0625 6.5625 0 7 C-1 6 -1 6 -1.125 3.5 C-1 1 -1 1 0 0 Z " fill="#E79489" transform="translate(71,72)"/>
<path d="M0 0 C2.475 0.495 2.475 0.495 5 1 C4.67 2.32 4.34 3.64 4 5 C3.34 5 2.68 5 2 5 C2 5.66 2 6.32 2 7 C1.34 7 0.68 7 0 7 C0 4.69 0 2.38 0 0 Z " fill="#635E5C" transform="translate(76,293)"/>
<path d="M0 0 C-0.33 1.32 -0.66 2.64 -1 4 C-2.98 4 -4.96 4 -7 4 C-6.625 2.0625 -6.625 2.0625 -6 0 C-3.50907189 -1.24546405 -2.58919267 -0.7767578 0 0 Z " fill="#F5F4F0" transform="translate(46,229)"/>
<path d="M0 0 C0.33 1.98 0.66 3.96 1 6 C-0.65614657 6.38218767 -2.32457024 6.71395102 -4 7 C-5 6 -5 6 -5.0625 3.4375 C-5.041875 2.633125 -5.02125 1.82875 -5 1 C-2 0 -2 0 0 0 Z " fill="#CBB381" transform="translate(166,126)"/>
<path d="M0 0 C0.99 0 1.98 0 3 0 C3 2.31 3 4.62 3 7 C1.68 7 0.36 7 -1 7 C-1.04254356 5.00045254 -1.04080783 2.99958364 -1 1 C-0.67 0.67 -0.34 0.34 0 0 Z " fill="#C5AC75" transform="translate(161,117)"/>
<path d="M0 0 C2.475 0.495 2.475 0.495 5 1 C5 3.31 5 5.62 5 8 C4.01 8 3.02 8 2 8 C1.855625 7.236875 1.71125 6.47375 1.5625 5.6875 C1.0367406 2.91827092 1.0367406 2.91827092 0 0 Z " fill="#8AA2B3" transform="translate(45,369)"/>
<path d="M0 0 C0 3.11227195 -0.45627049 5.94152152 -1 9 C-2.98 9 -4.96 9 -7 9 C-5.68 8.67 -4.36 8.34 -3 8 C-3.66 6.02 -4.32 4.04 -5 2 C-4.360625 1.855625 -3.72125 1.71125 -3.0625 1.5625 C-1.02454854 1.18992819 -1.02454854 1.18992819 0 0 Z " fill="#EE9F8E" transform="translate(26,357)"/>
<path d="M0 0 C1.98 0.495 1.98 0.495 4 1 C3.67 2.65 3.34 4.3 3 6 C1.68 5.67 0.36 5.34 -1 5 C-0.67 3.35 -0.34 1.7 0 0 Z " fill="#D3D3D3" transform="translate(207,298)"/>
<path d="M0 0 C0 2.31 0 4.62 0 7 C-1.32 7 -2.64 7 -4 7 C-4.33 5.35 -4.66 3.7 -5 2 C-2 0 -2 0 0 0 Z " fill="#CBB582" transform="translate(154,115)"/>
<path d="M0 0 C1.32 0 2.64 0 4 0 C4 1.98 4 3.96 4 6 C2.35 5.67 0.7 5.34 -1 5 C-0.67 3.35 -0.34 1.7 0 0 Z " fill="#E7BCC5" transform="translate(173,481)"/>
<path d="M0 0 C1.32 0 2.64 0 4 0 C4 1.98 4 3.96 4 6 C2.35 5.67 0.7 5.34 -1 5 C-0.67 3.35 -0.34 1.7 0 0 Z " fill="#EDBFC1" transform="translate(157,481)"/>
<path d="M0 0 C-0.33 0.66 -0.66 1.32 -1 2 C-3.97 2 -6.94 2 -10 2 C-9.67 1.01 -9.34 0.02 -9 -1 C-5.52718036 -2.61238055 -3.32673591 -1.57095862 0 0 Z " fill="#646464" transform="translate(101,408)"/>
<path d="M0 0 C0.33 0.66 0.66 1.32 1 2 C3.02463255 2.65213292 3.02463255 2.65213292 5 3 C4.67 4.32 4.34 5.64 4 7 C2.68 7 1.36 7 0 7 C0 4.69 0 2.38 0 0 Z " fill="#595959" transform="translate(83,237)"/>
<path d="M0 0 C0 1.98 0 3.96 0 6 C-2.64 5.34 -5.28 4.68 -8 4 C-3.375 0 -3.375 0 0 0 Z " fill="#CAB27E" transform="translate(133,117)"/>
<path d="M0 0 C0.66 0.66 1.32 1.32 2 2 C2.99 2.33 3.98 2.66 5 3 C5.33 3.99 5.66 4.98 6 6 C5 7 5 7 2.4375 7.0625 C1.2309375 7.0315625 1.2309375 7.0315625 0 7 C0 4.69 0 2.38 0 0 Z " fill="#C6AD77" transform="translate(112,115)"/>
<path d="M0 0 C0 2.31 0 4.62 0 7 C-0.66 7 -1.32 7 -2 7 C-2 6.01 -2 5.02 -2 4 C-2.66 4 -3.32 4 -4 4 C-4.33 4.99 -4.66 5.98 -5 7 C-5.1875 4.625 -5.1875 4.625 -5 2 C-2 0 -2 0 0 0 Z " fill="#6D6765" transform="translate(96,293)"/>
<path d="M0 0 C0 2.64 0 5.28 0 8 C1.32 7.67 2.64 7.34 4 7 C4 7.99 4 8.98 4 10 C2.35 10.33 0.7 10.66 -1 11 C-1 8.03 -1 5.06 -1 2 C-1.66 1.67 -2.32 1.34 -3 1 C-1 0 -1 0 0 0 Z " fill="#B0827B" transform="translate(52,253)"/>
<path d="M0 0 C0.99 0.33 1.98 0.66 3 1 C3.33 2.98 3.66 4.96 4 7 C3.38125 6.814375 2.7625 6.62875 2.125 6.4375 C-0.04160178 5.76313824 -0.04160178 5.76313824 -2 7 C-1.34 4.69 -0.68 2.38 0 0 Z " fill="#484848" transform="translate(78,237)"/>
<path d="M0 0 C2.97 0 5.94 0 9 0 C8.67 1.32 8.34 2.64 8 4 C3.545 3.01 3.545 3.01 -1 2 C-0.67 1.34 -0.34 0.68 0 0 Z " fill="#C8C5C8" transform="translate(51,229)"/>
<path d="M0 0 C1.67542976 0.28604898 3.34385343 0.61781233 5 1 C5 1.66 5 2.32 5 3 C3.68 3 2.36 3 1 3 C1 3.66 1 4.32 1 5 C1.99 4.67 2.98 4.34 4 4 C4 4.66 4 5.32 4 6 C2.68 6 1.36 6 0 6 C-0.38218767 4.34385343 -0.71395102 2.67542976 -1 1 C-0.67 0.67 -0.34 0.34 0 0 Z " fill="#505050" transform="translate(50,171)"/>
<path d="M0 0 C0 1.98 0 3.96 0 6 C-1.65 5.67 -3.3 5.34 -5 5 C-4.6875 3.0625 -4.6875 3.0625 -4 1 C-1 0 -1 0 0 0 Z " fill="#C3AA72" transform="translate(193,116)"/>
<path d="M0 0 C1.32 0 2.64 0 4 0 C4 1.98 4 3.96 4 6 C2.68 6 1.36 6 0 6 C0 4.02 0 2.04 0 0 Z " fill="#FCA177" transform="translate(32,72)"/>
<path d="M0 0 C1.98 0.495 1.98 0.495 4 1 C3.67 2.98 3.34 4.96 3 7 C2.01 7 1.02 7 0 7 C-1.125 2.25 -1.125 2.25 0 0 Z " fill="#8A8989" transform="translate(76,59)"/>
<path d="M0 0 C1.32 0 2.64 0 4 0 C3.67 0.66 3.34 1.32 3 2 C2.34 1.67 1.68 1.34 1 1 C1 1.66 1 2.32 1 3 C2.32 3.33 3.64 3.66 5 4 C4.67 4.99 4.34 5.98 4 7 C2.68 7 1.36 7 0 7 C-0.38133299 5.0085944 -0.71325582 3.00720923 -1 1 C-0.67 0.67 -0.34 0.34 0 0 Z " fill="#626060" transform="translate(59,59)"/>
<path d="M0 0 C0.66 0 1.32 0 2 0 C2 0.66 2 1.32 2 2 C2.99 2 3.98 2 5 2 C5 3.65 5 5.3 5 7 C4.67 5.68 4.34 4.36 4 3 C3.34 3 2.68 3 2 3 C2 4.65 2 6.3 2 8 C1.34 8 0.68 8 0 8 C0 5.36 0 2.72 0 0 Z " fill="#F5CDC6" transform="translate(127,435)"/>
<path d="M0 0 C1.32 0.33 2.64 0.66 4 1 C3.67 1.99 3.34 2.98 3 4 C2.34 4 1.68 4 1 4 C0.34 5.32 -0.32 6.64 -1 8 C-1.66 7.67 -2.32 7.34 -3 7 C-2.01 4.69 -1.02 2.38 0 0 Z " fill="#E8EBEE" transform="translate(58,358)"/>
<path d="M0 0 C0.33 0 0.66 0 1 0 C1 2.31 1 4.62 1 7 C-0.65 7 -2.3 7 -4 7 C-3.67 6.01 -3.34 5.02 -3 4 C-3.66 3.67 -4.32 3.34 -5 3 C-4.360625 2.87625 -3.72125 2.7525 -3.0625 2.625 C-2.0415625 2.315625 -2.0415625 2.315625 -1 2 C-0.67 1.34 -0.34 0.68 0 0 Z " fill="#D7D7D5" transform="translate(65,355)"/>
<path d="M0 0 C2.475 0.495 2.475 0.495 5 1 C4.67 2.32 4.34 3.64 4 5 C2.68 5 1.36 5 0 5 C0 3.35 0 1.7 0 0 Z " fill="#ABABAB" transform="translate(50,297)"/>
<path d="M0 0 C2.24606427 1.77444972 2.95081002 2.58352485 3.29296875 5.48046875 C3.25816406 6.37378906 3.22335938 7.26710937 3.1875 8.1875 C3.16042969 9.08855469 3.13335937 9.98960937 3.10546875 10.91796875 C3.07066406 11.60503906 3.03585938 12.29210937 3 13 C2.67 13 2.34 13 2 13 C1.67 10.36 1.34 7.72 1 5 C0.01 4.67 -0.98 4.34 -2 4 C-1.34 3.34 -0.68 2.68 0 2 C0 1.34 0 0.68 0 0 Z " fill="#5D484E" transform="translate(58,232)"/>
<path d="M0 0 C1.32 0 2.64 0 4 0 C4 1.98 4 3.96 4 6 C2.35 5.67 0.7 5.34 -1 5 C-0.67 3.35 -0.34 1.7 0 0 Z " fill="#5D5D5D" transform="translate(59,171)"/>
<path d="M0 0 C2.475 0.495 2.475 0.495 5 1 C5 2.32 5 3.64 5 5 C4.34 4.67 3.68 4.34 3 4 C3.33 3.34 3.66 2.68 4 2 C3.34 2 2.68 2 2 2 C2 3.65 2 5.3 2 7 C1.34 7 0.68 7 0 7 C0 4.69 0 2.38 0 0 Z " fill="#F8966E" transform="translate(44,73)"/>
<path d="M0 0 C2.475 0.495 2.475 0.495 5 1 C5 1.99 5 2.98 5 4 C4.01 4 3.02 4 2 4 C2 4.66 2 5.32 2 6 C1.34 6 0.68 6 0 6 C0 4.02 0 2.04 0 0 Z " fill="#FE9562" transform="translate(21,72)"/>
<path d="M0 0 C2.475 0.495 2.475 0.495 5 1 C5 3.31 5 5.62 5 8 C4.34 7.01 3.68 6.02 3 5 C2.01 5.495 2.01 5.495 1 6 C0.67 4.02 0.34 2.04 0 0 Z " fill="#89A0B4" transform="translate(59,369)"/>
<path d="M0 0 C0.66 0 1.32 0 2 0 C2.33 0.66 2.66 1.32 3 2 C3.66 1.34 4.32 0.68 5 0 C5 1.98 5 3.96 5 6 C3.68 6 2.36 6 1 6 C0.67 4.02 0.34 2.04 0 0 Z " fill="#A6BACA" transform="translate(42,371)"/>
<path d="M0 0 C0.66 0.33 1.32 0.66 2 1 C2 1.66 2 2.32 2 3 C4.475 3.99 4.475 3.99 7 5 C6.67 7.31 6.34 9.62 6 12 C5.67 12 5.34 12 5 12 C5 9.69 5 7.38 5 5 C3.35 4.67 1.7 4.34 0 4 C-0.33 3.01 -0.66 2.02 -1 1 C-0.67 0.67 -0.34 0.34 0 0 Z " fill="#6F899A" transform="translate(45,365)"/>
<path d="M0 0 C1.65 0 3.3 0 5 0 C4.67 1.32 4.34 2.64 4 4 C2.35 4 0.7 4 -1 4 C-0.67 2.68 -0.34 1.36 0 0 Z " fill="#E2CBC1" transform="translate(53,354)"/>
<path d="M0 0 C0.78375 0.04125 1.5675 0.0825 2.375 0.125 C2.375 0.785 2.375 1.445 2.375 2.125 C0.395 2.455 -1.585 2.785 -3.625 3.125 C-3.955 5.105 -4.285 7.085 -4.625 9.125 C-4.955 9.125 -5.285 9.125 -5.625 9.125 C-4.6356383 0.22074468 -4.6356383 0.22074468 0 0 Z " fill="#5A4539" transform="translate(51.625,344.875)"/>
<path d="M0 0 C0.99 0 1.98 0 3 0 C3 1.65 3 3.3 3 5 C1.35 5.33 -0.3 5.66 -2 6 C-1.34 4.02 -0.68 2.04 0 0 Z " fill="#2E2D3D" transform="translate(62,258)"/>
<path d="M0 0 C0.66 0 1.32 0 2 0 C2.33 2.64 2.66 5.28 3 8 C2.67 7.34 2.34 6.68 2 6 C1.01 6 0.02 6 -1 6 C-1.042721 4.33388095 -1.04063832 2.66617115 -1 1 C-0.67 0.67 -0.34 0.34 0 0 Z " fill="#C19A8B" transform="translate(57,237)"/>
<path d="M0 0 C0.33 0.66 0.66 1.32 1 2 C3.02463255 2.65213292 3.02463255 2.65213292 5 3 C5 3.66 5 4.32 5 5 C3.35 4.67 1.7 4.34 0 4 C-0.99 5.32 -1.98 6.64 -3 8 C-3 6.35 -3 4.7 -3 3 C-2.34 3 -1.68 3 -1 3 C-0.67 2.01 -0.34 1.02 0 0 Z " fill="#785E61" transform="translate(47,232)"/>
<path d="M0 0 C1.32 0 2.64 0 4 0 C4 1.98 4 3.96 4 6 C2.68 6 1.36 6 0 6 C0 4.02 0 2.04 0 0 Z " fill="#595959" transform="translate(44,171)"/>
<path d="M0 0 C1.98 0.495 1.98 0.495 4 1 C4 1.66 4 2.32 4 3 C3.01 3 2.02 3 1 3 C1 3.66 1 4.32 1 5 C1.99 4.67 2.98 4.34 4 4 C4 4.66 4 5.32 4 6 C2.35 5.67 0.7 5.34 -1 5 C-0.67 3.35 -0.34 1.7 0 0 Z " fill="#484848" transform="translate(32,171)"/>
<path d="M0 0 C0.66 0 1.32 0 2 0 C2.625 2.375 2.625 2.375 3 5 C2.34 5.66 1.68 6.32 1 7 C-0.32 6.01 -1.64 5.02 -3 4 C-1.625 2 -1.625 2 0 0 Z " fill="#484848" transform="translate(44,25)"/>
<path d="M0 0 C1.32 0 2.64 0 4 0 C3.625 2.4375 3.625 2.4375 3 5 C2.01 5.495 2.01 5.495 1 6 C0.34 5.34 -0.32 4.68 -1 4 C-0.625 1.875 -0.625 1.875 0 0 Z " fill="#DA472E" transform="translate(22,354)"/>
<path d="M0 0 C2.475 0.495 2.475 0.495 5 1 C5 2.32 5 3.64 5 5 C3.35 4.67 1.7 4.34 0 4 C0 2.68 0 1.36 0 0 Z " fill="#EBE4E1" transform="translate(53,348)"/>
<path d="M0 0 C1.32 0 2.64 0 4 0 C3.625 2.4375 3.625 2.4375 3 5 C2.01 5.495 2.01 5.495 1 6 C0.34 5.34 -0.32 4.68 -1 4 C-0.625 1.875 -0.625 1.875 0 0 Z " fill="#DA462E" transform="translate(22,297)"/>
<path d="M0 0 C2.0625 0.4375 2.0625 0.4375 4 1 C3.01 1 2.02 1 1 1 C1 1.99 1 2.98 1 4 C0.01 4 -0.98 4 -2 4 C-1.67 5.32 -1.34 6.64 -1 8 C-2.32 7.67 -3.64 7.34 -5 7 C-1.125 1.125 -1.125 1.125 0 0 Z " fill="#B9998E" transform="translate(59,256)"/>
<path d="M0 0 C1.98 0 3.96 0 6 0 C6 0.99 6 1.98 6 3 C5.34 3 4.68 3 4 3 C4 3.66 4 4.32 4 5 C3.34 5 2.68 5 2 5 C1.34 4.34 0.68 3.68 0 3 C0 2.01 0 1.02 0 0 Z " fill="#4F516E" transform="translate(39,257)"/>
<path d="M0 0 C1.32 0.66 2.64 1.32 4 2 C4 3.98 4 5.96 4 8 C3.34 8 2.68 8 2 8 C1.87625 7.030625 1.7525 6.06125 1.625 5.0625 C1.41875 4.051875 1.2125 3.04125 1 2 C0.34 1.67 -0.32 1.34 -1 1 C-0.67 0.67 -0.34 0.34 0 0 Z " fill="#D0A999" transform="translate(47,235)"/>
<path d="M0 0 C1.98 0.495 1.98 0.495 4 1 C3.67 2.32 3.34 3.64 3 5 C1.68 4.67 0.36 4.34 -1 4 C-0.67 2.68 -0.34 1.36 0 0 Z " fill="#C8B07C" transform="translate(95,128)"/>
<path d="M0 0 C2 2 2 2 2 6 C1.34 6 0.68 6 0 6 C-0.33 5.01 -0.66 4.02 -1 3 C-1.33 3.99 -1.66 4.98 -2 6 C-2.66 6 -3.32 6 -4 6 C-4.33 4.35 -4.66 2.7 -5 1 C-4.01 1 -3.02 1 -2 1 C-1.34 0.67 -0.68 0.34 0 0 Z " fill="#B59757" transform="translate(98,116)"/>
<path d="M0 0 C0.33 0 0.66 0 1 0 C1 2.31 1 4.62 1 7 C-0.65 6.67 -2.3 6.34 -4 6 C-4 5.01 -4 4.02 -4 3 C-2.68 3 -1.36 3 0 3 C0 2.01 0 1.02 0 0 Z " fill="#D0BA8A" transform="translate(62,115)"/>
<path d="M0 0 C0 1.98 0 3.96 0 6 C-1.32 6.33 -2.64 6.66 -4 7 C-4.1875 4.625 -4.1875 4.625 -4 2 C-1 0 -1 0 0 0 Z " fill="#AA76CB" transform="translate(120,72)"/>
<path d="M0 0 C0.66 0 1.32 0 2 0 C2 2.97 2 5.94 2 9 C1.34 9 0.68 9 0 9 C-1.125 3.375 -1.125 3.375 0 0 Z " fill="#C482AE" transform="translate(132,522)"/>
<path d="M0 0 C1.32 0.33 2.64 0.66 4 1 C4 2.32 4 3.64 4 5 C2.68 5.33 1.36 5.66 0 6 C0 4.02 0 2.04 0 0 Z " fill="#DADADA" transform="translate(219,355)"/>
<path d="M0 0 C2.0625 0.4375 2.0625 0.4375 4 1 C4 2.32 4 3.64 4 5 C2.68 5.33 1.36 5.66 0 6 C-0.38218767 4.34385343 -0.71395102 2.67542976 -1 1 C-0.67 0.67 -0.34 0.34 0 0 Z " fill="#797979" transform="translate(50,203)"/>
<path d="M0 0 C1.32 0 2.64 0 4 0 C3.67 1.65 3.34 3.3 3 5 C2.01 5.33 1.02 5.66 0 6 C0 4.02 0 2.04 0 0 Z " fill="#BEA367" transform="translate(72,128)"/>
<path d="M0 0 C2.0625 0.4375 2.0625 0.4375 4 1 C3.67 2.32 3.34 3.64 3 5 C2.01 5 1.02 5 0 5 C-0.5625 3.0625 -0.5625 3.0625 -1 1 C-0.67 0.67 -0.34 0.34 0 0 Z " fill="#C3A971" transform="translate(51,128)"/>
<path d="M0 0 C1.32 0.33 2.64 0.66 4 1 C3.67 2.32 3.34 3.64 3 5 C2.34 5 1.68 5 1 5 C0.67 5.66 0.34 6.32 0 7 C0 4.69 0 2.38 0 0 Z " fill="#C0A66C" transform="translate(34,115)"/>
<path d="M0 0 C0.99 0.33 1.98 0.66 3 1 C2.67 2.65 2.34 4.3 2 6 C1.01 5.67 0.02 5.34 -1 5 C-0.67 3.35 -0.34 1.7 0 0 Z " fill="#B273B6" transform="translate(109,73)"/>
<path d="M0 0 C1.98 0.495 1.98 0.495 4 1 C4 2.32 4 3.64 4 5 C2.35 4.67 0.7 4.34 -1 4 C-0.67 2.68 -0.34 1.36 0 0 Z " fill="#B15C96" transform="translate(136,524)"/>
<path d="M0 0 C1.98 0.495 1.98 0.495 4 1 C4 2.65 4 4.3 4 6 C2.35 6 0.7 6 -1 6 C-0.67 5.01 -0.34 4.02 0 3 C0 3.66 0 4.32 0 5 C0.66 5 1.32 5 2 5 C1.34 3.35 0.68 1.7 0 0 Z " fill="#3F3F3F" transform="translate(94,171)"/>
<path d="M0 0 C0.66 0.33 1.32 0.66 2 1 C2.625 4.0625 2.625 4.0625 3 7 C2.67 6.34 2.34 5.68 2 5 C1.01 5 0.02 5 -1 5 C-1.33 5.66 -1.66 6.32 -2 7 C-1.125 1.125 -1.125 1.125 0 0 Z " fill="#B49654" transform="translate(133,126)"/>
<path d="M0 0 C0.66 0 1.32 0 2 0 C2 2.31 2 4.62 2 7 C0.35 6.67 -1.3 6.34 -3 6 C-2.01 5.67 -1.02 5.34 0 5 C-0.33 4.01 -0.66 3.02 -1 2 C-0.67 1.34 -0.34 0.68 0 0 Z " fill="#D3BF91" transform="translate(121,126)"/>
<path d="M0 0 C1.32 0 2.64 0 4 0 C4 1.65 4 3.3 4 5 C2.68 4.67 1.36 4.34 0 4 C0 2.68 0 1.36 0 0 Z " fill="#BDA267" transform="translate(87,128)"/>
<path d="M0 0 C1.32 0.33 2.64 0.66 4 1 C4 2.32 4 3.64 4 5 C2.68 5 1.36 5 0 5 C0 3.35 0 1.7 0 0 Z " fill="#BFA46A" transform="translate(207,117)"/>
<path d="M0 0 C-0.66 1.32 -1.32 2.64 -2 4 C-3.32 3.34 -4.64 2.68 -6 2 C-6 1.34 -6 0.68 -6 0 C-3.50907189 -1.24546405 -2.58919267 -0.7767578 0 0 Z " fill="#5D5D5D" transform="translate(228,25)"/>
<path d="M0 0 C0.99 0.33 1.98 0.66 3 1 C3.33 2.65 3.66 4.3 4 6 C2.68 5.67 1.36 5.34 0 5 C0 3.35 0 1.7 0 0 Z " fill="#7E96A8" transform="translate(39,371)"/>
<path d="M0 0 C0.66 0 1.32 0 2 0 C2 2.31 2 4.62 2 7 C1.01 6.67 0.02 6.34 -1 6 C-1.042721 4.33388095 -1.04063832 2.66617115 -1 1 C-0.67 0.67 -0.34 0.34 0 0 Z " fill="#DBC89F" transform="translate(179,126)"/>
<path d="M0 0 C1.32 0 2.64 0 4 0 C2.63016497 3.16115776 2.0109362 3.9927092 -1 6 C-1.042721 4.33388095 -1.04063832 2.66617115 -1 1 C-0.67 0.67 -0.34 0.34 0 0 Z " fill="#62A83A" transform="translate(77,306)"/>
<path d="M0 0 C0.66 0 1.32 0 2 0 C2 2.64 2 5.28 2 8 C1.01 8.33 0.02 8.66 -1 9 C-1.08886184 5.80097361 -0.91058531 3.07322544 0 0 Z " fill="#E7D3CC" transform="translate(46,247)"/>
<path d="M0 0 C1.65 0 3.3 0 5 0 C4.34 1.32 3.68 2.64 3 4 C2.01 4 1.02 4 0 4 C0 2.68 0 1.36 0 0 Z " fill="#7E5253" transform="translate(54,243)"/>
<path d="M0 0 C1.32 0 2.64 0 4 0 C4 1.65 4 3.3 4 5 C2.68 5 1.36 5 0 5 C0 3.35 0 1.7 0 0 Z " fill="#4E4E4E" transform="translate(97,239)"/>
<path d="M0 0 C1.98 0.495 1.98 0.495 4 1 C3.34 1.66 2.68 2.32 2 3 C2.66 3.66 3.32 4.32 4 5 C2.35 4.67 0.7 4.34 -1 4 C-0.67 2.68 -0.34 1.36 0 0 Z " fill="#777777" transform="translate(30,203)"/>
<path d="M0 0 C0.99 0.33 1.98 0.66 3 1 C2.67 2.65 2.34 4.3 2 6 C1.01 5.67 0.02 5.34 -1 5 C-0.67 3.35 -0.34 1.7 0 0 Z " fill="#D17C8E" transform="translate(87,73)"/>
</svg>
