<?xml version="1.0" encoding="UTF-8"?>
<svg version="1.1" xmlns="http://www.w3.org/2000/svg" width="368" height="397">
<path d="M0 0 C1.06992188 0.01289063 2.13984375 0.02578125 3.2421875 0.0390625 C4.35335937 0.07257813 5.46453125 0.10609375 6.609375 0.140625 C7.73601562 0.15867188 8.86265625 0.17671875 10.0234375 0.1953125 C12.80294396 0.24242278 15.5807284 0.30819139 18.359375 0.390625 C17.61402983 5.16083411 16.14433392 8.63073454 14.359375 13.390625 C6.109375 13.390625 -2.140625 13.390625 -10.640625 13.390625 C-11.300625 15.700625 -11.960625 18.010625 -12.640625 20.390625 C-14.240625 24.190625 -14.240625 24.190625 -16.640625 25.390625 C-18.3054314 25.48102406 -19.97385921 25.50817757 -21.64111328 25.50415039 C-23.20250534 25.50403709 -23.20250534 25.50403709 -24.79544067 25.50392151 C-25.92255463 25.49876022 -27.04966858 25.49359894 -28.2109375 25.48828125 C-29.36230194 25.4868663 -30.51366638 25.48545135 -31.69992065 25.48399353 C-35.38851486 25.47838216 -39.07704905 25.4658277 -42.765625 25.453125 C-45.26171788 25.44811147 -47.7578117 25.44354831 -50.25390625 25.43945312 C-56.38283309 25.42840903 -62.51172476 25.4116598 -68.640625 25.390625 C-68.02232947 20.32060163 -66.77352867 17.36740024 -64.640625 12.390625 C-47.150625 12.060625 -29.660625 11.730625 -11.640625 11.390625 C-10.980625 9.080625 -10.320625 6.770625 -9.640625 4.390625 C-6.76914609 0.48130027 -4.76766629 -0.10143971 0 0 Z " fill="#FC5102" transform="translate(94.640625,179.609375)"/>
<path d="M0 0 C5.61 0 11.22 0 17 0 C14.25 9.625 14.25 9.625 12 13 C8.20040497 13.18435905 4.50159264 13.05539874 0.69921875 12.91015625 C-0.52152344 13.26980469 -1.74226563 13.62945312 -3 14 C-4.65 17.3 -6.3 20.6 -8 24 C-28.46 24 -48.92 24 -70 24 C-69 19 -69 19 -66 12 C-46.2 11.67 -26.4 11.34 -6 11 C-4.02 7.37 -2.04 3.74 0 0 Z " fill="#FC5102" transform="translate(89,198)"/>
<path d="M0 0 C1.98 0 3.96 0 6 0 C8.25433614 5.56069582 8.59961828 11.0785651 9 17 C9.66 17 10.32 17 11 17 C11.48210937 16.02417969 11.96421875 15.04835937 12.4609375 14.04296875 C13.09885158 12.75775951 13.73687831 11.47260618 14.375 10.1875 C14.69210938 9.54490234 15.00921875 8.90230469 15.3359375 8.24023438 C16.76458611 5.36805539 18.21785473 2.6732179 20 0 C23.625 -0.1875 23.625 -0.1875 27 0 C28.22694779 3.68084338 28.61050508 7.35391347 29.0625 11.1875 C29.15337891 11.93708984 29.24425781 12.68667969 29.33789062 13.45898438 C29.5613731 15.30565535 29.78105513 17.15278554 30 19 C33.61952708 13.11223596 36.95485458 7.203074 40 1 C41 0 41 0 44.5625 -0.0625 C45.696875 -0.041875 46.83125 -0.02125 48 0 C45.31030647 6.7679292 41.80754713 13.05705102 38.3125 19.4375 C37.70599609 20.55060547 37.09949219 21.66371094 36.47460938 22.81054688 C34.98584864 25.5418953 33.49424185 28.27164747 32 31 C29.36 31 26.72 31 24 31 C23.80083984 29.55367187 23.80083984 29.55367187 23.59765625 28.078125 C23.42105469 26.81484375 23.24445313 25.5515625 23.0625 24.25 C22.88847656 22.99703125 22.71445313 21.7440625 22.53515625 20.453125 C22.13950662 17.90017407 21.69553578 15.4813709 21 13 C20.52949219 13.88042969 20.05898437 14.76085937 19.57421875 15.66796875 C18.95160156 16.82941406 18.32898438 17.99085938 17.6875 19.1875 C16.76517578 20.91033203 16.76517578 20.91033203 15.82421875 22.66796875 C14.92123047 24.31732422 14.92123047 24.31732422 14 26 C13.505 26.9590625 13.01 27.918125 12.5 28.90625 C12.005 29.5971875 11.51 30.288125 11 31 C7.3125 31.3125 7.3125 31.3125 4 31 C1.14072272 20.99252953 -0.42505308 10.41380046 0 0 Z " fill="#5802AA" transform="translate(201,185)"/>
<path d="M0 0 C1.98684692 -0.36076355 1.98684692 -0.36076355 4.44970703 -0.34057617 C5.37051056 -0.34034958 6.29131409 -0.34012299 7.24002075 -0.33988953 C8.73382767 -0.31666374 8.73382767 -0.31666374 10.2578125 -0.29296875 C11.27600067 -0.28872391 12.29418884 -0.28447906 13.3432312 -0.28010559 C16.60408673 -0.26327579 19.86433041 -0.22561546 23.125 -0.1875 C25.33202234 -0.17245874 27.53905434 -0.15876937 29.74609375 -0.14648438 C35.16427223 -0.1133583 40.58209242 -0.06311653 46 0 C45.10136962 5.0408885 43.69129957 9.30870043 40 13 C38.05111694 13.24050903 38.05111694 13.24050903 35.64208984 13.22705078 C34.74130707 13.22689972 33.84052429 13.22674866 32.91244507 13.22659302 C31.93844757 13.21627045 30.96445007 13.20594788 29.9609375 13.1953125 C28.96494537 13.1924826 27.96895325 13.18965271 26.94277954 13.18673706 C23.75339882 13.1755184 20.56429622 13.15041081 17.375 13.125 C15.21614988 13.11497238 13.05729537 13.10584615 10.8984375 13.09765625 C5.59886301 13.07557361 0.29945137 13.04207958 -5 13 C-4.54803755 11.39402675 -4.08817673 9.79027492 -3.625 8.1875 C-3.36976562 7.29417969 -3.11453125 6.40085938 -2.8515625 5.48046875 C-2 3 -2 3 0 0 Z " fill="#BA3044" transform="translate(38,174)"/>
<path d="M0 0 C0.99 0.66 1.98 1.32 3 2 C3.66 1.34 4.32 0.68 5 0 C8.125 -0.125 8.125 -0.125 11 0 C10.24595285 8.44532805 8.62171958 16.68741223 7 25 C4.10259378 25.13539281 1.21154379 25.23426829 -1.6875 25.3125 C-2.50412109 25.35439453 -3.32074219 25.39628906 -4.16210938 25.43945312 C-8.67197805 25.53074601 -10.39474402 25.49250454 -14.01953125 22.54296875 C-14.99986328 21.28419922 -14.99986328 21.28419922 -16 20 C-16.33 19.67 -16.66 19.34 -17 19 C-17.5909343 14.39846241 -17.43208581 10.8807903 -15.375 6.6875 C-10.73251221 1.43415855 -7.12050994 -0.80609546 0 0 Z M-7.875 8.0625 C-10.31630624 11.43724686 -10.63306055 12.93032501 -10 17 C-8.06110754 19.35639408 -8.06110754 19.35639408 -4.5625 19.375 C-1.01134669 19.36261574 -1.01134669 19.36261574 0.875 17.25 C2.44165203 14.11669594 3.32986766 12.28281869 2.4375 8.8125 C1.04930731 6.74365814 1.04930731 6.74365814 -1.8125 5.9375 C-5.15785858 5.7018315 -5.15785858 5.7018315 -7.875 8.0625 Z " fill="#5802AC" transform="translate(261,191)"/>
<path d="M0 0 C1.06992188 0.01289063 2.13984375 0.02578125 3.2421875 0.0390625 C4.35335937 0.07257813 5.46453125 0.10609375 6.609375 0.140625 C7.73601562 0.15867188 8.86265625 0.17671875 10.0234375 0.1953125 C12.80294396 0.24242278 15.5807284 0.30819139 18.359375 0.390625 C17.61402983 5.16083411 16.14433392 8.63073454 14.359375 13.390625 C6.109375 13.390625 -2.140625 13.390625 -10.640625 13.390625 C-11.300625 15.700625 -11.960625 18.010625 -12.640625 20.390625 C-13.390625 22.765625 -13.390625 22.765625 -14.640625 24.390625 C-17.765625 25.140625 -17.765625 25.140625 -20.640625 25.390625 C-21.74291196 20.98147717 -21.71717036 16.90680099 -21.640625 12.390625 C-18.340625 12.060625 -15.040625 11.730625 -11.640625 11.390625 C-11.393125 10.318125 -11.145625 9.245625 -10.890625 8.140625 C-8.86211488 2.05509463 -6.44533585 -0.13713481 0 0 Z " fill="#5B03A9" transform="translate(94.640625,179.609375)"/>
<path d="M0 0 C3.0625 2 3.0625 2 5 5 C5 7.97 5 10.94 5 14 C-0.94 14 -6.88 14 -13 14 C-12.01 15.485 -12.01 15.485 -11 17 C-8.25373178 17.13288395 -5.72501077 17.1388213 -3 17 C-1.68 17 -0.36 17 1 17 C1.33 18.65 1.66 20.3 2 22 C-1.2603118 23.93773248 -3.72861936 24.27072187 -7.5 24.25 C-8.4384375 24.25515625 -9.376875 24.2603125 -10.34375 24.265625 C-13.10484076 23.98951592 -14.69312898 23.5176783 -17 22 C-20.11480331 17.32779504 -19.59212128 12.46972029 -19 7 C-14.99555146 -0.54684532 -7.80075998 -2.29434117 0 0 Z M-9 5 C-10.485 6.98 -10.485 6.98 -12 9 C-8.37 9 -4.74 9 -1 9 C-1.66 7.68 -2.32 6.36 -3 5 C-5.87413125 4.66602213 -5.87413125 4.66602213 -9 5 Z " fill="#5702AB" transform="translate(318,192)"/>
<path d="M0 0 C2.5625 0.125 2.5625 0.125 4.5625 1.125 C5.2225 0.795 5.8825 0.465 6.5625 0.125 C9.68548369 -0.0136653 12.55310837 0.27127188 15.5625 1.125 C18.1875 3.6875 18.1875 3.6875 19.5625 7.125 C19.46474631 10.0576106 19.18736538 12.3106457 18.5625 15.125 C18.30146484 16.47851562 18.30146484 16.47851562 18.03515625 17.859375 C17.56554793 20.28625595 17.07297429 22.70644222 16.5625 25.125 C14.2525 25.125 11.9425 25.125 9.5625 25.125 C10.2225 19.185 10.8825 13.245 11.5625 7.125 C5.92366339 6.46684846 5.92366339 6.46684846 3.79296875 8.671875 C2.19874863 11.85019321 1.55312718 14.88748879 0.875 18.375 C0.62363281 19.63828125 0.37226563 20.9015625 0.11328125 22.203125 C-0.06847656 23.16734375 -0.25023437 24.1315625 -0.4375 25.125 C-2.7475 25.125 -5.0575 25.125 -7.4375 25.125 C-5.77844143 0.29633033 -5.77844143 0.29633033 0 0 Z " fill="#5702AA" transform="translate(138.4375,190.875)"/>
<path d="M0 0 C5.61 0 11.22 0 17 0 C14.25 9.625 14.25 9.625 12 13 C10.24914242 13.08495285 8.49480896 13.15508107 6.74243164 13.11157227 C3.29161073 13.02916583 0.4001784 13.26243419 -3 14 C-5.77213031 17.00915261 -6.96664834 20.0732637 -8 24 C-10.31 24 -12.62 24 -15 24 C-16.13764351 19.73383684 -17 16.43513689 -17 12 C-15.91332031 12.08314453 -15.91332031 12.08314453 -14.8046875 12.16796875 C-11.5595032 12.18960331 -9.08869342 12.03380136 -6 11 C-3.12630004 7.50158266 -1.79841849 4.22871376 0 0 Z " fill="#5A02AA" transform="translate(89,198)"/>
<path d="M0 0 C2.31 0 4.62 0 7 0 C6.67 1.65 6.34 3.3 6 5 C7.98 5 9.96 5 12 5 C11.67 6.65 11.34 8.3 11 10 C9.02 10 7.04 10 5 10 C4.34 14.29 3.68 18.58 3 23 C4.98 23 6.96 23 9 23 C9.042721 24.66611905 9.04063832 26.33382885 9 28 C7.42102167 29.57897833 5.80637428 29.24543509 3.625 29.3125 C2.43777344 29.36857422 2.43777344 29.36857422 1.2265625 29.42578125 C-1 29 -1 29 -2.8046875 27.359375 C-4.364087 24.28134461 -4.13847512 22.34510238 -3.75 18.9375 C-3.64171875 17.89464844 -3.5334375 16.85179687 -3.421875 15.77734375 C-3 13 -3 13 -2 10 C-3.32 10 -4.64 10 -6 10 C-5.67 8.35 -5.34 6.7 -5 5 C-3.68 5 -2.36 5 -1 5 C-0.67 3.35 -0.34 1.7 0 0 Z " fill="#5902AB" transform="translate(331,187)"/>
<path d="M0 0 C1.98 0 3.96 0 6 0 C8.01554384 4.03108768 5.651415 9.49691487 4.75 13.75 C4.53214844 14.83539063 4.31429687 15.92078125 4.08984375 17.0390625 C1.9306984 27.36760576 1.9306984 27.36760576 -1 32 C-3.52475462 33.26237731 -5.31200466 33.09856404 -8.125 33.0625 C-9.03507813 33.05347656 -9.94515625 33.04445312 -10.8828125 33.03515625 C-11.58148438 33.02355469 -12.28015625 33.01195312 -13 33 C-13.33 32.34 -13.66 31.68 -14 31 C-13.0625 28.875 -13.0625 28.875 -12 27 C-9.69 27 -7.38 27 -5 27 C-4.79890625 25.29457031 -4.79890625 25.29457031 -4.59375 23.5546875 C-4.03021989 19.05239938 -3.29154371 14.59212785 -2.5 10.125 C-2.36980469 9.36703125 -2.23960937 8.6090625 -2.10546875 7.828125 C-1.12167325 2.2433465 -1.12167325 2.2433465 0 0 Z " fill="#5802AC" transform="translate(165,191)"/>
<path d="M0 0 C2.31 0 4.62 0 7 0 C5.46117491 11.09573878 3.25279563 22.0312912 1 33 C-1.31 33 -3.62 33 -6 33 C-5.44890325 25.45614428 -4.11104653 18.2442301 -2.4375 10.875 C-2.20353516 9.823125 -1.96957031 8.77125 -1.72851562 7.6875 C-1.15750875 5.12379565 -0.58126181 2.56139504 0 0 Z " fill="#5802AC" transform="translate(292,183)"/>
<path d="M0 0 C2.31 0 4.62 0 7 0 C4.69 10.89 2.38 21.78 0 33 C-2.31 33 -4.62 33 -7 33 C-2.05263158 2.05263158 -2.05263158 2.05263158 0 0 Z " fill="#5802AA" transform="translate(280,183)"/>
<path d="M0 0 C2.31 0 4.62 0 7 0 C6.4181676 7.14711654 5.33465406 14.09479725 3.9375 21.125 C3.6580957 22.55972656 3.6580957 22.55972656 3.37304688 24.0234375 C2.91940944 26.34978331 2.46167962 28.67523936 2 31 C-0.64 31 -3.28 31 -6 31 C-5.18780613 26.77077448 -4.37519146 22.54162993 -3.5625 18.3125 C-3.21735352 16.51522461 -3.21735352 16.51522461 -2.86523438 14.68164062 C-2.64287109 13.52470703 -2.42050781 12.36777344 -2.19140625 11.17578125 C-1.98717041 10.11270752 -1.78293457 9.04963379 -1.57250977 7.9543457 C-1.05829152 5.30080413 -0.53337702 2.64974848 0 0 Z " fill="#5802AB" transform="translate(123,185)"/>
<path d="M0 0 C1.4540625 0.0309375 1.4540625 0.0309375 2.9375 0.0625 C2.26932164 5.77120833 1.39915521 11.40759513 0.375 17.0625 C0.23642578 17.83722656 0.09785156 18.61195313 -0.04492188 19.41015625 C-0.38226121 21.29460355 -0.72211365 23.1786007 -1.0625 25.0625 C-3.3725 25.0625 -5.6825 25.0625 -8.0625 25.0625 C-6.6138062 0.13497564 -6.6138062 0.13497564 0 0 Z " fill="#5802AD" transform="translate(181.0625,190.9375)"/>
<path d="M0 0 C3.3 0 6.6 0 10 0 C10.33 4.29 10.66 8.58 11 13 C7.7 13 4.4 13 1 13 C-0.10228696 8.59085217 -0.07654536 4.51617599 0 0 Z " fill="#D63E28" transform="translate(63,192)"/>
<path d="M0 0 C2.31 0 4.62 0 7 0 C8.3271261 3.9813783 8.06915913 7.85045227 8 12 C6.02 12 4.04 12 2 12 C0.86235649 7.73383684 0 4.43513689 0 0 Z " fill="#AA2956" transform="translate(72,210)"/>
<path d="M0 0 C2.625 0.375 2.625 0.375 5 1 C5.625 3.375 5.625 3.375 6 6 C4 8 4 8 0.875 8.125 C-0.548125 8.063125 -0.548125 8.063125 -2 8 C-2.125 5.125 -2.125 5.125 -2 2 C-1.34 1.34 -0.68 0.68 0 0 Z " fill="#5501A6" transform="translate(168,181)"/>
<path d="M0 0 C1.875 0.75 1.875 0.75 2.875 1.75 C3 4.25 3 4.25 2.875 6.75 C1.875 7.75 1.875 7.75 -1.1875 7.8125 C-2.156875 7.791875 -3.12625 7.77125 -4.125 7.75 C-4.8125 5.4375 -4.8125 5.4375 -5.125 2.75 C-3.57413519 0.30126608 -2.92569791 -0.34419975 0 0 Z " fill="#5701AA" transform="translate(183.125,181.25)"/>
<path d="M0 0 C1.32 0 2.64 0 4 0 C4.33 4.29 4.66 8.58 5 13 C3.68 13 2.36 13 1 13 C-0.10228696 8.59085217 -0.07654536 4.51617599 0 0 Z " fill="#9D2265" transform="translate(69,192)"/>
<path d="M0 0 C0.99 0 1.98 0 3 0 C4.13764351 4.26616316 5 7.56486311 5 12 C3.35 12 1.7 12 0 12 C0 8.04 0 4.08 0 0 Z " fill="#D03B2E" transform="translate(69,210)"/>
<path d="M0 0 C0.99 0 1.98 0 3 0 C3.33 4.29 3.66 8.58 4 13 C3.01 13 2.02 13 1 13 C0.67 8.71 0.34 4.42 0 0 Z " fill="#BF3341" transform="translate(66,192)"/>
<path d="M0 0 C0.66 0 1.32 0 2 0 C3.3271261 3.9813783 3.06915913 7.85045227 3 12 C2.34 12 1.68 12 1 12 C-0.3271261 8.0186217 -0.06915913 4.14954773 0 0 Z " fill="#85177D" transform="translate(77,210)"/>
</svg>
