<?xml version="1.0" encoding="UTF-8"?>
<svg version="1.1" xmlns="http://www.w3.org/2000/svg" width="269" height="541">
<path d="M0 0 C88.77 0 177.54 0 269 0 C269 178.53 269 357.06 269 541 C180.23 541 91.46 541 0 541 C0 362.47 0 183.94 0 0 Z " fill="#FCFCFC" transform="translate(0,0)"/>
<path d="M0 0 C88.77 0 177.54 0 269 0 C269 178.53 269 357.06 269 541 C180.23 541 91.46 541 0 541 C0 362.47 0 183.94 0 0 Z M17.07421875 15.68359375 C16.61660156 16.26238281 16.15898437 16.84117188 15.6875 17.4375 C14.98173828 18.30181641 14.98173828 18.30181641 14.26171875 19.18359375 C11.40727345 23.29293451 10.75045275 26.16192147 10.75390434 31.20814896 C10.74992225 32.49103593 10.74594015 33.77392291 10.74183738 35.09568524 C10.74754352 36.52238871 10.75343471 37.94909144 10.75949097 39.37579346 C10.75861909 40.88892335 10.75686844 42.40205294 10.75431263 43.91518092 C10.7498316 48.07915804 10.75785316 52.24303267 10.76786876 56.40699673 C10.77649008 60.89503925 10.77358403 65.3830758 10.77206421 69.87112427 C10.77101452 77.64897282 10.77729987 85.42678787 10.78853989 93.20462799 C10.80478058 104.45013282 10.81000143 115.69562141 10.81251587 126.94113669 C10.81689522 145.18537636 10.83021083 163.42959816 10.84912109 181.67382812 C10.86747368 199.3984366 10.8816103 217.12304021 10.89013672 234.84765625 C10.89067271 235.95099037 10.89120871 237.05432448 10.89176095 238.19109297 C10.89591969 246.81964166 10.89983357 255.44819047 10.90367007 264.07673931 C10.92254405 306.38450927 10.96277909 348.69223452 11 391 C92.51 391 174.02 391 258 391 C258.08738617 326.29785741 258.08738617 326.29785741 258.14648438 261.59570312 C258.15235812 252.87703433 258.15841961 244.1583657 258.16479492 235.43969727 C258.16558617 234.34693224 258.16637741 233.25416721 258.16719264 232.12828809 C258.18024573 214.47920839 258.20390004 196.83015798 258.23145839 179.18109565 C258.25949858 161.07261496 258.27617333 142.96414961 258.28226548 124.8556481 C258.2863848 113.67892246 258.29940217 102.50227954 258.3237494 91.32557935 C258.33958947 83.66455563 258.34440428 76.00357476 258.34050413 68.34253585 C258.3385799 63.92045502 258.34155983 59.49851889 258.35761642 55.0764637 C258.37220961 51.0279119 258.37295618 46.97960219 258.36269668 42.93103928 C258.36142858 41.46658577 258.36523912 40.00211719 258.37464955 38.53769337 C258.62761303 26.97816829 258.62761303 26.97816829 253.3515625 17.07421875 C252.78179687 16.61660156 252.21203125 16.15898437 251.625 15.6875 C251.06039062 15.21699219 250.49578125 14.74648437 249.9140625 14.26171875 C245.82559029 11.56666462 242.24457432 10.75059966 237.38354492 10.77294922 C236.28278122 10.77310028 235.18201752 10.77325134 234.04789734 10.77340698 C232.8706459 10.78372955 231.69339447 10.79405212 230.48046875 10.8046875 C228.65990715 10.80893234 228.65990715 10.80893234 226.80256653 10.81326294 C222.93077689 10.82444692 219.05921959 10.8495487 215.1875 10.875 C212.56055022 10.88503208 209.93359681 10.89415754 207.30664062 10.90234375 C200.87101464 10.92438046 194.43552392 10.95784059 188 11 C187.81824219 11.62648438 187.63648438 12.25296875 187.44921875 12.8984375 C187.19785156 13.71570313 186.94648438 14.53296875 186.6875 15.375 C186.44386719 16.18710937 186.20023438 16.99921875 185.94921875 17.8359375 C185 20 185 20 182 22 C179.00653263 22.21066009 176.10482716 22.30408263 173.10986328 22.30639648 C171.74599991 22.31888176 171.74599991 22.31888176 170.35458374 22.33161926 C167.34311668 22.35575235 164.33186606 22.36449534 161.3203125 22.37109375 C159.22907444 22.38005741 157.13783705 22.3891792 155.04660034 22.39845276 C150.66012004 22.41495421 146.27371616 22.42264501 141.88720703 22.42553711 C136.26564931 22.43092272 130.64480956 22.46860555 125.02345467 22.51428127 C120.7031695 22.54401931 116.38305792 22.55125996 112.06267929 22.55226326 C109.99020982 22.55647186 107.91774012 22.56893167 105.84537125 22.58978081 C102.9460186 22.61662792 100.04833912 22.61188959 97.14892578 22.59936523 C96.29264587 22.61419952 95.43636597 22.62903381 94.55413818 22.64431763 C90.2310401 22.59112183 88.51165588 22.3946929 84.97897339 19.66957092 C82.76752362 16.6863969 82.2560835 14.67053018 82 11 C74.15297684 10.92379965 66.30604948 10.87133671 58.45874023 10.83520508 C55.79026928 10.82183639 53.12228282 10.79968395 50.45385742 10.77368164 C46.61370748 10.73720415 42.77388562 10.72025141 38.93359375 10.70703125 C37.74479111 10.69154739 36.55598846 10.67606354 35.3311615 10.66011047 C28.26066069 10.65868081 22.61384285 10.84063637 17.07421875 15.68359375 Z " fill="#F7F7F7" transform="translate(0,0)"/>
<path d="M0 0 C88.77 0 177.54 0 269 0 C269 178.53 269 357.06 269 541 C265.7 541 262.4 541 259 541 C259 495.13 259 449.26 259 402 C177.16 402 95.32 402 11 402 C11 447.87 11 493.74 11 541 C7.37 541 3.74 541 0 541 C0 362.47 0 183.94 0 0 Z M17.07421875 15.68359375 C16.61660156 16.26238281 16.15898437 16.84117188 15.6875 17.4375 C14.98173828 18.30181641 14.98173828 18.30181641 14.26171875 19.18359375 C11.40727345 23.29293451 10.75045275 26.16192147 10.75390434 31.20814896 C10.74992225 32.49103593 10.74594015 33.77392291 10.74183738 35.09568524 C10.74754352 36.52238871 10.75343471 37.94909144 10.75949097 39.37579346 C10.75861909 40.88892335 10.75686844 42.40205294 10.75431263 43.91518092 C10.7498316 48.07915804 10.75785316 52.24303267 10.76786876 56.40699673 C10.77649008 60.89503925 10.77358403 65.3830758 10.77206421 69.87112427 C10.77101452 77.64897282 10.77729987 85.42678787 10.78853989 93.20462799 C10.80478058 104.45013282 10.81000143 115.69562141 10.81251587 126.94113669 C10.81689522 145.18537636 10.83021083 163.42959816 10.84912109 181.67382812 C10.86747368 199.3984366 10.8816103 217.12304021 10.89013672 234.84765625 C10.89067271 235.95099037 10.89120871 237.05432448 10.89176095 238.19109297 C10.89591969 246.81964166 10.89983357 255.44819047 10.90367007 264.07673931 C10.92254405 306.38450927 10.96277909 348.69223452 11 391 C92.51 391 174.02 391 258 391 C258.08738617 326.29785741 258.08738617 326.29785741 258.14648438 261.59570312 C258.15235812 252.87703433 258.15841961 244.1583657 258.16479492 235.43969727 C258.16558617 234.34693224 258.16637741 233.25416721 258.16719264 232.12828809 C258.18024573 214.47920839 258.20390004 196.83015798 258.23145839 179.18109565 C258.25949858 161.07261496 258.27617333 142.96414961 258.28226548 124.8556481 C258.2863848 113.67892246 258.29940217 102.50227954 258.3237494 91.32557935 C258.33958947 83.66455563 258.34440428 76.00357476 258.34050413 68.34253585 C258.3385799 63.92045502 258.34155983 59.49851889 258.35761642 55.0764637 C258.37220961 51.0279119 258.37295618 46.97960219 258.36269668 42.93103928 C258.36142858 41.46658577 258.36523912 40.00211719 258.37464955 38.53769337 C258.62761303 26.97816829 258.62761303 26.97816829 253.3515625 17.07421875 C252.78179687 16.61660156 252.21203125 16.15898437 251.625 15.6875 C251.06039062 15.21699219 250.49578125 14.74648437 249.9140625 14.26171875 C245.82559029 11.56666462 242.24457432 10.75059966 237.38354492 10.77294922 C236.28278122 10.77310028 235.18201752 10.77325134 234.04789734 10.77340698 C232.8706459 10.78372955 231.69339447 10.79405212 230.48046875 10.8046875 C228.65990715 10.80893234 228.65990715 10.80893234 226.80256653 10.81326294 C222.93077689 10.82444692 219.05921959 10.8495487 215.1875 10.875 C212.56055022 10.88503208 209.93359681 10.89415754 207.30664062 10.90234375 C200.87101464 10.92438046 194.43552392 10.95784059 188 11 C187.81824219 11.62648438 187.63648438 12.25296875 187.44921875 12.8984375 C187.19785156 13.71570313 186.94648438 14.53296875 186.6875 15.375 C186.44386719 16.18710937 186.20023438 16.99921875 185.94921875 17.8359375 C185 20 185 20 182 22 C179.00653263 22.21066009 176.10482716 22.30408263 173.10986328 22.30639648 C171.74599991 22.31888176 171.74599991 22.31888176 170.35458374 22.33161926 C167.34311668 22.35575235 164.33186606 22.36449534 161.3203125 22.37109375 C159.22907444 22.38005741 157.13783705 22.3891792 155.04660034 22.39845276 C150.66012004 22.41495421 146.27371616 22.42264501 141.88720703 22.42553711 C136.26564931 22.43092272 130.64480956 22.46860555 125.02345467 22.51428127 C120.7031695 22.54401931 116.38305792 22.55125996 112.06267929 22.55226326 C109.99020982 22.55647186 107.91774012 22.56893167 105.84537125 22.58978081 C102.9460186 22.61662792 100.04833912 22.61188959 97.14892578 22.59936523 C96.29264587 22.61419952 95.43636597 22.62903381 94.55413818 22.64431763 C90.2310401 22.59112183 88.51165588 22.3946929 84.97897339 19.66957092 C82.76752362 16.6863969 82.2560835 14.67053018 82 11 C74.15297684 10.92379965 66.30604948 10.87133671 58.45874023 10.83520508 C55.79026928 10.82183639 53.12228282 10.79968395 50.45385742 10.77368164 C46.61370748 10.73720415 42.77388562 10.72025141 38.93359375 10.70703125 C37.74479111 10.69154739 36.55598846 10.67606354 35.3311615 10.66011047 C28.26066069 10.65868081 22.61384285 10.84063637 17.07421875 15.68359375 Z " fill="#000000" transform="translate(0,0)"/>
<path d="M0 0 C81.84 0 163.68 0 248 0 C248 17.16 248 34.32 248 52 C166.16 52 84.32 52 0 52 C0 34.84 0 17.68 0 0 Z " fill="#FEFEFE" transform="translate(11,489)"/>
<path d="M0 0 C2.16320801 -0.3742218 2.16320801 -0.3742218 4.87695312 -0.37231445 C5.89140503 -0.37854324 6.90585693 -0.38477203 7.9510498 -0.39118958 C9.5994989 -0.37737495 9.5994989 -0.37737495 11.28125 -0.36328125 C12.40567505 -0.36377975 13.5301001 -0.36427826 14.68859863 -0.36479187 C17.06927251 -0.3624482 19.44994871 -0.35270257 21.83056641 -0.33618164 C25.48492473 -0.31259729 29.13855374 -0.31561765 32.79296875 -0.32226562 C35.10156687 -0.31668896 37.41016191 -0.30957916 39.71875 -0.30078125 C40.81771606 -0.30169266 41.91668213 -0.30260406 43.0489502 -0.30354309 C44.0634021 -0.29401108 45.077854 -0.28447906 46.12304688 -0.2746582 C47.01858276 -0.27005081 47.91411865 -0.26544342 48.83679199 -0.26069641 C51 0 51 0 53 2 C53.44360072 4.95852109 53.32412652 7.94948451 53.3125 10.9375 C53.32861328 11.76185547 53.34472656 12.58621094 53.36132812 13.43554688 C53.36197266 14.22896484 53.36261719 15.02238281 53.36328125 15.83984375 C53.36626221 16.56550537 53.36924316 17.29116699 53.37231445 18.03881836 C52.88205931 20.62125743 52.05138173 21.3799789 50 23 C47.79919434 23.38768005 47.79919434 23.38768005 45.20898438 23.40405273 C44.2378772 23.41673691 43.26677002 23.42942108 42.26623535 23.44248962 C41.21931519 23.43955399 40.17239502 23.43661835 39.09375 23.43359375 C38.01750366 23.4388356 36.94125732 23.44407745 35.83239746 23.44947815 C33.55607975 23.45590394 31.27972885 23.4545542 29.00341797 23.44604492 C25.5133986 23.43753268 22.02501391 23.46629404 18.53515625 23.49804688 C16.32552133 23.49965883 14.11588349 23.49908147 11.90625 23.49609375 C10.85932983 23.50732773 9.81240967 23.51856171 8.73376465 23.53013611 C7.76265747 23.52075516 6.79155029 23.51137421 5.79101562 23.50170898 C4.93624634 23.50154282 4.08147705 23.50137665 3.20080566 23.50120544 C1 23 1 23 -0.7767334 21.20521545 C-2.6133333 17.89432765 -2.39534911 14.61931443 -2.3125 10.9375 C-2.31572266 10.21755859 -2.31894531 9.49761719 -2.32226562 8.75585938 C-2.28374156 4.98400291 -2.13773952 3.20660928 0 0 Z " fill="#FCF3EB" transform="translate(194,44)"/>
<path d="M0 0 C4.71237559 2.68052134 7.95035893 6.16357679 9.6875 11.375 C10.37576088 17.74359114 10.90346804 23.62522478 7 29 C2.26045892 34.29713415 -2.15625346 36.16803301 -9.125 36.625 C-14.16163807 36.52221147 -18.27495811 35.3141778 -22.01171875 31.7578125 C-26.79631121 26.35921665 -28.85248429 22.26412211 -28.69140625 14.97265625 C-27.85740639 9.25502833 -24.43829144 5.15694251 -20.1875 1.4375 C-14.24225207 -2.82756917 -6.62748454 -3.0365471 0 0 Z " fill="#ED4E17" transform="translate(232.3125,435.625)"/>
<path d="M0 0 C0.66 0 1.32 0 2 0 C2 5.61 2 11.22 2 17 C-0.31 16.34 -2.62 15.68 -5 15 C-4.67 15.99 -4.34 16.98 -4 18 C-2.02 18.33 -0.04 18.66 2 19 C2 19.66 2 20.32 2 21 C1.01 21 0.02 21 -1 21 C-0.505 21.515625 -0.01 22.03125 0.5 22.5625 C2.52701444 25.85639847 2.35173852 28.20122401 2 32 C-0.53054337 34.53054337 -1.43548882 34.25683229 -4.9375 34.265625 C-5.91460937 34.26820313 -6.89171875 34.27078125 -7.8984375 34.2734375 C-8.92195313 34.26570313 -9.94546875 34.25796875 -11 34.25 C-12.02351563 34.25773437 -13.04703125 34.26546875 -14.1015625 34.2734375 C-15.07867187 34.27085937 -16.05578125 34.26828125 -17.0625 34.265625 C-17.96097656 34.26336914 -18.85945313 34.26111328 -19.78515625 34.25878906 C-22 34 -22 34 -24 32 C-24.22705078 29.01904297 -24.22705078 29.01904297 -24.1953125 25.2421875 C-24.1924826 24.57913605 -24.18965271 23.91608459 -24.18673706 23.23294067 C-24.17553435 21.11344417 -24.15043051 18.99436896 -24.125 16.875 C-24.11497028 15.43880818 -24.10584441 14.00260975 -24.09765625 12.56640625 C-24.07729539 9.04397762 -24.0381494 5.52246083 -24 2 C-17.4 2 -10.8 2 -4 2 C-4 2.66 -4 3.32 -4 4 C-2.68 4 -1.36 4 0 4 C0 2.68 0 1.36 0 0 Z " fill="#D0BEB5" transform="translate(47,256)"/>
<path d="M0 0 C0.76376953 -0.01998047 1.52753906 -0.03996094 2.31445312 -0.06054688 C5.84036823 -0.05747819 7.99814643 0.10117697 11.06640625 1.9296875 C13.25730485 5.60215983 13.14757391 8.79947578 13.0625 13 C13.07796875 13.76763672 13.0934375 14.53527344 13.109375 15.32617188 C13.0870311 18.52972821 13.01749279 20.82807101 11.06640625 23.44140625 C7.36529035 24.91376905 3.94737874 24.87246018 0 24.8125 C-0.76763672 24.82410156 -1.53527344 24.83570313 -2.32617188 24.84765625 C-7.9213569 24.81838763 -7.9213569 24.81838763 -10.15454102 23.17041016 C-11.72161628 21.05374028 -11.82364284 19.92599375 -11.8359375 17.3125 C-11.83980469 16.52359375 -11.84367187 15.7346875 -11.84765625 14.921875 C-11.83605469 14.10203125 -11.82445313 13.2821875 -11.8125 12.4375 C-11.82410156 11.61765625 -11.83570312 10.7978125 -11.84765625 9.953125 C-11.84185547 8.76976562 -11.84185547 8.76976562 -11.8359375 7.5625 C-11.83255371 6.84320313 -11.82916992 6.12390625 -11.82568359 5.3828125 C-10.60817246 -0.71852632 -5.1049577 -0.04714906 0 0 Z " fill="#F8E8E9" transform="translate(42.4375,495.5625)"/>
<path d="M0 0 C6.47391168 0.26974632 10.3240573 2.55574815 15 7 C18.68188234 11.71741174 18.6166635 17.00263857 18.484375 22.796875 C17.56742457 28.86057943 14.21445852 32.23978938 9.5625 35.9375 C6.39483692 37.25092128 3.40101211 37.66656744 0 38 C0.33 34.37 0.66 30.74 1 27 C0.01 26.67 -0.98 26.34 -2 26 C-1.34 25.34 -0.68 24.68 0 24 C0.6425235 21.93125966 0.6425235 21.93125966 1 20 C2.32 20 3.64 20 5 20 C5 19.34 5 18.68 5 18 C3.68 18 2.36 18 1 18 C0.04380267 14.00204108 -0.1039592 10.29196078 -0.0625 6.1875 C-0.05347656 5.02605469 -0.04445312 3.86460937 -0.03515625 2.66796875 C-0.01775391 1.34732422 -0.01775391 1.34732422 0 0 Z " fill="#B8344E" transform="translate(224,434)"/>
<path d="M0 0 C2.875 1.3125 2.875 1.3125 5 4 C6.27062198 9.47280972 6.79409357 14.01876952 4 19 C3.61709538 20.99110401 3.27395385 22.99100513 3 25 C4.98 25 6.96 25 9 25 C9.125 27.875 9.125 27.875 9 31 C6.06853667 33.93146333 3.51559254 33.29161443 -0.49414062 33.32226562 C-1.46544922 33.31904297 -2.43675781 33.31582031 -3.4375 33.3125 C-4.40494141 33.32861328 -5.37238281 33.34472656 -6.36914062 33.36132812 C-7.29791016 33.36197266 -8.22667969 33.36261719 -9.18359375 33.36328125 C-10.03493896 33.36626221 -10.88628418 33.36924316 -11.76342773 33.37231445 C-14.48586811 32.91911921 -15.3788465 32.20305575 -17 30 C-17.1875 27.3125 -17.1875 27.3125 -17 25 C-13.92382812 24.70703125 -13.92382812 24.70703125 -10.84765625 24.4140625 C-10.23792969 24.27742188 -9.62820312 24.14078125 -9 24 C-8.67 23.34 -8.34 22.68 -8 22 C-7.01 21.67 -6.02 21.34 -5 21 C-5 19.35 -5 17.7 -5 16 C-5.99 16 -6.98 16 -8 16 C-8.33 14.68 -8.66 13.36 -9 12 C-7.68 12 -6.36 12 -5 12 C-5.66 9.69 -6.32 7.38 -7 5 C-9.12364481 4.77390663 -9.12364481 4.77390663 -10.625 6.5 C-11.07875 6.995 -11.5325 7.49 -12 8 C-11.62376963 5.36638744 -10.94785432 3.92779828 -9.375 1.75 C-6.04959852 -0.70029583 -4.04392486 -0.5675684 0 0 Z " fill="#D6C6C1" transform="translate(40,147)"/>
<path d="M0 0 C5.28 0 10.56 0 16 0 C15.67 0.66 15.34 1.32 15 2 C11.9375 2.625 11.9375 2.625 9 3 C9 4.32 9 5.64 9 7 C11.31 7 13.62 7 16 7 C16 7.66 16 8.32 16 9 C13.69 9 11.38 9 9 9 C8.67 10.32 8.34 11.64 8 13 C9.32 12.67 10.64 12.34 12 12 C12 12.66 12 13.32 12 14 C11.34 14 10.68 14 10 14 C10.66 14.61875 11.32 15.2375 12 15.875 C14 18 14 18 14 20 C14.66 20 15.32 20 16 20 C16.33 21.32 16.66 22.64 17 24 C13.30458414 24.95024979 10.69541586 24.95024979 7 24 C6.67 24.66 6.34 25.32 6 26 C6 25.01 6 24.02 6 23 C5.34 23 4.68 23 4 23 C4 22.34 4 21.68 4 21 C3.34 21 2.68 21 2 21 C2.66 24.3 3.32 27.6 4 31 C2.68 30.67 1.36 30.34 0 30 C0 20.1 0 10.2 0 0 Z " fill="#788890" transform="translate(23,258)"/>
<path d="M0 0 C0 0.66 0 1.32 0 2 C-0.99 2 -1.98 2 -3 2 C-2.505 2.515625 -2.01 3.03125 -1.5 3.5625 C0.52701444 6.85639847 0.35173852 9.20122401 0 13 C-2 15 -2 15 -4.24658203 15.22705078 C-5.15778809 15.21657715 -6.06899414 15.20610352 -7.0078125 15.1953125 C-7.99394531 15.18886719 -8.98007812 15.18242187 -9.99609375 15.17578125 C-11.54490234 15.15064453 -11.54490234 15.15064453 -13.125 15.125 C-14.16527344 15.11597656 -15.20554687 15.10695313 -16.27734375 15.09765625 C-18.85179092 15.07403747 -21.42578212 15.04110149 -24 15 C-23.34 14.67 -22.68 14.34 -22 14 C-22.495 12.9171875 -22.495 12.9171875 -23 11.8125 C-24.00603529 8.98302573 -24.16977402 6.97104534 -24 4 C-23.34 4 -22.68 4 -22 4 C-22 4.66 -22 5.32 -22 6 C-19.03 6.33 -16.06 6.66 -13 7 C-12.34 6.01 -11.68 5.02 -11 4 C-11 4.99 -11 5.98 -11 7 C-10.67 6.01 -10.34 5.02 -10 4 C-6.93487011 0.02668348 -4.94004823 -0.44909529 0 0 Z " fill="#9EB4C4" transform="translate(49,275)"/>
<path d="M0 0 C2.64 0 5.28 0 8 0 C7.26318638 3.14115279 6.44417208 6.10634638 5 9 C1.875 10.4375 1.875 10.4375 -1 11 C-1.33 11.66 -1.66 12.32 -2 13 C-8.27 13 -14.54 13 -21 13 C-20.01 10.03 -19.02 7.06 -18 4 C-12.39 4 -6.78 4 -1 4 C-0.67 2.68 -0.34 1.36 0 0 Z " fill="#B790DB" transform="translate(44,49)"/>
<path d="M0 0 C2.97922593 -0.02683987 5.95821295 -0.04676037 8.9375 -0.0625 C9.78763672 -0.07087891 10.63777344 -0.07925781 11.51367188 -0.08789062 C12.32255859 -0.09111328 13.13144531 -0.09433594 13.96484375 -0.09765625 C14.7137085 -0.10289307 15.46257324 -0.10812988 16.23413086 -0.11352539 C18 0 18 0 19 1 C19.15888092 3.28988781 19.25138073 5.58443441 19.31640625 7.87890625 C19.33718735 8.5655687 19.35796844 9.25223114 19.37937927 9.95970154 C19.44494143 12.16052935 19.50379015 14.36147975 19.5625 16.5625 C19.60567892 18.05144514 19.649293 19.54037773 19.69335938 21.02929688 C19.8006293 24.68606553 19.90187772 28.34297318 20 32 C19.67 32 19.34 32 19 32 C19 30.35 19 28.7 19 27 C17.02 27 15.04 27 13 27 C12.8428837 23.70055778 12.88627177 21.30104531 14.0625 18.1875 C15.31914045 13.91492247 15.14541966 10.29532373 14 6 C12.51869332 3.76391002 12.51869332 3.76391002 10 3 C6.14399755 2.58685688 3.90028661 2.44597747 0.5625 4.5 C0.046875 4.995 -0.46875 5.49 -1 6 C-0.67 4.02 -0.34 2.04 0 0 Z " fill="#D6D1CE" transform="translate(30,145)"/>
<path d="M0 0 C0.33 1.32 0.66 2.64 1 4 C1.66 4 2.32 4 3 4 C3.33 2.68 3.66 1.36 4 0 C8.95 0 13.9 0 19 0 C20 4 20 4 20 6 C20.33 6.99 20.66 7.98 21 9 C13.74 9 6.48 9 -1 9 C-0.67 6.03 -0.34 3.06 0 0 Z " fill="#DFDFDF" transform="translate(178,213)"/>
<path d="M0 0 C0.33 1.32 0.66 2.64 1 4 C1.66 4 2.32 4 3 4 C3.33 2.68 3.66 1.36 4 0 C8.95 0 13.9 0 19 0 C19.33 1.32 19.66 2.64 20 4 C19 5 19 5 16.4375 5.0625 C15.2309375 5.0315625 15.2309375 5.0315625 14 5 C15.12534105 6.35618499 15.12534105 6.35618499 18.0625 6.0625 C19.031875 6.041875 20.00125 6.02125 21 6 C21 6.99 21 7.98 21 9 C13.74 9 6.48 9 -1 9 C-0.67 6.03 -0.34 3.06 0 0 Z " fill="#DEDEDE" transform="translate(178,158)"/>
<path d="M0 0 C3.79366716 1.89683358 5.28827356 2.98483661 7.23046875 6.67578125 C9.0844262 12.27529741 9.34795794 18.95092909 6.94140625 24.39453125 C5.625 26.3125 5.625 26.3125 3 29 C2.34 29 1.68 29 1 29 C0.67 19.43 0.34 9.86 0 0 Z " fill="#8C2180" transform="translate(234,438)"/>
<path d="M0 0 C0.33 1.32 0.66 2.64 1 4 C1.66 4 2.32 4 3 4 C3.33 2.68 3.66 1.36 4 0 C4.721875 0.185625 5.44375 0.37125 6.1875 0.5625 C9.1472232 1.02290139 11.11630565 0.70143917 14 0 C16.15634036 0 17.92446352 0.4465236 20 1 C20 2.32 20 3.64 20 5 C19.34 5 18.68 5 18 5 C18 5.66 18 6.32 18 7 C18.99 7 19.98 7 21 7 C21 7.66 21 8.32 21 9 C15.85910079 9.90249856 11.30273626 9.97986395 6.0625 9.5625 C5.37865234 9.51029297 4.69480469 9.45808594 3.99023438 9.40429688 C2.32628831 9.27630102 0.6630527 9.13912281 -1 9 C-1 8.34 -1 7.68 -1 7 C0.32 6.67 1.64 6.34 3 6 C2.01 6 1.02 6 0 6 C0 4.02 0 2.04 0 0 Z " fill="#E5E5E5" transform="translate(178,323)"/>
<path d="M0 0 C2.9375 1.375 2.9375 1.375 5 4 C5.41250557 7.37408398 5.29033857 10.61916865 5 14 C4 12 3 10 2 8 C1.34 8 0.68 8 0 8 C0 8.99 0 9.98 0 11 C0.66 11.66 1.32 12.32 2 13 C1.67 13.99 1.34 14.98 1 16 C0.01 16 -0.98 16 -2 16 C-2 15.01 -2 14.02 -2 13 C-2.99 13.33 -3.98 13.66 -5 14 C-5 14.66 -5 15.32 -5 16 C-5.99 16 -6.98 16 -8 16 C-8.33 14.68 -8.66 13.36 -9 12 C-7.68 12 -6.36 12 -5 12 C-5.66 9.69 -6.32 7.38 -7 5 C-9.12364481 4.77390663 -9.12364481 4.77390663 -10.625 6.5 C-11.07875 6.995 -11.5325 7.49 -12 8 C-11.62376963 5.36638744 -10.94785432 3.92779828 -9.375 1.75 C-6.04959852 -0.70029583 -4.04392486 -0.5675684 0 0 Z " fill="#976A62" transform="translate(40,147)"/>
<path d="M0 0 C0.33 1.32 0.66 2.64 1 4 C1.66 4 2.32 4 3 4 C3.33 2.68 3.66 1.36 4 0 C7.3 0 10.6 0 14 0 C13.01 0.33 12.02 0.66 11 1 C11.99 1.33 12.98 1.66 14 2 C14 2.99 14 3.98 14 5 C11.03 5 8.06 5 5 5 C5.33 5.66 5.66 6.32 6 7 C9.96 7 13.92 7 18 7 C18 6.34 18 5.68 18 5 C17.01 5 16.02 5 15 5 C15.33 3.35 15.66 1.7 16 0 C17.32 0.33 18.64 0.66 20 1 C19.979375 1.763125 19.95875 2.52625 19.9375 3.3125 C19.87057159 6.10185786 19.87057159 6.10185786 21 9 C13.74 9 6.48 9 -1 9 C-0.67 6.03 -0.34 3.06 0 0 Z " fill="#DEDEDE" transform="translate(178,268)"/>
<path d="M0 0 C0.66 0 1.32 0 2 0 C3.82030133 5.46090399 3.51775065 11.34406771 3.75 17.0625 C3.81832031 18.36767578 3.88664063 19.67285156 3.95703125 21.01757812 C4.03244141 22.8825293 4.03244141 22.8825293 4.109375 24.78515625 C4.16061523 25.92863525 4.21185547 27.07211426 4.26464844 28.25024414 C4.17731445 29.15766357 4.08998047 30.06508301 4 31 C1 33 1 33 -2 33 C-2 27.39 -2 21.78 -2 16 C-1.67 16 -1.34 16 -1 16 C-0.67 10.72 -0.34 5.44 0 0 Z " fill="#A42760" transform="translate(232,437)"/>
<path d="M0 0 C5.28 0 10.56 0 16 0 C15.67 0.66 15.34 1.32 15 2 C11.9375 2.625 11.9375 2.625 9 3 C9 4.32 9 5.64 9 7 C11.31 7 13.62 7 16 7 C16 7.66 16 8.32 16 9 C13.69 9 11.38 9 9 9 C8.67 10.32 8.34 11.64 8 13 C9.32 12.67 10.64 12.34 12 12 C12 12.66 12 13.32 12 14 C11.34 14 10.68 14 10 14 C11.32 15.65 12.64 17.3 14 19 C11.37670952 18.63816683 10.23224076 18.25045572 8.40625 16.28125 C6.77335408 13.63232994 6.51549936 11.83559025 6.3125 8.75 C6.24675781 7.85796875 6.18101563 6.9659375 6.11328125 6.046875 C6.05720703 5.03367187 6.05720703 5.03367187 6 4 C5.01 4 4.02 4 3 4 C2.22157062 7.40562852 1.90021879 10.50765756 2 14 C2.66 14 3.32 14 4 14 C4 14.99 4 15.98 4 17 C2.68 17 1.36 17 0 17 C0 11.39 0 5.78 0 0 Z " fill="#7D807A" transform="translate(23,258)"/>
<path d="M0 0 C1.32 0.66 2.64 1.32 4 2 C4 3.98 4 5.96 4 8 C2.68 8 1.36 8 0 8 C0.33 9.32 0.66 10.64 1 12 C2.32 11.67 3.64 11.34 5 11 C5 12.98 5 14.96 5 17 C4.360625 17.103125 3.72125 17.20625 3.0625 17.3125 C2.0415625 17.6528125 2.0415625 17.6528125 1 18 C0.67 18.99 0.34 19.98 0 21 C-0.66 21 -1.32 21 -2 21 C-3.95021536 14.53991163 -4.22262303 8.7281627 -4 2 C-3.01 2.495 -3.01 2.495 -2 3 C-1.34 2.01 -0.68 1.02 0 0 Z " fill="#DFC0BA" transform="translate(31,151)"/>
<path d="M0 0 C1.79244141 0.01740234 1.79244141 0.01740234 3.62109375 0.03515625 C5.41740234 0.04869141 5.41740234 0.04869141 7.25 0.0625 C8.17683594 0.07410156 9.10367188 0.08570312 10.05859375 0.09765625 C11.18359375 2.41015625 11.18359375 2.41015625 12.05859375 5.09765625 C11.06859375 6.58265625 11.06859375 6.58265625 10.05859375 8.09765625 C7.0546875 8.42578125 7.0546875 8.42578125 3.49609375 8.34765625 C2.31917969 8.3321875 1.14226562 8.31671875 -0.0703125 8.30078125 C-2.94140625 8.09765625 -2.94140625 8.09765625 -3.94140625 7.09765625 C-4.06640625 4.09765625 -4.06640625 4.09765625 -3.94140625 1.09765625 C-2.94140625 0.09765625 -2.94140625 0.09765625 0 0 Z " fill="#C2C2C2" transform="translate(236.94140625,18.90234375)"/>
<path d="M0 0 C1.36125 0.12375 1.36125 0.12375 2.75 0.25 C2.75 0.91 2.75 1.57 2.75 2.25 C1.76 2.25 0.77 2.25 -0.25 2.25 C0.245 2.765625 0.74 3.28125 1.25 3.8125 C3.27701444 7.10639847 3.10173852 9.45122401 2.75 13.25 C0.75 15.25 0.75 15.25 -1.1953125 15.4453125 C-3.21354167 15.38020833 -5.23177083 15.31510417 -7.25 15.25 C-7.58 13.27 -7.91 11.29 -8.25 9.25 C-7.26 9.25 -6.27 9.25 -5.25 9.25 C-5.91 7.6 -6.57 5.95 -7.25 4.25 C-4.83923194 1.28290085 -3.90322061 0.30024774 0 0 Z " fill="#ADC0D0" transform="translate(46.25,274.75)"/>
<path d="M0 0 C1.32 0 2.64 0 4 0 C4 0.66 4 1.32 4 2 C5.32 2.33 6.64 2.66 8 3 C8 5.31 8 7.62 8 10 C6.68 10.33 5.36 10.66 4 11 C4 11.66 4 12.32 4 13 C2.68 13 1.36 13 0 13 C-0.66 12.34 -1.32 11.68 -2 11 C-2.66 10.67 -3.32 10.34 -4 10 C-4 7.69 -4 5.38 -4 3 C-2.68 2.67 -1.36 2.34 0 2 C0 1.34 0 0.68 0 0 Z " fill="#D1D1D1" transform="translate(226,502)"/>
<path d="M0 0 C5.28 0 10.56 0 16 0 C16.22786458 2.79947917 16.45572917 5.59895833 16.68359375 8.3984375 C16.84965626 10.97927613 16.84965626 10.97927613 18 13 C18.039992 14.99960012 18.04346799 17.00047242 18 19 C16.02 19 14.04 19 12 19 C12 13.39 12 7.78 12 2 C8.04 2 4.08 2 0 2 C0 1.34 0 0.68 0 0 Z " fill="#EAE8E7" transform="translate(11,153)"/>
<path d="M0 0 C-0.08746284 1.43861294 -0.19565348 2.87597508 -0.3125 4.3125 C-0.37050781 5.11300781 -0.42851562 5.91351563 -0.48828125 6.73828125 C-1.08824435 9.39002655 -1.85459027 10.36842915 -4 12 C-6.71871709 11.91504009 -7.76287435 11.22018811 -9.75 9.375 C-11.43754802 6.16865877 -11.20576047 3.56651486 -11 0 C-6.94952424 -1.35015859 -4.2079832 -0.62084998 0 0 Z " fill="#EAB160" transform="translate(223,212)"/>
<path d="M0 0 C0.33 0.33 0.66 0.66 1 1 C0.53846154 8.15384615 0.53846154 8.15384615 -1.3125 11.0625 C-3 12 -3 12 -5 11.9375 C-7.69196234 10.67564266 -8.6095378 9.64187818 -10 7 C-10.1875 3.25 -10.1875 3.25 -10 0 C-6.28523623 -1.23825459 -3.81171187 -0.70587257 0 0 Z " fill="#5BA533" transform="translate(222,157)"/>
<path d="M0 0 C0.66 0.33 1.32 0.66 2 1 C2.36630156 4.93774177 2.30233203 6.56539771 0 9.875 C-0.66 10.57625 -1.32 11.2775 -2 12 C-4.375 11.75 -4.375 11.75 -7 11 C-9.42363044 7.88390372 -9.17392151 4.82627315 -9 1 C-5.64406166 -1.11299821 -3.77811119 -1.09366377 0 0 Z " fill="#5BA533" transform="translate(221,322)"/>
<path d="M0 0 C0.66 0.33 1.32 0.66 2 1 C2.36630156 4.93774177 2.30233203 6.56539771 0 9.875 C-0.66 10.57625 -1.32 11.2775 -2 12 C-4.375 11.75 -4.375 11.75 -7 11 C-9.42363044 7.88390372 -9.17392151 4.82627315 -9 1 C-5.64406166 -1.11299821 -3.77811119 -1.09366377 0 0 Z " fill="#EAB05E" transform="translate(221,267)"/>
<path d="M0 0 C2.49361571 1.20381448 4.68143083 2.45428722 7 4 C6.67 6.97 6.34 9.94 6 13 C4.68 13 3.36 13 2 13 C2 11.68 2 10.36 2 9 C1.34 9 0.68 9 0 9 C0 10.32 0 11.64 0 13 C-1.32 13 -2.64 13 -4 13 C-5.14507772 7.80310881 -5.14507772 7.80310881 -5 5 C-2.5625 2 -2.5625 2 0 0 Z " fill="#C83939" transform="translate(42,502)"/>
<path d="M0 0 C1.81982071 2.72973106 3.08326247 4.86781344 4 8 C3.68804687 8.60457031 3.37609375 9.20914063 3.0546875 9.83203125 C1.76931 12.4741961 1.7981499 14.32969633 1.875 17.25 C1.90207031 18.58804688 1.90207031 18.58804688 1.9296875 19.953125 C1.95289063 20.62859375 1.97609375 21.3040625 2 22 C1.34 22 0.68 22 0 22 C0 20.68 0 19.36 0 18 C-1.32 17.67 -2.64 17.34 -4 17 C-3.34 17 -2.68 17 -2 17 C-2.33 16.34 -2.66 15.68 -3 15 C-3.99 14.67 -4.98 14.34 -6 14 C-6.73046875 12.15234375 -6.73046875 12.15234375 -7.1875 9.9375 C-7.34605469 9.20402344 -7.50460938 8.47054687 -7.66796875 7.71484375 C-7.77753906 7.14894531 -7.88710938 6.58304688 -8 6 C-6.68 6 -5.36 6 -4 6 C-4 6.99 -4 7.98 -4 9 C-3.01 9 -2.02 9 -1 9 C-1 8.01 -1 7.02 -1 6 C-1.66 5.34 -2.32 4.68 -3 4 C-2.67 3.01 -2.34 2.02 -2 1 C-1.34 0.67 -0.68 0.34 0 0 Z " fill="#BE9589" transform="translate(42,154)"/>
<path d="M0 0 C0.66 0 1.32 0 2 0 C2 3.96 2 7.92 2 12 C1.01 12 0.02 12 -1 12 C-1 12.66 -1 13.32 -1 14 C-1.66 14 -2.32 14 -3 14 C-3.15855469 13.43410156 -3.31710938 12.86820312 -3.48046875 12.28515625 C-4.18581705 10.06779058 -4.89153152 8.04806871 -6 6 C-8.57080135 4.86559222 -8.57080135 4.86559222 -11 5 C-10.67 6.65 -10.34 8.3 -10 10 C-11.65 9.67 -13.3 9.34 -15 9 C-15 7.68 -15 6.36 -15 5 C-8.5 2 -8.5 2 -4 2 C-4 2.66 -4 3.32 -4 4 C-2.68 4 -1.36 4 0 4 C0 2.68 0 1.36 0 0 Z " fill="#A29288" transform="translate(47,256)"/>
<path d="M0 0 C1.875 1.125 1.875 1.125 3 3 C2.875 6.0625 2.875 6.0625 2 9 C-1 11 -1 11 -3.5625 10.75 C-6 10 -6 10 -8 8 C-8.36487512 5.15397406 -8.40199375 3.6135694 -6.8125 1.1875 C-4.35092224 -0.42525784 -2.88934264 -0.4334014 0 0 Z " fill="#E29795" transform="translate(208,50)"/>
<path d="M0 0 C2.10448938 0.14109986 4.2085877 0.28804175 6.3125 0.4375 C7.48425781 0.51871094 8.65601562 0.59992188 9.86328125 0.68359375 C13 1 13 1 16 2 C16.33 1.34 16.66 0.68 17 0 C18.32 0 19.64 0 21 0 C21 1.98 21 3.96 21 6 C18.60385874 6.05425226 16.20896147 6.09379027 13.8125 6.125 C12.80219727 6.15013672 12.80219727 6.15013672 11.77148438 6.17578125 C7.71192193 6.21538674 4.65001185 5.80020002 1 4 C0.67 4.66 0.34 5.32 0 6 C0 4.02 0 2.04 0 0 Z " fill="#787878" transform="translate(69,276)"/>
<path d="M0 0 C0.99 0 1.98 0 3 0 C3 0.66 3 1.32 3 2 C4.65 2 6.3 2 8 2 C8 1.34 8 0.68 8 0 C9.32 0.33 10.64 0.66 12 1 C13 5.75 13 5.75 13 8 C8.05 8 3.1 8 -2 8 C-1.01 7.67 -0.02 7.34 1 7 C0.67 5.35 0.34 3.7 0 2 C-0.33 2.99 -0.66 3.98 -1 5 C-0.67 3.35 -0.34 1.7 0 0 Z " fill="#B8B8B8" transform="translate(99,501)"/>
<path d="M0 0 C6.27 0 12.54 0 19 0 C18.67 1.32 18.34 2.64 18 4 C11.73 4 5.46 4 -1 4 C-0.67 2.68 -0.34 1.36 0 0 Z " fill="#EC5C2F" transform="translate(24,58)"/>
<path d="M0 0 C2.4375 1.625 2.4375 1.625 4 4 C4 7.51359068 3.6312066 9.27528132 1.3125 11.9375 C-1.86221916 13.39615475 -3.69878201 13.00471852 -7 12 C-7.66 11.01 -8.32 10.02 -9 9 C-8.67 8.01 -8.34 7.02 -8 6 C-7.62875 6.66 -7.2575 7.32 -6.875 8 C-5.09105222 10.35303045 -5.09105222 10.35303045 -1.8125 10.25 C-0.4203125 10.12625 -0.4203125 10.12625 1 10 C1 8.02 1 6.04 1 4 C-0.98 3.34 -2.96 2.68 -5 2 C-5 2.99 -5 3.98 -5 5 C-6.32 5 -7.64 5 -9 5 C-9 3.68 -9 2.36 -9 1 C-5.68377419 -0.1054086 -3.47482175 -0.35457365 0 0 Z " fill="#C5C5C5" transform="translate(168,502)"/>
<path d="M0 0 C0.66 0 1.32 0 2 0 C2.89604368 6.04829486 3.11269443 11.8894576 3 18 C2.67 18 2.34 18 2 18 C2 16.35 2 14.7 2 13 C0.02 13 -1.96 13 -4 13 C-4.5497272 7.36529617 -2.95047835 4.61012242 0 0 Z " fill="#E5E1E1" transform="translate(47,159)"/>
<path d="M0 0 C0.33 0.66 0.66 1.32 1 2 C1.99 2 2.98 2 4 2 C5.23492611 5.70477834 5.43432922 9.1453282 5 13 C3.75 15.5 3.75 15.5 2 17 C0.68 17 -0.64 17 -2 17 C-2 16.34 -2 15.68 -2 15 C-0.68 15 0.64 15 2 15 C1.16666667 12.83333333 1.16666667 12.83333333 -1 12 C-1.14285714 3.42857143 -1.14285714 3.42857143 0 0 Z " fill="#A3A59E" transform="translate(25,260)"/>
<path d="M0 0 C0.33 0.66 0.66 1.32 1 2 C1.66 2 2.32 2 3 2 C3 1.34 3 0.68 3 0 C4.3921875 0.2784375 4.3921875 0.2784375 5.8125 0.5625 C9.01343771 1.24123881 9.01343771 1.24123881 12 0 C14.6875 0.9375 14.6875 0.9375 17 2 C17 2.99 17 3.98 17 5 C16.34 5 15.68 5 15 5 C14.67 5.66 14.34 6.32 14 7 C10.37 6.34 6.74 5.68 3 5 C3 4.34 3 3.68 3 3 C2.34 3 1.68 3 1 3 C0.67 3.66 0.34 4.32 0 5 C0 3.35 0 1.7 0 0 Z " fill="#948F8B" transform="translate(215,53)"/>
<path d="M0 0 C0 0.66 0 1.32 0 2 C1.32 1.67 2.64 1.34 4 1 C4 2.65 4 4.3 4 6 C3.67 5.34 3.34 4.68 3 4 C2.34 4 1.68 4 1 4 C1 4.66 1 5.32 1 6 C-3.71642039 6.96472235 -6.69492856 7.15253572 -11 5 C-10.67 3.68 -10.34 2.36 -10 1 C-9.34 1.33 -8.68 1.66 -8 2 C-7.38125 1.690625 -6.7625 1.38125 -6.125 1.0625 C-4 0 -4 0 0 0 Z " fill="#858585" transform="translate(83,220)"/>
<path d="M0 0 C2.375 -0.125 2.375 -0.125 5 0 C5.66 0.66 6.32 1.32 7 2 C6.625 5.125 6.625 5.125 6 8 C4.02 8.33 2.04 8.66 0 9 C-3 5.25 -3 5.25 -3 3 C-2.01 3 -1.02 3 0 3 C0 2.01 0 1.02 0 0 Z " fill="#F3F3F3" transform="translate(163,504)"/>
<path d="M0 0 C0.66 0 1.32 0 2 0 C1 3 1 3 0 4 C0.99 4 1.98 4 3 4 C3.33 2.68 3.66 1.36 4 0 C4.66 0 5.32 0 6 0 C6 0.66 6 1.32 6 2 C6.99 2 7.98 2 9 2 C9.33 1.34 9.66 0.68 10 0 C10.66 0 11.32 0 12 0 C12 2.31 12 4.62 12 7 C8.7 7 5.4 7 2 7 C2 6.34 2 5.68 2 5 C1.01 5 0.02 5 -1 5 C-1.33 5.66 -1.66 6.32 -2 7 C-1.125 1.125 -1.125 1.125 0 0 Z " fill="#707070" transform="translate(62,153)"/>
<path d="M0 0 C0.33 0.66 0.66 1.32 1 2 C2.32 2 3.64 2 5 2 C4.67 2.66 4.34 3.32 4 4 C3.34 3.67 2.68 3.34 2 3 C2 3.66 2 4.32 2 5 C2.99 5 3.98 5 5 5 C5 5.66 5 6.32 5 7 C2.69 7 0.38 7 -2 7 C-2 5.68 -2 4.36 -2 3 C-2.66 3 -3.32 3 -4 3 C-4 4.32 -4 5.64 -4 7 C-5.65 6.67 -7.3 6.34 -9 6 C-9 4.35 -9 2.7 -9 1 C-2.25 0 -2.25 0 0 0 Z " fill="#737373" transform="translate(80,208)"/>
<path d="M0 0 C2.31 0.33 4.62 0.66 7 1 C6.34 1.66 5.68 2.32 5 3 C4.85502015 5.58064129 4.81322455 8.04943884 4.875 10.625 C4.88853516 11.68460937 4.88853516 11.68460937 4.90234375 12.765625 C4.92592397 14.51056098 4.96179539 16.25532295 5 18 C3.68 18 2.36 18 1 18 C0.04380267 14.00204108 -0.1039592 10.29196078 -0.0625 6.1875 C-0.05347656 5.02605469 -0.04445312 3.86460937 -0.03515625 2.66796875 C-0.02355469 1.78753906 -0.01195312 0.90710938 0 0 Z " fill="#C94041" transform="translate(224,434)"/>
<path d="M0 0 C6.15234375 -0.09765625 6.15234375 -0.09765625 8 0 C9 1 9 1 9.0625 3.5625 C9.041875 4.366875 9.02125 5.17125 9 6 C8.2575 6.144375 7.515 6.28875 6.75 6.4375 C4.47972261 6.90187492 2.24240521 7.41863569 0 8 C-1.09658936 4.71023192 -0.79953138 3.28696233 0 0 Z " fill="#787878" transform="translate(76,154)"/>
<path d="M0 0 C0.66 0 1.32 0 2 0 C2 0.66 2 1.32 2 2 C4.64 2 7.28 2 10 2 C10 3.32 10 4.64 10 6 C7.92446352 6.5534764 6.15634036 7 4 7 C4 5.68 4 4.36 4 3 C3.34 3 2.68 3 2 3 C2 4.32 2 5.64 2 7 C0.02 7 -1.96 7 -4 7 C-4 5.35 -4 3.7 -4 2 C-2.68 2 -1.36 2 0 2 C0 1.34 0 0.68 0 0 Z " fill="#494949" transform="translate(79,318)"/>
<path d="M0 0 C0.928125 0.0825 1.85625 0.165 2.8125 0.25 C2.4825 0.91 2.1525 1.57 1.8125 2.25 C-1.25 2.875 -1.25 2.875 -4.1875 3.25 C-4.1875 4.57 -4.1875 5.89 -4.1875 7.25 C-1.8775 7.25 0.4325 7.25 2.8125 7.25 C2.8125 7.91 2.8125 8.57 2.8125 9.25 C0.5025 9.25 -1.8075 9.25 -4.1875 9.25 C-4.5175 10.57 -4.8475 11.89 -5.1875 13.25 C-3.8675 12.92 -2.5475 12.59 -1.1875 12.25 C-1.1875 12.91 -1.1875 13.57 -1.1875 14.25 C-1.8475 14.25 -2.5075 14.25 -3.1875 14.25 C-1.8675 15.9 -0.5475 17.55 0.8125 19.25 C-1.82465215 18.88625488 -2.96174341 18.492702 -4.80078125 16.515625 C-6.42286865 13.86545403 -6.59070327 12.33355701 -6.5625 9.25 C-6.57023437 8.404375 -6.57796875 7.55875 -6.5859375 6.6875 C-5.86963594 2.30541985 -4.46757449 0.350398 0 0 Z " fill="#705343" transform="translate(36.1875,257.75)"/>
<path d="M0 0 C1.98 0.99 1.98 0.99 4 2 C4.08078641 4.12438339 4.13909141 6.2496323 4.1875 8.375 C4.22230469 9.55835938 4.25710937 10.74171875 4.29296875 11.9609375 C4.19628906 12.96382813 4.09960938 13.96671875 4 15 C3.01 15.66 2.02 16.32 1 17 C0 16 0 16 -0.09765625 12.40234375 C-0.0909822 10.91403133 -0.07902183 9.42573568 -0.0625 7.9375 C-0.05798828 7.17888672 -0.05347656 6.42027344 -0.04882812 5.63867188 C-0.0370068 3.75908129 -0.01907078 1.87953101 0 0 Z " fill="#751597" transform="translate(238,445)"/>
<path d="M0 0 C0.66 0 1.32 0 2 0 C2.33 1.65 2.66 3.3 3 5 C3.45375 4.175 3.9075 3.35 4.375 2.5 C4.91125 1.675 5.4475 0.85 6 0 C6.66 0 7.32 0 8 0 C8.33 1.32 8.66 2.64 9 4 C9.99 2.68 10.98 1.36 12 0 C12.66 0.33 13.32 0.66 14 1 C12.68 3.64 11.36 6.28 10 9 C9.01 9 8.02 9 7 9 C6.67 7.35 6.34 5.7 6 4 C5.54625 4.825 5.0925 5.65 4.625 6.5 C4.08875 7.325 3.5525 8.15 3 9 C2.34 9 1.68 9 1 9 C0.67 6.03 0.34 3.06 0 0 Z " fill="#6F22B7" transform="translate(81,51)"/>
<path d="M0 0 C0 2.31 0 4.62 0 7 C-10 7 -10 7 -12 6 C-12.625 3.4375 -12.625 3.4375 -13 1 C-12.01 1.33 -11.02 1.66 -10 2 C-9.34 1.67 -8.68 1.34 -8 1 C-5.22543655 0.35971613 -2.85859638 0 0 0 Z " fill="#767676" transform="translate(82,165)"/>
<path d="M0 0 C0.99 0 1.98 0 3 0 C3 5.28 3 10.56 3 16 C1.68 16.33 0.36 16.66 -1 17 C-0.67 13.37 -0.34 9.74 0 6 C-0.99 5.67 -1.98 5.34 -3 5 C-1.6875 2.5 -1.6875 2.5 0 0 Z " fill="#C73A37" transform="translate(225,455)"/>
<path d="M0 0 C1.32 0.66 2.64 1.32 4 2 C4 3.98 4 5.96 4 8 C2.35 8 0.7 8 -1 8 C-1 8.66 -1 9.32 -1 10 C-1.99 10 -2.98 10 -4 10 C-4 7.36 -4 4.72 -4 2 C-3.01 2.495 -3.01 2.495 -2 3 C-1.34 2.01 -0.68 1.02 0 0 Z " fill="#D0B5AB" transform="translate(31,151)"/>
<path d="M0 0 C4.62 0 9.24 0 14 0 C13.34 1.32 12.68 2.64 12 4 C7.38 4 2.76 4 -2 4 C-1.34 2.68 -0.68 1.36 0 0 Z " fill="#C3485A" transform="translate(29,47)"/>
<path d="M0 0 C0.33 0 0.66 0 1 0 C1 8.58 1 17.16 1 26 C0.67 26 0.34 26 0 26 C-0.268125 24.741875 -0.53625 23.48375 -0.8125 22.1875 C-1.59532537 19.00551199 -2.25335928 16.99755689 -5 15 C-3.35 15.33 -1.7 15.66 0 16 C0 15.34 0 14.68 0 14 C-1.98 14 -3.96 14 -6 14 C-6.33 12.68 -6.66 11.36 -7 10 C-4.69 10.66 -2.38 11.32 0 12 C0 8.04 0 4.08 0 0 Z " fill="#E5E5E4" transform="translate(49,261)"/>
<path d="M0 0 C-0.1875 1.8125 -0.1875 1.8125 -1 4 C-3.72438476 6.19464328 -5.16271592 7.05841517 -8.6875 6.8125 C-11 6 -11 6 -13 4 C-9.86650268 2.95550089 -9.01031744 3.06576355 -6 4 C-6 3.01 -6 2.02 -6 1 C-6.66 1 -7.32 1 -8 1 C-8.33 1.66 -8.66 2.32 -9 3 C-9 2.01 -9 1.02 -9 0 C-5.67465243 -1.10844919 -3.37817425 -0.84454356 0 0 Z " fill="#F5F5F5" transform="translate(198,214)"/>
<path d="M0 0 C1.3303125 0.5259375 1.3303125 0.5259375 2.6875 1.0625 C6.11271029 2.03189914 7.63754517 1.84061371 11 1 C11.66 1.33 12.32 1.66 13 2 C13 3.32 13 4.64 13 6 C8.38 6 3.76 6 -1 6 C-1 1 -1 1 0 0 Z " fill="#C1C1C1" transform="translate(216,523)"/>
<path d="M0 0 C0.33 1.32 0.66 2.64 1 4 C1.66 4 2.32 4 3 4 C3.33 2.68 3.66 1.36 4 0 C4.7425 0.185625 5.485 0.37125 6.25 0.5625 C8.94990963 0.99203108 10.44631077 0.85122974 13 0 C12.01 0.495 12.01 0.495 11 1 C11.33 1.66 11.66 2.32 12 3 C12.66 3 13.32 3 14 3 C13.67 3.99 13.34 4.98 13 6 C12.278125 5.814375 11.55625 5.62875 10.8125 5.4375 C7.84314577 4.97560045 5.89664002 5.31395368 3 6 C2.01 6 1.02 6 0 6 C0 4.02 0 2.04 0 0 Z " fill="#CACACA" transform="translate(178,323)"/>
<path d="M0 0 C0.66 0 1.32 0 2 0 C2.33 0.99 2.66 1.98 3 3 C3.33 2.01 3.66 1.02 4 0 C4.66 0 5.32 0 6 0 C6 0.66 6 1.32 6 2 C6.99 2 7.98 2 9 2 C9 3.65 9 5.3 9 7 C5.37 7 1.74 7 -2 7 C-1.125 1.125 -1.125 1.125 0 0 Z " fill="#636363" transform="translate(62,318)"/>
<path d="M0 0 C1 3 1 3 1 5 C1.99 4.67 2.98 4.34 4 4 C4.73323796 1.98491642 4.73323796 1.98491642 5 0 C6.32 0 7.64 0 9 0 C9.042721 1.66611905 9.04063832 3.33382885 9 5 C8 6 8 6 5.05859375 6.09765625 C3.26615234 6.08025391 3.26615234 6.08025391 1.4375 6.0625 C-0.35880859 6.04896484 -0.35880859 6.04896484 -2.19140625 6.03515625 C-3.11824219 6.02355469 -4.04507813 6.01195312 -5 6 C-4.67 4.35 -4.34 2.7 -4 1 C-2.68 0.67 -1.36 0.34 0 0 Z M-2 3 C-2 3.66 -2 4.32 -2 5 C-1.34 5 -0.68 5 0 5 C0 4.34 0 3.68 0 3 C-0.66 3 -1.32 3 -2 3 Z " fill="#9C7168" transform="translate(40,173)"/>
<path d="M0 0 C0.99 0.33 1.98 0.66 3 1 C3 2.32 3 3.64 3 5 C4.32 5 5.64 5 7 5 C7 5.66 7 6.32 7 7 C5.68 7 4.36 7 3 7 C2.67 8.65 2.34 10.3 2 12 C1.34 12 0.68 12 0 12 C0 10.35 0 8.7 0 7 C-1.65 7 -3.3 7 -5 7 C-5 6.34 -5 5.68 -5 5 C-3.35 5 -1.7 5 0 5 C0 3.35 0 1.7 0 0 Z " fill="#F9ECEA" transform="translate(222,447)"/>
<path d="M0 0 C0.556875 0.61875 1.11375 1.2375 1.6875 1.875 C3.86133434 4.14083443 3.86133434 4.14083443 6.6875 5 C7.450625 5.33 8.21375 5.66 9 6 C9.8125 8.125 9.8125 8.125 10 10 C6.5657338 10.85856655 4.38317487 10.97591583 1 10 C0.63883954 8.5225254 0.28624952 7.04295325 -0.0625 5.5625 C-0.25972656 4.73878906 -0.45695312 3.91507812 -0.66015625 3.06640625 C-0.82837891 2.04353516 -0.82837891 2.04353516 -1 1 C-0.67 0.67 -0.34 0.34 0 0 Z " fill="#52636B" transform="translate(30,272)"/>
<path d="M0 0 C0.99 0.66 1.98 1.32 3 2 C3 2.99 3 3.98 3 5 C-0.96 5 -4.92 5 -9 5 C-8.67 3.68 -8.34 2.36 -8 1 C-5.22899606 -0.38550197 -3.0665294 -0.1877467 0 0 Z " fill="#B0B0B0" transform="translate(39,218)"/>
<path d="M0 0 C1.216875 0.33 2.43375 0.66 3.6875 1 C6.87210604 1.80322213 9.6972843 2.20641973 13 2 C12.67 3.32 12.34 4.64 12 6 C2 6 2 6 -1 5 C-0.67 3.35 -0.34 1.7 0 0 Z " fill="#C7C7C7" transform="translate(96,523)"/>
<path d="M0 0 C0.721875 0.144375 1.44375 0.28875 2.1875 0.4375 C3.5796875 0.7159375 3.5796875 0.7159375 5 1 C6.66666667 1.33333333 8.33333333 1.66666667 10 2 C10 3.65 10 5.3 10 7 C6.7 7 3.4 7 0 7 C0.33 6.34 0.66 5.68 1 5 C1.66 5.33 2.32 5.66 3 6 C3 5.34 3 4.68 3 4 C2.01 3.67 1.02 3.34 0 3 C0 2.01 0 1.02 0 0 Z " fill="#F7976E" transform="translate(220,118)"/>
<path d="M0 0 C0.9075 0.185625 1.815 0.37125 2.75 0.5625 C5.76942789 0.96896145 7.17174111 0.78020935 10 0 C10.99 0.33 11.98 0.66 13 1 C12.67 2.32 12.34 3.64 12 5 C8.37 5 4.74 5 1 5 C0.67 3.35 0.34 1.7 0 0 Z " fill="#8C8C8C" transform="translate(32,120)"/>
<path d="M0 0 C6.75 -0.125 6.75 -0.125 9 1 C11.09821215 0.60061233 11.09821215 0.60061233 13 0 C13 1.65 13 3.3 13 5 C8.71 5 4.42 5 0 5 C0 3.35 0 1.7 0 0 Z " fill="#585858" transform="translate(68,265)"/>
<path d="M0 0 C6.32258065 -0.36476427 6.32258065 -0.36476427 9.4375 1.3125 C11 3 11 3 11 6 C8.36 6 5.72 6 3 6 C3 5.01 3 4.02 3 3 C1.68 3 0.36 3 -1 3 C-0.67 2.01 -0.34 1.02 0 0 Z " fill="#312530" transform="translate(33,147)"/>
<path d="M0 0 C1.953125 0.18359375 1.953125 0.18359375 4 1 C5.046875 2.84765625 5.046875 2.84765625 5.75 5.0625 C5.99234375 5.79597656 6.2346875 6.52945313 6.484375 7.28515625 C6.65453125 7.85105469 6.8246875 8.41695312 7 9 C0.25 8.25 0.25 8.25 -2 6 C-1.44444444 1.44444444 -1.44444444 1.44444444 0 0 Z " fill="#BCBBBB" transform="translate(25,88)"/>
<path d="M0 0 C0.94875 0.04125 1.8975 0.0825 2.875 0.125 C2.545 2.435 2.215 4.745 1.875 7.125 C-0.105 7.125 -2.085 7.125 -4.125 7.125 C-4.75 4.75 -4.75 4.75 -5.125 2.125 C-3.125 0.125 -3.125 0.125 0 0 Z " fill="#9C67CD" transform="translate(99.125,52.875)"/>
<path d="M0 0 C0.99 0.33 1.98 0.66 3 1 C5.83967231 1 8.23735711 0.59732819 11 0 C11 1.98 11 3.96 11 6 C7.4780279 6.08004482 4.38018531 6.04005702 1 5 C0.67 3.35 0.34 1.7 0 0 Z " fill="#6E6E6E" transform="translate(69,331)"/>
<path d="M0 0 C0 2.31 0 4.62 0 7 C0.66 7.33 1.32 7.66 2 8 C1.34 8 0.68 8 0 8 C0 9.32 0 10.64 0 12 C-1.32 12 -2.64 12 -4 12 C-5.05226481 6.73867596 -5.05226481 6.73867596 -5 4 C-2 0 -2 0 0 0 Z " fill="#F2591F" transform="translate(42,503)"/>
<path d="M0 0 C1.32 0.33 2.64 0.66 4 1 C4 1.66 4 2.32 4 3 C4.66 3.33 5.32 3.66 6 4 C6 5.32 6 6.64 6 8 C6.66 8 7.32 8 8 8 C8 6.68 8 5.36 8 4 C9.65 4 11.3 4 13 4 C11.68 4.33 10.36 4.66 9 5 C8.67 6.65 8.34 8.3 8 10 C7.01 10 6.02 10 5 10 C4.67 8.68 4.34 7.36 4 6 C2.68 6 1.36 6 0 6 C0 4.02 0 2.04 0 0 Z M2 8 C2.66 8 3.32 8 4 8 C4 8.66 4 9.32 4 10 C3.34 10 2.68 10 2 10 C2 9.34 2 8.68 2 8 Z " fill="#A4766F" transform="translate(36,168)"/>
<path d="M0 0 C3.3 0.33 6.6 0.66 10 1 C10 2.65 10 4.3 10 6 C6.97580475 5.41196203 3.98241547 4.77321882 1 4 C0.67 4.66 0.34 5.32 0 6 C0 4.02 0 2.04 0 0 Z " fill="#939393" transform="translate(69,276)"/>
<path d="M0 0 C4.29 0 8.58 0 13 0 C12.67 1.65 12.34 3.3 12 5 C10.68 5 9.36 5 8 5 C8 4.34 8 3.68 8 3 C5.36 3 2.72 3 0 3 C0 2.01 0 1.02 0 0 Z " fill="#F3F3F1" transform="translate(35,255)"/>
<path d="M0 0 C1.98 0 3.96 0 6 0 C5.34 2.97 4.68 5.94 4 9 C3.34 7.68 2.68 6.36 2 5 C1.01 7.31 0.02 9.62 -1 12 C-1.99 11.67 -2.98 11.34 -4 11 C-3.34 11 -2.68 11 -2 11 C-1.34 7.37 -0.68 3.74 0 0 Z " fill="#965DCA" transform="translate(70,50)"/>
<path d="M0 0 C0 1.65 0 3.3 0 5 C-0.5775 4.835 -1.155 4.67 -1.75 4.5 C-4.26664369 3.85537969 -4.26664369 3.85537969 -8 4 C-9.66666667 4 -11.33333333 4 -13 4 C-12.67 3.01 -12.34 2.02 -12 1 C-8.32433144 -0.61729417 -3.92760325 -0.06546005 0 0 Z " fill="#D5D5D5" transform="translate(50,91)"/>
<path d="M0 0 C3.63 0 7.26 0 11 0 C11 1.32 11 2.64 11 4 C7.37 4 3.74 4 0 4 C0 2.68 0 1.36 0 0 Z " fill="#000000" transform="translate(235,21)"/>
<path d="M0 0 C1.37478516 0.01740234 1.37478516 0.01740234 2.77734375 0.03515625 C3.69644531 0.04417969 4.61554688 0.05320313 5.5625 0.0625 C6.27277344 0.07410156 6.98304688 0.08570313 7.71484375 0.09765625 C7.05484375 0.75765625 6.39484375 1.41765625 5.71484375 2.09765625 C6.37484375 2.09765625 7.03484375 2.09765625 7.71484375 2.09765625 C7.71484375 3.08765625 7.71484375 4.07765625 7.71484375 5.09765625 C4.41484375 5.09765625 1.11484375 5.09765625 -2.28515625 5.09765625 C-2.61515625 3.77765625 -2.94515625 2.45765625 -3.28515625 1.09765625 C-2.28515625 0.09765625 -2.28515625 0.09765625 0 0 Z " fill="#CFCFCF" transform="translate(184.28515625,212.90234375)"/>
<path d="M0 0 C2.97 0 5.94 0 9 0 C9 1.98 9 3.96 9 6 C6.03 5.67 3.06 5.34 0 5 C0 3.35 0 1.7 0 0 Z " fill="#7E7E7E" transform="translate(91,277)"/>
<path d="M0 0 C1.98 0 3.96 0 6 0 C6.33 2.31 6.66 4.62 7 7 C5.02 7 3.04 7 1 7 C0.67 4.69 0.34 2.38 0 0 Z " fill="#4B4F6B" transform="translate(23,172)"/>
<path d="M0 0 C1.37478516 0.01740234 1.37478516 0.01740234 2.77734375 0.03515625 C3.69644531 0.04417969 4.61554688 0.05320313 5.5625 0.0625 C6.27277344 0.07410156 6.98304688 0.08570313 7.71484375 0.09765625 C6.22984375 1.58265625 6.22984375 1.58265625 4.71484375 3.09765625 C5.70484375 2.76765625 6.69484375 2.43765625 7.71484375 2.09765625 C7.71484375 3.08765625 7.71484375 4.07765625 7.71484375 5.09765625 C4.41484375 5.09765625 1.11484375 5.09765625 -2.28515625 5.09765625 C-2.61515625 3.77765625 -2.94515625 2.45765625 -3.28515625 1.09765625 C-2.28515625 0.09765625 -2.28515625 0.09765625 0 0 Z " fill="#CFCFCF" transform="translate(184.28515625,157.90234375)"/>
<path d="M0 0 C1.32 0 2.64 0 4 0 C4 1.32 4 2.64 4 4 C4.99 4 5.98 4 7 4 C7 4.66 7 5.32 7 6 C2.61414671 6.70173653 -1.55790643 7.10834375 -6 7 C-6 6.01 -6 5.02 -6 4 C-2.62182575 3.15545644 -0.32534757 2.89155081 3 4 C3 3.01 3 2.02 3 1 C2.34 1 1.68 1 1 1 C0.67 1.66 0.34 2.32 0 3 C0 2.01 0 1.02 0 0 Z " fill="#F3F3F3" transform="translate(189,269)"/>
<path d="M0 0 C0.99 0 1.98 0 3 0 C3 0.66 3 1.32 3 2 C4.65 2 6.3 2 8 2 C8 1.34 8 0.68 8 0 C9.32 0.33 10.64 0.66 12 1 C12.33 2.65 12.66 4.3 13 6 C12.01 6.33 11.02 6.66 10 7 C10 5.68 10 4.36 10 3 C8.72125 3.020625 7.4425 3.04125 6.125 3.0625 C2.25 3.125 2.25 3.125 0 2 C-0.33 2.99 -0.66 3.98 -1 5 C-0.67 3.35 -0.34 1.7 0 0 Z " fill="#D8D8D8" transform="translate(99,501)"/>
<path d="M0 0 C-0.33 1.98 -0.66 3.96 -1 6 C-2.66611905 6.042721 -4.33382885 6.04063832 -6 6 C-7 5 -7 5 -7.0625 2.4375 C-7.041875 1.633125 -7.02125 0.82875 -7 0 C-4.3333581 -1.33332095 -2.83319697 -0.67102033 0 0 Z " fill="#8B4CC4" transform="translate(118,54)"/>
<path d="M0 0 C0.33 0.66 0.66 1.32 1 2 C2.98 2 4.96 2 7 2 C7 3.65 7 5.3 7 7 C4.69 7 2.38 7 0 7 C0 4.69 0 2.38 0 0 Z " fill="#616161" transform="translate(86,208)"/>
<path d="M0 0 C0.66 0 1.32 0 2 0 C2.33 0.66 2.66 1.32 3 2 C4.32 2 5.64 2 7 2 C7 3.65 7 5.3 7 7 C4.69 7 2.38 7 0 7 C0 4.69 0 2.38 0 0 Z " fill="#E28D85" transform="translate(231,118)"/>
<path d="M0 0 C0.99 0 1.98 0 3 0 C3 0.66 3 1.32 3 2 C3.99 2 4.98 2 6 2 C6 3.32 6 4.64 6 6 C4.02 6 2.04 6 0 6 C0 5.34 0 4.68 0 4 C-0.99 4.33 -1.98 4.66 -3 5 C-2.67 3.68 -2.34 2.36 -2 1 C-2 1.66 -2 2.32 -2 3 C-1.34 3 -0.68 3 0 3 C0 2.01 0 1.02 0 0 Z " fill="#C6C6C6" transform="translate(157,523)"/>
<path d="M0 0 C1.23556641 0.01740234 1.23556641 0.01740234 2.49609375 0.03515625 C3.32238281 0.04417969 4.14867188 0.05320312 5 0.0625 C5.63808594 0.07410156 6.27617188 0.08570313 6.93359375 0.09765625 C6.93359375 1.08765625 6.93359375 2.07765625 6.93359375 3.09765625 C4.62359375 3.09765625 2.31359375 3.09765625 -0.06640625 3.09765625 C-0.06640625 3.75765625 -0.06640625 4.41765625 -0.06640625 5.09765625 C-1.38640625 4.76765625 -2.70640625 4.43765625 -4.06640625 4.09765625 C-2.743743 0.12966649 -2.743743 0.12966649 0 0 Z " fill="#C1C1C1" transform="translate(102.06640625,509.90234375)"/>
<path d="M0 0 C1.4540625 0.0309375 1.4540625 0.0309375 2.9375 0.0625 C2.9375 0.7225 2.9375 1.3825 2.9375 2.0625 C1.9475 2.0625 0.9575 2.0625 -0.0625 2.0625 C0.4325 2.578125 0.9275 3.09375 1.4375 3.625 C3.43399241 6.86930017 3.15314385 9.32467334 2.9375 13.0625 C2.6075 13.0625 2.2775 13.0625 1.9375 13.0625 C1.6075 11.0825 1.2775 9.1025 0.9375 7.0625 C-0.3825 6.7325 -1.7025 6.4025 -3.0625 6.0625 C-3.44468767 4.40635343 -3.77645102 2.73792976 -4.0625 1.0625 C-3.0625 0.0625 -3.0625 0.0625 0 0 Z " fill="#B2C2CE" transform="translate(46.0625,274.9375)"/>
<path d="M0 0 C3.96 0 7.92 0 12 0 C12 0.99 12 1.98 12 3 C8.04 3 4.08 3 0 3 C0 2.01 0 1.02 0 0 Z " fill="#F7510A" transform="translate(26,53)"/>
<path d="M0 0 C2.02408755 0.09002398 4.04544287 0.24641038 6.0625 0.4375 C7.71958984 0.59025391 7.71958984 0.59025391 9.41015625 0.74609375 C10.26480469 0.82988281 11.11945313 0.91367187 12 1 C12 1.33 12 1.66 12 2 C8.37 2 4.74 2 1 2 C1 3.32 1 4.64 1 6 C4.63 6 8.26 6 12 6 C12 6.33 12 6.66 12 7 C7.71 7 3.42 7 -1 7 C-1 1 -1 1 0 0 Z " fill="#9F9F9F" transform="translate(234,19)"/>
<path d="M0 0 C0.33 1.32 0.66 2.64 1 4 C2.65 4.33 4.3 4.66 6 5 C6 7.31 6 9.62 6 12 C4 12 4 12 2.41796875 10.79296875 C0.6554843 8.56437271 0.51614215 7.12276172 0.3125 4.3125 C0.24675781 3.50425781 0.18101563 2.69601562 0.11328125 1.86328125 C0.07589844 1.24839844 0.03851563 0.63351562 0 0 Z " fill="#90A7BB" transform="translate(42,277)"/>
<path d="M0 0 C2.625 0.375 2.625 0.375 5 1 C4.67 2.65 4.34 4.3 4 6 C2.35 6 0.7 6 -1 6 C-1.625 4.125 -1.625 4.125 -2 2 C-1.34 1.34 -0.68 0.68 0 0 Z " fill="#EBB76B" transform="translate(61,276)"/>
<path d="M0 0 C1.65 0 3.3 0 5 0 C5.33 1.65 5.66 3.3 6 5 C4.35 5.33 2.7 5.66 1 6 C-0.0625 4.125 -0.0625 4.125 -1 2 C-0.67 1.34 -0.34 0.68 0 0 Z " fill="#6CAE48" transform="translate(60,221)"/>
<path d="M0 0 C1.2065625 0.0309375 1.2065625 0.0309375 2.4375 0.0625 C3.5625 3.8125 3.5625 3.8125 2.4375 6.0625 C0.7875 5.7325 -0.8625 5.4025 -2.5625 5.0625 C-3.125 3.125 -3.125 3.125 -3.5625 1.0625 C-2.5625 0.0625 -2.5625 0.0625 0 0 Z " fill="#6CAE48" transform="translate(62.5625,165.9375)"/>
<path d="M0 0 C2 2 2 2 2 6 C-0.31 6 -2.62 6 -5 6 C-5.33 4.35 -5.66 2.7 -6 1 C-3.125 0.375 -3.125 0.375 0 0 Z " fill="#BD80B4" transform="translate(245,119)"/>
<path d="M0 0 C2.125 0.375 2.125 0.375 4 1 C4.5625 2.9375 4.5625 2.9375 5 5 C4 6 4 6 1.4375 6.0625 C0.2309375 6.0315625 0.2309375 6.0315625 -1 6 C-1.625 4.125 -1.625 4.125 -2 2 C-1.34 1.34 -0.68 0.68 0 0 Z " fill="#6AAE47" transform="translate(61,331)"/>
<path d="M0 0 C1.98 0.66 3.96 1.32 6 2 C4.25 5.875 4.25 5.875 2 7 C0 5.625 0 5.625 -2 4 C-2 3.34 -2 2.68 -2 2 C-1.34 2 -0.68 2 0 2 C0 1.34 0 0.68 0 0 Z " fill="#B48972" transform="translate(35,270)"/>
<path d="M0 0 C0.33 1.32 0.66 2.64 1 4 C3.97 4 6.94 4 10 4 C10 4.99 10 5.98 10 7 C3.9453125 7.9765625 3.9453125 7.9765625 2 8 C0 6 0 6 -0.125 2.875 C-0.08375 1.92625 -0.0425 0.9775 0 0 Z " fill="#E8E8E8" transform="translate(178,158)"/>
<path d="M0 0 C0.66 0 1.32 0 2 0 C2.33 0.66 2.66 1.32 3 2 C3.99 2.33 4.98 2.66 6 3 C4.68 3.33 3.36 3.66 2 4 C2 4.99 2 5.98 2 7 C0.35 6.67 -1.3 6.34 -3 6 C-3 4.68 -3 3.36 -3 2 C-2.01 2 -1.02 2 0 2 C0 1.34 0 0.68 0 0 Z " fill="#797979" transform="translate(49,118)"/>
<path d="M0 0 C0.9075 0.165 1.815 0.33 2.75 0.5 C6.11087503 1.10137146 6.11087503 1.10137146 10 1 C9.67 1.66 9.34 2.32 9 3 C8.34 2.67 7.68 2.34 7 2 C6.67 2.99 6.34 3.98 6 5 C4.02 5 2.04 5 0 5 C0 3.35 0 1.7 0 0 Z " fill="#C7C7C7" transform="translate(164,524)"/>
<path d="M0 0 C0 2.31 0 4.62 0 7 C-4 7 -4 7 -5.75 5.5 C-6.1625 5.005 -6.575 4.51 -7 4 C-4.95178546 1.75671741 -3.30858805 0 0 0 Z " fill="#C5A197" transform="translate(36,168)"/>
<path d="M0 0 C0.99 0 1.98 0 3 0 C4.80230168 3.82989106 5.19622241 6.78121808 5 11 C4.01 11 3.02 11 2 11 C1.34 7.37 0.68 3.74 0 0 Z " fill="#E6D1CA" transform="translate(27,161)"/>
<path d="M0 0 C2.64 0 5.28 0 8 0 C7.67 1.32 7.34 2.64 7 4 C4.36 4 1.72 4 -1 4 C-0.67 2.68 -0.34 1.36 0 0 Z " fill="#6F22B7" transform="translate(44,49)"/>
<path d="M0 0 C2.97 0 5.94 0 9 0 C8.01 0.33 7.02 0.66 6 1 C6.99 1.33 7.98 1.66 9 2 C9 2.99 9 3.98 9 5 C5.7 5 2.4 5 -1 5 C-0.01 4.67 0.98 4.34 2 4 C2 3.01 2 2.02 2 1 C1.34 0.67 0.68 0.34 0 0 Z " fill="#C9C9C9" transform="translate(183,268)"/>
<path d="M0 0 C0 1.65 0 3.3 0 5 C-0.99 5 -1.98 5 -3 5 C-3 5.66 -3 6.32 -3 7 C-3.66 7 -4.32 7 -5 7 C-5.33 5.02 -5.66 3.04 -6 1 C-4 0 -4 0 0 0 Z " fill="#65685F" transform="translate(49,263)"/>
<path d="M0 0 C1.65 0 3.3 0 5 0 C4.34 1.32 3.68 2.64 3 4 C-2.28 4 -7.56 4 -13 4 C-12.67 3.34 -12.34 2.68 -12 2 C-8.04 2.33 -4.08 2.66 0 3 C0 2.01 0 1.02 0 0 Z " fill="#C57092" transform="translate(38,53)"/>
<path d="M0 0 C0.33 0.66 0.66 1.32 1 2 C1.66 2 2.32 2 3 2 C3 1.34 3 0.68 3 0 C5.97 0.495 5.97 0.495 9 1 C9 1.99 9 2.98 9 4 C7.02 4.33 5.04 4.66 3 5 C3 4.34 3 3.68 3 3 C2.34 3 1.68 3 1 3 C0.67 3.66 0.34 4.32 0 5 C0 3.35 0 1.7 0 0 Z " fill="#76716E" transform="translate(215,53)"/>
<path d="M0 0 C0.99 0.33 1.98 0.66 3 1 C2.34 2.98 1.68 4.96 1 7 C1.99 7.33 2.98 7.66 4 8 C1.625 8.125 1.625 8.125 -1 8 C-1.66 7.34 -2.32 6.68 -3 6 C-2.75 3.4375 -2.75 3.4375 -2 1 C-1.34 0.67 -0.68 0.34 0 0 Z " fill="#FDECE1" transform="translate(204,51)"/>
<path d="M0 0 C2.00720923 0.28674418 4.0085944 0.61866701 6 1 C6 2.32 6 3.64 6 5 C4.35 5 2.7 5 1 5 C0.34 3.68 -0.32 2.36 -1 1 C-0.67 0.67 -0.34 0.34 0 0 Z " fill="#D6D6D6" transform="translate(226,506)"/>
<path d="M0 0 C0 2.31 0 4.62 0 7 C-1.65 6.67 -3.3 6.34 -5 6 C-5 4.35 -5 2.7 -5 1 C-2 0 -2 0 0 0 Z " fill="#525252" transform="translate(216,20)"/>
<path d="M0 0 C0.99 0.33 1.98 0.66 3 1 C2.67 3.97 2.34 6.94 2 10 C0.68 10 -0.64 10 -2 10 C-1.855625 9.46375 -1.71125 8.9275 -1.5625 8.375 C-0.90546252 5.60084173 -0.44780052 2.81474612 0 0 Z " fill="#A63C7C" transform="translate(46,505)"/>
<path d="M0 0 C1.32 0 2.64 0 4 0 C4 2.31 4 4.62 4 7 C2.68 7 1.36 7 0 7 C0 4.69 0 2.38 0 0 Z " fill="#7B7B7B" transform="translate(86,153)"/>
<path d="M0 0 C0.33 0.66 0.66 1.32 1 2 C1.99 2 2.98 2 4 2 C4.33 1.34 4.66 0.68 5 0 C5.66 0 6.32 0 7 0 C7 2.31 7 4.62 7 7 C5.68 6.67 4.36 6.34 3 6 C3 5.01 3 4.02 3 3 C2.34 3 1.68 3 1 3 C0.67 3.99 0.34 4.98 0 6 C0 4.02 0 2.04 0 0 Z " fill="#5D5D5D" transform="translate(67,153)"/>
<path d="M0 0 C1.98 0 3.96 0 6 0 C6.625 1.8125 6.625 1.8125 7 4 C6.01 5.485 6.01 5.485 5 7 C5 5.02 5 3.04 5 1 C2.2160817 2.39195915 2.02101003 4.15575779 1 7 C0.34 7 -0.32 7 -1 7 C-0.67 4.69 -0.34 2.38 0 0 Z " fill="#7931BC" transform="translate(60,53)"/>
<path d="M0 0 C-0.33 1.32 -0.66 2.64 -1 4 C-3.64 4 -6.28 4 -9 4 C-9 3.01 -9 2.02 -9 1 C-5.8035914 -0.06546953 -3.34252724 -0.07427838 0 0 Z " fill="#E59691" transform="translate(48,524)"/>
<path d="M0 0 C0.66 0 1.32 0 2 0 C2 2.31 2 4.62 2 7 C0.35 7 -1.3 7 -3 7 C-3 6.34 -3 5.68 -3 5 C-3.66 5 -4.32 5 -5 5 C-4.67 4.01 -4.34 3.02 -4 2 C-4 2.66 -4 3.32 -4 4 C-2.68 4 -1.36 4 0 4 C0 2.68 0 1.36 0 0 Z " fill="#C5C3BE" transform="translate(47,256)"/>
<path d="M0 0 C1.65 1.65 3.3 3.3 5 5 C2.525 6.485 2.525 6.485 0 8 C-0.99 6.02 -1.98 4.04 -3 2 C-2.01 1.34 -1.02 0.68 0 0 Z " fill="#C94F5A" transform="translate(19,139)"/>
<path d="M0 0 C2.31 0 4.62 0 7 0 C7 1.65 7 3.3 7 5 C2.25 4.125 2.25 4.125 0 3 C0 2.01 0 1.02 0 0 Z " fill="#BCBCBC" transform="translate(230,525)"/>
<path d="M0 0 C0.33 1.32 0.66 2.64 1 4 C1.66 4 2.32 4 3 4 C3.33 2.68 3.66 1.36 4 0 C4.99 0 5.98 0 7 0 C7 1.32 7 2.64 7 4 C4.35261084 5.4606285 3.10551666 6 0 6 C0 4.02 0 2.04 0 0 Z " fill="#D7D7D7" transform="translate(178,323)"/>
<path d="M0 0 C2.0625 0.4375 2.0625 0.4375 4 1 C4 2.32 4 3.64 4 5 C2.68 5.33 1.36 5.66 0 6 C-0.38218767 4.34385343 -0.71395102 2.67542976 -1 1 C-0.67 0.67 -0.34 0.34 0 0 Z " fill="#D5D5D5" transform="translate(194,323)"/>
<path d="M0 0 C1.32 0 2.64 0 4 0 C4 1.65 4 3.3 4 5 C2.35 5.33 0.7 5.66 -1 6 C-0.67 4.02 -0.34 2.04 0 0 Z " fill="#2E2B3B" transform="translate(45,173)"/>
<path d="M0 0 C0.33 0 0.66 0 1 0 C1 2.31 1 4.62 1 7 C-0.65 7 -2.3 7 -4 7 C-4 5.35 -4 3.7 -4 2 C-2.68 2 -1.36 2 0 2 C0 1.34 0 0.68 0 0 Z " fill="#808080" transform="translate(79,318)"/>
<path d="M0 0 C3.625 -0.1875 3.625 -0.1875 7 0 C7 0.99 7 1.98 7 3 C4.03 3 1.06 3 -2 3 C-1.34 2.01 -0.68 1.02 0 0 Z " fill="#E7E6E3" transform="translate(25,255)"/>
<path d="M0 0 C1.65 0.33 3.3 0.66 5 1 C4.67 2.32 4.34 3.64 4 5 C2.68 4.67 1.36 4.34 0 4 C0 2.68 0 1.36 0 0 Z " fill="#B0B0B0" transform="translate(34,212)"/>
<path d="M0 0 C3.3 0 6.6 0 10 0 C6 2 6 2 3.375 3 C0.86923233 3.87923641 0.86923233 3.87923641 -1 6 C-0.67 4.02 -0.34 2.04 0 0 Z " fill="#D9D9DD" transform="translate(30,145)"/>
<path d="M0 0 C2.31 0 4.62 0 7 0 C6.67 1.65 6.34 3.3 6 5 C4.02 5 2.04 5 0 5 C0.66 4.67 1.32 4.34 2 4 C2 3.01 2 2.02 2 1 C1.34 0.67 0.68 0.34 0 0 Z " fill="#686868" transform="translate(38,120)"/>
<path d="M0 0 C0.66 0 1.32 0 2 0 C2 2.31 2 4.62 2 7 C0.35 6.67 -1.3 6.34 -3 6 C-1.125 1.125 -1.125 1.125 0 0 Z " fill="#707070" transform="translate(26,118)"/>
<path d="M0 0 C0.66 0.33 1.32 0.66 2 1 C0.68 3.64 -0.64 6.28 -2 9 C-2.99 9 -3.98 9 -5 9 C-4.5206753 4.68607774 -3.2542015 2.83430453 0 0 Z " fill="#813EC0" transform="translate(93,51)"/>
<path d="M0 0 C1.32 0 2.64 0 4 0 C4 2.31 4 4.62 4 7 C2.68 7 1.36 7 0 7 C0 4.69 0 2.38 0 0 Z " fill="#7D98AC" transform="translate(31,282)"/>
<path d="M0 0 C1.64826111 2.96687001 2.44271087 5.65626525 3 9 C1.68 8.67 0.36 8.34 -1 8 C-1.04241723 5.66705225 -1.04092937 3.33297433 -1 1 C-0.67 0.67 -0.34 0.34 0 0 Z " fill="#8199AB" transform="translate(24,280)"/>
<path d="M0 0 C0.66 0 1.32 0 2 0 C2 0.66 2 1.32 2 2 C3.32 2.33 4.64 2.66 6 3 C6 4.65 6 6.3 6 8 C5.01 7.67 4.02 7.34 3 7 C2.67 6.01 2.34 5.02 2 4 C1.01 4.495 1.01 4.495 0 5 C0 3.35 0 1.7 0 0 Z " fill="#9EB1BE" transform="translate(25,279)"/>
<path d="M0 0 C2.475 0.99 2.475 0.99 5 2 C5 3.32 5 4.64 5 6 C2.83125748 5.49396008 1.00032373 5.00016187 -1 4 C-0.67 2.68 -0.34 1.36 0 0 Z " fill="#696969" transform="translate(73,221)"/>
<path d="M0 0 C2.475 0.495 2.475 0.495 5 1 C4.67 2.32 4.34 3.64 4 5 C2.68 5 1.36 5 0 5 C0 3.35 0 1.7 0 0 Z " fill="#D4D4D4" transform="translate(193,213)"/>
<path d="M0 0 C0.99 0 1.98 0 3 0 C3.33 1.65 3.66 3.3 4 5 C1 6 1 6 -2 5 C-1.34 3.35 -0.68 1.7 0 0 Z " fill="#4D4D4D" transform="translate(45,23)"/>
<path d="M0 0 C2.31 0.66 4.62 1.32 7 2 C7.33 3.32 7.66 4.64 8 6 C6.35 5.67 4.7 5.34 3 5 C2.67 4.01 2.34 3.02 2 2 C1.34 2 0.68 2 0 2 C0 1.34 0 0.68 0 0 Z " fill="#9A857F" transform="translate(32,276)"/>
<path d="M0 0 C1.98 0.495 1.98 0.495 4 1 C3.67 2.32 3.34 3.64 3 5 C1.68 5 0.36 5 -1 5 C-0.67 3.35 -0.34 1.7 0 0 Z " fill="#D3D3D3" transform="translate(194,268)"/>
<path d="M0 0 C0.99 0 1.98 0 3 0 C3 1.65 3 3.3 3 5 C1.35 5.33 -0.3 5.66 -2 6 C-2 5.34 -2 4.68 -2 4 C-1.34 4 -0.68 4 0 4 C0 2.68 0 1.36 0 0 Z " fill="#E1E1E1" transform="translate(109,509)"/>
<path d="M0 0 C2.31 0 4.62 0 7 0 C7 0.99 7 1.98 7 3 C4.69 3 2.38 3 0 3 C0 2.01 0 1.02 0 0 Z " fill="#D7D5D2" transform="translate(35,255)"/>
<path d="M0 0 C1.32 0 2.64 0 4 0 C4.33 2.31 4.66 4.62 5 7 C4.01 7 3.02 7 2 7 C1.34 4.69 0.68 2.38 0 0 Z " fill="#CCA095" transform="translate(34,160)"/>
<path d="M0 0 C0.33 0.66 0.66 1.32 1 2 C2.32 2 3.64 2 5 2 C5 2.99 5 3.98 5 5 C4.236875 4.773125 3.47375 4.54625 2.6875 4.3125 C1.800625 4.209375 0.91375 4.10625 0 4 C-1.8354799 5.33378575 -1.8354799 5.33378575 -3 7 C-2.38722388 4.03824877 -1.74627478 2.61941217 0 0 Z " fill="#71585B" transform="translate(31,148)"/>
<path d="M0 0 C0.33 0.66 0.66 1.32 1 2 C1.66 2.33 2.32 2.66 3 3 C2.34 3 1.68 3 1 3 C1.33 4.98 1.66 6.96 2 9 C1.01 9 0.02 9 -1 9 C-1.33 6.69 -1.66 4.38 -2 2 C-1.34 2 -0.68 2 0 2 C0 1.34 0 0.68 0 0 Z " fill="#7A32BC" transform="translate(121,51)"/>
<path d="M0 0 C0 1.98 0 3.96 0 6 C-1.32 6 -2.64 6 -4 6 C-3.625 3.5625 -3.625 3.5625 -3 1 C-1 0 -1 0 0 0 Z " fill="#636363" transform="translate(87,331)"/>
<path d="M0 0 C2.97 0.495 2.97 0.495 6 1 C6 4.3 6 7.6 6 11 C5.67 11 5.34 11 5 11 C4.731875 9.741875 4.46375 8.48375 4.1875 7.1875 C3.40467463 4.00551199 2.74664072 1.99755689 0 0 Z " fill="#DAE4EB" transform="translate(44,276)"/>
<path d="M0 0 C1.65 0 3.3 0 5 0 C5 1.65 5 3.3 5 5 C2.525 4.01 2.525 4.01 0 3 C0 2.01 0 1.02 0 0 Z " fill="#EEE5E2" transform="translate(36,261)"/>
<path d="M0 0 C0.33 0 0.66 0 1 0 C1.125 6.625 1.125 6.625 0 10 C-0.66 10 -1.32 10 -2 10 C-1.85950482 8.52031676 -1.71245174 7.04125484 -1.5625 5.5625 C-1.48128906 4.73878906 -1.40007812 3.91507813 -1.31640625 3.06640625 C-1 1 -1 1 0 0 Z " fill="#8747C3" transform="translate(109,50)"/>
<path d="M0 0 C0.99 0.495 0.99 0.495 2 1 C2.99 0.67 3.98 0.34 5 0 C5 1.65 5 3.3 5 5 C3.68 5.33 2.36 5.66 1 6 C0.67 4.02 0.34 2.04 0 0 Z " fill="#3A3A3A" transform="translate(34,23)"/>
<path d="M0 0 C1.32 0 2.64 0 4 0 C4 1.65 4 3.3 4 5 C2.35 4.67 0.7 4.34 -1 4 C-0.67 2.68 -0.34 1.36 0 0 Z " fill="#4E4E4E" transform="translate(86,265)"/>
<path d="M0 0 C1.32 0 2.64 0 4 0 C4.33 1.65 4.66 3.3 5 5 C3.35 4.67 1.7 4.34 0 4 C0 2.68 0 1.36 0 0 Z " fill="#D7B5A4" transform="translate(32,261)"/>
<path d="M0 0 C1.32 0 2.64 0 4 0 C4 1.65 4 3.3 4 5 C2.35 4.67 0.7 4.34 -1 4 C-0.67 2.68 -0.34 1.36 0 0 Z " fill="#535353" transform="translate(66,210)"/>
<path d="M0 0 C1.32 0.66 2.64 1.32 4 2 C3.34 3.32 2.68 4.64 2 6 C1.01 6 0.02 6 -1 6 C-1.042721 4.33388095 -1.04063832 2.66617115 -1 1 C-0.67 0.67 -0.34 0.34 0 0 Z " fill="#D1D1D1" transform="translate(216,523)"/>
<path d="M0 0 C0.28875 0.639375 0.5775 1.27875 0.875 1.9375 C1.82823451 4.15206079 1.82823451 4.15206079 4 5 C4 5.66 4 6.32 4 7 C2.68 7 1.36 7 0 7 C-0.38133299 5.0085944 -0.71325582 3.00720923 -1 1 C-0.67 0.67 -0.34 0.34 0 0 Z " fill="#A6BAC8" transform="translate(27,282)"/>
<path d="M0 0 C0.99 0 1.98 0 3 0 C3 1.65 3 3.3 3 5 C1.35 4.67 -0.3 4.34 -2 4 C-2 3.34 -2 2.68 -2 2 C-1.34 2 -0.68 2 0 2 C0 1.34 0 0.68 0 0 Z " fill="#B6B8B1" transform="translate(46,268)"/>
<path d="M0 0 C0.33 0.66 0.66 1.32 1 2 C1.99 2 2.98 2 4 2 C4 3.32 4 4.64 4 6 C2.68 6 1.36 6 0 6 C0 4.02 0 2.04 0 0 Z " fill="#B9B8AD" transform="translate(25,260)"/>
<path d="M0 0 C0.33 0 0.66 0 1 0 C1.125 6.75 1.125 6.75 0 9 C-0.66 9 -1.32 9 -2 9 C-1.125 1.125 -1.125 1.125 0 0 Z " fill="#813EC0" transform="translate(57,51)"/>
<path d="M0 0 C0.33 0.66 0.66 1.32 1 2 C1.99 2.33 2.98 2.66 4 3 C3.67 4.32 3.34 5.64 3 7 C2.01 7 1.02 7 0 7 C0 4.69 0 2.38 0 0 Z " fill="#393939" transform="translate(91,318)"/>
<path d="M0 0 C1.20628008 2.33214148 2.1654738 4.49642139 3 7 C1.68 7 0.36 7 -1 7 C-1.04254356 5.00045254 -1.04080783 2.99958364 -1 1 C-0.67 0.67 -0.34 0.34 0 0 Z " fill="#A4B9CA" transform="translate(36,282)"/>
<path d="M0 0 C0.33 1.32 0.66 2.64 1 4 C1.66 4 2.32 4 3 4 C3 5.98 3 7.96 3 10 C2.34 9.67 1.68 9.34 1 9 C0.5859375 6.93359375 0.5859375 6.93359375 0.375 4.4375 C0.30023438 3.61121094 0.22546875 2.78492188 0.1484375 1.93359375 C0.09945312 1.29550781 0.05046875 0.65742188 0 0 Z " fill="#89A2B6" transform="translate(42,277)"/>
<path d="M0 0 C1.32 0 2.64 0 4 0 C3.67 1.32 3.34 2.64 3 4 C2.34 4 1.68 4 1 4 C0.67 4.66 0.34 5.32 0 6 C0 4.02 0 2.04 0 0 Z " fill="#5D5D5D" transform="translate(69,276)"/>
<path d="M0 0 C1.98 0 3.96 0 6 0 C5.67 0.66 5.34 1.32 5 2 C2.6859378 2.73075648 0.35171131 3.40138258 -2 4 C-1.34 2.68 -0.68 1.36 0 0 Z " fill="#5A453A" transform="translate(33,258)"/>
<path d="M0 0 C0.33 0.66 0.66 1.32 1 2 C3.01669827 3.13350534 3.01669827 3.13350534 5 4 C4.01 4 3.02 4 2 4 C2.33 4.99 2.66 5.98 3 7 C2.01 7 1.02 7 0 7 C0 4.69 0 2.38 0 0 Z " fill="#898989" transform="translate(86,208)"/>
<path d="M0 0 C-0.33 1.32 -0.66 2.64 -1 4 C-3.31 3.34 -5.62 2.68 -8 2 C-4.91190305 0.23537317 -3.76687864 0 0 0 Z " fill="#C7C4C6" transform="translate(44,145)"/>
<path d="M0 0 C1.32 0.33 2.64 0.66 4 1 C3.67 2.32 3.34 3.64 3 5 C2.01 4.67 1.02 4.34 0 4 C0 2.68 0 1.36 0 0 Z " fill="#D6D6D6" transform="translate(93,91)"/>
</svg>
