<svg width="24" height="27" viewBox="0 0 24 27" fill="none" xmlns="http://www.w3.org/2000/svg">
<path d="M0.625003 9.89297C0.586622 9.87587 0.554221 9.8477 0.531951 9.81207C0.509681 9.77643 0.498556 9.73497 0.500003 9.69297C0.499512 9.60099 0.520755 9.51019 0.562003 9.42797C1.82479 7.66262 3.50607 6.23836 5.455 5.28297C7.42066 4.30825 9.58698 3.80657 11.781 3.81797C13.9766 3.80716 16.1457 4.29761 18.123 5.25197C20.0863 6.19059 21.784 7.60472 23.062 9.36597C23.1151 9.43792 23.1426 9.52559 23.14 9.61497C23.1241 9.68716 23.086 9.75255 23.031 9.80197C23.0004 9.83263 22.9639 9.85671 22.9236 9.8727C22.8834 9.8887 22.8403 9.89628 22.797 9.89497C22.7438 9.89116 22.6922 9.87509 22.6462 9.84803C22.6003 9.82097 22.5612 9.78364 22.532 9.73897C21.3275 8.05293 19.7135 6.70145 17.842 5.81197C15.9521 4.90042 13.8793 4.43155 11.781 4.44097C9.69533 4.42842 7.63558 4.90338 5.766 5.82797C3.91548 6.73618 2.31168 8.07788 1.091 9.73897C1.03343 9.82328 0.951932 9.88841 0.857003 9.92597C0.778294 9.94501 0.695283 9.9332 0.625003 9.89297ZM15.49 25.568C13.4357 25.0798 11.5875 23.9566 10.208 22.358C8.81929 20.739 8.08094 18.6622 8.136 16.53C8.12757 16.0665 8.21915 15.6067 8.40449 15.1818C8.58982 14.757 8.86457 14.3771 9.21 14.068C9.91259 13.4265 10.8296 13.0708 11.781 13.0708C12.7324 13.0708 13.6494 13.4265 14.352 14.068C14.6976 14.377 14.9726 14.7568 15.1581 15.1817C15.3436 15.6066 15.4353 16.0664 15.427 16.53C15.4224 16.9097 15.5025 17.2858 15.6615 17.6307C15.8205 17.9756 16.0543 18.2808 16.346 18.524C16.9303 19.0532 17.6927 19.3425 18.481 19.334C19.2492 19.3413 19.9905 19.0514 20.55 18.525C20.834 18.2771 21.0606 17.9703 21.2139 17.6259C21.3673 17.2816 21.4438 16.9079 21.438 16.531C21.4598 15.3176 21.2158 14.1141 20.7231 13.0051C20.2304 11.896 19.501 10.9082 18.586 10.111C16.7336 8.40489 14.2949 7.47835 11.777 7.52397C9.25906 7.47835 6.8204 8.40489 4.968 10.111C4.0532 10.9083 3.32396 11.8961 2.83145 13.0052C2.33894 14.1143 2.09509 15.3177 2.117 16.531C2.12976 17.1834 2.18689 17.8343 2.288 18.479C2.43704 19.4108 2.68235 20.3247 3.02 21.206C3.04104 21.2414 3.05215 21.2818 3.05215 21.323C3.05215 21.3642 3.04104 21.4046 3.02 21.44C2.97554 21.4944 2.92292 21.5416 2.864 21.58C2.78211 21.6213 2.68822 21.6323 2.599 21.611C2.55249 21.5994 2.50969 21.5762 2.47469 21.5435C2.43968 21.5107 2.41363 21.4696 2.399 21.424C2.12903 20.6351 1.91549 19.8281 1.76 19.009C1.60444 18.1921 1.52609 17.3625 1.526 16.531C1.51367 15.2337 1.77993 13.9489 2.30679 12.7633C2.83366 11.5778 3.60886 10.5192 4.58 9.65897C6.51175 7.79875 9.0984 6.77415 11.78 6.80697C14.4778 6.75654 17.0888 7.76117 19.057 9.60697C20.0323 10.4728 20.8088 11.5394 21.3331 12.7335C21.8575 13.9276 22.1174 15.221 22.095 16.525C22.1016 16.9823 22.0104 17.4357 21.8276 17.855C21.6448 18.2742 21.3746 18.6496 21.035 18.956C20.3487 19.6135 19.4303 19.973 18.48 19.956C17.5108 19.9741 16.5723 19.6157 15.862 18.956C15.5146 18.6542 15.2371 18.2805 15.0487 17.8607C14.8603 17.4409 14.7655 16.9851 14.771 16.525C14.7791 16.143 14.7039 15.7639 14.5506 15.414C14.3972 15.0641 14.1694 14.7518 13.883 14.499C13.3137 13.9682 12.5613 13.678 11.783 13.689C10.9992 13.6788 10.2412 13.9686 9.664 14.499C9.37437 14.7498 9.14357 15.0614 8.98802 15.4116C8.83246 15.7617 8.75598 16.1419 8.764 16.525C8.70036 18.5124 9.40317 20.4483 10.727 21.932C12.0434 23.3804 13.738 24.4326 15.62 24.97C15.715 24.9903 15.7987 25.0461 15.854 25.126C15.8858 25.1942 15.8915 25.2718 15.87 25.344C15.8647 25.3868 15.851 25.4282 15.8295 25.4656C15.808 25.503 15.7793 25.5358 15.745 25.562C15.7068 25.5827 15.664 25.5936 15.6205 25.5936C15.577 25.5936 15.5342 25.5827 15.496 25.562L15.49 25.568ZM4.49 3.12997C4.45471 3.15006 4.41535 3.16194 4.37483 3.16471C4.33432 3.16748 4.2937 3.16107 4.256 3.14597C4.19952 3.11028 4.1517 3.06245 4.116 3.00597C4.0929 2.9807 4.07514 2.95102 4.0638 2.91871C4.05246 2.88641 4.04776 2.85214 4.05 2.81797C4.04858 2.78073 4.05709 2.74378 4.07467 2.71092C4.09224 2.67806 4.11824 2.65046 4.15 2.63097C5.32463 1.99113 6.5742 1.4997 7.87 1.16797C9.1475 0.837754 10.4615 0.669765 11.781 0.667972C13.1211 0.667161 14.4559 0.83515 15.754 1.16797C17.0431 1.49613 18.292 1.96564 19.478 2.56797C19.5212 2.57987 19.5602 2.60374 19.5905 2.63682C19.6207 2.66991 19.641 2.71086 19.649 2.75497C19.6608 2.83095 19.6441 2.90861 19.602 2.97297C19.558 3.03763 19.4994 3.09106 19.431 3.12897C19.3898 3.14926 19.3444 3.15982 19.2985 3.15982C19.2526 3.15982 19.2072 3.14926 19.166 3.12897C18.0195 2.56679 16.8186 2.12316 15.582 1.80497C14.3409 1.48374 13.064 1.32144 11.782 1.32197C10.5114 1.3199 9.24516 1.47167 8.011 1.77397C6.78448 2.07552 5.60207 2.53114 4.49 3.12997ZM8.666 25.23C7.52723 24.0758 6.57576 22.7508 5.846 21.303C5.14479 19.8131 4.79807 18.1812 4.833 16.535C4.81813 15.655 4.9927 14.782 5.34485 13.9754C5.697 13.1688 6.21851 12.4473 6.874 11.86C8.19756 10.6076 9.96015 9.92522 11.782 9.95997C13.6124 9.9288 15.3834 10.6101 16.721 11.86C17.3841 12.4429 17.9128 13.1627 18.2705 13.9699C18.6283 14.777 18.8065 15.6522 18.793 16.535C18.7992 16.5774 18.7954 16.6207 18.782 16.6614C18.7685 16.702 18.7457 16.739 18.7154 16.7693C18.6851 16.7997 18.6481 16.8225 18.6074 16.8359C18.5667 16.8494 18.5234 16.8532 18.481 16.847C18.3914 16.8514 18.3031 16.8238 18.232 16.769C18.1997 16.7396 18.1746 16.7033 18.1585 16.6627C18.1424 16.6222 18.1357 16.5785 18.139 16.535C18.1527 15.7328 17.9907 14.9373 17.6643 14.2043C17.338 13.4713 16.8553 12.8186 16.25 12.292C15.0359 11.1657 13.4338 10.5517 11.778 10.578C10.1308 10.5481 8.53708 11.1632 7.337 12.292C6.74089 12.8231 6.2666 13.4768 5.9466 14.2082C5.62661 14.9397 5.46846 15.7317 5.483 16.53C5.43892 18.0868 5.75335 19.633 6.402 21.049C7.11157 22.4295 8.03157 23.6913 9.129 24.789C9.16424 24.8167 9.19247 24.8523 9.21141 24.893C9.23034 24.9336 9.23945 24.9782 9.238 25.023C9.22448 25.0998 9.1862 25.17 9.129 25.223C9.07121 25.2736 9.00291 25.3109 8.929 25.332C8.87936 25.3457 8.82658 25.3426 8.77885 25.3233C8.73111 25.3039 8.6911 25.2694 8.665 25.225L8.666 25.23ZM18.202 22.955C16.4418 22.9798 14.7398 22.3251 13.45 21.127C12.7995 20.5534 12.2824 19.8444 11.9352 19.0497C11.5879 18.255 11.4189 17.394 11.44 16.527C11.4355 16.4373 11.4632 16.349 11.518 16.278C11.581 16.2181 11.6646 16.1847 11.7515 16.1847C11.8384 16.1847 11.922 16.2181 11.985 16.278C12.0398 16.349 12.0675 16.4373 12.063 16.527C12.0434 17.3146 12.1997 18.0967 12.5204 18.8163C12.8411 19.5359 13.3182 20.175 13.917 20.687C15.0881 21.7528 16.6185 22.3371 18.202 22.323C18.368 22.323 18.5653 22.3126 18.794 22.292C19.0227 22.2713 19.272 22.2403 19.542 22.199C19.5843 22.187 19.6288 22.185 19.672 22.1932C19.7152 22.2013 19.756 22.2194 19.791 22.246C19.8479 22.2901 19.8912 22.3494 19.916 22.417C19.9375 22.4892 19.9318 22.5667 19.9 22.635C19.8785 22.6697 19.8492 22.6991 19.8146 22.7208C19.7799 22.7424 19.7407 22.7558 19.7 22.76C19.3803 22.8545 19.0508 22.9119 18.718 22.931C18.4373 22.9416 18.266 22.947 18.204 22.947L18.202 22.955Z" fill="url(#paint0_linear_14_3939)" stroke="url(#paint1_linear_14_3939)"/>
<defs>
<linearGradient id="paint0_linear_14_3939" x1="0.499878" y1="13.1308" x2="23.1402" y2="13.1308" gradientUnits="userSpaceOnUse">
<stop stop-color="#FF5300"/>
<stop offset="0.16" stop-color="#FB5103"/>
<stop offset="0.31" stop-color="#F04C0F"/>
<stop offset="0.46" stop-color="#DE4322"/>
<stop offset="0.61" stop-color="#C5363C"/>
<stop offset="0.75" stop-color="#A4265F"/>
<stop offset="0.9" stop-color="#7C1389"/>
<stop offset="1" stop-color="#5B03AD"/>
</linearGradient>
<linearGradient id="paint1_linear_14_3939" x1="0.499878" y1="13.1308" x2="23.1402" y2="13.1308" gradientUnits="userSpaceOnUse">
<stop stop-color="#FF5300"/>
<stop offset="0.16" stop-color="#FB5103"/>
<stop offset="0.31" stop-color="#F04C0F"/>
<stop offset="0.46" stop-color="#DE4322"/>
<stop offset="0.61" stop-color="#C5363C"/>
<stop offset="0.75" stop-color="#A4265F"/>
<stop offset="0.9" stop-color="#7C1389"/>
<stop offset="1" stop-color="#5B03AD"/>
</linearGradient>
</defs>
</svg>
