<svg width="24" height="18" viewBox="0 0 24 18" fill="none" xmlns="http://www.w3.org/2000/svg">
<path d="M5.85197 17.4829C5.11435 17.4916 4.38279 17.349 3.7024 17.064C3.02201 16.779 2.40723 16.3577 1.89597 15.8259C1.36391 15.3146 0.942287 14.6997 0.657123 14.0192C0.371959 13.3386 0.229306 12.6068 0.237968 11.869C0.221496 10.5242 0.691326 9.21876 1.56097 8.19294C2.41496 7.14852 3.63244 6.46582 4.96897 6.28193C5.28611 4.61945 6.17519 3.12044 7.48197 2.04493C8.75792 0.964324 10.381 0.380576 12.053 0.400947C13.0039 0.381811 13.948 0.566377 14.8218 0.942206C15.6956 1.31804 16.4788 1.87645 17.119 2.57996C18.4634 3.98394 19.1985 5.8624 19.164 7.80598V8.44794C19.7641 8.41718 20.364 8.51182 20.9254 8.72584C21.4869 8.93985 21.9976 9.26853 22.425 9.69092C22.8638 10.1135 23.2094 10.6231 23.4397 11.1871C23.6699 11.7511 23.7797 12.357 23.762 12.9659C23.7682 13.5594 23.6528 14.1478 23.4229 14.6949C23.1929 15.242 22.8533 15.7361 22.425 16.1469C22.0142 16.5752 21.52 16.9149 20.9729 17.1448C20.4258 17.3748 19.8374 17.4902 19.244 17.484H12.802C12.5919 17.4847 12.3838 17.4423 12.1907 17.3596C11.9976 17.2769 11.8234 17.1555 11.679 17.0029C11.5264 16.8585 11.405 16.6844 11.3223 16.4912C11.2395 16.2981 11.1972 16.0901 11.198 15.88V8.97993L8.97897 11.2009L7.82997 10.0519L12 5.88196L16.17 10.0519L15.021 11.2009L12.802 8.98194V15.882H19.244C19.6272 15.8876 20.0075 15.8145 20.3615 15.6675C20.7154 15.5204 21.0355 15.3024 21.302 15.0269C21.5775 14.7605 21.7955 14.4404 21.9425 14.0865C22.0896 13.7325 22.1626 13.3522 22.157 12.9689C22.1626 12.5857 22.0896 12.2054 21.9425 11.8514C21.7955 11.4975 21.5775 11.1774 21.302 10.911C21.0355 10.6354 20.7154 10.4174 20.3615 10.2704C20.0075 10.1233 19.6272 10.0504 19.244 10.056H17.56V7.80097C17.5846 6.27717 17.0029 4.80595 15.943 3.71094C15.436 3.15796 14.8171 2.71935 14.1274 2.42432C13.4377 2.12929 12.693 1.98462 11.943 1.99995C11.1917 1.98588 10.4459 2.13107 9.75472 2.42597C9.06356 2.72088 8.44269 3.15881 7.93297 3.71094C7.40443 4.25116 6.98816 4.89071 6.70822 5.59272C6.42828 6.29473 6.2902 7.0453 6.30197 7.80097H5.79797C5.27525 7.7913 4.75616 7.88955 4.27317 8.08967C3.79018 8.28978 3.35368 8.58741 2.99097 8.96393C2.61474 9.34016 2.31889 9.78892 2.12138 10.283C1.92386 10.777 1.8288 11.3061 1.84197 11.838C1.83474 12.3673 1.93507 12.8925 2.13687 13.3819C2.33868 13.8713 2.63775 14.3146 3.01597 14.6849C3.381 15.068 3.82127 15.3714 4.30913 15.5762C4.797 15.781 5.32192 15.8827 5.85097 15.8749H9.59297V17.4749L5.85197 17.4829Z" fill="url(#paint0_linear_14_3956)"/>
<defs>
<linearGradient id="paint0_linear_14_3956" x1="0.237549" y1="8.9419" x2="23.7638" y2="8.9419" gradientUnits="userSpaceOnUse">
<stop stop-color="#FF5300"/>
<stop offset="0.16" stop-color="#FB5103"/>
<stop offset="0.31" stop-color="#F04C0F"/>
<stop offset="0.46" stop-color="#DE4322"/>
<stop offset="0.61" stop-color="#C5363C"/>
<stop offset="0.75" stop-color="#A4265F"/>
<stop offset="0.9" stop-color="#7C1389"/>
<stop offset="1" stop-color="#5B03AD"/>
</linearGradient>
</defs>
</svg>
