<svg xmlns="http://www.w3.org/2000/svg" width="41" height="41" viewBox="0 0 41 41">
  <g id="Group_58174" data-name="Group 58174" transform="translate(-34 -456)">
    <circle id="Ellipse_1228" data-name="Ellipse 1228" cx="20.5" cy="20.5" r="20.5" transform="translate(34 456)" fill="#eaf7e1"/>
    <path id="cloud_done_FILL0_wght300_GRAD0_opsz24" d="M68.852-767.843l5.3-5.3-1.085-1.085L68.837-770l-2.12-2.12-1.069,1.069ZM65-765a4.858,4.858,0,0,1-3.537-1.441A4.743,4.743,0,0,1,60-769.951a5,5,0,0,1,1.175-3.264,4.6,4.6,0,0,1,3-1.691,6.25,6.25,0,0,1,2.255-3.668A6.321,6.321,0,0,1,70.5-780a6.271,6.271,0,0,1,4.607,1.894A6.271,6.271,0,0,1,77-773.5v.5h.308a3.865,3.865,0,0,1,2.637,1.271A3.9,3.9,0,0,1,81-769a3.86,3.86,0,0,1-1.164,2.837A3.86,3.86,0,0,1,77-765Zm0-1.5H77a2.414,2.414,0,0,0,1.775-.725A2.414,2.414,0,0,0,79.5-769a2.414,2.414,0,0,0-.725-1.775A2.414,2.414,0,0,0,77-771.5H75.5v-2a4.82,4.82,0,0,0-1.463-3.538A4.82,4.82,0,0,0,70.5-778.5a4.82,4.82,0,0,0-3.538,1.463A4.82,4.82,0,0,0,65.5-773.5H65a3.373,3.373,0,0,0-2.475,1.025A3.373,3.373,0,0,0,61.5-770a3.373,3.373,0,0,0,1.025,2.475A3.373,3.373,0,0,0,65-766.5ZM70.5-772.5Z" transform="translate(-16.003 1248.998)" fill="#179f22"/>
  </g>
</svg>
