<svg xmlns="http://www.w3.org/2000/svg" xmlns:xlink="http://www.w3.org/1999/xlink" width="36" height="36" viewBox="0 0 36 36">
  <defs>
    <linearGradient id="linear-gradient" x1="0.5" x2="0.5" y2="0.942" gradientUnits="objectBoundingBox">
      <stop offset="0" stop-color="#f59b4b"/>
      <stop offset="1" stop-color="#e86e04"/>
    </linearGradient>
  </defs>
  <g id="help_icon" transform="translate(-266 -71)">
    <g id="question_mark_black_24dp" transform="translate(274.836 78.836)">
      <g id="Group_57355" data-name="Group 57355">
        <rect id="Rectangle_6977" data-name="Rectangle 6977" width="18" height="18" transform="translate(0.164 0.164)" fill="none"/>
      </g>
    </g>
    <rect id="Rectangle_6981" data-name="Rectangle 6981" width="36" height="36" rx="8" transform="translate(266 71)" fill="#ffa85a" opacity="0.1"/>
    <path id="more_horiz_FILL0_wght400_GRAD0_opsz48" d="M161.277-525.5a1.24,1.24,0,0,1-.9-.368,1.2,1.2,0,0,1-.374-.885,1.181,1.181,0,0,1,.377-.882,1.259,1.259,0,0,1,.907-.365,1.24,1.24,0,0,1,.9.368,1.2,1.2,0,0,1,.374.885,1.181,1.181,0,0,1-.377.882A1.259,1.259,0,0,1,161.277-525.5Zm5.219,0a1.24,1.24,0,0,1-.9-.368,1.2,1.2,0,0,1-.374-.885,1.181,1.181,0,0,1,.377-.882A1.259,1.259,0,0,1,166.5-528a1.24,1.24,0,0,1,.9.368,1.2,1.2,0,0,1,.374.885,1.181,1.181,0,0,1-.377.882A1.259,1.259,0,0,1,166.5-525.5Zm5.219,0a1.24,1.24,0,0,1-.9-.368,1.2,1.2,0,0,1-.374-.885,1.181,1.181,0,0,1,.377-.882,1.259,1.259,0,0,1,.907-.365,1.24,1.24,0,0,1,.9.368,1.2,1.2,0,0,1,.374.885,1.181,1.181,0,0,1-.377.882A1.259,1.259,0,0,1,171.715-525.5Z" transform="translate(117.5 615.5)" fill="url(#linear-gradient)"/>
    <path id="more_horiz_FILL0_wght400_GRAD0_opsz48_-_Outline" data-name="more_horiz_FILL0_wght400_GRAD0_opsz48 - Outline" d="M171.715-525.25a1.488,1.488,0,0,1-1.079-.44,1.445,1.445,0,0,1-.448-1.063,1.427,1.427,0,0,1,.454-1.062,1.507,1.507,0,0,1,1.081-.435,1.488,1.488,0,0,1,1.079.44,1.445,1.445,0,0,1,.448,1.063,1.427,1.427,0,0,1-.454,1.062A1.507,1.507,0,0,1,171.715-525.25Zm.008-2.5a1.01,1.01,0,0,0-.734.294.933.933,0,0,0-.3.7.949.949,0,0,0,.3.707.991.991,0,0,0,.728.3,1.009,1.009,0,0,0,.734-.294.932.932,0,0,0,.3-.7.95.95,0,0,0-.3-.707A.991.991,0,0,0,171.723-527.75Zm-5.226,2.5a1.488,1.488,0,0,1-1.079-.44,1.445,1.445,0,0,1-.448-1.063,1.428,1.428,0,0,1,.454-1.062,1.507,1.507,0,0,1,1.081-.435,1.488,1.488,0,0,1,1.079.44,1.445,1.445,0,0,1,.448,1.063,1.427,1.427,0,0,1-.454,1.062A1.507,1.507,0,0,1,166.5-525.25Zm.008-2.5a1.01,1.01,0,0,0-.734.294.933.933,0,0,0-.3.7.949.949,0,0,0,.3.707.991.991,0,0,0,.728.3,1.009,1.009,0,0,0,.734-.294.932.932,0,0,0,.3-.7.949.949,0,0,0-.3-.707A.991.991,0,0,0,166.5-527.75Zm-5.226,2.5a1.488,1.488,0,0,1-1.079-.44,1.445,1.445,0,0,1-.448-1.063,1.427,1.427,0,0,1,.454-1.062,1.507,1.507,0,0,1,1.081-.435,1.488,1.488,0,0,1,1.079.44,1.445,1.445,0,0,1,.448,1.063,1.427,1.427,0,0,1-.454,1.062A1.507,1.507,0,0,1,161.277-525.25Zm.008-2.5a1.01,1.01,0,0,0-.734.294.932.932,0,0,0-.3.7.949.949,0,0,0,.3.707.991.991,0,0,0,.728.3,1.009,1.009,0,0,0,.734-.294.932.932,0,0,0,.3-.7.949.949,0,0,0-.3-.707A.991.991,0,0,0,161.285-527.75Z" transform="translate(117.5 615.5)" fill="url(#linear-gradient)"/>
  </g>
</svg>
