<svg id="digital_identity_icon" xmlns="http://www.w3.org/2000/svg" xmlns:xlink="http://www.w3.org/1999/xlink" width="67.251" height="44" viewBox="0 0 67.251 44">
  <defs>
    <linearGradient id="linear-gradient" x1="0.5" x2="0.5" y2="1" gradientUnits="objectBoundingBox">
      <stop offset="0" stop-color="@fill"/>
      <stop offset="1" stop-color="@fill2"/>
    </linearGradient>
    <clipPath id="clip-path">
      <rect id="Rectangle_6987" data-name="Rectangle 6987" width="67.251" height="44" fill="url(#linear-gradient)"/>
    </clipPath>
  </defs>
  <g id="Group_57361" data-name="Group 57361" clip-path="url(#clip-path)">
    <path id="Path_155494" data-name="Path 155494" d="M42.586,1.414A4.523,4.523,0,0,0,39.286,0H4.714a4.523,4.523,0,0,0-3.3,1.414A4.523,4.523,0,0,0,0,4.714V39.286a4.523,4.523,0,0,0,1.414,3.3A4.523,4.523,0,0,0,4.714,44H39.286A4.834,4.834,0,0,0,44,39.286V4.714a4.523,4.523,0,0,0-1.414-3.3M7.071,39.286a22.635,22.635,0,0,1,6.993-3.339A29.175,29.175,0,0,1,22,34.886a28.876,28.876,0,0,1,7.7,1.061,24.473,24.473,0,0,1,7.229,3.339ZM39.286,35.2A30.012,30.012,0,0,0,31,31.429a32.819,32.819,0,0,0-17.993,0A30.012,30.012,0,0,0,4.714,35.2V4.714H39.286Z" fill="url(#linear-gradient)"/>
    <path id="Path_155495" data-name="Path 155495" d="M23.339,8A8.406,8.406,0,0,0,17.171,5.45,8.406,8.406,0,0,0,11,8,8.406,8.406,0,0,0,8.45,14.171,8.406,8.406,0,0,0,11,20.339a8.406,8.406,0,0,0,6.168,2.554,8.406,8.406,0,0,0,6.168-2.554,8.406,8.406,0,0,0,2.554-6.168A8.406,8.406,0,0,0,23.339,8m-2.946,9.429a4.459,4.459,0,0,1-3.221,1.3,4.432,4.432,0,0,1-4.557-4.557,4.459,4.459,0,0,1,1.3-3.221,4.353,4.353,0,0,1,3.261-1.336,4.56,4.56,0,0,1,4.557,4.557,4.353,4.353,0,0,1-1.336,3.261" transform="translate(4.829 3.114)" fill="url(#linear-gradient)"/>
    <path id="Path_155496" data-name="Path 155496" d="M35.144,0h-4.8a1.509,1.509,0,0,0-1.509,1.509,3.206,3.206,0,0,0,3.206,3.206h.93a1.509,1.509,0,0,1,1.509,1.509V37.777a1.509,1.509,0,0,1-1.509,1.509h-1.02a3.206,3.206,0,0,0-3.207,3.206A1.509,1.509,0,0,0,30.257,44h7.433A1.509,1.509,0,0,0,39.2,42.491V1.509A1.509,1.509,0,0,0,37.689,0Z" transform="translate(16.427)" fill="url(#linear-gradient)"/>
    <path id="Path_155497" data-name="Path 155497" d="M42.541,0h-4.8a1.509,1.509,0,0,0-1.509,1.509,3.206,3.206,0,0,0,3.206,3.206h.93a1.509,1.509,0,0,1,1.509,1.509V37.777a1.509,1.509,0,0,1-1.509,1.509h-1.02a3.206,3.206,0,0,0-3.207,3.206A1.509,1.509,0,0,0,37.654,44h7.433a1.509,1.509,0,0,0,1.509-1.509V1.509A1.509,1.509,0,0,0,45.086,0Z" transform="translate(20.654)" fill="url(#linear-gradient)"/>
  </g>
</svg>
