<svg xmlns="http://www.w3.org/2000/svg" xmlns:xlink="http://www.w3.org/1999/xlink" width="60" height="66" viewBox="0 0 60 66">
  <defs>
    <linearGradient id="linear-gradient" x1="0.5" x2="0.5" y2="1" gradientUnits="objectBoundingBox">
      <stop offset="0" stop-color="@fill"/>
      <stop offset="1" stop-color="@fill2"/>
    </linearGradient>
  </defs>
  <g id="fingerprint_icon" transform="translate(-4.95 -3)" fill="url(#linear-gradient)">
    <path d="M 44.70600509643555 68.5 C 44.54588317871094 68.5 44.37379455566406 68.46539306640625 44.19400024414062 68.39708709716797 C 41.42909622192383 67.69467926025391 38.87202072143555 66.63496398925781 36.59295654296875 65.24705505371094 C 34.30374526977539 63.85295104980469 32.23269653320312 62.08974075317383 30.43734741210938 60.00640106201172 C 28.63554763793945 57.91560363769531 27.26491737365723 55.56746292114258 26.36352729797363 53.02721405029297 C 25.46380615234375 50.49170303344727 25.00761604309082 47.69675064086914 25.00761604309082 44.72000122070312 C 25.00761604309082 42.08047103881836 25.98789596557617 39.83090209960938 27.92122650146484 38.03378295898438 C 29.84417724609375 36.24631118774414 32.17445755004883 35.33999252319336 34.84736633300781 35.33999252319336 C 37.5202751159668 35.33999252319336 39.85056686401367 36.24631118774414 41.77351760864258 38.03378295898438 C 43.70684814453125 39.83091354370117 44.68712615966797 42.08048248291016 44.68712615966797 44.72000122070312 C 44.68712615966797 46.61388397216797 45.40214538574219 48.16606140136719 46.87302780151367 49.46525192260742 C 48.34151840209961 50.76232147216797 50.06990814208984 51.41999053955078 52.01017761230469 51.41999053955078 C 53.92073822021484 51.41999053955078 55.54680633544922 50.78246307373047 56.98128509521484 49.47098159790039 C 58.40274810791016 48.17139053344727 59.0937385559082 46.61733245849609 59.0937385559082 44.72000122070312 C 59.0937385559082 38.3374137878418 56.69131851196289 32.91722106933594 51.95322799682617 28.60996246337891 C 47.20143508911133 24.29026222229004 41.44619750976562 22.0999927520752 34.84736633300781 22.10000228881836 C 28.24852752685547 22.10000228881836 22.49327659606934 24.2902717590332 17.74149703979492 28.60997200012207 C 13.00341701507568 32.91722106933594 10.60100650787354 38.33742141723633 10.60100650787354 44.72001266479492 C 10.60100650787354 45.97049331665039 10.74703693389893 47.62900161743164 11.03505706787109 49.64945220947266 C 11.32120990753174 51.65696716308594 11.94308280944824 53.97606658935547 12.88327980041504 56.54201889038086 C 13.10016632080078 57.0915412902832 12.96164321899414 57.43791198730469 12.80673694610596 57.63195419311523 C 12.66862678527832 57.80495071411133 12.49631690979004 57.96100234985352 12.29459667205811 58.09576416015625 L 12.26869678497314 58.11306381225586 L 12.24084663391113 58.12702178955078 C 12.02945709228516 58.23295211791992 11.80488681793213 58.28666305541992 11.57338714599609 58.28667068481445 C 11.46038722991943 58.28667068481445 11.3447265625 58.27367401123047 11.22963714599609 58.24805068969727 C 10.94815731048584 58.18536376953125 10.56793689727783 57.99869155883789 10.35506725311279 57.46535110473633 L 10.35035705566406 57.45356369018555 L 10.34625720977783 57.44154357910156 C 9.650036811828613 55.40201187133789 9.093377113342285 53.29299163818359 8.691737174987793 51.17307281494141 C 8.288666725158691 49.04565048217773 8.084286689758301 46.87453079223633 8.084286689758301 44.72001266479492 C 8.084286689758301 41.22581100463867 8.756747245788574 37.93780136108398 10.08298683166504 34.94730377197266 C 11.40807723999023 31.95937156677246 13.42096710205078 29.1895923614502 16.06571769714355 26.71490287780762 C 18.70708656311035 24.24338150024414 21.62701606750488 22.36276245117188 24.74438667297363 21.12528228759766 C 27.86233711242676 19.8875732421875 31.26146697998047 19.26000213623047 34.84736633300781 19.26000213623047 C 38.51112747192383 19.26000213623047 41.96587753295898 19.87691307067871 45.11565780639648 21.09359169006348 C 48.26692581176758 22.31084251403809 51.19767761230469 24.16110229492188 53.82650756835938 26.59296226501465 C 56.45955657958984 29.02874183654785 58.4633674621582 31.78975296020508 59.78226852416992 34.79931259155273 C 61.10129547119141 37.80914306640625 61.77009582519531 41.14694213867188 61.77009582519531 44.72001266479492 C 61.77009582519531 47.30502319335938 60.80413818359375 49.52683258056641 58.89906692504883 51.32373046875 C 57.00224685668945 53.11284255981445 54.68450546264648 54.02000427246094 52.01021575927734 54.02000427246094 C 49.28566741943359 54.02000427246094 46.91596603393555 53.114501953125 44.96691513061523 51.32865142822266 C 43.00535583496094 49.53133392333984 42.01075744628906 47.307861328125 42.01075744628906 44.72001266479492 C 42.01075744628906 42.76883316040039 41.31976699829102 41.18861389160156 39.89830780029297 39.88903427124023 C 38.46382522583008 38.57753372192383 36.8116569519043 37.94000244140625 34.84736633300781 37.94000244140625 C 32.90871810913086 37.94000244140625 31.19482612609863 38.59673309326172 29.7533073425293 39.89193344116211 C 28.30715751647949 41.19129180908203 27.60415649414062 42.77057266235352 27.60414695739746 44.72001266479492 C 27.60414695739746 50.11296081542969 29.25271606445312 54.67002105712891 32.50405502319336 58.26460266113281 C 35.77887725830078 61.8851318359375 39.91889572143555 64.46108245849609 44.80911636352539 65.92090606689453 L 44.81685638427734 65.92321014404297 L 44.82451629638672 65.92577362060547 C 45.27904510498047 66.07759857177734 45.56940841674805 66.29056549072266 45.71220779418945 66.57682037353516 C 45.8447380065918 66.84245300292969 45.87181854248047 67.14267730712891 45.792724609375 67.46929168701172 C 45.71177291870117 67.86356353759766 45.53364562988281 68.15502166748047 45.26317596435547 68.33573913574219 C 45.10002517700195 68.44474029541016 44.91257858276367 68.5 44.70600509643555 68.5 Z M 27.37953758239746 67.84770202636719 C 27.15067481994629 67.84770202636719 26.8121166229248 67.76444244384766 26.48973274230957 67.37150573730469 C 23.38843727111816 64.15351867675781 20.93322944641113 60.72505950927734 19.19157600402832 57.18050384521484 C 17.43606758117676 53.60773086547852 16.54594612121582 49.41542053222656 16.54594612121582 44.72001266479492 C 16.54594612121582 39.85134124755859 18.35856628417969 35.69098281860352 21.93345642089844 32.3544807434082 C 23.71493721008301 30.69180297851562 25.70595741271973 29.42655181884766 27.85121726989746 28.59388160705566 C 29.99480628967285 27.76187324523926 32.34864807128906 27.34000205993652 34.84736633300781 27.34000205993652 C 37.34571838378906 27.34000205993652 39.70594787597656 27.76174163818359 41.86247634887695 28.59350204467773 C 44.02015686035156 29.42570304870605 46.03072738647461 30.69021224975586 47.83833694458008 32.35191345214844 C 51.468017578125 35.68861389160156 53.30842590332031 39.8498420715332 53.30843734741211 44.72001266479492 C 53.30843734741211 45.12263107299805 53.19215774536133 45.44332122802734 52.96282577514648 45.67316055297852 C 52.73315811157227 45.90332412719727 52.41264724731445 46.02001190185547 52.01017761230469 46.02001190185547 C 51.62500762939453 46.02001190185547 51.30231857299805 45.91361236572266 51.05105590820312 45.70378112792969 C 50.85991668701172 45.54415130615234 50.6320686340332 45.24389266967773 50.6320686340332 44.72001266479492 C 50.6320686340332 40.56675338745117 49.06210708618164 37.03054046630859 45.96579742431641 34.20961380004883 C 42.85612869262695 31.37650299072266 39.11533737182617 29.94000244140625 34.84736633300781 29.94000244140625 C 30.58096694946289 29.94000244140625 26.86807632446289 31.37556266784668 23.81181716918945 34.20680236816406 C 20.76644706726074 37.0279541015625 19.22231674194336 40.56510162353516 19.22231674194336 44.72001266479492 C 19.22231674194336 49.15514373779297 19.99742698669434 52.98385238647461 21.52610778808594 56.09977340698242 C 23.0653076171875 59.23714447021484 25.38435173034668 62.42325210571289 28.41905975341797 65.56988525390625 C 28.74576568603516 65.89857482910156 28.88617515563965 66.241943359375 28.83645629882812 66.59059143066406 C 28.79439735412598 66.88568878173828 28.6529369354248 67.15572357177734 28.4160270690918 67.39316558837891 C 28.25241661071777 67.55711364746094 28.01874732971191 67.68830108642578 27.70163726806641 67.79424285888672 C 27.5954475402832 67.82971954345703 27.4870777130127 67.84770202636719 27.37953758239746 67.84770202636719 Z M 51.29172515869141 61.70001220703125 C 46.50215530395508 61.70000076293945 42.29320526123047 60.08168411254883 38.78179550170898 56.8900032043457 C 35.25666809082031 53.68585205078125 33.46927642822266 49.59128189086914 33.46927642822266 44.72001266479492 C 33.46927642822266 44.33467102050781 33.57529830932617 44.01178359985352 33.78437805175781 43.76032257080078 C 33.9438362121582 43.56857299804688 34.24383544921875 43.34000396728516 34.76753616333008 43.34000396728516 C 35.2912483215332 43.34000396728516 35.59124755859375 43.56857299804688 35.75069808959961 43.76031112670898 C 35.95978546142578 44.01178359985352 36.0658073425293 44.33467102050781 36.0658073425293 44.72001266479492 C 36.0658073425293 48.87031173706055 37.6070556640625 52.33755111694336 40.646728515625 55.02544403076172 C 43.70427703857422 57.72912216186523 47.2857666015625 59.10000228881836 51.29172515869141 59.10000228881836 C 51.70047760009766 59.10000228881836 52.19550704956055 59.07378387451172 52.76306533813477 59.02206420898438 C 53.33272171020508 58.97017288208008 53.96340179443359 58.8912353515625 54.63786697387695 58.78742980957031 C 54.74168395996094 58.767333984375 54.84305572509766 58.75715255737305 54.93934631347656 58.75715255737305 C 55.22314834594727 58.75715255737305 55.48043823242188 58.84673309326172 55.68339538574219 59.0162239074707 C 55.91469573974609 59.20937347412109 56.07392501831055 59.43344116210938 56.15666580200195 59.68221282958984 L 56.1627082824707 59.70039367675781 L 56.1673469543457 59.7189826965332 C 56.24995803833008 60.05013275146484 56.22384643554688 60.35436248779297 56.08971786499023 60.62320327758789 C 55.94009399414062 60.92312240600586 55.65458297729492 61.11922454833984 55.24094009399414 61.20630645751953 C 54.25651931762695 61.47932052612305 53.37733840942383 61.63182830810547 52.62742614746094 61.65967178344727 C 51.89583587646484 61.68681335449219 51.45892715454102 61.70001220703125 51.29172515869141 61.70001220703125 Z M 6.677306652069092 28.28666305541992 C 6.469357013702393 28.28666305541992 6.256726741790771 28.23295211791992 6.045326709747314 28.12702178955078 C 5.661417007446289 27.93465232849121 5.45000696182251 27.59122276306152 5.45000696182251 27.15999221801758 C 5.45000696182251 26.84293174743652 5.521416664123535 26.53904151916504 5.662256717681885 26.25677299499512 L 5.68023681640625 26.22072219848633 L 5.703766822814941 26.18802261352539 C 9.03598690032959 21.55588150024414 13.31447696685791 17.92358207702637 18.42039680480957 15.39204216003418 C 23.5221061706543 12.86255264282227 29.04893684387207 11.580002784729 34.84736633300781 11.580002784729 C 40.64395523071289 11.580002784729 46.1826286315918 12.83486270904541 51.30951690673828 15.30972194671631 C 56.44276809692383 17.78763198852539 60.76238632202148 21.39275169372559 64.14839935302734 26.02493286132812 L 64.16193389892578 26.0434627532959 L 64.17372894287109 26.06315231323242 C 64.39838409423828 26.43839263916016 64.48468017578125 26.75859260559082 64.43751525878906 27.04205322265625 C 64.39361572265625 27.30603218078613 64.25275421142578 27.55875205993652 64.01885986328125 27.79316329956055 C 63.76632690429688 28.04623222351074 63.43690872192383 28.17999267578125 63.06620788574219 28.17999267578125 C 62.66817855834961 28.17999267578125 62.30841827392578 27.98214149475098 61.99691772460938 27.59193229675293 L 61.98895645141602 27.58196258544922 L 61.98151779174805 27.57160186767578 C 58.90563583374023 23.28739166259766 54.92717742919922 19.94942283630371 50.15664672851562 17.65041160583496 C 45.37821578979492 15.34762191772461 40.2274284362793 14.18000221252441 34.84736633300781 14.18000221252441 C 29.46921730041504 14.18000221252441 24.36037635803223 15.36026191711426 19.66275596618652 17.68800163269043 C 14.96735668182373 20.01466178894043 10.99929714202881 23.34186172485352 7.868806838989258 27.57720184326172 L 7.863276958465576 27.58467292785645 L 7.857476711273193 27.59194183349609 C 7.575576782226562 27.94507217407227 7.296936988830566 28.15727233886719 7.005626678466797 28.24068260192871 C 6.899096965789795 28.27119255065918 6.78861665725708 28.28666305541992 6.677306652069092 28.28666305541992 Z M 15.7768669128418 10.91143226623535 C 15.60372638702393 10.91143226623535 15.44714641571045 10.87007236480713 15.31149673461914 10.78850269317627 C 15.12600708007812 10.67696857452393 14.96025657653809 10.51721286773682 14.81833267211914 10.31325531005859 C 14.64039707183838 10.11375904083252 14.55027675628662 9.847227096557617 14.55027675628662 9.520002365112305 C 14.55027675628662 9.141302108764648 14.71424674987793 8.823192596435547 15.01197719573975 8.624262809753418 L 15.03069686889648 8.611752510070801 L 15.05046653747559 8.600982666015625 C 18.10602760314941 6.935582160949707 21.35422706604004 5.655292510986328 24.70483779907227 4.795682430267334 C 28.05598640441895 3.935932397842407 31.46843719482422 3.500002384185791 34.84736633300781 3.500002384185791 C 38.33223724365234 3.500002384185791 41.79839706420898 3.935932397842407 45.14955520629883 4.795682430267334 C 48.48895645141602 5.65242338180542 51.72666549682617 6.873486042022705 54.77324295043945 8.425127983093262 C 55.33951950073242 8.661410331726074 55.47169876098633 9.072356224060059 55.49984741210938 9.298142433166504 C 55.54157638549805 9.632712364196777 55.47442626953125 9.935122489929199 55.30024719238281 10.19694232940674 C 55.15094757080078 10.42138195037842 54.9467658996582 10.60877227783203 54.69337844848633 10.75388240814209 C 54.52407836914062 10.85084247589111 54.33640670776367 10.90000247955322 54.13556671142578 10.90000247955322 C 53.95898818969727 10.90000247955322 53.77216720581055 10.86101245880127 53.58031845092773 10.78410243988037 L 53.56268692016602 10.77703189849854 L 53.54564666748047 10.76864242553711 C 50.66279602050781 9.350362777709961 47.60626602172852 8.218342781066895 44.46094512939453 7.40404224395752 C 41.32370758056641 6.591832160949707 38.08922576904297 6.180002212524414 34.84736633300781 6.180002212524414 C 31.60353660583496 6.180002212524414 28.39399719238281 6.565402507781982 25.30787658691406 7.325492382049561 C 22.22353744506836 8.085152626037598 19.22811698913574 9.240782737731934 16.40481758117676 10.76028251647949 L 16.38002777099609 10.77362251281738 L 16.35390663146973 10.78410243988037 C 16.14016723632812 10.86978244781494 15.95141696929932 10.91143226623535 15.7768669128418 10.91143226623535 Z" stroke="none"/>
    <path d="M 34.84736633300781 4 C 31.49463653564453 4 28.15520858764648 4.426658630371094 24.82908630371094 5.279998779296875 C 21.50295639038086 6.133331298828125 18.32317733764648 7.386665344238281 15.28975677490234 9.040000915527344 C 15.13010787963867 9.146663665771484 15.05027770996094 9.306663513183594 15.05027770996094 9.520004272460938 C 15.05027770996094 9.733333587646484 15.10349655151367 9.893333435058594 15.20992660522461 10.00000381469727 C 15.31636810302734 10.16000366210938 15.43610763549805 10.28000259399414 15.56915664672852 10.36000061035156 C 15.70219421386719 10.44001388549805 15.90177154541016 10.42666244506836 16.1678581237793 10.32000350952148 C 19.0416259765625 8.773330688476562 22.04844665527344 7.613334655761719 25.18830871582031 6.839988708496094 C 28.32816696166992 6.066665649414062 31.54785537719727 5.680000305175781 34.84736633300781 5.680000305175781 C 38.14688873291016 5.680000305175781 41.3931884765625 6.093330383300781 44.58625793457031 6.919990539550781 C 47.77934646606445 7.746665954589844 50.83937835693359 8.880001068115234 53.76636505126953 10.32000350952148 C 54.0324592590332 10.42666625976562 54.25863647460938 10.42666625976562 54.44489669799805 10.32000350952148 C 54.63115692138672 10.21333312988281 54.77750778198242 10.08000183105469 54.88394546508789 9.919990539550781 C 54.99038696289062 9.760002136230469 55.03029632568359 9.573333740234375 55.00368499755859 9.360000610351562 C 54.97707748413086 9.146663665771484 54.83072662353516 8.986663818359375 54.56462860107422 8.880001068115234 C 51.53120422363281 7.333335876464844 48.35142517089844 6.133331298828125 45.02530670166016 5.279998779296875 C 41.69917678833008 4.426658630371094 38.30653762817383 4 34.84736633300781 4 M 34.84736633300781 12.07999420166016 C 29.09982681274414 12.07999420166016 23.69819641113281 13.33333206176758 18.64249801635742 15.84000396728516 C 13.58677673339844 18.34666061401367 9.409168243408203 21.89333343505859 6.109657287597656 26.4799919128418 C 6.003215789794922 26.69333267211914 5.949996948242188 26.92000198364258 5.949996948242188 27.15999221801758 C 5.949996948242188 27.39999389648438 6.056438446044922 27.57333374023438 6.269306182861328 27.68000411987305 C 6.482177734375 27.78665924072266 6.681739807128906 27.81333541870117 6.868007659912109 27.75999069213867 C 7.054267883300781 27.70666122436523 7.253837585449219 27.54666137695312 7.466705322265625 27.28000259399414 C 10.65978622436523 22.96000289916992 14.65113830566406 19.61333084106445 19.44075775146484 17.23999404907227 C 24.23037719726562 14.86666107177734 29.36591720581055 13.67999267578125 34.84736633300781 13.67999267578125 C 40.32880401611328 13.67999267578125 45.50426483154297 14.85333251953125 50.37371826171875 17.19999313354492 C 55.24315643310547 19.54666137695312 59.24781799316406 22.90666198730469 62.38767623901367 27.27999114990234 C 62.60055541992188 27.54666137695312 62.82672882080078 27.67999267578125 63.06620788574219 27.67999267578125 C 63.30568695068359 27.67999267578125 63.50525665283203 27.59999084472656 63.6649169921875 27.43999099731445 C 63.82455825805664 27.27999114990234 63.91768646240234 27.11999130249023 63.94429779052734 26.96000289916992 C 63.97090530395508 26.79999160766602 63.90438842773438 26.58666229248047 63.74473571777344 26.31999206542969 C 60.39199829101562 21.73333358764648 56.17447662353516 18.21333312988281 51.09215545654297 15.76000213623047 C 46.00983428955078 13.30666351318359 40.59490966796875 12.07999420166016 34.84736633300781 12.07999420166016 M 34.84736633300781 19.76000213623047 C 27.76937866210938 19.76000213623047 21.62269592285156 22.20000076293945 16.4073371887207 27.08000183105469 C 11.19196701049805 31.96000289916992 8.584285736083984 37.84000396728516 8.584285736083984 44.72001266479492 C 8.584285736083984 46.85334014892578 8.783855438232422 48.97334289550781 9.182987213134766 51.08000183105469 C 9.582126617431641 53.18667221069336 10.12760543823242 55.25333404541016 10.8194465637207 57.28000259399414 C 10.92587661743164 57.54667282104492 11.09883499145508 57.70667266845703 11.33831787109375 57.76000213623047 C 11.57780075073242 57.81333541870117 11.80397796630859 57.78665924072266 12.016845703125 57.68000030517578 C 12.17650604248047 57.57333374023438 12.30954742431641 57.45333099365234 12.41598510742188 57.32000350952148 C 12.52241516113281 57.18667221069336 12.52241516113281 56.98667144775391 12.41598510742188 56.72001266479492 C 11.45805740356445 54.10667419433594 10.83274841308594 51.77334213256836 10.54005813598633 49.72001266479492 C 10.24734497070312 47.66667175292969 10.10100555419922 46 10.10100555419922 44.72001266479492 C 10.10100555419922 38.16000366210938 12.53572845458984 32.66666412353516 17.40516662597656 28.2400016784668 C 22.27461624145508 23.81333160400391 28.08868789672852 21.60000228881836 34.84736633300781 21.60000228881836 C 41.60605621337891 21.60000228881836 47.42011642456055 23.81332397460938 52.28955841064453 28.2400016784668 C 57.15900802612305 32.66666412353516 59.59372711181641 38.15999221801758 59.59372711181641 44.71999359130859 C 59.59372711181641 46.74667358398438 58.83537673950195 48.45333099365234 57.31866455078125 49.84000396728516 C 55.80195617675781 51.22666168212891 54.03245544433594 51.91999053955078 52.01017761230469 51.91999053955078 C 49.93466949462891 51.91999053955078 48.11194610595703 51.22666168212891 46.54202651977539 49.84000396728516 C 44.97208404541016 48.45333099365234 44.18712615966797 46.74667358398438 44.18712615966797 44.72000122070312 C 44.18712615966797 42.21333312988281 43.26911926269531 40.10667419433594 41.43309783935547 38.40000152587891 C 39.59707641601562 36.69333267211914 37.40183639526367 35.83999252319336 34.84736633300781 35.83999252319336 C 32.29290771484375 35.83999252319336 30.0976676940918 36.69333267211914 28.26164627075195 38.40000152587891 C 26.42561721801758 40.10667419433594 25.50761795043945 42.21333312988281 25.50761795043945 44.72000122070312 C 25.50761795043945 50.586669921875 27.27710723876953 55.57333374023438 30.81610870361328 59.68000030517578 C 34.35510635375977 63.78667449951172 38.86532592773438 66.53334045410156 44.34678649902344 67.92000579833984 L 44.34678649902344 67.91999053955078 C 44.61286544799805 68.02666473388672 44.82574462890625 68.02666473388672 44.98539733886719 67.91999053955078 C 45.14504623413086 67.81333160400391 45.25148773193359 67.62667083740234 45.30470657348633 67.36000061035156 C 45.35792541503906 67.14665985107422 45.3446159362793 66.95999908447266 45.26478576660156 66.80001068115234 C 45.18496704101562 66.63999938964844 44.98539733886719 66.50666046142578 44.66608428955078 66.40000915527344 C 39.66359710693359 64.90666961669922 35.48597717285156 62.30667114257812 32.13324737548828 58.60001373291016 C 28.780517578125 54.89334106445312 27.10414505004883 50.26667022705078 27.10414505004883 44.72001266479492 C 27.10415649414062 42.6400032043457 27.87581634521484 40.90666961669922 29.41913604736328 39.52001190185547 C 30.96245574951172 38.13333129882812 32.77186584472656 37.44000244140625 34.84736633300781 37.44000244140625 C 36.92287826538086 37.44000244140625 38.71897888183594 38.13333129882812 40.23568725585938 39.52001190185547 C 41.75239562988281 40.90666961669922 42.51075744628906 42.6400032043457 42.51075744628906 44.72001266479492 C 42.51075744628906 47.17333984375 43.44207763671875 49.25334167480469 45.30469512939453 50.96000289916992 C 47.16732788085938 52.66667175292969 49.40248870849609 53.52000427246094 52.01017761230469 53.52000427246094 C 52.01033020019531 53.52000427246094 52.01006317138672 53.52000427246094 52.01022338867188 53.52000427246094 C 54.56446838378906 53.52000427246094 56.74666595458984 52.66658020019531 58.55597686767578 50.96000289916992 C 60.36539459228516 49.25334167480469 61.27009582519531 47.17333984375 61.27009582519531 44.72001266479492 C 61.27009582519531 37.68000411987305 58.67572784423828 31.76000213623047 53.48696899414062 26.96000289916992 C 48.2982063293457 22.16000366210938 42.08500671386719 19.76000213623047 34.84736633300781 19.76000213623047 M 34.84736633300781 27.84000396728516 C 29.95131683349609 27.84000396728516 25.76039505004883 29.4666633605957 22.27461624145508 32.72001266479492 C 18.78883743286133 35.97334289550781 17.04594802856445 39.97334289550781 17.04594802856445 44.72001266479492 C 17.04594802856445 49.36001205444336 17.91074752807617 53.44000244140625 19.64032745361328 56.96000289916992 C 21.36990737915039 60.48001098632812 23.77802658081055 63.84000396728516 26.86466598510742 67.04000091552734 C 27.07753372192383 67.30667114257812 27.30369567871094 67.40000915527344 27.54319763183594 67.31999969482422 C 27.78267669677734 67.24000549316406 27.95563507080078 67.14665985107422 28.06207656860352 67.04000091552734 C 28.22173690795898 66.87998962402344 28.31485748291016 66.70667266845703 28.34146499633789 66.52000427246094 C 28.36807632446289 66.33333587646484 28.27494812011719 66.13333892822266 28.06207656860352 65.92000579833984 C 24.97543716430664 62.72001266479492 22.64714813232422 59.52000427246094 21.07721710205078 56.32000350952148 C 19.50727844238281 53.12000274658203 18.72231674194336 49.25333404541016 18.72231674194336 44.72001266479492 C 18.72231674194336 40.40000152587891 20.30555725097656 36.77333068847656 23.47202682495117 33.84000396728516 C 26.63849639892578 30.90666198730469 30.43027496337891 29.44000244140625 34.84736633300781 29.44000244140625 C 39.26445770263672 29.44000244140625 43.08284759521484 30.90667343139648 46.30253601074219 33.84000396728516 C 49.52222442626953 36.77334213256836 51.13206481933594 40.40000152587891 51.13206481933594 44.72001266479492 C 51.13206481933594 44.98667144775391 51.21189880371094 45.18667221069336 51.37154769897461 45.31999969482422 C 51.53120422363281 45.45334243774414 51.74407958984375 45.52001190185547 52.01017761230469 45.52001190185547 C 52.2762565612793 45.52001190185547 52.47582626342773 45.45334243774414 52.60886764526367 45.31999969482422 C 52.74191665649414 45.18667221069336 52.80843734741211 44.98667144775391 52.80843734741211 44.72001266479492 C 52.80842590332031 39.97334289550781 51.03893661499023 35.97333145141602 47.49994659423828 32.72001266479492 C 43.96094512939453 29.46667098999023 39.74342727661133 27.84000396728516 34.84736633300781 27.84000396728516 M 34.76753616333008 43.84000396728516 C 34.50145721435547 43.84000396728516 34.30188751220703 43.92000198364258 34.16883850097656 44.08000183105469 C 34.03579711914062 44.2400016784668 33.96927642822266 44.45334243774414 33.96927642822266 44.72001266479492 C 33.96927642822266 49.4666748046875 35.685546875 53.40000152587891 39.11810684204102 56.52000427246094 C 42.55066680908203 59.6400032043457 46.60854721069336 61.20000457763672 51.29171752929688 61.20000457763672 L 51.29171752929688 61.20001220703125 C 51.45138549804688 61.20001220703125 51.89042663574219 61.18667221069336 52.60886764526367 61.16000366210938 C 53.32731628417969 61.13334274291992 54.16549682617188 60.98667144775391 55.12342834472656 60.72001266479492 C 55.38951873779297 60.66667175292969 55.56247711181641 60.56001281738281 55.64230728149414 60.40000152587891 C 55.72212600708008 60.2400016784668 55.73542785644531 60.0533447265625 55.68221664428711 59.84000396728516 C 55.62899780273438 59.68000030517578 55.52256774902344 59.53333282470703 55.36290740966797 59.40000152587891 C 55.2032470703125 59.26667022705078 54.99037170410156 59.22666931152344 54.72428894042969 59.28000259399414 C 54.03245544433594 59.38667297363281 53.39383697509766 59.46667098999023 52.80843734741211 59.52000427246094 C 52.22304534912109 59.57333374023438 51.71746826171875 59.60000228881836 51.29171752929688 59.60000228881836 C 47.14072418212891 59.60000228881836 43.48198699951172 58.20000457763672 40.31551742553711 55.40000152587891 C 37.1490478515625 52.60000228881836 35.5658073425293 49.04001235961914 35.5658073425293 44.72001266479492 C 35.5658073425293 44.45334243774414 35.49928665161133 44.2400016784668 35.36624526977539 44.08000183105469 C 35.23319625854492 43.92000198364258 35.03362655639648 43.84000396728516 34.76753616333008 43.84000396728516 M 34.84736633300781 3 C 38.3741569519043 3 41.88211822509766 3.441215515136719 45.27381896972656 4.311370849609375 C 48.64313507080078 5.175788879394531 51.90993499755859 6.407135009765625 54.98469161987305 7.971717834472656 C 55.55868530273438 8.218105316162109 55.92618560791016 8.676479339599609 55.99599456787109 9.236232757568359 C 56.05217742919922 9.686653137207031 55.95553588867188 10.11463165283203 55.71652603149414 10.47390365600586 C 55.52385711669922 10.76354217529297 55.26320648193359 11.00374221801758 54.94186782836914 11.18777084350586 C 54.49125671386719 11.4458122253418 53.94744110107422 11.46993637084961 53.394287109375 11.24820327758789 L 53.35901641845703 11.23406219482422 L 53.32492828369141 11.21729278564453 C 50.47249603271484 9.813972473144531 47.44805908203125 8.693862915039062 44.33562469482422 7.888069152832031 C 41.23928833007812 7.086448669433594 38.04696655273438 6.680000305175781 34.84736633300781 6.680000305175781 C 31.64376831054688 6.680000305175781 28.47445678710938 7.060508728027344 25.42745590209961 7.81097412109375 C 22.38394546508789 8.560581207275391 19.42801666259766 9.701011657714844 16.64177703857422 11.2005729675293 L 16.59219741821289 11.22725296020508 L 16.5399284362793 11.24820327758789 C 16.26592636108398 11.3580436706543 16.01632690429688 11.41143417358398 15.77685546875 11.41143417358398 C 15.51163864135742 11.41143417358398 15.26835632324219 11.34601211547852 15.05379867553711 11.21698379516602 C 14.81441879272461 11.07304382324219 14.60264205932617 10.87273406982422 14.42345809936523 10.62091445922852 C 14.23837280273438 10.40276718139648 14.05027770996094 10.05049896240234 14.05027770996094 9.520004272460938 C 14.05027770996094 8.96893310546875 14.29317855834961 8.503162384033203 14.73423767089844 8.208492279052734 L 14.77166748046875 8.183490753173828 L 14.81118774414062 8.161952972412109 C 17.90299606323242 6.476783752441406 21.18989562988281 5.181259155273438 24.5805778503418 4.311370849609375 C 27.97226715087891 3.441215515136719 31.42650604248047 3 34.84736633300781 3 Z M 34.84736633300781 11.07999420166016 C 40.71982574462891 11.07999420166016 46.33162689208984 12.35158157348633 51.52687835693359 14.85943222045898 C 56.73479461669922 17.37339401245117 61.11709594726562 21.03073120117188 64.55204772949219 25.72986221313477 L 64.57914733886719 25.76693344116211 L 64.60272979736328 25.80633163452148 C 64.890869140625 26.28762054443359 64.9981689453125 26.71865081787109 64.93074798583984 27.12405395507812 C 64.86941528320312 27.49279403686523 64.68170928955078 27.83672332763672 64.37281799316406 28.14630126953125 C 64.02440643310547 28.49546051025391 63.57259750366211 28.67999267578125 63.06620788574219 28.67999267578125 C 62.68278503417969 28.67999267578125 62.11823654174805 28.54534149169922 61.60615539550781 27.90387344360352 L 61.57535552978516 27.86320114135742 C 58.54878616333008 23.64767074584961 54.63394546508789 20.36314392089844 49.9395866394043 18.1008415222168 C 45.22939682006836 15.8309326171875 40.15163421630859 14.67999267578125 34.84736633300781 14.67999267578125 C 29.54691696166992 14.67999267578125 24.51276779174805 15.8427734375 19.88475799560547 18.13602066040039 C 15.26119613647461 20.42707061767578 11.35372543334961 23.70353317260742 8.270877838134766 27.8744010925293 L 8.248226165771484 27.90388107299805 C 7.899295806884766 28.34098052978516 7.537868499755859 28.60838317871094 7.143268585205078 28.72136306762695 C 6.992008209228516 28.76468276977539 6.835205078125 28.78666305541992 6.67730712890625 28.78666305541992 C 6.390888214111328 28.78666305541992 6.102897644042969 28.71513366699219 5.821334838867188 28.57405090332031 C 5.267578125 28.29656219482422 4.949996948242188 27.78116226196289 4.949996948242188 27.15999221801758 C 4.949996948242188 26.7647819519043 5.039108276367188 26.38579177856445 5.21484375 26.03355407714844 L 5.250816345214844 25.96144104003906 L 5.297874450683594 25.89602279663086 C 8.678226470947266 21.19699096679688 13.01854705810547 17.51223373413086 18.19828796386719 14.94408416748047 C 23.36965560913086 12.38006210327148 28.97121810913086 11.07999420166016 34.84736633300781 11.07999420166016 Z M 34.84736633300781 18.76000213623047 C 38.57297515869141 18.76000213623047 42.08834838867188 19.38821411132812 45.29582595825195 20.62717056274414 C 48.50626754760742 21.86729049682617 51.49063873291016 23.75098419189453 54.16603851318359 26.22593307495117 C 56.84989547729492 28.70870208740234 58.89354705810547 31.52568054199219 60.24022674560547 34.59861373901367 C 61.5871467590332 37.67211151123047 62.27009582519531 41.07744216918945 62.27009582519531 44.72001266479492 C 62.27009582519531 47.44816207885742 61.25133514404297 49.79235076904297 59.24212646484375 51.68746185302734 C 57.24944686889648 53.56699371337891 54.81628799438477 54.52000427246094 52.01021575927734 54.52000427246094 C 49.15665435791016 54.52000427246094 46.67329406738281 53.5703125 44.62912750244141 51.69730377197266 C 42.55992889404297 49.80136108398438 41.51075744628906 47.45386505126953 41.51075744628906 44.72001266479492 C 41.51075744628906 42.9171028137207 40.87296676635742 41.45758056640625 39.56092834472656 40.25805282592773 C 38.22285461425781 39.03469085693359 36.68103790283203 38.44000244140625 34.84736633300781 38.44000244140625 C 33.01035690307617 38.44000244140625 31.45338821411133 39.03659057617188 30.08748626708984 40.26386260986328 C 28.75290679931641 41.46296310424805 28.10415649414062 42.92058181762695 28.10414505004883 44.72001266479492 C 28.10414505004883 49.98517227172852 29.70924758911133 54.42938995361328 32.8748779296875 57.92920303344727 C 36.08744812011719 61.48091125488281 40.15082550048828 64.00851440429688 44.9521369934082 65.44179534912109 L 44.98288726806641 65.45152282714844 C 45.56966400146484 65.64749908447266 45.95458602905273 65.94258117675781 46.15962600708008 66.35362243652344 C 46.34245300292969 66.72003936767578 46.38419342041016 67.14312744140625 46.28070831298828 67.57852172851562 C 46.14452362060547 68.22982788085938 45.80410003662109 68.57566070556641 45.54091644287109 68.75150299072266 C 45.29755401611328 68.91407012939453 45.00885772705078 68.99999237060547 44.70600891113281 68.99999237060547 C 44.49378967285156 68.99999237060547 44.27167129516602 68.95798492431641 44.04470062255859 68.87501525878906 C 38.41099166870117 67.43859100341797 33.70556259155273 64.56478118896484 30.05858612060547 60.33281326293945 C 28.21622848510742 58.19492340087891 26.81448745727539 55.79322052001953 25.89230728149414 53.19441986083984 C 24.97349548339844 50.60507202148438 24.50761795043945 47.75387191772461 24.50761795043945 44.72000122070312 C 24.50761795043945 41.93589019775391 25.54158782958984 39.56311416625977 27.58081817626953 37.66756057739258 C 29.59925842285156 35.79132080078125 32.04407501220703 34.83999252319336 34.84736633300781 34.83999252319336 C 37.65066528320312 34.83999252319336 40.09548950195312 35.79132080078125 42.11393737792969 37.66756057739258 C 44.15315628051758 39.5631217956543 45.18712615966797 41.9359016418457 45.18712615966797 44.72000122070312 C 45.18712615966797 46.46216201782227 45.84686660766602 47.89176177978516 47.20403671264648 49.09049987792969 C 48.59778594970703 50.32156372070312 50.16988754272461 50.91999053955078 52.01017761230469 50.91999053955078 C 53.79012680053711 50.91999053955078 55.30582809448242 50.32530975341797 56.64390563964844 49.10196304321289 C 57.95593643188477 47.90243148803711 58.59372711181641 46.46907043457031 58.59372711181641 44.71999359130859 C 58.59372711181641 38.48418426513672 56.24637603759766 33.18847274780273 51.61689758300781 28.97995376586914 C 46.96003723144531 24.74652099609375 41.31795501708984 22.60000228881836 34.84736633300781 22.60000228881836 C 28.37678527832031 22.60000228881836 22.73470687866211 24.74652099609375 18.07782745361328 28.97995376586914 C 13.44834518432617 33.18847274780273 11.10100555419922 38.48419189453125 11.10100555419922 44.72001266479492 C 11.10100555419922 45.9470329284668 11.24535751342773 47.58180236816406 11.53004837036133 49.57888031005859 C 11.81108856201172 51.55046081542969 12.42355728149414 53.83316802978516 13.3505859375 56.36408996582031 C 13.66783142089844 57.17365264892578 13.39145660400391 57.70092010498047 13.19752502441406 57.94386291503906 C 13.02726745605469 58.15713119506836 12.81694793701172 58.34810256958008 12.5723762512207 58.51150131225586 L 12.52054595947266 58.5461311340332 L 12.46481704711914 58.57405090332031 C 12.18325805664062 58.71513366699219 11.88332748413086 58.78666305541992 11.57335662841797 58.78666305541992 C 11.42384719848633 58.78666305541992 11.27162551879883 58.7696533203125 11.12094497680664 58.73609161376953 C 10.55681610107422 58.6104621887207 10.11989593505859 58.22499084472656 9.89068603515625 57.65068054199219 L 9.873065948486328 57.60306167602539 C 9.169258117675781 55.54133224487305 8.606517791748047 53.40928268432617 8.200466156005859 51.26615142822266 C 7.791595458984375 49.10810089111328 7.584285736083984 46.90566253662109 7.584285736083984 44.72001266479492 C 7.584285736083984 41.15554046630859 8.271186828613281 37.79933166503906 9.625907897949219 34.74460220336914 C 10.97835540771484 31.69500350952148 13.03007507324219 28.87058258056641 15.72409820556641 26.34981155395508 C 18.41134643554688 23.83536148071289 21.38413619995117 21.92121124267578 24.55990600585938 20.66055297851562 C 27.73681640625 19.39944076538086 31.19802856445312 18.76000213623047 34.84736633300781 18.76000213623047 Z M 34.84736633300781 26.84000396728516 C 39.97919464111328 26.84000396728516 44.46383666992188 28.57063293457031 48.17671966552734 31.98382186889648 C 51.91363525390625 35.41909408569336 53.80842590332031 39.70417404174805 53.80843734741211 44.72001266479492 C 53.80843734741211 45.39246368408203 53.54103851318359 45.80157470703125 53.31671905517578 46.02635955810547 C 53.09205627441406 46.25153350830078 52.68295669555664 46.52001190185547 52.01017761230469 46.52001190185547 C 51.38054656982422 46.52001190185547 50.96677780151367 46.28483200073242 50.73053741455078 46.08753967285156 C 50.45752716064453 45.85953521728516 50.13206481933594 45.43719482421875 50.13206481933594 44.72001266479492 C 50.13206481933594 40.6568717956543 48.65912628173828 37.33979415893555 45.62906646728516 34.5792121887207 C 42.61435699462891 31.83263397216797 38.98686599731445 30.44000244140625 34.84736633300781 30.44000244140625 C 30.71102523803711 30.44000244140625 27.11245727539062 31.83074188232422 24.15161514282227 34.57360076904297 C 21.17114639282227 37.33461380004883 19.72231674194336 40.65353393554688 19.72231674194336 44.72001266479492 C 19.72231674194336 49.07816314697266 20.48022842407227 52.83277130126953 21.97499847412109 55.87955474853516 C 23.49081039428711 58.96925354003906 25.7790412902832 62.11177062988281 28.77627182006836 65.22001647949219 C 29.3256950378418 65.77428436279297 29.38160705566406 66.30931091308594 29.33145523071289 66.66112518310547 C 29.27379608154297 67.06560516357422 29.08488845825195 67.43070983886719 28.76995849609375 67.74633026123047 C 28.55016708374023 67.96658325195312 28.25254821777344 68.13735961914062 27.86004638671875 68.26848602294922 C 27.70263671875 68.32105255126953 27.54097747802734 68.34770202636719 27.3795166015625 68.34770202636719 C 27.04556655883789 68.34770202636719 26.55892944335938 68.23479461669922 26.11649322509766 67.70474243164062 C 22.98542022705078 64.45334625244141 20.50483322143555 60.98702621459961 18.74281692504883 57.4010009765625 C 16.95330810546875 53.7590217590332 16.04594802856445 49.49252319335938 16.04594802856445 44.72001266479492 C 16.04594802856445 39.70717239379883 17.91200637817383 35.42382049560547 21.59230804443359 31.98895263671875 C 25.25298690795898 28.57236099243164 29.7126350402832 26.84000396728516 34.84736633300781 26.84000396728516 Z M 34.76753616333008 42.84000396728516 C 35.48506546020508 42.84000396728516 35.90728759765625 43.16662216186523 36.13513565063477 43.44062042236328 C 36.42091751098633 43.7843132019043 36.5658073425293 44.21475219726562 36.5658073425293 44.72001266479492 C 36.5658073425293 48.77715301513672 38.00902557373047 52.02556228637695 40.97794723510742 54.65087127685547 C 43.94136810302734 57.27132415771484 47.41141510009766 58.60000228881836 51.29171752929688 58.60000228881836 C 51.68528747558594 58.60000228881836 52.16505432128906 58.57447052001953 52.71770477294922 58.52412414550781 C 53.27452850341797 58.47339630126953 53.89190673828125 58.39618682861328 54.55297088623047 58.29459762573242 C 55.10860061645508 58.18962097167969 55.6186637878418 58.31071853637695 56.00390625 58.63246154785156 C 56.30756759643555 58.88604354858398 56.51859664916992 59.18613433837891 56.63109588623047 59.52438354492188 L 56.64320755004883 59.56078338623047 L 56.65249633789062 59.59800338745117 C 56.76314544677734 60.04164123535156 56.72325897216797 60.47333145141602 56.53713607788086 60.84641265869141 C 56.38570785522461 61.14992523193359 56.05889892578125 61.5400505065918 55.36014556884766 61.69210815429688 C 54.34400939941406 61.9730110168457 53.43099212646484 62.13018035888672 52.64594650268555 62.1593132019043 C 51.66327667236328 62.19579315185547 51.40243530273438 62.20001220703125 51.29171752929688 62.20001220703125 C 46.37391662597656 62.20000457763672 42.05181884765625 60.53794097900391 38.44549560546875 57.25999450683594 C 34.81174850463867 53.95712280273438 32.96927642822266 49.73805999755859 32.96927642822266 44.72001266479492 C 32.96927642822266 44.21475219726562 33.11416625976562 43.7843132019043 33.39992523193359 43.44065093994141 C 33.6277961730957 43.16662216186523 34.05001831054688 42.84000396728516 34.76753616333008 42.84000396728516 Z" stroke="none" fill="@stroke"/>
  </g>
</svg>
