<svg xmlns="http://www.w3.org/2000/svg" width="50" height="50" viewBox="0 0 50 50">
  <g id="Group_57577" data-name="Group 57577" transform="translate(-175.424 -505.424)">
    <g id="Ellipse_1079" data-name="Ellipse 1079" transform="translate(175.424 505.424)" fill="#fff" stroke="@fill" stroke-width="2">
      <circle cx="25" cy="25" r="25" stroke="none"/>
      <circle cx="25" cy="25" r="24" fill="none"/>
    </g>
    <g id="flip_camera_ios_FILL0_wght400_GRAD0_opsz48" transform="translate(185.342 513.96)" fill="@fill2">
      <path d="M 24.67630767822266 26.21673965454102 L 5.676456928253174 26.21673965454102 C 5.204006671905518 26.21673965454102 4.78538703918457 26.03767967224121 4.432226657867432 25.68453025817871 C 4.079066753387451 25.33138084411621 3.899996757507324 24.91278076171875 3.899996757507324 24.44035148620605 L 3.899996757507324 10.10717105865479 C 3.899996757507324 9.653800964355469 4.078736782073975 9.240230560302734 4.431266784667969 8.877920150756836 C 4.784526824951172 8.514860153198242 5.203476905822754 8.330770492553711 5.676456928253174 8.330770492553711 L 9.737150192260742 8.330770492553711 L 11.74686717987061 5.935720443725586 L 11.77683639526367 5.90000057220459 L 11.82346725463867 5.90000057220459 L 18.529296875 5.90000057220459 L 18.575927734375 5.90000057220459 L 18.60589599609375 5.935720443725586 L 20.61561393737793 8.330770492553711 L 24.67630767822266 8.330770492553711 C 25.13021659851074 8.330770492553711 25.54413604736328 8.514530181884766 25.90656661987305 8.876950263977051 C 26.26900672912598 9.239370346069336 26.4527759552002 9.653270721435547 26.4527759552002 10.10717105865479 L 26.4527759552002 24.44035148620605 C 26.4527759552002 24.91331100463867 26.2686767578125 25.33224105834961 25.90558624267578 25.68548965454102 C 25.54328727722168 26.03800010681152 25.12969589233398 26.21673965454102 24.67630767822266 26.21673965454102 Z" stroke="none"/>
      <path d="M 24.67630767822266 26.11674118041992 C 25.1047477722168 26.11674118041992 25.49125671386719 25.94910049438477 25.83585739135742 25.61382102966309 C 26.18046760559082 25.27853965759277 26.3527774810791 24.88738059997559 26.3527774810791 24.44035148620605 L 26.3527774810791 10.10717105865479 C 26.3527774810791 9.678750991821289 26.18046760559082 9.292250633239746 25.83585739135742 8.947660446166992 C 25.49125671386719 8.603070259094238 25.1047477722168 8.430770874023438 24.67630767822266 8.430770874023438 L 20.5689868927002 8.430770874023438 L 18.529296875 6.000000476837158 L 11.82346725463867 6.000000476837158 L 9.783777236938477 8.430770874023438 L 5.676456928253174 8.430770874023438 C 5.229406833648682 8.430770874023438 4.838226795196533 8.603070259094238 4.502936840057373 8.947660446166992 C 4.167646884918213 9.292250633239746 3.999996900558472 9.678750991821289 3.999996900558472 10.10717105865479 L 3.999996900558472 24.44035148620605 C 3.999996900558472 24.88738059997559 4.167646884918213 25.27853965759277 4.502936840057373 25.61382102966309 C 4.838226795196533 25.94910049438477 5.229406833648682 26.11674118041992 5.676456928253174 26.11674118041992 L 24.67630767822266 26.11674118041992 M 24.67630767822266 26.31674003601074 L 5.676456928253174 26.31674003601074 C 5.176517009735107 26.31674003601074 4.73410701751709 26.12783050537109 4.361516952514648 25.75524139404297 C 3.988916873931885 25.38265991210938 3.799996852874756 24.94025993347168 3.799996852874756 24.44035148620605 L 3.799996852874756 10.10717105865479 C 3.799996852874756 9.626850128173828 3.988276720046997 9.189810752868652 4.359596729278564 8.80819034576416 C 4.732396602630615 8.425040245056152 5.175457000732422 8.230771064758301 5.676456928253174 8.230771064758301 L 9.690512657165527 8.230771064758301 L 11.73020648956299 5.800000667572021 L 18.62255668640137 5.800000667572021 L 20.66225051879883 8.230771064758301 L 24.67630767822266 8.230771064758301 C 25.15770721435547 8.230771064758301 25.59541702270508 8.424380302429199 25.9772777557373 8.806241035461426 C 26.35914611816406 9.188090324401855 26.55277633666992 9.625790596008301 26.55277633666992 10.10717105865479 L 26.55277633666992 24.44035148620605 C 26.55277633666992 24.94132995605469 26.35849761962891 25.38437080383301 25.97532653808594 25.75716972351074 C 25.59369659423828 26.12847137451172 25.15664672851562 26.31674003601074 24.67630767822266 26.31674003601074 Z" stroke="none" fill="@fill2"/>
    </g>
    <path id="flip_camera_ios_FILL0_wght400_GRAD0_opsz48-2" data-name="flip_camera_ios_FILL0_wght400_GRAD0_opsz48" d="M18.941,13.923,16.4,16.466l.925.9,1.027-1.027a4.889,4.889,0,0,1-1.284,3.005A3.56,3.56,0,0,1,14.394,20.5a3.91,3.91,0,0,1-.758-.064,2.763,2.763,0,0,1-.6-.193l-.95.925a3.919,3.919,0,0,0,1.092.475,4.922,4.922,0,0,0,1.22.141,4.823,4.823,0,0,0,3.635-1.515,5.863,5.863,0,0,0,1.58-3.879l.976.976.925-.9ZM9.9,19.188l2.543-2.543-.925-.9L10.49,16.774a4.889,4.889,0,0,1,1.284-3.005,3.56,3.56,0,0,1,2.671-1.156,3.91,3.91,0,0,1,.758.064,2.763,2.763,0,0,1,.6.193l.95-.925a3.919,3.919,0,0,0-1.092-.475,4.921,4.921,0,0,0-1.22-.141,4.823,4.823,0,0,0-3.635,1.515,5.863,5.863,0,0,0-1.58,3.879l-.976-.976-.925.9ZM14.394,15.438Z" transform="translate(186.124 514.58)" fill="#fff" stroke="#fff" stroke-width="0.5"/>
  </g>
</svg>
