<svg width="50" height="50" viewBox="0 0 50 50" fill="none" xmlns="http://www.w3.org/2000/svg">
<path d="M25 50C38.8071 50 50 38.8071 50 25C50 11.1929 38.8071 0 25 0C11.1929 0 0 11.1929 0 25C0 38.8071 11.1929 50 25 50Z" fill="white"/>
<path d="M25 49C38.2548 49 49 38.2548 49 25C49 11.7452 38.2548 1 25 1C11.7452 1 1 11.7452 1 25C1 38.2548 11.7452 49 25 49Z" stroke="url(#paint0_linear_17_6792)" stroke-width="2"/>
<path d="M34.5943 34.7527H15.5945C15.122 34.7527 14.7034 34.5736 14.3502 34.2204C13.9971 33.8673 13.818 33.4487 13.818 32.9763V18.6431C13.818 18.1897 13.9967 17.7761 14.3493 17.4138C14.7025 17.0508 15.1215 16.8667 15.5945 16.8667H19.6551L21.6649 14.4716L21.6948 14.4359H21.7415H28.4473H28.4939L28.5239 14.4716L30.5336 16.8667H34.5943C35.0482 16.8667 35.4621 17.0504 35.8246 17.4129C36.187 17.7753 36.3708 18.1892 36.3708 18.6431V32.9763C36.3708 33.4492 36.1867 33.8682 35.8236 34.2214C35.4613 34.5739 35.0477 34.7527 34.5943 34.7527Z" fill="url(#paint1_linear_17_6792)"/>
<path d="M34.5943 34.6527C35.0228 34.6527 35.4093 34.485 35.7539 34.1498C36.0985 33.8145 36.2708 33.4233 36.2708 32.9763V18.6431C36.2708 18.2147 36.0985 17.8282 35.7539 17.4836C35.4093 17.139 35.0228 16.9667 34.5943 16.9667H30.487L28.4473 14.5359H21.7415L19.7018 16.9667H15.5945C15.1474 16.9667 14.7562 17.139 14.421 17.4836C14.0857 17.8282 13.918 18.2147 13.918 18.6431V32.9763C13.918 33.4233 14.0857 33.8145 14.421 34.1498C14.7562 34.485 15.1474 34.6527 15.5945 34.6527H34.5943ZM34.5943 34.8527H15.5945C15.0945 34.8527 14.6521 34.6638 14.2795 34.2912C13.9069 33.9186 13.718 33.4762 13.718 32.9763V18.6431C13.718 18.1628 13.9063 17.7257 14.2776 17.3441C14.6504 16.961 15.0935 16.7667 15.5945 16.7667H19.6085L21.6482 14.3359H28.5406L30.5803 16.7667H34.5943C35.0757 16.7667 35.5134 16.9603 35.8953 17.3422C36.2772 17.724 36.4708 18.1617 36.4708 18.6431V32.9763C36.4708 33.4773 36.2765 33.9203 35.8933 34.2931C35.5117 34.6644 35.0747 34.8527 34.5943 34.8527Z" fill="url(#paint2_linear_17_6792)"/>
<path d="M29.641 23.079L27.1 25.622L28.025 26.522L29.052 25.495C28.9814 26.6143 28.528 27.6752 27.768 28.5C27.429 28.8703 27.0155 29.1648 26.5547 29.364C26.0938 29.5633 25.5961 29.6628 25.094 29.656C24.8399 29.6593 24.586 29.6379 24.336 29.592C24.1293 29.5507 23.928 29.486 23.736 29.399L22.786 30.324C23.1237 30.537 23.492 30.6972 23.878 30.799C24.2772 30.8967 24.6871 30.9441 25.098 30.94C25.7764 30.9574 26.4508 30.8315 27.0772 30.5704C27.7036 30.3093 28.2678 29.919 28.733 29.425C29.7193 28.3706 30.2819 26.9894 30.313 25.546L31.289 26.522L32.214 25.622L29.641 23.079ZM20.6 28.344L23.143 25.801L22.218 24.901L21.19 25.93C21.2607 24.8107 21.714 23.7497 22.474 22.925C22.8127 22.555 23.2257 22.2608 23.686 22.0616C24.1463 21.8623 24.6435 21.7626 25.145 21.769C25.3992 21.7656 25.653 21.7871 25.903 21.833C26.1097 21.8742 26.311 21.939 26.503 22.026L27.453 21.101C27.1153 20.888 26.7471 20.7278 26.361 20.626C25.9618 20.5282 25.552 20.4809 25.141 20.485C24.4626 20.4676 23.7882 20.5935 23.1619 20.8546C22.5355 21.1156 21.9712 21.5059 21.506 22C20.5197 23.0543 19.9571 24.4356 19.926 25.879L18.95 24.903L18.025 25.803L20.6 28.344Z" fill="white" stroke="white" stroke-width="0.5"/>
<defs>
<linearGradient id="paint0_linear_17_6792" x1="1" y1="25" x2="49" y2="25" gradientUnits="userSpaceOnUse">
<stop offset="0.16" stop-color="@fill"/>
<stop offset="1" stop-color="@fill2"/>
</linearGradient>
<linearGradient id="paint1_linear_17_6792" x1="13.818" y1="24.5943" x2="36.3708" y2="24.5943" gradientUnits="userSpaceOnUse">
<stop offset="0.16" stop-color="@fill"/>
<stop offset="1" stop-color="@fill"/>
</linearGradient>
<linearGradient id="paint2_linear_17_6792" x1="13.718" y1="24.5943" x2="36.4708" y2="24.5943" gradientUnits="userSpaceOnUse">
<stop offset="0.16" stop-color="@fill"/>
<stop offset="1" stop-color="@fill2"/>
</linearGradient>
</defs>
</svg>
