<svg xmlns="http://www.w3.org/2000/svg" width="135.883" height="29.485" viewBox="0 0 135.883 29.485">
  <g id="Group_58198" data-name="Group 58198" transform="translate(-125.142 -365.686)">
    <path id="Path_155718" fill="#000" data-name="Path 155718" d="M9.719-1.492A3.465,3.465,0,0,1,8.105-.254,6.517,6.517,0,0,1,5.7.156,4.674,4.674,0,0,1,3.227-.5,4.346,4.346,0,0,1,1.559-2.352,6.408,6.408,0,0,1,.953-5.141v-.992a5.982,5.982,0,0,1,1.2-3.984,4.179,4.179,0,0,1,3.371-1.414,4.316,4.316,0,0,1,2.867.91A3.965,3.965,0,0,1,9.719-8.039h-1.5A2.478,2.478,0,0,0,5.531-10.3,2.656,2.656,0,0,0,3.246-9.238a5.165,5.165,0,0,0-.785,3.066v.93A4.841,4.841,0,0,0,3.336-2.2,2.837,2.837,0,0,0,5.7-1.07,5.217,5.217,0,0,0,7.18-1.258a2.282,2.282,0,0,0,1.047-.633V-4.445H5.594V-5.664H9.719ZM11.609-4.3A4.993,4.993,0,0,1,12.1-6.539,3.643,3.643,0,0,1,13.457-8.07a3.7,3.7,0,0,1,1.988-.539,3.565,3.565,0,0,1,2.793,1.2A4.6,4.6,0,0,1,19.3-4.234v.1a5.036,5.036,0,0,1-.473,2.215A3.589,3.589,0,0,1,17.48-.391a3.743,3.743,0,0,1-2.02.547,3.556,3.556,0,0,1-2.785-1.2A4.575,4.575,0,0,1,11.609-4.2Zm1.453.172a3.616,3.616,0,0,0,.652,2.258,2.088,2.088,0,0,0,1.746.852,2.075,2.075,0,0,0,1.75-.863A3.955,3.955,0,0,0,17.859-4.3a3.61,3.61,0,0,0-.66-2.254,2.1,2.1,0,0,0-1.754-.863,2.075,2.075,0,0,0-1.727.852A3.925,3.925,0,0,0,13.063-4.133ZM20.734-4.3a4.993,4.993,0,0,1,.488-2.234A3.643,3.643,0,0,1,22.582-8.07a3.7,3.7,0,0,1,1.988-.539,3.565,3.565,0,0,1,2.793,1.2,4.6,4.6,0,0,1,1.066,3.18v.1a5.036,5.036,0,0,1-.473,2.215A3.589,3.589,0,0,1,26.605-.391a3.743,3.743,0,0,1-2.02.547,3.556,3.556,0,0,1-2.785-1.2A4.575,4.575,0,0,1,20.734-4.2Zm1.453.172a3.616,3.616,0,0,0,.652,2.258,2.088,2.088,0,0,0,1.746.852,2.075,2.075,0,0,0,1.75-.863A3.955,3.955,0,0,0,26.984-4.3a3.61,3.61,0,0,0-.66-2.254,2.1,2.1,0,0,0-1.754-.863,2.075,2.075,0,0,0-1.727.852A3.925,3.925,0,0,0,22.188-4.133ZM29.9-4.3a4.968,4.968,0,0,1,.914-3.145,2.923,2.923,0,0,1,2.422-1.168,2.908,2.908,0,0,1,2.414,1.094l.07-.937h1.32V-.2a3.439,3.439,0,0,1-.973,2.586,3.589,3.589,0,0,1-2.613.945,4.348,4.348,0,0,1-1.789-.391,3.08,3.08,0,0,1-1.336-1.07L31.078,1a2.826,2.826,0,0,0,2.273,1.148A2.214,2.214,0,0,0,35,1.555a2.269,2.269,0,0,0,.59-1.672V-.844a2.971,2.971,0,0,1-2.367,1,2.887,2.887,0,0,1-2.4-1.2A5.224,5.224,0,0,1,29.9-4.3Zm1.453.164a3.79,3.79,0,0,0,.586,2.246,1.9,1.9,0,0,0,1.641.816,2.117,2.117,0,0,0,2.008-1.242V-6.172a2.142,2.142,0,0,0-1.992-1.211,1.921,1.921,0,0,0-1.648.82A4.128,4.128,0,0,0,31.352-4.133ZM40.789,0H39.344V-12h1.445Zm5.82.156a3.693,3.693,0,0,1-2.8-1.129,4.19,4.19,0,0,1-1.078-3.02v-.266a5.073,5.073,0,0,1,.48-2.246,3.748,3.748,0,0,1,1.344-1.547,3.378,3.378,0,0,1,1.871-.559,3.166,3.166,0,0,1,2.563,1.086,4.7,4.7,0,0,1,.914,3.109v.6H44.18a3,3,0,0,0,.73,2.02,2.3,2.3,0,0,0,1.777.77,2.517,2.517,0,0,0,1.3-.312,3.259,3.259,0,0,0,.93-.828l.883.688A3.55,3.55,0,0,1,46.609.156Zm-.18-7.578a1.928,1.928,0,0,0-1.469.637A3.1,3.1,0,0,0,44.227-5h4.234v-.109a2.753,2.753,0,0,0-.594-1.707A1.815,1.815,0,0,0,46.43-7.422ZM55.766,0V-11.375h3.211a5.169,5.169,0,0,1,2.625.656,4.438,4.438,0,0,1,1.762,1.867,6.078,6.078,0,0,1,.629,2.781v.727a6.1,6.1,0,0,1-.621,2.82A4.369,4.369,0,0,1,61.6-.664,5.5,5.5,0,0,1,58.914,0Zm1.5-10.141v8.914h1.578a3.435,3.435,0,0,0,2.7-1.078,4.452,4.452,0,0,0,.965-3.07v-.664a4.522,4.522,0,0,0-.91-3.012,3.24,3.24,0,0,0-2.582-1.09ZM70.117-7.156a4.331,4.331,0,0,0-.711-.055A1.9,1.9,0,0,0,67.477-6V0H66.031V-8.453h1.406l.023.977a2.251,2.251,0,0,1,2.016-1.133,1.477,1.477,0,0,1,.641.109ZM73.016,0H71.57V-8.453h1.445ZM71.453-10.7a.863.863,0,0,1,.215-.594.807.807,0,0,1,.637-.242.819.819,0,0,1,.641.242.854.854,0,0,1,.219.594.826.826,0,0,1-.219.586.834.834,0,0,1-.641.234.821.821,0,0,1-.637-.234A.834.834,0,0,1,71.453-10.7Zm6.664,8.734,2.094-6.492h1.477L78.656,0h-1.1L74.492-8.453h1.477ZM86.586.156a3.693,3.693,0,0,1-2.8-1.129,4.19,4.19,0,0,1-1.078-3.02v-.266a5.073,5.073,0,0,1,.48-2.246,3.748,3.748,0,0,1,1.344-1.547,3.378,3.378,0,0,1,1.871-.559,3.166,3.166,0,0,1,2.563,1.086,4.7,4.7,0,0,1,.914,3.109v.6H84.156a3,3,0,0,0,.73,2.02,2.3,2.3,0,0,0,1.777.77,2.517,2.517,0,0,0,1.3-.312,3.259,3.259,0,0,0,.93-.828l.883.688A3.55,3.55,0,0,1,86.586.156Zm-.18-7.578a1.928,1.928,0,0,0-1.469.637A3.1,3.1,0,0,0,84.2-5h4.234v-.109a2.753,2.753,0,0,0-.594-1.707A1.815,1.815,0,0,0,86.406-7.422Z" transform="translate(171.142 385.429)"/>
    <g id="Google_Drive_icon__2020_" data-name="Google_Drive_icon_(2020)" transform="translate(125.142 365.686)">
      <path id="Path_155709" data-name="Path 155709" d="M2.495,25.27,3.95,27.784A3.432,3.432,0,0,0,5.2,29.031l5.2-9H0a3.424,3.424,0,0,0,.454,1.7Z" fill="#0066da"/>
      <path id="Path_155710" data-name="Path 155710" d="M16.5,9.45l-5.2-9A3.432,3.432,0,0,0,10.055,1.7L.454,18.333A3.425,3.425,0,0,0,0,20.034H10.4Z" fill="#00ac47"/>
      <path id="Path_155711" data-name="Path 155711" d="M27.8,29.031a3.432,3.432,0,0,0,1.247-1.247l.6-1.04,2.892-5.009a3.424,3.424,0,0,0,.454-1.7H22.6l2.212,4.347Z" fill="#ea4335"/>
      <path id="Path_155712" data-name="Path 155712" d="M16.5,9.45l5.2-9A3.323,3.323,0,0,0,20,0H13a3.519,3.519,0,0,0-1.7.454Z" fill="#00832d"/>
      <path id="Path_155713" data-name="Path 155713" d="M22.6,20.034H10.4l-5.2,9a3.323,3.323,0,0,0,1.7.454H26.1a3.519,3.519,0,0,0,1.7-.454Z" fill="#2684fc"/>
      <path id="Path_155714" data-name="Path 155714" d="M27.746,10.017,22.945,1.7A3.432,3.432,0,0,0,21.7.454l-5.2,9,6.1,10.584H32.981a3.424,3.424,0,0,0-.454-1.7Z" fill="#ffba00"/>
    </g>
  </g>
</svg>
