<svg xmlns="http://www.w3.org/2000/svg" xmlns:xlink="http://www.w3.org/1999/xlink" width="36" height="36" viewBox="0 0 36 36">
  <defs>
    <linearGradient id="linear-gradient" x1="0.5" x2="0.5" y2="0.942" gradientUnits="objectBoundingBox">
      <stop offset="0" stop-color="@fill"/>
      <stop offset="1" stop-color="@fill2"/>
    </linearGradient>
  </defs>
  <g id="Group_57353" data-name="Group 57353" transform="translate(-266 -71)">
    <g id="question_mark_black_24dp" transform="translate(274.836 78.836)">
      <g id="Group_57355" data-name="Group 57355">
        <rect id="Rectangle_6977" data-name="Rectangle 6977" width="0" height="0" transform="translate(0.164 0.164)" fill="none"/>
      </g>
    </g>
    <rect id="Rectangle_6981" data-name="Rectangle 6981" width="36" height="36" rx="8" transform="translate(266 71)" fill="@stroke" opacity="0.1"/>
    <path id="Path_155493" data-name="Path 155493" d="M10,10.522c.588-1.061,1.718-1.688,2.375-2.627A1.8,1.8,0,0,0,10.71,5.069,2.322,2.322,0,0,0,8.518,6.856L6.54,6.024A4.322,4.322,0,0,1,10.7,3a4.1,4.1,0,0,1,3.65,1.84,3.67,3.67,0,0,1,.023,3.742c-.916,1.352-1.795,1.764-2.268,2.635-.191.351-.267.58-.267,1.711H9.633A4.616,4.616,0,0,1,10,10.522Zm2.237,5.46a1.527,1.527,0,1,1-1.527-1.527A1.532,1.532,0,0,1,12.237,15.982Z" transform="translate(273.46 79)" fill="url(#linear-gradient)"/>
  </g>
</svg>
