<svg xmlns="http://www.w3.org/2000/svg" xmlns:xlink="http://www.w3.org/1999/xlink" width="21.018" height="20.689" viewBox="0 0 21.018 20.689">
  <defs>
    <linearGradient id="linear-gradient" x1="0.5" x2="0.5" y2="1" gradientUnits="objectBoundingBox">
      <stop offset="0" stop-color="@fill"/>
      <stop offset="1" stop-color="@fill2"/>
    </linearGradient>
  </defs>
  <g id="tab_history_selected_icon" transform="translate(0.499 0.501)">
    <g id="Group_57452" data-name="Group 57452">
      <path id="Path_155529" data-name="Path 155529" d="M4.926,4.679a1.436,1.436,0,0,1,.217.14q.708.7,1.41,1.408A.931.931,0,0,1,6.818,7.31a.967.967,0,0,1-.95.59c-1.3-.005-2.592,0-3.888,0A1.9,1.9,0,0,1,0,5.916Q0,3.972,0,2.028A.933.933,0,0,1,.615,1.08a.9.9,0,0,1,1.047.253c.506.515,1.02,1.022,1.531,1.533.346-.293.671-.592,1.02-.86A9.4,9.4,0,0,1,9,.067,9.607,9.607,0,0,1,17.032,2.8a9.412,9.412,0,0,1,2.9,5.864,9.783,9.783,0,0,1-5.031,9.8A9.188,9.188,0,0,1,9.51,19.649a9.692,9.692,0,0,1-8.474-6.123A8.525,8.525,0,0,1,.416,11.3a1.258,1.258,0,0,1,1-1.415,1.242,1.242,0,0,1,1.473.937,8.547,8.547,0,0,0,.543,1.888,7.153,7.153,0,0,0,5.775,4.358A7.292,7.292,0,0,0,11.4,2.648,7.184,7.184,0,0,0,5.085,4.569c-.029.026-.064.045-.159.11" transform="translate(0 0.001)" stroke="rgba(0,0,0,0)" stroke-width="1" fill="url(#linear-gradient)"/>
      <path id="Path_155530" data-name="Path 155530" d="M113.8,72.052c0-.612-.016-1.224,0-1.835a1.261,1.261,0,0,1,2.412-.433,1.779,1.779,0,0,1,.114.626c.013.781,0,1.562.011,2.343a.487.487,0,0,0,.123.3c.372.391.765.762,1.137,1.154a1.235,1.235,0,0,1,.234,1.393,1.3,1.3,0,0,1-1.217.761,1.211,1.211,0,0,1-.825-.352q-.966-.953-1.918-1.919a.381.381,0,0,1-.079-.244c-.006-.6,0-1.2,0-1.8Z" transform="translate(-104.9 -63.636)" stroke="rgba(0,0,0,0)" stroke-width="1" fill="url(#linear-gradient)"/>
    </g>
  </g>
</svg>
