<svg xmlns="http://www.w3.org/2000/svg" xmlns:xlink="http://www.w3.org/1999/xlink" width="16.001" height="16.001" viewBox="0 0 16.001 16.001">
  <defs>
    <linearGradient id="linear-gradient" x1="0.5" x2="0.5" y2="0.942" gradientUnits="objectBoundingBox">
      <stop offset="0" stop-color="#f59b4b"/>
      <stop offset="1" stop-color="#e86e04"/>
    </linearGradient>
  </defs>
  <path id="info_FILL0_wght400_GRAD0_opsz48" d="M87.46-868h1.2v-4.8h-1.2Zm.54-6.28a.65.65,0,0,0,.47-.184.609.609,0,0,0,.19-.456.669.669,0,0,0-.19-.484.628.628,0,0,0-.47-.2.63.63,0,0,0-.47.2.668.668,0,0,0-.19.484.61.61,0,0,0,.19.456A.649.649,0,0,0,88-874.28ZM88.006-864a7.744,7.744,0,0,1-3.11-.63,8.129,8.129,0,0,1-2.545-1.72,8.125,8.125,0,0,1-1.72-2.547,7.759,7.759,0,0,1-.63-3.113,7.758,7.758,0,0,1,.63-3.113,8.006,8.006,0,0,1,1.72-2.537,8.213,8.213,0,0,1,2.547-1.71A7.758,7.758,0,0,1,88.01-880a7.759,7.759,0,0,1,3.113.63,8.091,8.091,0,0,1,2.537,1.71,8.08,8.08,0,0,1,1.71,2.54A7.777,7.777,0,0,1,96-872a7.744,7.744,0,0,1-.63,3.11,8.172,8.172,0,0,1-1.71,2.542,8.077,8.077,0,0,1-2.54,1.72A7.738,7.738,0,0,1,88.006-864Zm0-1.2a6.532,6.532,0,0,0,4.81-1.99,6.582,6.582,0,0,0,1.98-4.82,6.555,6.555,0,0,0-1.976-4.81A6.557,6.557,0,0,0,88-878.8a6.576,6.576,0,0,0-4.81,1.976A6.54,6.54,0,0,0,81.2-872a6.554,6.554,0,0,0,1.99,4.81A6.565,6.565,0,0,0,88.01-865.2ZM88-872Z" transform="translate(-80 880)" fill="url(#linear-gradient)"/>
</svg>
