<svg width="20" height="20" viewBox="0 0 20 20" fill="none" xmlns="http://www.w3.org/2000/svg">
<path d="M10.0075 19.8271C8.65847 19.8271 7.37273 19.5666 6.18597 19.0527C4.99995 18.5393 3.94817 17.8286 3.05989 16.9402C2.1713 16.0515 1.46052 14.9991 0.947266 13.8122C0.433487 12.6242 0.172974 11.3372 0.172974 9.98694C0.172974 8.63666 0.433487 7.34967 0.947281 6.16168C1.46068 4.97437 2.17157 3.92596 3.0602 3.04541C3.9487 2.16516 5.00098 1.45862 6.18784 0.945312C7.37594 0.43158 8.66296 0.171082 10.0132 0.171082C11.3634 0.171082 12.6504 0.43158 13.8385 0.945312C15.0255 1.45868 16.0738 2.16534 16.9543 3.04572C17.8347 3.92615 18.5414 4.97583 19.0548 6.16559C19.5685 7.35614 19.829 8.64374 19.829 9.99261C19.829 11.3414 19.5685 12.6272 19.0547 13.8141C18.5415 14.9998 17.8349 16.0499 16.9545 16.9355C16.074 17.8212 15.0244 18.532 13.8348 19.0483C12.6441 19.5651 11.3564 19.8271 10.0075 19.8271ZM10.001 1.83026C7.75294 1.83026 5.80878 2.62903 4.22249 4.20435C2.63641 5.77954 1.83218 7.72919 1.83218 9.99908C1.83218 12.2469 2.63649 14.191 4.22274 15.7774C5.80904 17.3636 7.75721 18.1679 10.0132 18.1679C12.269 18.1679 14.213 17.3636 15.7913 15.7775C17.3696 14.1912 18.1698 12.243 18.1698 9.98694C18.1698 7.73096 17.3711 5.7868 15.7959 4.20856C14.2208 2.63049 12.2711 1.83026 10.001 1.83026ZM10.9036 14.9631H10.8036H9.34436H9.24435V14.8631V9.02631V8.92633H9.34436H10.8036H10.9036V9.02631V14.8631V14.9631ZM10.0006 7.32654C9.74751 7.32654 9.53178 7.24182 9.35942 7.07465C9.18625 6.90662 9.09845 6.69586 9.09845 6.4483C9.09845 6.18829 9.1857 5.96667 9.35776 5.78949C9.53059 5.61163 9.74715 5.52148 10.0014 5.52148C10.2557 5.52148 10.4722 5.61169 10.6447 5.78955C10.8165 5.96674 10.9036 6.18835 10.9036 6.4483C10.9036 6.69592 10.8156 6.90668 10.6421 7.07471C10.4695 7.24182 10.2536 7.32654 10.0006 7.32654Z" fill="url(#paint0_linear_14_4014)"/>
<path d="M10.0075 19.7271C11.3489 19.7271 12.6114 19.4703 13.795 18.9565C14.9785 18.4429 16.0081 17.7457 16.8836 16.8651C17.7591 15.9843 18.4522 14.9542 18.963 13.7744C19.4737 12.5945 19.729 11.334 19.729 9.99261C19.729 8.65118 19.4737 7.38873 18.963 6.2052C18.4522 5.02161 17.7591 3.992 16.8836 3.11646C16.0081 2.24103 14.9798 1.54785 13.7988 1.03711C12.6178 0.526428 11.356 0.271057 10.0132 0.271057C8.67041 0.271057 7.40853 0.526428 6.22755 1.03711C5.04655 1.54785 4.01424 2.24103 3.13062 3.11646C2.24699 3.992 1.54981 5.02026 1.03908 6.20135C0.528374 7.38226 0.273003 8.6441 0.273003 9.98694C0.273003 11.3297 0.528374 12.5916 1.03908 13.7725C1.54981 14.9536 2.24699 15.9858 3.13062 16.8695C4.01424 17.7532 5.04594 18.4503 6.22572 18.961C7.40552 19.4718 8.6661 19.7271 10.0075 19.7271ZM10.001 1.73029C12.3094 1.73029 14.2646 2.53284 15.8667 4.13794C17.4688 5.7431 18.2699 7.69275 18.2699 9.98694C18.2699 12.2811 17.4673 14.2348 15.8622 15.8481C14.257 17.4612 12.3074 18.2679 10.0132 18.2679C7.719 18.2679 5.76528 17.4612 4.15205 15.8481C2.53883 14.2348 1.73221 12.2852 1.73221 9.99908C1.73221 7.69067 2.53883 5.73553 4.15205 4.13336C5.76528 2.53131 7.71495 1.73029 10.001 1.73029ZM10.8036 14.8631V9.02631H9.34438V14.8631H10.8036ZM10.0006 7.22656C10.2279 7.22656 10.4185 7.15198 10.5725 7.00287C10.7266 6.8537 10.8036 6.66888 10.8036 6.4483C10.8036 6.21411 10.7267 6.01776 10.573 5.85919C10.4192 5.70068 10.2287 5.62146 10.0015 5.62146C9.77419 5.62146 9.58353 5.70068 9.42951 5.85919C9.27547 6.01776 9.19847 6.21411 9.19847 6.4483C9.19847 6.66888 9.27534 6.8537 9.42906 7.00287C9.58282 7.15198 9.77332 7.22656 10.0006 7.22656ZM10.0075 19.9271C8.64474 19.9271 7.34563 19.6638 6.14626 19.1445C4.94863 18.626 3.88643 17.9082 2.98919 17.0109C2.09165 16.1133 1.37378 15.0504 0.855507 13.8519C0.336273 12.6513 0.072998 11.351 0.072998 9.98694C0.072998 8.62292 0.336273 7.32257 0.855507 6.12195C1.374 4.92291 2.0921 3.86395 2.98985 2.97437C3.88722 2.08533 4.94983 1.37177 6.14816 0.853516C7.34888 0.334351 8.64925 0.0710449 10.0132 0.0710449C11.3771 0.0710449 12.6775 0.334351 13.8782 0.853516C15.0769 1.37195 16.1356 2.08569 17.025 2.97504C17.9144 3.86444 18.6282 4.92456 19.1466 6.12598C19.6658 7.3291 19.929 8.63 19.929 9.99261C19.929 11.3552 19.6658 12.6543 19.1465 13.8539C18.6283 15.051 17.9147 16.1115 17.0255 17.006C16.136 17.9007 15.0759 18.6187 13.8746 19.14C12.6713 19.6623 11.3702 19.9271 10.0075 19.9271ZM10.001 1.9303C7.78032 1.9303 5.85986 2.71924 4.29298 4.27527C2.72649 5.83105 1.93221 7.75677 1.93221 9.99908C1.93221 12.2195 2.72665 14.1398 4.29347 15.7067C5.86033 17.2734 7.78472 18.0679 10.0132 18.0679C12.2414 18.0679 14.1616 17.2736 15.7204 15.707C17.2794 14.1401 18.0699 12.2156 18.0699 9.98694C18.0699 7.75842 17.281 5.83807 15.7252 4.27924C14.1695 2.72058 12.2436 1.9303 10.001 1.9303ZM11.0036 15.0631H9.14438V8.82629H11.0036V15.0631ZM10.0006 7.42657C9.72064 7.42657 9.4815 7.33234 9.28983 7.14642C9.09648 6.9588 8.99847 6.72394 8.99847 6.4483C8.99847 6.16138 9.09523 5.91626 9.28605 5.71985C9.47844 5.52185 9.71913 5.42145 10.0015 5.42145C10.2839 5.42145 10.5244 5.52191 10.7166 5.71997C10.907 5.91644 11.0036 6.16144 11.0036 6.4483C11.0036 6.72406 10.9054 6.95898 10.7117 7.14655C10.5198 7.33234 10.2805 7.42657 10.0006 7.42657Z" fill="#EE8224"/>
<defs>
<linearGradient id="paint0_linear_14_4014" x1="0.172974" y1="9.99908" x2="19.829" y2="9.99908" gradientUnits="userSpaceOnUse">
<stop stop-color="#FF5300"/>
<stop offset="0.16" stop-color="#FB5103"/>
<stop offset="0.31" stop-color="#F04C0F"/>
<stop offset="0.46" stop-color="#DE4322"/>
<stop offset="0.61" stop-color="#C5363C"/>
<stop offset="0.75" stop-color="#A4265F"/>
<stop offset="0.9" stop-color="#7C1389"/>
<stop offset="1" stop-color="#5B03AD"/>
</linearGradient>
</defs>
</svg>
