<svg xmlns="http://www.w3.org/2000/svg" xmlns:xlink="http://www.w3.org/1999/xlink" width="88.316" height="56.896" viewBox="0 0 88.316 56.896">
  <defs>
    <filter id="Union_3" x="0" y="0" width="88.316" height="56.896" filterUnits="userSpaceOnUse">
      <feOffset dx="1" dy="5" input="SourceAlpha"/>
      <feGaussianBlur stdDeviation="2.5" result="blur"/>
      <feFlood flood-opacity="0.149"/>
      <feComposite operator="in" in2="blur"/>
      <feComposite in="SourceGraphic"/>
    </filter>
  </defs>
  <g id="inji_small_logo" transform="translate(-113.854 -33.898)">
    <g transform="matrix(1, 0, 0, 1, 113.85, 33.9)" filter="url(#Union_3)">
      <path id="Union_3-2" data-name="Union 3" d="M28.023,41.891a3.022,3.022,0,0,1-2.058-.975L15.5,28.85c-.036-.041-.2-.233-.25-.289a15.243,15.243,0,0,1-2.225-16.025c.1-.218.509-1.019.623-1.221A15.17,15.17,0,0,1,20.192,5.16c.18-.087.88-.4,1.063-.467A15.124,15.124,0,0,1,38.213,8.852l10.568,12.19a3.035,3.035,0,0,1,.743,2.2,3.022,3.022,0,0,1-5.307,1.773L33.644,12.824A9.076,9.076,0,0,0,23.47,10.331c-.111.044-.531.228-.636.278A9.108,9.108,0,0,0,18.91,14.3c-.071.126-.318.607-.374.734a9.151,9.151,0,0,0,1.333,9.616l.2.229,10.464,12.06A3.031,3.031,0,0,1,28.193,41.9Q28.108,41.9,28.023,41.891Zm15.007-4.015A15.135,15.135,0,0,1,35.208,33.1l-5.286-6.1-5.287-6.1A3.032,3.032,0,0,1,24.9,16.6a3.017,3.017,0,0,1,4.3.337l5.286,6.1,5.286,6.1a9.074,9.074,0,0,0,10.174,2.493c.11-.05.531-.228.636-.279a9.1,9.1,0,0,0,3.925-3.692c.071-.125.318-.607.374-.732A9.153,9.153,0,0,0,53.546,17.3c-.028-.037-.159-.185-.2-.228L42.889,5.008a3.026,3.026,0,0,1,4.564-3.975L57.914,13.1c.037.042.2.233.251.29a15.249,15.249,0,0,1,2.225,16.026c-.1.217-.51,1.019-.621,1.223a15.117,15.117,0,0,1-6.541,6.156c-.181.087-.88.4-1.062.467a15.12,15.12,0,0,1-9.137.617ZM67.374,36a3.031,3.031,0,0,1-2.285-4.488A17.151,17.151,0,0,0,63.2,12.025a3.035,3.035,0,0,1,.321-4.247l.027-.023a3.021,3.021,0,0,1,4.263.35,23.072,23.072,0,0,1,5.4,17.247,23.606,23.606,0,0,1-.415,2.659.015.015,0,0,1,0,.008,23.142,23.142,0,0,1-2.42,6.454,3.023,3.023,0,0,1-2.639,1.55A2.962,2.962,0,0,1,67.374,36ZM8.611,35.843a3.018,3.018,0,0,1-2.122-.927A23.066,23.066,0,0,1,.015,18.048a23.992,23.992,0,0,1,.247-2.68,23.185,23.185,0,0,1,2.01-6.6,3.026,3.026,0,1,1,5.455,2.619,17.128,17.128,0,0,0-1.484,4.872A17.539,17.539,0,0,0,6.06,18.25a17.05,17.05,0,0,0,4.785,12.461,3.037,3.037,0,0,1-.053,4.26L10.766,35a3.023,3.023,0,0,1-2.1.848Z" transform="translate(6.5 2.5)" fill="#fff"/>
    </g>
  </g>
</svg>
