<svg width="75" height="42" viewBox="0 0 75 42" fill="none" xmlns="http://www.w3.org/2000/svg">
<path d="M63.6733 29.9466C56.3731 37.1543 46.1277 41.3675 35.1997 40.6718C24.7423 39.9796 15.5417 35.0696 9.17497 27.7364C16.4723 20.5282 26.6049 16.3154 37.6488 17.0112C48.1063 17.7071 57.3067 22.6137 63.6733 29.9466Z" stroke="white"/>
<path fill-rule="evenodd" clip-rule="evenodd" d="M20.9333 37.3923V37.4796C25.2412 39.5059 30.0251 40.8161 35.0489 41.1742C55.8605 42.4844 73.6859 26.7615 74.9999 6.15183V3.77131C70.6921 1.745 65.9082 0.434757 60.7663 0.0767257C46.5947 -0.823014 33.7713 6.26456 26.6721 17.4392C30.184 16.607 33.8791 16.2726 37.6807 16.5122C48.4445 17.2283 57.8942 22.3474 64.354 29.9727C56.9382 37.4761 46.4106 41.8868 35.1669 41.1707C30.0681 40.8333 25.2642 39.5062 20.9333 37.3923Z" fill="#E7E7E7"/>
<path fill-rule="evenodd" clip-rule="evenodd" d="M8.52057 27.6832C3.86004 22.0959 0.805243 15.1545 0 7.5801C6.4598 3.76744 13.9937 1.62306 22.0075 2.21724C34.8672 2.95748 45.7966 10.0909 51.9357 20.3025C47.5993 18.1829 42.7881 16.852 37.681 16.5122C26.3329 15.797 15.9347 20.1962 8.52057 27.6832ZM12.7886 32.0332C18.82 37.2616 26.5613 40.6243 35.1671 41.1741C35.4684 41.192 35.769 41.2064 36.069 41.2172C35.7689 41.2054 35.4683 41.1899 35.1671 41.1707C26.5909 40.6032 18.8488 37.2356 12.7886 32.0332Z" fill="white"/>
<path d="M33.1334 26.7577C24.7616 24.2553 16.1498 24.8533 8.61206 27.8318C8.61206 27.8318 8.73013 27.9499 8.85202 28.0679C16.0279 25.4475 24.0417 24.9714 31.8194 27.3519C39.1171 29.4963 45.2151 33.785 49.6409 39.266C50.1209 39.0298 50.597 38.9079 51.1988 38.6718C46.5329 33.1908 40.4312 29.024 33.1334 26.7577ZM12.798 32.1167C13.2779 32.4748 13.6359 32.8328 13.994 33.069C15.0719 33.3051 16.146 33.5451 17.2239 33.9031C21.8897 35.3314 25.9537 37.5977 29.5455 40.4543C30.3834 40.5724 31.3394 40.6943 32.1774 40.9304C28.3495 37.4758 23.6837 34.8553 18.4198 33.3051C16.6259 32.829 14.71 32.3529 12.798 32.1129V32.1167ZM29.4274 28.426C22.4915 26.3997 15.4337 26.3997 8.85202 28.0679C8.97009 28.186 9.09198 28.3079 9.21005 28.426C15.1899 26.9977 21.7678 27.1157 28.2276 29.0202C35.1635 31.1645 41.1472 35.2133 45.4512 40.3362C46.053 40.2182 46.651 40.0963 47.1271 39.9782C42.7012 34.7372 36.6033 30.5666 29.4236 28.4222L29.4274 28.426ZM25.7176 30.0943C20.3357 28.426 14.8319 28.0679 9.56808 28.9021C9.68616 29.0202 9.80804 29.142 9.92611 29.3782C14.71 28.784 19.6158 29.1382 24.5178 30.6884C31.0957 32.5929 36.7175 36.2874 41.0253 41.0523C41.6233 41.0523 42.2213 40.9342 42.8231 40.8123C38.3934 35.9294 32.6535 32.1167 25.7176 30.0904V30.0943ZM10.646 30.0943C10.8859 30.3342 11.1259 30.5704 11.362 30.6884C14.4739 30.8065 17.7 31.2826 20.8118 32.2386C26.7917 34.025 31.8155 37.1216 35.8834 41.1742C36.5995 41.2923 37.3193 41.2923 38.0354 41.2923C33.7314 36.8854 28.3457 33.5489 22.1258 31.6445C18.298 30.5742 14.4701 30.0943 10.6422 30.0943H10.646Z" fill="#EEEEEE"/>
<path d="M8.61197 27.7099C18.1798 23.303 29.4235 22.8269 39.8331 27.4737C45.215 29.858 49.8808 33.4307 53.3507 37.7195C57.4147 35.8151 61.1245 33.1946 64.2363 29.9761C57.8984 22.3508 48.4487 17.2317 37.6811 16.5157C26.3193 15.7996 15.7916 20.2102 8.4939 27.7137" fill="white"/>
<path d="M8.73385 27.4737C17.4637 21.5167 28.4713 19.1361 39.475 21.8747C47.6107 23.901 54.3067 28.4259 59.2125 34.2649C61.0065 33.0727 62.8004 31.5263 64.3544 29.9761C57.8946 22.3508 48.4449 17.2317 37.6811 16.5157C26.4374 15.7996 15.9097 20.2102 8.4939 27.7137" fill="url(#paint0_linear_22_1224)"/>
<defs>
<linearGradient id="paint0_linear_22_1224" x1="26.3673" y1="19.9218" x2="64.3544" y2="25.3524" gradientUnits="userSpaceOnUse">
<stop stop-color="#E7E7E7"/>
<stop offset="1" stop-color="white"/>
</linearGradient>
</defs>
</svg>
