<svg width="64" height="55" viewBox="0 0 64 55" fill="none" xmlns="http://www.w3.org/2000/svg">
<mask id="mask0_17_6175" style="mask-type:luminance" maskUnits="userSpaceOnUse" x="0" y="27" width="58" height="16">
<path d="M46.2199 29.1224L43.6606 33.542C43.1318 34.4553 42.125 35.0528 41.1181 35.0528L4.89385 35.0247L0.883301 42.4716L37.462 42.4997C38.4913 42.4997 39.5207 41.874 40.0382 40.9269L42.3781 36.6595C42.8956 35.7181 43.925 35.0867 44.9543 35.0867L53.0542 35.0979L57.0816 27.6229L48.7624 27.6116C47.7555 27.6116 46.7486 28.2091 46.2199 29.1224Z" fill="white"/>
</mask>
<g mask="url(#mask0_17_6175)">
<path d="M57.9701 42.3081L1.60872 54.5185L0 27.7976L56.3614 15.5872L57.9701 42.3081Z" fill="white"/>
</g>
<mask id="mask1_17_6175" style="mask-type:luminance" maskUnits="userSpaceOnUse" x="6" y="16" width="58" height="16">
<path d="M46.8777 17.921L44.3184 22.3407C43.7896 23.2539 42.7828 23.8515 41.7759 23.8515L10.929 23.8289L6.91846 31.2758L38.1197 31.2984C39.1491 31.2984 40.1784 30.6727 40.6959 29.7256L43.0359 25.4581C43.5534 24.5167 44.5827 23.8853 45.6121 23.8853L59.0893 23.8966L63.1167 16.4215L49.4201 16.4102C48.4133 16.4102 47.4064 17.0078 46.8777 17.921Z" fill="white"/>
</mask>
<g mask="url(#mask1_17_6175)">
<path d="M63.9999 31.1067L7.6385 43.3172L6.02979 16.6019L62.3912 4.38583L63.9999 31.1067Z" fill="white"/>
</g>
<mask id="mask2_17_6175" style="mask-type:luminance" maskUnits="userSpaceOnUse" x="12" y="12" width="34" height="9">
<path d="M16.9532 12.6445L12.9258 20.1196L38.8959 20.1365C40.3246 20.1365 41.7646 19.2853 42.5183 17.9887L45.6064 12.6671L16.9532 12.6445Z" fill="white"/>
</mask>
<g mask="url(#mask2_17_6175)">
<path d="M36.9779 32.7867L9.15723 18.1634L21.5489 0L49.3696 14.6232L36.9779 32.7867Z" fill="white"/>
</g>
</svg>
