<svg width="1599" height="1599" viewBox="0 0 1599 1599" fill="none" xmlns="http://www.w3.org/2000/svg">
    <g id="PurpleLogo">
        <path id="Vector" d="M1432.18 1156.62C1370.48 1266.08 1279.55 1360.95 1162.86 1428.33C815.471 1628.89 371.272 1509.87 170.71 1162.48C169.506 1160.4 168.315 1158.31 167.134 1156.22M1526.1 805.497C1527.28 680.063 1495.96 552.677 1428.7 436.179C1259.49 143.093 916.85 12.559 605.244 99.363M73.3079 806.047C71.6869 611.437 148.438 420.461 290.746 280.938M872.61 1229.09C922.31 1220.67 971.38 1203.41 1017.6 1176.73C1226.03 1056.39 1297.44 789.87 1177.1 581.44C1150.27 534.973 1116.18 495.315 1077.09 463.075M521.872 1135.21C482.966 1103.04 449.032 1063.51 422.308 1017.22C301.97 808.79 373.384 542.27 581.815 421.933C627.722 395.428 676.448 378.225 725.809 369.74" stroke="#2E31A6" stroke-width="145.26" stroke-linecap="round" stroke-linejoin="round"/>
        <path id="Vector_2" d="M782.497 958.294C871.167 958.294 943.048 886.413 943.048 797.743C943.048 709.073 871.167 637.192 782.497 637.192C693.827 637.192 621.946 709.073 621.946 797.743C621.946 886.413 693.827 958.294 782.497 958.294Z" stroke="#2E31A6" stroke-width="107.034"/>
    </g>
</svg>