<svg xmlns="http://www.w3.org/2000/svg" xmlns:xlink="http://www.w3.org/1999/xlink" width="105.65" height="40.549" viewBox="0 0 105.65 40.549">
  <defs>
    <linearGradient id="linear-gradient" x1="1.046" y1="0.477" x2="0" y2="0.48" gradientUnits="objectBoundingBox">
      <stop offset="0" stop-color="@fill"/>
      <stop offset="1" stop-color="@fill2"/>
    </linearGradient>
  </defs>
  <g id="Group_58222" transform="translate(-14.5 -41.469)" fill="#000000">
    <g id="Group_57586" transform="translate(14.5 41.469)">
      <g id="Landscape_Inji_Logo_Scalable" fill="#000000">
        <g id="Group_57553">
          <path id="Path_155574" d="M142.378,138.31h-7.752a2.806,2.806,0,0,0-2.805,2.805v.878a2.806,2.806,0,0,0,2.805,2.805h7.752a1.464,1.464,0,0,0,1.465-1.46h0v-3.564a1.464,1.464,0,0,0-1.465-1.463Zm-7.311,5.133a1.892,1.892,0,1,1,1.892-1.894,1.892,1.892,0,0,1-1.892,1.894h0Z" transform="translate(-109.952 -120.259)" fill="url(#linear-gradient)"/>
          <path id="Path_155575" d="M39.451,88.407h7.092V86.292a7.982,7.982,0,0,0-7.978-7.982H22.482A7.982,7.982,0,0,0,14.5,86.288v1.952h3.857l1.668-4.3h5.6a1.731,1.731,0,1,1-.032,1.558h-4.5l-1.67,4.3H14.5v2.68h7.407a1.729,1.729,0,1,1,0,1.558H14.5v2.632h4.925l1.668,4.3h7.618a1.727,1.727,0,1,1,.032,1.56H20.027l-1.668-4.3H14.5v1.547a7.979,7.979,0,0,0,7.978,7.98H38.562a7.98,7.98,0,0,0,7.982-7.976V97.063H39.451a4.328,4.328,0,0,1,0-8.656h0Z" transform="translate(-14.5 -71.443)" fill="url(#linear-gradient)"/>
          <path id="Path_155576" d="M86.1,56.3H99.929s-.186-2.865-2.367-3.176S86.1,56.3,86.1,56.3Z" transform="translate(-72.754 -50.936)" fill="url(#linear-gradient)"/>
          <path id="Path_155577" d="M62.88,46.377l10.039-3.083s-1.236-2.062-2.889-1.8-7.15,4.885-7.15,4.885Z" transform="translate(-53.862 -41.469)" fill="url(#linear-gradient)"/>
        </g>
        <path id="Path_10" d="M231.322,103.364H227.68V88.34h3.642Zm5.079,0h-3.642V88.347h5.406q4.806,0,7.169,2.151t2.364,6.763v6.1h-3.642V96.758a4.419,4.419,0,0,0-1.609-3.817,7,7,0,0,0-4.244-1.182h-1.8v11.605h0Zm19.777-6.975v-4.63H248.97V88.349h10.852v8.544A6.1,6.1,0,0,1,258,101.505a5.944,5.944,0,0,1-2.789,1.512,17.54,17.54,0,0,1-3.8.349h-2.561V99.954h3.061q4.264,0,4.265-3.564m8.528,6.971h-3.646V88.347H264.7Z" transform="translate(-187.944 -79.603)" fill="#000000"/>
      </g>
    </g>
    <g id="Mobile" transform="translate(53.644 69.921)" style="mix-blend-mode: normal;isolation: isolate" fill="#000000">
      <g id="Group_58225" data-name="Group 58225" style="mix-blend-mode: normal;isolation: isolate" fill="#000000">
        <path id="Path_155735" data-name="Path 155735" d="M224.5,202.106v-8H226l3.7,2.595h.056l3.7-2.595h1.5v8h-1.789v-5.76l-2.539,1.7v4.06h-1.789v-4.06l-2.55-1.7v5.76Z" transform="translate(-224.5 -194.11)"/>
        <path id="Path_155736" data-name="Path 155736" d="M352.36,202.106v-7.974l6.733-.022a2.971,2.971,0,0,1,1.974.554,2.072,2.072,0,0,1,.643,1.661,1.838,1.838,0,0,1-.738,1.622,1.737,1.737,0,0,1,.727.71,2.409,2.409,0,0,1,.235,1.135,2.208,2.208,0,0,1-.643,1.717,2.852,2.852,0,0,1-1.974.587Zm6.52-6.565h-4.731v1.789h4.731q1.018,0,1.018-.917c0-.611-.339-.872-1.018-.872Zm.224,3.221h-4.954v1.9H359.1q1.018,0,1.018-.962C360.122,199.061,359.782,198.762,359.1,198.762Z" transform="translate(-328.527 -194.11)"/>
        <path id="Path_155737" data-name="Path 155737" d="M410.32,202.106v-8h1.789v8Z" transform="translate(-375.684 -194.11)"/>
        <path id="Path_155738" data-name="Path 155738" d="M428.32,202.106v-8h1.789v6.543h5.849v1.454Z" transform="translate(-390.328 -194.11)"/>
        <path id="Path_155739" data-name="Path 155739" d="M475.3,202.106v-8h8.768v1.454h-6.979v1.767h6.33v1.454h-6.33v1.868h6.979v1.454Z" transform="translate(-428.551 -194.11)"/>
      </g>
    </g>
    <path id="Subtraction_1" d="M517.484,168.7H509.1a2.8,2.8,0,0,1-2.8-2.8h1.864a.935.935,0,0,0,.932.932h8.388a.932.932,0,0,0,.932-.932v-15.1a.932.932,0,0,0-.932-.932H509.1a.932.932,0,0,0-.932.932v4.287H506.3v-4.287a2.8,2.8,0,0,1,2.8-2.8h8.388a2.8,2.8,0,0,1,2.8,2.8v15.1A2.8,2.8,0,0,1,517.484,168.7Z" transform="translate(-400.13 -86.682)" fill="url(#linear-gradient)"/>
    <circle id="Ellipse_1178" cx="1.398" cy="1.398" r="1.398" transform="translate(111.762 75.494)" fill="#000000"/>
    <path id="Path_155740" data-name="Path 155740" d="M296.565,194.833a5.009,5.009,0,0,0-3.389-1.023h-2.013a5.009,5.009,0,0,0-3.389,1.023,4.5,4.5,0,0,0,0,6.062,4.88,4.88,0,0,0,3.31,1.023h2.147a4.917,4.917,0,0,0,3.333-1.023,4.5,4.5,0,0,0,0-6.062Zm-.7,3.573c0,.06,0,.119-.009.179h.006c0,.021-.009.039-.013.06a1.859,1.859,0,0,1-.291.787l-.006.009-.013.019a1.767,1.767,0,0,1-.544.557,3.55,3.55,0,0,1-1.94.447H291.32a3.873,3.873,0,0,1-1.827-.365,1.864,1.864,0,0,1-1.085-1.693v-1.118a1.865,1.865,0,0,1,1.437-1.814,4.335,4.335,0,0,1,1.441-.212h1.767a3.789,3.789,0,0,1,1.788.362,1.866,1.866,0,0,1,1.016,1.482.148.148,0,0,0,.006.024h0c0,.052.007.1.007.157V198.4Z" transform="translate(-221.381 -123.945)"/>
  </g>
</svg>
