<svg width="360" height="138" viewBox="0 0 360 138" fill="none" xmlns="http://www.w3.org/2000/svg">
<g clip-path="url(#clip0_92_67)">
<path d="M109.61 61.4868H83.4325C80.9207 61.4881 78.5121 62.4877 76.736 64.2657C74.96 66.044 73.9618 68.4555 73.9605 70.9704V73.9383C73.9618 76.4532 74.96 78.8647 76.736 80.643C78.5121 82.4212 80.9207 83.4206 83.4325 83.4219H109.61C110.258 83.4231 110.901 83.2965 111.5 83.0488C112.1 82.8018 112.645 82.4382 113.104 81.9801C113.563 81.522 113.928 80.9776 114.177 80.3777C114.427 79.7784 114.555 79.1357 114.556 78.4866V66.4359C114.555 65.1233 114.033 63.865 113.105 62.937C112.178 62.009 110.921 61.4875 109.61 61.4868ZM84.9267 78.8402C83.6635 78.8402 82.4287 78.4652 81.3783 77.7633C80.3285 77.0606 79.5097 76.0619 79.0263 74.8936C78.543 73.7253 78.4158 72.4399 78.6625 71.1997C78.9086 69.959 79.5166 68.8197 80.4097 67.9256C81.3027 67.0314 82.4407 66.422 83.6793 66.175C84.9179 65.928 86.2018 66.0547 87.3686 66.5386C88.5361 67.0219 89.5337 67.8417 90.2354 68.8928C90.9371 69.9445 91.3123 71.1802 91.3123 72.4449C91.3123 73.2849 91.1474 74.116 90.8264 74.8917C90.5054 75.668 90.0353 76.3732 89.4424 76.9668C88.8495 77.5603 88.1453 78.0317 87.3705 78.3531C86.5958 78.6744 85.7656 78.8402 84.9267 78.8402Z" fill="url(#paint0_linear_92_67)"/>
<path d="M84.3715 57.8132H108.322V50.663C108.323 47.1199 107.626 43.6113 106.272 40.3377C104.919 37.0641 102.934 34.0897 100.431 31.5843C97.9288 29.0789 94.9582 27.0917 91.6886 25.7361C88.419 24.3805 84.9147 23.6831 81.3757 23.6837H27.0736C23.5347 23.6831 20.0304 24.3805 16.7608 25.7361C13.4912 27.0917 10.5204 29.0789 8.01806 31.5843C5.51571 34.0897 3.53087 37.0641 2.17691 40.3377C0.822955 43.6113 0.126414 47.1199 0.127076 50.663V57.2505H13.15L18.7841 42.7057H37.6879C38.3041 41.5437 39.2936 40.6236 40.4966 40.0942C41.6995 39.5647 43.0456 39.4567 44.3173 39.7877C45.5891 40.1188 46.7123 40.8694 47.5053 41.9184C48.2985 42.9674 48.7151 44.2535 48.6881 45.5688C48.6611 46.8842 48.192 48.152 47.3565 49.1674C46.521 50.1829 45.3679 50.8867 44.0837 51.1651C42.7994 51.4435 41.4589 51.2802 40.2787 50.7017C39.0986 50.1231 38.1477 49.1631 37.5797 47.9768H22.3848L16.7488 62.521H0.127076V71.5842H25.1357C25.7278 70.4109 26.6976 69.472 27.8885 68.9181C29.0794 68.3648 30.4218 68.23 31.6989 68.5343C32.9761 68.8393 34.1134 69.5659 34.9271 70.5974C35.7408 71.6289 36.1833 72.905 36.1833 74.2201C36.1833 75.5345 35.7408 76.8106 34.9271 77.8421C34.1134 78.8736 32.9761 79.6002 31.6989 79.9052C30.4218 80.2095 29.0794 80.0747 27.8885 79.5214C26.6976 78.9675 25.7278 78.0286 25.1357 76.8553H0.127076V85.7522H16.7544L22.3885 100.297H48.1084C48.6763 99.1136 49.626 98.1558 50.8042 97.5793C51.9825 97.0027 53.3205 96.8401 54.6022 97.1186C55.8839 97.3971 57.0345 98.0997 57.8681 99.1136C58.7018 100.127 59.1699 101.393 59.1968 102.705C59.2238 104.018 58.8081 105.302 58.0167 106.349C57.2253 107.396 56.1046 108.145 54.8354 108.476C53.5662 108.808 52.2227 108.701 51.0218 108.172C49.8209 107.645 48.8326 106.728 48.2167 105.568H18.7873L13.1532 91.0233H0.127076V96.2534C0.126414 99.7967 0.822955 103.305 2.17691 106.579C3.53087 109.852 5.51571 112.827 8.01806 115.332C10.5204 117.838 13.4912 119.825 16.7608 121.18C20.0304 122.536 23.5347 123.233 27.0736 123.233H81.3732C84.9128 123.234 88.4171 122.536 91.6873 121.181C94.9576 119.825 97.9288 117.838 100.431 115.332C102.934 112.826 104.919 109.851 106.273 106.577C107.627 103.303 108.324 99.7942 108.322 96.2503V87.0818H84.3715C80.4953 87.0818 76.7769 85.5399 74.036 82.7956C71.2951 80.0514 69.755 76.3285 69.755 72.4475C69.755 68.5665 71.2951 64.8443 74.036 62.0995C76.7769 59.355 80.4953 57.8132 84.3715 57.8132Z" fill="url(#paint1_linear_92_67)"/>
<path d="M45.185 18.596H91.8793C91.8793 18.596 91.25 8.90887 83.8863 7.85717C76.5227 6.80547 45.185 18.596 45.185 18.596Z" fill="url(#paint2_linear_92_67)"/>
<path d="M30.5767 17.0528L64.4746 6.62904C64.4746 6.62904 60.3006 -0.341527 54.7193 0.536884C49.1381 1.41529 30.5767 17.0528 30.5767 17.0528Z" fill="url(#paint3_linear_92_67)"/>
<path d="M146.59 80.7835H134.29V29.9945H146.59L146.59 80.7835ZM163.74 80.7835H151.442V30.0229H169.693C180.509 30.0229 188.578 32.4464 193.899 37.2934C199.22 42.1404 201.881 49.76 201.883 60.1522V80.788H189.585V58.4515C189.585 52.508 187.775 48.2072 184.154 45.5488C179.931 42.7089 174.906 41.3081 169.825 41.5544H163.741V80.7835H163.74ZM230.52 57.2038V41.55H206.181V30.0229H242.822V58.9071C242.946 61.7921 242.462 64.6709 241.402 67.3566C240.342 70.0422 238.73 72.4746 236.671 74.496C234.053 77.021 230.799 78.7866 227.257 79.6039C223.038 80.4603 218.739 80.856 214.435 80.7835H205.787V69.252H216.123C225.719 69.252 230.518 65.2349 230.52 57.2013M259.316 80.781H247.008V30.0229H259.306L259.316 80.781Z" fill="black"/>
<path d="M134.559 121.156L131.538 94.1235H137.58L139.808 113.859L147.323 108.075V94.1235H153.365V108.113L160.804 113.859L163.07 94.1235H169.112L166.091 121.156H161.031L150.344 112.498L139.62 121.156H134.559ZM169.855 121.156L182.015 94.1235H191.342L203.501 121.156H196.931L194.363 115.447H178.994L176.426 121.156H169.855ZM181.184 110.532H192.173L186.924 98.8496H186.433L181.184 110.532ZM206.527 121.156V94.1235H212.569V116.241H232.319V121.156H206.527ZM236.103 121.156V94.1235H242.145V116.241H261.894V121.156H236.103ZM265.678 121.156V94.1235H295.284V99.0386H271.72V105.012H293.093V109.927H271.72V116.241H295.284V121.156H265.678ZM298.477 107.81V94.1235H331.708V107.81H325.59V99.0386H317.358V121.156H311.316V99.0386H304.595V107.81H298.477Z" fill="black"/>
<path d="M350.559 137.54H322.238C319.735 137.538 317.335 136.541 315.565 134.769C313.795 132.997 312.8 130.594 312.797 128.088H319.091C319.09 128.502 319.171 128.912 319.329 129.294C319.488 129.676 319.72 130.023 320.014 130.315C320.305 130.609 320.651 130.841 321.033 131C321.415 131.159 321.824 131.239 322.238 131.239H350.559C351.394 131.238 352.194 130.906 352.784 130.315C353.373 129.724 353.706 128.924 353.706 128.088V77.0469C353.706 76.2113 353.373 75.4104 352.784 74.82C352.194 74.2289 351.394 73.8968 350.559 73.8962H322.238C321.403 73.8968 320.603 74.2289 320.014 74.82C319.423 75.4104 319.092 76.2113 319.091 77.0469V91.5401H312.797V77.0469C312.8 74.5408 313.795 72.1388 315.565 70.3662C317.335 68.5942 319.735 67.598 322.238 67.5948H350.559C353.062 67.598 355.462 68.5942 357.232 70.3662C359.002 72.1388 359.997 74.5408 360 77.0469V128.088C359.997 130.594 359.002 132.997 357.232 134.769C355.462 136.541 353.062 137.538 350.559 137.54Z" fill="url(#paint4_linear_92_67)"/>
<path d="M336.399 124.937C339.005 124.937 341.119 122.821 341.119 120.211C341.119 117.601 339.005 115.485 336.399 115.485C333.792 115.485 331.678 117.601 331.678 120.211C331.678 122.821 333.792 124.937 336.399 124.937Z" fill="black"/>
</g>
<defs>
<linearGradient id="paint0_linear_92_67" x1="73.9605" y1="72.4543" x2="114.556" y2="72.4543" gradientUnits="userSpaceOnUse">
<stop stop-color="#0DAA9D"/>
<stop offset="1" stop-color="#00A3DD"/>
</linearGradient>
<linearGradient id="paint1_linear_92_67" x1="0.127075" y1="73.4582" x2="108.322" y2="73.4582" gradientUnits="userSpaceOnUse">
<stop stop-color="#1EB53A"/>
<stop offset="1" stop-color="#00A3DD"/>
</linearGradient>
<linearGradient id="paint2_linear_92_67" x1="45.185" y1="13.1934" x2="91.8793" y2="13.1934" gradientUnits="userSpaceOnUse">
<stop stop-color="#1EB53A"/>
<stop offset="1" stop-color="#00A3DD"/>
</linearGradient>
<linearGradient id="paint3_linear_92_67" x1="52.2378" y1="-37.1781" x2="-0.999352" y2="8.75781" gradientUnits="userSpaceOnUse">
<stop stop-color="#00A3DD"/>
<stop offset="1" stop-color="#1EB53A"/>
</linearGradient>
<linearGradient id="paint4_linear_92_67" x1="312.797" y1="67.4247" x2="360.079" y2="137.317" gradientUnits="userSpaceOnUse">
<stop stop-color="#1EB53A"/>
<stop offset="1" stop-color="#01A2FD"/>
</linearGradient>
<clipPath id="clip0_92_67">
<rect width="360" height="138" fill="white"/>
</clipPath>
</defs>
</svg>
