<svg width="174" height="54" viewBox="0 0 174 54" fill="none" xmlns="http://www.w3.org/2000/svg">
<g clip-path="url(#clip0_409_826)">
<path d="M24.4117 3.76513V8.87602C21.4634 7.0916 18.4736 6.10536 15.2931 6.10536C8.96518 6.10536 5.34925 10.6604 5.34925 15.5749C5.34925 20.4894 8.96518 24.8857 15.2143 24.8857C18.5938 24.8857 21.6997 23.8577 24.6107 21.9144V26.9836C21.5463 28.6468 18.2414 29.3614 14.6254 29.3614C4.99264 29.3572 0 22.5037 0 15.529C0 7.29219 6.44813 1.62549 14.7001 1.62549C17.7645 1.62549 20.9906 2.2983 24.4117 3.76513Z" fill="white"/>
<path d="M57.0712 15.4496C57.0712 22.8171 51.7261 29.353 42.2923 29.353C32.8586 29.353 27.8286 22.8965 27.8286 15.529C27.8286 8.67543 32.5849 1.62549 42.4499 1.62549C51.2948 1.62549 57.0712 7.76441 57.0712 15.4496ZM33.1323 15.529C33.1323 20.9157 37.2209 24.6391 42.3297 24.6391C47.4384 24.6391 51.7634 21.4297 51.7634 15.4496C51.7634 10.9739 48.5414 6.33938 42.4872 6.33938C36.433 6.33938 33.1323 10.3011 33.1323 15.529Z" fill="white"/>
<path d="M66.5009 1.98047L75.1882 12.7539L83.8382 1.98047H88.5945V28.9976H83.407V9.70741L75.5075 19.691H74.7984L66.8202 9.70741V29.0018H61.7114V1.98047H66.505H66.5009Z" fill="white"/>
<path d="M104.078 1.98047C109.854 1.98047 113.317 4.90994 113.317 9.90382C113.317 14.8977 109.975 17.7854 103.883 17.7854H99.637V28.9976H94.4495V1.98047H104.078ZM99.637 13.7861H103.095C106.906 13.7861 108.009 12.2399 108.009 9.86621C108.009 7.32957 106.711 5.94214 102.979 5.94214H99.637V13.7861Z" fill="white"/>
<path d="M151.911 3.64394V8.67543C149.787 6.81161 147.507 5.78358 145.11 5.78358C142.713 5.78358 141.531 6.9328 141.531 8.55842C141.531 9.94584 142.041 11.0533 145.778 13.1135C150.849 15.926 153.009 17.8692 153.009 21.9479C153.009 26.2648 149.551 29.3572 144.521 29.3572C141.73 29.3572 138.977 28.4838 136.58 26.9794V21.5133C138.94 23.9287 141.494 25.1573 144.09 25.1573C146.408 25.1573 147.826 23.8117 147.826 22.1067C147.826 20.4017 147.316 19.4112 142.439 16.7576C138.981 14.7767 136.427 12.6789 136.427 8.71722C136.427 4.75555 139.69 1.62549 144.878 1.62549C147.474 1.62549 149.949 2.37771 151.915 3.64394H151.911Z" fill="white"/>
<path d="M172.901 3.64394V8.67543C170.778 6.81161 168.497 5.78358 166.1 5.78358C163.704 5.78358 162.522 6.9328 162.522 8.55842C162.522 9.94584 163.032 11.0533 166.768 13.1135C171.839 15.926 174 17.8692 174 21.9479C174 26.2648 170.542 29.3572 165.512 29.3572C162.721 29.3572 159.967 28.4838 157.571 26.9794V21.5133C159.93 23.9287 162.485 25.1573 165.08 25.1573C167.398 25.1573 168.817 23.8117 168.817 22.1067C168.817 20.4017 168.306 19.4112 163.43 16.7576C159.972 14.7767 157.417 12.6789 157.417 8.71722C157.417 4.75555 160.681 1.62549 165.868 1.62549C168.464 1.62549 170.94 2.37771 172.905 3.64394H172.901Z" fill="white"/>
<path d="M108.362 27.9281L122.071 23.8369L133.275 32.7883L125.994 0L108.362 27.9281Z" fill="white"/>
<path d="M30.4866 40.1141L30.2709 41.5892C29.6531 41.443 29.0228 41.3719 28.3634 41.3719C25.2037 41.3719 23.4123 43.2525 23.4123 45.5384C23.4123 47.2894 24.5319 48.5472 26.0703 48.5472C26.7006 48.5472 27.418 48.3592 27.9239 48.1294L28.152 46.5246H26.6592L26.8458 45.25H29.906L29.3462 49.1699C28.2142 49.7048 27.0365 50.0224 25.9874 50.0224C23.4745 50.0224 21.679 48.1837 21.679 45.6512C21.679 42.7594 23.6611 39.8926 28.4132 39.8926C29.3172 39.8926 30.0802 39.9929 30.4949 40.1099L30.4866 40.1141Z" fill="white"/>
<path d="M33.3311 43.1938L32.7712 47.143C32.7132 47.5483 32.6842 47.7364 32.6842 48.0122C32.6842 48.4761 32.9288 48.7937 33.3891 48.7937C33.8784 48.7937 34.3926 48.4468 35.2717 47.4606L35.873 43.1938H37.4073L36.4452 49.8928H34.911L35.0685 48.8522C34.1645 49.6922 33.4762 50.0098 32.8293 50.0098C31.6516 50.0098 31.1333 49.2158 31.1333 48.1292C31.1333 47.8994 31.1748 47.5233 31.2204 47.2182L31.7926 43.198H33.3269L33.3311 43.1938Z" fill="white"/>
<path d="M40.7495 43.1941L39.7999 49.893H38.249L39.2111 43.1941H40.7453H40.7495ZM41.0522 41.2258C41.0522 41.673 40.6914 42.0365 40.2477 42.0365C39.804 42.0365 39.4433 41.673 39.4433 41.2258C39.4433 40.7787 39.804 40.4443 40.2477 40.4443C40.6914 40.4443 41.0522 40.7912 41.0522 41.2258Z" fill="white"/>
<path d="M48.5744 40.0266L47.1811 49.864C46.4762 50.0102 45.9164 50.0813 45.2446 50.0813C42.7732 50.0813 41.6702 48.6771 41.6702 46.9846C41.6702 44.9746 43.221 43.0188 45.7464 43.0188C46.0325 43.0188 46.3642 43.0313 46.6213 43.0773L47.036 40.0225H48.5703L48.5744 40.0266ZM45.2861 48.7941C45.4727 48.7941 45.6303 48.7774 45.8044 48.7524L46.4347 44.3519C46.3186 44.3226 46.1486 44.2934 45.9164 44.2934C44.2784 44.2934 43.2749 45.4927 43.2749 46.9554C43.2749 48.1422 44.0628 48.7941 45.2861 48.7941Z" fill="white"/>
<path d="M51.4314 43.1941L50.4818 49.893H48.9309L49.8929 43.1941H51.4272H51.4314ZM51.7341 41.2258C51.7341 41.673 51.3733 42.0365 50.9296 42.0365C50.4859 42.0365 50.1252 41.673 50.1252 41.2258C50.1252 40.7787 50.4859 40.4443 50.9296 40.4443C51.3733 40.4443 51.7341 40.7912 51.7341 41.2258Z" fill="white"/>
<path d="M58.5679 45.0619C58.5679 45.2917 58.5099 45.8141 58.4808 46.0607L57.892 49.8928H56.3577L56.9465 46.0607C56.9756 45.7723 57.0336 45.3795 57.0336 45.1914C57.0336 44.6147 56.7475 44.3515 56.3453 44.3515C55.7689 44.3515 55.1096 44.8279 54.4378 45.6846L53.8199 49.897H52.2856L53.2601 43.1981H54.7944L54.6202 44.2679C55.4081 43.4572 56.1421 43.0811 56.847 43.0811C57.9542 43.0811 58.5679 43.8207 58.5679 45.0619Z" fill="white"/>
<path d="M66.0196 43.1938L65.8621 44.3514H64.6844C64.9581 44.786 65.0452 45.1747 65.0452 45.5675C65.0452 46.8254 64.2697 47.9119 62.5613 48.0833C61.3131 48.2588 61.1555 48.3591 61.1555 48.6892C61.1555 49.0193 61.6739 49.1071 62.5198 49.3411L63.0962 49.4874C64.4314 49.8217 64.9332 50.4444 64.9332 51.2969C64.9332 52.1494 64.1743 53.2652 62.0181 53.2652C60.0235 53.2652 58.9868 52.5715 58.9868 51.556C58.9868 50.9333 59.4595 50.4402 60.7823 50.1226C60.1064 49.8468 59.7208 49.4874 59.7208 48.9525C59.7208 48.2421 60.3677 47.9119 61.0685 47.7239C60.3635 47.4063 59.8493 46.6958 59.8493 45.7723C59.8493 44.3096 60.8528 43.198 62.5903 43.198H66.0196V43.1938ZM62.0429 52.2079C62.9759 52.2079 63.4487 51.8903 63.4487 51.4682C63.4487 51.0796 63.1335 50.8038 61.8563 50.5698C60.8528 50.8456 60.405 51.1047 60.405 51.51C60.405 51.9572 61.1514 52.2037 62.0429 52.2037V52.2079ZM62.3705 47.0134C63.1169 47.0134 63.5897 46.2905 63.5897 45.5215C63.5897 44.7526 63.1294 44.2929 62.5281 44.2929C61.7402 44.2929 61.309 45.0451 61.309 45.8099C61.309 46.4911 61.6988 47.0093 62.3705 47.0093V47.0134Z" fill="white"/>
<path d="M74.877 43.7412L74.6904 45.0576C73.8859 44.4934 73.2681 44.2761 72.7083 44.2761C72.2646 44.2761 72.0033 44.4809 72.0033 44.8528C72.0033 45.1411 72.1899 45.3585 72.8783 45.8641C73.6828 46.4408 74.4997 46.9799 74.4997 48.15C74.4997 49.3201 73.5667 50.0723 72.2604 50.0723C71.4726 50.0723 70.6805 49.784 69.9922 49.3201L70.2203 47.9912C70.9252 48.4969 71.626 48.8312 72.2604 48.8312C72.7497 48.8312 73.0068 48.5554 73.0068 48.196C73.0068 47.7321 72.5051 47.402 71.6592 46.7918C70.7967 46.1399 70.5105 45.5632 70.5105 44.9406C70.5105 43.854 71.344 43.0308 72.7083 43.0308C73.4257 43.0308 74.143 43.2481 74.877 43.7412Z" fill="white"/>
<path d="M82.1254 43.2067L81.1634 49.8931H79.6415L79.7411 49.1534C79.1813 49.705 78.6215 49.9934 77.9746 49.9934C76.7264 49.9934 75.7354 48.9069 75.7354 47.2144C75.7354 45.0288 77.1867 43.002 80.2304 43.002C80.9063 43.002 81.7108 43.119 82.1254 43.2067ZM78.4224 48.7063C78.9822 48.7063 79.5711 48.3427 79.9318 47.883L80.4626 44.2807C80.3465 44.2682 80.1889 44.2515 80.0189 44.2515C78.1819 44.2515 77.3194 45.8854 77.3194 47.2018C77.3194 48.1714 77.7921 48.7063 78.4266 48.7063H78.4224Z" fill="white"/>
<path d="M88.7313 40.185L88.5447 41.4889C88.13 41.2841 87.7112 41.2005 87.2965 41.2005C86.293 41.2005 85.8162 41.7229 85.6296 43.0811L85.6171 43.1981H87.309L87.1224 44.4267H85.4305L84.3233 52.6886H82.7891L83.8962 44.4267H82.8471L83.0337 43.1981H84.0828L84.1119 42.9683C84.4436 40.4358 85.8493 39.9009 87.1721 39.9009C87.7029 39.9009 88.2503 40.0012 88.7354 40.1892L88.7313 40.185Z" fill="white"/>
<path d="M93.1225 45.8687C93.1225 46.1738 93.0935 46.4204 93.0645 46.6209H88.8721C88.8597 46.8508 88.8597 46.9678 88.8597 47.0974C88.8597 48.1546 89.461 48.8901 90.394 48.8901C90.9953 48.8901 91.7002 48.6603 92.7493 47.9791L92.5212 49.4125C91.7873 49.8597 91.0865 50.077 90.2945 50.077C88.4284 50.077 87.3088 48.8316 87.3088 46.8926C87.3088 44.824 88.6855 43.002 90.5806 43.002C92.0154 43.002 93.1225 44.0718 93.1225 45.8687ZM91.6297 45.6514V45.5637C91.6297 44.7529 91.2565 44.1762 90.5516 44.1762C89.8922 44.1762 89.3739 44.6694 89.0712 45.6514H91.6256H91.6297Z" fill="white"/>
<path d="M104.149 44.4228C104.854 43.5703 105.687 43.0771 106.504 43.0771C107.653 43.0771 108.212 43.8879 108.212 44.9577C108.212 45.2753 108.154 45.7099 108.125 45.9272L107.566 49.8931H106.027L106.603 45.7977C106.632 45.5929 106.662 45.3338 106.662 45.175C106.662 44.5983 106.404 44.2765 106.015 44.2765C105.496 44.2765 104.808 44.7989 104.178 45.6096L103.56 49.8931H102.038L102.569 46.203C102.639 45.7559 102.668 45.3213 102.668 45.1332C102.668 44.5816 102.395 44.2932 101.98 44.2932C101.478 44.2932 100.86 44.7989 100.184 45.6389L99.5665 49.8931H98.0281L98.9901 43.1942H100.529L100.383 44.264C101.117 43.4533 101.847 43.0771 102.594 43.0771C103.381 43.0771 103.958 43.5703 104.144 44.4228H104.149Z" fill="white"/>
<path d="M111.775 43.1941L110.825 49.893H109.274L110.236 43.1941H111.775ZM112.073 41.2258C112.073 41.673 111.712 42.0365 111.269 42.0365C110.825 42.0365 110.464 41.673 110.464 41.2258C110.464 40.7787 110.825 40.4443 111.269 40.4443C111.712 40.4443 112.073 40.7912 112.073 41.2258Z" fill="white"/>
<path d="M118.994 43.1938L118.836 44.3514H117.659C117.932 44.786 118.019 45.1747 118.019 45.5675C118.019 46.8254 117.244 47.9119 115.535 48.0833C114.287 48.2588 114.13 48.3591 114.13 48.6892C114.13 49.0193 114.648 49.1071 115.494 49.3411L116.066 49.4874C117.401 49.8217 117.903 50.4444 117.903 51.2969C117.903 52.1494 117.144 53.2652 114.988 53.2652C112.993 53.2652 111.957 52.5715 111.957 51.556C111.957 50.9333 112.43 50.4402 113.752 50.1226C113.076 49.8468 112.691 49.4874 112.691 48.9525C112.691 48.2421 113.338 47.9119 114.038 47.7239C113.334 47.4063 112.819 46.6958 112.819 45.7723C112.819 44.3096 113.823 43.198 115.56 43.198H118.99L118.994 43.1938ZM115.017 52.2079C115.95 52.2079 116.423 51.8903 116.423 51.4682C116.423 51.0796 116.108 50.8038 114.83 50.5698C113.827 50.8456 113.379 51.1047 113.379 51.51C113.379 51.9572 114.126 52.2037 115.017 52.2037V52.2079ZM115.349 47.0134C116.095 47.0134 116.568 46.2905 116.568 45.5215C116.568 44.7526 116.108 44.2929 115.506 44.2929C114.718 44.2929 114.287 45.0451 114.287 45.8099C114.287 46.4911 114.673 47.0093 115.349 47.0093V47.0134Z" fill="white"/>
<path d="M124.277 43.4825L123.53 44.9869C123.302 44.7278 123.087 44.6108 122.796 44.6108C122.149 44.6108 121.706 45.292 121.275 46.1027L120.727 49.8931H119.205L120.167 43.1942H121.689L121.515 44.4813C122.191 43.47 122.722 43.0771 123.253 43.0771C123.655 43.0771 123.97 43.2652 124.273 43.4825H124.277Z" fill="white"/>
<path d="M130.596 43.2067L129.634 49.8931H128.112L128.212 49.1534C127.652 49.705 127.092 49.9934 126.445 49.9934C125.197 49.9934 124.206 48.9069 124.206 47.2144C124.206 45.0288 125.657 43.002 128.701 43.002C129.377 43.002 130.181 43.119 130.596 43.2067ZM126.889 48.7063C127.449 48.7063 128.038 48.3427 128.394 47.883L128.925 44.2807C128.809 44.2682 128.651 44.2515 128.481 44.2515C126.644 44.2515 125.782 45.8854 125.782 47.2018C125.782 48.1714 126.255 48.7063 126.889 48.7063Z" fill="white"/>
<path d="M134.573 41.8359L134.345 43.1941H136.037L135.85 44.4227H134.1L133.628 47.0555C133.557 47.4734 133.482 47.8662 133.482 48.0668C133.482 48.4847 133.682 48.702 134.042 48.702C134.457 48.702 135.062 48.4847 135.419 48.2256L135.191 49.7175C134.689 49.9766 134.171 50.0811 133.64 50.0811C132.504 50.0811 131.932 49.4291 131.932 48.4304C131.932 48.1713 131.973 47.7659 132.06 47.2853L132.562 44.4227H131.372L131.558 43.1941H132.794L133.039 41.8359H134.573Z" fill="white"/>
<path d="M138.819 43.1941L137.87 49.893H136.319L137.281 43.1941H138.819ZM139.122 41.2258C139.122 41.673 138.761 42.0365 138.318 42.0365C137.874 42.0365 137.513 41.673 137.513 41.2258C137.513 40.7787 137.874 40.4443 138.318 40.4443C138.761 40.4443 139.122 40.7912 139.122 41.2258Z" fill="white"/>
<path d="M145.84 46.0314C145.84 48.0708 144.604 50.0809 142.481 50.0809C140.744 50.0809 139.74 48.9233 139.74 47.1305C139.74 44.8571 141.088 43.0059 143.144 43.0059C144.695 43.0059 145.844 44.1216 145.844 46.0314H145.84ZM142.51 48.7478C143.659 48.7478 144.26 47.4021 144.26 45.9688C144.26 44.8697 143.787 44.3181 143.024 44.3181C141.677 44.3181 141.316 46.3449 141.316 47.1974C141.316 48.1794 141.747 48.7436 142.506 48.7436L142.51 48.7478Z" fill="white"/>
<path d="M153.034 45.0619C153.034 45.2917 152.976 45.8141 152.947 46.0607L152.358 49.8928H150.824L151.413 46.0607C151.442 45.7723 151.5 45.3795 151.5 45.1914C151.5 44.6147 151.214 44.3515 150.812 44.3515C150.239 44.3515 149.576 44.8279 148.904 45.6846L148.286 49.897H146.748L147.722 43.1981H149.257L149.082 44.2679C149.87 43.4572 150.604 43.0811 151.309 43.0811C152.416 43.0811 153.034 43.8207 153.034 45.0619Z" fill="white"/>
</g>
<defs>
<clipPath id="clip0_409_826">
<rect width="174" height="53.2653" fill="white"/>
</clipPath>
</defs>
</svg>
