<svg width="463" height="155" viewBox="0 0 463 155" fill="none" xmlns="http://www.w3.org/2000/svg">
<path d="M54.96 92.1414V98.4014C66.27 103.721 78.83 107.161 92.02 108.101C146.66 111.541 193.46 70.2614 196.91 16.1514V9.90144C185.6 4.58144 173.04 1.14144 159.54 0.201441C105.2 -3.24856 58.41 38.0314 54.96 92.1414Z" fill="#52AE32"/>
<path d="M0 19.9015C5.02 67.1215 43.34 104.972 92.33 108.102C113.37 109.352 133.16 104.032 149.8 93.7115C145.09 46.8015 106.77 8.64152 57.78 5.82152C36.74 4.26152 16.96 9.89152 0 19.9015Z" fill="#006535"/>
<path d="M22.2998 72.7516C39.2598 92.7716 64.0698 106.222 92.3298 108.092C121.85 109.972 149.49 98.3916 168.96 78.6916C152 58.6716 127.19 45.2316 98.9298 43.3516C69.0998 41.4716 41.7698 53.0516 22.2998 72.7516Z" fill="#744A2C"/>
<path d="M22.6098 72.7514C47.7298 61.1814 77.2498 59.9314 104.58 72.1314C118.71 78.3914 130.96 87.7714 140.07 99.0314C150.74 94.0314 160.48 87.1514 168.65 78.7014C152.01 58.6814 127.2 45.2414 98.9298 43.3614C69.0998 41.4814 41.4598 53.0614 22.2998 72.7614" fill="#008739"/>
<path d="M22.9298 72.1314C45.8498 56.4914 74.7498 50.2414 103.64 57.4314C125 62.7514 142.58 74.6314 155.46 89.9614C160.17 86.8314 164.88 82.7714 168.96 78.7014C152 58.6814 127.19 45.2414 98.9298 43.3614C69.4098 41.4814 41.7698 53.0614 22.2998 72.7614" fill="#00B0DB"/>
<path d="M86.9903 70.2516C65.0103 63.6816 42.4004 65.2516 22.6104 73.0716C22.6104 73.0716 22.9204 73.3816 23.2404 73.6916C42.0804 66.8116 63.1204 65.5616 83.5404 71.8116C102.7 77.4416 118.71 88.7016 130.33 103.092C131.59 102.472 132.84 102.152 134.42 101.532C122.17 87.1416 106.15 76.2016 86.9903 70.2516ZM33.6003 84.3216C34.8603 85.2616 35.8004 86.2016 36.7404 86.8216C39.5704 87.4416 42.3904 88.0716 45.2204 89.0116C57.4704 92.7616 68.1404 98.7116 77.5704 106.212C79.7704 106.522 82.2804 106.842 84.4804 107.462C74.4304 98.3916 62.1804 91.5116 48.3604 87.4416C43.6504 86.1916 38.6203 84.9416 33.6003 84.3116V84.3216ZM77.2604 74.6316C59.0504 69.3116 40.5204 69.3116 23.2404 73.6916C23.5504 74.0016 23.8704 74.3216 24.1804 74.6316C39.8804 70.8816 57.1504 71.1916 74.1104 76.1916C92.3204 81.8216 108.03 92.4516 119.33 105.902C120.91 105.592 122.48 105.272 123.73 104.962C112.11 91.2016 96.1003 80.2516 77.2504 74.6216L77.2604 74.6316ZM67.5203 79.0116C53.3903 74.6316 38.9404 73.6916 25.1204 75.8816C25.4304 76.1916 25.7504 76.5116 26.0604 77.1316C38.6203 75.5716 51.5004 76.5016 64.3704 80.5716C81.6404 85.5716 96.4004 95.2716 107.71 107.782C109.28 107.782 110.85 107.472 112.43 107.152C100.8 94.3316 85.7303 84.3216 67.5203 79.0016V79.0116ZM27.9504 79.0116C28.5804 79.6416 29.2104 80.2616 29.8304 80.5716C38.0004 80.8816 46.4704 82.1316 54.6404 84.6416C70.3404 89.3316 83.5303 97.4616 94.2104 108.102C96.0903 108.412 97.9804 108.412 99.8604 108.412C88.5603 96.8416 74.4203 88.0816 58.0904 83.0816C48.0404 80.2716 37.9904 79.0116 27.9404 79.0116H27.9504Z" fill="#52AE32"/>
<path d="M280.76 96.8414L279.82 107.161C274.17 109.041 267.89 109.661 261.29 109.661C245.27 109.661 233.34 105.281 225.18 96.8414C217.33 88.0814 213.25 77.4514 213.25 64.9414C213.25 51.4914 217.64 40.2414 226.75 30.8514C235.54 21.1514 247.79 16.4614 262.86 16.4614C266.94 16.4614 271.34 17.0814 276.06 18.3414L273.86 29.2914C268.84 27.7214 263.81 26.7914 259.73 26.7914C248.42 26.7914 239.94 30.2314 234.29 37.1014C228.32 44.3014 225.49 52.7414 225.49 62.7514C225.49 72.7614 228.95 81.5214 235.54 89.0214C242.14 96.2114 251.56 99.9714 263.18 99.9714C267.58 99.9714 273.55 98.7214 280.76 96.8414Z" fill="#008739"/>
<path d="M349.22 69.6317C338.23 42.4217 332.9 28.0317 332.9 26.4717H332.26C332.26 27.7217 326.61 42.1017 315.3 69.6317H349.22ZM375.92 107.782H361.16C361.16 104.652 358.34 94.9617 352.37 78.6917H312.17C306.52 94.9517 303.69 104.652 303.69 107.782H289.56C289.56 106.222 295.53 91.5217 307.46 63.6817C319.38 35.8517 325.35 20.5217 325.35 17.7017H341.68C341.68 20.5217 347.33 35.5317 358.64 63.0517C370.26 90.2617 375.92 105.272 375.92 107.782Z" fill="#008739"/>
<path d="M441.24 43.0416C441.24 31.7916 433.7 26.4716 418.94 26.4716C413.6 26.4716 408.89 26.7916 405.44 27.4116C405.76 35.2316 406.07 46.1816 406.07 59.9416C408.58 60.2516 411.41 60.2516 413.92 60.2516C432.13 60.2516 441.24 54.3116 441.24 43.0416ZM462.59 107.782H449.08C444.69 94.6416 441.54 85.8916 439.35 81.5116C436.84 76.1916 433.7 72.7516 430.55 71.1916C428.04 69.9416 423.33 69.3116 416.42 69.3116H406.05C406.05 84.3216 406.37 97.1516 406.99 107.782H393.8C394.74 93.7116 395.05 77.7516 395.05 60.5516C395.05 44.2916 394.74 29.9016 393.8 17.7016H403.85C405.74 17.7016 408.56 17.7016 411.7 17.3916H422.69C443.1 17.3916 453.15 24.2716 453.15 38.3416C453.15 49.9116 447.49 58.0416 435.87 62.7316V63.3616C441.21 64.9216 445.29 68.3616 448.43 73.9916C450.94 78.6816 455.66 89.9416 462.57 107.772L462.59 107.782Z" fill="#008739"/>
<path d="M16.64 151.572L16.33 154.072C15.07 154.382 13.5 154.702 11.93 154.702C7.85 154.702 5.02 153.452 3.14 151.262C1.26 149.382 0 146.572 0 143.442C0 140.312 1.26 137.502 3.45 135.312C5.65 132.812 8.47 131.562 12.24 131.562C13.18 131.562 14.44 131.872 15.38 132.192L15.07 135.002C13.81 134.382 12.56 134.382 11.62 134.382C8.79 134.382 6.6 135.002 5.34 136.882C3.77 138.442 3.14 140.632 3.14 143.142C3.14 145.652 4.08 147.832 5.65 149.402C7.22 151.282 9.42 152.212 12.25 152.212C13.51 152.212 15.08 151.902 16.65 151.582L16.64 151.572Z" fill="#008739"/>
<path d="M32.3502 144.691C29.8402 138.121 28.5802 134.681 28.5802 134.061H28.2702C28.2702 134.371 27.0102 138.121 24.1902 144.691H32.3602H32.3502ZM38.9402 154.071H35.4902C35.4902 153.441 34.5502 150.941 33.2902 146.881H23.2402C21.9802 150.951 21.3602 153.451 21.3602 154.071H17.9102C17.9102 153.761 19.1702 150.001 22.3102 143.121C25.1402 136.551 26.7102 132.801 26.7102 131.861H30.4802C30.4802 132.801 32.0502 136.241 34.8802 143.121C37.7102 150.001 38.9602 153.441 38.9602 154.071H38.9402Z" fill="#008739"/>
<path d="M56.8396 143.122C56.8396 140.622 56.2096 138.432 54.6396 136.862C53.0696 134.982 50.5596 134.052 47.0996 134.052C46.4696 134.052 45.8397 134.362 45.2197 134.362V142.492C45.2197 145.622 45.2196 148.742 45.5296 151.872C46.4696 151.872 47.0996 152.182 48.0396 152.182C51.1797 152.182 53.3796 151.242 54.6396 149.372C56.2096 147.812 56.8396 145.622 56.8396 143.112V143.122ZM59.9796 142.192C59.9796 145.632 59.0396 148.452 56.8396 150.632C54.6396 153.132 51.8096 154.382 48.3596 154.382C47.0996 154.382 45.2196 154.382 42.3896 154.072C42.6996 150.632 42.6996 146.882 42.6996 142.502C42.6996 138.432 42.6996 134.992 42.3896 131.872H48.0396C52.1196 131.872 55.2597 132.812 57.1497 135.002C59.0296 136.882 59.9796 139.382 59.9796 142.192Z" fill="#008739"/>
<path d="M76.6303 144.691C73.8003 138.121 72.5504 134.681 72.5504 134.061H72.2403C72.2403 134.371 70.9804 138.121 68.1604 144.691H76.6404H76.6303ZM82.9104 154.071H79.4604C79.4604 153.441 78.8304 150.941 77.2604 146.881H67.5203C65.9503 150.951 65.3204 153.451 65.3204 154.071H61.8604C61.8604 153.761 63.4304 150.001 66.2604 143.121C69.0904 136.551 70.6604 132.801 70.6604 131.861H74.7403C74.7403 132.801 76.0004 136.241 78.8204 143.121C81.6504 150.001 82.9004 153.441 82.9004 154.071H82.9104Z" fill="#008739"/>
<path d="M99.2398 148.441C99.2398 152.511 96.4098 154.701 90.4498 154.701C88.5698 154.701 86.6798 154.391 84.7998 154.071L85.4298 151.261C87.3098 151.891 89.1998 152.201 91.0798 152.201C94.8498 152.201 96.7298 151.261 96.7298 149.071C96.7298 147.821 96.0998 146.881 95.1598 146.261C94.5298 145.631 93.2798 145.011 91.3898 144.071C89.1898 143.131 87.6198 142.511 86.9898 141.571C85.7298 140.631 85.1098 139.071 85.1098 137.501C85.1098 135.931 85.7398 134.681 86.9898 133.431C88.2498 132.181 90.1298 131.551 92.6398 131.551C95.1498 131.551 97.0398 131.861 97.9798 132.181L97.6698 134.991C95.7898 134.371 94.2198 134.051 92.0198 134.051C89.1898 134.051 87.6198 134.991 87.6198 137.181C87.6198 138.121 88.2498 138.741 88.8798 139.371C89.5098 139.681 90.7598 140.311 92.6498 141.251C94.8498 142.191 96.4198 143.131 97.3598 143.751C98.6198 145.001 99.2398 146.561 99.2398 148.441Z" fill="#008739"/>
<path d="M118.39 131.861V134.361H111.49V154.061H108.34C108.66 150.311 108.66 146.241 108.66 142.491V134.361H101.44V131.861H118.39Z" fill="#008739"/>
<path d="M133.78 138.122C133.78 135.622 131.9 134.062 128.13 134.062C126.87 134.062 125.94 134.372 124.99 134.372V142.502H126.87C131.59 142.502 133.78 140.942 133.78 138.122ZM138.8 154.072H135.66C134.41 150.942 133.77 148.752 133.15 147.812C132.52 146.252 131.9 145.622 130.96 145.002C130.32 144.692 129.39 144.692 127.5 144.692H124.99C124.99 148.442 124.99 151.572 125.3 154.072H122.16C122.16 150.632 122.48 146.882 122.48 142.502C122.48 138.432 122.16 134.992 122.16 131.872H129.07C134.09 131.872 136.61 133.752 136.61 137.192C136.61 140.002 135.35 141.882 132.53 143.132C133.78 143.442 134.72 144.382 135.35 145.942C135.99 146.882 137.24 149.692 138.81 154.072H138.8Z" fill="#008739"/>
<path d="M159.54 143.122C159.54 140.302 158.91 137.802 157.35 136.242C155.77 134.682 153.89 134.052 152.01 134.052C150.13 134.052 148.55 134.672 146.99 136.552C145.42 138.112 144.79 140.302 144.79 143.122C144.79 146.252 145.43 148.442 146.99 150.002C148.56 151.562 150.45 152.502 152.32 152.502C154.19 152.502 156.09 151.562 157.35 150.002C158.92 148.122 159.54 145.932 159.54 143.122ZM162.67 142.812C162.67 146.252 161.42 149.382 159.53 151.572C157.34 153.762 154.82 154.702 151.99 154.702C149.16 154.702 146.97 153.762 144.76 151.892C142.88 149.702 141.62 147.202 141.62 143.762C141.62 140.012 142.88 136.882 145.08 134.692C146.97 132.812 149.48 131.562 152.3 131.562C155.12 131.562 157.64 132.502 159.53 134.692C161.72 136.572 162.67 139.382 162.67 142.822V142.812Z" fill="#008739"/>
<path d="M186.86 144.691C184.03 138.121 182.78 134.681 182.78 134.061H182.46C182.46 134.371 181.2 138.121 178.38 144.691H186.86ZM193.13 154.071H189.67C189.67 153.441 189.04 150.941 187.48 146.881H177.74C176.17 150.951 175.55 153.451 175.55 154.071H172.09C172.09 153.761 173.66 150.001 176.49 143.121C179.32 136.551 180.89 132.801 180.89 131.861H184.97C184.97 132.801 186.22 136.241 189.05 143.121C191.88 150.001 193.13 153.441 193.13 154.071Z" fill="#008739"/>
<path d="M220.46 154.072H217.32C217.32 151.572 217 147.812 216.69 143.122C216.37 138.432 216.05 135.612 216.05 134.682C214.8 138.122 213.23 142.192 211.65 146.572C209.77 150.952 209.14 153.452 209.14 154.082H206.63C206.63 153.452 206 150.642 204.12 146.572C202.55 142.192 201.61 139.062 201.3 137.812C200.66 136.252 200.36 135.312 200.36 134.682H200.04C200.04 136.242 199.73 139.372 199.41 144.062C199.09 148.752 198.78 152.192 198.78 154.072H195.95C195.95 154.072 196.27 150.942 196.89 144.692C197.83 138.752 198.14 134.372 198.14 131.872H202.54C202.54 133.122 203.48 136.252 205.37 141.252C207.26 146.252 208.2 149.382 208.2 150.322C208.2 149.382 209.45 146.252 211.34 141.252C213.53 136.252 214.48 133.122 214.48 131.872H218.88C218.88 134.372 219.2 138.752 219.51 144.692C220.14 150.942 220.45 154.072 220.45 154.072H220.46Z" fill="#008739"/>
<path d="M239.3 147.822C239.3 145.012 236.79 143.442 231.76 143.442C230.82 143.442 229.87 143.442 229.25 143.752C229.25 146.562 229.25 149.382 229.56 151.572C229.88 151.882 230.82 151.882 231.76 151.882C234.58 151.882 236.47 151.572 237.73 150.942C238.67 150.002 239.3 149.062 239.3 147.812V147.822ZM237.74 137.492C237.74 135.302 236.17 134.052 233.02 134.052C231.45 134.052 230.2 134.052 229.26 134.362V141.242H231.15C233.34 141.242 234.91 140.932 236.17 140.622C237.1 139.992 237.74 139.062 237.74 137.492ZM242.13 147.502C242.13 149.692 241.19 151.252 239.3 152.502C237.41 153.752 234.9 154.382 231.76 154.382C230.82 154.382 228.93 154.072 226.42 154.072C226.74 150.632 226.74 146.882 226.74 142.502C226.74 138.432 226.74 134.992 226.42 131.872H233.65C238.36 131.872 240.55 133.432 240.55 136.872C240.55 139.372 239.62 140.942 237.41 141.872C240.55 142.502 242.13 144.372 242.13 147.502Z" fill="#008739"/>
<path d="M250.3 154.072H246.84C247.16 150.632 247.16 146.562 247.16 142.502C247.16 138.442 247.16 134.992 246.84 131.872H250.3C249.98 135.002 249.98 138.752 249.98 142.502C249.98 146.572 249.98 150.632 250.3 154.072Z" fill="#008739"/>
<path d="M270.39 151.572V154.072H256.58C256.89 150.632 256.89 146.882 256.89 142.502C256.89 138.432 256.89 134.992 256.58 131.872H269.45V134.692C266.31 134.382 262.86 134.382 259.4 134.382V141.572C262.54 141.572 265.37 141.262 267.57 141.262V143.762H259.4C259.4 146.572 259.72 149.392 259.72 151.892C263.48 151.892 266.94 151.892 270.39 151.582V151.572Z" fill="#008739"/>
<path d="M292.07 154.072H289.56C289.56 154.072 287.67 151.262 283.9 145.942C280.14 140.622 277.93 137.182 277.31 135.622H276.99C277.31 138.442 277.31 140.622 277.31 142.502C277.31 146.572 277.63 150.322 277.63 154.072H274.8C275.12 150.322 275.12 146.562 275.12 142.502C275.12 138.442 275.12 134.992 274.8 131.872H278.26C278.26 132.182 279.83 135.002 283.28 139.692C286.74 145.012 288.93 148.132 289.57 149.702C289.25 146.892 289.25 144.702 289.25 142.822C289.25 138.442 289.25 135.002 288.93 131.872H292.08C291.76 135.002 291.76 138.442 291.76 142.502C291.76 146.562 291.76 150.322 292.08 154.072H292.07Z" fill="#008739"/>
<path d="M312.48 131.861V134.361H305.57V154.061H302.42C302.74 150.311 302.74 146.241 302.74 142.491V134.361H295.52V131.861H312.48Z" fill="#008739"/>
<path d="M327.23 144.691C324.41 138.121 323.15 134.681 323.15 134.061H322.83C322.83 134.371 321.58 138.121 318.75 144.691H327.23ZM333.52 154.071H330.06C330.06 153.441 329.43 150.941 327.86 146.881H318.13C316.56 150.951 315.94 153.451 315.94 154.071H312.48C312.48 153.761 314.05 150.001 316.87 143.121C319.7 136.551 321.27 132.801 321.27 131.861H325.35C325.35 132.801 326.61 136.241 329.44 143.121C332.26 150.001 333.52 153.441 333.52 154.071Z" fill="#008739"/>
<path d="M350.48 151.572V154.072H336.98C337.29 151.262 337.29 147.502 337.29 142.502C337.29 138.122 337.29 134.682 336.98 131.872H340.12V142.502C340.12 146.252 339.8 149.382 339.8 151.882C343.26 151.882 346.71 151.882 350.48 151.572Z" fill="#008739"/>
<path d="M373.4 138.122C373.4 135.622 371.51 134.062 367.74 134.062C366.49 134.062 365.55 134.372 364.6 134.372V142.502H366.49C371.2 142.502 373.4 140.942 373.4 138.122ZM378.73 154.072H375.29C374.35 150.942 373.4 148.752 372.77 147.812C372.14 146.252 371.52 145.622 370.58 145.002C369.95 144.692 369.01 144.692 367.44 144.692H364.61C364.61 148.442 364.93 151.572 364.93 154.072H361.78C361.78 150.632 362.1 146.882 362.1 142.502C362.1 138.432 361.78 134.992 361.78 131.872H368.69C373.71 131.872 376.23 133.752 376.23 137.192C376.23 140.002 374.98 141.882 372.15 143.132C373.41 143.442 374.35 144.382 374.98 145.942C375.92 146.882 376.87 149.692 378.74 154.072H378.73Z" fill="#008739"/>
<path d="M400.73 131.862V143.122C400.73 150.942 397.58 154.692 391.61 154.692C390.04 154.692 388.79 154.382 387.53 154.062C386.28 153.432 385.34 152.812 384.7 151.872C384.07 150.932 383.45 149.682 383.13 148.432C382.82 146.872 382.82 145.302 382.82 143.432C382.82 141.872 382.82 139.992 382.5 138.112V131.852H385.64V142.172C385.64 144.052 385.64 145.612 385.96 146.862C385.96 148.112 386.28 149.362 386.9 149.992C387.53 150.932 388.15 151.552 388.79 151.872C389.42 152.182 390.36 152.502 391.61 152.502C392.86 152.502 393.81 152.192 394.76 151.872C395.39 151.562 396.01 150.932 396.33 149.992C396.96 149.362 397.27 148.432 397.58 147.182C397.58 145.932 397.9 144.052 397.9 142.182V137.802C397.58 136.242 397.58 134.362 397.58 131.862H400.73Z" fill="#008739"/>
<path d="M418.31 138.122C418.31 135.622 416.42 134.062 412.97 134.062C411.72 134.062 410.46 134.372 409.51 134.372C409.83 136.252 409.83 139.062 409.83 142.502H411.72C416.11 142.502 418.31 140.942 418.31 138.122ZM423.64 154.072H420.2C419.26 150.942 418.31 148.752 418 147.812C417.37 146.252 416.43 145.622 415.81 145.002C415.17 144.692 413.92 144.692 412.35 144.692H409.84V154.072H406.69C407.01 150.632 407.01 146.882 407.01 142.502C407.01 138.432 407.01 134.992 406.69 131.872H413.92C418.94 131.872 421.46 133.752 421.46 137.192C421.46 140.002 419.89 141.882 417.06 143.132C418.32 143.442 419.26 144.382 420.21 145.942C420.84 146.882 422.09 149.692 423.65 154.072H423.64Z" fill="#008739"/>
<path d="M439.67 144.691C436.84 138.121 435.58 134.681 435.58 134.061H435.27C435.27 134.371 434.01 138.121 431.19 144.691H439.67ZM445.94 154.071H442.48C442.48 153.441 441.85 150.941 440.29 146.881H430.55C428.98 150.951 428.36 153.451 428.36 154.071H424.9C424.9 153.761 426.47 150.001 429.3 143.121C432.12 136.551 433.7 132.801 433.7 131.861H437.78C437.78 132.801 439.03 136.241 441.86 143.121C444.69 150.001 445.94 153.441 445.94 154.071Z" fill="#008739"/>
<path d="M462.9 151.572V154.072H449.4C449.72 151.262 449.72 147.502 449.72 142.502C449.72 138.122 449.72 134.682 449.4 131.872H452.54V142.502C452.54 146.252 452.54 149.382 452.23 151.882C455.69 151.882 459.14 151.882 462.9 151.572Z" fill="#008739"/>
</svg>
