<svg width="360" height="109" viewBox="0 0 360 109" fill="none" xmlns="http://www.w3.org/2000/svg">
<g clip-path="url(#clip0_465_643)">
<path d="M50.5069 7.70513V18.1639C44.4069 14.5123 38.2212 12.4941 31.6408 12.4941C18.5487 12.4941 11.0674 21.8154 11.0674 31.8722C11.0674 41.9291 18.5487 50.9254 31.4778 50.9254C38.47 50.9254 44.896 48.8217 50.9187 44.8452V55.2184C44.5785 58.622 37.7408 60.0843 30.2595 60.0843C10.3296 60.0758 0 46.051 0 31.7782C0 14.9228 13.341 3.32666 30.414 3.32666C36.7541 3.32666 43.4289 4.70348 50.5069 7.70513Z" fill="#0033A0"/>
<path d="M118.078 31.6157C118.078 46.6923 107.019 60.0672 87.5013 60.0672C67.9832 60.0672 57.5764 46.8548 57.5764 31.7782C57.5764 17.7534 67.417 3.32666 87.8274 3.32666C106.127 3.32666 118.078 15.8891 118.078 31.6157ZM68.5495 31.7782C68.5495 42.8013 77.0087 50.4209 87.5786 50.4209C98.1484 50.4209 107.097 43.8532 107.097 31.6157C107.097 22.4568 100.43 12.973 87.9046 12.973C75.3787 12.973 68.5495 21.08 68.5495 31.7782Z" fill="#0033A0"/>
<path d="M137.588 4.05371L155.562 26.1L173.458 4.05371H183.299V59.3405H172.566V19.8658L156.222 40.2958H154.755L138.248 19.8658V59.349H127.678V4.05371H137.596H137.588Z" fill="#0033A0"/>
<path d="M215.334 4.05371C227.285 4.05371 234.449 10.0485 234.449 20.2677C234.449 30.487 227.534 36.3963 214.931 36.3963H206.146V59.3405H195.413V4.05371H215.334ZM206.146 28.2123H213.301C221.185 28.2123 223.467 25.0481 223.467 20.1908C223.467 14.9999 220.782 12.1607 213.061 12.1607H206.146V28.2123Z" fill="#0033A0"/>
<path d="M314.298 7.45713V17.7534C309.905 13.9393 305.186 11.8356 300.227 11.8356C295.269 11.8356 292.823 14.1873 292.823 17.5139C292.823 20.3531 293.879 22.6193 301.609 26.8353C312.101 32.5906 316.571 36.5671 316.571 44.9136C316.571 53.7475 309.416 60.0758 299.009 60.0758C293.235 60.0758 287.539 58.2884 282.58 55.2098V44.0242C287.461 48.9671 292.746 51.4813 298.117 51.4813C302.913 51.4813 305.847 48.7276 305.847 45.2386C305.847 41.7495 304.792 39.7227 294.702 34.2924C287.547 30.2389 282.262 25.9459 282.262 17.8389C282.262 9.73189 289.014 3.32666 299.747 3.32666C305.118 3.32666 310.24 4.86597 314.306 7.45713H314.298Z" fill="#0033A0"/>
<path d="M357.726 7.45713V17.7534C353.334 13.9393 348.615 11.8356 343.656 11.8356C338.697 11.8356 336.252 14.1873 336.252 17.5139C336.252 20.3531 337.307 22.6193 345.037 26.8353C355.53 32.5906 360 36.5671 360 44.9136C360 53.7475 352.845 60.0758 342.438 60.0758C336.664 60.0758 330.967 58.2884 326.008 55.2098V44.0242C330.89 48.9671 336.175 51.4813 341.546 51.4813C346.342 51.4813 349.276 48.7276 349.276 45.2386C349.276 41.7495 348.22 39.7227 338.131 34.2924C330.976 30.2389 325.691 25.9459 325.691 17.8389C325.691 9.73189 332.443 3.32666 343.176 3.32666C348.546 3.32666 353.668 4.86597 357.735 7.45713H357.726Z" fill="#0033A0"/>
<path d="M224.197 57.151L252.56 48.7789L275.742 67.0967L260.676 0L224.197 57.151Z" fill="#FF671F"/>
<path d="M63.0757 82.088L62.6295 85.1068C61.3512 84.8074 60.0471 84.6621 58.683 84.6621C52.1455 84.6621 48.4392 88.5103 48.4392 93.1881C48.4392 96.7713 50.7557 99.3453 53.9386 99.3453C55.2427 99.3453 56.7269 98.9605 57.7736 98.4902L58.2455 95.2063H55.1569L55.543 92.598H61.8746L60.7163 100.62C58.3742 101.714 55.9376 102.364 53.767 102.364C48.5679 102.364 44.853 98.6013 44.853 93.419C44.853 87.5012 48.954 81.6348 58.786 81.6348C60.6563 81.6348 62.2349 81.84 63.0928 82.0795L63.0757 82.088Z" fill="#FF671F"/>
<path d="M68.9611 88.3906L67.8029 96.472C67.6828 97.3015 67.6228 97.6863 67.6228 98.2507C67.6228 99.2 68.1289 99.8499 69.0812 99.8499C70.0936 99.8499 71.1575 99.1401 72.9763 97.1219L74.2203 88.3906H77.3947L75.4043 102.099H72.2299L72.5559 99.9696C70.6856 101.689 69.2614 102.338 67.923 102.338C65.4865 102.338 64.4141 100.714 64.4141 98.4902C64.4141 98.0198 64.4999 97.2502 64.5942 96.6259L65.7782 88.3992H68.9526L68.9611 88.3906Z" fill="#FF671F"/>
<path d="M84.3096 88.3907L82.3449 102.099H79.1362L81.1266 88.3907H84.301H84.3096ZM84.9359 84.3628C84.9359 85.2779 84.1895 86.0219 83.2715 86.0219C82.3535 86.0219 81.6071 85.2779 81.6071 84.3628C81.6071 83.4478 82.3535 82.7637 83.2715 82.7637C84.1895 82.7637 84.9359 83.4735 84.9359 84.3628Z" fill="#FF671F"/>
<path d="M100.499 81.9085L97.6164 102.039C96.1579 102.338 94.9997 102.484 93.6098 102.484C88.4965 102.484 86.2144 99.6105 86.2144 96.147C86.2144 92.0337 89.4231 88.0315 94.6479 88.0315C95.2399 88.0315 95.9262 88.0571 96.4582 88.1512L97.3161 81.8999H100.49L100.499 81.9085ZM93.6956 99.8499C94.0817 99.8499 94.4077 99.8157 94.768 99.7644L96.0721 90.7595C95.8319 90.6996 95.4801 90.6397 94.9997 90.6397C91.6108 90.6397 89.5346 93.0941 89.5346 96.0872C89.5346 98.5159 91.1647 99.8499 93.6956 99.8499Z" fill="#FF671F"/>
<path d="M106.41 88.3907L104.446 102.099H101.237L103.227 88.3907H106.402H106.41ZM107.036 84.3628C107.036 85.2779 106.29 86.0219 105.372 86.0219C104.454 86.0219 103.708 85.2779 103.708 84.3628C103.708 83.4478 104.454 82.7637 105.372 82.7637C106.29 82.7637 107.036 83.4735 107.036 84.3628Z" fill="#FF671F"/>
<path d="M121.175 92.2132C121.175 92.6835 121.055 93.7525 120.995 94.257L119.777 102.099H116.602L117.821 94.257C117.881 93.667 118.001 92.8631 118.001 92.4783C118.001 91.2981 117.409 90.7594 116.577 90.7594C115.384 90.7594 114.02 91.7343 112.63 93.4874L111.352 102.107H108.177L110.194 88.3991H113.368L113.008 90.5884C114.638 88.9293 116.156 88.1597 117.615 88.1597C119.906 88.1597 121.175 89.6733 121.175 92.2132Z" fill="#FF671F"/>
<path d="M136.592 88.3906L136.266 90.7594H133.83C134.396 91.6488 134.576 92.4441 134.576 93.248C134.576 95.8221 132.972 98.0455 129.437 98.3961C126.855 98.7553 126.529 98.9605 126.529 99.6361C126.529 100.312 127.601 100.491 129.351 100.97L130.544 101.269C133.306 101.954 134.345 103.228 134.345 104.972C134.345 106.717 132.775 109 128.313 109C124.187 109 122.042 107.581 122.042 105.503C122.042 104.228 123.02 103.219 125.757 102.569C124.358 102.005 123.56 101.269 123.56 100.175C123.56 98.7211 124.899 98.0455 126.349 97.6607C124.89 97.0107 123.826 95.557 123.826 93.667C123.826 90.6739 125.902 88.3992 129.497 88.3992H136.592V88.3906ZM128.365 106.837C130.295 106.837 131.273 106.187 131.273 105.323C131.273 104.528 130.621 103.963 127.979 103.484C125.902 104.049 124.976 104.579 124.976 105.409C124.976 106.324 126.52 106.828 128.365 106.828V106.837ZM129.043 96.2069C130.587 96.2069 131.565 94.7274 131.565 93.1539C131.565 91.5804 130.613 90.6397 129.369 90.6397C127.738 90.6397 126.846 92.179 126.846 93.744C126.846 95.1379 127.653 96.1983 129.043 96.1983V96.2069Z" fill="#FF671F"/>
<path d="M154.918 89.5109L154.532 92.2047C152.868 91.0502 151.589 90.6055 150.431 90.6055C149.513 90.6055 148.973 91.0246 148.973 91.7857C148.973 92.3757 149.359 92.8204 150.783 93.8552C152.447 95.0353 154.137 96.1385 154.137 98.533C154.137 100.927 152.207 102.467 149.504 102.467C147.874 102.467 146.236 101.877 144.812 100.927L145.283 98.208C146.742 99.2428 148.192 99.9269 149.504 99.9269C150.517 99.9269 151.049 99.3625 151.049 98.627C151.049 97.6778 150.011 97.0022 148.26 95.7537C146.476 94.4196 145.884 93.2395 145.884 91.9653C145.884 89.7418 147.608 88.0571 150.431 88.0571C151.915 88.0571 153.4 88.5018 154.918 89.5109Z" fill="#FF671F"/>
<path d="M169.915 88.4161L167.925 102.099H164.776L164.982 100.585C163.824 101.714 162.665 102.304 161.327 102.304C158.745 102.304 156.694 100.081 156.694 96.6172C156.694 92.1446 159.697 87.9971 165.994 87.9971C167.393 87.9971 169.057 88.2365 169.915 88.4161ZM162.254 99.6701C163.412 99.6701 164.63 98.9261 165.376 97.9855L166.475 90.6139C166.234 90.5882 165.908 90.554 165.557 90.554C161.756 90.554 159.971 93.8977 159.971 96.5915C159.971 98.5755 160.949 99.6701 162.262 99.6701H162.254Z" fill="#FF671F"/>
<path d="M183.582 82.2334L183.196 84.9015C182.338 84.4825 181.471 84.3114 180.613 84.3114C178.537 84.3114 177.551 85.3804 177.164 88.1597L177.139 88.3991H180.639L180.253 90.9133H176.753L174.462 107.82H171.288L173.578 90.9133H171.408L171.794 88.3991H173.964L174.024 87.9288C174.711 82.7465 177.619 81.6519 180.356 81.6519C181.454 81.6519 182.587 81.8571 183.59 82.2419L183.582 82.2334Z" fill="#FF671F"/>
<path d="M192.667 93.8635C192.667 94.4878 192.607 94.9924 192.547 95.4028H183.874C183.848 95.8732 183.848 96.1126 183.848 96.3777C183.848 98.5413 185.092 100.046 187.022 100.046C188.266 100.046 189.725 99.5761 191.895 98.1821L191.423 101.115C189.905 102.03 188.455 102.475 186.816 102.475C182.956 102.475 180.639 99.9267 180.639 95.9587C180.639 91.7256 183.488 87.9971 187.408 87.9971C190.377 87.9971 192.667 90.1863 192.667 93.8635ZM189.579 93.4188V93.2393C189.579 91.5802 188.807 90.4001 187.348 90.4001C185.984 90.4001 184.912 91.4092 184.285 93.4188H189.57H189.579Z" fill="#FF671F"/>
<path d="M215.48 90.905C216.939 89.1605 218.663 88.1514 220.353 88.1514C222.73 88.1514 223.888 89.8104 223.888 91.9996C223.888 92.6496 223.768 93.5389 223.708 93.9836L222.55 102.099H219.367L220.559 93.7185C220.619 93.2995 220.679 92.7693 220.679 92.4443C220.679 91.2642 220.147 90.6057 219.341 90.6057C218.268 90.6057 216.844 91.6747 215.54 93.3337L214.262 102.099H211.113L212.211 94.548C212.357 93.633 212.417 92.7436 212.417 92.3588C212.417 91.23 211.851 90.6399 210.993 90.6399C209.955 90.6399 208.677 91.6747 207.278 93.3936L206 102.099H202.817L204.807 88.3908H207.99L207.69 90.58C209.209 88.921 210.719 88.1514 212.263 88.1514C213.893 88.1514 215.085 89.1605 215.472 90.905H215.48Z" fill="#FF671F"/>
<path d="M231.258 88.3907L229.293 102.099H226.084L228.075 88.3907H231.258ZM231.875 84.3628C231.875 85.2779 231.129 86.0219 230.211 86.0219C229.293 86.0219 228.547 85.2779 228.547 84.3628C228.547 83.4478 229.293 82.7637 230.211 82.7637C231.129 82.7637 231.875 83.4735 231.875 84.3628Z" fill="#FF671F"/>
<path d="M246.194 88.3906L245.868 90.7594H243.432C243.998 91.6488 244.178 92.4441 244.178 93.248C244.178 95.8221 242.574 98.0455 239.039 98.3961C236.457 98.7553 236.131 98.9605 236.131 99.6361C236.131 100.312 237.203 100.491 238.953 100.97L240.137 101.269C242.9 101.954 243.938 103.228 243.938 104.972C243.938 106.717 242.368 109 237.907 109C233.78 109 231.635 107.581 231.635 105.503C231.635 104.228 232.613 103.219 235.35 102.569C233.951 102.005 233.154 101.269 233.154 100.175C233.154 98.7211 234.492 98.0455 235.942 97.6607C234.483 97.0107 233.42 95.557 233.42 93.667C233.42 90.6739 235.496 88.3992 239.091 88.3992H246.186L246.194 88.3906ZM237.967 106.837C239.897 106.837 240.875 106.187 240.875 105.323C240.875 104.528 240.223 103.963 237.581 103.484C235.504 104.049 234.578 104.579 234.578 105.409C234.578 106.324 236.122 106.828 237.967 106.828V106.837ZM238.653 96.2069C240.197 96.2069 241.175 94.7274 241.175 93.1539C241.175 91.5804 240.223 90.6397 238.979 90.6397C237.349 90.6397 236.457 92.179 236.457 93.744C236.457 95.1379 237.255 96.1983 238.653 96.1983V96.2069Z" fill="#FF671F"/>
<path d="M257.124 88.9809L255.58 92.0595C255.108 91.5293 254.662 91.2898 254.062 91.2898C252.723 91.2898 251.805 92.6838 250.913 94.3428L249.78 102.099H246.632L248.622 88.3908H251.771L251.411 91.0247C252.809 88.9552 253.907 88.1514 255.005 88.1514C255.838 88.1514 256.49 88.5362 257.116 88.9809H257.124Z" fill="#FF671F"/>
<path d="M270.199 88.4161L268.209 102.099H265.06L265.266 100.585C264.108 101.714 262.95 102.304 261.611 102.304C259.029 102.304 256.979 100.081 256.979 96.6172C256.979 92.1446 259.981 87.9971 266.279 87.9971C267.677 87.9971 269.341 88.2365 270.199 88.4161ZM262.529 99.6701C263.688 99.6701 264.906 98.9261 265.644 97.9855L266.742 90.6139C266.502 90.5882 266.176 90.554 265.824 90.554C262.023 90.554 260.239 93.8977 260.239 96.5915C260.239 98.5755 261.217 99.6701 262.529 99.6701Z" fill="#FF671F"/>
<path d="M278.427 85.6113L277.955 88.3906H281.456L281.069 90.9048H277.449L276.471 96.2924C276.325 97.1476 276.171 97.9514 276.171 98.3619C276.171 99.2171 276.582 99.6618 277.329 99.6618C278.187 99.6618 279.439 99.2171 280.177 98.6869L279.705 101.74C278.667 102.27 277.595 102.484 276.497 102.484C274.146 102.484 272.962 101.15 272.962 99.1059C272.962 98.5757 273.048 97.7462 273.228 96.7627L274.266 90.9048H271.804L272.19 88.3906H274.746L275.253 85.6113H278.427Z" fill="#FF671F"/>
<path d="M287.212 88.3907L285.248 102.099H282.039L284.029 88.3907H287.212ZM287.839 84.3628C287.839 85.2779 287.092 86.0219 286.174 86.0219C285.256 86.0219 284.51 85.2779 284.51 84.3628C284.51 83.4478 285.256 82.7637 286.174 82.7637C287.092 82.7637 287.839 83.4735 287.839 84.3628Z" fill="#FF671F"/>
<path d="M301.737 94.1973C301.737 98.3705 299.181 102.484 294.788 102.484C291.193 102.484 289.117 100.115 289.117 96.4464C289.117 91.7943 291.905 88.0059 296.161 88.0059C299.369 88.0059 301.746 90.2892 301.746 94.1973H301.737ZM294.848 99.7559C297.224 99.7559 298.469 97.0022 298.469 94.069C298.469 91.8199 297.49 90.6911 295.912 90.6911C293.124 90.6911 292.377 94.8387 292.377 96.5832C292.377 98.5929 293.269 99.7473 294.839 99.7473L294.848 99.7559Z" fill="#FF671F"/>
<path d="M316.623 92.2132C316.623 92.6835 316.502 93.7525 316.442 94.257L315.224 102.099H312.05L313.268 94.257C313.328 93.667 313.448 92.8631 313.448 92.4783C313.448 91.2981 312.856 90.7594 312.024 90.7594C310.84 90.7594 309.467 91.7343 308.077 93.4874L306.799 102.107H303.616L305.632 88.3991H308.807L308.446 90.5884C310.076 88.9293 311.595 88.1597 313.054 88.1597C315.344 88.1597 316.623 89.6733 316.623 92.2132Z" fill="#FF671F"/>
</g>
<defs>
<clipPath id="clip0_465_643">
<rect width="360" height="109" fill="white"/>
</clipPath>
</defs>
</svg>
