<svg xmlns="http://www.w3.org/2000/svg" width="17" height="17" viewBox="0 0 17 17">
  <g id="Group_58131" data-name="Group 58131" transform="translate(-328 -148)">
    <circle id="Ellipse_1227" data-name="Ellipse 1227" cx="8.5" cy="8.5" r="8.5" transform="translate(328 148)" fill="#a8a8a8"/>
    <g id="cross_icon" transform="translate(325.089 146.089)">
      <g id="Group_57330" data-name="Group 57330" transform="translate(8 7)">
        <rect id="Rectangle_6974" data-name="Rectangle 6974" width="6.698" height="6.698" transform="translate(0.062 0.062)" fill="rgba(255,255,255,0)"/>
        <g id="close_FILL0_wght400_GRAD0_opsz48_1_" data-name="close_FILL0_wght400_GRAD0_opsz48 (1)" transform="translate(-10.35 -10.35)" fill="#fff">
          <path d="M 10.87473583221436 17.38364601135254 L 10.7686653137207 17.27758598327637 L 10.24392509460449 16.75284576416016 L 10.13786506652832 16.64677619934082 L 10.24392509460449 16.54070472717285 L 13.02388477325439 13.76075553894043 L 10.24392509460449 10.98080539703369 L 10.13786506652832 10.87473583221436 L 10.24392509460449 10.7686653137207 L 10.7686653137207 10.24392509460449 L 10.87473583221436 10.13786506652832 L 10.98080539703369 10.24392509460449 L 13.76075553894043 13.02388477325439 L 16.54070472717285 10.24392509460449 L 16.64677619934082 10.13786506652832 L 16.75284576416016 10.24392509460449 L 17.2775764465332 10.7686653137207 L 17.38363647460938 10.87473583221436 L 17.2775764465332 10.98080539703369 L 14.49762535095215 13.76075553894043 L 17.27758598327637 16.54070472717285 L 17.38364601135254 16.64677619934082 L 17.27758598327637 16.75284576416016 L 16.75284576416016 17.2775764465332 L 16.64677619934082 17.38363647460938 L 16.54070472717285 17.2775764465332 L 13.76075553894043 14.49762535095215 L 10.98080539703369 17.27758598327637 L 10.87473583221436 17.38364601135254 Z" stroke="none"/>
          <path d="M 10.87473583221436 17.17151641845703 L 13.76075553894043 14.28548526763916 L 16.64677619934082 17.17150497436523 L 17.17151641845703 16.64677619934082 L 14.28548526763916 13.76075553894043 L 17.17150497436523 10.87473583221436 L 16.64677619934082 10.34999561309814 L 13.76075553894043 13.2360258102417 L 10.87473583221436 10.34999561309814 L 10.34999561309814 10.87473583221436 L 13.2360258102417 13.76075553894043 L 10.34999561309814 16.64677619934082 L 10.87473583221436 17.17151641845703 M 10.87473583221436 17.59577560424805 L 9.925735473632812 16.64677619934082 L 12.81176471710205 13.76075553894043 L 9.925735473632812 10.87473583221436 L 10.87473583221436 9.925735473632812 L 13.76075553894043 12.81176471710205 L 16.64677619934082 9.925725936889648 L 17.59576606750488 10.87473583221436 L 14.70974636077881 13.76075553894043 L 17.59578514099121 16.64677619934082 L 16.64677619934082 17.59576606750488 L 13.76075553894043 14.70974636077881 L 10.87473583221436 17.59577560424805 Z" stroke="none" fill="#fff"/>
        </g>
      </g>
    </g>
  </g>
</svg>
