<svg width="36" height="36" viewBox="0 0 36 36" fill="none" xmlns="http://www.w3.org/2000/svg">
<path opacity="0.1" d="M28 0H8C3.58172 0 0 3.58172 0 8V28C0 32.4183 3.58172 36 8 36H28C32.4183 36 36 32.4183 36 28V8C36 3.58172 32.4183 0 28 0Z" fill="url(#paint0_linear_123_298)"/>
<path d="M12.777 19C12.6099 19.0024 12.4441 18.9711 12.2894 18.9079C12.1348 18.8446 11.9945 18.7508 11.877 18.632C11.757 18.5182 11.6619 18.3809 11.5975 18.2286C11.5332 18.0763 11.501 17.9123 11.503 17.747C11.5006 17.5818 11.533 17.4179 11.5979 17.266C11.6629 17.114 11.7589 16.9774 11.88 16.865C11.9992 16.7467 12.1408 16.6535 12.2966 16.5909C12.4524 16.5282 12.6191 16.4973 12.787 16.5C12.9541 16.4975 13.1199 16.5288 13.2746 16.5921C13.4292 16.6553 13.5695 16.7491 13.687 16.868C13.8069 16.9818 13.9021 17.1191 13.9664 17.2714C14.0308 17.4237 14.063 17.5877 14.061 17.753C14.0633 17.9182 14.031 18.0821 13.9661 18.234C13.9011 18.3859 13.805 18.5225 13.684 18.635C13.5648 18.7532 13.4231 18.8464 13.2674 18.9091C13.1116 18.9718 12.9449 19.0027 12.777 19ZM17.996 19C17.8289 19.0024 17.6631 18.9711 17.5084 18.9079C17.3537 18.8446 17.2135 18.7508 17.096 18.632C16.976 18.5182 16.8809 18.3809 16.8165 18.2286C16.7522 18.0763 16.72 17.9123 16.722 17.747C16.7196 17.5818 16.752 17.4179 16.8169 17.266C16.8818 17.114 16.9779 16.9774 17.099 16.865C17.2175 16.7475 17.3582 16.6547 17.5128 16.592C17.6675 16.5294 17.8331 16.4981 18 16.5C18.1671 16.4975 18.3329 16.5288 18.4876 16.5921C18.6422 16.6553 18.7825 16.7491 18.9 16.868C19.0199 16.9818 19.1151 17.1191 19.1794 17.2714C19.2438 17.4237 19.276 17.5877 19.274 17.753C19.2763 17.9182 19.244 18.0821 19.1791 18.234C19.1141 18.3859 19.018 18.5225 18.897 18.635C18.779 18.752 18.6389 18.8445 18.485 18.9071C18.331 18.9698 18.1662 19.0014 18 19H17.996ZM23.215 19C23.0479 19.0024 22.8821 18.9711 22.7274 18.9079C22.5728 18.8446 22.4325 18.7508 22.315 18.632C22.195 18.5182 22.0999 18.3809 22.0356 18.2286C21.9712 18.0763 21.939 17.9123 21.941 17.747C21.9386 17.5818 21.971 17.4179 22.0359 17.266C22.1008 17.114 22.1969 16.9774 22.318 16.865C22.4372 16.7467 22.5788 16.6535 22.7346 16.5909C22.8904 16.5282 23.0571 16.4973 23.225 16.5C23.3921 16.4975 23.5579 16.5288 23.7126 16.5921C23.8672 16.6553 24.0075 16.7491 24.125 16.868C24.2449 16.9818 24.3401 17.1191 24.4044 17.2714C24.4688 17.4237 24.501 17.5877 24.499 17.753C24.5013 17.9182 24.469 18.0821 24.4041 18.234C24.3391 18.3859 24.243 18.5225 24.122 18.635C24.0028 18.7532 23.8611 18.8464 23.7054 18.9091C23.5496 18.9718 23.3829 19.0027 23.215 19Z" fill="url(#paint1_linear_123_298)"/>
<path d="M23.215 19.25C23.0148 19.253 22.816 19.2156 22.6306 19.14C22.4452 19.0644 22.277 18.9521 22.136 18.81C21.9923 18.6731 21.8784 18.508 21.8013 18.3251C21.7243 18.1422 21.6857 17.9454 21.688 17.747C21.6855 17.5481 21.7246 17.3509 21.8028 17.168C21.8809 16.9851 21.9965 16.8206 22.142 16.685C22.2843 16.5444 22.4532 16.4334 22.6388 16.3588C22.8244 16.2841 23.023 16.2471 23.223 16.25C23.4232 16.247 23.622 16.2844 23.8074 16.36C23.9928 16.4356 24.161 16.5478 24.302 16.69C24.4457 16.8269 24.5596 16.992 24.6367 17.1749C24.7138 17.3577 24.7523 17.5545 24.75 17.753C24.7525 17.9519 24.7134 18.1491 24.6352 18.332C24.5571 18.5148 24.4415 18.6794 24.296 18.815C24.1537 18.9556 23.9848 19.0665 23.7992 19.1412C23.6137 19.2159 23.415 19.2529 23.215 19.25ZM23.223 16.75C23.0872 16.7471 22.9522 16.7717 22.826 16.8222C22.6999 16.8727 22.5853 16.9481 22.489 17.044C22.3926 17.133 22.316 17.2414 22.2643 17.362C22.2126 17.4826 22.187 17.6128 22.189 17.744C22.187 17.8763 22.2126 18.0074 22.2643 18.1292C22.316 18.251 22.3925 18.3605 22.489 18.451C22.5834 18.5481 22.6967 18.6248 22.8219 18.6764C22.9471 18.728 23.0816 18.7534 23.217 18.751C23.3528 18.7539 23.4879 18.7294 23.614 18.6789C23.7401 18.6284 23.8548 18.5529 23.951 18.457C24.0475 18.368 24.1241 18.2597 24.1758 18.139C24.2275 18.0184 24.2531 17.8882 24.251 17.757C24.253 17.6248 24.2273 17.4936 24.1756 17.3718C24.124 17.2501 24.0475 17.1404 23.951 17.05C23.8566 16.9529 23.7433 16.8762 23.6181 16.8246C23.4929 16.773 23.3584 16.7476 23.223 16.75ZM17.997 19.25C17.7968 19.253 17.5981 19.2156 17.4127 19.14C17.2272 19.0644 17.059 18.9521 16.918 18.81C16.7743 18.6731 16.6604 18.508 16.5833 18.3251C16.5063 18.1422 16.4677 17.9454 16.47 17.747C16.4676 17.5481 16.5067 17.3509 16.5848 17.168C16.663 16.9851 16.7785 16.8206 16.924 16.685C17.0663 16.5444 17.2352 16.4334 17.4208 16.3588C17.6064 16.2841 17.805 16.2471 18.005 16.25C18.2052 16.247 18.404 16.2844 18.5894 16.36C18.7748 16.4356 18.943 16.5478 19.084 16.69C19.2277 16.8269 19.3416 16.992 19.4187 17.1749C19.4958 17.3577 19.5343 17.5545 19.532 17.753C19.5345 17.9519 19.4954 18.1491 19.4173 18.332C19.3391 18.5148 19.2235 18.6794 19.078 18.815C18.9361 18.9553 18.7677 19.0659 18.5826 19.1406C18.3976 19.2153 18.1995 19.2525 18 19.25H17.997ZM18.005 16.75C17.8692 16.7471 17.7342 16.7717 17.608 16.8222C17.4819 16.8727 17.3673 16.9481 17.271 17.044C17.1746 17.133 17.098 17.2414 17.0463 17.362C16.9946 17.4826 16.969 17.6128 16.971 17.744C16.969 17.8763 16.9946 18.0074 17.0463 18.1292C17.098 18.251 17.1745 18.3605 17.271 18.451C17.3654 18.5481 17.4787 18.6248 17.6039 18.6764C17.7291 18.728 17.8636 18.7534 17.999 18.751C18.1348 18.7539 18.2699 18.7294 18.396 18.6789C18.5221 18.6284 18.6368 18.5529 18.733 18.457C18.8295 18.368 18.9061 18.2597 18.9578 18.139C19.0095 18.0184 19.0351 17.8882 19.033 17.757C19.035 17.6248 19.0094 17.4936 18.9577 17.3718C18.9061 17.2501 18.8295 17.1404 18.733 17.05C18.638 16.9523 18.5239 16.8752 18.3978 16.8236C18.2717 16.772 18.1362 16.7469 18 16.75H18.005ZM12.779 19.25C12.5788 19.253 12.3801 19.2156 12.1946 19.14C12.0092 19.0644 11.841 18.9521 11.7 18.81C11.5563 18.6731 11.4424 18.508 11.3653 18.3251C11.2883 18.1422 11.2497 17.9454 11.252 17.747C11.2495 17.5481 11.2886 17.3509 11.3668 17.168C11.445 16.9851 11.5605 16.8206 11.706 16.685C11.8483 16.5444 12.0172 16.4334 12.2028 16.3588C12.3884 16.2841 12.587 16.2471 12.787 16.25C12.9872 16.247 13.186 16.2844 13.3714 16.36C13.5568 16.4356 13.725 16.5478 13.866 16.69C14.0097 16.8269 14.1236 16.992 14.2007 17.1749C14.2778 17.3577 14.3163 17.5545 14.314 17.753C14.3165 17.9519 14.2774 18.1491 14.1993 18.332C14.1211 18.5148 14.0055 18.6794 13.86 18.815C13.7175 18.9559 13.5483 19.0669 13.3623 19.1416C13.1764 19.2163 12.9774 19.2531 12.777 19.25H12.779ZM12.787 16.75C12.6512 16.7471 12.5162 16.7717 12.39 16.8222C12.2639 16.8727 12.1493 16.9481 12.053 17.044C11.9565 17.133 11.8799 17.2413 11.8282 17.3619C11.7765 17.4826 11.7509 17.6128 11.753 17.744C11.751 17.8763 11.7766 18.0074 11.8283 18.1292C11.8799 18.251 11.9565 18.3605 12.053 18.451C12.1474 18.5481 12.2607 18.6248 12.3859 18.6764C12.5111 18.728 12.6456 18.7534 12.781 18.751C12.9169 18.7539 13.0519 18.7294 13.178 18.6789C13.3041 18.6284 13.4188 18.5529 13.515 18.457C13.6115 18.368 13.6881 18.2597 13.7398 18.139C13.7915 18.0184 13.8171 17.8882 13.815 17.757C13.817 17.6248 13.7914 17.4936 13.7397 17.3718C13.6881 17.2501 13.6115 17.1404 13.515 17.05C13.4204 16.9526 13.3067 16.8758 13.1812 16.8242C13.0556 16.7726 12.9208 16.7473 12.785 16.75H12.787Z" fill="url(#paint2_linear_123_298)"/>
<defs>
<linearGradient id="paint0_linear_123_298" x1="18" y1="0" x2="18" y2="36" gradientUnits="userSpaceOnUse">
<stop stop-color="#1EB53A"/>
<stop offset="1" stop-color="#00A3DD"/>
</linearGradient>
<linearGradient id="paint1_linear_123_298" x1="11.5029" y1="16.4998" x2="12.485" y2="21.3088" gradientUnits="userSpaceOnUse">
<stop stop-color="#1EB53A"/>
<stop offset="1" stop-color="#00A3DD"/>
</linearGradient>
<linearGradient id="paint2_linear_123_298" x1="11.2519" y1="16.2498" x2="12.5956" y2="21.9442" gradientUnits="userSpaceOnUse">
<stop stop-color="#1EB53A"/>
<stop offset="1" stop-color="#00A3DD"/>
</linearGradient>
</defs>
</svg>
