<svg width="23" height="23" viewBox="0 0 23 23" fill="none" xmlns="http://www.w3.org/2000/svg">
<path d="M20.9741 17.236C22.002 15.5609 22.5448 13.6334 22.5421 11.668C22.5448 9.70265 22.002 7.7751 20.9741 6.1L20.9681 6.091C20.0142 4.53621 18.6776 3.25202 17.0859 2.36114C15.4942 1.47026 13.7006 1.00247 11.8766 1.00247C10.0525 1.00247 8.25893 1.47026 6.66723 2.36114C5.07553 3.25202 3.73889 4.53621 2.78506 6.091L2.77906 6.1C1.75336 7.77629 1.21057 9.70331 1.21057 11.6685C1.21057 13.6337 1.75336 15.5607 2.77906 17.237L2.78506 17.246C3.73889 18.8008 5.07553 20.085 6.66723 20.9759C8.25893 21.8667 10.0525 22.3345 11.8766 22.3345C13.7006 22.3345 15.4942 21.8667 17.0859 20.9759C18.6776 20.085 20.0142 18.8008 20.9681 17.246L20.9741 17.236ZM13.2401 20.506C13.0367 20.7021 12.8026 20.8636 12.5471 20.984C12.3374 21.0837 12.1082 21.1355 11.8761 21.1355C11.6439 21.1355 11.4147 21.0837 11.2051 20.984C10.719 20.7357 10.303 20.3696 9.99506 19.919C9.36586 19.0101 8.89958 17.9987 8.61706 16.93C9.70239 16.8633 10.7884 16.83 11.8751 16.83C12.9617 16.83 14.0481 16.8633 15.1341 16.93C14.9778 17.4795 14.7827 18.0172 14.5501 18.539C14.2436 19.2729 13.7995 19.9407 13.2401 20.506ZM2.43006 12.267H6.73006C6.75808 13.4675 6.88822 14.6635 7.11906 15.842C5.94306 15.9453 4.77006 16.0873 3.60006 16.268C2.91498 15.0392 2.51446 13.6722 2.42805 12.268L2.43006 12.267ZM3.60206 7.067C4.77139 7.24833 5.94472 7.39067 7.12206 7.494C6.89069 8.67242 6.76022 9.86842 6.73206 11.069H2.43206C2.51846 9.66476 2.91897 8.29783 3.60406 7.069L3.60206 7.067ZM10.5131 2.829C10.7165 2.633 10.9506 2.47154 11.2061 2.351C11.4157 2.25135 11.6449 2.19964 11.8771 2.19964C12.1092 2.19964 12.3384 2.25135 12.5481 2.351C13.034 2.59933 13.45 2.96548 13.7581 3.416C14.3872 4.32491 14.8535 5.33632 15.1361 6.405C14.0507 6.47167 12.9647 6.505 11.8781 6.505C10.7914 6.505 9.70506 6.47167 8.61906 6.405C8.77529 5.85549 8.97045 5.3178 9.20306 4.796C9.5096 4.06218 9.95472 3.39433 10.5141 2.829H10.5131ZM21.3231 11.068H17.0231C16.995 9.86746 16.8649 8.67148 16.6341 7.493C17.8101 7.38967 18.9831 7.24767 20.1531 7.067C20.8381 8.29583 21.2387 9.66276 21.3251 11.067L21.3231 11.068ZM8.32306 15.748C8.08713 14.6014 7.95327 13.4362 7.92306 12.266H15.8151C15.7865 13.4361 15.6543 14.6013 15.4201 15.748C14.2374 15.6707 13.0537 15.631 11.8691 15.629C10.6844 15.627 9.50106 15.6667 8.31906 15.748H8.32306ZM15.4231 7.586C15.6589 8.73259 15.7928 9.8978 15.8231 11.068H7.93106C7.95963 9.89795 8.09181 8.73272 8.32606 7.586C9.50872 7.66334 10.6924 7.703 11.8771 7.705C13.0617 7.707 14.2451 7.66734 15.4271 7.586H15.4231ZM17.0171 12.266H21.3171C21.2306 13.6702 20.8301 15.0372 20.1451 16.266C18.9757 16.0847 17.8024 15.9423 16.6251 15.839C16.8564 14.6606 16.9869 13.4646 17.0151 12.264L17.0171 12.266ZM19.4291 5.966C18.4064 6.11333 17.3807 6.23 16.3521 6.316C16.1671 5.62779 15.9288 4.95508 15.6391 4.304C15.3745 3.70471 15.0416 3.13796 14.6471 2.615C16.5544 3.20004 18.2281 4.37288 19.4291 5.966ZM5.17805 4.975C6.27218 3.87998 7.61817 3.06999 9.09806 2.616C9.07606 2.645 9.05306 2.673 9.03006 2.703C8.27125 3.79706 7.71852 5.02044 7.39906 6.313C6.37039 6.22567 5.34406 6.10867 4.32006 5.962C4.58438 5.61234 4.87239 5.28122 5.18206 4.971L5.17805 4.975ZM4.31606 17.375C5.33872 17.2277 6.36439 17.111 7.39306 17.025C7.5779 17.7132 7.81629 18.386 8.10606 19.037C8.37053 19.6363 8.70341 20.2031 9.09806 20.726C7.19076 20.1408 5.5171 18.968 4.31606 17.375ZM18.5671 18.366C17.4729 19.461 16.127 20.271 14.6471 20.725C14.6691 20.696 14.6921 20.668 14.7151 20.638C15.4758 19.5427 16.0299 18.3176 16.3501 17.023C17.3787 17.1103 18.4051 17.2273 19.4291 17.374C19.1647 17.7237 18.8767 18.0558 18.5671 18.366Z" fill="url(#paint0_linear_14_3930)" stroke="url(#paint1_linear_14_3930)" stroke-width="0.5"/>
<defs>
<linearGradient id="paint0_linear_14_3930" x1="1.21057" y1="11.6685" x2="22.5421" y2="11.6685" gradientUnits="userSpaceOnUse">
<stop stop-color="#FF5300"/>
<stop offset="0.16" stop-color="#FB5103"/>
<stop offset="0.31" stop-color="#F04C0F"/>
<stop offset="0.46" stop-color="#DE4322"/>
<stop offset="0.61" stop-color="#C5363C"/>
<stop offset="0.75" stop-color="#A4265F"/>
<stop offset="0.9" stop-color="#7C1389"/>
<stop offset="1" stop-color="#5B03AD"/>
</linearGradient>
<linearGradient id="paint1_linear_14_3930" x1="1.21057" y1="11.6685" x2="22.5421" y2="11.6685" gradientUnits="userSpaceOnUse">
<stop stop-color="#FF5300"/>
<stop offset="0.16" stop-color="#FB5103"/>
<stop offset="0.31" stop-color="#F04C0F"/>
<stop offset="0.46" stop-color="#DE4322"/>
<stop offset="0.61" stop-color="#C5363C"/>
<stop offset="0.75" stop-color="#A4265F"/>
<stop offset="0.9" stop-color="#7C1389"/>
<stop offset="1" stop-color="#5B03AD"/>
</linearGradient>
</defs>
</svg>
