<svg xmlns="http://www.w3.org/2000/svg" xmlns:xlink="http://www.w3.org/1999/xlink" width="58" height="58" viewBox="0 0 58 58">
  <defs>
    <linearGradient id="linear-gradient" x1="0.5" x2="0.5" y2="1" gradientUnits="objectBoundingBox">
      <stop offset="0" stop-color="@fill"/>
      <stop offset="1" stop-color="@fill2"/>
    </linearGradient>
  </defs>
  <path id="language_icon" d="M33,62a28.419,28.419,0,0,1-11.383-2.284,29.286,29.286,0,0,1-9.207-6.2,28.685,28.685,0,0,1-6.163-9.244A29.079,29.079,0,0,1,4,32.855,28.553,28.553,0,0,1,6.248,21.509a28.9,28.9,0,0,1,6.163-9.171,28.3,28.3,0,0,1,9.207-6.126A29.226,29.226,0,0,1,33,4,29.226,29.226,0,0,1,44.383,6.211a28.3,28.3,0,0,1,9.208,6.126,28.9,28.9,0,0,1,6.162,9.171A28.554,28.554,0,0,1,62,32.855a29.079,29.079,0,0,1-2.248,11.419,28.685,28.685,0,0,1-6.162,9.244,29.286,29.286,0,0,1-9.208,6.2A28.419,28.419,0,0,1,33,62ZM33,57.8a24.13,24.13,0,0,0,4.241-5.981A36.009,36.009,0,0,0,40.033,43.8H26.04a36.769,36.769,0,0,0,2.719,7.83A24.707,24.707,0,0,0,33,57.8Zm-6.163-.87A34.662,34.662,0,0,1,23.72,50.98,43.431,43.431,0,0,1,21.545,43.8H10.67a26,26,0,0,0,6.38,8.084A31.855,31.855,0,0,0,26.838,56.925Zm12.4-.072a29.028,29.028,0,0,0,9.389-5A25.966,25.966,0,0,0,55.33,43.8h-10.8a52.52,52.52,0,0,1-2.211,7.105,32.909,32.909,0,0,1-3.081,5.945ZM9.22,39.453H20.747q-.218-1.958-.254-3.516t-.036-3.081q0-1.812.073-3.226t.29-3.154H9.22a21.14,21.14,0,0,0-.689,3.118,25.406,25.406,0,0,0-.181,3.262,28.09,28.09,0,0,0,.181,3.371,20.437,20.437,0,0,0,.689,3.226Zm16.023,0H40.83q.29-2.247.362-3.661t.072-2.936q0-1.45-.072-2.791t-.362-3.589H25.243q-.29,2.247-.362,3.589t-.072,2.791q0,1.522.072,2.936t.362,3.661Zm19.938,0h11.6a20.437,20.437,0,0,0,.689-3.226,28.089,28.089,0,0,0,.181-3.371,25.407,25.407,0,0,0-.181-3.262,21.14,21.14,0,0,0-.689-3.117H45.253q.218,2.537.29,3.879t.072,2.5q0,1.6-.109,3.009t-.326,3.589Zm-.725-17.328H55.33a23.49,23.49,0,0,0-6.561-8.338,25,25,0,0,0-9.606-4.713,31.6,31.6,0,0,1,3.081,5.8,47.153,47.153,0,0,1,2.211,7.25Zm-18.415,0H40.1a28.278,28.278,0,0,0-2.683-7.431A29.659,29.659,0,0,0,33,8.35,15.943,15.943,0,0,0,29.085,13.5a46.812,46.812,0,0,0-3.045,8.628Zm-15.37,0H21.617a40.808,40.808,0,0,1,2.03-7,34.42,34.42,0,0,1,3.118-5.981A23.918,23.918,0,0,0,10.67,22.125Z" transform="translate(-4 -4)" fill="url(#linear-gradient)"/>
</svg>
