<svg width="20" height="24" viewBox="0 0 20 24" fill="none" xmlns="http://www.w3.org/2000/svg">
<path d="M5.39505 18.362H14.6051V16.642H5.39505V18.362ZM5.39505 13.5H14.6051V11.783H5.39505V13.5ZM2.56305 23.224C2.11145 23.2128 1.68143 23.0285 1.36201 22.709C1.04258 22.3896 0.858207 21.9596 0.847051 21.508V2.05799C0.846491 1.83341 0.891892 1.6111 0.98046 1.40473C1.06903 1.19836 1.19889 1.01229 1.36205 0.857985C1.51639 0.694518 1.70258 0.5644 1.90913 0.475654C2.11569 0.386909 2.33824 0.341417 2.56305 0.341985H12.8891L19.1531 6.60599V21.506C19.1419 21.9576 18.9575 22.3876 18.6381 22.707C18.3187 23.0265 17.8887 23.2108 17.4371 23.222L2.56305 23.224ZM12.0301 7.37799V2.05799H2.56305V21.508H17.4361V7.37799H12.0301Z" fill="url(#paint0_linear_14_3949)"/>
<defs>
<linearGradient id="paint0_linear_14_3949" x1="0.847046" y1="11.783" x2="19.1531" y2="11.783" gradientUnits="userSpaceOnUse">
<stop stop-color="#FF5300"/>
<stop offset="0.16" stop-color="#FB5103"/>
<stop offset="0.31" stop-color="#F04C0F"/>
<stop offset="0.46" stop-color="#DE4322"/>
<stop offset="0.61" stop-color="#C5363C"/>
<stop offset="0.75" stop-color="#A4265F"/>
<stop offset="0.9" stop-color="#7C1389"/>
<stop offset="1" stop-color="#5B03AD"/>
</linearGradient>
</defs>
</svg>
