<svg xmlns="http://www.w3.org/2000/svg" xmlns:xlink="http://www.w3.org/1999/xlink" width="44.19" height="58" viewBox="0 0 44.19 58" fill="none">
  <defs>
    <linearGradient id="linear-gradient-lock-icon" x1="0.5" x2="0.5" y2="1" gradientUnits="objectBoundingBox">
      <stop offset="0" stop-color="@fill"/>
      <stop offset="1" stop-color="@fill2"/>
    </linearGradient>
  </defs>
  <path id="lock_icon" d="M12.143,60A4.126,4.126,0,0,1,8,55.857V25.89a4.126,4.126,0,0,1,4.143-4.143h4.833V15.119a12.647,12.647,0,0,1,3.832-9.287A12.647,12.647,0,0,1,30.1,2a12.647,12.647,0,0,1,9.287,3.832,12.647,12.647,0,0,1,3.832,9.287v6.629h4.833A4.126,4.126,0,0,1,52.19,25.89V55.857A4.126,4.126,0,0,1,48.048,60Zm0-4.143h35.9V25.89h-35.9ZM30.1,46.19a5.185,5.185,0,0,0,3.763-1.519,4.933,4.933,0,0,0,1.554-3.66,5.435,5.435,0,0,0-1.554-3.763,5.031,5.031,0,0,0-7.526,0,5.435,5.435,0,0,0-1.554,3.763,4.933,4.933,0,0,0,1.554,3.66A5.185,5.185,0,0,0,30.1,46.19ZM21.119,21.748H39.071V15.119a8.652,8.652,0,0,0-2.624-6.352,9,9,0,0,0-12.7,0,8.652,8.652,0,0,0-2.624,6.352Zm-8.976,34.11v0Z" transform="translate(-8 -2)" fill="url(#linear-gradient-lock-icon)"/>
</svg>
