<svg xmlns="http://www.w3.org/2000/svg" width="13.012" height="13.154" viewBox="0 0 13.012 13.154" fill="#000">
  <path id="zoom_in_FILL0_wght400_GRAD0_opsz48" d="M18.106,19.1l-3.6-3.743a4.538,4.538,0,0,1-1.441.834,5.1,5.1,0,0,1-1.75.3,5.127,5.127,0,0,1-3.768-1.544A5.079,5.079,0,0,1,6,11.222,5.079,5.079,0,0,1,7.544,7.494,5.1,5.1,0,0,1,11.292,5.95a5.045,5.045,0,0,1,3.717,1.544,5.27,5.27,0,0,1,1.246,5.436,5.227,5.227,0,0,1-.865,1.544L19.012,18.2Zm-6.814-3.846a3.854,3.854,0,0,0,2.842-1.184,3.9,3.9,0,0,0,1.174-2.852A3.9,3.9,0,0,0,14.134,8.37a3.854,3.854,0,0,0-2.842-1.184,4.043,4.043,0,0,0-4.057,4.036,4.043,4.043,0,0,0,4.057,4.036Zm-.638-1.75V11.819H8.965V10.583h1.689V8.915h1.236v1.668h1.668v1.236H11.889v1.689Z" transform="translate(-6 -5.95)"/>
</svg>
