<svg xmlns="http://www.w3.org/2000/svg" xmlns:xlink="http://www.w3.org/1999/xlink" width="160.441" height="173.276" viewBox="0 0 160.441 173.276">
  <defs>
    <clipPath id="clip-path">
      <path id="Path_155566" data-name="Path 155566" d="M294.259,160.244a10.053,10.053,0,0,1-1.912,3.7c-1.912,2.3-4.78,3.559-7.607,4.515a2.22,2.22,0,0,0-.915.488,2.325,2.325,0,0,0-.427,1.485,8.959,8.959,0,0,1-1.729,4.841,5.548,5.548,0,0,1-4.515,2.2,9.334,9.334,0,0,1-2.319-.529,80.74,80.74,0,0,0-16.353-2.685c-3.336-.285-6.733-.508-9.8-1.831-2.766-1.2-6.244-4.027-6-7.343.285-3.905-.122-7.953,1.139-11.756a17.311,17.311,0,0,1,1.342-2.929,58.419,58.419,0,1,0,49.1,9.845Zm-34.9,76.743a29.961,29.961,0,1,1,29.961-29.961A29.961,29.961,0,0,1,259.355,236.987Z" transform="translate(-201 -150.4)"/>
    </clipPath>
    <clipPath id="clip-path-16">
      <path id="Path_155581" data-name="Path 155581" d="M259.276,141.8a58.376,58.376,0,1,0,58.376,58.376A58.377,58.377,0,0,0,259.276,141.8Zm0,88.336a29.961,29.961,0,1,1,29.961-29.961A29.961,29.961,0,0,1,259.276,230.136Z" transform="translate(-200.9 -141.8)"/>
    </clipPath>
  </defs>
  <g id="MOSIP_Vertical_Black" data-name="MOSIP Vertical Black" transform="translate(-93.5 -115)">
    <g id="Group_57516" data-name="Group 57516" transform="translate(93.5 258.112)">
      <g id="Group_57515" data-name="Group 57515" transform="translate(0 0)">
        <g id="Group_57514" data-name="Group 57514">
          <path id="Path_155560" data-name="Path 155560" d="M120.023,850.167l-.041-17.492L111.4,847.1h-3.031l-8.543-14.035v17.126H93.5V821h5.573L110,839.123,120.735,821h5.532l.081,29.147h-6.326Z" transform="translate(-93.5 -820.512)" fill="#000"/>
          <path id="Path_155561" data-name="Path 155561" d="M312.37,846.791a15.149,15.149,0,0,1-5.716-20.848,14.453,14.453,0,0,1,5.716-5.39,17.043,17.043,0,0,1,8.177-1.953,16.849,16.849,0,0,1,8.156,1.953,14.875,14.875,0,0,1,5.716,5.39,14.857,14.857,0,0,1-5.716,20.848,18.053,18.053,0,0,1-16.333,0Zm12.855-4.983a8.552,8.552,0,0,0,3.275-3.315,10.522,10.522,0,0,0,0-9.682,8.552,8.552,0,0,0-3.275-3.315,9.785,9.785,0,0,0-9.316,0,8.552,8.552,0,0,0-3.275,3.315,10.523,10.523,0,0,0,0,9.682,8.417,8.417,0,0,0,3.275,3.315,9.221,9.221,0,0,0,4.658,1.18A9.071,9.071,0,0,0,325.225,841.808Z" transform="translate(-261.662 -818.6)" fill="#000"/>
          <path id="Path_155562" data-name="Path 155562" d="M504.887,847.808a15.787,15.787,0,0,1-5.187-2.441l2.3-5.085a15.724,15.724,0,0,0,4.454,2.217,16.937,16.937,0,0,0,5.166.834,8.265,8.265,0,0,0,4.251-.854,2.59,2.59,0,0,0,1.383-2.278,2.166,2.166,0,0,0-.814-1.729,5.912,5.912,0,0,0-2.075-1.1c-.834-.264-1.993-.59-3.437-.915a46.771,46.771,0,0,1-5.451-1.587,8.9,8.9,0,0,1-3.641-2.542,6.835,6.835,0,0,1-1.526-4.658,8.1,8.1,0,0,1,1.383-4.6,9.24,9.24,0,0,1,4.149-3.275,16.817,16.817,0,0,1,6.773-1.2,22.228,22.228,0,0,1,5.451.671,16.1,16.1,0,0,1,4.658,1.912l-2.075,5.126a16.268,16.268,0,0,0-8.075-2.3,7.62,7.62,0,0,0-4.19.915,2.833,2.833,0,0,0-1.363,2.42,2.388,2.388,0,0,0,1.566,2.237,25.27,25.27,0,0,0,4.76,1.444,46.768,46.768,0,0,1,5.451,1.586,9.008,9.008,0,0,1,3.641,2.5,6.691,6.691,0,0,1,1.526,4.617,7.884,7.884,0,0,1-1.4,4.556,9.364,9.364,0,0,1-4.19,3.275,16.918,16.918,0,0,1-6.794,1.2A24.516,24.516,0,0,1,504.887,847.808Z" transform="translate(-417.079 -818.6)" fill="#000"/>
          <path id="Path_155563" data-name="Path 155563" d="M666.2,821h6.753v29.147H666.2Z" transform="translate(-549.713 -820.512)" fill="#000"/>
          <path id="Path_155564" data-name="Path 155564" d="M777.343,822.3a9.917,9.917,0,0,1,4.393,3.661,10.187,10.187,0,0,1,1.546,5.614,10,10,0,0,1-1.546,5.594,9.768,9.768,0,0,1-4.393,3.661,16.367,16.367,0,0,1-6.732,1.261h-5.878v8.034H758V821h12.611A16.357,16.357,0,0,1,777.343,822.3Zm-2.481,13.018a5.207,5.207,0,0,0,0-7.485,7.1,7.1,0,0,0-4.617-1.3h-5.492v10.129h5.492A7.34,7.34,0,0,0,774.862,835.319Z" transform="translate(-622.841 -820.512)" fill="#000"/>
        </g>
      </g>
    </g>
    <g id="Group_57541" data-name="Group 57541" transform="translate(115.345 115)">
      <g id="Group_57533" data-name="Group 57533" transform="translate(0.02 0)">
        <g id="Group_57532" data-name="Group 57532" transform="translate(0 7.2)">
          <path id="Path_155565" data-name="Path 155565" d="M294.259,160.244a10.053,10.053,0,0,1-1.912,3.7c-1.912,2.3-4.78,3.559-7.607,4.515a2.22,2.22,0,0,0-.915.488,2.325,2.325,0,0,0-.427,1.485,8.959,8.959,0,0,1-1.729,4.841,5.548,5.548,0,0,1-4.515,2.2,9.334,9.334,0,0,1-2.319-.529,80.74,80.74,0,0,0-16.353-2.685c-3.336-.285-6.733-.508-9.8-1.831-2.766-1.2-6.244-4.027-6-7.343.285-3.905-.122-7.953,1.139-11.756a17.311,17.311,0,0,1,1.342-2.929,58.419,58.419,0,1,0,49.1,9.845Zm-34.9,76.743a29.961,29.961,0,1,1,29.961-29.961A29.961,29.961,0,0,1,259.355,236.987Z" transform="translate(-201 -150.4)" fill="#fec401"/>
          <g id="Group_57517" data-name="Group 57517" clip-path="url(#clip-path)">
            <circle id="Ellipse_1138" data-name="Ellipse 1138" cx="23.269" cy="23.269" r="23.269" transform="translate(57.745 67.874)" fill="#01a2fd"/>
          </g>
          <g id="Group_57518" data-name="Group 57518" transform="translate(0 0)" clip-path="url(#clip-path)">
            <circle id="Ellipse_1139" data-name="Ellipse 1139" cx="9.519" cy="9.519" r="9.519" transform="translate(4.841 39.46)" fill="#f97707"/>
          </g>
          <g id="Group_57519" data-name="Group 57519" clip-path="url(#clip-path)">
            <circle id="Ellipse_1140" data-name="Ellipse 1140" cx="17.269" cy="17.269" r="17.269" transform="translate(14.502 55.426)" fill="#01a2fd"/>
          </g>
          <g id="Group_57520" data-name="Group 57520" transform="translate(0 0)" clip-path="url(#clip-path)">
            <circle id="Ellipse_1141" data-name="Ellipse 1141" cx="17.269" cy="17.269" r="17.269" transform="translate(-9.641 18.082)" fill="#014daf"/>
          </g>
          <g id="Group_57521" data-name="Group 57521" transform="translate(0 0)" clip-path="url(#clip-path)">
            <circle id="Ellipse_1142" data-name="Ellipse 1142" cx="14.116" cy="14.116" r="14.116" transform="translate(26.076 9.763)" fill="#f97707"/>
          </g>
          <g id="Group_57522" data-name="Group 57522" transform="translate(0 0)" clip-path="url(#clip-path)">
            <circle id="Ellipse_1143" data-name="Ellipse 1143" cx="13.974" cy="13.974" r="13.974" transform="translate(21.54 -9.458)" fill="#01a2fd"/>
          </g>
          <g id="Group_57523" data-name="Group 57523" transform="translate(0 0)" clip-path="url(#clip-path)">
            <circle id="Ellipse_1144" data-name="Ellipse 1144" cx="14.116" cy="14.116" r="14.116" transform="translate(89.313 18.001)" fill="#f97707"/>
          </g>
          <g id="Group_57524" data-name="Group 57524" transform="translate(0 0)" clip-path="url(#clip-path)">
            <circle id="Ellipse_1145" data-name="Ellipse 1145" cx="9.356" cy="9.356" r="9.356" transform="translate(91.225 36.327)" fill="#01a2fd"/>
          </g>
          <g id="Group_57525" data-name="Group 57525" transform="translate(0 0)" clip-path="url(#clip-path)">
            <circle id="Ellipse_1146" data-name="Ellipse 1146" cx="9.356" cy="9.356" r="9.356" transform="translate(66.41 14.441)" fill="#014daf"/>
          </g>
          <g id="Group_57526" data-name="Group 57526" transform="translate(0 0)" clip-path="url(#clip-path)">
            <circle id="Ellipse_1147" data-name="Ellipse 1147" cx="6.672" cy="6.672" r="6.672" transform="translate(52.803 -0.753)" fill="#014daf"/>
          </g>
          <g id="Group_57527" data-name="Group 57527" transform="translate(0 0)" clip-path="url(#clip-path)">
            <circle id="Ellipse_1148" data-name="Ellipse 1148" cx="14.116" cy="14.116" r="14.116" transform="translate(24.205 86.587)" fill="#f97707"/>
          </g>
          <g id="Group_57528" data-name="Group 57528" clip-path="url(#clip-path)">
            <circle id="Ellipse_1149" data-name="Ellipse 1149" cx="10.434" cy="10.434" r="10.434" transform="translate(-4.19 64.518)" fill="#014daf"/>
          </g>
          <g id="Group_57529" data-name="Group 57529" transform="translate(0 0)" clip-path="url(#clip-path)">
            <circle id="Ellipse_1150" data-name="Ellipse 1150" cx="18.998" cy="18.998" r="18.998" transform="translate(42.043 86.465)" fill="#014daf"/>
          </g>
          <g id="Group_57530" data-name="Group 57530" transform="translate(0 0)" clip-path="url(#clip-path)">
            <circle id="Ellipse_1151" data-name="Ellipse 1151" cx="9.519" cy="9.519" r="9.519" transform="translate(88.316 66.532)" fill="#014daf"/>
          </g>
          <g id="Group_57531" data-name="Group 57531" transform="translate(0 0)" clip-path="url(#clip-path)">
            <circle id="Ellipse_1152" data-name="Ellipse 1152" cx="9.519" cy="9.519" r="9.519" transform="translate(110.69 51.908)" fill="#f97707"/>
          </g>
        </g>
        <circle id="Ellipse_1153" data-name="Ellipse 1153" cx="5.126" cy="5.126" r="5.126" transform="translate(71.414 4.088)" fill="#f97707"/>
        <circle id="Ellipse_1154" data-name="Ellipse 1154" cx="3.051" cy="3.051" r="3.051" transform="translate(61.935)" fill="#fec401"/>
        <circle id="Ellipse_1155" data-name="Ellipse 1155" cx="5.126" cy="5.126" r="5.126" transform="translate(84.065 15.113)" fill="#014daf"/>
      </g>
      <g id="Group_57540" data-name="Group 57540" transform="translate(0 5.451)">
        <g id="Group_57534" data-name="Group 57534" clip-path="url(#clip-path-16)">
          <circle id="Ellipse_1156" data-name="Ellipse 1156" cx="8.197" cy="8.197" r="8.197" transform="translate(52.497 20.218)" fill="#fec401"/>
        </g>
        <g id="Group_57535" data-name="Group 57535" clip-path="url(#clip-path-16)">
          <circle id="Ellipse_1157" data-name="Ellipse 1157" cx="10.597" cy="10.597" r="10.597" transform="translate(66.817 17.411)" fill="#01a2fd"/>
        </g>
        <g id="Group_57536" data-name="Group 57536" clip-path="url(#clip-path-16)">
          <circle id="Ellipse_1158" data-name="Ellipse 1158" cx="5.126" cy="5.126" r="5.126" transform="translate(68.057 12.712)" fill="#fec401"/>
        </g>
        <g id="Group_57537" data-name="Group 57537" clip-path="url(#clip-path-16)">
          <circle id="Ellipse_1159" data-name="Ellipse 1159" cx="6.59" cy="6.59" r="6.59" transform="translate(53.514 3.763)" fill="#014daf"/>
        </g>
        <g id="Group_57538" data-name="Group 57538" clip-path="url(#clip-path-16)">
          <circle id="Ellipse_1160" data-name="Ellipse 1160" cx="14.116" cy="14.116" r="14.116" transform="translate(25.994 11.756)" fill="#f97707"/>
        </g>
        <g id="Group_57539" data-name="Group 57539" clip-path="url(#clip-path-16)">
          <circle id="Ellipse_1161" data-name="Ellipse 1161" cx="13.974" cy="13.974" r="13.974" transform="translate(21.438 -7.465)" fill="#01a2fd"/>
        </g>
      </g>
    </g>
  </g>
</svg>
