<svg xmlns="http://www.w3.org/2000/svg" xmlns:xlink="http://www.w3.org/1999/xlink" width="564" height="564" viewBox="0 0 564 564">
  <defs>
    <clipPath id="clip-path">
      <path id="Path_155571" data-name="Path 155571" d="M408.7,106.1a39.7,39.7,0,0,1-7.6,14.7c-7.6,9.1-18.9,14.1-30.2,17.9a8.723,8.723,0,0,0-3.7,1.9c-1.4,1.5-1.6,3.8-1.7,5.9-.5,6.9-2.6,13.8-6.9,19.3-4.3,5.4-11,9.1-17.9,8.7a42.252,42.252,0,0,1-9.2-2.1c-21.1-6.3-43.1-8.8-65-10.6-13.2-1.1-26.8-2-39-7.3-11-4.7-24.8-16-23.8-29.2,1.1-15.5-.5-31.6,4.5-46.7A67.673,67.673,0,0,1,213.5,67C112.9,92.3,38.2,183.4,38.2,291.9c0,128,103.8,231.8,231.8,231.8S501.8,419.9,501.8,291.9C501.9,215.9,465.2,148.4,408.7,106.1ZM270.1,410.9a119,119,0,1,1,119-119A119.028,119.028,0,0,1,270.1,410.9Z" transform="translate(-267.7 -336.6)"/>
    </clipPath>
    <clipPath id="clip-path-2">
      <path id="Path_155572" data-name="Path 155572" d="M408.7,106.1a39.7,39.7,0,0,1-7.6,14.7c-7.6,9.1-18.9,14.1-30.2,17.9a8.723,8.723,0,0,0-3.7,1.9c-1.4,1.5-1.6,3.8-1.7,5.9-.5,6.9-2.6,13.8-6.9,19.3-4.3,5.4-11,9.1-17.9,8.7a42.252,42.252,0,0,1-9.2-2.1c-21.1-6.3-43.1-8.8-65-10.6-13.2-1.1-26.8-2-39-7.3-11-4.7-24.8-16-23.8-29.2,1.1-15.5-.5-31.6,4.5-46.7A67.673,67.673,0,0,1,213.5,67C112.9,92.3,38.2,183.4,38.2,291.9c0,128,103.8,231.8,231.8,231.8S501.8,419.9,501.8,291.9C501.9,215.9,465.2,148.4,408.7,106.1ZM270.1,410.9a119,119,0,1,1,119-119A119.028,119.028,0,0,1,270.1,410.9Z" transform="translate(-57.6 -223.7)"/>
    </clipPath>
    <clipPath id="clip-path-3">
      <path id="Path_155573" data-name="Path 155573" d="M408.7,106.1a39.7,39.7,0,0,1-7.6,14.7c-7.6,9.1-18.9,14.1-30.2,17.9a8.723,8.723,0,0,0-3.7,1.9c-1.4,1.5-1.6,3.8-1.7,5.9-.5,6.9-2.6,13.8-6.9,19.3-4.3,5.4-11,9.1-17.9,8.7a42.252,42.252,0,0,1-9.2-2.1c-21.1-6.3-43.1-8.8-65-10.6-13.2-1.1-26.8-2-39-7.3-11-4.7-24.8-16-23.8-29.2,1.1-15.5-.5-31.6,4.5-46.7A67.673,67.673,0,0,1,213.5,67C112.9,92.3,38.2,183.4,38.2,291.9c0,128,103.8,231.8,231.8,231.8S501.8,419.9,501.8,291.9C501.9,215.9,465.2,148.4,408.7,106.1ZM270.1,410.9a119,119,0,1,1,119-119A119.028,119.028,0,0,1,270.1,410.9Z" transform="translate(-95.9 -287.1)"/>
    </clipPath>
    <clipPath id="clip-path-4">
      <path id="Path_155574" data-name="Path 155574" d="M408.7,106.1a39.7,39.7,0,0,1-7.6,14.7c-7.6,9.1-18.9,14.1-30.2,17.9a8.723,8.723,0,0,0-3.7,1.9c-1.4,1.5-1.6,3.8-1.7,5.9-.5,6.9-2.6,13.8-6.9,19.3-4.3,5.4-11,9.1-17.9,8.7a42.252,42.252,0,0,1-9.2-2.1c-21.1-6.3-43.1-8.8-65-10.6-13.2-1.1-26.8-2-39-7.3-11-4.7-24.8-16-23.8-29.2,1.1-15.5-.5-31.6,4.5-46.7A67.673,67.673,0,0,1,213.5,67C112.9,92.3,38.2,183.4,38.2,291.9c0,128,103.8,231.8,231.8,231.8S501.8,419.9,501.8,291.9C501.9,215.9,465.2,148.4,408.7,106.1ZM270.1,410.9a119,119,0,1,1,119-119A119.028,119.028,0,0,1,270.1,410.9Z" transform="translate(0 -138.8)"/>
    </clipPath>
    <clipPath id="clip-path-5">
      <path id="Path_155575" data-name="Path 155575" d="M408.7,106.1a39.7,39.7,0,0,1-7.6,14.7c-7.6,9.1-18.9,14.1-30.2,17.9a8.723,8.723,0,0,0-3.7,1.9c-1.4,1.5-1.6,3.8-1.7,5.9-.5,6.9-2.6,13.8-6.9,19.3-4.3,5.4-11,9.1-17.9,8.7a42.252,42.252,0,0,1-9.2-2.1c-21.1-6.3-43.1-8.8-65-10.6-13.2-1.1-26.8-2-39-7.3-11-4.7-24.8-16-23.8-29.2,1.1-15.5-.5-31.6,4.5-46.7A67.673,67.673,0,0,1,213.5,67C112.9,92.3,38.2,183.4,38.2,291.9c0,128,103.8,231.8,231.8,231.8S501.8,419.9,501.8,291.9C501.9,215.9,465.2,148.4,408.7,106.1ZM270.1,410.9a119,119,0,1,1,119-119A119.028,119.028,0,0,1,270.1,410.9Z" transform="translate(-142 -105.8)"/>
    </clipPath>
    <clipPath id="clip-path-6">
      <path id="Path_155576" data-name="Path 155576" d="M408.7,106.1a39.7,39.7,0,0,1-7.6,14.7c-7.6,9.1-18.9,14.1-30.2,17.9a8.723,8.723,0,0,0-3.7,1.9c-1.4,1.5-1.6,3.8-1.7,5.9-.5,6.9-2.6,13.8-6.9,19.3-4.3,5.4-11,9.1-17.9,8.7a42.252,42.252,0,0,1-9.2-2.1c-21.1-6.3-43.1-8.8-65-10.6-13.2-1.1-26.8-2-39-7.3-11-4.7-24.8-16-23.8-29.2,1.1-15.5-.5-31.6,4.5-46.7A67.673,67.673,0,0,1,213.5,67C112.9,92.3,38.2,183.4,38.2,291.9c0,128,103.8,231.8,231.8,231.8S501.8,419.9,501.8,291.9C501.9,215.9,465.2,148.4,408.7,106.1ZM270.1,410.9a119,119,0,1,1,119-119A119.028,119.028,0,0,1,270.1,410.9Z" transform="translate(-123.8 -29.4)"/>
    </clipPath>
    <clipPath id="clip-path-7">
      <path id="Path_155577" data-name="Path 155577" d="M408.7,106.1a39.7,39.7,0,0,1-7.6,14.7c-7.6,9.1-18.9,14.1-30.2,17.9a8.723,8.723,0,0,0-3.7,1.9c-1.4,1.5-1.6,3.8-1.7,5.9-.5,6.9-2.6,13.8-6.9,19.3-4.3,5.4-11,9.1-17.9,8.7a42.252,42.252,0,0,1-9.2-2.1c-21.1-6.3-43.1-8.8-65-10.6-13.2-1.1-26.8-2-39-7.3-11-4.7-24.8-16-23.8-29.2,1.1-15.5-.5-31.6,4.5-46.7A67.673,67.673,0,0,1,213.5,67C112.9,92.3,38.2,183.4,38.2,291.9c0,128,103.8,231.8,231.8,231.8S501.8,419.9,501.8,291.9C501.9,215.9,465.2,148.4,408.7,106.1ZM270.1,410.9a119,119,0,1,1,119-119A119.028,119.028,0,0,1,270.1,410.9Z" transform="translate(-393.1 -138.5)"/>
    </clipPath>
    <clipPath id="clip-path-8">
      <path id="Path_155578" data-name="Path 155578" d="M408.7,106.1a39.7,39.7,0,0,1-7.6,14.7c-7.6,9.1-18.9,14.1-30.2,17.9a8.723,8.723,0,0,0-3.7,1.9c-1.4,1.5-1.6,3.8-1.7,5.9-.5,6.9-2.6,13.8-6.9,19.3-4.3,5.4-11,9.1-17.9,8.7a42.252,42.252,0,0,1-9.2-2.1c-21.1-6.3-43.1-8.8-65-10.6-13.2-1.1-26.8-2-39-7.3-11-4.7-24.8-16-23.8-29.2,1.1-15.5-.5-31.6,4.5-46.7A67.673,67.673,0,0,1,213.5,67C112.9,92.3,38.2,183.4,38.2,291.9c0,128,103.8,231.8,231.8,231.8S501.8,419.9,501.8,291.9C501.9,215.9,465.2,148.4,408.7,106.1ZM270.1,410.9a119,119,0,1,1,119-119A119.028,119.028,0,0,1,270.1,410.9Z" transform="translate(-400.7 -211.4)"/>
    </clipPath>
    <clipPath id="clip-path-9">
      <path id="Path_155579" data-name="Path 155579" d="M408.7,106.1a39.7,39.7,0,0,1-7.6,14.7c-7.6,9.1-18.9,14.1-30.2,17.9a8.723,8.723,0,0,0-3.7,1.9c-1.4,1.5-1.6,3.8-1.7,5.9-.5,6.9-2.6,13.8-6.9,19.3-4.3,5.4-11,9.1-17.9,8.7a42.252,42.252,0,0,1-9.2-2.1c-21.1-6.3-43.1-8.8-65-10.6-13.2-1.1-26.8-2-39-7.3-11-4.7-24.8-16-23.8-29.2,1.1-15.5-.5-31.6,4.5-46.7A67.673,67.673,0,0,1,213.5,67C112.9,92.3,38.2,183.4,38.2,291.9c0,128,103.8,231.8,231.8,231.8S501.8,419.9,501.8,291.9C501.9,215.9,465.2,148.4,408.7,106.1ZM270.1,410.9a119,119,0,1,1,119-119A119.028,119.028,0,0,1,270.1,410.9Z" transform="translate(-302.1 -124.4)"/>
    </clipPath>
    <clipPath id="clip-path-10">
      <path id="Path_155580" data-name="Path 155580" d="M408.7,106.1a39.7,39.7,0,0,1-7.6,14.7c-7.6,9.1-18.9,14.1-30.2,17.9a8.723,8.723,0,0,0-3.7,1.9c-1.4,1.5-1.6,3.8-1.7,5.9-.5,6.9-2.6,13.8-6.9,19.3-4.3,5.4-11,9.1-17.9,8.7a42.252,42.252,0,0,1-9.2-2.1c-21.1-6.3-43.1-8.8-65-10.6-13.2-1.1-26.8-2-39-7.3-11-4.7-24.8-16-23.8-29.2,1.1-15.5-.5-31.6,4.5-46.7A67.673,67.673,0,0,1,213.5,67C112.9,92.3,38.2,183.4,38.2,291.9c0,128,103.8,231.8,231.8,231.8S501.8,419.9,501.8,291.9C501.9,215.9,465.2,148.4,408.7,106.1ZM270.1,410.9a119,119,0,1,1,119-119A119.028,119.028,0,0,1,270.1,410.9Z" transform="translate(-248 -64)"/>
    </clipPath>
    <clipPath id="clip-path-11">
      <path id="Path_155581" data-name="Path 155581" d="M408.7,106.1a39.7,39.7,0,0,1-7.6,14.7c-7.6,9.1-18.9,14.1-30.2,17.9a8.723,8.723,0,0,0-3.7,1.9c-1.4,1.5-1.6,3.8-1.7,5.9-.5,6.9-2.6,13.8-6.9,19.3-4.3,5.4-11,9.1-17.9,8.7a42.252,42.252,0,0,1-9.2-2.1c-21.1-6.3-43.1-8.8-65-10.6-13.2-1.1-26.8-2-39-7.3-11-4.7-24.8-16-23.8-29.2,1.1-15.5-.5-31.6,4.5-46.7A67.673,67.673,0,0,1,213.5,67C112.9,92.3,38.2,183.4,38.2,291.9c0,128,103.8,231.8,231.8,231.8S501.8,419.9,501.8,291.9C501.9,215.9,465.2,148.4,408.7,106.1ZM270.1,410.9a119,119,0,1,1,119-119A119.028,119.028,0,0,1,270.1,410.9Z" transform="translate(-134.5 -410.9)"/>
    </clipPath>
    <clipPath id="clip-path-12">
      <path id="Path_155582" data-name="Path 155582" d="M408.7,106.1a39.7,39.7,0,0,1-7.6,14.7c-7.6,9.1-18.9,14.1-30.2,17.9a8.723,8.723,0,0,0-3.7,1.9c-1.4,1.5-1.6,3.8-1.7,5.9-.5,6.9-2.6,13.8-6.9,19.3-4.3,5.4-11,9.1-17.9,8.7a42.252,42.252,0,0,1-9.2-2.1c-21.1-6.3-43.1-8.8-65-10.6-13.2-1.1-26.8-2-39-7.3-11-4.7-24.8-16-23.8-29.2,1.1-15.5-.5-31.6,4.5-46.7A67.673,67.673,0,0,1,213.5,67C112.9,92.3,38.2,183.4,38.2,291.9c0,128,103.8,231.8,231.8,231.8S501.8,419.9,501.8,291.9C501.9,215.9,465.2,148.4,408.7,106.1ZM270.1,410.9a119,119,0,1,1,119-119A119.028,119.028,0,0,1,270.1,410.9Z" transform="translate(-21.7 -323.3)"/>
    </clipPath>
    <clipPath id="clip-path-13">
      <path id="Path_155583" data-name="Path 155583" d="M408.7,106.1a39.7,39.7,0,0,1-7.6,14.7c-7.6,9.1-18.9,14.1-30.2,17.9a8.723,8.723,0,0,0-3.7,1.9c-1.4,1.5-1.6,3.8-1.7,5.9-.5,6.9-2.6,13.8-6.9,19.3-4.3,5.4-11,9.1-17.9,8.7a42.252,42.252,0,0,1-9.2-2.1c-21.1-6.3-43.1-8.8-65-10.6-13.2-1.1-26.8-2-39-7.3-11-4.7-24.8-16-23.8-29.2,1.1-15.5-.5-31.6,4.5-46.7A67.673,67.673,0,0,1,213.5,67C112.9,92.3,38.2,183.4,38.2,291.9c0,128,103.8,231.8,231.8,231.8S501.8,419.9,501.8,291.9C501.9,215.9,465.2,148.4,408.7,106.1ZM270.1,410.9a119,119,0,1,1,119-119A119.028,119.028,0,0,1,270.1,410.9Z" transform="translate(-205.2 -410.4)"/>
    </clipPath>
    <clipPath id="clip-path-14">
      <path id="Path_155584" data-name="Path 155584" d="M408.7,106.1a39.7,39.7,0,0,1-7.6,14.7c-7.6,9.1-18.9,14.1-30.2,17.9a8.723,8.723,0,0,0-3.7,1.9c-1.4,1.5-1.6,3.8-1.7,5.9-.5,6.9-2.6,13.8-6.9,19.3-4.3,5.4-11,9.1-17.9,8.7a42.252,42.252,0,0,1-9.2-2.1c-21.1-6.3-43.1-8.8-65-10.6-13.2-1.1-26.8-2-39-7.3-11-4.7-24.8-16-23.8-29.2,1.1-15.5-.5-31.6,4.5-46.7A67.673,67.673,0,0,1,213.5,67C112.9,92.3,38.2,183.4,38.2,291.9c0,128,103.8,231.8,231.8,231.8S501.8,419.9,501.8,291.9C501.9,215.9,465.2,148.4,408.7,106.1ZM270.1,410.9a119,119,0,1,1,119-119A119.028,119.028,0,0,1,270.1,410.9Z" transform="translate(-389 -331.3)"/>
    </clipPath>
    <clipPath id="clip-path-15">
      <path id="Path_155585" data-name="Path 155585" d="M408.7,106.1a39.7,39.7,0,0,1-7.6,14.7c-7.6,9.1-18.9,14.1-30.2,17.9a8.723,8.723,0,0,0-3.7,1.9c-1.4,1.5-1.6,3.8-1.7,5.9-.5,6.9-2.6,13.8-6.9,19.3-4.3,5.4-11,9.1-17.9,8.7a42.252,42.252,0,0,1-9.2-2.1c-21.1-6.3-43.1-8.8-65-10.6-13.2-1.1-26.8-2-39-7.3-11-4.7-24.8-16-23.8-29.2,1.1-15.5-.5-31.6,4.5-46.7A67.673,67.673,0,0,1,213.5,67C112.9,92.3,38.2,183.4,38.2,291.9c0,128,103.8,231.8,231.8,231.8S501.8,419.9,501.8,291.9C501.9,215.9,465.2,148.4,408.7,106.1ZM270.1,410.9a119,119,0,1,1,119-119A119.028,119.028,0,0,1,270.1,410.9Z" transform="translate(-477.9 -273.1)"/>
    </clipPath>
    <clipPath id="clip-path-16">
      <path id="Path_155586" data-name="Path 155586" d="M270.1,60.1c-128,0-231.8,103.8-231.8,231.8S142,523.7,270.1,523.7,501.9,419.9,501.9,291.9,398.1,60.1,270.1,60.1Zm0,350.8a119,119,0,1,1,119-119A119.028,119.028,0,0,1,270.1,410.9Z" transform="translate(-246.7 -140.4)"/>
    </clipPath>
    <clipPath id="clip-path-17">
      <path id="Path_155587" data-name="Path 155587" d="M270.1,60.1c-128,0-231.8,103.8-231.8,231.8S142,523.7,270.1,523.7,501.9,419.9,501.9,291.9,398.1,60.1,270.1,60.1Zm0,350.8a119,119,0,1,1,119-119A119.028,119.028,0,0,1,270.1,410.9Z" transform="translate(-303.6 -129.2)"/>
    </clipPath>
    <clipPath id="clip-path-18">
      <path id="Path_155588" data-name="Path 155588" d="M270.1,60.1c-128,0-231.8,103.8-231.8,231.8S142,523.7,270.1,523.7,501.9,419.9,501.9,291.9,398.1,60.1,270.1,60.1Zm0,350.8a119,119,0,1,1,119-119A119.028,119.028,0,0,1,270.1,410.9Z" transform="translate(-308.6 -110.6)"/>
    </clipPath>
    <clipPath id="clip-path-19">
      <path id="Path_155589" data-name="Path 155589" d="M270.1,60.1c-128,0-231.8,103.8-231.8,231.8S142,523.7,270.1,523.7,501.9,419.9,501.9,291.9,398.1,60.1,270.1,60.1Zm0,350.8a119,119,0,1,1,119-119A119.028,119.028,0,0,1,270.1,410.9Z" transform="translate(-250.8 -75)"/>
    </clipPath>
    <clipPath id="clip-path-20">
      <path id="Path_155590" data-name="Path 155590" d="M270.1,60.1c-128,0-231.8,103.8-231.8,231.8S142,523.7,270.1,523.7,501.9,419.9,501.9,291.9,398.1,60.1,270.1,60.1Zm0,350.8a119,119,0,1,1,119-119A119.028,119.028,0,0,1,270.1,410.9Z" transform="translate(-141.5 -106.8)"/>
    </clipPath>
    <clipPath id="clip-path-21">
      <path id="Path_155591" data-name="Path 155591" d="M270.1,60.1c-128,0-231.8,103.8-231.8,231.8S142,523.7,270.1,523.7,501.9,419.9,501.9,291.9,398.1,60.1,270.1,60.1Zm0,350.8a119,119,0,1,1,119-119A119.028,119.028,0,0,1,270.1,410.9Z" transform="translate(-123.4 -30.4)"/>
    </clipPath>
    <clipPath id="clip-MOSIP_Logo">
      <rect width="564" height="564"/>
    </clipPath>
  </defs>
  <g id="MOSIP_Logo" clip-path="url(#clip-MOSIP_Logo)">
    <g id="MOSIP_Horizontal_Black" data-name="MOSIP Horizontal Black" transform="translate(11.8 0.6)">
      <g id="Group_57572" data-name="Group 57572">
        <g id="Group_57564" data-name="Group 57564">
          <g id="Group_57563" data-name="Group 57563">
            <path id="Path_155570" data-name="Path 155570" d="M408.7,106.1a39.7,39.7,0,0,1-7.6,14.7c-7.6,9.1-18.9,14.1-30.2,17.9a8.723,8.723,0,0,0-3.7,1.9c-1.4,1.5-1.6,3.8-1.7,5.9-.5,6.9-2.6,13.8-6.9,19.3-4.3,5.4-11,9.1-17.9,8.7a42.252,42.252,0,0,1-9.2-2.1c-21.1-6.3-43.1-8.8-65-10.6-13.2-1.1-26.8-2-39-7.3-11-4.7-24.8-16-23.8-29.2,1.1-15.5-.5-31.6,4.5-46.7A67.673,67.673,0,0,1,213.5,67C112.9,92.3,38.2,183.4,38.2,291.9c0,128,103.8,231.8,231.8,231.8S501.8,419.9,501.8,291.9C501.9,215.9,465.2,148.4,408.7,106.1ZM270.1,410.9a119,119,0,1,1,119-119A119.028,119.028,0,0,1,270.1,410.9Z" fill="#fec401"/>
            <g id="Group_57548" data-name="Group 57548" transform="translate(267.7 336.6)" clip-path="url(#clip-path)">
              <circle id="Ellipse_1146" data-name="Ellipse 1146" cx="92.4" cy="92.4" r="92.4" fill="#01a2fd"/>
            </g>
            <g id="Group_57549" data-name="Group 57549" transform="translate(57.6 223.7)" clip-path="url(#clip-path-2)">
              <circle id="Ellipse_1147" data-name="Ellipse 1147" cx="37.8" cy="37.8" r="37.8" fill="#f97707"/>
            </g>
            <g id="Group_57550" data-name="Group 57550" transform="translate(95.9 287.1)" clip-path="url(#clip-path-3)">
              <circle id="Ellipse_1148" data-name="Ellipse 1148" cx="68.6" cy="68.6" r="68.6" fill="#01a2fd"/>
            </g>
            <g id="Group_57551" data-name="Group 57551" transform="translate(0 138.8)" clip-path="url(#clip-path-4)">
              <circle id="Ellipse_1149" data-name="Ellipse 1149" cx="68.6" cy="68.6" r="68.6" fill="#014daf"/>
            </g>
            <g id="Group_57552" data-name="Group 57552" transform="translate(142 105.8)" clip-path="url(#clip-path-5)">
              <circle id="Ellipse_1150" data-name="Ellipse 1150" cx="56" cy="56" r="56" fill="#f97707"/>
            </g>
            <g id="Group_57553" data-name="Group 57553" transform="translate(123.8 29.4)" clip-path="url(#clip-path-6)">
              <circle id="Ellipse_1151" data-name="Ellipse 1151" cx="55.5" cy="55.5" r="55.5" fill="#01a2fd"/>
            </g>
            <g id="Group_57554" data-name="Group 57554" transform="translate(393.1 138.5)" clip-path="url(#clip-path-7)">
              <circle id="Ellipse_1152" data-name="Ellipse 1152" cx="56" cy="56" r="56" fill="#f97707"/>
            </g>
            <g id="Group_57555" data-name="Group 57555" transform="translate(400.7 211.4)" clip-path="url(#clip-path-8)">
              <circle id="Ellipse_1153" data-name="Ellipse 1153" cx="37.1" cy="37.1" r="37.1" fill="#01a2fd"/>
            </g>
            <g id="Group_57556" data-name="Group 57556" transform="translate(302.1 124.4)" clip-path="url(#clip-path-9)">
              <circle id="Ellipse_1154" data-name="Ellipse 1154" cx="37.1" cy="37.1" r="37.1" fill="#014daf"/>
            </g>
            <g id="Group_57557" data-name="Group 57557" transform="translate(248 64)" clip-path="url(#clip-path-10)">
              <circle id="Ellipse_1155" data-name="Ellipse 1155" cx="26.5" cy="26.5" r="26.5" fill="#014daf"/>
            </g>
            <g id="Group_57558" data-name="Group 57558" transform="translate(134.5 410.9)" clip-path="url(#clip-path-11)">
              <circle id="Ellipse_1156" data-name="Ellipse 1156" cx="56" cy="56" r="56" fill="#f97707"/>
            </g>
            <g id="Group_57559" data-name="Group 57559" transform="translate(21.7 323.3)" clip-path="url(#clip-path-12)">
              <circle id="Ellipse_1157" data-name="Ellipse 1157" cx="41.4" cy="41.4" r="41.4" fill="#014daf"/>
            </g>
            <g id="Group_57560" data-name="Group 57560" transform="translate(205.2 410.4)" clip-path="url(#clip-path-13)">
              <circle id="Ellipse_1158" data-name="Ellipse 1158" cx="75.5" cy="75.5" r="75.5" fill="#014daf"/>
            </g>
            <g id="Group_57561" data-name="Group 57561" transform="translate(389 331.3)" clip-path="url(#clip-path-14)">
              <circle id="Ellipse_1159" data-name="Ellipse 1159" cx="37.8" cy="37.8" r="37.8" fill="#014daf"/>
            </g>
            <g id="Group_57562" data-name="Group 57562" transform="translate(477.9 273.1)" clip-path="url(#clip-path-15)">
              <circle id="Ellipse_1160" data-name="Ellipse 1160" cx="37.8" cy="37.8" r="37.8" fill="#f97707"/>
            </g>
          </g>
          <circle id="Ellipse_1161" data-name="Ellipse 1161" cx="20.3" cy="20.3" r="20.3" transform="translate(322 54.7)" fill="#f97707"/>
          <circle id="Ellipse_1162" data-name="Ellipse 1162" cx="12.1" cy="12.1" r="12.1" transform="translate(284.3 38.4)" fill="#fec401"/>
          <circle id="Ellipse_1163" data-name="Ellipse 1163" cx="20.3" cy="20.3" r="20.3" transform="translate(372.3 98.5)" fill="#014daf"/>
        </g>
        <g id="Group_57571" data-name="Group 57571">
          <g id="Group_57565" data-name="Group 57565" transform="translate(246.7 140.4)" clip-path="url(#clip-path-16)">
            <circle id="Ellipse_1164" data-name="Ellipse 1164" cx="32.6" cy="32.6" r="32.6" fill="#fec401"/>
          </g>
          <g id="Group_57566" data-name="Group 57566" transform="translate(303.6 129.2)" clip-path="url(#clip-path-17)">
            <circle id="Ellipse_1165" data-name="Ellipse 1165" cx="42.1" cy="42.1" r="42.1" fill="#01a2fd"/>
          </g>
          <g id="Group_57567" data-name="Group 57567" transform="translate(308.6 110.6)" clip-path="url(#clip-path-18)">
            <circle id="Ellipse_1166" data-name="Ellipse 1166" cx="20.3" cy="20.3" r="20.3" fill="#fec401"/>
          </g>
          <g id="Group_57568" data-name="Group 57568" transform="translate(250.8 75)" clip-path="url(#clip-path-19)">
            <circle id="Ellipse_1167" data-name="Ellipse 1167" cx="26.1" cy="26.1" r="26.1" fill="#014daf"/>
          </g>
          <g id="Group_57569" data-name="Group 57569" transform="translate(141.5 106.8)" clip-path="url(#clip-path-20)">
            <circle id="Ellipse_1168" data-name="Ellipse 1168" cx="56" cy="56" r="56" fill="#f97707"/>
          </g>
          <g id="Group_57570" data-name="Group 57570" transform="translate(123.4 30.4)" clip-path="url(#clip-path-21)">
            <circle id="Ellipse_1169" data-name="Ellipse 1169" cx="55.5" cy="55.5" r="55.5" fill="#01a2fd"/>
          </g>
        </g>
      </g>
    </g>
  </g>
</svg>
