<svg id="No_internet_connection" data-name="No internet connection" xmlns="http://www.w3.org/2000/svg" width="101.657" height="101.657" viewBox="0 0 101.657 101.657">
  <path id="Path_155692" data-name="Path 155692" d="M55.755,35.616c15.368.238,28.193,6.068,38.291,17.729a3.547,3.547,0,0,1-.329,5.123,3.5,3.5,0,0,1-5-.466,43.94,43.94,0,0,0-12.915-10.41,42.792,42.792,0,0,0-47.812,5.2,65.476,65.476,0,0,0-5.182,5.167,3.622,3.622,0,0,1-5.121.463,3.564,3.564,0,0,1-.247-5.124A49.908,49.908,0,0,1,49.39,35.92c1.005-.139,2.019-.247,3.032-.293,1.109-.05,2.223-.011,3.334-.011" transform="translate(-4.96 -10.716)" fill="#dedede"/>
  <path id="Path_155693" data-name="Path 155693" d="M61.755,56.008c9.714.252,18.846,4.4,26.032,12.705a3.466,3.466,0,0,1-.322,5.1,3.512,3.512,0,0,1-5.05-.489,27.681,27.681,0,0,0-13.835-9.02C57.289,61.26,47.526,64.04,39.349,72.4c-.3.311-.584.645-.874.97a3.551,3.551,0,1,1-5.363-4.651,35.675,35.675,0,0,1,11.45-8.978,37.278,37.278,0,0,1,17.193-3.731" transform="translate(-9.689 -16.858)" fill="#dedede"/>
  <path id="Path_155694" data-name="Path 155694" d="M82.466,86.5a3.554,3.554,0,0,1-2.27,3.324,3.506,3.506,0,0,1-3.958-.993,15.052,15.052,0,0,0-5.425-4.034,14.331,14.331,0,0,0-16.6,3.963,3.437,3.437,0,0,1-3.8,1.133,3.546,3.546,0,0,1-1.647-5.7,21.332,21.332,0,0,1,32.838.059,9.848,9.848,0,0,1,1.046,2.159l-.186.086" transform="translate(-14.419 -23.046)" fill="#dedede"/>
  <path id="Path_155695" data-name="Path 155695" d="M69.575,111.328a7.129,7.129,0,1,1,7.109-7.1,7.093,7.093,0,0,1-7.109,7.1" transform="translate(-18.791 -29.218)" fill="#dedede"/>
  <path id="Path_155696" data-name="Path 155696" d="M50.829,0a50.828,50.828,0,1,0,50.828,50.828A50.886,50.886,0,0,0,50.829,0M6.99,50.828A43.812,43.812,0,0,1,80.447,18.542l-61.9,61.9A43.666,43.666,0,0,1,6.99,50.828M50.829,94.667A43.614,43.614,0,0,1,23.671,85.2L85.2,23.671a43.8,43.8,0,0,1-34.376,71" fill="#ededed"/>
</svg>
