<svg xmlns="http://www.w3.org/2000/svg" xmlns:xlink="http://www.w3.org/1999/xlink" width="339" height="413" viewBox="0 0 339 413">
  <defs>
    <clipPath id="clip-path">
      <path id="Rectangle_7001" data-name="Rectangle 7001" d="M10,0H329a10,10,0,0,1,10,10V413a0,0,0,0,1,0,0H0a0,0,0,0,1,0,0V10A10,10,0,0,1,10,0Z" transform="translate(16 187)" fill="#fff"/>
    </clipPath>
    <linearGradient id="linear-gradient" y1="1" x2="0.987" y2="0.053" gradientUnits="objectBoundingBox">
      <stop offset="0" stop-color="#fcfaf9"/>
      <stop offset="0.108" stop-color="#fdf8f2"/>
      <stop offset="0.547" stop-color="#fff8f4"/>
      <stop offset="1" stop-color="#f7ece4"/>
    </linearGradient>
  </defs>
  <g id="card_bg" transform="translate(-16 -187)" clip-path="url(#clip-path)">
    <rect id="Rectangle_7152" data-name="Rectangle 7152" width="356" height="438" transform="translate(7 170)" fill="#fcf9f9"/>
    <path id="Path_155697" data-name="Path 155697" d="M355,164.359S325.487,318.818,241.1,416.288,17.436,588.37,17.436,588.37H355Z" transform="translate(0 10.478)" fill="url(#linear-gradient)"/>
  </g>
</svg>
