<svg xmlns="http://www.w3.org/2000/svg" width="37.013" height="58.163" viewBox="0 0 37.013 58.163">
  <g id="otp_verification_icon" transform="translate(-181 -209)">
    <path id="phone_iphone_FILL0_wght400_GRAD0_opsz48_1_" data-name="phone_iphone_FILL0_wght400_GRAD0_opsz48 (1)" d="M13.966,60.163a3.8,3.8,0,0,1-2.776-1.19A3.8,3.8,0,0,1,10,56.2V5.966A3.8,3.8,0,0,1,11.19,3.19,3.8,3.8,0,0,1,13.966,2H43.047a3.8,3.8,0,0,1,2.776,1.19,3.8,3.8,0,0,1,1.19,2.776V56.2a4.066,4.066,0,0,1-3.966,3.966Zm0-9.914V56.2H43.047V50.249Zm14.541,4.957a1.922,1.922,0,1,0-1.421-.562A1.926,1.926,0,0,0,28.506,55.206ZM13.966,46.283H43.047V11.914H13.966Zm0-38.335H43.047V5.966H13.966Zm0,42.3v0Zm0-42.3v0Z" transform="translate(171 207)" fill="@fill"/>
    <line id="Line_14" data-name="Line 14" x2="3.288" transform="translate(189.5 238.743)" fill="none" stroke="@fill2" stroke-linecap="round" stroke-width="3"/>
    <line id="Line_15" data-name="Line 15" x2="3.288" transform="translate(198.5 238.743)" fill="none" stroke="@fill2" stroke-linecap="round" stroke-width="3"/>
    <line id="Line_16" data-name="Line 16" x2="3.288" transform="translate(207.5 238.743)" fill="none" stroke="@fill2" stroke-linecap="round" stroke-width="3"/>
  </g>
</svg>
