<svg xmlns="http://www.w3.org/2000/svg" width="14.603" height="18.253" fill="black" viewBox="0 0 14.603 18.253">
  <path id="verified_user_FILL0_wght400_GRAD0_opsz48" d="M166.3-868.816l5.2-5.2-.958-.935-4.175,4.175-2.3-2.3-1,1Zm1,6.069a8.96,8.96,0,0,1-5.248-3.708A10.821,10.821,0,0,1,160-872.832v-5.43L167.3-881l7.3,2.738v5.43a10.821,10.821,0,0,1-2.053,6.377A8.96,8.96,0,0,1,167.3-862.747Zm0-1.415a8.231,8.231,0,0,0,4.278-3.274,9.309,9.309,0,0,0,1.654-5.4V-877.3L167.3-879.54l-5.932,2.236v4.472a9.309,9.309,0,0,0,1.654,5.4A8.231,8.231,0,0,0,167.3-864.161ZM167.3-871.851Z" transform="translate(-160 881)"/>
</svg>
