<svg xmlns="http://www.w3.org/2000/svg" width="18.025" height="18.025" fill= "black" viewBox="0 0 18.025 18.025">
  <path id="schedule_FILL0_wght400_GRAD0_opsz48" d="M92.325-866.639l1.014-1.014-3.583-3.605v-4.529H88.4v5.07Zm-3.312,4.664a8.719,8.719,0,0,1-3.492-.71,9.142,9.142,0,0,1-2.873-1.938,9.143,9.143,0,0,1-1.938-2.873,8.72,8.72,0,0,1-.71-3.492,8.72,8.72,0,0,1,.71-3.492,9.143,9.143,0,0,1,1.938-2.873,9.142,9.142,0,0,1,2.873-1.938,8.719,8.719,0,0,1,3.492-.71,8.719,8.719,0,0,1,3.492.71,9.142,9.142,0,0,1,2.873,1.938,9.143,9.143,0,0,1,1.938,2.873,8.72,8.72,0,0,1,.71,3.492,8.72,8.72,0,0,1-.71,3.492,9.143,9.143,0,0,1-1.938,2.873,9.142,9.142,0,0,1-2.873,1.938A8.719,8.719,0,0,1,89.013-861.975ZM89.013-870.987Zm0,7.661a7.375,7.375,0,0,0,5.408-2.253,7.375,7.375,0,0,0,2.253-5.408,7.375,7.375,0,0,0-2.253-5.408,7.375,7.375,0,0,0-5.408-2.253,7.375,7.375,0,0,0-5.408,2.253,7.375,7.375,0,0,0-2.253,5.408,7.375,7.375,0,0,0,2.253,5.408A7.375,7.375,0,0,0,89.013-863.327Z" transform="translate(-80 880)"/>
</svg>
