<svg xmlns="http://www.w3.org/2000/svg" width="15.712" height="17.676" viewBox="0 0 15.712 17.676">
  <path id="delete_FILL0_wght400_GRAD0_opsz48" d="M162.48-822.324a1.418,1.418,0,0,1-1.04-.433,1.419,1.419,0,0,1-.433-1.04v-13.993H160v-1.473h4.615V-840H171.1v.737h4.615v1.473h-1.007V-823.8a1.413,1.413,0,0,1-.442,1.031,1.413,1.413,0,0,1-1.031.442Zm10.753-15.466H162.48V-823.8h10.753Zm-8.151,11.882h1.473v-9.8h-1.473Zm4.075,0h1.473v-9.8h-1.473Zm-6.678-11.882v0Z" transform="translate(-160 840)" fill="#e01a1b"/>
</svg>
