<svg xmlns="http://www.w3.org/2000/svg" width="19.204" height="22.344" viewBox="0 0 19.204 22.344">
  <g id="Group_58208" data-name="Group 58208" transform="translate(0.15 -0.85)">
    <g id="Group_58209" data-name="Group 58209" transform="translate(0 1)">
      <path id="Path_155704" data-name="Path 155704" d="M32.367,34.577H21.307A1.218,1.218,0,0,1,20.09,33.36V26.439a1.218,1.218,0,0,1,1.217-1.217H24a.14.14,0,0,0,.14-.14v-.671a1.218,1.218,0,0,1,1.217-1.217h2.782a1.218,1.218,0,0,1,1.217,1.217v.671a.14.14,0,0,0,.14.14h2.867a1.218,1.218,0,0,1,1.217,1.217V33.36a1.218,1.218,0,0,1-1.217,1.217M21.307,26.3a.14.14,0,0,0-.14.14V33.36a.14.14,0,0,0,.14.14h11.06a.14.14,0,0,0,.14-.14V26.439a.14.14,0,0,0-.14-.14H29.5a1.218,1.218,0,0,1-1.217-1.217v-.671a.14.14,0,0,0-.14-.14H25.361a.14.14,0,0,0-.14.14v.671A1.218,1.218,0,0,1,24,26.3Z" transform="translate(-14.68 -16.948)" fill="#1a1818" stroke="#000" stroke-width="0.3"/>
      <path id="Path_155705" data-name="Path 155705" d="M38.627,43.077a2.4,2.4,0,1,1,2.4-2.4,2.4,2.4,0,0,1-2.4,2.4m0-3.725a1.324,1.324,0,1,0,1.324,1.324,1.325,1.325,0,0,0-1.324-1.324" transform="translate(-26.47 -27.967)" fill="#1a1818" stroke="#000" stroke-width="0.3"/>
      <path id="Path_155706" data-name="Path 155706" d="M10.938,22.044H1.546A1.548,1.548,0,0,1,0,20.5V1.546A1.548,1.548,0,0,1,1.546,0h9.391a1.548,1.548,0,0,1,1.546,1.546V5.023H11.406V1.546a.469.469,0,0,0-.469-.469H1.546a.469.469,0,0,0-.469.469V20.5a.469.469,0,0,0,.469.469h9.391a.469.469,0,0,0,.469-.469V18.626h1.077V20.5a1.548,1.548,0,0,1-1.546,1.546" transform="translate(0 0)" fill="#1a1818" stroke="#000" stroke-width="0.3"/>
      <path id="Path_155707" data-name="Path 155707" d="M31.676,8.294a.421.421,0,1,1-.421-.421.421.421,0,0,1,.421.421" transform="translate(-22.531 -5.753)" fill="#1a1818" stroke="#000" stroke-width="0.3"/>
      <path id="Path_155708" data-name="Path 155708" d="M18.519,8.861H16.17c-.092,0-.168-.1-.168-.226s.075-.226.168-.226h2.349c.092,0,.168.1.168.226s-.075.226-.168.226" transform="translate(-11.103 -6.145)" fill="#1a1818" stroke="#000" stroke-width="0.3"/>
    </g>
  </g>
</svg>
