<svg xmlns="http://www.w3.org/2000/svg" width="16.056" height="17.804" fill="black" viewBox="0 0 16.056 17.804">
  <path id="share_FILL0_wght400_GRAD0_opsz48" d="M133.433-862.3a2.43,2.43,0,0,1-1.787-.738,2.444,2.444,0,0,1-.736-1.792,2.414,2.414,0,0,1,.033-.361,1.841,1.841,0,0,1,.1-.384l-6.706-3.9a2.53,2.53,0,0,1-.819.609,2.29,2.29,0,0,1-1,.232,2.433,2.433,0,0,1-1.787-.736,2.433,2.433,0,0,1-.736-1.787,2.433,2.433,0,0,1,.736-1.787,2.433,2.433,0,0,1,1.787-.736,2.445,2.445,0,0,1,.974.2,2.669,2.669,0,0,1,.841.575l6.706-3.851a1.575,1.575,0,0,1-.1-.352,2.26,2.26,0,0,1-.033-.378,2.433,2.433,0,0,1,.736-1.787,2.433,2.433,0,0,1,1.787-.736,2.433,2.433,0,0,1,1.787.736,2.433,2.433,0,0,1,.736,1.787,2.433,2.433,0,0,1-.736,1.787,2.433,2.433,0,0,1-1.787.736,2.956,2.956,0,0,1-.989-.166,1.893,1.893,0,0,1-.8-.542l-6.706,3.718a4.09,4.09,0,0,1,.077.409,2.853,2.853,0,0,1,.033.393,1.748,1.748,0,0,1-.033.332q-.033.172-.077.349l6.706,3.806a2.632,2.632,0,0,1,.775-.5,2.583,2.583,0,0,1,1.018-.188,2.433,2.433,0,0,1,1.787.736,2.433,2.433,0,0,1,.736,1.787,2.433,2.433,0,0,1-.736,1.787A2.433,2.433,0,0,1,133.433-862.3Zm0-13.987a1.155,1.155,0,0,0,.851-.344,1.158,1.158,0,0,0,.343-.852,1.154,1.154,0,0,0-.344-.851,1.158,1.158,0,0,0-.852-.343,1.155,1.155,0,0,0-.851.344,1.158,1.158,0,0,0-.343.852,1.155,1.155,0,0,0,.344.851A1.159,1.159,0,0,0,133.434-876.282Zm-10.91,6.329a1.154,1.154,0,0,0,.851-.344,1.159,1.159,0,0,0,.343-.852,1.154,1.154,0,0,0-.344-.851,1.158,1.158,0,0,0-.852-.343,1.155,1.155,0,0,0-.851.344,1.159,1.159,0,0,0-.343.852,1.154,1.154,0,0,0,.344.851A1.158,1.158,0,0,0,122.524-869.953Zm10.91,6.329a1.155,1.155,0,0,0,.851-.344,1.158,1.158,0,0,0,.343-.852,1.155,1.155,0,0,0-.344-.851,1.159,1.159,0,0,0-.852-.343,1.155,1.155,0,0,0-.851.344,1.158,1.158,0,0,0-.343.852,1.155,1.155,0,0,0,.344.851A1.158,1.158,0,0,0,133.434-863.623ZM133.433-877.477ZM122.523-871.148ZM133.433-864.818Z" transform="translate(-119.95 880.05)" stroke="#000" stroke-width="0.1"/>
</svg>
