<svg xmlns="http://www.w3.org/2000/svg" xmlns:xlink="http://www.w3.org/1999/xlink" width="51.577" height="29.474" viewBox="0 0 51.577 29.474">
  <defs>
    <linearGradient id="linear-gradient" x1="0.5" x2="0.5" y2="1" gradientUnits="objectBoundingBox">
      <stop offset="0" stop-color="@fill"/>
      <stop offset="1" stop-color="@fill2"/>
    </linearGradient>
  </defs>
  <g id="logo_progress_icon" transform="translate(0 0)">
    <path id="Union_3" data-name="Union 3" d="M19.715,29.471a2.126,2.126,0,0,1-1.448-.686L10.906,20.3c-.025-.029-.143-.164-.175-.2A10.727,10.727,0,0,1,9.165,8.819c.069-.153.358-.717.438-.86a10.679,10.679,0,0,1,4.6-4.33c.126-.06.619-.277.749-.328A10.638,10.638,0,0,1,26.882,6.228L34.318,14.8a2.132,2.132,0,0,1-.927,3.427,2.127,2.127,0,0,1-1.628-.118,2.127,2.127,0,0,1-.656-.512L23.668,9.023a6.379,6.379,0,0,0-7.157-1.754c-.078.03-.373.159-.447.2a6.4,6.4,0,0,0-2.761,2.6c-.05.089-.224.428-.264.517a6.44,6.44,0,0,0,.939,6.765l.138.16,7.362,8.485a2.132,2.132,0,0,1-1.643,3.486Q19.775,29.474,19.715,29.471Zm10.557-2.824a10.652,10.652,0,0,1-5.5-3.358L21.05,19,17.33,14.71a2.135,2.135,0,0,1-.324-2.368,2.126,2.126,0,0,1,2.879-.952,2.142,2.142,0,0,1,.656.524L24.26,16.2l3.719,4.289a6.388,6.388,0,0,0,7.157,1.754c.078-.036.374-.161.447-.2a6.392,6.392,0,0,0,2.761-2.6c.049-.087.224-.427.264-.515a6.44,6.44,0,0,0-.939-6.765c-.019-.025-.112-.13-.138-.16l-7.36-8.488a2.129,2.129,0,0,1,3.211-2.8l7.36,8.488c.025.03.143.165.176.2a10.727,10.727,0,0,1,1.565,11.274c-.069.153-.358.716-.437.86a10.635,10.635,0,0,1-4.6,4.331c-.127.061-.619.277-.747.328a10.635,10.635,0,0,1-6.428.435ZM47.4,25.328a2.116,2.116,0,0,1-.789-.257,2.133,2.133,0,0,1-.818-2.9,12.039,12.039,0,0,0,1.256-3.357,12.22,12.22,0,0,0,.216-1.386,11.993,11.993,0,0,0-2.8-8.968,2.134,2.134,0,0,1,.226-2.988l.019-.016a2.126,2.126,0,0,1,3,.247,16.235,16.235,0,0,1,3.8,12.133,16.419,16.419,0,0,1-.292,1.87.008.008,0,0,1,0,.006,16.3,16.3,0,0,1-1.7,4.541,2.132,2.132,0,0,1-1.279,1.01,2.1,2.1,0,0,1-.827.066Zm-41.34-.112a2.126,2.126,0,0,1-1.493-.653A16.224,16.224,0,0,1,.011,12.7a16.755,16.755,0,0,1,.173-1.886A16.3,16.3,0,0,1,1.6,6.171,2.129,2.129,0,1,1,5.436,8.014a12.029,12.029,0,0,0-1.044,3.428,12.3,12.3,0,0,0-.129,1.4A11.989,11.989,0,0,0,7.628,21.6a2.135,2.135,0,0,1-.037,3l-.018.018a2.128,2.128,0,0,1-1.478.6Z" transform="translate(0 0)" fill="url(#linear-gradient)"/>
  </g>
</svg>
