<svg width="9" height="15" viewBox="0 0 9 15" fill="none" xmlns="http://www.w3.org/2000/svg">
<path d="M3.46 7.52196C4.048 6.46096 5.178 5.83396 5.835 4.89496C6.03432 4.61193 6.1478 4.27743 6.16184 3.93155C6.17588 3.58567 6.08988 3.24308 5.91416 2.94483C5.73844 2.64658 5.48045 2.40533 5.1711 2.24998C4.86175 2.09463 4.51416 2.03178 4.17 2.06896C3.65884 2.08388 3.16691 2.26712 2.77056 2.59024C2.37421 2.91337 2.0956 3.35829 1.978 3.85596L0 3.02396C0.278032 2.1408 0.832331 1.37027 1.58126 0.825855C2.33018 0.281444 3.23414 -0.0080695 4.16 -4.36502e-05C4.87618 -0.0394141 5.59017 0.109787 6.23065 0.432662C6.87113 0.755536 7.41571 1.24079 7.81 1.83996C8.14913 2.40428 8.33021 3.04944 8.33426 3.7078C8.3383 4.36617 8.16517 5.01351 7.833 5.58196C6.917 6.93396 6.038 7.34596 5.565 8.21696C5.374 8.56796 5.298 8.79696 5.298 9.92796H3.093C2.99789 9.10757 3.12463 8.27668 3.46 7.52196ZM5.697 12.982C5.697 13.284 5.60744 13.5792 5.43965 13.8303C5.27187 14.0814 5.03338 14.2771 4.75436 14.3927C4.47533 14.5083 4.16831 14.5385 3.8721 14.4796C3.57589 14.4207 3.3038 14.2753 3.09025 14.0617C2.87669 13.8482 2.73126 13.5761 2.67234 13.2799C2.61342 12.9837 2.64366 12.6766 2.75924 12.3976C2.87481 12.1186 3.07053 11.8801 3.32164 11.7123C3.57276 11.5445 3.86799 11.455 4.17 11.455C4.57458 11.4563 4.96221 11.6176 5.2483 11.9037C5.53438 12.1897 5.69568 12.5774 5.697 12.982Z" fill="url(#paint0_linear_17_7230)"/>
<defs>
<linearGradient id="paint0_linear_17_7230" x1="0" y1="7.25137" x2="8.33433" y2="7.25137" gradientUnits="userSpaceOnUse">
<stop stop-color="#FF5300"/>
<stop offset="0.16" stop-color="#FB5103"/>
<stop offset="0.31" stop-color="#F04C0F"/>
<stop offset="0.46" stop-color="#DE4322"/>
<stop offset="0.61" stop-color="#C5363C"/>
<stop offset="0.75" stop-color="#A4265F"/>
<stop offset="0.9" stop-color="#7C1389"/>
<stop offset="1" stop-color="#5B03AD"/>
</linearGradient>
</defs>
</svg>
