<svg xmlns="http://www.w3.org/2000/svg" xmlns:xlink="http://www.w3.org/1999/xlink" width="23.5" height="18.5" viewBox="0 0 23.5 18.5">
  <defs>
    <linearGradient id="linear-gradient" x1="0.5" x2="0.5" y2="1" gradientUnits="objectBoundingBox">
      <stop offset="0" stop-color="@fill"/>
      <stop offset="1" stop-color="@fill2"/>
      <stop offset="2" stop-color="@stroke"/>
    </linearGradient>
  </defs>
  <g id="Group_57608" data-name="Group 57608" transform="translate(-88.75 -189.75)">
    <path id="badge_FILL0_wght0_GRAD0_opszNaN_1_" data-name="badge_FILL0_wght0_GRAD0_opszNaN (1)" d="M81.725,394a1.622,1.622,0,0,1-1.208-.54A1.764,1.764,0,0,1,80,392.2V377.8a1.764,1.764,0,0,1,.518-1.26,1.622,1.622,0,0,1,1.208-.54h19.55a1.622,1.622,0,0,1,1.208.54A1.764,1.764,0,0,1,103,377.8v14.4a1.764,1.764,0,0,1-.518,1.26,1.622,1.622,0,0,1-1.208.54Zm0-1.8h19.55V377.8H81.725Zm2.645-3.72h6.871v-.42a1.793,1.793,0,0,0-.259-.96,1.313,1.313,0,0,0-.661-.57,11.176,11.176,0,0,0-1.438-.435,5.053,5.053,0,0,0-1.006-.1,5.468,5.468,0,0,0-1.164.135,12.27,12.27,0,0,0-1.394.405,1.3,1.3,0,0,0-.69.57,1.793,1.793,0,0,0-.259.96Zm3.508-3.51a1.466,1.466,0,0,0,1.1-.472,1.68,1.68,0,0,0,0-2.3,1.516,1.516,0,0,0-2.2,0,1.68,1.68,0,0,0,0,2.3A1.466,1.466,0,0,0,87.878,384.97Zm3.623-.51,0,.51" transform="translate(9 -186)" stroke="none" stroke-width="0.5" fill="url(#linear-gradient)"/>
    <path id="publish_FILL0_wght0_GRAD0_opszNaN" d="M2.506,4.709H1.754V1.288L.578,2.331l-.041.036L.5,2.331l-.456-.4L0,1.89l.041-.036L2.089.036,2.13,0,2.17.036,4.219,1.853l.041.036-.041.036-.456.4-.041.036-.041-.036L2.506,1.288V4.709Z" transform="translate(107.618 201.781) rotate(180)" fill="#683387" stroke="none" stroke-width="0.4"/>
  </g>
</svg>
