<svg xmlns="http://www.w3.org/2000/svg" xmlns:xlink="http://www.w3.org/1999/xlink" width="28.2" height="18.5" viewBox="0 0 28.2 18.5">
  <defs>
    <linearGradient id="linear-gradient" x1="0.5" x2="0.5" y2="1" gradientUnits="objectBoundingBox">
      <stop offset="0" stop-color="@fill"/>
      <stop offset="1" stop-color="@fill2"/>
      <stop offset="2" stop-color="@stroke"/>
    </linearGradient>
  </defs>
  <g id="Group_57610" data-name="Group 57610" transform="translate(-262.75 -189.75)">
    <g id="Group_57609" data-name="Group 57609" transform="translate(174)">
      <path id="badge_FILL0_wght0_GRAD0_opszNaN_1_" data-name="badge_FILL0_wght0_GRAD0_opszNaN (1)" d="M81.725,394a1.622,1.622,0,0,1-1.208-.54A1.764,1.764,0,0,1,80,392.2V377.8a1.764,1.764,0,0,1,.518-1.26,1.622,1.622,0,0,1,1.208-.54h19.55a1.622,1.622,0,0,1,1.208.54A1.764,1.764,0,0,1,103,377.8v14.4a1.764,1.764,0,0,1-.518,1.26,1.622,1.622,0,0,1-1.208.54Zm0-1.8h19.55V377.8H81.725Zm1.645-3.72h6.871v-.42a1.793,1.793,0,0,0-.259-.96,1.313,1.313,0,0,0-.661-.57,11.176,11.176,0,0,0-1.438-.435,5.053,5.053,0,0,0-1.006-.1,5.468,5.468,0,0,0-1.164.135,12.27,12.27,0,0,0-1.394.405,1.3,1.3,0,0,0-.69.57,1.793,1.793,0,0,0-.259.96Zm3.508-3.51a1.466,1.466,0,0,0,1.1-.472,1.68,1.68,0,0,0,0-2.3,1.516,1.516,0,0,0-2.2,0,1.68,1.68,0,0,0,0,2.3A1.466,1.466,0,0,0,86.878,384.97Zm4.623-.51,0,.51" transform="translate(9 -186)" stroke="none" stroke-width="0.5" fill="url(#linear-gradient)"/>
      <rect id="Rectangle_7096" data-name="Rectangle 7096" width="7" height="1.5" rx="0.75" transform="translate(101 197)" fill="url(#linear-gradient)"/>
      <rect id="Rectangle_7097" data-name="Rectangle 7097" width="5" height="1.5" rx="0.75" transform="translate(101 199)" fill="url(#linear-gradient)"/>
    </g>
    <rect id="Rectangle_7098" data-name="Rectangle 7098" width="14" height="1.5" rx="0.75" transform="translate(288.7 192) rotate(90)" fill="url(#linear-gradient)"/>
    <rect id="Rectangle_7099" data-name="Rectangle 7099" width="10" height="1.5" rx="0.75" transform="translate(290.95 194) rotate(90)" fill="url(#linear-gradient)"/>
  </g>
</svg>
