<svg xmlns="http://www.w3.org/2000/svg" width="24.994" height="24.994" viewBox="0 0 24.994 24.994">
  <path id="history_FILL0_wght400_GRAD0_opsz48" d="M132.393-815.006a11.869,11.869,0,0,1-8.783-3.662,12.168,12.168,0,0,1-3.61-8.869h2.083a10.191,10.191,0,0,0,2.985,7.394,9.844,9.844,0,0,0,7.325,3.055,10.1,10.1,0,0,0,7.464-3.09,10.268,10.268,0,0,0,3.055-7.5,9.7,9.7,0,0,0-3.09-7.273,10.34,10.34,0,0,0-7.429-2.968,9.44,9.44,0,0,0-4.426,1.076,12.073,12.073,0,0,0-3.593,2.847h3.645v2.083h-7.255v-7.221h2.083v3.68a13.211,13.211,0,0,1,4.287-3.333A11.809,11.809,0,0,1,132.393-840a12.4,12.4,0,0,1,4.895.972,12.825,12.825,0,0,1,4.009,2.656,12.467,12.467,0,0,1,2.708,3.94,11.968,11.968,0,0,1,.989,4.86,12.214,12.214,0,0,1-.989,4.895,12.565,12.565,0,0,1-2.708,3.992,12.92,12.92,0,0,1-4.009,2.69A12.213,12.213,0,0,1,132.393-815.006Zm4.443-6.839-5.346-5.277v-7.429h2.083v6.561l4.756,4.652Z" transform="translate(-120 840)" fill="@fill"/>
</svg>
