<svg width="25" height="25" viewBox="0 0 25 25" fill="none" xmlns="http://www.w3.org/2000/svg">
<path d="M12.393 24.994C10.7556 25.0226 9.12996 24.712 7.61842 24.0818C6.10688 23.4515 4.74212 22.5153 3.60999 21.332C2.43971 20.1747 1.51639 18.792 0.89589 17.2675C0.275389 15.7431 -0.0293908 14.1087 -1.46845e-05 12.463H2.08299C2.05797 13.8329 2.30942 15.1936 2.8223 16.4641C3.33519 17.7345 4.09897 18.8885 5.06799 19.857C6.01006 20.8467 7.14786 21.6295 8.40897 22.1554C9.67007 22.6814 11.0269 22.939 12.393 22.912C13.7828 22.9383 15.163 22.6775 16.4474 22.1458C17.7317 21.6141 18.8925 20.823 19.857 19.822C20.848 18.8443 21.6299 17.6753 22.1551 16.386C22.6803 15.0966 22.9378 13.714 22.912 12.322C22.9362 10.9608 22.6736 9.60966 22.1412 8.35659C21.6088 7.10353 20.8186 5.97659 19.822 5.04904C18.8429 4.08569 17.6817 3.32706 16.4061 2.81747C15.1306 2.30788 13.7663 2.05751 12.393 2.08102C10.8519 2.07304 9.33238 2.44245 7.96699 3.15701C6.59849 3.86783 5.37884 4.83429 4.37399 6.00405H8.01898V8.087H0.763985V0.866053H2.84699V4.54605C4.02977 3.15018 5.48961 2.0152 7.13399 1.21304C8.76985 0.408168 10.5699 -0.00702037 12.393 2.5648e-05C14.0737 -0.0110604 15.739 0.319621 17.288 0.97201C18.7798 1.59664 20.1401 2.49782 21.297 3.62802C22.4454 4.75435 23.365 6.09228 24.005 7.56802C24.6704 9.10119 25.0073 10.7567 24.994 12.428C25.005 14.1104 24.6683 15.7769 24.005 17.323C23.3686 18.8161 22.449 20.1717 21.297 21.315C20.1415 22.4556 18.7815 23.3682 17.288 24.005C15.7418 24.6683 14.0754 25.0051 12.393 24.994ZM16.836 18.1551L11.49 12.878V5.449H13.573V12.01L18.329 16.662L16.836 18.1551Z" fill="url(#paint0_linear_17_7299)"/>
<defs>
<linearGradient id="paint0_linear_17_7299" x1="-0.00195312" y1="12.4978" x2="24.9944" y2="12.4978" gradientUnits="userSpaceOnUse">
<stop stop-color="#FF5300"/>
<stop offset="0.16" stop-color="#FB5103"/>
<stop offset="0.31" stop-color="#F04C0F"/>
<stop offset="0.46" stop-color="#DE4322"/>
<stop offset="0.61" stop-color="#C5363C"/>
<stop offset="0.75" stop-color="#A4265F"/>
<stop offset="0.9" stop-color="#7C1389"/>
<stop offset="1" stop-color="#5B03AD"/>
</linearGradient>
</defs>
</svg>
