<svg xmlns="http://www.w3.org/2000/svg" xmlns:xlink="http://www.w3.org/1999/xlink" width="24.008" height="21.85" viewBox="0 0 24.008 21.85">
  <defs>
    <linearGradient id="linear-gradient" x1="0.5" x2="0.5" y2="1" gradientUnits="objectBoundingBox">
      <stop offset="0" stop-color="@fill"/>
      <stop offset="1" stop-color="@fill2"/>
    </linearGradient>
  </defs>
  <g id="scan_tab_icon_selected" transform="translate(0.5 0.533)">
    <path id="Union_5" data-name="Union 5" d="M-5719.269-8404.951a3.226,3.226,0,0,1-2.561-3.152c-.023-.791-.017-1.582,0-2.371a.935.935,0,0,1,1.351-.884.908.908,0,0,1,.522.874c0,.728,0,1.454,0,2.182a1.44,1.44,0,0,0,1.561,1.559c.7,0,1.4,0,2.1,0a.929.929,0,0,1,1.032.954.928.928,0,0,1-1.026.933c-.393,0-.789,0-1.184,0l0,.035A12.842,12.842,0,0,1-5719.269-8404.951Zm12.468.091a.85.85,0,0,1-.937-.911.911.911,0,0,1,.933-.969c.753-.013,1.508,0,2.263,0a1.426,1.426,0,0,0,1.5-1.484c.006-.729,0-1.457,0-2.185a.921.921,0,0,1,.92-1.031,1,1,0,0,1,.956,1.031c.006.413,0,.827,0,1.239l.034,0a14.39,14.39,0,0,1-.125,1.715,3.237,3.237,0,0,1-3.121,2.6q-.534.007-1.067.007Q-5706.123-8404.854-5706.8-8404.86Zm-9.448-3.3a2.28,2.28,0,0,1-2.267-2.107c-.059-.776-.013-1.557-.013-2.346h14.021a20.345,20.345,0,0,1-.021,2.591,2.236,2.236,0,0,1-2.231,1.865q-2.372.009-4.745.01T-5716.249-8408.159Zm15.074-5.876h-20.7c-.089,0-.178,0-.269,0a.86.86,0,0,1-.854-.969.9.9,0,0,1,.907-.911c1.068-.009,2.138,0,3.206,0h.336v-.354c0-1.169,0-2.336,0-3.506a2.37,2.37,0,0,1,2.5-2.5q4.539,0,9.082,0a2.368,2.368,0,0,1,2.51,2.5c0,1.095,0,2.19,0,3.288v.336h.332c1.006,0,2.013.036,3.018-.011a1.177,1.177,0,0,1,1.063,1.479.931.931,0,0,1-.867.653c-.038,0-.076,0-.115,0Zm-.949-4.95a.915.915,0,0,1-.92-1.007c0-.71,0-1.418,0-2.129a1.438,1.438,0,0,0-1.554-1.564c-.736,0-1.474.008-2.209,0a.907.907,0,0,1-.924-.81.917.917,0,0,1,.717-1.047,1.545,1.545,0,0,1,.294-.025c.4,0,.791,0,1.184,0a.18.18,0,0,0,0-.036,13.326,13.326,0,0,1,1.795.125,3.24,3.24,0,0,1,2.569,3.176c.021.78.011,1.563,0,2.346a.863.863,0,0,1-.933.977Zm-19.71-1.034c0-.86-.029-1.726.034-2.584a3.337,3.337,0,0,1,3.2-2.969c.385,0,.771,0,1.159,0,.4,0,.808,0,1.211,0a.917.917,0,0,1,.962.939.916.916,0,0,1-.958.945c-.432,0-.863,0-1.294,0-.324,0-.647,0-.969,0a1.422,1.422,0,0,0-1.472,1.457c-.008.735,0,1.474,0,2.21a.919.919,0,0,1-.922,1.029A1,1,0,0,1-5721.834-8420.02Z" transform="translate(5723 8425.607)" stroke="rgba(0,0,0,0)" stroke-width="1" fill="url(#linear-gradient)"/>
  </g>
</svg>
