<svg xmlns="http://www.w3.org/2000/svg" width="13.601" height="13.601" viewBox="0 0 13.601 13.601">
  <path id="search_icon" d="M18.666,19.551l-3.889-3.889a4.683,4.683,0,0,1-1.488.861,5.259,5.259,0,0,1-1.806.308,5.291,5.291,0,0,1-3.889-1.594A5.242,5.242,0,0,1,6,11.39,5.242,5.242,0,0,1,7.594,7.544,5.266,5.266,0,0,1,11.462,5.95,5.207,5.207,0,0,1,15.3,7.544a5.439,5.439,0,0,1,1.286,5.61,5.394,5.394,0,0,1-.893,1.594l3.91,3.868Zm-7.2-4a3.977,3.977,0,0,0,2.933-1.222,4.03,4.03,0,0,0,1.211-2.943,4.03,4.03,0,0,0-1.211-2.943,3.977,3.977,0,0,0-2.933-1.222A4.172,4.172,0,0,0,7.275,11.39a4.172,4.172,0,0,0,4.187,4.165Z" transform="translate(-6 -5.95)" fill="#4d4c4c"/>
</svg>
