<svg xmlns="http://www.w3.org/2000/svg" xmlns:xlink="http://www.w3.org/1999/xlink" width="36" height="36" viewBox="0 0 36 36">
  <defs>
    <linearGradient id="linear-gradient" x1="0.5" x2="0.5" y2="0.942" gradientUnits="objectBoundingBox">
      <stop offset="0" stop-color="#f59b4b"/>
      <stop offset="1" stop-color="#e86e04"/>
    </linearGradient>
  </defs>
  <g id="Group_57358" data-name="Group 57358" transform="translate(-266 -71)">
    <g id="question_mark_black_24dp" transform="translate(274.836 78.836)">
      <g id="Group_57355" data-name="Group 57355">
        <rect id="Rectangle_6977" data-name="Rectangle 6977" width="18" height="18" transform="translate(0.164 0.164)" fill="none"/>
      </g>
    </g>
    <rect id="Rectangle_6981" data-name="Rectangle 6981" width="36" height="36" rx="8" transform="translate(266 71)" fill="#ffa85a" opacity="0.1"/>
    <path id="Path_155490" data-name="Path 155490" d="M0,0H21.744V21.744H0Z" transform="translate(273.128 78.128)" fill="none"/>
    <path id="Path_155491" data-name="Path 155491" d="M17.053,11.459a6.713,6.713,0,0,0,.06-.844,6.714,6.714,0,0,0-.06-.844L18.87,8.349a.435.435,0,0,0,.1-.551L17.251,4.817a.43.43,0,0,0-.379-.215.4.4,0,0,0-.146.026l-2.145.861a6.294,6.294,0,0,0-1.456-.844L12.8,2.362A.42.42,0,0,0,12.375,2H8.929a.42.42,0,0,0-.422.362L8.18,4.645a6.618,6.618,0,0,0-1.456.844L4.579,4.627A.488.488,0,0,0,4.424,4.6a.427.427,0,0,0-.37.215L2.33,7.8a.425.425,0,0,0,.1.551L4.251,9.77a6.832,6.832,0,0,0-.06.844,6.832,6.832,0,0,0,.06.844L2.434,12.88a.435.435,0,0,0-.1.551l1.723,2.981a.43.43,0,0,0,.379.215.4.4,0,0,0,.146-.026l2.145-.861a6.294,6.294,0,0,0,1.456.844l.327,2.283a.42.42,0,0,0,.422.362h3.446a.42.42,0,0,0,.422-.362l.327-2.283a6.618,6.618,0,0,0,1.456-.844l2.145.861a.488.488,0,0,0,.155.026.427.427,0,0,0,.37-.215l1.723-2.981a.435.435,0,0,0-.1-.551ZM15.347,9.986a4.6,4.6,0,0,1,.043.629c0,.181-.017.37-.043.629l-.121.973.767.6.93.724-.6,1.042-1.094-.439-.9-.362-.775.586A5.045,5.045,0,0,1,12.478,15l-.913.37-.138.973-.172,1.163H10.049l-.164-1.163-.138-.973L8.834,15a4.888,4.888,0,0,1-1.06-.612l-.784-.6-.913.37-1.094.439-.6-1.042.93-.724.767-.6-.121-.973c-.026-.267-.043-.465-.043-.637s.017-.37.043-.629l.121-.973-.767-.6-.93-.724.6-1.042,1.094.439.9.362.775-.586A5.045,5.045,0,0,1,8.826,6.23l.913-.37.138-.973.172-1.163h1.2l.164,1.163.138.973.913.37a4.888,4.888,0,0,1,1.06.612l.784.6.913-.37,1.094-.439.6,1.042-.922.732-.767.6.121.973ZM10.652,7.169A3.446,3.446,0,1,0,14.1,10.615,3.445,3.445,0,0,0,10.652,7.169Zm0,5.169a1.723,1.723,0,1,1,1.723-1.723A1.728,1.728,0,0,1,10.652,12.337Z" transform="translate(273.729 78)" fill="url(#linear-gradient)"/>
  </g>
</svg>
