<svg xmlns="http://www.w3.org/2000/svg" xmlns:xlink="http://www.w3.org/1999/xlink" width="20.215" height="20.686" viewBox="0 0 20.215 20.686">
  <defs>
    <linearGradient id="linear-gradient" x1="0.5" x2="0.5" y2="1" gradientUnits="objectBoundingBox">
      <stop offset="0" stop-color="@fill"/>
      <stop offset="1" stop-color="@fill2"/>
    </linearGradient>
  </defs>
  <path id="Path_155698" data-name="Path 155698" d="M19.161,12.808a7.671,7.671,0,0,0,.069-.965,7.671,7.671,0,0,0-.069-.965l2.077-1.624a.5.5,0,0,0,.118-.63L19.387,5.219a.492.492,0,0,0-.433-.246.46.46,0,0,0-.167.03l-2.451.984a7.191,7.191,0,0,0-1.663-.965L14.3,2.413A.48.48,0,0,0,13.816,2H9.879a.48.48,0,0,0-.482.413L9.022,5.022a7.562,7.562,0,0,0-1.663.965L4.908,5a.557.557,0,0,0-.177-.03.488.488,0,0,0-.423.246L2.339,8.624a.485.485,0,0,0,.118.63l2.077,1.624a7.806,7.806,0,0,0-.069.965,7.806,7.806,0,0,0,.069.965L2.457,14.432a.5.5,0,0,0-.118.63l1.969,3.406a.492.492,0,0,0,.433.246.46.46,0,0,0,.167-.03L7.359,17.7a7.191,7.191,0,0,0,1.663.965L9.4,21.273a.48.48,0,0,0,.482.413h3.937a.48.48,0,0,0,.482-.413l.374-2.608a7.562,7.562,0,0,0,1.663-.965l2.451.984a.557.557,0,0,0,.177.03.488.488,0,0,0,.423-.246l1.969-3.406a.5.5,0,0,0-.118-.63Zm-1.949-1.683a5.259,5.259,0,0,1,.049.719c0,.207-.02.423-.049.719l-.138,1.112.876.689,1.063.827-.689,1.191-1.25-.5-1.024-.413-.886.669a5.765,5.765,0,0,1-1.23.719l-1.043.423-.157,1.112-.2,1.329H11.158l-.187-1.329-.157-1.112L9.77,16.853a5.585,5.585,0,0,1-1.211-.7l-.9-.689-1.043.423-1.25.5L4.682,15.2l1.063-.827.876-.689-.138-1.112c-.03-.305-.049-.532-.049-.728s.02-.423.049-.719l.138-1.112-.876-.689L4.682,8.5l.689-1.191,1.25.5,1.024.413.886-.669a5.765,5.765,0,0,1,1.23-.719L10.8,6.41,10.961,5.3l.2-1.329h1.368L12.714,5.3l.157,1.112,1.043.423a5.585,5.585,0,0,1,1.211.7l.9.689L17.064,7.8l1.25-.5L19,8.487l-1.053.837-.876.689.138,1.112ZM11.847,7.906a3.937,3.937,0,1,0,3.937,3.937A3.936,3.936,0,0,0,11.847,7.906Zm0,5.906a1.969,1.969,0,1,1,1.969-1.969A1.974,1.974,0,0,1,11.847,13.812Z" transform="translate(-1.735 -1.5)" stroke="rgba(0,0,0,0)" stroke-width="1" fill="url(#linear-gradient)"/>
</svg>
