<svg xmlns="http://www.w3.org/2000/svg" xmlns:xlink="http://www.w3.org/1999/xlink" width="46.094" height="53.752" viewBox="0 0 46.094 53.752">
  <defs>
    <linearGradient id="linear-gradient" x1="0.5" x2="0.5" y2="1" gradientUnits="objectBoundingBox">
      <stop offset="0" stop-color="@fill2"/>
      <stop offset="1" stop-color="@fill2"/>
    </linearGradient>
  </defs>
  <g id="Group_58208" data-name="Group 58208" transform="translate(0 -1)">
    <g id="Group_58209" data-name="Group 58209" transform="translate(0 1)">
      <path id="Path_155704" data-name="Path 155704" d="M50.025,50.948H23.058a2.971,2.971,0,0,1-2.968-2.967V31.105a2.971,2.971,0,0,1,2.968-2.968h6.578a.341.341,0,0,0,.341-.34V26.162a2.97,2.97,0,0,1,2.967-2.967h6.784a2.97,2.97,0,0,1,2.967,2.967V27.8a.341.341,0,0,0,.341.34h6.99a2.97,2.97,0,0,1,2.967,2.968V47.981a2.97,2.97,0,0,1-2.967,2.967M23.058,30.765a.341.341,0,0,0-.341.341V47.981a.341.341,0,0,0,.341.34H50.025a.34.34,0,0,0,.34-.34V31.105a.34.34,0,0,0-.34-.341h-6.99A2.971,2.971,0,0,1,40.068,27.8V26.162a.341.341,0,0,0-.34-.34H32.943a.341.341,0,0,0-.34.34V27.8a2.971,2.971,0,0,1-2.968,2.967Z" transform="translate(-6.897 -7.963)" fill="url(#linear-gradient)"/>
      <path id="Path_155705" data-name="Path 155705" d="M42.081,49.985a5.855,5.855,0,1,1,5.855-5.855,5.861,5.861,0,0,1-5.855,5.855m0-9.083a3.228,3.228,0,1,0,3.228,3.228A3.232,3.232,0,0,0,42.081,40.9" transform="translate(-12.437 -13.141)" fill="url(#linear-gradient)"/>
      <path id="Path_155706" data-name="Path 155706" d="M26.67,53.752H3.77A3.774,3.774,0,0,1,0,49.982V3.77A3.774,3.774,0,0,1,3.77,0h22.9a3.774,3.774,0,0,1,3.77,3.77v8.478H27.813V3.77A1.145,1.145,0,0,0,26.67,2.627H3.77A1.145,1.145,0,0,0,2.627,3.77V49.982A1.145,1.145,0,0,0,3.77,51.126h22.9a1.145,1.145,0,0,0,1.143-1.143V45.418H30.44v4.564a3.774,3.774,0,0,1-3.77,3.77" transform="translate(0 0)" fill="url(#linear-gradient)"/>
      <path id="Path_155707" data-name="Path 155707" d="M32.886,8.9a1.026,1.026,0,1,1-1.026-1.026A1.025,1.025,0,0,1,32.886,8.9" transform="translate(-10.586 -2.703)" fill="url(#linear-gradient)"/>
      <path id="Path_155708" data-name="Path 155708" d="M22.139,9.511H16.411c-.225,0-.409-.248-.409-.55s.184-.55.409-.55h5.728c.225,0,.409.248.409.55s-.184.55-.409.55" transform="translate(-4.056 -2.887)" fill="url(#linear-gradient)"/>
    </g>
  </g>
</svg>
