<svg id="Something_went_wrong_" data-name="Something went wrong!" xmlns="http://www.w3.org/2000/svg" width="316.396" height="130.844" viewBox="0 0 316.396 130.844">
  <path id="Path_4" data-name="Path 4" d="M105.422,607.683a5.183,5.183,0,0,1,10.367,0" transform="translate(-96.569 -488.264)" fill="#ededed"/>
  <path id="Path_5" data-name="Path 5" d="M122.264,612.7a.14.14,0,0,1-.14-.14v-2.732a.14.14,0,0,1,.28,0v2.732A.14.14,0,0,1,122.264,612.7Z" transform="translate(-108.227 -493.284)" fill="#ccc"/>
  <path id="Path_6" data-name="Path 6" d="M118.378,612.574a.14.14,0,0,1-.091-.034l-1.681-1.443a.14.14,0,0,1,.182-.213l1.681,1.443a.14.14,0,0,1-.091.246Z" transform="translate(-104.341 -494.094)" fill="#ccc"/>
  <path id="Path_7" data-name="Path 7" d="M158.31,607.683a5.183,5.183,0,0,1,10.367,0" transform="translate(-133.486 -488.264)" fill="#ededed"/>
  <path id="Path_8" data-name="Path 8" d="M175.152,612.7a.14.14,0,0,1-.14-.14v-2.732a.14.14,0,0,1,.28,0v2.732a.14.14,0,0,1-.14.14Z" transform="translate(-145.144 -493.284)" fill="#ccc"/>
  <path id="Path_9" data-name="Path 9" d="M171.265,612.574a.139.139,0,0,1-.091-.034l-1.681-1.443a.14.14,0,1,1,.183-.213l1.681,1.443a.14.14,0,0,1-.091.246Z" transform="translate(-141.258 -494.094)" fill="#ccc"/>
  <circle id="Ellipse_1104" data-name="Ellipse 1104" cx="9.965" cy="9.965" r="9.965" transform="translate(227.015 0.395)" fill="#ededed"/>
  <ellipse id="Ellipse_1105" data-name="Ellipse 1105" cx="9.059" cy="2.114" rx="9.059" ry="2.114" transform="translate(23.793 126.314)" fill="#ededed"/>
  <path id="Path_10" data-name="Path 10" d="M167.509,265.851c2.376-7.419,8.177-13.172,15.057-16.594,8.163-4.06,17.543-4.52,26.407-2.94,9.568,1.706,18.51,5.638,27.166,9.93,8.49,4.209,16.844,8.654,25.673,12.133a166.192,166.192,0,0,0,55.243,11.443c17.04.568,35.259-1.3,49.85-10.876,13.369-8.776,21.876-23.253,26.306-38.344q.851-2.9,1.513-5.846c.129-.568-.744-.81-.874-.241-3.574,15.759-11.2,31.334-24.217,41.379-14.084,10.865-32.568,13.376-49.865,13.089a165.391,165.391,0,0,1-55.963-10.8c-9.057-3.448-17.6-7.925-26.259-12.248-8.465-4.227-17.168-8.185-26.477-10.134-8.5-1.78-17.6-1.889-25.8,1.279-6.748,2.609-12.9,7.258-16.5,13.619a26.12,26.12,0,0,0-2.135,4.909c-.178.557.7.795.874.241Z" transform="translate(-139.281 -224.191)" fill="#ededed"/>
  <path id="Path_11" data-name="Path 11" d="M540.647,586.286a.3.3,0,1,0,0-.6h-2.869v-1.208h2.869a.3.3,0,0,0,0-.6H516.188a.3.3,0,0,0,0,.6h2.869v1.208h-2.869a.3.3,0,1,0,0,.6h2.869v1.208h-2.869a.3.3,0,0,0,0,.6h2.869v1.208H516.49a.6.6,0,0,0,0,1.208h2.443a.454.454,0,0,0-.028.151v4.227a.453.453,0,1,0,.906,0v-4.227a.452.452,0,0,0-.028-.151h17.267a.451.451,0,0,0-.028.151v4.227a.453.453,0,1,0,.906,0v-4.227a.454.454,0,0,0-.028-.151h2.443a.6.6,0,1,0,0-1.208h-2.567V588.1h2.869a.3.3,0,0,0,0-.6h-2.869v-1.208Zm-20.987-1.812h17.514v1.208H519.66Zm17.514,4.831H519.66V588.1h17.514Zm0-1.812H519.66v-1.208h17.514Z" transform="translate(-252.996 -475.26)" fill="#ccc"/>
  <path id="Path_12" data-name="Path 12" d="M248.223,508.316c0-5.333-4.326-17.988-9.663-17.988s-9.663,12.655-9.663,17.988a9.663,9.663,0,1,0,19.326,0Z" transform="translate(-182.759 -409.964)" fill="#dedede"/>
  <path id="Path_13" data-name="Path 13" d="M240.223,508.316c0-5.333-4.326-17.988-9.663-17.988s-9.663,12.655-9.663,17.988a9.663,9.663,0,1,0,19.326,0Z" transform="translate(-177.175 -409.964)" fill="#ededed"/>
  <path id="Path_14" data-name="Path 14" d="M253.2,557.829a.3.3,0,0,1-.3-.3V530.61a.3.3,0,0,1,.6,0v26.917A.3.3,0,0,1,253.2,557.829Z" transform="translate(-199.512 -437.872)" fill="#ccc"/>
  <path id="Path_15" data-name="Path 15" d="M253.2,535.4a.3.3,0,0,1-.213-.515l3.949-3.949a.3.3,0,0,1,.427.427l-3.949,3.949A.3.3,0,0,1,253.2,535.4Z" transform="translate(-199.512 -438.246)" fill="#ccc"/>
  <path id="Path_16" data-name="Path 16" d="M621.2,557.829a.3.3,0,0,1-.3-.3V530.61a.3.3,0,0,1,.6,0v26.917A.3.3,0,0,1,621.2,557.829Z" transform="translate(-326.298 -437.872)" fill="#ccc"/>
  <path id="Path_17" data-name="Path 17" d="M684.223,508.316c0-5.333-4.326-17.988-9.663-17.988s-9.663,12.655-9.663,17.988a9.663,9.663,0,1,0,19.326,0Z" transform="translate(-521.042 -409.964)" fill="#dedede"/>
  <path id="Path_18" data-name="Path 18" d="M676.223,508.316c0-5.333-4.326-17.988-9.663-17.988s-9.663,12.655-9.663,17.988a9.663,9.663,0,1,0,19.326,0Z" transform="translate(-515.457 -409.964)" fill="#ededed"/>
  <path id="Path_19" data-name="Path 19" d="M689.2,557.829a.3.3,0,0,1-.3-.3V530.61a.3.3,0,0,1,.6,0v26.917A.3.3,0,0,1,689.2,557.829Z" transform="translate(-537.795 -437.872)" fill="#ccc"/>
  <path id="Path_20" data-name="Path 20" d="M689.2,535.4a.3.3,0,0,1-.214-.515l3.949-3.949a.3.3,0,0,1,.427.427l-3.949,3.949A.3.3,0,0,1,689.2,535.4Z" transform="translate(-537.795 -438.246)" fill="#ccc"/>
  <path id="Path_21" data-name="Path 21" d="M345.588,243.89h-4.831a1.36,1.36,0,0,1-1.359-1.359V231.359A1.36,1.36,0,0,1,340.757,230h4.831a1.36,1.36,0,0,1,1.359,1.359v11.173A1.36,1.36,0,0,1,345.588,243.89Z" transform="translate(-259.892 -228.246)" fill="#e6e6e6"/>
  <path id="Path_22" data-name="Path 22" d="M359.725,378.083H334.964a2.57,2.57,0,0,1-2.567-2.567v-99.95A2.57,2.57,0,0,1,334.964,273h24.761a2.569,2.569,0,0,1,2.567,2.567v99.95A2.57,2.57,0,0,1,359.725,378.083Z" transform="translate(-255.006 -258.261)" fill="#dedede"/>
  <path id="Path_23" data-name="Path 23" d="M310.725,378.083H285.964a2.57,2.57,0,0,1-2.567-2.567v-99.95A2.57,2.57,0,0,1,285.964,273h24.761a2.57,2.57,0,0,1,2.567,2.567v99.95A2.57,2.57,0,0,1,310.725,378.083Z" transform="translate(-220.802 -258.261)" fill="#ededed"/>
  <path id="Path_24" data-name="Path 24" d="M330.588,243.89h-4.831a1.36,1.36,0,0,1-1.359-1.359V231.359A1.36,1.36,0,0,1,325.756,230h4.831a1.36,1.36,0,0,1,1.359,1.359v11.173A1.36,1.36,0,0,1,330.588,243.89Z" transform="translate(-249.421 -228.246)" fill="#f2f2f2"/>
  <path id="Path_25" data-name="Path 25" d="M308.89,324.267h-5.737a.756.756,0,0,1-.755-.755v-8.757a.756.756,0,0,1,.755-.755h5.737a.756.756,0,0,1,.755.755v8.757a.756.756,0,0,1-.755.755Z" transform="translate(-234.065 -286.881)" fill="#fff"/>
  <path id="Path_26" data-name="Path 26" d="M345.89,324.267h-5.737a.756.756,0,0,1-.755-.755v-8.757a.756.756,0,0,1,.755-.755h5.737a.756.756,0,0,1,.755.755v8.757a.756.756,0,0,1-.755.755Z" transform="translate(-259.892 -286.881)" fill="#fff"/>
  <path id="Path_27" data-name="Path 27" d="M308.89,377.267h-5.737a.756.756,0,0,1-.755-.755v-8.757a.756.756,0,0,1,.755-.755h5.737a.756.756,0,0,1,.755.755v8.757A.756.756,0,0,1,308.89,377.267Z" transform="translate(-234.065 -323.877)" fill="#fff"/>
  <path id="Path_28" data-name="Path 28" d="M345.89,377.267h-5.737a.756.756,0,0,1-.755-.755v-8.757a.756.756,0,0,1,.755-.755h5.737a.756.756,0,0,1,.755.755v8.757A.756.756,0,0,1,345.89,377.267Z" transform="translate(-259.892 -323.877)" fill="#fff"/>
  <path id="Path_29" data-name="Path 29" d="M308.89,430.267h-5.737a.756.756,0,0,1-.755-.755v-8.757a.756.756,0,0,1,.755-.755h5.737a.756.756,0,0,1,.755.755v8.757A.756.756,0,0,1,308.89,430.267Z" transform="translate(-234.065 -360.873)" fill="#fff"/>
  <path id="Path_30" data-name="Path 30" d="M345.89,430.267h-5.737a.756.756,0,0,1-.755-.755v-8.757a.756.756,0,0,1,.755-.755h5.737a.756.756,0,0,1,.755.755v8.757A.756.756,0,0,1,345.89,430.267Z" transform="translate(-259.892 -360.873)" fill="#fff"/>
  <path id="Path_31" data-name="Path 31" d="M308.89,483.267h-5.737a.756.756,0,0,1-.755-.755v-8.757a.756.756,0,0,1,.755-.755h5.737a.756.756,0,0,1,.755.755v8.757A.756.756,0,0,1,308.89,483.267Z" transform="translate(-234.065 -397.869)" fill="#fff"/>
  <path id="Path_32" data-name="Path 32" d="M345.89,483.267h-5.737a.756.756,0,0,1-.755-.755v-8.757a.756.756,0,0,1,.755-.755h5.737a.756.756,0,0,1,.755.755v8.757A.756.756,0,0,1,345.89,483.267Z" transform="translate(-259.892 -397.869)" fill="#fff"/>
  <path id="Path_33" data-name="Path 33" d="M308.89,536.267h-5.737a.756.756,0,0,1-.755-.755v-8.757a.756.756,0,0,1,.755-.755h5.737a.756.756,0,0,1,.755.755v8.757A.756.756,0,0,1,308.89,536.267Z" transform="translate(-234.065 -434.865)" fill="#fff"/>
  <path id="Path_34" data-name="Path 34" d="M345.89,536.267h-5.737a.756.756,0,0,1-.755-.755v-8.757a.756.756,0,0,1,.755-.755h5.737a.756.756,0,0,1,.755.755v8.757A.756.756,0,0,1,345.89,536.267Z" transform="translate(-259.892 -434.865)" fill="#fff"/>
  <path id="Path_35" data-name="Path 35" d="M758.588,430.059h-4.831A1.36,1.36,0,0,1,752.4,428.7v-6.341A1.36,1.36,0,0,1,753.757,421h4.831a1.36,1.36,0,0,1,1.359,1.359V428.7A1.36,1.36,0,0,1,758.588,430.059Z" transform="translate(-582.12 -361.571)" fill="#e6e6e6"/>
  <path id="Path_36" data-name="Path 36" d="M844.725,499.146H819.964a2.57,2.57,0,0,1-2.567-2.567V448.567A2.57,2.57,0,0,1,819.964,446h24.761a2.57,2.57,0,0,1,2.567,2.567v48.012A2.57,2.57,0,0,1,844.725,499.146Z" transform="translate(-627.492 -379.022)" fill="#dedede"/>
  <path id="Path_37" data-name="Path 37" d="M753.843,499.146H710.964a2.57,2.57,0,0,1-2.567-2.567V448.567A2.57,2.57,0,0,1,710.964,446h42.879a2.569,2.569,0,0,1,2.567,2.567v48.012A2.569,2.569,0,0,1,753.843,499.146Z" transform="translate(-551.406 -379.022)" fill="#ededed"/>
  <path id="Path_38" data-name="Path 38" d="M743.588,430.059h-4.831A1.36,1.36,0,0,1,737.4,428.7v-6.341A1.36,1.36,0,0,1,738.756,421h4.831a1.36,1.36,0,0,1,1.359,1.359V428.7A1.36,1.36,0,0,1,743.588,430.059Z" transform="translate(-571.649 -361.571)" fill="#f2f2f2"/>
  <path id="Path_39" data-name="Path 39" d="M763.89,500.767h-5.737a.756.756,0,0,1-.755-.755v-8.757a.756.756,0,0,1,.755-.755h5.737a.756.756,0,0,1,.755.755v8.757A.756.756,0,0,1,763.89,500.767Z" transform="translate(-585.61 -410.084)" fill="#fff"/>
  <path id="Path_40" data-name="Path 40" d="M800.89,500.767h-5.737a.756.756,0,0,1-.755-.755v-8.757a.756.756,0,0,1,.755-.755h5.737a.756.756,0,0,1,.755.755v8.757A.756.756,0,0,1,800.89,500.767Z" transform="translate(-611.438 -410.084)" fill="#fff"/>
  <path id="Path_41" data-name="Path 41" d="M763.89,553.767h-5.737a.756.756,0,0,1-.755-.755v-8.757a.756.756,0,0,1,.755-.755h5.737a.756.756,0,0,1,.755.755v8.757A.756.756,0,0,1,763.89,553.767Z" transform="translate(-585.61 -447.08)" fill="#fff"/>
  <path id="Path_42" data-name="Path 42" d="M800.89,553.767h-5.737a.756.756,0,0,1-.755-.755v-8.757a.756.756,0,0,1,.755-.755h5.737a.756.756,0,0,1,.755.755v8.757A.756.756,0,0,1,800.89,553.767Z" transform="translate(-611.438 -447.08)" fill="#fff"/>
  <path id="Path_43" data-name="Path 43" d="M392.2,621.1H76.4a.3.3,0,0,1,0-.6H392.2a.3.3,0,0,1,0,.6Z" transform="translate(-76.102 -500.829)" fill="#dedede"/>
  <path id="Path_44" data-name="Path 44" d="M373.282,656.1H345.2a.3.3,0,0,1,0-.6h28.083a.3.3,0,0,1,0,.6Z" transform="translate(-263.731 -525.26)" fill="#dedede"/>
  <path id="Path_45" data-name="Path 45" d="M604.282,656.1H576.2a.3.3,0,0,1,0-.6h28.083a.3.3,0,1,1,0,.6Z" transform="translate(-424.978 -525.26)" fill="#dedede"/>
  <path id="Path_46" data-name="Path 46" d="M835.282,656.1H807.2a.3.3,0,0,1,0-.6h28.083a.3.3,0,1,1,0,.6Z" transform="translate(-586.224 -525.26)" fill="#dedede"/>
  <path id="Path_47" data-name="Path 47" d="M447.223,508.316c0-5.333-4.326-17.988-9.663-17.988s-9.663,12.655-9.663,17.988a9.663,9.663,0,1,0,19.326,0Z" transform="translate(-321.668 -409.964)" fill="#dedede"/>
  <path id="Path_48" data-name="Path 48" d="M439.223,508.316c0-5.333-4.326-17.988-9.663-17.988s-9.663,12.655-9.663,17.988a9.663,9.663,0,1,0,19.326,0Z" transform="translate(-316.084 -409.964)" fill="#ededed"/>
  <path id="Path_49" data-name="Path 49" d="M452.2,557.829a.3.3,0,0,1-.3-.3V530.61a.3.3,0,0,1,.6,0v26.917A.3.3,0,0,1,452.2,557.829Z" transform="translate(-338.421 -437.872)" fill="#ccc"/>
  <path id="Path_50" data-name="Path 50" d="M452.2,535.4a.3.3,0,0,1-.213-.515l3.949-3.949a.3.3,0,0,1,.427.427l-3.949,3.949a.3.3,0,0,1-.214.089Z" transform="translate(-338.421 -438.246)" fill="#ccc"/>
  <path id="Path_51" data-name="Path 51" d="M958.223,508.316c0-5.333-4.326-17.988-9.663-17.988s-9.663,12.655-9.663,17.988a9.663,9.663,0,1,0,19.326,0Z" transform="translate(-712.304 -409.964)" fill="#dedede"/>
  <path id="Path_52" data-name="Path 52" d="M950.223,508.316c0-5.333-4.326-17.988-9.663-17.988s-9.663,12.655-9.663,17.988a9.663,9.663,0,1,0,19.326,0Z" transform="translate(-706.719 -409.964)" fill="#ededed"/>
  <path id="Path_53" data-name="Path 53" d="M963.2,557.829a.3.3,0,0,1-.3-.3V530.61a.3.3,0,0,1,.6,0v26.917A.3.3,0,0,1,963.2,557.829Z" transform="translate(-729.056 -437.872)" fill="#ccc"/>
  <path id="Path_54" data-name="Path 54" d="M963.2,535.4a.3.3,0,0,1-.213-.515l3.949-3.949a.3.3,0,0,1,.427.427l-3.949,3.949A.3.3,0,0,1,963.2,535.4Z" transform="translate(-729.057 -438.246)" fill="#ccc"/>
  <path id="Path_55" data-name="Path 55" d="M615.8,542.153h-6.643a.756.756,0,0,1-.755-.755v-6.643a.755.755,0,0,1,.755-.755H615.8a.756.756,0,0,1,.755.755V541.4A.756.756,0,0,1,615.8,542.153Z" transform="translate(-317.573 -440.449)" fill="#ccc"/>
  <path id="Path_147" data-name="Path 147" d="M989.422,607.683a5.183,5.183,0,0,1,10.367,0" transform="translate(-754.359 -488.264)" fill="#ededed"/>
  <path id="Path_148" data-name="Path 148" d="M1006.264,612.7a.14.14,0,0,1-.14-.14v-2.732a.14.14,0,1,1,.28,0v2.732A.14.14,0,0,1,1006.264,612.7Z" transform="translate(-766.018 -493.284)" fill="#ccc"/>
  <path id="Path_149" data-name="Path 149" d="M1002.378,612.574a.139.139,0,0,1-.091-.034l-1.681-1.443a.14.14,0,0,1,.182-.213l1.681,1.443a.14.14,0,0,1-.091.246Z" transform="translate(-762.132 -494.094)" fill="#ccc"/>
  <path id="Path_150" data-name="Path 150" d="M1042.31,607.683a5.183,5.183,0,0,1,10.367,0" transform="translate(-791.277 -488.264)" fill="#ededed"/>
  <path id="Path_151" data-name="Path 151" d="M1059.152,612.7a.14.14,0,0,1-.14-.14v-2.732a.14.14,0,0,1,.28,0v2.732A.14.14,0,0,1,1059.152,612.7Z" transform="translate(-802.935 -493.284)" fill="#ccc"/>
  <path id="Path_152" data-name="Path 152" d="M1055.265,612.574a.139.139,0,0,1-.091-.034l-1.681-1.443a.14.14,0,1,1,.183-.213l1.681,1.443a.14.14,0,0,1-.091.246Z" transform="translate(-799.049 -494.094)" fill="#ccc"/>
</svg>
