<svg xmlns="http://www.w3.org/2000/svg" xmlns:xlink="http://www.w3.org/1999/xlink" width="50" height="50" viewBox="0 0 50 50">
  <defs>
    <linearGradient id="linear-gradient" x1="0.5" x2="0.5" y2="1" gradientUnits="objectBoundingBox">
<stop offset="0" stop-color="@fill"/>
      <stop offset="1" stop-color="@fill2"/>
      <stop offset="2" stop-color="@stroke"/>
    </linearGradient>
  </defs>
  <g id="Group_57577" data-name="Group 57577" transform="translate(-175.424 -505.424)">
    <g id="Ellipse_1079" data-name="Ellipse 1079" transform="translate(175.424 505.424)" fill="#fff" stroke="@stroke" stroke-width="2">
      <circle cx="25" cy="25" r="25" stroke="none"/>
      <circle cx="25" cy="25" r="24" fill="none"/>
    </g>
    <path id="Union_40" data-name="Union 40" d="M-19073.066-7953.926a9.7,9.7,0,0,1-8.477-6.121,8.5,8.5,0,0,1-.617-2.231,1.257,1.257,0,0,1,1-1.413,1.238,1.238,0,0,1,1.475.934,8.575,8.575,0,0,0,.541,1.887,7.162,7.162,0,0,0,5.777,4.363,7.269,7.269,0,0,0,8.131-5.852,7.291,7.291,0,0,0-5.937-8.568,7.183,7.183,0,0,0-6.318,1.92.991.991,0,0,1-.158.11,1.628,1.628,0,0,1,.217.139c.475.47.943.939,1.412,1.408a.934.934,0,0,1,.264,1.083.971.971,0,0,1-.953.594c-1.293,0-2.592,0-3.885,0a1.9,1.9,0,0,1-1.977-1.983c-.006-1.293-.006-2.591-.006-3.884a.942.942,0,0,1,.619-.948.9.9,0,0,1,1.043.249c.508.517,1.02,1.025,1.533,1.538.344-.3.67-.594,1.02-.862a9.37,9.37,0,0,1,4.785-1.939,9.6,9.6,0,0,1,8.035,2.734,9.4,9.4,0,0,1,2.9,5.867,9.782,9.782,0,0,1-5.029,9.794,9.28,9.28,0,0,1-4.564,1.225C-19072.512-7953.889-19072.789-7953.9-19073.066-7953.926Zm2.207-6.92a1.208,1.208,0,0,1-.822-.354q-.964-.948-1.916-1.921a.345.345,0,0,1-.082-.244c0-.6,0-1.2,0-1.8h.006c0-.608-.02-1.221,0-1.834a1.235,1.235,0,0,1,1.045-1.168,1.241,1.241,0,0,1,1.363.737,1.7,1.7,0,0,1,.115.627c.016.781,0,1.561.01,2.342a.518.518,0,0,0,.125.3c.373.388.766.761,1.141,1.154a1.232,1.232,0,0,1,.229,1.394,1.3,1.3,0,0,1-1.17.762Z" transform="translate(19273 8494.156)" fill="url(#linear-gradient)"/>
  </g>
</svg>
