<svg id="Group_58210" data-name="Group 58210" xmlns="http://www.w3.org/2000/svg" width="15.977" height="19.972" viewBox="0 0 15.977 19.972">
  <path id="gpp_maybe_FILL0_wght400_GRAD0_opsz48" d="M15.989,23.922a9.8,9.8,0,0,1-5.742-4.057A11.84,11.84,0,0,1,8,12.887V6.946l7.989-3,7.989,3v5.942a11.84,11.84,0,0,1-2.247,6.978A9.8,9.8,0,0,1,15.989,23.922Z" transform="translate(-8 -3.95)" fill="#e8a94f"/>
  <path id="gpp_maybe_FILL0_wght400_GRAD0_opsz48-2" data-name="gpp_maybe_FILL0_wght400_GRAD0_opsz48" d="M15.989,17.606a.852.852,0,1,0-.6-.25A.817.817,0,0,0,15.989,17.606ZM15.24,14.26h1.5V9.093h-1.5ZM15.989,13.961Z" transform="translate(-8 -3.95)" fill="#fff"/>
</svg>
