<svg id="Layer_1" data-name="Layer 1" xmlns="http://www.w3.org/2000/svg" viewBox="0 0 504.35 108.15"><defs><style>.cls-1{fill:#231f20;}.cls-2{fill:#ff6d37;}</style></defs><title>ID PASS Logo Artwork Orange Black</title><path class="cls-1" d="M337.4,246.18h38.23a75.48,75.48,0,0,1,15.12,1.45,34.27,34.27,0,0,1,12.42,5,25.37,25.37,0,0,1,8.44,9.59q3.12,6,3.12,15.19t-2.91,15.12a24.8,24.8,0,0,1-8,9.74,32.59,32.59,0,0,1-12.07,5.16A70.54,70.54,0,0,1,376.64,309H360.07V349.1H337.4Zm22.67,43.61h15.12a29.79,29.79,0,0,0,5.89-.58,15.61,15.61,0,0,0,5.09-2,10.46,10.46,0,0,0,3.63-3.78,11.9,11.9,0,0,0,1.38-6,10.22,10.22,0,0,0-1.82-6.32,12,12,0,0,0-4.65-3.71,19.86,19.86,0,0,0-6.32-1.67,65.37,65.37,0,0,0-6.69-.36H360.07Z" transform="translate(-168.77 -243.56)"/><path class="cls-1" d="M449.26,246.18H468L512.78,349.1H487.2l-8.87-21.81h-40l-8.57,21.81h-25ZM458,276.12l-12.5,32h25.15Z" transform="translate(-168.77 -243.56)"/><path class="cls-1" d="M574,271.33a16.09,16.09,0,0,0-7.49-5.16,26.72,26.72,0,0,0-8.94-1.68,23.26,23.26,0,0,0-5.08.59,19.3,19.3,0,0,0-5,1.81,10.8,10.8,0,0,0-3.77,3.27,8.3,8.3,0,0,0-1.46,4.95,8.18,8.18,0,0,0,3.49,7.12,33,33,0,0,0,8.79,4.21q5.31,1.76,11.42,3.49a47.44,47.44,0,0,1,11.41,4.95,27,27,0,0,1,8.79,8.57q3.49,5.39,3.49,14.39a33.16,33.16,0,0,1-3.2,15,30.33,30.33,0,0,1-8.65,10.61,36.86,36.86,0,0,1-12.64,6.25,58.1,58.1,0,0,1-33.8-1,46.56,46.56,0,0,1-16-9.88L531.53,321a23.64,23.64,0,0,0,8.8,7.2,24.79,24.79,0,0,0,16.57,1.89,18.23,18.23,0,0,0,5.09-2,10.91,10.91,0,0,0,3.63-3.34A8.32,8.32,0,0,0,567,320a8.7,8.7,0,0,0-3.56-7.34,32.78,32.78,0,0,0-8.94-4.58q-5.37-1.87-11.63-3.77a52.37,52.37,0,0,1-11.63-5.09,28.21,28.21,0,0,1-8.94-8.43q-3.56-5.24-3.56-13.81A30.93,30.93,0,0,1,522,262.46,31.56,31.56,0,0,1,530.73,252a37.89,37.89,0,0,1,12.58-6.32A51.29,51.29,0,0,1,558,243.56,57.9,57.9,0,0,1,574.85,246a38.89,38.89,0,0,1,14.69,8.29Z" transform="translate(-168.77 -243.56)"/><path class="cls-1" d="M657.42,271.33a16.09,16.09,0,0,0-7.49-5.16,26.72,26.72,0,0,0-8.94-1.68,23.19,23.19,0,0,0-5.08.59,19.3,19.3,0,0,0-4.95,1.81,10.92,10.92,0,0,0-3.78,3.27,8.3,8.3,0,0,0-1.45,4.95,8.18,8.18,0,0,0,3.49,7.12,32.86,32.86,0,0,0,8.79,4.21q5.31,1.76,11.42,3.49a47.44,47.44,0,0,1,11.41,4.95,27,27,0,0,1,8.79,8.57q3.5,5.39,3.49,14.39a33.16,33.16,0,0,1-3.2,15,30.33,30.33,0,0,1-8.65,10.61,36.86,36.86,0,0,1-12.64,6.25,58.1,58.1,0,0,1-33.8-1,46.56,46.56,0,0,1-16-9.88L615,321a23.64,23.64,0,0,0,8.8,7.2,24.79,24.79,0,0,0,16.57,1.89,18.23,18.23,0,0,0,5.09-2,10.91,10.91,0,0,0,3.63-3.34,8.32,8.32,0,0,0,1.38-4.8,8.7,8.7,0,0,0-3.56-7.34,32.78,32.78,0,0,0-8.94-4.58q-5.38-1.87-11.63-3.77a52.37,52.37,0,0,1-11.63-5.09,28.21,28.21,0,0,1-8.94-8.43q-3.56-5.24-3.56-13.81a30.93,30.93,0,0,1,3.27-14.54A31.56,31.56,0,0,1,614.17,252a37.89,37.89,0,0,1,12.58-6.32,51.29,51.29,0,0,1,14.68-2.11A58,58,0,0,1,658.29,246,38.85,38.85,0,0,1,673,254.32Z" transform="translate(-168.77 -243.56)"/><rect class="cls-2" y="2.62" width="22.68" height="20.93"/><polygon class="cls-2" points="0 34.89 0 42.88 0 105.54 22.68 105.54 22.68 42.88 22.68 34.89 0 34.89"/><path class="cls-2" d="M304.18,273.94A43.78,43.78,0,0,0,291,257.88a53.65,53.65,0,0,0-19.4-8.94,97.2,97.2,0,0,0-23.48-2.76h-34v70.65H236.8V267.11h13.37a50.18,50.18,0,0,1,13.6,1.82A33.44,33.44,0,0,1,275,274.38a26.26,26.26,0,0,1,7.63,9.23,28.78,28.78,0,0,1,2.84,13.16,34.52,34.52,0,0,1-2.84,14.75,25.48,25.48,0,0,1-7.77,9.74,31.35,31.35,0,0,1-11.71,5.31,63.62,63.62,0,0,1-14.6,1.59H214.12V349.1h37.07a71.65,71.65,0,0,0,21.95-3.34,56.1,56.1,0,0,0,18.46-9.82,47.31,47.31,0,0,0,12.72-16,48.91,48.91,0,0,0,4.73-22Q309.05,283.83,304.18,273.94Z" transform="translate(-168.77 -243.56)"/></svg>