<svg id="OWLNL" xmlns="http://www.w3.org/2000/svg" viewBox="0 0 1190.55 813.54"><defs><style>.cls-1,.cls-2{fill:#231f20;}.cls-1{fill-rule:evenodd;}.cls-3{fill:none;}</style></defs><title>newlogic logo black</title><path class="cls-1" d="M866.32,300.27s45.95-9.6,62-48c26.75-64-35.41-121.46-35.41-121.46C850.8,249,791.21,287.42,786.88,290.1q-2.34-7-5.15-13.76a42.5,42.5,0,0,0,26.14-39.23H760a202,202,0,0,0-329.39,0H382.68a42.51,42.51,0,0,0,26.11,39.22q-2.82,6.76-5.15,13.77c-4.33-2.67-63.93-41.09-106-159.29,0,0-62.16,57.46-35.41,121.46,16.05,38.4,62,48,62,48s-32.32,13-69.07-10.5c0,0-.25,42.23,28.32,66,28.25,23.5,65,14.75,65,14.75s-17.37,24.37-54.25,18.75c0,0,12.45,23.47,38,33.25,28.75,11,60,3.88,60,3.88s-8.25,24.37-55.5,18.87c0,0,23.75,27.5,55,41.5,26.69,12,61.22,15.05,66.35,15.45a201.91,201.91,0,0,0,274.43,0c5.13-.4,39.67-3.5,66.35-15.45,31.25-14,55-41.5,55-41.5-47.25,5.5-55.5-18.87-55.5-18.87s31.25,7.12,60-3.88c25.55-9.78,38-33.25,38-33.25-36.88,5.62-54.25-18.75-54.25-18.75s36.75,8.75,65-14.75c28.57-23.77,28.36-66,28.36-66C898.68,313.27,866.32,300.27,866.32,300.27ZM595.26,184.09a169.48,169.48,0,0,1,123.32,53H690.94A106.3,106.3,0,0,0,595.28,297a106.32,106.32,0,0,0-95.67-59.91H471.93A169.48,169.48,0,0,1,595.26,184.09ZM499.61,269a74.41,74.41,0,1,1-74.41,74.41A74.41,74.41,0,0,1,499.61,269Zm95.65,255a169.92,169.92,0,0,1-149.39-88.85,106.31,106.31,0,0,0,130-17.64L595.26,471l19.45-53.49a106.3,106.3,0,0,0,129.91,17.69A169.91,169.91,0,0,1,595.26,524Zm95.68-106.17a74.41,74.41,0,1,1,74.41-74.41A74.41,74.41,0,0,1,690.94,417.82Z"/><path class="cls-1" d="M512.89,385.93a29.24,29.24,0,1,0-29.23-29.24A29.24,29.24,0,0,0,512.89,385.93Zm-9-47.84a9.57,9.57,0,1,1-9.57,9.57A9.58,9.58,0,0,1,503.86,338.09Z"/><path class="cls-1" d="M677.66,327.46a29.24,29.24,0,1,0,29.23,29.23A29.23,29.23,0,0,0,677.66,327.46Zm-9,29.77a9.57,9.57,0,1,1,9.57-9.57A9.57,9.57,0,0,1,668.62,357.23Z"/><path class="cls-2" d="M191.34,705.12V619.75h17.32l40,52.56V619.75H267.2v85.37h-16l-41.34-54.27v54.27Z"/><path class="cls-2" d="M310.06,705.12V619.75h64.4v16.71H328.72v17.32H369v16.71H328.72v17.92h46.35v16.71Z"/><path class="cls-2" d="M435.17,705.73l-29.15-86h20.13l17.69,57.81L463,619.5h16.1l19.15,58.06,17.68-57.81h19.64l-29.15,86H490.06l-19.27-55.86-19.27,55.86Z"/><path class="cls-2" d="M564.33,705.12V619.75h18.79v68.3h42.56v17.07Z"/><path class="cls-2" d="M720,693.72q-13,12.87-32.5,12.87t-32.38-12.75a42.16,42.16,0,0,1-12.87-31.16v-.24a42.4,42.4,0,0,1,13-31.29q13-12.87,32.5-12.86T720.09,631A42.21,42.21,0,0,1,733,662.19v.25A42.39,42.39,0,0,1,720,693.72Zm-50.79-12.26a24.32,24.32,0,0,0,18.54,7.81q11.22,0,18.41-7.69a26.59,26.59,0,0,0,7.2-18.9v-.24a26.78,26.78,0,0,0-7.32-19,24.31,24.31,0,0,0-18.54-7.8q-11.22,0-18.41,7.68a26.59,26.59,0,0,0-7.2,18.9v.25A26.77,26.77,0,0,0,669.17,681.46Z"/><path class="cls-2" d="M801.4,706.59q-19.75,0-32.32-12.44t-12.57-31.47v-.24a42.73,42.73,0,0,1,12.81-31.29q12.81-12.87,31.95-12.86,11.1,0,18.79,2.86A50,50,0,0,1,834.81,630L823,644.27a40.27,40.27,0,0,0-10.36-6.59,31.22,31.22,0,0,0-12-2.07,22.64,22.64,0,0,0-17.37,7.8,26.84,26.84,0,0,0-7.14,18.78v.25q0,11.7,7.26,19.38t18.6,7.69q10.49,0,17.68-5.12v-12.2h-18.9V656h37.08v37.08A54.88,54.88,0,0,1,801.4,706.59Z"/><path class="cls-2" d="M872.5,705.12V619.75h18.78v85.37Z"/><path class="cls-2" d="M964.21,706.59q-18.78,0-31.28-12.69t-12.5-31.22v-.24q0-18.54,12.56-31.35t32-12.8q11.34,0,19.26,3.35a45,45,0,0,1,14.39,9.82l-11.94,13.78q-10.62-9.63-21.84-9.63a22.92,22.92,0,0,0-17.68,7.74,26.92,26.92,0,0,0-7.08,18.84v.25a27.41,27.41,0,0,0,7,19,22.81,22.81,0,0,0,17.74,7.81,26.63,26.63,0,0,0,11.83-2.44,46.43,46.43,0,0,0,10.62-7.57l11.94,12.08A50.2,50.2,0,0,1,984,702.74Q975.92,706.58,964.21,706.59Z"/><rect class="cls-3" width="1190.55" height="813.54"/></svg>